<svg xmlns="http://www.w3.org/2000/svg" width="190" height="397" fill="none"><rect width="186.722" height="394.583" x=".702" y=".5355" fill="url(#a)" rx="10"/><g clip-path="url(#b)"><rect width="180.557" height="381.371" x="3.785" y="7.1413" fill="#7D7C81" rx="7"/><path fill="#000" d="M3.785 7.1413h188.043v397.665H3.785z"/><path fill="#fff" d="M166.552 105.887c0-2.21 1.791-4 4-4h7.235v33.089h-7.235c-2.209 0-4-1.791-4-4v-25.089Z"/><path stroke="#000" d="m171.189 115.802 2.205 2.568-2.205 2.691"/><path fill="#fff" d="M152.192 118.325a.49.49 0 0 0-.031-.177c-.019-.051-.054-.098-.104-.141-.05-.042-.12-.083-.211-.123-.09-.041-.204-.083-.344-.125a3.7772 3.7772 0 0 1-.423-.157c-.127-.058-.239-.126-.334-.202-.096-.078-.17-.167-.223-.267-.053-.101-.079-.218-.079-.35 0-.131.027-.25.081-.357.056-.107.135-.199.236-.277.103-.08.224-.141.363-.183.14-.044.294-.066.463-.066.238 0 .443.044.614.132.174.088.307.206.399.355.094.148.141.312.141.491h-.548c0-.106-.023-.199-.069-.28-.044-.082-.111-.147-.202-.194-.09-.047-.204-.07-.342-.07-.13 0-.239.02-.326.059-.086.04-.151.093-.193.161-.043.067-.064.144-.064.229 0 .06.014.115.042.165.027.049.07.094.127.137.058.041.13.08.216.116.087.037.189.072.306.106.178.053.333.112.465.176.132.063.242.135.33.216.088.081.154.173.199.275.044.102.066.217.066.346 0 .135-.028.257-.082.366-.054.107-.132.199-.233.275-.1.075-.221.133-.362.174-.139.04-.295.06-.466.06-.155 0-.307-.021-.456-.062a1.3561 1.3561 0 0 1-.406-.187.976.976 0 0 1-.29-.317c-.072-.128-.108-.277-.108-.448h.553c0 .105.017.194.052.267a.505.505 0 0 0 .152.181.7.7 0 0 0 .225.101c.087.022.179.033.278.033.129 0 .237-.018.323-.055.088-.037.154-.088.199-.154.044-.066.066-.143.066-.229Zm2.083-1.557v.387h-1.343v-.387h1.343Zm-.956-.584h.531v2.308c0 .073.01.13.031.17.022.038.052.063.09.077.038.013.083.019.134.019a.903.903 0 0 0 .106-.006c.034-.005.061-.009.082-.013l.002.405a1.375 1.375 0 0 1-.154.035c-.058.01-.124.016-.199.016-.121 0-.229-.022-.323-.064-.094-.044-.168-.116-.221-.214-.052-.098-.079-.229-.079-.392v-2.341Zm2.709 2.489v-1.137c0-.085-.015-.158-.046-.22s-.078-.109-.141-.143c-.062-.034-.14-.051-.234-.051-.086 0-.161.015-.224.044-.063.03-.113.069-.148.119a.2905.2905 0 0 0-.053.17h-.528c0-.094.023-.185.068-.273.046-.088.112-.167.198-.236.087-.069.19-.123.311-.163.12-.04.255-.059.405-.059.179 0 .338.03.476.09.139.06.249.151.328.273.081.12.121.272.121.454v1.059c0 .109.007.206.022.293.016.085.039.159.068.222v.036h-.544c-.025-.058-.044-.13-.059-.219-.013-.089-.02-.176-.02-.259Zm.077-.972.005.329h-.381c-.099 0-.185.009-.26.028-.075.018-.138.044-.187.079-.05.036-.088.078-.113.128-.025.05-.037.107-.037.17 0 .063.014.121.044.174.029.051.072.091.128.121.057.029.126.044.207.044.108 0 .203-.022.284-.066.082-.046.146-.101.193-.165.047-.066.072-.129.075-.188l.172.236c-.017.06-.048.125-.09.194a.9513.9513 0 0 1-.168.198c-.067.062-.149.112-.244.152-.094.04-.203.06-.326.06-.156 0-.294-.031-.416-.093-.122-.063-.218-.147-.287-.253-.069-.107-.103-.229-.103-.364 0-.126.023-.237.07-.334a.6538.6538 0 0 1 .212-.247c.094-.066.208-.116.343-.15.136-.035.29-.053.463-.053h.416Zm1.544-.48v1.93h-.531v-2.383h.507l.024.453Zm.729-.469-.004.493c-.033-.005-.068-.01-.106-.013a1.3641 1.3641 0 0 0-.11-.004c-.091 0-.171.013-.24.039a.4486.4486 0 0 0-.174.111.4804.4804 0 0 0-.106.171.7628.7628 0 0 0-.044.227l-.121.009c0-.15.015-.288.044-.416.029-.128.073-.24.132-.337.06-.097.135-.173.225-.227.091-.054.196-.081.315-.081.032 0 .066.002.103.008.038.006.067.013.086.02Zm1.535.016v.387h-1.343v-.387h1.343Zm-.956-.584h.531v2.308c0 .073.01.13.031.17.022.038.052.063.09.077.038.013.083.019.134.019a.903.903 0 0 0 .106-.006c.034-.005.061-.009.082-.013l.002.405a1.375 1.375 0 0 1-.154.035c-.058.01-.124.016-.198.016-.122 0-.23-.022-.324-.064-.094-.044-.168-.116-.22-.214-.053-.098-.08-.229-.08-.392v-2.341ZM124.523 179.929h-.857v-.346h.857c.166 0 .3-.026.403-.079.102-.053.177-.126.224-.22.049-.094.073-.202.073-.322 0-.11-.024-.214-.073-.311-.047-.096-.122-.174-.224-.233-.103-.06-.237-.09-.403-.09h-.758v2.858h-.425v-3.206h1.183c.242 0 .447.042.614.125.167.084.294.2.381.348.087.147.13.315.13.505 0 .205-.043.381-.13.526-.087.145-.214.256-.381.333-.167.074-.372.112-.614.112Zm2.008-.751v2.008h-.407v-2.383h.396l.011.375Zm.745-.388-.003.379a.5628.5628 0 0 0-.097-.013.9869.9869 0 0 0-.101-.005c-.094 0-.177.015-.249.044-.072.03-.133.071-.182.124a.59.59 0 0 0-.119.189.8734.8734 0 0 0-.055.238l-.115.066c0-.144.014-.279.042-.405.029-.126.074-.238.134-.335.06-.098.137-.175.229-.229.094-.056.206-.084.335-.084.029 0 .063.004.101.011.038.006.065.013.08.02Zm1.321 2.44c-.166 0-.316-.027-.451-.083a1.0432 1.0432 0 0 1-.346-.24c-.096-.103-.169-.225-.22-.366-.052-.141-.078-.295-.078-.462v-.093c0-.194.029-.366.086-.517.058-.153.135-.282.234-.388.098-.106.21-.186.335-.24a.964.964 0 0 1 .387-.082c.17 0 .317.03.441.088.124.059.226.141.306.247.079.104.138.228.176.37.038.141.057.295.057.463v.182h-1.779v-.332h1.372v-.031a1.0223 1.0223 0 0 0-.066-.308.5586.5586 0 0 0-.177-.247c-.08-.065-.19-.097-.33-.097-.092 0-.178.02-.255.06-.078.038-.145.095-.201.171-.056.077-.099.17-.13.28-.031.11-.046.237-.046.381v.093c0 .113.015.219.046.319.033.098.079.185.139.26.062.075.136.133.222.176.089.043.188.064.3.064.144 0 .266-.029.366-.088a.9135.9135 0 0 0 .262-.236l.246.196c-.051.078-.116.152-.196.223-.079.07-.177.127-.293.171-.114.044-.25.066-.407.066Zm2.79-.676a.35.35 0 0 0-.039-.163c-.025-.051-.077-.097-.157-.138-.077-.043-.195-.08-.352-.111-.132-.027-.252-.06-.359-.099-.106-.038-.196-.084-.271-.138-.073-.055-.13-.119-.169-.192-.04-.073-.06-.159-.06-.258 0-.094.021-.182.062-.266.042-.084.102-.158.178-.223.078-.064.171-.115.28-.152.108-.036.23-.055.363-.055.191 0 .354.034.489.102.135.067.239.158.311.271.072.111.108.235.108.372h-.408c0-.066-.02-.13-.059-.192-.038-.063-.095-.115-.17-.156-.073-.041-.164-.062-.271-.062-.113 0-.205.018-.275.053-.069.034-.12.077-.152.13a.3262.3262 0 0 0-.046.167c0 .044.007.084.022.119.016.034.044.066.083.095.04.028.096.054.168.079.072.025.164.05.275.075.195.044.356.097.482.159.127.061.221.137.282.227.062.089.093.198.093.325 0 .105-.022.2-.066.287a.6434.6434 0 0 1-.187.224c-.081.062-.178.111-.291.146-.112.034-.237.05-.377.05-.21 0-.387-.037-.533-.112-.145-.075-.255-.172-.33-.291-.075-.119-.112-.244-.112-.376h.409c.006.111.038.2.097.266.059.065.131.111.216.139.085.026.17.04.253.04.112 0 .205-.015.28-.044.076-.03.134-.07.174-.121.04-.052.059-.111.059-.177Zm2.33 0a.35.35 0 0 0-.039-.163c-.025-.051-.077-.097-.157-.138-.077-.043-.195-.08-.352-.111-.132-.027-.252-.06-.359-.099-.106-.038-.196-.084-.271-.138-.073-.055-.13-.119-.169-.192-.04-.073-.06-.159-.06-.258 0-.094.021-.182.062-.266.042-.084.102-.158.178-.223.078-.064.171-.115.28-.152.109-.036.23-.055.363-.055.191 0 .354.034.489.102.135.067.239.158.311.271.072.111.108.235.108.372h-.408c0-.066-.02-.13-.059-.192-.038-.063-.095-.115-.17-.156-.073-.041-.164-.062-.271-.062-.113 0-.205.018-.275.053-.069.034-.12.077-.152.13a.3262.3262 0 0 0-.046.167c0 .044.007.084.022.119.016.034.044.066.084.095.039.028.095.054.167.079.072.025.164.05.275.075.195.044.356.097.483.159.126.061.22.137.281.227.062.089.093.198.093.325 0 .105-.022.2-.066.287a.6434.6434 0 0 1-.187.224c-.081.062-.178.111-.291.146-.112.034-.237.05-.377.05-.21 0-.387-.037-.533-.112-.145-.075-.255-.172-.33-.291-.075-.119-.112-.244-.112-.376h.409c.006.111.038.2.097.266.059.065.131.111.216.139.085.026.17.04.253.04.112 0 .205-.015.28-.044.076-.03.134-.07.174-.121.04-.052.059-.111.059-.177Zm2.786.265.652-2.016h.417l-.857 2.383h-.273l.061-.367Zm-.544-2.016.672 2.027.046.356h-.273l-.863-2.383h.418Zm1.861 1.218v-.05c0-.172.025-.331.075-.478.05-.149.122-.277.216-.386a.96.96 0 0 1 .342-.255c.133-.062.283-.093.449-.093.167 0 .318.031.451.093.135.06.25.145.344.255.095.109.168.237.218.386.05.147.075.306.075.478v.05c0 .172-.025.331-.075.478-.05.147-.123.276-.218.386-.094.108-.208.193-.341.255-.133.06-.282.09-.45.09-.167 0-.318-.03-.451-.09a1.037 1.037 0 0 1-.344-.255c-.094-.11-.166-.239-.216-.386-.05-.147-.075-.306-.075-.478Zm.408-.05v.05c0 .119.014.232.042.337.028.105.069.197.125.278.058.081.129.144.214.191.085.046.184.069.297.069.112 0 .209-.023.293-.069a.616.616 0 0 0 .212-.191.9044.9044 0 0 0 .125-.278c.029-.105.044-.218.044-.337v-.05c0-.118-.015-.229-.044-.333-.028-.106-.07-.199-.128-.28a.6002.6002 0 0 0-.211-.193c-.084-.047-.182-.071-.295-.071-.112 0-.21.024-.295.071a.6396.6396 0 0 0-.212.193c-.056.081-.097.174-.125.28-.028.104-.042.215-.042.333Zm2.715-2.167v3.382h-.409v-3.382h.409Zm2.112 2.832v-1.833h.41v2.383h-.39l-.02-.55Zm.078-.502.169-.005c0 .159-.017.306-.051.441-.032.133-.085.249-.158.348-.074.098-.17.175-.289.231-.119.054-.263.081-.433.081-.116 0-.223-.016-.32-.05a.6368.6368 0 0 1-.246-.157c-.069-.07-.123-.162-.161-.275-.037-.113-.055-.249-.055-.407v-1.538h.407v1.542c0 .107.012.196.035.267.025.069.058.124.099.165.043.039.09.067.141.083a.533.533 0 0 0 .163.025c.174 0 .311-.033.412-.099a.5631.5631 0 0 0 .218-.271c.046-.115.069-.242.069-.381Zm1.358-.857v1.909h-.409v-2.383h.387l.022.474Zm-.083.628-.19-.007c.002-.163.023-.313.064-.451.041-.14.102-.261.183-.364a.8106.8106 0 0 1 .302-.238c.12-.057.26-.086.418-.086.112 0 .215.017.308.049.094.031.176.08.245.147.069.068.123.155.161.26.038.106.057.234.057.384v1.587h-.407v-1.568c0-.124-.022-.224-.064-.299a.364.364 0 0 0-.177-.163c-.076-.035-.165-.053-.268-.053-.121 0-.221.021-.302.064a.5064.5064 0 0 0-.194.176c-.048.075-.083.161-.105.258-.021.095-.031.196-.031.304Zm1.544-.225-.274.084c.002-.131.023-.257.064-.377.043-.12.104-.228.183-.321.081-.094.18-.169.297-.223.118-.056.252-.084.403-.084.128 0 .241.017.34.051.099.034.183.086.251.156.069.069.121.158.156.267.035.109.053.238.053.388v1.565h-.41v-1.57c0-.133-.021-.237-.064-.31-.041-.075-.099-.127-.176-.157-.075-.031-.164-.046-.268-.046-.09 0-.169.015-.238.046a.4986.4986 0 0 0-.174.128.5609.5609 0 0 0-.108.183.6631.6631 0 0 0-.035.22Zm3.078 1.55c-.165 0-.316-.027-.451-.083a1.0432 1.0432 0 0 1-.346-.24 1.0715 1.0715 0 0 1-.22-.366c-.051-.141-.077-.295-.077-.462v-.093c0-.194.029-.366.086-.517.057-.153.135-.282.233-.388.099-.106.21-.186.335-.24a.9687.9687 0 0 1 .388-.082c.17 0 .317.03.44.088.125.059.227.141.306.247.079.104.138.228.176.37.039.141.058.295.058.463v.182h-1.78v-.332h1.372v-.031a1.0223 1.0223 0 0 0-.066-.308.5566.5566 0 0 0-.176-.247c-.081-.065-.191-.097-.33-.097-.093 0-.178.02-.256.06-.078.038-.144.095-.2.171-.056.077-.099.17-.13.28-.031.11-.046.237-.046.381v.093c0 .113.015.219.046.319.032.098.078.185.139.26.061.075.135.133.222.176.088.043.188.064.299.064.144 0 .266-.029.366-.088.1-.059.187-.137.262-.236l.247.196c-.052.078-.117.152-.196.223-.079.07-.177.127-.293.171-.115.044-.25.066-.408.066Zm2.932-3.426v3.382h-.41v-3.382h.41Zm1.456.999-1.04 1.113-.581.603-.033-.434.416-.498.74-.784h.498Zm-.373 2.383-.85-1.136.212-.363 1.118 1.499h-.48Zm1.738.044c-.166 0-.316-.027-.451-.083a1.0432 1.0432 0 0 1-.346-.24c-.096-.103-.169-.225-.22-.366-.052-.141-.078-.295-.078-.462v-.093c0-.194.029-.366.086-.517.058-.153.135-.282.234-.388.098-.106.21-.186.335-.24a.964.964 0 0 1 .387-.082c.17 0 .317.03.441.088.124.059.226.141.306.247.079.104.138.228.176.37.038.141.057.295.057.463v.182h-1.779v-.332h1.372v-.031a1.0223 1.0223 0 0 0-.066-.308.5645.5645 0 0 0-.176-.247c-.081-.065-.191-.097-.331-.097-.092 0-.177.02-.255.06-.078.038-.145.095-.201.171-.056.077-.099.17-.13.28-.031.11-.046.237-.046.381v.093c0 .113.015.219.046.319.033.098.079.185.139.26.062.075.136.133.223.176.088.043.187.064.299.064.144 0 .266-.029.366-.088a.9135.9135 0 0 0 .262-.236l.246.196c-.051.078-.116.152-.196.223-.079.07-.177.127-.293.171-.114.044-.25.066-.407.066Zm2.042-.29.663-2.137h.436l-.956 2.751c-.022.059-.052.122-.088.19a.9378.9378 0 0 1-.137.196.6515.6515 0 0 1-.203.149c-.077.04-.171.06-.279.06-.033 0-.074-.005-.124-.013a1.8096 1.8096 0 0 1-.105-.022l-.002-.331c.011.002.03.003.055.005a.51.51 0 0 0 .055.004c.092 0 .171-.012.235-.037a.3546.3546 0 0 0 .163-.122c.046-.055.085-.132.117-.231l.17-.462Zm-.487-2.137.619 1.85.105.43-.292.15-.877-2.43h.445Zm3.341 1.751a.339.339 0 0 0-.04-.163c-.025-.051-.077-.097-.156-.138-.078-.043-.195-.08-.353-.111-.132-.027-.251-.06-.359-.099-.105-.038-.196-.084-.27-.138a.593.593 0 0 1-.17-.192c-.04-.073-.059-.159-.059-.258 0-.094.02-.182.061-.266a.7167.7167 0 0 1 .179-.223c.077-.064.171-.115.279-.152.109-.036.23-.055.364-.055.191 0 .354.034.489.102.135.067.238.158.31.271.072.111.108.235.108.372h-.407c0-.066-.02-.13-.06-.192-.038-.063-.095-.115-.169-.156-.074-.041-.164-.062-.271-.062-.113 0-.205.018-.276.053-.069.034-.119.077-.152.13a.3362.3362 0 0 0-.046.167c0 .044.008.084.022.119.016.034.044.066.084.095.04.028.095.054.167.079.072.025.164.05.276.075.195.044.356.097.482.159.126.061.22.137.282.227.061.089.092.198.092.325 0 .105-.022.2-.066.287-.042.086-.105.161-.187.224-.081.062-.178.111-.291.146-.111.034-.237.05-.376.05-.21 0-.388-.037-.533-.112-.146-.075-.256-.172-.331-.291-.075-.119-.112-.244-.112-.376h.41c.006.111.038.2.097.266.058.065.13.111.215.139.086.026.17.04.254.04.111 0 .205-.015.279-.044.077-.03.135-.07.174-.121.04-.052.06-.111.06-.177Zm3.059-1.751v.313h-1.288v-.313h1.288Zm-.852-.579h.407v2.372c0 .081.013.142.037.183.025.041.058.068.097.081.04.014.083.02.128.02.034 0 .069-.003.106-.009.038-.007.067-.013.086-.017l.002.332c-.032.011-.075.02-.128.029-.051.01-.114.015-.187.015-.1 0-.192-.019-.275-.059-.084-.04-.151-.106-.201-.198-.048-.094-.072-.22-.072-.379v-2.37Zm1.178 1.797v-.05c0-.172.025-.331.075-.478.05-.149.122-.277.216-.386.094-.11.207-.195.341-.255.134-.062.283-.093.449-.093.168 0 .318.031.452.093.135.06.249.145.343.255.096.109.168.237.218.386.05.147.075.306.075.478v.05c0 .172-.025.331-.075.478-.05.147-.122.276-.218.386-.094.108-.207.193-.341.255-.132.06-.282.09-.449.09-.168 0-.318-.03-.452-.09a1.033 1.033 0 0 1-.343-.255c-.094-.11-.166-.239-.216-.386-.05-.147-.075-.306-.075-.478Zm.407-.05v.05c0 .119.014.232.042.337.028.105.07.197.126.278.057.081.128.144.213.191.085.046.185.069.298.069.111 0 .209-.023.293-.069.085-.047.155-.11.211-.191a.883.883 0 0 0 .126-.278c.029-.105.044-.218.044-.337v-.05c0-.118-.015-.229-.044-.333a.8656.8656 0 0 0-.128-.28.6032.6032 0 0 0-.212-.193c-.083-.047-.182-.071-.295-.071-.111 0-.21.024-.295.071a.627.627 0 0 0-.211.193c-.056.081-.098.174-.126.28-.028.104-.042.215-.042.333Zm-38.805 5.583a.339.339 0 0 0-.04-.163c-.025-.051-.077-.097-.156-.138-.078-.043-.195-.08-.353-.111-.132-.027-.251-.06-.359-.099-.105-.038-.196-.084-.27-.138a.593.593 0 0 1-.17-.192c-.04-.073-.06-.159-.06-.258 0-.094.021-.182.062-.266a.7167.7167 0 0 1 .179-.223c.077-.064.171-.115.279-.152.109-.036.23-.055.364-.055.191 0 .353.034.489.102.135.067.238.158.31.271.072.111.108.235.108.372h-.407c0-.066-.02-.13-.06-.192-.038-.063-.095-.115-.169-.156-.074-.041-.164-.062-.271-.062-.113 0-.205.018-.276.053-.069.034-.119.077-.152.13a.3362.3362 0 0 0-.046.167c0 .044.007.084.022.119.016.034.044.066.084.095.039.028.095.054.167.079.072.025.164.05.276.075.195.044.356.097.482.159.126.061.22.137.282.227.061.089.092.198.092.325 0 .105-.022.2-.066.287-.042.086-.105.161-.187.224-.081.062-.178.111-.291.146-.111.034-.237.05-.376.05-.21 0-.388-.037-.533-.112-.146-.075-.256-.172-.331-.291-.075-.119-.112-.244-.112-.376h.41c.006.111.038.2.097.266.058.065.13.111.215.139.086.026.17.04.254.04.111 0 .204-.015.279-.044.077-.03.135-.07.174-.121.04-.052.06-.111.06-.177Zm1.931.676c-.166 0-.316-.027-.451-.083a1.0432 1.0432 0 0 1-.346-.24 1.0715 1.0715 0 0 1-.22-.366c-.052-.141-.077-.295-.077-.462v-.093c0-.194.028-.366.086-.517.057-.153.135-.282.233-.388.098-.106.21-.186.335-.24a.9676.9676 0 0 1 .387-.082c.171 0 .318.03.441.088.125.059.227.141.306.247.079.104.138.228.176.37.038.141.057.295.057.463v.182h-1.779v-.332h1.372v-.031a1.0223 1.0223 0 0 0-.066-.308.5566.5566 0 0 0-.176-.247c-.081-.065-.191-.097-.331-.097-.092 0-.177.02-.255.06-.078.038-.145.095-.2.171-.056.077-.1.17-.13.28-.031.11-.047.237-.047.381v.093c0 .113.016.219.047.319.032.098.078.185.138.26.062.075.136.133.223.176.088.043.188.064.299.064.144 0 .266-.029.366-.088.1-.059.187-.137.262-.236l.247.196c-.052.078-.117.152-.196.223-.08.07-.177.127-.293.171-.115.044-.251.066-.408.066Zm1.846-3.426v3.382h-.41v-3.382h.41Zm1.643 3.426c-.166 0-.317-.027-.452-.083-.133-.058-.249-.138-.345-.24-.096-.103-.169-.225-.221-.366-.051-.141-.077-.295-.077-.462v-.093c0-.194.029-.366.086-.517.057-.153.135-.282.234-.388.098-.106.21-.186.334-.24a.9687.9687 0 0 1 .388-.082c.17 0 .317.03.44.088.125.059.227.141.307.247.079.104.138.228.176.37.038.141.057.295.057.463v.182h-1.78v-.332h1.373v-.031a.9942.9942 0 0 0-.067-.308.549.549 0 0 0-.176-.247c-.08-.065-.191-.097-.33-.097-.093 0-.178.02-.256.06-.077.038-.144.095-.2.171-.056.077-.099.17-.13.28-.031.11-.046.237-.046.381v.093c0 .113.015.219.046.319.032.098.079.185.139.26.062.075.136.133.222.176.088.043.188.064.3.064.144 0 .266-.029.365-.088.1-.059.188-.137.262-.236l.247.196c-.051.078-.117.152-.196.223-.079.07-.177.127-.293.171-.114.044-.25.066-.407.066Zm2.356-.334c.097 0 .187-.02.269-.06.082-.039.15-.094.203-.163.052-.07.083-.15.09-.24h.388c-.008.141-.056.273-.144.394-.086.121-.2.218-.341.293-.141.074-.296.11-.465.11-.179 0-.335-.031-.469-.094a.929.929 0 0 1-.33-.26c-.087-.11-.152-.237-.196-.379-.043-.144-.064-.296-.064-.456v-.092c0-.16.021-.312.064-.454.044-.144.109-.271.196-.381a.929.929 0 0 1 .33-.26c.134-.063.29-.095.469-.095.187 0 .35.039.489.115.14.075.249.178.328.308.081.129.125.276.133.441h-.388a.579.579 0 0 0-.084-.267.518.518 0 0 0-.194-.189c-.08-.049-.175-.073-.284-.073-.124 0-.229.025-.315.075a.558.558 0 0 0-.2.198.932.932 0 0 0-.106.276c-.02.099-.031.201-.031.306v.092c0 .104.011.207.031.309.021.101.055.193.104.275.05.082.116.148.2.198.085.048.191.073.317.073Zm2.405-2.093v.313h-1.288v-.313h1.288Zm-.852-.579h.407v2.372c0 .081.013.142.038.183.025.041.057.068.097.081.039.014.082.02.127.02.034 0 .069-.003.106-.009.038-.007.067-.013.086-.017l.002.332c-.032.011-.075.02-.127.029-.052.01-.114.015-.188.015-.099 0-.191-.019-.275-.059-.084-.04-.15-.106-.2-.198-.049-.094-.073-.22-.073-.379v-2.37Zm3.951 2.5v-2.92h.41v3.382h-.375l-.035-.462Zm-1.603-.703v-.046c0-.182.022-.347.066-.495.045-.15.109-.279.191-.386.084-.107.183-.189.298-.247.116-.058.245-.088.387-.088.15 0 .281.027.392.08.113.051.209.127.287.227.079.098.141.217.187.356.045.14.077.298.095.474v.202c-.017.175-.048.332-.095.472-.046.139-.108.258-.187.357a.7805.7805 0 0 1-.287.226c-.113.052-.245.077-.396.077-.14 0-.267-.03-.383-.09-.115-.06-.214-.144-.298-.253-.082-.109-.146-.237-.191-.383-.044-.149-.066-.309-.066-.483Zm.409-.046v.046c0 .119.012.231.036.335.025.104.063.196.114.275.051.08.117.142.196.188.079.044.174.066.284.066.135 0 .246-.029.333-.086a.6394.6394 0 0 0 .211-.227c.053-.094.094-.196.124-.306v-.531a1.1602 1.1602 0 0 0-.078-.233.7038.7038 0 0 0-.127-.203.562.562 0 0 0-.192-.143c-.075-.035-.164-.053-.266-.053-.112 0-.208.023-.289.07a.565.565 0 0 0-.196.19c-.051.079-.089.172-.114.277a1.496 1.496 0 0 0-.036.335Zm2.681-1.172v2.383h-.41v-2.383h.41Zm-.441-.632c0-.066.02-.121.06-.167.041-.046.101-.068.18-.068.078 0 .137.022.179.068.042.046.063.101.063.167 0 .064-.021.118-.063.163-.042.044-.101.066-.179.066-.079 0-.139-.022-.18-.066-.04-.045-.06-.099-.06-.163Zm1.703 3.015h-.408v-2.634c0-.171.031-.316.093-.433.063-.119.153-.209.27-.269.118-.062.257-.093.419-.093.047 0 .094.003.141.009.048.006.095.015.141.027l-.022.332a.7301.7301 0 0 0-.106-.015 1.4487 1.4487 0 0 0-.114-.005c-.087 0-.162.018-.225.053a.3309.3309 0 0 0-.141.15c-.032.066-.048.147-.048.244v2.634Zm.506-2.383v.313h-1.29v-.313h1.29Zm1.062 2.383h-.408v-2.634c0-.171.031-.316.093-.433.063-.119.153-.209.271-.269.117-.062.257-.093.418-.093.047 0 .094.003.141.009.048.006.095.015.141.027l-.022.332a.7301.7301 0 0 0-.106-.015 1.4487 1.4487 0 0 0-.114-.005c-.087 0-.162.018-.225.053a.3309.3309 0 0 0-.141.15c-.032.066-.048.147-.048.244v2.634Zm.506-2.383v.313h-1.29v-.313h1.29Zm1.39 2.427c-.166 0-.317-.027-.452-.083-.133-.058-.249-.138-.345-.24-.096-.103-.169-.225-.221-.366-.051-.141-.077-.295-.077-.462v-.093c0-.194.029-.366.086-.517.057-.153.135-.282.234-.388.098-.106.21-.186.334-.24a.9687.9687 0 0 1 .388-.082c.17 0 .317.03.44.088.125.059.227.141.307.247.079.104.138.228.176.37.038.141.057.295.057.463v.182h-1.779v-.332h1.372v-.031a1.0223 1.0223 0 0 0-.066-.308.5586.5586 0 0 0-.177-.247c-.08-.065-.191-.097-.33-.097-.093 0-.178.02-.255.06-.078.038-.145.095-.201.171-.056.077-.099.17-.13.28-.031.11-.046.237-.046.381v.093c0 .113.015.219.046.319.032.098.079.185.139.26.062.075.136.133.222.176.088.043.188.064.3.064.144 0 .266-.029.365-.088.1-.059.188-.137.263-.236l.246.196c-.051.078-.117.152-.196.223-.079.07-.177.127-.293.171-.114.044-.25.066-.407.066Zm1.81-2.052v2.008h-.407v-2.383h.396l.011.375Zm.745-.388-.003.379a.5628.5628 0 0 0-.097-.013.9869.9869 0 0 0-.101-.005c-.094 0-.177.015-.249.044-.072.03-.133.071-.182.124a.59.59 0 0 0-.119.189.8734.8734 0 0 0-.055.238l-.115.066c0-.144.014-.279.042-.405.029-.126.074-.238.134-.335.06-.098.137-.175.229-.229.094-.056.206-.084.335-.084.029 0 .063.004.101.011.038.006.065.013.08.02Zm1.321 2.44c-.166 0-.316-.027-.451-.083a1.0432 1.0432 0 0 1-.346-.24c-.096-.103-.169-.225-.22-.366-.052-.141-.078-.295-.078-.462v-.093c0-.194.029-.366.086-.517.058-.153.135-.282.234-.388.098-.106.21-.186.335-.24a.964.964 0 0 1 .387-.082c.17 0 .317.03.441.088.124.059.226.141.306.247.079.104.138.228.176.37.038.141.057.295.057.463v.182h-1.779v-.332h1.372v-.031a1.0223 1.0223 0 0 0-.066-.308.5586.5586 0 0 0-.177-.247c-.08-.065-.19-.097-.33-.097-.092 0-.178.02-.255.06-.078.038-.145.095-.201.171-.056.077-.099.17-.13.28-.031.11-.046.237-.046.381v.093c0 .113.015.219.046.319.033.098.079.185.139.26.062.075.136.133.222.176.089.043.188.064.3.064.144 0 .266-.029.366-.088a.9135.9135 0 0 0 .262-.236l.246.196c-.051.078-.116.152-.196.223-.079.07-.177.127-.293.171-.114.044-.25.066-.407.066Zm1.81-1.918v1.874h-.407v-2.383h.385l.022.509Zm-.097.593-.169-.007c.001-.163.026-.313.073-.451.047-.14.113-.261.198-.364a.8771.8771 0 0 1 .304-.238c.119-.057.25-.086.394-.086.117 0 .223.017.317.049a.576.576 0 0 1 .24.15c.068.069.119.158.154.268.035.109.053.242.053.399v1.561h-.41v-1.565c0-.125-.018-.225-.055-.3-.036-.076-.09-.131-.16-.165-.071-.035-.157-.053-.26-.053-.102 0-.194.021-.278.064a.6524.6524 0 0 0-.213.176.8882.8882 0 0 0-.139.258.945.945 0 0 0-.049.304Zm3.181-1.102v.313h-1.289v-.313h1.289Zm-.853-.579h.408v2.372c0 .081.012.142.037.183.025.041.057.068.097.081.04.014.082.02.128.02.034 0 .069-.003.106-.009.038-.007.066-.013.085-.017l.003.332c-.033.011-.075.02-.128.029-.051.01-.114.015-.187.015-.1 0-.192-.019-.276-.059-.083-.04-.15-.106-.2-.198-.048-.094-.073-.22-.073-.379v-2.37Zm2.855 1.053v1.909h-.41v-2.383h.388l.022.474Zm-.084.628-.19-.007c.002-.163.023-.313.064-.451.041-.14.102-.261.183-.364a.8106.8106 0 0 1 .302-.238c.12-.057.26-.086.418-.086.112 0 .215.017.309.049.094.031.175.08.244.147.069.068.123.155.161.26.038.106.057.234.057.384v1.587h-.407v-1.568c0-.124-.022-.224-.064-.299a.3662.3662 0 0 0-.176-.163c-.077-.035-.166-.053-.269-.053-.12 0-.221.021-.302.064a.5064.5064 0 0 0-.194.176c-.048.075-.083.161-.105.258-.021.095-.031.196-.031.304Zm1.544-.225-.273.084c.001-.131.022-.257.064-.377s.103-.228.182-.321c.081-.094.18-.169.298-.223.117-.056.251-.084.403-.084.127 0 .24.017.339.051.1.034.183.086.251.156.069.069.121.158.156.267.035.109.053.238.053.388v1.565h-.41v-1.57c0-.133-.021-.237-.063-.31-.042-.075-.1-.127-.177-.157-.074-.031-.164-.046-.268-.046-.09 0-.169.015-.238.046a.4986.4986 0 0 0-.174.128.5609.5609 0 0 0-.108.183.6631.6631 0 0 0-.035.22Zm3.079 1.55c-.166 0-.317-.027-.452-.083a1.0535 1.0535 0 0 1-.346-.24c-.095-.103-.168-.225-.22-.366-.051-.141-.077-.295-.077-.462v-.093c0-.194.029-.366.086-.517.057-.153.135-.282.233-.388.099-.106.21-.186.335-.24a.9687.9687 0 0 1 .388-.082c.17 0 .317.03.44.088.125.059.227.141.306.247.08.104.138.228.177.37.038.141.057.295.057.463v.182h-1.78v-.332h1.372v-.031a.9928.9928 0 0 0-.066-.308.549.549 0 0 0-.176-.247c-.081-.065-.191-.097-.33-.097-.093 0-.178.02-.256.06-.078.038-.144.095-.2.171-.056.077-.099.17-.13.28-.031.11-.046.237-.046.381v.093c0 .113.015.219.046.319.032.098.078.185.139.26.061.075.136.133.222.176.088.043.188.064.3.064.144 0 .265-.029.365-.088.1-.059.187-.137.262-.236l.247.196c-.051.078-.117.152-.196.223-.079.07-.177.127-.293.171-.114.044-.25.066-.407.066Zm1.81-1.918v1.874h-.407v-2.383h.385l.022.509Zm-.097.593-.17-.007c.002-.163.026-.313.073-.451.047-.14.113-.261.198-.364a.8959.8959 0 0 1 .304-.238c.119-.057.251-.086.395-.086.117 0 .223.017.317.049a.576.576 0 0 1 .24.15c.067.069.119.158.154.268.035.109.053.242.053.399v1.561h-.41v-1.565c0-.125-.018-.225-.055-.3-.037-.076-.09-.131-.161-.165-.07-.035-.157-.053-.26-.053-.101 0-.193.021-.277.064a.6558.6558 0 0 0-.214.176.886.886 0 0 0-.138.258.9184.9184 0 0 0-.049.304Zm3.641.731v-1.833h.409v2.383h-.39l-.019-.55Zm.077-.502.169-.005c0 .159-.017.306-.05.441-.033.133-.086.249-.159.348-.073.098-.17.175-.289.231-.118.054-.263.081-.433.081-.116 0-.223-.016-.32-.05a.6368.6368 0 0 1-.246-.157c-.069-.07-.123-.162-.161-.275-.037-.113-.055-.249-.055-.407v-1.538h.407v1.542c0 .107.012.196.035.267.025.069.058.124.1.165a.363.363 0 0 0 .141.083c.052.017.107.025.162.025.174 0 .311-.033.412-.099a.5631.5631 0 0 0 .218-.271c.046-.115.069-.242.069-.381Zm2.341.42a.339.339 0 0 0-.04-.163c-.025-.051-.077-.097-.156-.138-.078-.043-.196-.08-.353-.111-.132-.027-.251-.06-.359-.099-.105-.038-.196-.084-.271-.138a.6013.6013 0 0 1-.169-.192c-.04-.073-.06-.159-.06-.258 0-.094.021-.182.062-.266a.7278.7278 0 0 1 .178-.223c.078-.064.172-.115.28-.152.109-.036.23-.055.364-.055.19 0 .353.034.489.102.135.067.238.158.31.271.072.111.108.235.108.372h-.407c0-.066-.02-.13-.06-.192-.038-.063-.095-.115-.17-.156-.073-.041-.163-.062-.27-.062-.113 0-.205.018-.276.053-.069.034-.119.077-.152.13a.3262.3262 0 0 0-.046.167c0 .044.007.084.022.119.016.034.044.066.084.095.039.028.095.054.167.079.072.025.164.05.275.075.196.044.357.097.483.159.126.061.22.137.282.227.061.089.092.198.092.325 0 .105-.022.2-.066.287-.042.086-.105.161-.187.224-.081.062-.178.111-.291.146-.111.034-.237.05-.376.05-.21 0-.388-.037-.533-.112-.146-.075-.256-.172-.331-.291-.075-.119-.112-.244-.112-.376h.41c.005.111.038.2.096.266.059.065.131.111.216.139.085.026.17.04.254.04.111 0 .204-.015.279-.044.077-.03.135-.07.174-.121.04-.052.06-.111.06-.177ZM168.725 159.853l2.308-2.302 2.307 2.302.709-.708-3.016-3.017-3.017 3.017.709.708ZM168.725 210.425l2.308 2.302 2.307-2.302.709.709-3.016 3.016-3.017-3.016.709-.709Z"/><g filter="url(#c)"><path fill="#fff" d="M13.0329 215.442 11.2714 36.4268l-.8808 179.0152.8808 179.676 1.7615-179.676Z"/></g><g filter="url(#d)"><path fill="#fff" d="m179.497 140.361-1.174-117.3659-.587 117.3659.587 117.798 1.174-117.798Z"/></g><g clip-path="url(#e)" style="mix-blend-mode:exclusion"><rect width="8.8077" height="8.8077" x="89.6595" y="13.3067" fill="#353535" rx="4.4038"/><g clip-path="url(#f)"><rect width="5.2846" height="5.2846" x="91.4212" y="15.0685" fill="#000" rx="2.6423"/><g filter="url(#g)" opacity=".6"><circle cx="92.5221" cy="17.0503" r=".6606" fill="#fff"/></g></g><g filter="url(#h)" opacity=".3"><rect width="3.5231" height="3.5231" x="94.0636" y="18.1511" fill="#fff" rx="1.7615"/></g><g filter="url(#i)" opacity=".3"><rect width="2.6423" height="2.6423" x="90.9808" y="14.1876" fill="#fff" rx="1.3212"/></g></g></g><path fill="#121214" d="M189.186 107.108c0-1.702-1.38-3.083-3.083-3.083v30.827c1.703 0 3.083-1.38 3.083-3.083v-24.661ZM189.186 157.752c0-1.702-1.38-3.083-3.083-3.083v61.654c1.703 0 3.083-1.38 3.083-3.083v-55.488Z"/><g filter="url(#j)"><path fill="#fff" d="m177.736 343.94-1.174-50.99-.587 50.99.587 51.178 1.174-51.178Z"/></g><g filter="url(#k)"><path fill="#fff" d="m12.1523 20.38-.5872-18.2422-.2936 18.2422.2936 18.3095.5872-18.3095Z"/></g><g clip-path="url(#l)"><path fill="#2E2E33" d="M81.2923.5355h25.1017c0 .9729-.789 1.7616-1.761 1.7616H83.0538c-.9728 0-1.7615-.7887-1.7615-1.7616Z"/><g stroke="#fff" stroke-width=".1321" opacity=".1"/></g><path fill="#D31D2C" d="M30.0484 279.232v5.145h-.6819v-5.145h.6819Zm2.1555 2.315v.558H29.9v-.558h2.3039Zm.3498-2.315v.559H29.9v-.559h2.6537Zm2.848 4.491v-1.968c0-.15-.0306-.281-.0919-.392-.0589-.113-.1484-.2-.2685-.261-.1202-.062-.2686-.092-.4452-.092-.1649 0-.3098.028-.4347.085-.1225.056-.219.13-.2897.222-.0683.092-.1025.191-.1025.297h-.6537c0-.137.0353-.272.106-.406.0707-.135.172-.256.3039-.364.1343-.111.2945-.198.4806-.262.1884-.066.3981-.099.6289-.099.278 0 .523.047.735.142.2144.094.3816.236.5018.427.1225.189.1837.425.1837.71v1.781c0 .127.0106.263.0318.407.0236.143.0577.267.1025.371v.056h-.682c-.033-.075-.0589-.175-.0777-.3a2.4145 2.4145 0 0 1-.0283-.354Zm.1131-1.664.007.46h-.6607c-.1861 0-.3522.015-.4983.046-.146.028-.2685.071-.3674.13-.099.059-.1744.133-.2262.223-.0518.087-.0777.189-.0777.307 0 .12.0271.23.0812.329.0542.099.1355.178.2439.237.1107.056.2461.084.4063.084.2002 0 .3769-.042.53-.127.1532-.085.2745-.188.364-.311.0919-.122.1413-.241.1484-.357l.2791.315c-.0164.099-.0612.208-.1342.328-.0731.121-.1708.236-.2933.347-.1201.108-.2638.199-.4311.272-.1649.071-.351.106-.5583.106-.2591 0-.4864-.051-.682-.152-.1931-.101-.3439-.237-.4523-.406-.106-.172-.159-.364-.159-.576 0-.205.0401-.386.1202-.541.0801-.158.1955-.289.3463-.392.1507-.106.3321-.186.5441-.241.212-.054.4488-.081.7103-.081h.7597Zm3.795 1.304a.5488.5488 0 0 0-.0636-.261c-.0401-.083-.1237-.157-.2509-.223-.1249-.068-.3133-.127-.5654-.177-.212-.044-.404-.097-.5759-.159-.1697-.061-.3145-.135-.4347-.222-.1177-.087-.2084-.19-.272-.308-.0636-.118-.0954-.255-.0954-.413a.96.96 0 0 1 .0989-.428c.0683-.134.1637-.253.2862-.357.1249-.103.2744-.185.4488-.243.1743-.059.3686-.089.583-.089.3062 0 .5677.054.7844.163.2168.108.3828.253.4983.434.1154.179.1731.379.1731.598h-.6537c0-.106-.0318-.209-.0954-.308-.0613-.101-.1519-.185-.2721-.251-.1178-.066-.2626-.099-.4346-.099-.1814 0-.3286.029-.4417.085-.1107.054-.192.124-.2438.209a.5211.5211 0 0 0-.0742.268c0 .071.0118.134.0353.191.0259.054.0707.105.1343.152.0636.045.1531.087.2685.127.1155.04.2627.08.4417.12.3133.071.5713.156.7739.255s.3533.22.4523.364c.0989.143.1484.318.1484.523 0 .167-.0354.32-.106.459-.0684.139-.1685.259-.3004.36-.1295.099-.285.177-.4664.234-.179.054-.3805.081-.6042.081-.3369 0-.6219-.06-.8552-.18-.2332-.12-.4098-.276-.53-.467-.1201-.191-.1802-.392-.1802-.604h.6572c.0095.179.0613.322.1555.428a.8.8 0 0 0 .3463.222c.1366.043.2721.064.4064.064.179 0 .3286-.024.4487-.071.1225-.047.2156-.112.2792-.194a.4524.4524 0 0 0 .0954-.283Zm3.113-2.809v.502h-2.0671v-.502h2.0671Zm-1.3675-.929h.6537v3.805c0 .13.02.228.0601.293.04.066.0919.11.1555.131a.6497.6497 0 0 0 .2049.032c.0542 0 .1107-.005.1696-.014.0613-.012.1072-.021.1378-.028l.0036.533c-.0519.017-.1202.032-.205.046-.0824.017-.1825.025-.3003.025-.1602 0-.3074-.032-.4417-.096-.1343-.063-.2415-.169-.3216-.318-.0777-.15-.1166-.353-.1166-.607v-3.802Zm2.1307-.675h.6573v4.685l-.0566.742h-.6007v-5.427Zm3.2403 3.484v.074c0 .278-.033.536-.099.774-.0659.235-.1625.44-.2897.615-.1272.174-.2827.309-.4664.406-.1838.097-.3946.145-.6325.145-.2427 0-.4559-.041-.6396-.124a1.258 1.258 0 0 1-.4594-.364c-.1248-.158-.2249-.348-.3003-.572-.073-.224-.1237-.476-.152-.756v-.325c.0283-.283.079-.536.152-.76.0754-.224.1755-.415.3003-.573.1249-.16.278-.281.4594-.364.1814-.084.3922-.127.6325-.127.2403 0 .4535.047.6396.142.1861.091.3415.223.4664.395.1272.172.2238.378.2897.619.066.238.099.503.099.795Zm-.6573.074v-.074c0-.191-.0176-.37-.053-.537-.0353-.17-.0918-.318-.1696-.446a.846.846 0 0 0-.3074-.303c-.1272-.076-.2839-.114-.4699-.114-.1649 0-.3086.029-.4311.085a.9332.9332 0 0 0-.3075.23 1.2206 1.2206 0 0 0-.2084.325c-.0519.12-.0907.245-.1166.375v.851c.0377.165.0989.324.1837.477.0872.151.2026.275.3463.371.146.097.3263.145.5406.145.1767 0 .3275-.035.4523-.106a.8536.8536 0 0 0 .3074-.3c.0801-.127.139-.275.1767-.442.0377-.167.0565-.346.0565-.537Zm1.311 0v-.081c0-.276.04-.532.1201-.767.0801-.238.1955-.444.3463-.618.1508-.177.3333-.314.5477-.41.2144-.099.4546-.149.7208-.149.2686 0 .51.05.7244.149.2167.096.4005.233.5512.41.1531.174.2698.38.3498.618.0801.235.1202.491.1202.767v.081c0 .276-.0401.531-.1202.767-.08.235-.1967.441-.3498.618a1.607 1.607 0 0 1-.5477.41c-.212.097-.4523.145-.7208.145-.2686 0-.51-.048-.7244-.145a1.6448 1.6448 0 0 1-.5512-.41c-.1508-.177-.2662-.383-.3463-.618-.0801-.236-.1201-.491-.1201-.767Zm.6537-.081v.081c0 .191.0223.371.0671.541.0448.167.1119.315.2014.445.0919.129.2061.232.3428.307.1366.073.2956.11.477.11.179 0 .3357-.037.47-.11a.9873.9873 0 0 0 .3392-.307c.0895-.13.1566-.278.2014-.445.0471-.17.0706-.35.0706-.541v-.081c0-.189-.0235-.367-.0706-.534-.0448-.169-.1131-.319-.205-.449a.9793.9793 0 0 0-.3392-.311c-.1343-.075-.2921-.113-.4735-.113-.179 0-.3368.038-.4735.113a1.0234 1.0234 0 0 0-.3392.311c-.0895.13-.1566.28-.2014.449-.0448.167-.0671.345-.0671.534Zm3.4734.081v-.081c0-.276.0401-.532.1202-.767.0801-.238.1955-.444.3462-.618.1508-.177.3334-.314.5477-.41.2144-.099.4547-.149.7209-.149.2685 0 .51.05.7243.149.2168.096.4005.233.5513.41.1531.174.2697.38.3498.618.0801.235.1201.491.1201.767v.081c0 .276-.04.531-.1201.767-.0801.235-.1967.441-.3498.618a1.6089 1.6089 0 0 1-.5477.41c-.212.097-.4523.145-.7209.145-.2685 0-.51-.048-.7243-.145a1.6452 1.6452 0 0 1-.5513-.41c-.1507-.177-.2661-.383-.3462-.618-.0801-.236-.1202-.491-.1202-.767Zm.6537-.081v.081c0 .191.0224.371.0672.541.0447.167.1118.315.2014.445.0918.129.2061.232.3427.307.1366.073.2957.11.477.11.1791 0 .3357-.037.47-.11a.9873.9873 0 0 0 .3392-.307c.0895-.13.1567-.278.2014-.445.0471-.17.0707-.35.0707-.541v-.081c0-.189-.0236-.367-.0707-.534-.0447-.169-.113-.319-.2049-.449a.9793.9793 0 0 0-.3392-.311c-.1343-.075-.2921-.113-.4735-.113-.1791 0-.3369.038-.4735.113a1.0215 1.0215 0 0 0-.3392.311c-.0896.13-.1567.28-.2014.449-.0448.167-.0672.345-.0672.534Zm5.2473-1.873v.502H55.041v-.502h2.0671Zm-1.3675-.929h.6537v3.805c0 .13.02.228.0601.293.04.066.0919.11.1555.131a.6497.6497 0 0 0 .2049.032c.0542 0 .1107-.005.1696-.014.0613-.012.1072-.021.1378-.028l.0036.533c-.0519.017-.1202.032-.205.046-.0824.017-.1826.025-.3003.025-.1602 0-.3075-.032-.4417-.096-.1343-.063-.2415-.169-.3216-.318-.0777-.15-.1166-.353-.1166-.607v-3.802Zm4.2438-.393h.6607l1.6855 4.195 1.682-4.195h.6643l-2.0919 5.145h-.5159l-2.0847-5.145Zm-.2156 0h.5831l.0954 3.138v2.007h-.6785v-5.145Zm4.5371 0h.583v5.145h-.6784v-2.007l.0954-3.138Zm1.5088 3.276v-.081c0-.276.04-.532.1201-.767.0801-.238.1955-.444.3463-.618.1508-.177.3333-.314.5477-.41.2144-.099.4546-.149.7208-.149.2686 0 .51.05.7244.149.2167.096.4005.233.5512.41.1531.174.2698.38.3498.618.0801.235.1202.491.1202.767v.081c0 .276-.0401.531-.1202.767-.08.235-.1967.441-.3498.618a1.607 1.607 0 0 1-.5477.41c-.212.097-.4523.145-.7208.145-.2686 0-.51-.048-.7244-.145a1.6448 1.6448 0 0 1-.5512-.41c-.1508-.177-.2662-.383-.3463-.618-.0801-.236-.1201-.491-.1201-.767Zm.6537-.081v.081c0 .191.0224.371.0671.541.0448.167.1119.315.2014.445.0919.129.2061.232.3428.307.1366.073.2956.11.477.11.179 0 .3357-.037.47-.11a.9873.9873 0 0 0 .3392-.307c.0895-.13.1566-.278.2014-.445.0471-.17.0707-.35.0707-.541v-.081c0-.189-.0236-.367-.0707-.534-.0448-.169-.1131-.319-.205-.449a.9784.9784 0 0 0-.3392-.311c-.1343-.075-.2921-.113-.4735-.113-.179 0-.3368.038-.4735.113a1.0234 1.0234 0 0 0-.3392.311c-.0895.13-.1566.28-.2014.449-.0447.167-.0671.345-.0671.534Zm6.0564 1.208v-4.685h.6573v5.427h-.6007l-.0566-.742Zm-2.5724-1.127v-.074c0-.292.0354-.557.106-.795.0731-.241.1755-.447.3074-.619.1343-.172.2933-.304.4771-.395.1861-.095.3934-.142.6219-.142.2402 0 .4499.043.6289.127.1814.083.3345.204.4594.364.1272.158.2273.349.3003.573.0731.224.1237.477.152.76v.325c-.0259.28-.0766.532-.152.756-.073.224-.1731.414-.3003.572a1.258 1.258 0 0 1-.4594.364c-.1814.083-.3934.124-.636.124-.2238 0-.4287-.048-.6148-.145-.1838-.097-.3428-.232-.4771-.406-.1319-.175-.2343-.38-.3074-.615-.0706-.238-.106-.496-.106-.774Zm.6573-.074v.074c0 .191.0188.37.0565.537.04.167.1013.315.1837.442a.9136.9136 0 0 0 .3145.3c.1272.071.2792.106.4558.106.2168 0 .3946-.046.5336-.138a1.027 1.027 0 0 0 .3392-.364 2.081 2.081 0 0 0 .1979-.491v-.851a1.8796 1.8796 0 0 0-.1237-.375 1.1562 1.1562 0 0 0-.2049-.325c-.0825-.097-.1849-.173-.3074-.23-.1202-.056-.2627-.085-.4276-.085-.179 0-.3333.038-.4629.114-.1272.073-.232.174-.3145.303-.0824.128-.1437.276-.1837.446-.0377.167-.0565.346-.0565.537Zm5.1766 2.014c-.2662 0-.5077-.045-.7244-.134a1.6449 1.6449 0 0 1-.5548-.386c-.1531-.164-.2709-.36-.3533-.586-.0825-.226-.1237-.474-.1237-.742v-.149c0-.311.0459-.587.1378-.83.0919-.245.2167-.452.3746-.622.1578-.169.3368-.298.5371-.385.2002-.087.4075-.131.6219-.131.2732 0 .5088.047.7067.142.2002.094.3639.226.4911.395.1272.168.2215.365.2827.594.0612.226.0919.473.0919.742v.293h-2.8551v-.533h2.2014v-.05a1.6325 1.6325 0 0 0-.106-.494c-.0589-.161-.1532-.293-.2827-.396-.1296-.104-.3063-.156-.53-.156-.1485 0-.2851.032-.4099.096-.1249.061-.2321.153-.3216.275-.0895.123-.159.272-.2085.449-.0494.177-.0742.381-.0742.611v.149c0 .181.0248.352.0742.512.0519.158.1261.297.2227.417.0989.12.2179.215.3568.283.1414.068.3016.102.4806.102.2309 0 .4264-.047.5866-.141.1601-.094.3003-.22.4204-.378l.3958.314c-.0824.125-.1873.244-.3145.357-.1272.113-.2838.205-.4699.276-.1838.071-.4017.106-.6537.106ZM38.46 268.596h-1.4909v-3.728H38.46m0 6.709h-1.4909v-1.491H38.46m-8.9453 3.728h16.3998l-8.1999-14.164-8.1999 14.164Z"/><defs><filter id="c" width="6.1653" height="362.215" x="8.6291" y="34.6652" color-interpolation-filters="sRGB" filterUnits="userSpaceOnUse"><feFlood flood-opacity="0" result="BackgroundImageFix"/><feBlend in="SourceGraphic" in2="BackgroundImageFix" result="shape"/><feGaussianBlur result="effect1_foregroundBlur_1755_1410" stdDeviation=".8808"/></filter><filter id="d" width="5.2846" height="238.687" x="175.974" y="21.2335" color-interpolation-filters="sRGB" filterUnits="userSpaceOnUse"><feFlood flood-opacity="0" result="BackgroundImageFix"/><feBlend in="SourceGraphic" in2="BackgroundImageFix" result="shape"/><feGaussianBlur result="effect1_foregroundBlur_1755_1410" stdDeviation=".8808"/></filter><filter id="g" width="3.0827" height="3.0827" x="90.9808" y="15.509" color-interpolation-filters="sRGB" filterUnits="userSpaceOnUse"><feFlood flood-opacity="0" result="BackgroundImageFix"/><feBlend in="SourceGraphic" in2="BackgroundImageFix" result="shape"/><feGaussianBlur result="effect1_foregroundBlur_1755_1410" stdDeviation=".4404"/></filter><filter id="h" width="5.2846" height="5.2846" x="93.1828" y="17.2703" color-interpolation-filters="sRGB" filterUnits="userSpaceOnUse"><feFlood flood-opacity="0" result="BackgroundImageFix"/><feBlend in="SourceGraphic" in2="BackgroundImageFix" result="shape"/><feGaussianBlur result="effect1_foregroundBlur_1755_1410" stdDeviation=".4404"/></filter><filter id="i" width="4.4038" height="4.4038" x="90.1" y="13.3069" color-interpolation-filters="sRGB" filterUnits="userSpaceOnUse"><feFlood flood-opacity="0" result="BackgroundImageFix"/><feBlend in="SourceGraphic" in2="BackgroundImageFix" result="shape"/><feGaussianBlur result="effect1_foregroundBlur_1755_1410" stdDeviation=".4404"/></filter><filter id="j" width="5.2846" height="105.692" x="174.213" y="291.188" color-interpolation-filters="sRGB" filterUnits="userSpaceOnUse"><feFlood flood-opacity="0" result="BackgroundImageFix"/><feBlend in="SourceGraphic" in2="BackgroundImageFix" result="shape"/><feGaussianBlur result="effect1_foregroundBlur_1755_1410" stdDeviation=".8808"/></filter><filter id="k" width="4.4038" height="40.0748" x="9.51" y=".3762" color-interpolation-filters="sRGB" filterUnits="userSpaceOnUse"><feFlood flood-opacity="0" result="BackgroundImageFix"/><feBlend in="SourceGraphic" in2="BackgroundImageFix" result="shape"/><feGaussianBlur result="effect1_foregroundBlur_1755_1410" stdDeviation=".8808"/></filter><clipPath id="b"><rect width="180.557" height="381.371" x="3.785" y="7.1413" fill="#fff" rx="7"/></clipPath><clipPath id="e"><rect width="8.8077" height="8.8077" x="89.6595" y="13.3067" fill="#fff" rx="4.4038"/></clipPath><clipPath id="f"><rect width="5.2846" height="5.2846" x="91.4212" y="15.0685" fill="#fff" rx="2.6423"/></clipPath><clipPath id="l"><path fill="#fff" d="M81.2923.5355h25.1017c0 .9729-.789 1.7616-1.761 1.7616H83.0538c-.9728 0-1.7615-.7887-1.7615-1.7616Z"/></clipPath><linearGradient id="a" x1=".702" x2="187.424" y1="395.118" y2="395.118" gradientUnits="userSpaceOnUse"><stop stop-color="#37373D"/><stop offset="1" stop-color="#111113"/></linearGradient></defs></svg>