<svg width="772" height="366" viewBox="0 0 772 366" fill="none" xmlns="http://www.w3.org/2000/svg">
<g clip-path="url(#clip0)">
<path d="M13.8955 30.584H35.0155V12.152H44.3595V59H35.0155V38.84H13.8955V59H4.6155V12.152H13.8955V30.584ZM67.4885 25.016C71.9685 25.016 75.4672 26.296 77.9845 28.856C80.5018 31.3733 81.7605 34.9787 81.7605 39.672V59H74.2725C74.2298 58.6587 74.1658 58.104 74.0805 57.336C74.0378 56.5253 73.9525 55.8213 73.8245 55.224C72.8432 56.76 71.5632 57.912 69.9845 58.68C68.4485 59.4053 66.5712 59.768 64.3525 59.768C62.0485 59.768 59.9365 59.3627 58.0165 58.552C56.1392 57.7413 54.6458 56.568 53.5365 55.032C52.4272 53.4533 51.8725 51.5973 51.8725 49.464C51.8725 47.2453 52.4912 45.3253 53.7285 43.704C55.0085 42.04 56.7152 40.76 58.8485 39.864C60.9818 38.968 63.3285 38.52 65.8885 38.52C68.1925 38.52 70.5605 38.904 72.9925 39.672C72.8645 34.7653 70.7738 32.312 66.7205 32.312C63.4778 32.312 61.1098 33.7627 59.6165 36.664L53.2805 33.016C54.4752 30.5413 56.3098 28.6 58.7845 27.192C61.2592 25.7413 64.1605 25.016 67.4885 25.016ZM72.9925 45.56C70.8592 45.048 69.0032 44.792 67.4245 44.792C65.3338 44.792 63.7125 45.176 62.5605 45.944C61.4085 46.6693 60.8325 47.7147 60.8325 49.08C60.8325 50.3173 61.2805 51.2773 62.1765 51.96C63.1152 52.6427 64.3098 52.984 65.7605 52.984C67.6805 52.984 69.3658 52.4507 70.8165 51.384C72.2672 50.2747 72.9925 48.76 72.9925 46.84V45.56ZM107.198 25.016C108.478 25.016 109.672 25.208 110.782 25.592C111.891 25.976 112.744 26.4667 113.342 27.064L109.886 33.912C108.776 33.144 107.518 32.76 106.11 32.76C103.806 32.76 101.95 33.72 100.542 35.64C99.1762 37.56 98.4935 40.2053 98.4935 43.576V59H89.5975V25.848H97.4055C97.6188 28.408 97.8108 30.1573 97.9815 31.096C98.9628 29.0907 100.243 27.576 101.822 26.552C103.4 25.528 105.192 25.016 107.198 25.016ZM154.41 25.016C157.61 25.016 160.212 26.232 162.218 28.664C164.223 31.0533 165.226 34.5093 165.226 39.032V59H156.522V42.04C156.522 35.9813 154.836 32.952 151.466 32.952C149.631 32.952 148.159 33.784 147.05 35.448C145.983 37.112 145.45 39.416 145.45 42.36V59H136.81V42.04C136.81 35.9813 135.124 32.952 131.753 32.952C129.919 32.952 128.468 33.784 127.402 35.448C126.335 37.112 125.802 39.416 125.802 42.36V59H117.098V25.848H124.714C124.927 28.28 125.098 29.9013 125.226 30.712C127.402 26.9147 130.559 25.016 134.698 25.016C136.916 25.016 138.858 25.592 140.522 26.744C142.186 27.896 143.444 29.6027 144.298 31.864C145.364 29.5173 146.772 27.7893 148.522 26.68C150.271 25.5707 152.234 25.016 154.41 25.016ZM171.115 42.424C171.115 38.968 171.883 35.9173 173.419 33.272C174.998 30.6267 177.088 28.6 179.691 27.192C182.294 25.7413 185.11 25.016 188.139 25.016C191.126 25.016 193.899 25.7413 196.459 27.192C199.062 28.6 201.131 30.6267 202.667 33.272C204.246 35.9173 205.035 38.968 205.035 42.424C205.035 45.88 204.246 48.9307 202.667 51.576C201.131 54.2213 199.062 56.248 196.459 57.656C193.899 59.064 191.126 59.768 188.139 59.768C185.11 59.768 182.294 59.064 179.691 57.656C177.088 56.248 174.998 54.2213 173.419 51.576C171.883 48.9307 171.115 45.88 171.115 42.424ZM180.331 42.424C180.331 45.368 181.056 47.7147 182.507 49.464C184 51.1707 185.856 52.024 188.075 52.024C190.294 52.024 192.128 51.1707 193.579 49.464C195.03 47.7147 195.755 45.368 195.755 42.424C195.755 39.48 195.03 37.1333 193.579 35.384C192.128 33.6347 190.294 32.76 188.075 32.76C185.856 32.76 184 33.6347 182.507 35.384C181.056 37.1333 180.331 39.48 180.331 42.424ZM230.481 25.016C234.15 25.016 237.051 26.232 239.185 28.664C241.318 31.0533 242.385 34.552 242.385 39.16V59H233.489V42.04C233.489 35.9813 231.483 32.952 227.473 32.952C225.339 32.952 223.611 33.784 222.289 35.448C221.009 37.0693 220.369 39.3733 220.369 42.36V59H211.473V25.848H219.281C219.494 28.4507 219.686 30.2213 219.857 31.16C221.99 27.064 225.531 25.016 230.481 25.016ZM271.38 25.848H280.66L265.748 63.352C264.169 67.32 262.313 70.1787 260.18 71.928C258.089 73.72 255.465 74.616 252.308 74.616C250.772 74.616 249.321 74.3813 247.956 73.912C246.633 73.4853 245.481 72.888 244.5 72.12L248.02 65.336C249.3 66.2747 250.708 66.744 252.244 66.744C253.225 66.744 254.057 66.5307 254.74 66.104C255.465 65.72 256.148 65.016 256.788 63.992C257.428 63.0107 258.175 61.5387 259.028 59.576L244.628 25.848H254.612L263.38 48.696L271.38 25.848ZM283.626 35.512C283.626 30.6053 284.607 26.3173 286.57 22.648C288.532 18.9787 291.199 16.184 294.57 14.264C297.983 12.3013 301.78 11.32 305.962 11.32C310.143 11.32 313.919 12.3013 317.29 14.264C320.703 16.184 323.391 18.9787 325.354 22.648C327.359 26.3173 328.362 30.6053 328.362 35.512C328.362 40.4613 327.359 44.7707 325.354 48.44C323.391 52.1093 320.703 54.9253 317.29 56.888C313.919 58.808 310.143 59.768 305.962 59.768C301.78 59.768 297.983 58.808 294.57 56.888C291.199 54.9253 288.532 52.1093 286.57 48.44C284.607 44.7707 283.626 40.4613 283.626 35.512ZM293.418 35.512C293.418 38.6267 293.93 41.3787 294.954 43.768C296.02 46.1573 297.492 48.0133 299.37 49.336C301.29 50.616 303.487 51.256 305.962 51.256C308.436 51.256 310.612 50.616 312.49 49.336C314.41 48.0133 315.882 46.1573 316.906 43.768C317.972 41.3787 318.506 38.6267 318.506 35.512C318.506 32.3973 317.972 29.6667 316.906 27.32C315.882 24.9307 314.41 23.096 312.49 21.816C310.612 20.4933 308.436 19.832 305.962 19.832C303.487 19.832 301.29 20.4933 299.37 21.816C297.492 23.096 296.02 24.9307 294.954 27.32C293.93 29.6667 293.418 32.3973 293.418 35.512ZM367.607 45.432C367.607 48.632 366.775 51.32 365.111 53.496C363.489 55.6293 361.356 57.208 358.711 58.232C356.108 59.256 353.313 59.768 350.327 59.768C345.975 59.768 342.049 58.7653 338.551 56.76C335.052 54.712 332.727 51.832 331.575 48.12L339.127 43.832C340.151 46.2213 341.644 48.0773 343.607 49.4C345.569 50.7227 347.916 51.384 350.647 51.384C352.865 51.384 354.615 50.936 355.895 50.04C357.217 49.144 357.879 47.8427 357.879 46.136C357.879 44.7707 357.431 43.64 356.535 42.744C355.681 41.848 354.593 41.144 353.271 40.632C351.991 40.12 350.22 39.5227 347.958 38.84C344.929 37.944 342.455 37.0693 340.535 36.216C338.615 35.32 336.972 33.9973 335.607 32.248C334.241 30.4987 333.559 28.1947 333.559 25.336C333.559 22.3067 334.348 19.7467 335.927 17.656C337.548 15.5227 339.66 13.944 342.263 12.92C344.908 11.8533 347.745 11.32 350.775 11.32C354.913 11.32 358.455 12.2587 361.399 14.136C364.343 16.0133 366.241 18.552 367.095 21.752L359.543 26.04C358.775 24.0347 357.623 22.4773 356.087 21.368C354.551 20.216 352.631 19.64 350.327 19.64C348.236 19.64 346.529 20.1307 345.207 21.112C343.927 22.0507 343.287 23.3093 343.287 24.888C343.287 26.0827 343.692 27.0853 344.503 27.896C345.313 28.664 346.337 29.304 347.575 29.816C348.855 30.2853 350.561 30.84 352.695 31.48C355.767 32.376 358.305 33.2933 360.311 34.232C362.316 35.128 364.023 36.4933 365.431 38.328C366.881 40.12 367.607 42.488 367.607 45.432ZM422.732 45.432C422.732 48.632 421.9 51.32 420.236 53.496C418.614 55.6293 416.481 57.208 413.836 58.232C411.233 59.256 408.438 59.768 405.452 59.768C401.1 59.768 397.174 58.7653 393.676 56.76C390.177 54.712 387.852 51.832 386.7 48.12L394.252 43.832C395.276 46.2213 396.769 48.0773 398.732 49.4C400.694 50.7227 403.041 51.384 405.772 51.384C407.99 51.384 409.74 50.936 411.02 50.04C412.342 49.144 413.004 47.8427 413.004 46.136C413.004 44.7707 412.556 43.64 411.66 42.744C410.806 41.848 409.718 41.144 408.396 40.632C407.116 40.12 405.345 39.5227 403.083 38.84C400.054 37.944 397.58 37.0693 395.66 36.216C393.74 35.32 392.097 33.9973 390.732 32.248C389.366 30.4987 388.684 28.1947 388.684 25.336C388.684 22.3067 389.473 19.7467 391.052 17.656C392.673 15.5227 394.785 13.944 397.388 12.92C400.033 11.8533 402.87 11.32 405.9 11.32C410.038 11.32 413.58 12.2587 416.524 14.136C419.468 16.0133 421.366 18.552 422.22 21.752L414.668 26.04C413.9 24.0347 412.748 22.4773 411.212 21.368C409.676 20.216 407.756 19.64 405.452 19.64C403.361 19.64 401.654 20.1307 400.332 21.112C399.052 22.0507 398.412 23.3093 398.412 24.888C398.412 26.0827 398.817 27.0853 399.628 27.896C400.438 28.664 401.462 29.304 402.7 29.816C403.98 30.2853 405.686 30.84 407.82 31.48C410.892 32.376 413.43 33.2933 415.436 34.232C417.441 35.128 419.148 36.4933 420.556 38.328C422.006 40.12 422.732 42.488 422.732 45.432ZM442.239 25.016C446.719 25.016 450.217 26.296 452.735 28.856C455.252 31.3733 456.511 34.9787 456.511 39.672V59H449.023C448.98 58.6587 448.916 58.104 448.831 57.336C448.788 56.5253 448.703 55.8213 448.575 55.224C447.593 56.76 446.313 57.912 444.735 58.68C443.199 59.4053 441.321 59.768 439.103 59.768C436.799 59.768 434.687 59.3627 432.767 58.552C430.889 57.7413 429.396 56.568 428.286 55.032C427.177 53.4533 426.623 51.5973 426.623 49.464C426.623 47.2453 427.241 45.3253 428.479 43.704C429.759 42.04 431.465 40.76 433.599 39.864C435.732 38.968 438.079 38.52 440.639 38.52C442.943 38.52 445.311 38.904 447.743 39.672C447.615 34.7653 445.524 32.312 441.471 32.312C438.228 32.312 435.86 33.7627 434.367 36.664L428.031 33.016C429.225 30.5413 431.06 28.6 433.535 27.192C436.009 25.7413 438.911 25.016 442.239 25.016ZM447.743 45.56C445.609 45.048 443.753 44.792 442.175 44.792C440.084 44.792 438.463 45.176 437.311 45.944C436.159 46.6693 435.583 47.7147 435.583 49.08C435.583 50.3173 436.031 51.2773 436.927 51.96C437.865 52.6427 439.06 52.984 440.51 52.984C442.431 52.984 444.116 52.4507 445.567 51.384C447.017 50.2747 447.743 48.76 447.743 46.84V45.56ZM483.356 25.016C487.025 25.016 489.926 26.232 492.06 28.664C494.193 31.0533 495.26 34.552 495.26 39.16V59H486.364V42.04C486.364 35.9813 484.358 32.952 480.348 32.952C478.214 32.952 476.486 33.784 475.164 35.448C473.884 37.0693 473.244 39.3733 473.244 42.36V59H464.348V25.848H472.156C472.369 28.4507 472.561 30.2213 472.732 31.16C474.865 27.064 478.406 25.016 483.356 25.016ZM527.549 49.144C527.549 52.4293 526.269 55.032 523.709 56.952C521.191 58.8293 517.906 59.768 513.853 59.768C510.354 59.768 507.325 59.0213 504.765 57.528C502.247 56.0347 500.541 53.9653 499.645 51.32L506.109 47.544C506.749 49.1227 507.751 50.36 509.117 51.256C510.482 52.1093 512.082 52.536 513.917 52.536C515.282 52.536 516.37 52.28 517.181 51.768C517.991 51.256 518.397 50.5307 518.397 49.592C518.397 48.5253 517.863 47.7147 516.797 47.16C515.73 46.5627 514.066 45.944 511.805 45.304C509.543 44.6213 507.687 43.96 506.237 43.32C504.829 42.68 503.591 41.7627 502.525 40.568C501.501 39.3307 500.989 37.7307 500.989 35.768C500.989 33.5493 501.586 31.6293 502.781 30.008C504.018 28.3867 505.661 27.1493 507.709 26.296C509.757 25.4427 511.997 25.016 514.429 25.016C517.757 25.016 520.573 25.7413 522.877 27.192C525.181 28.6 526.631 30.4773 527.229 32.824L520.765 36.472C519.485 33.6987 517.33 32.312 514.301 32.312C513.021 32.312 511.997 32.568 511.229 33.08C510.461 33.5493 510.077 34.232 510.077 35.128C510.077 36.152 510.589 36.9413 511.613 37.496C512.637 38.008 514.237 38.5627 516.413 39.16C518.717 39.8 520.615 40.44 522.109 41.08C523.602 41.72 524.882 42.7013 525.949 44.024C527.015 45.304 527.549 47.0107 527.549 49.144ZM579.536 34.68C584.699 36.5147 587.28 40.12 587.28 45.496C587.28 49.72 585.723 53.0267 582.608 55.416C579.536 57.8053 575.205 59 569.616 59H550.928V12.152H567.888C572.88 12.152 576.933 13.304 580.048 15.608C583.205 17.8693 584.784 21.0693 584.784 25.208C584.784 29.5173 583.035 32.6747 579.536 34.68ZM560.016 20.216V31.288H566.992C569.509 31.288 571.493 30.776 572.944 29.752C574.437 28.6853 575.184 27.2773 575.184 25.528C575.184 23.8213 574.459 22.52 573.008 21.624C571.557 20.6853 569.552 20.216 566.992 20.216H560.016ZM568.848 50.936C571.664 50.936 573.819 50.424 575.312 49.4C576.848 48.376 577.616 46.9253 577.616 45.048C577.616 43.1707 576.848 41.6987 575.312 40.632C573.819 39.5653 571.643 39.032 568.784 39.032H560.016V50.936H568.848ZM591.74 42.424C591.74 38.968 592.508 35.9173 594.044 33.272C595.623 30.6267 597.713 28.6 600.316 27.192C602.919 25.7413 605.735 25.016 608.764 25.016C611.751 25.016 614.524 25.7413 617.084 27.192C619.687 28.6 621.756 30.6267 623.292 33.272C624.871 35.9173 625.66 38.968 625.66 42.424C625.66 45.88 624.871 48.9307 623.292 51.576C621.756 54.2213 619.687 56.248 617.084 57.656C614.524 59.064 611.751 59.768 608.764 59.768C605.735 59.768 602.919 59.064 600.316 57.656C597.713 56.248 595.623 54.2213 594.044 51.576C592.508 48.9307 591.74 45.88 591.74 42.424ZM600.956 42.424C600.956 45.368 601.681 47.7147 603.132 49.464C604.625 51.1707 606.481 52.024 608.7 52.024C610.919 52.024 612.753 51.1707 614.204 49.464C615.655 47.7147 616.38 45.368 616.38 42.424C616.38 39.48 615.655 37.1333 614.204 35.384C612.753 33.6347 610.919 32.76 608.7 32.76C606.481 32.76 604.625 33.6347 603.132 35.384C601.681 37.1333 600.956 39.48 600.956 42.424ZM640.994 59H632.098V10.296H640.994V59ZM672.263 10.296H681.159V59H673.351C673.137 56.5253 672.967 54.8613 672.839 54.008C671.687 55.928 670.172 57.3787 668.295 58.36C666.46 59.2987 664.455 59.768 662.279 59.768C659.548 59.768 657.052 59.0853 654.791 57.72C652.529 56.3547 650.716 54.3707 649.351 51.768C647.985 49.1227 647.303 46.008 647.303 42.424C647.303 38.7973 647.985 35.6827 649.351 33.08C650.716 30.4347 652.529 28.4293 654.791 27.064C657.052 25.6987 659.548 25.016 662.279 25.016C664.284 25.016 666.14 25.4213 667.847 26.232C669.596 27.0427 671.068 28.28 672.263 29.944V10.296ZM664.327 52.152C666.545 52.152 668.423 51.3413 669.959 49.72C671.495 48.0987 672.263 45.6667 672.263 42.424C672.263 39.224 671.495 36.856 669.959 35.32C668.423 33.7413 666.545 32.952 664.327 32.952C661.98 32.952 660.081 33.784 658.631 35.448C657.223 37.112 656.519 39.4373 656.519 42.424C656.519 45.4107 657.223 47.7787 658.631 49.528C660.081 51.2773 661.98 52.152 664.327 52.152ZM11.9115 128.608H35.7835V109.152H42.6315V156H35.7835V134.752H11.9115V156H5.0635V109.152H11.9115V128.608ZM65.856 122.016C69.824 122.016 73.024 123.189 75.456 125.536C77.9307 127.883 79.168 131.253 79.168 135.648V156H73.472C73.3867 154.08 73.28 152.715 73.152 151.904C71.104 155.104 67.8187 156.704 63.296 156.704C61.0773 156.704 59.0293 156.299 57.152 155.488C55.3173 154.677 53.8453 153.504 52.736 151.968C51.6267 150.432 51.072 148.576 51.072 146.4C51.072 143.115 52.416 140.512 55.104 138.592C57.792 136.672 61.2267 135.712 65.408 135.712C67.7547 135.712 70.1653 136.032 72.64 136.672V136.544C72.64 133.515 72.0427 131.296 70.848 129.888C69.6533 128.437 67.8613 127.712 65.472 127.712C63.552 127.712 61.9307 128.139 60.608 128.992C59.328 129.803 58.24 130.997 57.344 132.576L52.48 129.76C53.5467 127.413 55.2747 125.536 57.664 124.128C60.0533 122.72 62.784 122.016 65.856 122.016ZM72.64 141.664C70.08 141.024 67.84 140.704 65.92 140.704C63.36 140.704 61.376 141.195 59.968 142.176C58.56 143.157 57.856 144.523 57.856 146.272C57.856 147.851 58.432 149.109 59.584 150.048C60.736 150.944 62.2507 151.392 64.128 151.392C66.4747 151.392 68.48 150.731 70.144 149.408C71.808 148.043 72.64 146.165 72.64 143.776V141.664ZM103.153 122.016C104.262 122.016 105.286 122.165 106.225 122.464C107.206 122.763 107.974 123.168 108.529 123.68L106.033 128.864C105.051 128.267 103.963 127.968 102.769 127.968C100.337 127.968 98.3525 128.971 96.8165 130.976C95.3232 132.981 94.5765 135.84 94.5765 139.552V156H87.9845V122.784H93.8085C93.8938 124.832 94.0218 126.624 94.1925 128.16C95.1738 126.112 96.4112 124.576 97.9045 123.552C99.4405 122.528 101.19 122.016 103.153 122.016ZM148.567 122.016C151.724 122.016 154.284 123.189 156.247 125.536C158.252 127.84 159.255 131.168 159.255 135.52V156H152.855V137.696C152.855 134.667 152.343 132.32 151.319 130.656C150.295 128.949 148.759 128.096 146.711 128.096C144.62 128.096 142.871 128.949 141.463 130.656C140.098 132.32 139.415 134.709 139.415 137.824V156H132.951V137.696C132.951 134.624 132.439 132.256 131.415 130.592C130.434 128.928 128.919 128.096 126.871 128.096C124.78 128.096 123.031 128.949 121.623 130.656C120.258 132.363 119.575 134.752 119.575 137.824V156H113.047V122.784H118.807C118.85 124.149 118.956 125.813 119.127 127.776C120.236 125.856 121.623 124.427 123.287 123.488C124.951 122.507 126.786 122.016 128.791 122.016C131.01 122.016 132.951 122.613 134.615 123.808C136.322 124.96 137.58 126.667 138.391 128.928C139.458 126.624 140.866 124.896 142.615 123.744C144.407 122.592 146.391 122.016 148.567 122.016ZM166.19 139.36C166.19 135.989 166.936 132.981 168.43 130.336C169.923 127.691 171.907 125.643 174.382 124.192C176.899 122.741 179.608 122.016 182.51 122.016C185.368 122.016 188.035 122.741 190.51 124.192C192.984 125.643 194.968 127.691 196.462 130.336C197.955 132.981 198.701 135.989 198.701 139.36C198.701 142.731 197.955 145.739 196.462 148.384C194.968 151.029 192.984 153.077 190.51 154.528C188.035 155.979 185.368 156.704 182.51 156.704C179.608 156.704 176.899 155.979 174.382 154.528C171.907 153.077 169.923 151.029 168.43 148.384C166.936 145.739 166.19 142.731 166.19 139.36ZM173.102 139.36C173.102 142.859 173.976 145.632 175.726 147.68C177.518 149.728 179.758 150.752 182.446 150.752C185.176 150.752 187.416 149.728 189.166 147.68C190.915 145.632 191.79 142.859 191.79 139.36C191.79 135.861 190.894 133.088 189.102 131.04C187.352 128.992 185.134 127.968 182.446 127.968C179.758 127.968 177.518 128.992 175.726 131.04C173.976 133.088 173.102 135.861 173.102 139.36ZM223.134 122.016C226.718 122.016 229.576 123.189 231.71 125.536C233.843 127.883 234.91 131.275 234.91 135.712V156H228.318V137.696C228.318 134.624 227.742 132.256 226.59 130.592C225.438 128.928 223.688 128.096 221.342 128.096C218.952 128.096 216.904 128.949 215.198 130.656C213.534 132.32 212.702 134.709 212.702 137.824V156H206.11V122.784H211.934C212.019 124.875 212.147 126.688 212.318 128.224C213.427 126.176 214.899 124.64 216.734 123.616C218.611 122.549 220.744 122.016 223.134 122.016ZM265.194 122.784H272.042L256.682 161.504C255.274 165.131 253.695 167.712 251.946 169.248C250.239 170.827 247.935 171.616 245.034 171.616C242.261 171.616 240.021 170.891 238.314 169.44L240.874 164.256C242.069 165.152 243.455 165.6 245.034 165.6C246.399 165.6 247.53 165.131 248.426 164.192C249.365 163.296 250.389 161.525 251.498 158.88L252.586 156.384L238.57 122.784H246.058L255.914 148.256L265.194 122.784ZM275.571 132.512C275.571 127.648 276.509 123.403 278.387 119.776C280.264 116.107 282.845 113.291 286.131 111.328C289.416 109.365 293.085 108.384 297.139 108.384C301.192 108.384 304.861 109.365 308.147 111.328C311.432 113.291 314.013 116.107 315.891 119.776C317.768 123.403 318.707 127.648 318.707 132.512C318.707 137.419 317.747 141.707 315.827 145.376C313.949 149.003 311.368 151.797 308.083 153.76C304.84 155.723 301.192 156.704 297.139 156.704C293.085 156.704 289.416 155.744 286.131 153.824C282.845 151.861 280.264 149.045 278.387 145.376C276.509 141.707 275.571 137.419 275.571 132.512ZM282.867 132.512C282.867 136.053 283.443 139.189 284.595 141.92C285.789 144.608 287.453 146.699 289.587 148.192C291.72 149.685 294.237 150.432 297.139 150.432C300.04 150.432 302.557 149.685 304.691 148.192C306.867 146.699 308.531 144.608 309.683 141.92C310.877 139.189 311.475 136.053 311.475 132.512C311.475 128.971 310.877 125.856 309.683 123.168C308.531 120.48 306.867 118.389 304.691 116.896C302.515 115.403 299.997 114.656 297.139 114.656C294.28 114.656 291.763 115.403 289.587 116.896C287.453 118.389 285.789 120.48 284.595 123.168C283.443 125.856 282.867 128.971 282.867 132.512ZM357.333 142.816C357.333 145.675 356.629 148.149 355.221 150.24C353.855 152.331 351.935 153.931 349.461 155.04C347.029 156.149 344.213 156.704 341.013 156.704C336.533 156.704 332.629 155.659 329.301 153.568C325.973 151.435 323.775 148.597 322.709 145.056L328.277 141.856C329.386 144.587 331.029 146.699 333.205 148.192C335.381 149.685 338.047 150.432 341.205 150.432C344.021 150.432 346.197 149.835 347.733 148.64C349.311 147.403 350.101 145.696 350.101 143.52C350.101 141.771 349.589 140.341 348.565 139.232C347.583 138.08 346.346 137.205 344.853 136.608C343.359 135.968 341.333 135.264 338.773 134.496C335.658 133.557 333.183 132.683 331.349 131.872C329.514 131.019 327.935 129.781 326.613 128.16C325.333 126.496 324.693 124.32 324.693 121.632C324.693 118.816 325.418 116.405 326.869 114.4C328.319 112.395 330.261 110.901 332.693 109.92C335.167 108.896 337.919 108.384 340.949 108.384C345.13 108.384 348.565 109.301 351.253 111.136C353.941 112.971 355.733 115.36 356.629 118.304L351.061 121.568C349.141 116.917 345.685 114.592 340.693 114.592C338.047 114.592 335.914 115.189 334.293 116.384C332.714 117.536 331.925 119.115 331.925 121.12C331.925 122.613 332.373 123.829 333.269 124.768C334.207 125.707 335.359 126.475 336.725 127.072C338.133 127.627 340.031 128.245 342.421 128.928C345.578 129.867 348.138 130.784 350.101 131.68C352.106 132.576 353.813 133.92 355.221 135.712C356.629 137.504 357.333 139.872 357.333 142.816ZM411.645 142.816C411.645 145.675 410.941 148.149 409.533 150.24C408.168 152.331 406.248 153.931 403.773 155.04C401.341 156.149 398.525 156.704 395.325 156.704C390.845 156.704 386.941 155.659 383.613 153.568C380.285 151.435 378.088 148.597 377.021 145.056L382.589 141.856C383.698 144.587 385.341 146.699 387.517 148.192C389.693 149.685 392.36 150.432 395.517 150.432C398.333 150.432 400.509 149.835 402.045 148.64C403.624 147.403 404.413 145.696 404.413 143.52C404.413 141.771 403.901 140.341 402.877 139.232C401.896 138.08 400.658 137.205 399.165 136.608C397.672 135.968 395.645 135.264 393.085 134.496C389.97 133.557 387.496 132.683 385.661 131.872C383.826 131.019 382.248 129.781 380.925 128.16C379.645 126.496 379.005 124.32 379.005 121.632C379.005 118.816 379.73 116.405 381.181 114.4C382.632 112.395 384.573 110.901 387.005 109.92C389.48 108.896 392.232 108.384 395.261 108.384C399.442 108.384 402.877 109.301 405.565 111.136C408.253 112.971 410.045 115.36 410.941 118.304L405.373 121.568C403.453 116.917 399.997 114.592 395.005 114.592C392.36 114.592 390.226 115.189 388.605 116.384C387.026 117.536 386.237 119.115 386.237 121.12C386.237 122.613 386.685 123.829 387.581 124.768C388.52 125.707 389.672 126.475 391.037 127.072C392.445 127.627 394.344 128.245 396.733 128.928C399.89 129.867 402.45 130.784 404.413 131.68C406.418 132.576 408.125 133.92 409.533 135.712C410.941 137.504 411.645 139.872 411.645 142.816ZM431.044 122.016C435.012 122.016 438.212 123.189 440.644 125.536C443.118 127.883 444.356 131.253 444.356 135.648V156H438.66C438.574 154.08 438.468 152.715 438.34 151.904C436.292 155.104 433.006 156.704 428.484 156.704C426.265 156.704 424.217 156.299 422.34 155.488C420.505 154.677 419.033 153.504 417.924 151.968C416.814 150.432 416.26 148.576 416.26 146.4C416.26 143.115 417.604 140.512 420.292 138.592C422.98 136.672 426.414 135.712 430.596 135.712C432.942 135.712 435.353 136.032 437.828 136.672V136.544C437.828 133.515 437.23 131.296 436.036 129.888C434.841 128.437 433.049 127.712 430.66 127.712C428.74 127.712 427.118 128.139 425.796 128.992C424.516 129.803 423.428 130.997 422.532 132.576L417.668 129.76C418.734 127.413 420.462 125.536 422.852 124.128C425.241 122.72 427.972 122.016 431.044 122.016ZM437.828 141.664C435.268 141.024 433.028 140.704 431.108 140.704C428.548 140.704 426.564 141.195 425.156 142.176C423.748 143.157 423.044 144.523 423.044 146.272C423.044 147.851 423.62 149.109 424.772 150.048C425.924 150.944 427.438 151.392 429.316 151.392C431.662 151.392 433.668 150.731 435.332 149.408C436.996 148.043 437.828 146.165 437.828 143.776V141.664ZM470.196 122.016C473.78 122.016 476.639 123.189 478.772 125.536C480.905 127.883 481.972 131.275 481.972 135.712V156H475.38V137.696C475.38 134.624 474.804 132.256 473.652 130.592C472.5 128.928 470.751 128.096 468.404 128.096C466.015 128.096 463.967 128.949 462.26 130.656C460.596 132.32 459.764 134.709 459.764 137.824V156H453.172V122.784H458.996C459.081 124.875 459.209 126.688 459.38 128.224C460.489 126.176 461.961 124.64 463.796 123.616C465.673 122.549 467.807 122.016 470.196 122.016ZM513.901 146.4C513.901 149.515 512.706 152.011 510.317 153.888C507.97 155.765 504.898 156.704 501.101 156.704C497.73 156.704 494.85 155.979 492.461 154.528C490.072 153.077 488.472 151.072 487.661 148.512L492.589 145.632C493.314 147.424 494.402 148.789 495.853 149.728C497.304 150.624 499.053 151.072 501.101 151.072C502.936 151.072 504.386 150.709 505.453 149.984C506.562 149.216 507.117 148.171 507.117 146.848C507.117 145.824 506.776 144.992 506.093 144.352C505.453 143.669 504.621 143.136 503.597 142.752C502.616 142.368 501.25 141.92 499.501 141.408C497.197 140.768 495.341 140.149 493.933 139.552C492.568 138.955 491.373 138.08 490.349 136.928C489.368 135.733 488.877 134.155 488.877 132.192C488.877 130.144 489.432 128.352 490.541 126.816C491.693 125.237 493.208 124.043 495.085 123.232C497.005 122.421 499.117 122.016 501.421 122.016C504.45 122.016 507.032 122.677 509.165 124C511.341 125.323 512.792 127.115 513.517 129.376L508.589 132.192C507.949 130.784 506.989 129.696 505.709 128.928C504.472 128.16 502.978 127.776 501.229 127.776C499.565 127.776 498.221 128.117 497.197 128.8C496.173 129.44 495.661 130.379 495.661 131.616C495.661 132.555 495.96 133.323 496.557 133.92C497.197 134.475 497.986 134.944 498.925 135.328C499.864 135.669 501.186 136.075 502.893 136.544C505.197 137.184 507.074 137.824 508.525 138.464C510.018 139.104 511.277 140.064 512.301 141.344C513.368 142.624 513.901 144.309 513.901 146.4ZM577.55 109.152H582.99V156H576.334V122.08L562.51 143.776H558.606L544.654 121.952V156H538.126V109.152H543.886L560.718 135.84L577.55 109.152ZM607.191 122.016C610.092 122.016 612.631 122.699 614.807 124.064C616.983 125.387 618.668 127.221 619.863 129.568C621.058 131.872 621.655 134.475 621.655 137.376C621.655 138.357 621.548 139.531 621.335 140.896H598.039C598.295 144.224 599.319 146.741 601.111 148.448C602.903 150.112 605.143 150.944 607.831 150.944C611.33 150.944 613.868 149.493 615.447 146.592L620.375 149.472C619.522 151.776 617.9 153.568 615.511 154.848C613.122 156.085 610.455 156.704 607.511 156.704C604.482 156.704 601.73 156.043 599.255 154.72C596.78 153.355 594.796 151.349 593.303 148.704C591.852 146.059 591.127 142.901 591.127 139.232C591.127 135.648 591.852 132.555 593.303 129.952C594.796 127.349 596.759 125.387 599.191 124.064C601.666 122.699 604.332 122.016 607.191 122.016ZM606.935 127.776C604.759 127.776 602.86 128.48 601.239 129.888C599.66 131.253 598.658 133.259 598.231 135.904H614.743C614.572 133.344 613.783 131.36 612.375 129.952C610.967 128.501 609.154 127.776 606.935 127.776ZM651.659 107.296H658.187V156H652.427C652.213 153.099 652.064 151.285 651.979 150.56C650.784 152.608 649.205 154.144 647.243 155.168C645.323 156.192 643.275 156.704 641.099 156.704C638.496 156.704 636.064 156.021 633.803 154.656C631.541 153.291 629.728 151.307 628.363 148.704C626.997 146.059 626.315 142.944 626.315 139.36C626.315 135.819 626.997 132.747 628.363 130.144C629.728 127.499 631.541 125.493 633.803 124.128C636.064 122.72 638.496 122.016 641.099 122.016C643.189 122.016 645.152 122.485 646.987 123.424C648.864 124.363 650.421 125.749 651.659 127.584V107.296ZM642.187 150.816C644.789 150.816 647.008 149.877 648.843 148C650.72 146.123 651.659 143.243 651.659 139.36C651.659 135.52 650.72 132.683 648.843 130.848C647.008 129.013 644.789 128.096 642.187 128.096C639.456 128.096 637.259 129.077 635.595 131.04C633.973 133.003 633.163 135.776 633.163 139.36C633.163 142.987 633.973 145.803 635.595 147.808C637.259 149.813 639.456 150.816 642.187 150.816ZM670.811 117.408C669.702 117.408 668.742 116.981 667.931 116.128C667.12 115.275 666.715 114.272 666.715 113.12C666.715 111.968 667.12 110.987 667.931 110.176C668.742 109.323 669.702 108.896 670.811 108.896C672.006 108.896 673.008 109.323 673.819 110.176C674.63 110.987 675.035 111.968 675.035 113.12C675.035 114.272 674.608 115.275 673.755 116.128C672.944 116.981 671.963 117.408 670.811 117.408ZM674.139 156H667.547V122.784H674.139V156ZM705.243 122.784H711.835V156H706.011C705.926 153.867 705.776 152.075 705.563 150.624C704.496 152.672 703.024 154.208 701.147 155.232C699.27 156.213 697.179 156.704 694.875 156.704C691.291 156.704 688.432 155.531 686.299 153.184C684.166 150.837 683.099 147.445 683.099 143.008V122.784H689.627V141.088C689.627 144.117 690.203 146.485 691.355 148.192C692.507 149.856 694.256 150.688 696.603 150.688C698.992 150.688 701.019 149.835 702.683 148.128C704.39 146.421 705.243 144.011 705.243 140.896V122.784ZM756.755 122.016C759.912 122.016 762.472 123.189 764.435 125.536C766.44 127.84 767.443 131.168 767.443 135.52V156H761.043V137.696C761.043 134.667 760.531 132.32 759.507 130.656C758.483 128.949 756.947 128.096 754.899 128.096C752.808 128.096 751.059 128.949 749.651 130.656C748.285 132.32 747.603 134.709 747.603 137.824V156H741.139V137.696C741.139 134.624 740.627 132.256 739.603 130.592C738.621 128.928 737.107 128.096 735.059 128.096C732.968 128.096 731.219 128.949 729.811 130.656C728.445 132.363 727.763 134.752 727.763 137.824V156H721.235V122.784H726.995C727.037 124.149 727.144 125.813 727.315 127.776C728.424 125.856 729.811 124.427 731.475 123.488C733.139 122.507 734.973 122.016 736.979 122.016C739.197 122.016 741.139 122.613 742.803 123.808C744.509 124.96 745.768 126.667 746.579 128.928C747.645 126.624 749.053 124.896 750.803 123.744C752.595 122.592 754.579 122.016 756.755 122.016ZM10.9515 226.12H36.1035V206.152H41.7995V253H36.1035V231.24H10.9515V253H5.2555V206.152H10.9515V226.12ZM65.103 219.016C68.8577 219.016 71.9297 220.168 74.319 222.472C76.7083 224.733 77.903 227.976 77.903 232.2V253H73.103C72.975 250.824 72.8897 249.416 72.847 248.776C71.823 250.397 70.4363 251.635 68.687 252.488C66.9803 253.299 65.0177 253.704 62.799 253.704C60.6657 253.704 58.6603 253.32 56.783 252.552C54.9483 251.741 53.4763 250.568 52.367 249.032C51.2577 247.453 50.703 245.576 50.703 243.4C50.703 240.115 52.0257 237.533 54.671 235.656C57.359 233.736 60.815 232.776 65.039 232.776C67.4283 232.776 69.903 233.096 72.463 233.736V233.16C72.463 230.045 71.823 227.741 70.543 226.248C69.3057 224.712 67.407 223.944 64.847 223.944C62.799 223.944 61.0923 224.371 59.727 225.224C58.3617 226.077 57.2097 227.336 56.271 229L52.111 226.632C53.135 224.328 54.799 222.493 57.103 221.128C59.4497 219.72 62.1163 219.016 65.103 219.016ZM72.463 238.28C69.775 237.597 67.3217 237.256 65.103 237.256C62.3297 237.256 60.175 237.789 58.639 238.856C57.1457 239.923 56.399 241.416 56.399 243.336C56.399 245.128 57.039 246.536 58.319 247.56C59.599 248.541 61.263 249.032 63.311 249.032C65.8283 249.032 67.983 248.307 69.775 246.856C71.567 245.363 72.463 243.315 72.463 240.712V238.28ZM101.193 219.016C102.217 219.016 103.155 219.165 104.009 219.464C104.905 219.72 105.63 220.061 106.185 220.488L104.201 224.904C103.347 224.392 102.323 224.136 101.128 224.136C98.6538 224.136 96.6272 225.16 95.0485 227.208C93.4698 229.213 92.6805 232.157 92.6805 236.04V253H87.2405V219.784H92.0405C92.1258 221.917 92.2538 223.731 92.4245 225.224C94.3018 221.085 97.2245 219.016 101.193 219.016ZM145.866 219.016C149.023 219.016 151.583 220.168 153.546 222.472C155.509 224.733 156.49 227.997 156.49 232.264V253H151.114V234.056C151.114 230.856 150.559 228.424 149.45 226.76C148.341 225.053 146.698 224.2 144.522 224.2C142.303 224.2 140.405 225.053 138.826 226.76C137.29 228.467 136.522 230.92 136.522 234.12V253H131.146V234.056C131.146 230.899 130.591 228.467 129.482 226.76C128.373 225.053 126.751 224.2 124.618 224.2C122.399 224.2 120.501 225.075 118.922 226.824C117.386 228.531 116.618 230.963 116.618 234.12V253H111.178V219.784H115.978C116.021 221.235 116.127 222.92 116.298 224.84C117.407 222.92 118.794 221.469 120.458 220.488C122.165 219.507 124.021 219.016 126.026 219.016C128.245 219.016 130.186 219.613 131.85 220.808C133.557 221.96 134.794 223.688 135.562 225.992C136.629 223.645 138.058 221.896 139.85 220.744C141.685 219.592 143.69 219.016 145.866 219.016ZM163.883 236.36C163.883 233.032 164.608 230.045 166.059 227.4C167.552 224.755 169.515 222.707 171.947 221.256C174.379 219.763 177.003 219.016 179.819 219.016C182.635 219.016 185.259 219.741 187.691 221.192C190.123 222.643 192.064 224.691 193.515 227.336C194.966 229.981 195.691 232.989 195.691 236.36C195.691 239.731 194.966 242.739 193.515 245.384C192.064 247.987 190.123 250.035 187.691 251.528C185.259 252.979 182.635 253.704 179.819 253.704C177.003 253.704 174.358 252.979 171.883 251.528C169.451 250.035 167.51 247.987 166.059 245.384C164.608 242.739 163.883 239.731 163.883 236.36ZM169.643 236.36C169.643 238.877 170.091 241.053 170.987 242.888C171.883 244.723 173.099 246.131 174.635 247.112C176.171 248.093 177.899 248.584 179.819 248.584C181.739 248.584 183.467 248.093 185.003 247.112C186.539 246.131 187.734 244.723 188.587 242.888C189.483 241.053 189.931 238.877 189.931 236.36C189.931 233.843 189.483 231.667 188.587 229.832C187.734 227.997 186.539 226.589 185.003 225.608C183.467 224.627 181.739 224.136 179.819 224.136C177.899 224.136 176.171 224.627 174.635 225.608C173.099 226.589 171.883 227.997 170.987 229.832C170.091 231.667 169.643 233.843 169.643 236.36ZM219.68 219.016C223.221 219.016 226.058 220.189 228.192 222.536C230.325 224.883 231.392 228.211 231.392 232.52V253H225.952V234.056C225.952 230.899 225.312 228.467 224.032 226.76C222.794 225.053 220.938 224.2 218.464 224.2C216.842 224.2 215.306 224.584 213.856 225.352C212.448 226.077 211.296 227.187 210.4 228.68C209.504 230.131 209.056 231.944 209.056 234.12V253H203.616V219.784H208.416C208.501 221.917 208.629 223.752 208.8 225.288C209.909 223.24 211.402 221.683 213.28 220.616C215.2 219.549 217.333 219.016 219.68 219.016ZM262.258 219.784H267.89L252.338 259.016C250.973 262.472 249.522 264.925 247.986 266.376C246.45 267.869 244.295 268.616 241.522 268.616C238.919 268.616 236.85 267.955 235.314 266.632L237.49 262.216C237.959 262.6 238.557 262.899 239.282 263.112C240.05 263.368 240.797 263.496 241.522 263.496C242.845 263.496 243.954 263.048 244.85 262.152C245.789 261.256 246.791 259.571 247.858 257.096L249.458 253.384L235.634 219.784H241.906L252.338 246.472L262.258 219.784ZM271.7 229.512C271.7 224.691 272.617 220.445 274.452 216.776C276.287 213.107 278.804 210.291 282.004 208.328C285.247 206.365 288.873 205.384 292.884 205.384C296.895 205.384 300.5 206.387 303.7 208.392C306.943 210.355 309.481 213.171 311.316 216.84C313.151 220.467 314.068 224.691 314.068 229.512C314.068 234.376 313.129 238.643 311.252 242.312C309.417 245.939 306.9 248.755 303.7 250.76C300.5 252.723 296.895 253.704 292.884 253.704C288.873 253.704 285.247 252.723 282.004 250.76C278.804 248.797 276.287 245.981 274.452 242.312C272.617 238.643 271.7 234.376 271.7 229.512ZM277.716 229.512C277.716 233.224 278.313 236.509 279.508 239.368C280.745 242.227 282.516 244.467 284.82 246.088C287.124 247.667 289.812 248.456 292.884 248.456C295.956 248.456 298.623 247.667 300.884 246.088C303.188 244.467 304.959 242.227 306.196 239.368C307.433 236.509 308.052 233.224 308.052 229.512C308.052 225.757 307.433 222.451 306.196 219.592C304.959 216.733 303.188 214.515 300.884 212.936C298.623 211.357 295.956 210.568 292.884 210.568C289.812 210.568 287.124 211.357 284.82 212.936C282.559 214.515 280.809 216.733 279.572 219.592C278.335 222.451 277.716 225.757 277.716 229.512ZM352.321 240.008C352.321 242.696 351.702 245.085 350.465 247.176C349.227 249.224 347.414 250.824 345.025 251.976C342.635 253.128 339.798 253.704 336.513 253.704C331.947 253.704 328.043 252.637 324.801 250.504C321.558 248.371 319.425 245.533 318.401 241.992L323.009 239.304C324.161 242.248 325.867 244.509 328.129 246.088C330.39 247.667 333.206 248.456 336.577 248.456C339.649 248.456 342.038 247.773 343.745 246.408C345.451 245.043 346.305 243.144 346.305 240.712C346.305 238.749 345.771 237.171 344.705 235.976C343.638 234.739 342.315 233.779 340.737 233.096C339.201 232.413 337.067 231.667 334.337 230.856C331.307 229.96 328.854 229.107 326.977 228.296C325.142 227.485 323.585 226.269 322.305 224.648C321.025 223.027 320.385 220.893 320.385 218.248C320.385 215.56 321.067 213.256 322.433 211.336C323.798 209.373 325.675 207.901 328.065 206.92C330.497 205.896 333.206 205.384 336.193 205.384C340.374 205.384 343.745 206.301 346.305 208.136C348.907 209.971 350.657 212.296 351.553 215.112L346.945 217.8C345.963 215.539 344.598 213.768 342.849 212.488C341.142 211.208 338.859 210.568 336.001 210.568C333.099 210.568 330.774 211.229 329.025 212.552C327.275 213.832 326.401 215.56 326.401 217.736C326.401 219.357 326.87 220.68 327.809 221.704C328.79 222.728 330.006 223.539 331.457 224.136C332.907 224.733 334.891 225.395 337.409 226.12C340.609 227.059 343.19 227.976 345.153 228.872C347.115 229.768 348.801 231.112 350.208 232.904C351.617 234.696 352.321 237.064 352.321 240.008ZM406.258 240.008C406.258 242.696 405.639 245.085 404.402 247.176C403.165 249.224 401.351 250.824 398.962 251.976C396.573 253.128 393.735 253.704 390.45 253.704C385.885 253.704 381.981 252.637 378.738 250.504C375.495 248.371 373.362 245.533 372.338 241.992L376.946 239.304C378.098 242.248 379.805 244.509 382.066 246.088C384.327 247.667 387.143 248.456 390.514 248.456C393.586 248.456 395.975 247.773 397.682 246.408C399.389 245.043 400.242 243.144 400.242 240.712C400.242 238.749 399.709 237.171 398.642 235.976C397.575 234.739 396.253 233.779 394.674 233.096C393.138 232.413 391.005 231.667 388.274 230.856C385.245 229.96 382.791 229.107 380.914 228.296C379.079 227.485 377.522 226.269 376.242 224.648C374.962 223.027 374.322 220.893 374.322 218.248C374.322 215.56 375.005 213.256 376.37 211.336C377.735 209.373 379.613 207.901 382.002 206.92C384.434 205.896 387.143 205.384 390.13 205.384C394.311 205.384 397.682 206.301 400.242 208.136C402.845 209.971 404.594 212.296 405.49 215.112L400.882 217.8C399.901 215.539 398.535 213.768 396.786 212.488C395.079 211.208 392.797 210.568 389.938 210.568C387.037 210.568 384.711 211.229 382.962 212.552C381.213 213.832 380.338 215.56 380.338 217.736C380.338 219.357 380.807 220.68 381.746 221.704C382.727 222.728 383.943 223.539 385.394 224.136C386.845 224.733 388.829 225.395 391.346 226.12C394.546 227.059 397.127 227.976 399.09 228.872C401.053 229.768 402.738 231.112 404.146 232.904C405.554 234.696 406.258 237.064 406.258 240.008ZM425.666 219.016C429.42 219.016 432.492 220.168 434.882 222.472C437.271 224.733 438.466 227.976 438.466 232.2V253H433.666C433.538 250.824 433.452 249.416 433.41 248.776C432.386 250.397 430.999 251.635 429.25 252.488C427.543 253.299 425.58 253.704 423.362 253.704C421.228 253.704 419.223 253.32 417.345 252.552C415.511 251.741 414.039 250.568 412.93 249.032C411.82 247.453 411.266 245.576 411.266 243.4C411.266 240.115 412.588 237.533 415.234 235.656C417.922 233.736 421.378 232.776 425.602 232.776C427.991 232.776 430.466 233.096 433.026 233.736V233.16C433.026 230.045 432.386 227.741 431.106 226.248C429.868 224.712 427.97 223.944 425.41 223.944C423.362 223.944 421.655 224.371 420.29 225.224C418.924 226.077 417.772 227.336 416.834 229L412.674 226.632C413.698 224.328 415.362 222.493 417.666 221.128C420.012 219.72 422.679 219.016 425.666 219.016ZM433.026 238.28C430.338 237.597 427.884 237.256 425.666 237.256C422.892 237.256 420.738 237.789 419.202 238.856C417.708 239.923 416.962 241.416 416.962 243.336C416.962 245.128 417.602 246.536 418.882 247.56C420.162 248.541 421.826 249.032 423.874 249.032C426.391 249.032 428.546 248.307 430.338 246.856C432.13 245.363 433.026 243.315 433.026 240.712V238.28ZM463.867 219.016C467.408 219.016 470.246 220.189 472.379 222.536C474.512 224.883 475.579 228.211 475.579 232.52V253H470.139V234.056C470.139 230.899 469.499 228.467 468.219 226.76C466.982 225.053 465.126 224.2 462.651 224.2C461.03 224.2 459.494 224.584 458.043 225.352C456.635 226.077 455.483 227.187 454.587 228.68C453.691 230.131 453.243 231.944 453.243 234.12V253H447.803V219.784H452.603C452.688 221.917 452.816 223.752 452.987 225.288C454.096 223.24 455.59 221.683 457.467 220.616C459.387 219.549 461.52 219.016 463.867 219.016ZM507.328 243.528C507.328 245.533 506.795 247.304 505.728 248.84C504.704 250.376 503.253 251.571 501.376 252.424C499.499 253.277 497.344 253.704 494.912 253.704C491.669 253.704 488.875 252.979 486.528 251.528C484.181 250.077 482.645 248.093 481.92 245.576L486.08 243.208C487.659 246.92 490.603 248.776 494.912 248.776C497.003 248.776 498.645 248.349 499.84 247.496C501.035 246.643 501.632 245.469 501.632 243.976C501.632 242.824 501.269 241.885 500.544 241.16C499.861 240.435 498.987 239.88 497.92 239.496C496.896 239.069 495.445 238.579 493.568 238.024C491.307 237.384 489.472 236.765 488.064 236.168C486.656 235.571 485.461 234.696 484.48 233.544C483.499 232.349 483.008 230.792 483.008 228.872C483.008 226.867 483.541 225.117 484.608 223.624C485.717 222.131 487.189 221 489.024 220.232C490.901 219.421 492.949 219.016 495.168 219.016C498.069 219.016 500.565 219.656 502.656 220.936C504.747 222.216 506.155 223.965 506.88 226.184L502.72 228.552C502.037 227.101 501.013 225.992 499.648 225.224C498.325 224.413 496.747 224.008 494.912 224.008C493.035 224.008 491.52 224.392 490.368 225.16C489.259 225.885 488.704 226.952 488.704 228.36C488.704 229.384 489.024 230.216 489.664 230.856C490.347 231.496 491.179 232.008 492.16 232.392C493.141 232.776 494.528 233.224 496.32 233.736C498.667 234.376 500.565 235.016 502.016 235.656C503.467 236.253 504.704 237.192 505.728 238.472C506.795 239.752 507.328 241.437 507.328 243.528ZM567.463 253H560.487L546.919 233.8H546.343H537.639V253H531.943V206.152H546.343C549.543 206.152 552.38 206.728 554.855 207.88C557.372 209.032 559.314 210.675 560.679 212.808C562.087 214.899 562.791 217.309 562.791 220.04C562.791 223.112 561.916 225.779 560.167 228.04C558.418 230.259 556.007 231.859 552.935 232.84L567.463 253ZM537.639 211.144V228.808H545.639C549.266 228.808 552.018 228.019 553.895 226.44C555.815 224.819 556.775 222.685 556.775 220.04C556.775 217.395 555.815 215.261 553.895 213.64C552.018 211.976 549.266 211.144 545.639 211.144H537.639ZM585.377 219.016C588.236 219.016 590.732 219.699 592.865 221.064C595.041 222.387 596.705 224.2 597.857 226.504C599.009 228.808 599.585 231.368 599.585 234.184C599.585 235.379 599.5 236.467 599.329 237.448H575.393C575.606 241.245 576.694 244.083 578.657 245.96C580.62 247.795 583.094 248.712 586.081 248.712C589.793 248.712 592.481 247.219 594.145 244.232L598.305 246.6C597.452 248.861 595.852 250.611 593.505 251.848C591.201 253.085 588.62 253.704 585.761 253.704C582.774 253.704 580.044 253.021 577.569 251.656C575.137 250.291 573.196 248.307 571.745 245.704C570.337 243.059 569.633 239.901 569.633 236.232C569.633 232.691 570.337 229.619 571.745 227.016C573.196 224.413 575.116 222.429 577.505 221.064C579.894 219.699 582.518 219.016 585.377 219.016ZM585.185 224.008C582.796 224.008 580.705 224.776 578.913 226.312C577.164 227.848 576.054 230.088 575.585 233.032H593.697C593.569 230.173 592.737 227.955 591.201 226.376C589.665 224.797 587.66 224.008 585.185 224.008ZM635.545 219.72V250.888C635.545 257.331 634.009 261.896 630.937 264.584C627.865 267.272 624.217 268.616 619.993 268.616C616.708 268.616 613.785 267.912 611.225 266.504C608.665 265.096 606.916 263.112 605.977 260.552L610.393 258.056C612.057 261.683 615.278 263.496 620.057 263.496C623.172 263.496 625.625 262.557 627.417 260.68C629.209 258.803 630.105 255.496 630.105 250.76V247.88C628.868 249.843 627.289 251.315 625.369 252.296C623.492 253.235 621.465 253.704 619.289 253.704C616.772 253.704 614.382 253.021 612.121 251.656C609.902 250.248 608.089 248.243 606.681 245.64C605.316 242.995 604.633 239.901 604.633 236.36C604.633 232.819 605.316 229.725 606.681 227.08C608.046 224.435 609.86 222.429 612.121 221.064C614.382 219.699 616.772 219.016 619.289 219.016C621.508 219.016 623.598 219.549 625.561 220.616C627.566 221.683 629.166 223.261 630.361 225.352C630.574 223.347 630.702 221.469 630.745 219.72H635.545ZM619.929 248.584C622.702 248.584 625.092 247.603 627.097 245.64C629.102 243.677 630.105 240.584 630.105 236.36C630.105 232.179 629.102 229.107 627.097 227.144C625.092 225.181 622.702 224.2 619.929 224.2C617.028 224.2 614.702 225.267 612.953 227.4C611.204 229.533 610.329 232.52 610.329 236.36C610.329 240.243 611.204 243.251 612.953 245.384C614.702 247.517 617.028 248.584 619.929 248.584ZM667.252 219.72H672.692V253H667.892C667.807 250.824 667.679 249.011 667.508 247.56C666.399 249.608 664.884 251.144 662.964 252.168C661.044 253.192 658.953 253.704 656.692 253.704C653.151 253.704 650.313 252.531 648.18 250.184C646.047 247.837 644.98 244.509 644.98 240.2V219.72H650.42V238.728C650.42 241.885 651.039 244.317 652.276 246.024C653.556 247.731 655.412 248.584 657.844 248.584C659.465 248.584 660.98 248.221 662.388 247.496C663.839 246.728 665.012 245.597 665.908 244.104C666.804 242.611 667.252 240.776 667.252 238.6V219.72ZM688.056 253H682.616V204.296H688.056V253ZM710.728 219.016C714.483 219.016 717.555 220.168 719.944 222.472C722.333 224.733 723.528 227.976 723.528 232.2V253H718.728C718.6 250.824 718.515 249.416 718.472 248.776C717.448 250.397 716.061 251.635 714.312 252.488C712.605 253.299 710.643 253.704 708.424 253.704C706.291 253.704 704.285 253.32 702.408 252.552C700.573 251.741 699.101 250.568 697.992 249.032C696.883 247.453 696.328 245.576 696.328 243.4C696.328 240.115 697.651 237.533 700.296 235.656C702.984 233.736 706.44 232.776 710.664 232.776C713.053 232.776 715.528 233.096 718.088 233.736V233.16C718.088 230.045 717.448 227.741 716.168 226.248C714.931 224.712 713.032 223.944 710.472 223.944C708.424 223.944 706.717 224.371 705.352 225.224C703.987 226.077 702.835 227.336 701.896 229L697.736 226.632C698.76 224.328 700.424 222.493 702.728 221.128C705.075 219.72 707.741 219.016 710.728 219.016ZM718.088 238.28C715.4 237.597 712.947 237.256 710.728 237.256C707.955 237.256 705.8 237.789 704.264 238.856C702.771 239.923 702.024 241.416 702.024 243.336C702.024 245.128 702.664 246.536 703.944 247.56C705.224 248.541 706.888 249.032 708.936 249.032C711.453 249.032 713.608 248.307 715.4 246.856C717.192 245.363 718.088 243.315 718.088 240.712V238.28ZM746.818 219.016C747.842 219.016 748.78 219.165 749.634 219.464C750.53 219.72 751.255 220.061 751.81 220.488L749.826 224.904C748.972 224.392 747.948 224.136 746.753 224.136C744.279 224.136 742.252 225.16 740.674 227.208C739.095 229.213 738.306 232.157 738.306 236.04V253H732.866V219.784H737.666C737.751 221.917 737.879 223.731 738.05 225.224C739.927 221.085 742.85 219.016 746.818 219.016ZM9.4795 323.952H36.5515V303.152H40.3275V350H36.5515V327.344H9.4795V350H5.6395V303.152H9.4795V323.952ZM63.914 316.016C67.4127 316.016 70.2927 317.104 72.554 319.28C74.8153 321.413 75.946 324.571 75.946 328.752V350H72.746C72.746 348.677 72.7033 346.949 72.618 344.816C71.6367 346.651 70.2073 348.08 68.33 349.104C66.4953 350.128 64.362 350.64 61.93 350.64C59.7967 350.64 57.834 350.256 56.042 349.488C54.25 348.677 52.7993 347.525 51.69 346.032C50.6233 344.496 50.09 342.661 50.09 340.528C50.09 337.285 51.4127 334.747 54.058 332.912C56.7033 331.035 60.138 330.096 64.362 330.096C66.8367 330.096 69.482 330.459 72.298 331.184V329.392C72.298 325.979 71.53 323.461 69.994 321.84C68.5007 320.176 66.41 319.344 63.722 319.344C61.5887 319.344 59.754 319.813 58.218 320.752C56.682 321.691 55.466 323.035 54.57 324.784L51.754 323.184C52.6927 321.008 54.25 319.28 56.426 318C58.6447 316.677 61.1407 316.016 63.914 316.016ZM72.298 334.256C69.3967 333.488 66.7513 333.104 64.362 333.104C61.162 333.104 58.602 333.744 56.682 335.024C54.8047 336.304 53.866 338.117 53.866 340.464C53.866 342.683 54.6553 344.411 56.234 345.648C57.8553 346.885 59.8393 347.504 62.186 347.504C65.002 347.504 67.3913 346.672 69.354 345.008C71.3167 343.344 72.298 341.061 72.298 338.16V334.256ZM98.7965 316.016C100.631 316.016 102.061 316.421 103.085 317.232L101.677 320.176C100.951 319.707 99.9698 319.472 98.7325 319.472C96.2152 319.472 94.1032 320.539 92.3965 322.672C90.7325 324.763 89.9005 327.749 89.9005 331.632V350H86.3165V316.72H89.4525C89.5805 320.091 89.6658 322.16 89.7085 322.928C90.5618 320.709 91.7778 319.003 93.3565 317.808C94.9352 316.613 96.7485 316.016 98.7965 316.016ZM142.158 316.016C145.187 316.016 147.64 317.125 149.518 319.344C151.438 321.563 152.398 324.763 152.398 328.944V350H148.878V330.096C148.878 326.64 148.195 324.016 146.83 322.224C145.507 320.389 143.672 319.472 141.326 319.472C139.747 319.472 138.275 319.899 136.91 320.752C135.587 321.563 134.52 322.8 133.71 324.464C132.899 326.128 132.494 328.133 132.494 330.48V350H128.91V330.096C128.91 326.64 128.227 324.016 126.862 322.224C125.539 320.389 123.726 319.472 121.422 319.472C119.843 319.472 118.371 319.899 117.006 320.752C115.64 321.563 114.552 322.8 113.742 324.464C112.931 326.128 112.526 328.133 112.526 330.48V350H108.942V316.72H112.078C112.206 320.133 112.291 322.181 112.334 322.864C113.272 320.688 114.616 319.003 116.366 317.808C118.115 316.613 120.078 316.016 122.253 316.016C124.558 316.016 126.563 316.677 128.27 318C129.976 319.323 131.15 321.264 131.79 323.824C132.686 321.307 134.051 319.387 135.886 318.064C137.763 316.699 139.854 316.016 142.158 316.016ZM160.833 333.36C160.833 330.032 161.515 327.045 162.881 324.4C164.289 321.755 166.166 319.707 168.513 318.256C170.859 316.763 173.398 316.016 176.128 316.016C178.859 316.016 181.377 316.741 183.681 318.192C186.027 319.643 187.905 321.691 189.312 324.336C190.721 326.981 191.425 329.989 191.425 333.36C191.425 336.688 190.721 339.675 189.312 342.32C187.905 344.923 186.027 346.971 183.681 348.464C181.377 349.915 178.859 350.64 176.128 350.64C173.398 350.64 170.859 349.915 168.513 348.464C166.166 347.013 164.289 344.965 162.881 342.32C161.515 339.675 160.833 336.688 160.833 333.36ZM164.609 333.36C164.609 336.133 165.121 338.565 166.145 340.656C167.169 342.747 168.555 344.368 170.305 345.52C172.097 346.629 174.038 347.184 176.128 347.184C178.262 347.184 180.182 346.629 181.889 345.52C183.638 344.368 185.025 342.747 186.049 340.656C187.073 338.565 187.585 336.133 187.585 333.36C187.585 330.587 187.073 328.155 186.049 326.064C185.025 323.931 183.638 322.309 181.889 321.2C180.182 320.048 178.262 319.472 176.128 319.472C174.038 319.472 172.097 320.048 170.305 321.2C168.555 322.309 167.169 323.931 166.145 326.064C165.121 328.155 164.609 330.587 164.609 333.36ZM215.034 316.016C218.447 316.016 221.199 317.147 223.29 319.408C225.423 321.669 226.49 324.912 226.49 329.136V350H222.842V330.096C222.842 326.683 222.074 324.059 220.538 322.224C219.044 320.389 216.954 319.472 214.266 319.472C212.474 319.472 210.788 319.899 209.21 320.752C207.674 321.563 206.415 322.8 205.434 324.464C204.495 326.128 204.026 328.133 204.026 330.48V350H200.442V316.72H203.578C203.706 320.219 203.791 322.352 203.834 323.12C204.815 320.859 206.287 319.109 208.25 317.872C210.255 316.635 212.516 316.016 215.034 316.016ZM258.013 316.72H261.853L245.789 356.912C244.594 359.984 243.314 362.203 241.949 363.568C240.583 364.933 238.685 365.616 236.253 365.616C234.034 365.616 232.284 365.083 231.005 364.016L232.477 361.008C232.903 361.349 233.458 361.627 234.141 361.84C234.866 362.096 235.57 362.224 236.253 362.224C237.703 362.224 238.919 361.733 239.901 360.752C240.882 359.771 241.863 358.043 242.845 355.568L244.957 350.448L231.325 316.72H235.549L246.877 345.776L258.013 316.72ZM266.084 326.512C266.084 321.733 266.959 317.531 268.708 313.904C270.5 310.235 272.953 307.419 276.068 305.456C279.183 303.451 282.681 302.448 286.564 302.448C290.489 302.448 294.009 303.451 297.124 305.456C300.239 307.419 302.671 310.235 304.42 313.904C306.212 317.531 307.108 321.733 307.108 326.512C307.108 331.333 306.212 335.579 304.42 339.248C302.671 342.875 300.239 345.691 297.124 347.696C294.009 349.659 290.489 350.64 286.564 350.64C282.681 350.64 279.183 349.659 276.068 347.696C272.953 345.691 270.5 342.875 268.708 339.248C266.959 335.579 266.084 331.333 266.084 326.512ZM270.116 326.512C270.116 330.565 270.799 334.149 272.164 337.264C273.529 340.379 275.449 342.811 277.924 344.56C280.399 346.267 283.279 347.12 286.564 347.12C289.849 347.12 292.751 346.267 295.268 344.56C297.785 342.811 299.727 340.379 301.092 337.264C302.457 334.149 303.14 330.565 303.14 326.512C303.14 322.459 302.436 318.875 301.028 315.76C299.663 312.645 297.721 310.235 295.204 308.528C292.729 306.779 289.849 305.904 286.564 305.904C283.321 305.904 280.441 306.779 277.924 308.528C275.449 310.235 273.529 312.645 272.164 315.76C270.799 318.875 270.116 322.459 270.116 326.512ZM343.84 337.52C343.84 341.531 342.517 344.731 339.872 347.12C337.269 349.467 333.706 350.64 329.184 350.64C325.002 350.64 321.376 349.659 318.304 347.696C315.232 345.691 313.205 343.003 312.224 339.632L315.296 337.84C316.32 340.741 318.048 343.024 320.48 344.688C322.954 346.309 325.856 347.12 329.184 347.12C332.512 347.12 335.114 346.309 336.992 344.688C338.912 343.024 339.872 340.763 339.872 337.904C339.872 335.728 339.317 333.957 338.208 332.592C337.098 331.227 335.712 330.16 334.048 329.392C332.426 328.624 330.229 327.813 327.456 326.96C324.512 326.021 322.165 325.147 320.416 324.336C318.666 323.483 317.173 322.288 315.936 320.752C314.741 319.173 314.144 317.147 314.144 314.672C314.144 312.069 314.784 309.851 316.064 308.016C317.386 306.181 319.157 304.795 321.376 303.856C323.637 302.917 326.112 302.448 328.8 302.448C332.64 302.448 335.797 303.344 338.272 305.136C340.789 306.885 342.368 309.083 343.007 311.728L339.936 313.52C339.21 311.216 337.888 309.381 335.968 308.016C334.09 306.608 331.658 305.904 328.672 305.904C325.6 305.904 323.082 306.651 321.12 308.144C319.157 309.637 318.176 311.707 318.176 314.352C318.176 316.187 318.666 317.68 319.648 318.832C320.672 319.984 321.93 320.901 323.424 321.584C324.917 322.224 326.944 322.949 329.503 323.76C332.576 324.699 335.072 325.637 336.992 326.576C338.912 327.472 340.533 328.795 341.856 330.544C343.178 332.293 343.84 334.619 343.84 337.52ZM396.277 337.52C396.277 341.531 394.954 344.731 392.309 347.12C389.706 349.467 386.144 350.64 381.621 350.64C377.44 350.64 373.813 349.659 370.741 347.696C367.669 345.691 365.642 343.003 364.661 339.632L367.733 337.84C368.757 340.741 370.485 343.024 372.917 344.688C375.392 346.309 378.293 347.12 381.621 347.12C384.949 347.12 387.552 346.309 389.429 344.688C391.349 343.024 392.309 340.763 392.309 337.904C392.309 335.728 391.754 333.957 390.645 332.592C389.536 331.227 388.149 330.16 386.485 329.392C384.864 328.624 382.666 327.813 379.893 326.96C376.949 326.021 374.602 325.147 372.853 324.336C371.104 323.483 369.61 322.288 368.373 320.752C367.178 319.173 366.581 317.147 366.581 314.672C366.581 312.069 367.221 309.851 368.501 308.016C369.824 306.181 371.594 304.795 373.813 303.856C376.074 302.917 378.549 302.448 381.237 302.448C385.077 302.448 388.234 303.344 390.709 305.136C393.226 306.885 394.805 309.083 395.445 311.728L392.373 313.52C391.648 311.216 390.325 309.381 388.405 308.016C386.528 306.608 384.096 305.904 381.109 305.904C378.037 305.904 375.52 306.651 373.557 308.144C371.594 309.637 370.613 311.707 370.613 314.352C370.613 316.187 371.104 317.68 372.085 318.832C373.109 319.984 374.368 320.901 375.861 321.584C377.354 322.224 379.381 322.949 381.941 323.76C385.013 324.699 387.509 325.637 389.429 326.576C391.349 327.472 392.97 328.795 394.293 330.544C395.616 332.293 396.277 334.619 396.277 337.52ZM415.977 316.016C419.475 316.016 422.355 317.104 424.617 319.28C426.878 321.413 428.009 324.571 428.009 328.752V350H424.809C424.809 348.677 424.766 346.949 424.681 344.816C423.699 346.651 422.27 348.08 420.393 349.104C418.558 350.128 416.425 350.64 413.993 350.64C411.859 350.64 409.897 350.256 408.105 349.488C406.313 348.677 404.862 347.525 403.753 346.032C402.686 344.496 402.153 342.661 402.153 340.528C402.153 337.285 403.475 334.747 406.121 332.912C408.766 331.035 412.201 330.096 416.425 330.096C418.899 330.096 421.545 330.459 424.361 331.184V329.392C424.361 325.979 423.593 323.461 422.057 321.84C420.563 320.176 418.473 319.344 415.785 319.344C413.651 319.344 411.817 319.813 410.281 320.752C408.745 321.691 407.529 323.035 406.633 324.784L403.817 323.184C404.755 321.008 406.313 319.28 408.489 318C410.707 316.677 413.203 316.016 415.977 316.016ZM424.361 334.256C421.459 333.488 418.814 333.104 416.425 333.104C413.225 333.104 410.665 333.744 408.745 335.024C406.867 336.304 405.929 338.117 405.929 340.464C405.929 342.683 406.718 344.411 408.297 345.648C409.918 346.885 411.902 347.504 414.249 347.504C417.065 347.504 419.454 346.672 421.417 345.008C423.379 343.344 424.361 341.061 424.361 338.16V334.256ZM452.971 316.016C456.384 316.016 459.136 317.147 461.227 319.408C463.36 321.669 464.427 324.912 464.427 329.136V350H460.779V330.096C460.779 326.683 460.011 324.059 458.475 322.224C456.982 320.389 454.891 319.472 452.203 319.472C450.411 319.472 448.726 319.899 447.147 320.752C445.611 321.563 444.352 322.8 443.371 324.464C442.432 326.128 441.963 328.133 441.963 330.48V350H438.379V316.72H441.515C441.643 320.219 441.728 322.352 441.771 323.12C442.752 320.859 444.224 319.109 446.187 317.872C448.192 316.635 450.454 316.016 452.971 316.016ZM495.553 340.976C495.553 343.877 494.486 346.224 492.353 348.016C490.219 349.765 487.467 350.64 484.097 350.64C481.11 350.64 478.486 349.957 476.225 348.592C473.963 347.184 472.47 345.221 471.745 342.704L474.561 341.104C475.286 343.152 476.481 344.709 478.145 345.776C479.851 346.8 481.835 347.312 484.097 347.312C486.401 347.312 488.257 346.779 489.665 345.712C491.073 344.603 491.777 343.131 491.777 341.296C491.777 339.888 491.371 338.736 490.561 337.84C489.793 336.944 488.811 336.261 487.617 335.792C486.465 335.28 484.907 334.725 482.945 334.128C480.726 333.445 478.955 332.805 477.633 332.208C476.31 331.568 475.179 330.693 474.241 329.584C473.345 328.432 472.897 326.96 472.897 325.168C472.897 322.395 473.963 320.176 476.097 318.512C478.23 316.848 480.875 316.016 484.033 316.016C486.721 316.016 489.046 316.635 491.009 317.872C492.971 319.067 494.315 320.709 495.041 322.8L492.225 324.464C491.627 322.885 490.582 321.648 489.089 320.752C487.595 319.813 485.867 319.344 483.905 319.344C481.814 319.344 480.086 319.835 478.72 320.816C477.398 321.797 476.737 323.141 476.737 324.848C476.737 326.043 477.099 327.045 477.825 327.856C478.55 328.624 479.446 329.243 480.513 329.712C481.622 330.139 483.094 330.629 484.929 331.184C487.19 331.867 489.025 332.549 490.433 333.232C491.841 333.872 493.035 334.832 494.017 336.112C495.041 337.349 495.553 338.971 495.553 340.976ZM521.14 303.152H524.98V346.544H548.212V350H521.14V303.152ZM557.734 309.36C557.008 309.36 556.39 309.104 555.878 308.592C555.366 308.037 555.11 307.397 555.11 306.672C555.11 305.947 555.366 305.307 555.878 304.752C556.432 304.197 557.051 303.92 557.734 303.92C558.502 303.92 559.142 304.197 559.654 304.752C560.166 305.264 560.422 305.904 560.422 306.672C560.422 307.397 560.144 308.037 559.59 308.592C559.078 309.104 558.459 309.36 557.734 309.36ZM559.526 350H555.942V316.72H559.526V350ZM598.023 316.656V348.656C598.023 354.672 596.593 359.003 593.735 361.648C590.876 364.293 587.377 365.616 583.239 365.616C580.167 365.616 577.415 364.955 574.983 363.632C572.593 362.352 570.887 360.496 569.863 358.064L572.807 356.336C574.727 360.261 578.225 362.224 583.303 362.224C590.727 362.224 594.439 357.659 594.439 348.528V343.024C593.372 345.541 591.815 347.44 589.767 348.72C587.761 350 585.5 350.64 582.983 350.64C580.423 350.64 578.033 349.957 575.815 348.592C573.639 347.184 571.889 345.179 570.567 342.576C569.244 339.931 568.583 336.837 568.583 333.296C568.583 329.755 569.244 326.683 570.567 324.08C571.889 321.435 573.639 319.429 575.815 318.064C578.033 316.699 580.423 316.016 582.983 316.016C585.5 316.016 587.804 316.699 589.895 318.064C591.985 319.429 593.564 321.413 594.631 324.016C594.716 322.821 594.801 320.368 594.887 316.656H598.023ZM583.367 347.184C585.244 347.184 587.015 346.736 588.679 345.84C590.385 344.901 591.772 343.408 592.839 341.36C593.905 339.269 594.439 336.581 594.439 333.296C594.439 330.053 593.905 327.408 592.839 325.36C591.772 323.269 590.385 321.776 588.679 320.88C587.015 319.941 585.244 319.472 583.367 319.472C581.276 319.472 579.399 320.005 577.735 321.072C576.071 322.139 574.748 323.717 573.767 325.808C572.828 327.899 572.359 330.395 572.359 333.296C572.359 336.24 572.828 338.757 573.767 340.848C574.748 342.939 576.071 344.517 577.735 345.584C579.399 346.651 581.276 347.184 583.367 347.184ZM623.596 316.016C626.967 316.016 629.719 317.147 631.852 319.408C633.985 321.669 635.052 324.912 635.052 329.136V350H631.404V330.096C631.404 326.683 630.636 324.059 629.1 322.224C627.607 320.389 625.516 319.472 622.828 319.472C621.036 319.472 619.351 319.899 617.772 320.752C616.236 321.563 614.977 322.8 613.996 324.464C613.057 326.128 612.588 328.133 612.588 330.48V350H609.004V301.296H612.588V322.736C613.612 320.603 615.084 318.96 617.004 317.808C618.967 316.613 621.164 316.016 623.596 316.016ZM661.186 348.976C659.564 350.085 657.602 350.64 655.298 350.64C652.652 350.64 650.54 349.893 648.962 348.4C647.383 346.864 646.594 344.219 646.594 340.464V319.792H641.09V316.656H646.594V307.44H650.242V316.656H659.65V319.792H650.242V340.016C650.242 342.619 650.711 344.475 651.65 345.584C652.588 346.651 653.911 347.184 655.618 347.184C657.111 347.184 658.562 346.8 659.97 346.032L661.186 348.976Z" fill="#282828"/>
</g>
<defs>
<clipPath id="clip0">
<rect width="772" height="366" fill="white"/>
</clipPath>
</defs>
</svg>
