<svg width="675" height="464" viewBox="0 0 675 464" fill="none" xmlns="http://www.w3.org/2000/svg">
<g clip-path="url(#clip0)">
<rect width="675" height="464" fill="white"/>
<path d="M20.517 23.1818H5.75568V93H20.517V23.1818ZM46.9119 62.7273C46.946 55.9773 50.9688 52.0227 56.8324 52.0227C62.6619 52.0227 66.1733 55.8409 66.1392 62.25V93H80.6619V59.6591C80.6619 47.4545 73.5028 39.9545 62.5938 39.9545C54.821 39.9545 49.196 43.7727 46.8438 49.875H46.2301V40.6364H32.3892V93H46.9119V62.7273ZM119.96 40.6364H110.108V28.0909H95.5852V40.6364H88.4261V51.5455H95.5852V78.8182C95.517 89.0795 102.506 94.1591 113.04 93.7159C116.79 93.5795 119.449 92.8295 120.915 92.3523L118.631 81.5455C117.915 81.6818 116.381 82.0227 115.017 82.0227C112.119 82.0227 110.108 80.9318 110.108 76.9091V51.5455H119.96V40.6364ZM152.722 94.0227C165.676 94.0227 174.403 87.7159 176.449 78L163.017 77.1136C161.551 81.1023 157.801 83.1818 152.96 83.1818C145.699 83.1818 141.097 78.375 141.097 70.5682V70.5341H176.756V66.5455C176.756 48.75 165.983 39.9545 152.142 39.9545C136.733 39.9545 126.744 50.8977 126.744 67.0568C126.744 83.6591 136.597 94.0227 152.722 94.0227ZM141.097 61.5341C141.403 55.5682 145.938 50.7955 152.381 50.7955C158.688 50.7955 163.051 55.2955 163.085 61.5341H141.097ZM186.233 93H200.756V63.375C200.756 56.9318 205.46 52.5 211.869 52.5C213.881 52.5 216.642 52.8409 218.006 53.2841V40.3977C216.71 40.0909 214.903 39.8864 213.438 39.8864C207.574 39.8864 202.767 43.2955 200.858 49.7727H200.312V40.6364H186.233V93ZM248.006 93H277.835C293.517 93 301.869 84.8182 301.869 73.7045C301.869 63.375 294.472 57.1364 286.528 56.7614V56.0795C293.79 54.4432 299.142 49.2955 299.142 41.0795C299.142 30.6136 291.369 23.1818 275.96 23.1818H248.006V93ZM262.767 80.9318V62.3864H275.142C282.233 62.3864 286.631 66.4773 286.631 72.2386C286.631 77.4886 283.051 80.9318 274.801 80.9318H262.767ZM262.767 52.3977V35.1136H273.983C280.528 35.1136 284.244 38.4886 284.244 43.5341C284.244 49.0568 279.744 52.3977 273.71 52.3977H262.767ZM334.861 94.0227C350.747 94.0227 360.634 83.1477 360.634 67.0227C360.634 50.7955 350.747 39.9545 334.861 39.9545C318.974 39.9545 309.088 50.7955 309.088 67.0227C309.088 83.1477 318.974 94.0227 334.861 94.0227ZM334.929 82.7727C327.599 82.7727 323.849 76.0568 323.849 66.9205C323.849 57.7841 327.599 51.0341 334.929 51.0341C342.122 51.0341 345.872 57.7841 345.872 66.9205C345.872 76.0568 342.122 82.7727 334.929 82.7727ZM384.599 23.1818H370.077V93H384.599V23.1818ZM415.528 93.8523C423.983 93.8523 428.381 88.9773 430.392 84.6136H431.006V93H445.324V23.1818H430.835V49.4318H430.392C428.449 45.1705 424.256 39.9545 415.494 39.9545C404.006 39.9545 394.29 48.8864 394.29 66.8864C394.29 84.4091 403.597 93.8523 415.528 93.8523ZM420.131 82.2955C413.006 82.2955 409.119 75.9545 409.119 66.8182C409.119 57.75 412.938 51.5114 420.131 51.5114C427.188 51.5114 431.142 57.4773 431.142 66.8182C431.142 76.1591 427.119 82.2955 420.131 82.2955ZM19.2216 139.182H6.57386V209H19.2216V139.182ZM44.7131 178.318C44.7131 170.75 49.2812 166.386 55.7926 166.386C62.1676 166.386 65.9858 170.58 65.9858 177.568V209H78.3267V175.659C78.3608 163.114 71.2017 155.955 60.3949 155.955C52.554 155.955 47.1676 159.705 44.7812 165.534H44.1676V156.636H32.3722V209H44.7131V178.318ZM117.02 156.636H106.69V144.091H94.3494V156.636H86.9176V166.182H94.3494V195.295C94.2812 205.148 101.44 209.989 110.713 209.716C114.224 209.614 116.645 208.932 117.974 208.489L115.895 198.841C115.213 199.011 113.815 199.318 112.281 199.318C109.179 199.318 106.69 198.227 106.69 193.25V166.182H117.02V156.636ZM149.96 210.023C162.165 210.023 170.551 204.057 172.733 194.955L161.21 193.659C159.54 198.091 155.449 200.409 150.131 200.409C142.153 200.409 136.869 195.159 136.767 186.193H173.244V182.409C173.244 164.034 162.199 155.955 149.312 155.955C134.312 155.955 124.528 166.966 124.528 183.125C124.528 199.557 134.176 210.023 149.96 210.023ZM136.801 177.875C137.176 171.193 142.119 165.568 149.483 165.568C156.574 165.568 161.347 170.75 161.415 177.875H136.801ZM183.685 209H196.026V178.216C196.026 171.568 201.037 166.864 207.821 166.864C209.901 166.864 212.491 167.239 213.548 167.58V156.227C212.423 156.023 210.48 155.886 209.116 155.886C203.116 155.886 198.105 159.295 196.196 165.364H195.651V156.636H183.685V209ZM284.048 158.375H296.219C295.98 146.58 285.923 138.227 271.06 138.227C256.401 138.227 245.389 146.477 245.423 158.818C245.423 168.841 252.548 174.602 264.037 177.568L271.98 179.614C279.514 181.523 284.491 183.875 284.526 189.295C284.491 195.261 278.832 199.25 270.582 199.25C262.673 199.25 256.537 195.705 256.026 188.375H243.582C244.094 202.25 254.423 210.057 270.685 210.057C287.423 210.057 297.139 201.705 297.173 189.398C297.139 177.295 287.151 171.773 276.651 169.284L270.105 167.648C264.378 166.284 258.173 163.864 258.241 158.034C258.276 152.784 262.98 148.932 270.889 148.932C278.423 148.932 283.401 152.443 284.048 158.375ZM331.085 210.023C343.29 210.023 351.676 204.057 353.858 194.955L342.335 193.659C340.665 198.091 336.574 200.409 331.256 200.409C323.278 200.409 317.994 195.159 317.892 186.193H354.369V182.409C354.369 164.034 343.324 155.955 330.438 155.955C315.438 155.955 305.653 166.966 305.653 183.125C305.653 199.557 315.301 210.023 331.085 210.023ZM317.926 177.875C318.301 171.193 323.244 165.568 330.608 165.568C337.699 165.568 342.472 170.75 342.54 177.875H317.926ZM364.81 209H377.151V177.159C377.151 170.716 381.446 166.352 386.764 166.352C391.98 166.352 395.56 169.864 395.56 175.25V209H407.662V176.341C407.662 170.443 411.173 166.352 417.139 166.352C422.116 166.352 426.071 169.284 426.071 175.761V209H438.446V173.852C438.446 162.159 431.696 155.955 422.082 155.955C414.48 155.955 408.685 159.705 406.366 165.534H405.821C403.81 159.602 398.73 155.955 391.673 155.955C384.651 155.955 379.401 159.568 377.219 165.534H376.605V156.636H364.81V209ZM450.966 209H463.307V156.636H450.966V209ZM457.17 149.205C461.091 149.205 464.295 146.205 464.295 142.523C464.295 138.807 461.091 135.807 457.17 135.807C453.216 135.807 450.011 138.807 450.011 142.523C450.011 146.205 453.216 149.205 457.17 149.205ZM476.543 209H488.679V200.75H489.395C491.338 204.568 495.395 209.92 504.395 209.92C516.736 209.92 525.974 200.136 525.974 182.886C525.974 165.432 516.463 155.955 504.361 155.955C495.122 155.955 491.27 161.511 489.395 165.295H488.884V139.182H476.543V209ZM488.645 182.818C488.645 172.659 493.009 166.08 500.952 166.08C509.168 166.08 513.395 173.068 513.395 182.818C513.395 192.636 509.099 199.795 500.952 199.795C493.077 199.795 488.645 192.977 488.645 182.818ZM559.307 210.023C574.648 210.023 584.398 199.216 584.398 183.023C584.398 166.795 574.648 155.955 559.307 155.955C543.966 155.955 534.216 166.795 534.216 183.023C534.216 199.216 543.966 210.023 559.307 210.023ZM559.375 200.136C550.886 200.136 546.727 192.568 546.727 182.989C546.727 173.409 550.886 165.739 559.375 165.739C567.727 165.739 571.886 173.409 571.886 182.989C571.886 192.568 567.727 200.136 559.375 200.136ZM607.213 139.182H594.872V209H607.213V139.182ZM639.335 209.92C648.335 209.92 652.392 204.568 654.335 200.75H655.085V209H667.222V139.182H654.847V165.295H654.335C652.46 161.511 648.608 155.955 639.369 155.955C627.267 155.955 617.756 165.432 617.756 182.886C617.756 200.136 626.994 209.92 639.335 209.92ZM642.778 199.795C634.631 199.795 630.335 192.636 630.335 182.818C630.335 173.068 634.562 166.08 642.778 166.08C650.722 166.08 655.085 172.659 655.085 182.818C655.085 192.977 650.653 199.795 642.778 199.795ZM16.5966 255.182H8.14205V325H16.5966V255.182ZM40.5028 293.5C40.5028 284.364 46.1619 279.182 53.8665 279.182C61.3324 279.182 65.8665 284.057 65.8665 292.273V325H73.9119V291.727C73.9119 278.364 66.7869 271.955 56.1847 271.955C48.2756 271.955 43.3665 275.5 40.9119 280.818H40.2301V272.636H32.4574V325H40.5028V293.5ZM111.386 272.636H100.205V260.091H92.1591V272.636H84.25V279.455H92.1591V312.182C92.1591 321.318 99.5227 325.682 106.341 325.682C109.341 325.682 111.25 325.136 112.341 324.727L110.705 317.5C110.023 317.636 108.932 317.909 107.159 317.909C103.614 317.909 100.205 316.818 100.205 310V279.455H111.386V272.636ZM144.881 326.091C155.517 326.091 163.29 320.773 165.744 312.864L157.972 310.682C155.926 316.136 151.188 318.864 144.881 318.864C135.438 318.864 128.926 312.761 128.551 301.545H166.562V298.136C166.562 278.636 154.972 271.955 144.062 271.955C129.881 271.955 120.472 283.136 120.472 299.227C120.472 315.318 129.744 326.091 144.881 326.091ZM128.551 294.591C129.097 286.443 134.858 279.182 144.062 279.182C152.79 279.182 158.381 285.727 158.381 294.591H128.551ZM178.801 325H186.847V291.864C186.847 284.773 192.438 279.591 200.074 279.591C202.222 279.591 204.438 280 204.983 280.136V271.955C204.062 271.886 201.949 271.818 200.756 271.818C194.483 271.818 189.028 275.364 187.119 280.545H186.574V272.636H178.801V325ZM242.611 325H251.065V297.727H266.338C266.952 297.727 267.531 297.727 268.111 297.693L282.838 325H292.656L276.872 296.159C285.77 293.125 289.929 285.864 289.929 276.591C289.929 264.25 282.565 255.182 266.202 255.182H242.611V325ZM251.065 290.091V262.682H265.929C277.247 262.682 281.611 268.205 281.611 276.591C281.611 284.977 277.247 290.091 266.065 290.091H251.065ZM324.318 326.091C334.955 326.091 342.727 320.773 345.182 312.864L337.409 310.682C335.364 316.136 330.625 318.864 324.318 318.864C314.875 318.864 308.364 312.761 307.989 301.545H346V298.136C346 278.636 334.409 271.955 323.5 271.955C309.318 271.955 299.909 283.136 299.909 299.227C299.909 315.318 309.182 326.091 324.318 326.091ZM307.989 294.591C308.534 286.443 314.295 279.182 323.5 279.182C332.227 279.182 337.818 285.727 337.818 294.591H307.989ZM379.375 345.727C391.92 345.727 402.011 340 402.011 326.5V272.636H394.239V280.955H393.42C391.648 278.227 388.375 271.955 378.148 271.955C364.92 271.955 355.784 282.455 355.784 298.545C355.784 314.909 365.33 324.182 378.011 324.182C388.239 324.182 391.511 318.182 393.284 315.318H393.966V325.955C393.966 334.682 387.83 338.636 379.375 338.636C369.864 338.636 366.523 333.625 364.375 330.727L357.966 335.227C361.239 340.716 367.682 345.727 379.375 345.727ZM379.102 316.955C369.011 316.955 363.83 309.318 363.83 298.409C363.83 287.773 368.875 279.182 379.102 279.182C388.92 279.182 394.102 287.091 394.102 298.409C394.102 310 388.784 316.955 379.102 316.955ZM449.739 303.591C449.739 313.409 442.239 317.909 436.239 317.909C429.557 317.909 424.784 313 424.784 305.364V272.636H416.739V305.909C416.739 319.273 423.83 325.682 433.648 325.682C441.557 325.682 446.739 321.455 449.193 316.136H449.739V325H457.784V272.636H449.739V303.591ZM480.565 255.182H472.52V325H480.565V255.182ZM510.71 326.227C519.847 326.227 524.619 321.318 526.256 317.909H526.665V325H534.71V290.5C534.71 273.864 522.028 271.955 515.347 271.955C507.438 271.955 498.438 274.682 494.347 284.227L501.983 286.955C503.756 283.136 507.949 279.045 515.619 279.045C523.017 279.045 526.665 282.966 526.665 289.682V289.955C526.665 293.841 522.71 293.5 513.165 294.727C503.449 295.989 492.847 298.136 492.847 310.136C492.847 320.364 500.756 326.227 510.71 326.227ZM511.938 319C505.528 319 500.892 316.136 500.892 310.545C500.892 304.409 506.483 302.5 512.756 301.682C516.165 301.273 525.301 300.318 526.665 298.682V306.045C526.665 312.591 521.483 319 511.938 319ZM549.395 325H557.44V291.864C557.44 284.773 563.031 279.591 570.668 279.591C572.815 279.591 575.031 280 575.577 280.136V271.955C574.656 271.886 572.543 271.818 571.349 271.818C565.077 271.818 559.622 275.364 557.713 280.545H557.168V272.636H549.395V325ZM15.3352 371.182H8.96023V441H15.3352V371.182ZM38.7045 408.273C38.7045 399.136 44.7045 393.511 52.9545 393.511C61 393.511 66.1818 398.898 66.1818 407.455V441H72.25V407.08C72.25 394.67 65.0568 387.955 54.4886 387.955C46.8182 387.955 41.5341 391.5 39.0795 396.852H38.5341V388.636H32.6364V441H38.7045V408.273ZM108.855 388.636H97.7756V376.091H91.6733V388.636H83.8665V393.92H91.6733V428.761C91.6733 437.318 98.4233 441.784 105.139 441.784C107.662 441.784 109.366 441.307 110.526 440.864L109.23 435.375C108.378 435.614 107.287 435.852 105.685 435.852C101.56 435.852 97.7756 433.909 97.7756 427.33V393.92H108.855V388.636ZM143.244 442.091C153.744 442.091 160.801 436.398 163.188 429.818L157.426 427.943C155.415 432.648 150.676 436.534 143.244 436.534C132.54 436.534 125.756 428.727 125.483 416.625H164.483V413.625C164.483 396.136 153.676 387.92 142.324 387.92C128.756 387.92 119.381 399.273 119.381 415.125C119.381 431.011 128.585 442.091 143.244 442.091ZM125.517 411.273C126.165 401.523 132.744 393.443 142.324 393.443C151.699 393.443 158.278 401.182 158.278 411.273H125.517ZM177.855 441H183.923V407.182C183.923 399.409 189.889 393.784 198.071 393.784C199.673 393.784 201.173 394.057 201.719 394.125V387.955C200.901 387.92 199.503 387.852 198.514 387.852C191.935 387.852 186.31 391.398 184.196 396.682H183.753V388.636H177.855V441ZM240.335 441H279.983V435.273H246.71V371.182H240.335V441ZM293.142 441H299.244V388.636H293.142V441ZM296.244 379.636C298.733 379.636 300.812 377.659 300.812 375.273C300.812 372.886 298.733 370.909 296.244 370.909C293.756 370.909 291.71 372.886 291.71 375.273C291.71 377.659 293.756 379.636 296.244 379.636ZM335.27 461.727C347.679 461.727 356.884 455.659 356.884 442.364V388.636H350.952V398.625H350.338C348.19 393.92 343.861 387.92 334.247 387.92C321.293 387.92 312.599 398.761 312.599 414.682C312.599 430.739 321.599 440.455 334.145 440.455C343.554 440.455 348.156 435 350.236 430.193H350.781V441.989C350.781 451.739 344.543 456.273 335.27 456.273C326.304 456.273 322.009 451.943 319.793 447.955L314.815 451.227C317.884 457.227 324.565 461.727 335.27 461.727ZM334.861 434.898C324.463 434.898 318.702 426.58 318.702 414.58C318.702 402.784 324.361 393.443 334.861 393.443C345.122 393.443 350.884 402.307 350.884 414.58C350.884 427.227 344.952 434.898 334.861 434.898ZM379.017 408.273C379.017 399.136 385.153 393.511 393.54 393.511C401.653 393.511 406.835 398.83 406.835 407.455V441H412.938V407.08C412.938 394.602 405.71 387.955 395.074 387.955C387.165 387.955 382.017 391.432 379.562 396.852H379.017V371.182H372.949V441H379.017V408.273ZM449.543 388.636H438.463V376.091H432.361V388.636H424.554V393.92H432.361V428.761C432.361 437.318 439.111 441.784 445.827 441.784C448.349 441.784 450.054 441.307 451.213 440.864L449.918 435.375C449.065 435.614 447.974 435.852 446.372 435.852C442.247 435.852 438.463 433.909 438.463 427.33V393.92H449.543V388.636Z" fill="black"/>
</g>
<defs>
<clipPath id="clip0">
<rect width="675" height="464" fill="white"/>
</clipPath>
</defs>
</svg>
