<svg width="450" height="308" fill="none" xmlns="http://www.w3.org/2000/svg"><g clip-path="url(#a)"><path d="M13.574 15.454H3.733V62h9.84V15.454ZM31.17 41.819c.022-4.5 2.704-7.136 6.613-7.136 3.886 0 6.227 2.545 6.205 6.818V62h9.681V39.773c0-8.137-4.772-13.137-12.045-13.137-5.182 0-8.932 2.546-10.5 6.614h-.41v-6.16H21.49V62h9.681V41.818Zm48.698-14.727H73.3v-8.364h-9.68v8.364h-4.772v7.273h4.772v18.181c-.045 6.841 4.614 10.228 11.637 9.932 2.5-.09 4.272-.59 5.25-.909l-1.523-7.204c-.477.09-1.5.318-2.41.318-1.931 0-3.272-.727-3.272-3.41V34.365h6.568V27.09Zm21.841 35.59c8.637 0 14.455-4.204 15.818-10.681l-8.954-.59c-.977 2.658-3.477 4.045-6.705 4.045-4.84 0-7.909-3.205-7.909-8.41v-.022h23.773v-2.66c0-11.863-7.182-17.727-16.409-17.727-10.273 0-16.932 7.296-16.932 18.069 0 11.068 6.568 17.977 17.318 17.977Zm-7.75-21.658c.205-3.978 3.228-7.16 7.523-7.16 4.205 0 7.114 3 7.136 7.16H93.96ZM124.051 62h9.682V42.25c0-4.295 3.136-7.25 7.409-7.25 1.341 0 3.182.227 4.091.523v-8.591c-.864-.205-2.068-.341-3.045-.341-3.91 0-7.114 2.273-8.387 6.59h-.363v-6.09h-9.387V62Zm41.182 0h19.886c10.455 0 16.023-5.455 16.023-12.864 0-6.886-4.932-11.045-10.227-11.295v-.455c4.841-1.09 8.409-4.522 8.409-10 0-6.977-5.182-11.931-15.455-11.931h-18.636V62Zm9.841-8.045V41.59h8.25c4.727 0 7.659 2.727 7.659 6.568 0 3.5-2.386 5.796-7.886 5.796h-8.023Zm0-19.023V23.409h7.477c4.364 0 6.841 2.25 6.841 5.614 0 3.682-3 5.909-7.023 5.909h-7.295Zm48.062 27.75c10.591 0 17.182-7.25 17.182-18 0-10.818-6.591-18.046-17.182-18.046-10.591 0-17.181 7.228-17.181 18.046 0 10.75 6.59 18 17.181 18Zm.046-7.5c-4.887 0-7.387-4.477-7.387-10.568 0-6.091 2.5-10.591 7.387-10.591 4.795 0 7.295 4.5 7.295 10.59 0 6.092-2.5 10.569-7.295 10.569Zm33.113-39.727h-9.681V62h9.681V15.454Zm20.62 47.113c5.636 0 8.568-3.25 9.909-6.159h.409V62h9.545V15.454h-9.659v17.5h-.295c-1.296-2.84-4.091-6.318-9.932-6.318-7.659 0-14.136 5.955-14.136 17.955 0 11.682 6.204 17.977 14.159 17.977Zm3.068-7.704c-4.75 0-7.341-4.228-7.341-10.319 0-6.045 2.546-10.204 7.341-10.204 4.705 0 7.341 3.977 7.341 10.204 0 6.228-2.682 10.319-7.341 10.319ZM12.71 92.454H4.278V139h8.432V92.454Zm16.994 26.091c0-5.045 3.046-7.954 7.387-7.954 4.25 0 6.795 2.795 6.795 7.454V139h8.228v-22.227c.022-8.364-4.75-13.137-11.955-13.137-5.227 0-8.818 2.5-10.409 6.387h-.41v-5.932h-7.863V139h8.227v-20.455Zm48.205-14.454h-6.886v-8.364h-8.227v8.364H57.84v6.364h4.954v19.409c-.045 6.568 4.728 9.795 10.91 9.613 2.34-.068 3.954-.522 4.84-.818l-1.386-6.432c-.455.114-1.386.318-2.409.318-2.068 0-3.727-.727-3.727-4.045v-18.045h6.886v-6.364Zm21.96 35.591c8.137 0 13.728-3.977 15.182-10.046l-7.682-.863c-1.113 2.954-3.841 4.5-7.386 4.5-5.318 0-8.841-3.5-8.91-9.478h24.319v-2.522c0-12.25-7.364-17.637-15.954-17.637-10 0-16.523 7.341-16.523 18.114 0 10.955 6.432 17.932 16.954 17.932Zm-8.772-21.432c.25-4.455 3.545-8.205 8.454-8.205 4.727 0 7.909 3.455 7.955 8.205h-16.41ZM122.352 139h8.228v-20.523c0-4.432 3.34-7.568 7.863-7.568 1.387 0 3.114.25 3.818.477v-7.568c-.75-.136-2.045-.227-2.954-.227-4 0-7.341 2.273-8.614 6.318h-.363v-5.818h-7.978V139Zm66.909-33.75h8.114c-.159-7.864-6.864-13.432-16.773-13.432-9.772 0-17.113 5.5-17.091 13.727 0 6.682 4.75 10.523 12.409 12.5l5.296 1.364c5.023 1.273 8.341 2.841 8.364 6.455-.023 3.977-3.796 6.636-9.296 6.636-5.273 0-9.364-2.364-9.704-7.25h-8.296c.341 9.25 7.227 14.455 18.068 14.455 11.159 0 17.637-5.569 17.659-13.773-.022-8.068-6.681-11.75-13.681-13.409l-4.364-1.091c-3.818-.909-7.955-2.523-7.909-6.409.023-3.5 3.159-6.069 8.432-6.069 5.022 0 8.341 2.341 8.772 6.296Zm31.358 34.432c8.137 0 13.728-3.977 15.182-10.046l-7.682-.863c-1.113 2.954-3.841 4.5-7.386 4.5-5.318 0-8.841-3.5-8.909-9.478h24.318v-2.522c0-12.25-7.364-17.637-15.954-17.637-10 0-16.523 7.341-16.523 18.114 0 10.955 6.432 17.932 16.954 17.932Zm-8.772-21.432c.25-4.455 3.545-8.205 8.454-8.205 4.727 0 7.909 3.455 7.955 8.205h-16.409ZM243.102 139h8.228v-21.227c0-4.296 2.863-7.205 6.409-7.205 3.477 0 5.863 2.341 5.863 5.932V139h8.068v-21.773c0-3.932 2.341-6.659 6.319-6.659 3.318 0 5.954 1.955 5.954 6.273V139h8.25v-23.432c0-7.795-4.5-11.932-10.909-11.932-5.068 0-8.932 2.5-10.477 6.387h-.364c-1.341-3.955-4.727-6.387-9.432-6.387-4.681 0-8.181 2.409-9.636 6.387h-.409v-5.932h-7.864V139Zm57.438 0h8.227v-34.909h-8.227V139Zm4.136-39.864c2.614 0 4.75-2 4.75-4.454 0-2.478-2.136-4.478-4.75-4.478-2.636 0-4.773 2-4.773 4.478 0 2.454 2.137 4.454 4.773 4.454ZM317.591 139h8.091v-5.5h.477c1.296 2.545 4 6.114 10 6.114 8.227 0 14.386-6.523 14.386-18.023 0-11.636-6.34-17.955-14.409-17.955-6.159 0-8.727 3.705-9.977 6.228h-.341v-17.41h-8.227V139Zm8.068-17.455c0-6.772 2.909-11.159 8.205-11.159 5.477 0 8.295 4.659 8.295 11.159 0 6.546-2.864 11.319-8.295 11.319-5.25 0-8.205-4.546-8.205-11.319Zm47.108 18.137c10.227 0 16.727-7.205 16.727-18 0-10.818-6.5-18.046-16.727-18.046s-16.727 7.228-16.727 18.046c0 10.795 6.5 18 16.727 18Zm.045-6.591c-5.659 0-8.431-5.046-8.431-11.432s2.772-11.5 8.431-11.5c5.569 0 8.341 5.114 8.341 11.5s-2.772 11.432-8.341 11.432Zm31.893-40.637h-8.228V139h8.228V92.454Zm21.414 47.16c6 0 8.705-3.569 10-6.114h.5v5.5h8.091V92.454h-8.25v17.41h-.341c-1.25-2.523-3.818-6.228-9.977-6.228-8.068 0-14.409 6.319-14.409 17.955 0 11.5 6.159 18.023 14.386 18.023Zm2.296-6.75c-5.432 0-8.296-4.773-8.296-11.319 0-6.5 2.819-11.159 8.296-11.159 5.295 0 8.204 4.387 8.204 11.159 0 6.773-2.954 11.319-8.204 11.319ZM10.96 169.455H5.324V216h5.636v-46.545ZM26.898 195c0-6.091 3.773-9.545 8.909-9.545 4.977 0 8 3.25 8 8.727V216h5.363v-22.182c0-8.909-4.75-13.182-11.818-13.182-5.272 0-8.545 2.364-10.181 5.909h-.455v-5.454h-5.182V216h5.364v-21Zm47.255-13.909H66.7v-8.364h-5.364v8.364h-5.273v4.545h5.273v21.819c0 6.09 4.91 9 9.455 9 2 0 3.272-.364 4-.637L73.699 211c-.455.091-1.182.273-2.364.273-2.363 0-4.636-.728-4.636-5.273v-20.364h7.454v-4.545Zm22.33 35.636c7.091 0 12.273-3.545 13.909-8.818l-5.182-1.454c-1.363 3.636-4.522 5.454-8.727 5.454-6.296 0-10.636-4.068-10.886-11.545h25.341v-2.273c0-13-7.728-17.455-15-17.455-9.455 0-15.728 7.455-15.728 18.182 0 10.727 6.182 17.909 16.273 17.909Zm-10.886-21c.363-5.432 4.204-10.272 10.34-10.272 5.819 0 9.546 4.363 9.546 10.272H85.597Zm33.5 20.273h5.363v-22.091c0-4.727 3.728-8.182 8.818-8.182 1.432 0 2.91.273 3.273.364v-5.455a51.999 51.999 0 0 0-2.818-.091c-4.182 0-7.818 2.364-9.091 5.819h-.364v-5.273h-5.181V216Zm42.539 0h5.637v-18.182h10.182c.409 0 .795 0 1.181-.023L188.455 216H195l-10.523-19.227c5.932-2.023 8.705-6.864 8.705-13.046 0-8.227-4.909-14.272-15.818-14.272h-15.728V216Zm5.637-23.273v-18.272h9.909c7.545 0 10.454 3.681 10.454 9.272s-2.909 9-10.363 9h-10Zm48.835 24c7.091 0 12.273-3.545 13.909-8.818l-5.182-1.454c-1.363 3.636-4.523 5.454-8.727 5.454-6.296 0-10.636-4.068-10.886-11.545h25.34v-2.273c0-13-7.727-17.455-15-17.455-9.454 0-15.727 7.455-15.727 18.182 0 10.727 6.182 17.909 16.273 17.909Zm-10.886-21c.363-5.432 4.204-10.272 10.34-10.272 5.819 0 9.546 4.363 9.546 10.272h-19.886Zm47.59 34.091c8.364 0 15.091-3.818 15.091-12.818v-35.909h-5.181v5.545h-.546c-1.182-1.818-3.364-6-10.182-6-8.818 0-14.909 7-14.909 17.728 0 10.909 6.364 17.091 14.818 17.091 6.819 0 9-4 10.182-5.91h.455v7.091c0 5.819-4.091 8.455-9.728 8.455-6.34 0-8.568-3.341-10-5.273l-4.272 3c2.182 3.659 6.477 7 14.272 7Zm-.181-19.182c-6.728 0-10.182-5.091-10.182-12.363 0-7.091 3.363-12.818 10.182-12.818 6.545 0 10 5.272 10 12.818 0 7.727-3.546 12.363-10 12.363Zm47.091-8.909c0 6.546-5 9.546-9 9.546-4.455 0-7.637-3.273-7.637-8.364v-21.818h-5.363v22.182c0 8.909 4.727 13.182 11.272 13.182 5.273 0 8.728-2.819 10.364-6.364h.364V216h5.363v-34.909h-5.363v20.636Zm20.551-32.272h-5.364V216h5.364v-46.545Zm20.096 47.363c6.091 0 9.273-3.273 10.364-5.545h.273V216h5.363v-23c0-11.091-8.454-12.364-12.909-12.364-5.272 0-11.272 1.819-14 8.182l5.091 1.818c1.182-2.545 3.977-5.272 9.091-5.272 4.932 0 7.364 2.613 7.364 7.091v.181c0 2.591-2.637 2.364-9 3.182-6.478.841-13.546 2.273-13.546 10.273 0 6.818 5.273 10.727 11.909 10.727Zm.819-4.818c-4.273 0-7.364-1.909-7.364-5.636 0-4.091 3.727-5.364 7.909-5.909 2.273-.273 8.364-.91 9.273-2v4.909c0 4.363-3.455 8.636-9.818 8.636Zm24.971 4h5.364v-22.091c0-4.727 3.727-8.182 8.818-8.182 1.432 0 2.909.273 3.273.364v-5.455a52.038 52.038 0 0 0-2.819-.091c-4.181 0-7.818 2.364-9.09 5.819h-.364v-5.273h-5.182V216Zm-356.04 30.455H5.87V293h4.25v-46.545Zm15.58 24.727c0-6.091 4-9.841 9.5-9.841 5.364 0 8.818 3.591 8.818 9.295V293h4.045v-22.614c0-8.272-4.795-12.75-11.84-12.75-5.114 0-8.637 2.364-10.273 5.932h-.364v-5.477h-3.932V293H25.7v-21.818Zm46.767-13.091H65.08v-8.364h-4.07v8.364h-5.204v3.523h5.204v23.227c0 5.704 4.5 8.682 8.978 8.682 1.681 0 2.818-.318 3.59-.614l-.863-3.659a8.31 8.31 0 0 1-2.364.318c-2.75 0-5.273-1.295-5.273-5.682v-22.272h7.387v-3.523Zm22.926 35.636c7 0 11.705-3.795 13.296-8.182l-3.841-1.25c-1.341 3.137-4.5 5.728-9.455 5.728-7.136 0-11.659-5.205-11.84-13.273h25.999v-2c0-11.659-7.204-17.136-14.773-17.136-9.045 0-15.295 7.568-15.295 18.136 0 10.591 6.136 17.977 15.909 17.977Zm-11.818-20.545c.432-6.5 4.818-11.887 11.204-11.887 6.25 0 10.637 5.16 10.637 11.887H83.574ZM118.466 293h4.045v-22.545c0-5.182 3.978-8.932 9.432-8.932 1.068 0 2.068.182 2.432.227v-4.114c-.545-.022-1.477-.068-2.136-.068-4.387 0-8.137 2.364-9.546 5.887h-.295v-5.364h-3.932V293Zm41.653 0h26.432v-3.818h-22.182v-42.727h-4.25V293Zm35.205 0h4.068v-34.909h-4.068V293Zm2.068-40.909c1.659 0 3.046-1.318 3.046-2.909 0-1.591-1.387-2.909-3.046-2.909-1.659 0-3.023 1.318-3.023 2.909 0 1.591 1.364 2.909 3.023 2.909Zm26.017 54.727c8.273 0 14.409-4.045 14.409-12.909v-35.818h-3.954v6.659h-.409c-1.432-3.136-4.319-7.136-10.728-7.136-8.636 0-14.432 7.227-14.432 17.841 0 10.704 6 17.181 14.364 17.181 6.273 0 9.341-3.636 10.727-6.841h.364v7.864c0 6.5-4.159 9.523-10.341 9.523-5.977 0-8.841-2.887-10.318-5.546l-3.318 2.182c2.045 4 6.5 7 13.636 7Zm-.273-17.886c-6.931 0-10.772-5.546-10.772-13.546 0-7.863 3.772-14.091 10.772-14.091 6.841 0 10.682 5.91 10.682 14.091 0 8.432-3.954 13.546-10.682 13.546Zm29.438-17.75c0-6.091 4.091-9.841 9.682-9.841 5.409 0 8.863 3.545 8.863 9.295V293h4.069v-22.614c0-8.318-4.819-12.75-11.91-12.75-5.272 0-8.704 2.319-10.34 5.932h-.364v-17.113h-4.046V293h4.046v-21.818Zm47.017-13.091h-7.386v-8.364h-4.069v8.364h-5.204v3.523h5.204v23.227c0 5.704 4.5 8.682 8.978 8.682 1.681 0 2.818-.318 3.591-.614l-.864-3.659a8.313 8.313 0 0 1-2.364.318c-2.75 0-5.272-1.295-5.272-5.682v-22.272h7.386v-3.523Z" fill="#282828"/></g><defs><clipPath id="a"><path fill="#fff" d="M0 0h450v308H0z"/></clipPath></defs></svg>