<svg width="854" height="524" viewBox="0 0 854 524" fill="none" xmlns="http://www.w3.org/2000/svg">
<g clip-path="url(#clip0)">
<rect width="854" height="524" fill="white"/>
<path d="M6.4075 102H17.2555V57.696L38.4235 102H43.0315L64.2475 57.696V102H75.0475V32.88H64.6315L40.7275 81.84L16.8235 32.88H6.4075V102ZM103.029 103.44C107.157 103.44 110.661 102.768 113.541 101.424C116.453 100.048 119.013 97.92 121.221 95.04V102H131.349V70.176C131.349 67.936 131.253 65.872 131.061 63.984C130.869 62.064 130.309 60.192 129.381 58.368C127.685 54.944 125.077 52.48 121.557 50.976C118.069 49.472 114.021 48.72 109.413 48.72C103.333 48.72 98.4845 50.048 94.8685 52.704C91.2525 55.36 88.8045 58.88 87.5245 63.264L98.0845 66.576C98.9485 63.92 100.469 62.048 102.645 60.96C104.821 59.872 107.077 59.328 109.413 59.328C112.933 59.328 115.525 60.048 117.189 61.488C118.853 62.896 119.797 65.088 120.021 68.064C115.477 68.736 111.253 69.392 107.349 70.032C103.477 70.64 100.181 71.392 97.4605 72.288C93.3645 73.696 90.3725 75.696 88.4845 78.288C86.5965 80.848 85.6525 84.016 85.6525 87.792C85.6525 90.64 86.3085 93.248 87.6205 95.616C88.9645 97.984 90.9325 99.888 93.5245 101.328C96.1165 102.736 99.2845 103.44 103.029 103.44ZM105.333 94.224C102.613 94.224 100.533 93.6 99.0925 92.352C97.6845 91.104 96.9805 89.536 96.9805 87.648C96.9805 85.952 97.5245 84.576 98.6125 83.52C99.7325 82.464 101.285 81.568 103.269 80.832C105.093 80.224 107.285 79.696 109.845 79.248C112.405 78.768 115.749 78.208 119.877 77.568C119.845 78.784 119.765 80.144 119.637 81.648C119.509 83.12 119.205 84.448 118.725 85.632C118.341 86.816 117.589 88.08 116.469 89.424C115.381 90.768 113.909 91.904 112.053 92.832C110.197 93.76 107.957 94.224 105.333 94.224ZM143.749 102H155.461V75.36C155.461 71.168 156.053 67.936 157.237 65.664C158.453 63.36 159.989 61.776 161.845 60.912C163.733 60.016 165.653 59.568 167.605 59.568C170.357 59.568 172.549 60.176 174.181 61.392C175.813 62.576 177.013 64.096 177.781 65.952C178.581 67.776 179.093 69.68 179.317 71.664C179.573 73.648 179.701 75.44 179.701 77.04V102H191.413V73.056C191.413 71.84 191.301 70.224 191.077 68.208C190.885 66.192 190.437 64.064 189.733 61.824C189.029 59.584 187.941 57.472 186.469 55.488C184.997 53.472 182.997 51.84 180.469 50.592C177.973 49.312 174.821 48.672 171.013 48.672C167.269 48.672 163.973 49.328 161.125 50.64C158.309 51.92 155.957 53.68 154.069 55.92V50.16H143.749V102ZM203.939 102H215.555V75.648C215.555 72.64 216.099 69.968 217.187 67.632C218.307 65.296 220.051 63.488 222.419 62.208C224.019 61.28 225.811 60.736 227.795 60.576C229.779 60.384 231.555 60.512 233.123 60.96V50.16C230.787 49.808 228.387 49.856 225.923 50.304C223.459 50.72 221.267 51.584 219.347 52.896C218.259 53.568 217.283 54.384 216.419 55.344C215.555 56.272 214.803 57.312 214.163 58.464V50.16H203.939V102ZM264.241 103.44C269.425 103.44 273.953 102.288 277.825 99.984C281.697 97.648 284.705 94.432 286.849 90.336C289.025 86.208 290.113 81.456 290.113 76.08C290.113 70.736 289.041 66.016 286.897 61.92C284.753 57.792 281.745 54.56 277.873 52.224C274.001 49.888 269.457 48.72 264.241 48.72C259.153 48.72 254.673 49.872 250.801 52.176C246.929 54.48 243.905 57.68 241.729 61.776C239.553 65.872 238.465 70.64 238.465 76.08C238.465 81.424 239.521 86.16 241.633 90.288C243.777 94.384 246.785 97.6 250.657 99.936C254.529 102.272 259.057 103.44 264.241 103.44ZM264.241 92.592C259.793 92.592 256.417 91.104 254.113 88.128C251.841 85.12 250.705 81.104 250.705 76.08C250.705 71.184 251.793 67.216 253.969 64.176C256.177 61.104 259.601 59.568 264.241 59.568C268.785 59.568 272.193 61.072 274.465 64.08C276.737 67.056 277.873 71.056 277.873 76.08C277.873 80.944 276.737 84.912 274.465 87.984C272.225 91.056 268.817 92.592 264.241 92.592ZM300.593 125.04H312.257V99.36C314.017 100.64 316.001 101.632 318.209 102.336C320.449 103.072 322.913 103.44 325.601 103.44C330.401 103.44 334.561 102.24 338.081 99.84C341.633 97.44 344.385 94.176 346.337 90.048C348.289 85.92 349.265 81.264 349.265 76.08C349.265 70.832 348.273 66.144 346.289 62.016C344.337 57.888 341.553 54.64 337.937 52.272C334.321 49.904 330.065 48.72 325.169 48.72C322.225 48.72 319.553 49.168 317.153 50.064C314.753 50.96 312.641 52.24 310.817 53.904V50.16H300.593V125.04ZM323.825 93.072C319.185 93.072 315.857 91.504 313.841 88.368C311.825 85.2 310.817 81.104 310.817 76.08C310.817 71.024 311.809 66.928 313.793 63.792C315.809 60.656 319.025 59.088 323.441 59.088C326.545 59.088 329.089 59.856 331.073 61.392C333.089 62.896 334.577 64.944 335.537 67.536C336.529 70.096 337.025 72.944 337.025 76.08C337.025 79.248 336.545 82.112 335.585 84.672C334.657 87.232 333.217 89.28 331.265 90.816C329.313 92.32 326.833 93.072 323.825 93.072ZM383.413 103.44C388.405 103.44 392.965 102.16 397.093 99.6C401.253 97.008 404.325 93.36 406.309 88.656L394.885 85.2C392.581 90.128 388.533 92.592 382.741 92.592C378.805 92.592 375.701 91.456 373.429 89.184C371.157 86.88 369.797 83.584 369.349 79.296H406.885C407.333 73.056 406.645 67.648 404.821 63.072C402.997 58.496 400.197 54.96 396.421 52.464C392.677 49.968 388.117 48.72 382.741 48.72C377.653 48.72 373.173 49.872 369.301 52.176C365.429 54.448 362.405 57.68 360.229 61.872C358.053 66.064 356.965 70.992 356.965 76.656C356.965 81.904 358.069 86.544 360.277 90.576C362.517 94.608 365.621 97.76 369.589 100.032C373.557 102.304 378.165 103.44 383.413 103.44ZM383.221 58.848C386.805 58.848 389.557 59.792 391.477 61.68C393.429 63.536 394.661 66.496 395.173 70.56H369.637C371.013 62.752 375.541 58.848 383.221 58.848ZM436.814 102H467.006C473.822 102 478.99 100.112 482.51 96.336C486.03 92.56 487.79 87.6 487.79 81.456C487.79 77.968 486.926 74.8 485.198 71.952C483.502 69.104 480.99 66.976 477.662 65.568C479.806 64.288 481.486 62.48 482.702 60.144C483.95 57.776 484.574 55.024 484.574 51.888C484.574 48.784 483.838 45.776 482.366 42.864C480.926 39.952 478.702 37.568 475.694 35.712C472.718 33.824 468.894 32.88 464.222 32.88H436.814V102ZM448.526 60.48V43.68H464.078C466.83 43.68 468.974 44.48 470.51 46.08C472.046 47.68 472.814 49.68 472.814 52.08C472.814 54.832 471.966 56.928 470.27 58.368C468.606 59.776 466.542 60.48 464.078 60.48H448.526ZM448.526 91.104V71.28H465.902C469.134 71.28 471.646 72.224 473.438 74.112C475.23 76 476.126 78.336 476.126 81.12C476.126 84.192 475.118 86.624 473.102 88.416C471.118 90.208 468.606 91.104 465.566 91.104H448.526ZM520.272 103.44C525.456 103.44 529.984 102.288 533.856 99.984C537.728 97.648 540.736 94.432 542.88 90.336C545.056 86.208 546.144 81.456 546.144 76.08C546.144 70.736 545.072 66.016 542.928 61.92C540.784 57.792 537.776 54.56 533.904 52.224C530.032 49.888 525.488 48.72 520.272 48.72C515.184 48.72 510.704 49.872 506.832 52.176C502.96 54.48 499.936 57.68 497.76 61.776C495.584 65.872 494.496 70.64 494.496 76.08C494.496 81.424 495.552 86.16 497.664 90.288C499.808 94.384 502.816 97.6 506.688 99.936C510.56 102.272 515.088 103.44 520.272 103.44ZM520.272 92.592C515.824 92.592 512.448 91.104 510.144 88.128C507.872 85.12 506.736 81.104 506.736 76.08C506.736 71.184 507.824 67.216 510 64.176C512.208 61.104 515.632 59.568 520.272 59.568C524.816 59.568 528.224 61.072 530.496 64.08C532.768 67.056 533.904 71.056 533.904 76.08C533.904 80.944 532.768 84.912 530.496 87.984C528.256 91.056 524.848 92.592 520.272 92.592ZM557.68 102H569.248V31.44H557.68V102ZM604.41 103.44C607.482 103.44 610.25 102.976 612.714 102.048C615.178 101.12 617.338 99.824 619.194 98.16V102H629.418V32.88H617.754V52.704C616.026 51.424 614.09 50.448 611.946 49.776C609.802 49.072 607.434 48.72 604.842 48.72C599.946 48.72 595.69 49.904 592.074 52.272C588.49 54.64 585.706 57.888 583.722 62.016C581.738 66.144 580.746 70.832 580.746 76.08C580.746 81.264 581.722 85.92 583.674 90.048C585.626 94.176 588.378 97.44 591.93 99.84C595.482 102.24 599.642 103.44 604.41 103.44ZM606.186 93.072C603.178 93.072 600.698 92.32 598.746 90.816C596.794 89.28 595.338 87.232 594.378 84.672C593.45 82.112 592.986 79.248 592.986 76.08C592.986 72.944 593.466 70.096 594.426 67.536C595.418 64.944 596.906 62.896 598.89 61.392C600.906 59.856 603.466 59.088 606.57 59.088C610.986 59.088 614.186 60.656 616.17 63.792C618.186 66.928 619.194 71.024 619.194 76.08C619.194 81.104 618.186 85.2 616.17 88.368C614.186 91.504 610.858 93.072 606.186 93.072ZM6.4075 233H15.8635V185.672L38.2315 233H42.7915L65.1115 185.672V232.952H74.6155V163.88H65.4475L40.5355 215.864L15.4795 163.88H6.4075V233ZM102.704 234.44C110.96 234.44 117.184 231.448 121.376 225.464V233H130.256V201.08C130.256 198.904 130.16 196.872 129.968 194.984C129.776 193.096 129.264 191.304 128.432 189.608C126.832 186.184 124.304 183.688 120.848 182.12C117.424 180.52 113.392 179.72 108.752 179.72C102.768 179.72 97.9678 181.032 94.3518 183.656C90.7358 186.28 88.3038 189.816 87.0558 194.264L96.4158 197.144C97.3118 194.264 98.8958 192.184 101.168 190.904C103.44 189.624 105.936 188.984 108.656 188.984C112.688 188.984 115.6 189.848 117.392 191.576C119.216 193.272 120.208 195.912 120.368 199.496C116.144 200.072 112.016 200.68 107.984 201.32C103.952 201.928 100.432 202.664 97.4238 203.528C93.4238 204.808 90.3838 206.712 88.3038 209.24C86.2238 211.768 85.1838 214.984 85.1838 218.888C85.1838 221.704 85.8398 224.296 87.1518 226.664C88.4958 229 90.4638 230.888 93.0558 232.328C95.6798 233.736 98.8958 234.44 102.704 234.44ZM104.48 226.232C101.28 226.232 98.9118 225.496 97.3758 224.024C95.8718 222.552 95.1198 220.808 95.1198 218.792C95.1198 216.744 95.7918 215.128 97.1358 213.944C98.5118 212.76 100.224 211.816 102.272 211.112C104.448 210.472 107.008 209.912 109.952 209.432C112.928 208.952 116.368 208.424 120.272 207.848C120.24 209.064 120.16 210.424 120.032 211.928C119.904 213.432 119.632 214.776 119.216 215.96C118.832 217.656 118.016 219.288 116.768 220.856C115.552 222.424 113.904 223.72 111.824 224.744C109.776 225.736 107.328 226.232 104.48 226.232ZM142.672 233H152.848V206.024C152.848 201.928 153.44 198.664 154.624 196.232C155.84 193.768 157.44 191.992 159.424 190.904C161.408 189.816 163.6 189.272 166 189.272C168.752 189.272 170.992 189.832 172.72 190.952C174.448 192.072 175.776 193.544 176.704 195.368C177.632 197.192 178.256 199.176 178.576 201.32C178.928 203.432 179.104 205.496 179.104 207.512V233H189.28V204.2C189.28 202.6 189.136 200.744 188.848 198.632C188.56 196.52 188.016 194.36 187.216 192.152C186.416 189.944 185.248 187.912 183.712 186.056C182.208 184.168 180.24 182.648 177.808 181.496C175.376 180.344 172.368 179.768 168.784 179.768C165.04 179.768 161.712 180.44 158.8 181.784C155.92 183.128 153.536 184.984 151.648 187.352V181.16H142.672V233ZM201.783 233H211.911V206.84C211.911 203.8 212.391 200.984 213.351 198.392C214.311 195.8 216.007 193.72 218.439 192.152C220.167 191.032 222.071 190.376 224.151 190.184C226.231 189.992 228.103 190.12 229.767 190.568V181.16C227.431 180.712 224.951 180.728 222.327 181.208C219.735 181.688 217.463 182.648 215.511 184.088C213.591 185.368 211.991 187.144 210.711 189.416V181.16H201.783V233ZM260.482 234.44C265.634 234.44 270.114 233.288 273.922 230.984C277.73 228.648 280.674 225.432 282.754 221.336C284.866 217.208 285.922 212.44 285.922 207.032C285.922 201.688 284.882 196.968 282.802 192.872C280.722 188.744 277.778 185.528 273.97 183.224C270.162 180.888 265.666 179.72 260.482 179.72C255.394 179.72 250.946 180.872 247.138 183.176C243.33 185.48 240.37 188.68 238.258 192.776C236.146 196.872 235.09 201.624 235.09 207.032C235.09 212.376 236.13 217.112 238.21 221.24C240.29 225.368 243.218 228.6 246.994 230.936C250.802 233.272 255.298 234.44 260.482 234.44ZM260.482 224.984C255.65 224.984 251.986 223.368 249.49 220.136C246.994 216.872 245.746 212.504 245.746 207.032C245.746 201.752 246.946 197.464 249.346 194.168C251.746 190.84 255.458 189.176 260.482 189.176C265.378 189.176 269.058 190.792 271.522 194.024C274.018 197.256 275.266 201.592 275.266 207.032C275.266 212.344 274.034 216.664 271.57 219.992C269.138 223.32 265.442 224.984 260.482 224.984ZM296.422 256.04H306.502V229.352C308.326 230.984 310.422 232.232 312.79 233.096C315.19 233.992 317.862 234.44 320.806 234.44C325.638 234.44 329.798 233.24 333.286 230.84C336.806 228.408 339.51 225.128 341.398 221C343.318 216.872 344.278 212.216 344.278 207.032C344.278 201.816 343.318 197.16 341.398 193.064C339.478 188.936 336.742 185.688 333.19 183.32C329.67 180.92 325.478 179.72 320.614 179.72C317.414 179.72 314.534 180.264 311.974 181.352C309.414 182.408 307.206 183.896 305.35 185.816V181.16H296.422V256.04ZM319.414 225.368C314.486 225.368 310.902 223.656 308.662 220.232C306.454 216.808 305.35 212.408 305.35 207.032C305.35 201.656 306.454 197.272 308.662 193.88C310.87 190.488 314.342 188.792 319.078 188.792C322.406 188.792 325.142 189.608 327.286 191.24C329.43 192.872 331.014 195.064 332.038 197.816C333.094 200.568 333.622 203.64 333.622 207.032C333.622 210.456 333.11 213.56 332.086 216.344C331.062 219.096 329.494 221.288 327.382 222.92C325.302 224.552 322.646 225.368 319.414 225.368ZM377.868 234.44C382.892 234.44 387.452 233.176 391.548 230.648C395.644 228.088 398.7 224.488 400.716 219.848L390.876 216.728C388.252 222.232 383.756 224.984 377.388 224.984C373.036 224.984 369.612 223.672 367.116 221.048C364.62 218.424 363.164 214.712 362.748 209.912H401.388C401.74 203.704 401.004 198.344 399.18 193.832C397.356 189.32 394.588 185.848 390.876 183.416C387.164 180.952 382.668 179.72 377.388 179.72C372.332 179.72 367.9 180.856 364.092 183.128C360.284 185.4 357.308 188.616 355.164 192.776C353.052 196.936 351.996 201.848 351.996 207.512C351.996 212.856 353.068 217.56 355.212 221.624C357.388 225.656 360.412 228.808 364.284 231.08C368.188 233.32 372.716 234.44 377.868 234.44ZM377.772 188.6C385.612 188.6 390.06 193.096 391.116 202.088H362.988C363.628 197.704 365.18 194.36 367.644 192.056C370.108 189.752 373.484 188.6 377.772 188.6ZM456.432 234.44C461.2 234.44 465.584 233.64 469.584 232.04C473.616 230.44 476.848 228.072 479.28 224.936C481.712 221.8 482.928 217.912 482.928 213.272C482.928 209.912 482.304 207.128 481.056 204.92C479.808 202.68 478.224 200.888 476.304 199.544C474.416 198.2 472.448 197.16 470.4 196.424C468.384 195.656 466.576 195.048 464.976 194.6L452.208 191C450.576 190.552 448.928 189.992 447.264 189.32C445.632 188.616 444.256 187.672 443.136 186.488C442.016 185.304 441.456 183.752 441.456 181.832C441.456 179.848 442.08 178.12 443.328 176.648C444.608 175.144 446.304 173.976 448.416 173.144C450.56 172.312 452.912 171.928 455.472 171.992C459.44 172.024 462.944 173.16 465.984 175.4C469.056 177.608 470.96 180.664 471.696 184.568L482.448 182.744C481.04 176.376 477.968 171.432 473.232 167.912C468.496 164.36 462.624 162.552 455.616 162.488C450.976 162.456 446.784 163.208 443.04 164.744C439.296 166.28 436.32 168.52 434.112 171.464C431.936 174.408 430.848 178.024 430.848 182.312C430.848 186.024 431.632 189.032 433.2 191.336C434.768 193.64 436.72 195.432 439.056 196.712C441.424 197.992 443.76 198.968 446.064 199.64L463.776 204.872C466.336 205.64 468.416 206.728 470.016 208.136C471.648 209.512 472.464 211.448 472.464 213.944C472.464 216.248 471.744 218.232 470.304 219.896C468.896 221.528 467.024 222.792 464.688 223.688C462.352 224.552 459.792 224.984 457.008 224.984C452.528 224.984 448.608 223.816 445.248 221.48C441.888 219.144 439.68 215.848 438.624 211.592L428.16 213.176C428.928 217.56 430.592 221.352 433.152 224.552C435.712 227.72 438.992 230.168 442.992 231.896C446.992 233.592 451.472 234.44 456.432 234.44ZM516.15 234.44C521.174 234.44 525.734 233.176 529.83 230.648C533.926 228.088 536.982 224.488 538.998 219.848L529.158 216.728C526.534 222.232 522.038 224.984 515.67 224.984C511.318 224.984 507.894 223.672 505.398 221.048C502.902 218.424 501.446 214.712 501.03 209.912H539.67C540.022 203.704 539.286 198.344 537.462 193.832C535.638 189.32 532.87 185.848 529.158 183.416C525.446 180.952 520.95 179.72 515.67 179.72C510.614 179.72 506.182 180.856 502.374 183.128C498.566 185.4 495.59 188.616 493.446 192.776C491.334 196.936 490.278 201.848 490.278 207.512C490.278 212.856 491.35 217.56 493.493 221.624C495.67 225.656 498.694 228.808 502.566 231.08C506.47 233.32 510.998 234.44 516.15 234.44ZM516.054 188.6C523.894 188.6 528.342 193.096 529.398 202.088H501.27C501.91 197.704 503.462 194.36 505.926 192.056C508.39 189.752 511.766 188.6 516.054 188.6ZM548.985 233H559.065V200.6C559.065 197.08 560.025 194.232 561.945 192.056C563.897 189.88 566.457 188.792 569.625 188.792C572.825 188.792 575.369 189.88 577.257 192.056C579.177 194.2 580.137 197.144 580.137 200.888L580.089 233H590.121L590.169 200.6C590.169 196.696 591.209 193.752 593.289 191.768C595.401 189.784 597.881 188.792 600.729 188.792C603.865 188.792 606.393 189.848 608.313 191.96C610.233 194.072 611.193 196.984 611.193 200.696L611.145 233H621.177L621.225 198.296C621.225 192.728 619.673 188.264 616.569 184.904C613.497 181.544 609.177 179.864 603.609 179.864C600.217 179.864 597.145 180.616 594.393 182.12C591.641 183.592 589.465 185.64 587.865 188.264C586.489 185.64 584.521 183.592 581.961 182.12C579.433 180.616 576.377 179.864 572.793 179.864C569.689 179.864 566.841 180.488 564.249 181.736C561.689 182.952 559.577 184.616 557.913 186.728V181.16H548.985V233ZM634.649 172.664H644.681V162.92H634.649V172.664ZM634.649 233H644.681V181.16H634.649V233ZM659.047 233H667.975V228.248C669.863 230.2 672.087 231.72 674.647 232.808C677.239 233.896 680.167 234.44 683.431 234.44C688.263 234.44 692.423 233.24 695.911 230.84C699.431 228.408 702.135 225.128 704.023 221C705.943 216.872 706.903 212.216 706.903 207.032C706.903 201.816 705.943 197.16 704.023 193.064C702.103 188.936 699.367 185.688 695.815 183.32C692.295 180.92 688.103 179.72 683.239 179.72C680.359 179.72 677.735 180.152 675.367 181.016C672.999 181.88 670.919 183.112 669.127 184.712V163.88H659.047V233ZM682.039 225.368C677.111 225.368 673.527 223.656 671.287 220.232C669.079 216.808 667.975 212.408 667.975 207.032C667.975 201.656 669.079 197.272 671.287 193.88C673.495 190.488 676.967 188.792 681.703 188.792C685.031 188.792 687.767 189.608 689.911 191.24C692.055 192.872 693.639 195.064 694.663 197.816C695.719 200.568 696.247 203.64 696.247 207.032C696.247 210.456 695.735 213.56 694.711 216.344C693.687 219.096 692.119 221.288 690.007 222.92C687.927 224.552 685.271 225.368 682.039 225.368ZM740.013 234.44C745.165 234.44 749.645 233.288 753.453 230.984C757.261 228.648 760.205 225.432 762.285 221.336C764.397 217.208 765.453 212.44 765.453 207.032C765.453 201.688 764.413 196.968 762.333 192.872C760.253 188.744 757.309 185.528 753.501 183.224C749.693 180.888 745.197 179.72 740.013 179.72C734.925 179.72 730.477 180.872 726.669 183.176C722.861 185.48 719.901 188.68 717.789 192.776C715.677 196.872 714.621 201.624 714.621 207.032C714.621 212.376 715.661 217.112 717.741 221.24C719.821 225.368 722.749 228.6 726.525 230.936C730.333 233.272 734.829 234.44 740.013 234.44ZM740.013 224.984C735.181 224.984 731.517 223.368 729.021 220.136C726.525 216.872 725.277 212.504 725.277 207.032C725.277 201.752 726.477 197.464 728.877 194.168C731.277 190.84 734.989 189.176 740.013 189.176C744.909 189.176 748.589 190.792 751.053 194.024C753.549 197.256 754.797 201.592 754.797 207.032C754.797 212.344 753.565 216.664 751.101 219.992C748.669 223.32 744.973 224.984 740.013 224.984ZM776.961 233H786.993V162.44H776.961V233ZM822 234.44C825.264 234.44 828.176 233.896 830.736 232.808C833.328 231.72 835.568 230.2 837.456 228.248V233H846.384V163.88H836.304V184.712C834.512 183.112 832.432 181.88 830.064 181.016C827.696 180.152 825.072 179.72 822.192 179.72C817.328 179.72 813.12 180.92 809.568 183.32C806.048 185.688 803.328 188.936 801.408 193.064C799.488 197.16 798.528 201.816 798.528 207.032C798.528 212.216 799.472 216.872 801.36 221C803.28 225.128 806 228.408 809.52 230.84C813.04 233.24 817.2 234.44 822 234.44ZM823.392 225.368C820.192 225.368 817.536 224.552 815.424 222.92C813.312 221.288 811.744 219.096 810.72 216.344C809.696 213.56 809.184 210.456 809.184 207.032C809.184 203.64 809.696 200.568 810.72 197.816C811.776 195.064 813.376 192.872 815.52 191.24C817.664 189.608 820.4 188.792 823.728 188.792C828.464 188.792 831.936 190.488 834.144 193.88C836.352 197.272 837.456 201.656 837.456 207.032C837.456 212.408 836.352 216.808 834.144 220.232C831.936 223.656 828.352 225.368 823.392 225.368ZM6.4075 364H13.1755V310.624L37.7515 364H42.3115L66.9355 310.624V363.952H73.6555V294.88H67.0795L40.0555 353.008L12.8875 294.88H6.4075V364ZM101.958 365.44C111.014 365.44 117.59 362.096 121.686 355.408V364H127.974V331.792C127.974 329.872 127.878 327.984 127.686 326.128C127.494 324.272 127.078 322.592 126.438 321.088C125.062 317.728 122.71 315.168 119.382 313.408C116.086 311.616 112.07 310.72 107.334 310.72C101.638 310.72 96.9983 312 93.4143 314.56C89.8303 317.12 87.4303 320.72 86.2143 325.36L93.0782 327.376C94.0703 323.92 95.7823 321.392 98.2143 319.792C100.678 318.192 103.686 317.392 107.238 317.392C112.166 317.392 115.686 318.544 117.798 320.848C119.91 323.12 120.998 326.592 121.062 331.264C118.758 331.584 116.214 331.92 113.43 332.272C110.678 332.624 107.91 333.024 105.126 333.472C102.342 333.92 99.7823 334.432 97.4463 335.008C93.5743 336.032 90.4063 337.744 87.9423 340.144C85.4783 342.512 84.2463 345.824 84.2463 350.08C84.2463 352.832 84.9023 355.376 86.2143 357.712C87.5263 360.048 89.4943 361.92 92.1183 363.328C94.7743 364.736 98.0543 365.44 101.958 365.44ZM102.774 359.344C99.9903 359.344 97.7503 358.896 96.0543 358C94.3903 357.072 93.1743 355.904 92.4062 354.496C91.6703 353.056 91.3023 351.584 91.3023 350.08C91.3023 347.264 92.2463 345.152 94.1343 343.744C96.0223 342.336 98.0703 341.312 100.278 340.672C103.126 339.904 106.438 339.28 110.214 338.8C113.99 338.32 117.574 337.872 120.966 337.456C120.966 338.64 120.918 340 120.822 341.536C120.758 343.04 120.582 344.432 120.294 345.712C119.622 349.616 117.766 352.864 114.726 355.456C111.718 358.048 107.734 359.344 102.774 359.344ZM140.422 364H147.526V336.352C147.526 330.496 148.838 325.904 151.462 322.576C154.086 319.248 157.894 317.584 162.886 317.584C166.502 317.584 169.414 318.464 171.622 320.224C173.83 321.952 175.43 324.32 176.422 327.328C177.414 330.336 177.91 333.744 177.91 337.552V364H185.014V335.488C185.014 332.576 184.646 329.664 183.91 326.752C183.206 323.84 182.054 321.184 180.454 318.784C178.854 316.384 176.726 314.464 174.07 313.024C171.414 311.584 168.134 310.864 164.23 310.864C160.518 310.864 157.158 311.584 154.15 313.024C151.174 314.432 148.726 316.544 146.806 319.36V312.16H140.422V364ZM197.47 364H204.526V338.128C204.526 335.024 204.878 331.936 205.582 328.864C206.318 325.76 207.982 323.184 210.574 321.136C212.462 319.6 214.51 318.72 216.718 318.496C218.958 318.24 221.038 318.336 222.958 318.784V312.16C220.686 311.584 218.11 311.568 215.23 312.112C212.35 312.624 209.886 313.776 207.838 315.568C206.302 316.72 204.958 318.32 203.806 320.368V312.16H197.47V364ZM252.774 365.44C257.894 365.44 262.278 364.288 265.926 361.984C269.606 359.68 272.422 356.48 274.374 352.384C276.358 348.256 277.35 343.472 277.35 338.032C277.35 332.688 276.374 327.968 274.422 323.872C272.502 319.744 269.702 316.528 266.022 314.224C262.374 311.888 257.958 310.72 252.774 310.72C247.718 310.72 243.35 311.872 239.67 314.176C236.022 316.448 233.206 319.632 231.222 323.728C229.238 327.824 228.246 332.592 228.246 338.032C228.246 343.376 229.206 348.112 231.126 352.24C233.078 356.368 235.878 359.6 239.526 361.936C243.206 364.272 247.622 365.44 252.774 365.44ZM252.774 358.672C247.174 358.672 242.934 356.8 240.054 353.056C237.174 349.28 235.734 344.272 235.734 338.032C235.734 331.984 237.126 327.056 239.91 323.248C242.694 319.408 246.982 317.488 252.774 317.488C258.502 317.488 262.774 319.36 265.59 323.104C268.438 326.816 269.862 331.792 269.862 338.032C269.862 344.144 268.454 349.12 265.638 352.96C262.822 356.768 258.534 358.672 252.774 358.672ZM287.891 387.04H294.995V357.808C296.851 360.176 299.139 362.048 301.859 363.424C304.579 364.768 307.699 365.44 311.219 365.44C316.083 365.44 320.227 364.24 323.651 361.84C327.075 359.408 329.683 356.128 331.475 352C333.299 347.872 334.211 343.216 334.211 338.032C334.211 332.88 333.299 328.24 331.475 324.112C329.683 319.984 327.091 316.72 323.699 314.32C320.307 311.92 316.243 310.72 311.507 310.72C307.667 310.72 304.291 311.488 301.379 313.024C298.499 314.528 296.115 316.624 294.227 319.312V312.16H287.891V387.04ZM310.499 358.864C306.819 358.864 303.779 357.968 301.379 356.176C298.979 354.352 297.187 351.872 296.003 348.736C294.819 345.6 294.227 342.032 294.227 338.032C294.227 331.92 295.555 326.944 298.211 323.104C300.899 319.232 304.947 317.296 310.355 317.296C314.067 317.296 317.123 318.208 319.523 320.032C321.955 321.856 323.763 324.336 324.947 327.472C326.131 330.608 326.723 334.128 326.723 338.032C326.723 341.968 326.115 345.504 324.899 348.64C323.715 351.776 321.923 354.272 319.523 356.128C317.123 357.952 314.115 358.864 310.499 358.864ZM366.687 365.44C371.711 365.44 376.207 364.208 380.175 361.744C384.175 359.28 387.199 355.776 389.247 351.232L382.671 348.688C379.375 355.344 373.951 358.672 366.399 358.672C361.215 358.672 357.151 357.056 354.207 353.824C351.295 350.592 349.695 346 349.407 340.048H390.255C390.511 330.896 388.511 323.728 384.255 318.544C380.031 313.328 374.079 310.72 366.399 310.72C361.407 310.72 357.071 311.84 353.391 314.08C349.743 316.32 346.911 319.504 344.895 323.632C342.879 327.76 341.871 332.656 341.871 338.32C341.871 343.792 342.879 348.56 344.895 352.624C346.943 356.688 349.823 359.84 353.535 362.08C357.279 364.32 361.663 365.44 366.687 365.44ZM366.591 317.2C376.351 317.2 381.775 322.848 382.863 334.144H349.551C350.095 328.672 351.823 324.48 354.735 321.568C357.647 318.656 361.599 317.2 366.591 317.2ZM420.126 364H427.182V337.744H449.262L461.982 364H470.094L456.462 336.016C460.334 334.448 463.31 331.904 465.39 328.384C467.47 324.864 468.51 320.848 468.51 316.336C468.51 310.928 467.054 306.272 464.142 302.368C461.23 298.464 457.07 296.096 451.662 295.264C450.798 295.104 449.934 295.008 449.07 294.976C448.238 294.912 447.486 294.88 446.814 294.88H420.126V364ZM427.182 331.024V301.648H446.622C447.198 301.648 447.87 301.68 448.638 301.744C449.438 301.776 450.19 301.872 450.894 302.032C454.446 302.8 457.054 304.576 458.718 307.36C460.414 310.112 461.262 313.104 461.262 316.336C461.262 319.536 460.414 322.528 458.718 325.312C457.054 328.096 454.446 329.856 450.894 330.592C450.19 330.752 449.438 330.864 448.638 330.928C447.87 330.992 447.198 331.024 446.622 331.024H427.182ZM502.625 365.44C507.649 365.44 512.145 364.208 516.113 361.744C520.113 359.28 523.137 355.776 525.185 351.232L518.609 348.688C515.313 355.344 509.889 358.672 502.337 358.672C497.153 358.672 493.089 357.056 490.145 353.824C487.233 350.592 485.633 346 485.345 340.048H526.193C526.449 330.896 524.449 323.728 520.193 318.544C515.969 313.328 510.017 310.72 502.337 310.72C497.345 310.72 493.009 311.84 489.329 314.08C485.681 316.32 482.849 319.504 480.833 323.632C478.817 327.76 477.809 332.656 477.809 338.32C477.809 343.792 478.817 348.56 480.833 352.624C482.881 356.688 485.761 359.84 489.473 362.08C493.217 364.32 497.601 365.44 502.625 365.44ZM502.529 317.2C512.289 317.2 517.713 322.848 518.801 334.144H485.489C486.033 328.672 487.761 324.48 490.673 321.568C493.585 318.656 497.537 317.2 502.529 317.2ZM556.957 365.44C560.445 365.44 563.549 364.768 566.269 363.424C568.989 362.08 571.277 360.224 573.133 357.856V363.184C573.165 369.264 571.965 373.856 569.533 376.96C567.101 380.064 563.069 381.616 557.437 381.616C554.717 381.616 552.045 380.976 549.421 379.696C546.797 378.448 544.781 376.384 543.373 373.504L536.989 377.056C539.197 381.088 542.157 384 545.869 385.792C549.613 387.584 553.469 388.48 557.437 388.48C563.773 388.48 568.829 387.104 572.605 384.352C576.381 381.6 578.733 377.328 579.661 371.536C579.885 370.224 580.029 368.88 580.093 367.504C580.189 366.16 580.237 364.752 580.237 363.28V312.16H573.949V319.312C572.061 316.624 569.661 314.528 566.749 313.024C563.869 311.488 560.509 310.72 556.669 310.72C551.933 310.72 547.869 311.92 544.477 314.32C541.085 316.72 538.477 319.984 536.653 324.112C534.861 328.24 533.965 332.88 533.965 338.032C533.965 343.216 534.861 347.872 536.653 352C538.477 356.128 541.101 359.408 544.525 361.84C547.981 364.24 552.125 365.44 556.957 365.44ZM557.677 358.864C554.093 358.864 551.085 357.952 548.653 356.128C546.253 354.272 544.445 351.776 543.229 348.64C542.045 345.504 541.453 341.968 541.453 338.032C541.453 334.128 542.045 330.608 543.229 327.472C544.413 324.336 546.205 321.856 548.605 320.032C551.037 318.208 554.109 317.296 557.821 317.296C563.229 317.296 567.261 319.232 569.917 323.104C572.605 326.944 573.949 331.92 573.949 338.032C573.949 342.032 573.357 345.6 572.173 348.736C570.989 351.872 569.197 354.352 566.797 356.176C564.397 357.968 561.357 358.864 557.677 358.864ZM613.482 365.296C617.194 365.296 620.538 364.592 623.514 363.184C626.522 361.744 628.986 359.616 630.906 356.8V364H637.242V312.16H630.186V339.808C630.186 345.664 628.874 350.256 626.25 353.584C623.626 356.912 619.818 358.576 614.826 358.576C611.21 358.576 608.298 357.712 606.09 355.984C603.882 354.224 602.282 351.84 601.29 348.832C600.298 345.824 599.802 342.416 599.802 338.608V312.16H592.698V340.672C592.698 343.584 593.05 346.496 593.754 349.408C594.49 352.32 595.658 354.976 597.258 357.376C598.858 359.776 600.986 361.696 603.642 363.136C606.33 364.576 609.61 365.296 613.482 365.296ZM651.618 364H658.674V293.44H651.618V364ZM687.896 365.44C696.952 365.44 703.528 362.096 707.624 355.408V364H713.912V331.792C713.912 329.872 713.816 327.984 713.624 326.128C713.432 324.272 713.016 322.592 712.376 321.088C711 317.728 708.648 315.168 705.32 313.408C702.024 311.616 698.008 310.72 693.272 310.72C687.576 310.72 682.936 312 679.352 314.56C675.768 317.12 673.368 320.72 672.152 325.36L679.016 327.376C680.008 323.92 681.72 321.392 684.152 319.792C686.616 318.192 689.624 317.392 693.176 317.392C698.104 317.392 701.624 318.544 703.736 320.848C705.848 323.12 706.936 326.592 707 331.264C704.696 331.584 702.152 331.92 699.368 332.272C696.616 332.624 693.848 333.024 691.064 333.472C688.28 333.92 685.72 334.432 683.384 335.008C679.512 336.032 676.344 337.744 673.88 340.144C671.416 342.512 670.184 345.824 670.184 350.08C670.184 352.832 670.84 355.376 672.152 357.712C673.464 360.048 675.432 361.92 678.056 363.328C680.712 364.736 683.992 365.44 687.896 365.44ZM688.712 359.344C685.928 359.344 683.688 358.896 681.992 358C680.328 357.072 679.112 355.904 678.344 354.496C677.608 353.056 677.24 351.584 677.24 350.08C677.24 347.264 678.184 345.152 680.072 343.744C681.96 342.336 684.008 341.312 686.216 340.672C689.064 339.904 692.376 339.28 696.152 338.8C699.928 338.32 703.512 337.872 706.904 337.456C706.904 338.64 706.856 340 706.76 341.536C706.696 343.04 706.52 344.432 706.232 345.712C705.56 349.616 703.704 352.864 700.664 355.456C697.656 358.048 693.672 359.344 688.712 359.344ZM726.408 364H733.464V338.128C733.464 335.024 733.816 331.936 734.52 328.864C735.256 325.76 736.92 323.184 739.512 321.136C741.4 319.6 743.448 318.72 745.656 318.496C747.896 318.24 749.976 318.336 751.896 318.784V312.16C749.624 311.584 747.048 311.568 744.168 312.112C741.288 312.624 738.824 313.776 736.776 315.568C735.24 316.72 733.896 318.32 732.744 320.368V312.16H726.408V364ZM6.4075 495H11.7835V438.6L37.5595 495H42.0715L67.7995 438.6V494.904H73.2235V425.88H67.8955L39.8635 487.032L11.5435 425.88H6.4075V495ZM101.634 496.44C106.114 496.44 110.098 495.544 113.586 493.752C117.106 491.96 119.858 489.368 121.842 485.976V495H126.882V462.696C126.882 460.84 126.786 459 126.594 457.176C126.402 455.32 126.034 453.704 125.49 452.328C124.21 449 121.938 446.408 118.674 444.552C115.442 442.664 111.442 441.72 106.674 441.72C101.074 441.72 96.4815 442.984 92.8975 445.512C89.3135 448.04 86.9295 451.656 85.7455 456.36L91.4095 457.944C93.3935 450.68 98.4175 447.048 106.482 447.048C111.922 447.048 115.762 448.344 118.002 450.936C120.274 453.528 121.394 457.448 121.362 462.696C119.346 462.952 116.946 463.256 114.162 463.608C111.378 463.928 108.514 464.312 105.57 464.76C102.658 465.208 99.9375 465.704 97.4095 466.248C93.6335 467.144 90.4175 468.76 87.7615 471.096C85.1055 473.432 83.7775 476.792 83.7775 481.176C83.7775 483.896 84.4335 486.424 85.7455 488.76C87.0575 491.064 89.0415 492.92 91.6975 494.328C94.3535 495.736 97.6655 496.44 101.634 496.44ZM101.922 491.352C98.8175 491.352 96.3535 490.84 94.5295 489.816C92.7055 488.792 91.3935 487.496 90.5935 485.928C89.8255 484.36 89.4415 482.792 89.4415 481.224C89.4415 479.112 89.9375 477.368 90.9295 475.992C91.9535 474.616 93.2175 473.528 94.7215 472.728C96.2575 471.928 97.7775 471.336 99.2815 470.952C101.426 470.408 103.81 469.944 106.434 469.56C109.058 469.144 111.666 468.808 114.258 468.552C116.882 468.264 119.25 468.008 121.362 467.784C121.362 468.936 121.314 470.28 121.218 471.816C121.154 473.32 121.01 474.728 120.786 476.04C120.114 480.68 118.114 484.392 114.786 487.176C111.49 489.96 107.202 491.352 101.922 491.352ZM139.345 495H144.913V467.016C144.913 463.208 145.489 459.816 146.641 456.84C147.825 453.864 149.617 451.528 152.017 449.832C154.417 448.136 157.505 447.288 161.281 447.288C166.721 447.288 170.753 449.112 173.377 452.76C176.001 456.376 177.313 461.464 177.313 468.024V495H182.881V466.632C182.881 462.12 182.129 457.992 180.625 454.248C179.153 450.504 176.865 447.528 173.761 445.32C170.689 443.08 166.769 441.96 162.001 441.96C158.289 441.96 154.897 442.696 151.825 444.168C148.785 445.64 146.305 447.896 144.385 450.936V443.16H139.345V495ZM195.314 495H200.882V469.32C200.882 467.208 200.978 465.048 201.17 462.84C201.394 460.6 201.906 458.472 202.706 456.456C203.538 454.408 204.834 452.616 206.594 451.08C208.578 449.384 210.722 448.392 213.026 448.104C215.362 447.816 217.554 447.912 219.602 448.392V443.16C217.33 442.52 214.674 442.488 211.634 443.064C208.626 443.64 206.082 444.872 204.002 446.76C202.626 447.944 201.41 449.464 200.354 451.32V443.16H195.314V495ZM249.015 496.44C254.135 496.44 258.487 495.288 262.071 492.984C265.655 490.68 268.391 487.464 270.279 483.336C272.199 479.208 273.159 474.424 273.159 468.984C273.159 463.64 272.215 458.92 270.327 454.824C268.471 450.728 265.735 447.528 262.119 445.224C258.535 442.888 254.167 441.72 249.015 441.72C243.991 441.72 239.671 442.872 236.055 445.176C232.439 447.448 229.671 450.632 227.751 454.728C225.831 458.792 224.871 463.544 224.871 468.984C224.871 474.36 225.815 479.112 227.703 483.24C229.591 487.368 232.327 490.6 235.911 492.936C239.527 495.272 243.895 496.44 249.015 496.44ZM249.015 491.064C243.031 491.064 238.487 489.048 235.383 485.016C232.311 480.984 230.775 475.64 230.775 468.984C230.775 464.696 231.431 460.904 232.743 457.608C234.055 454.312 236.055 451.736 238.743 449.88C241.463 448.024 244.887 447.096 249.015 447.096C255.095 447.096 259.655 449.08 262.695 453.048C265.735 457.016 267.255 462.328 267.255 468.984C267.255 475.544 265.735 480.872 262.695 484.968C259.687 489.032 255.127 491.064 249.015 491.064ZM283.72 518.04H289.24V487.032C291.064 489.944 293.416 492.248 296.296 493.944C299.208 495.608 302.584 496.44 306.424 496.44C311.32 496.44 315.464 495.24 318.856 492.84C322.248 490.408 324.824 487.128 326.584 483C328.344 478.84 329.224 474.168 329.224 468.984C329.224 463.864 328.344 459.256 326.584 455.16C324.856 451.032 322.328 447.768 319 445.368C315.672 442.936 311.656 441.72 306.952 441.72C302.76 441.72 299.144 442.616 296.104 444.408C293.064 446.2 290.616 448.664 288.76 451.8V443.16H283.72V518.04ZM306.088 491.16C302.216 491.16 299 490.2 296.44 488.28C293.88 486.328 291.96 483.688 290.68 480.36C289.4 477 288.76 473.208 288.76 468.984C288.76 464.696 289.4 460.904 290.68 457.608C291.96 454.312 293.88 451.72 296.44 449.832C299 447.944 302.184 447 305.992 447C309.928 447 313.176 447.976 315.736 449.928C318.296 451.848 320.2 454.472 321.448 457.8C322.696 461.096 323.32 464.824 323.32 468.984C323.32 473.176 322.68 476.952 321.4 480.312C320.12 483.64 318.2 486.28 315.64 488.232C313.08 490.184 309.896 491.16 306.088 491.16ZM361.143 496.44C366.199 496.44 370.695 495.224 374.631 492.792C378.567 490.328 381.575 486.872 383.655 482.424L378.663 480.216C376.903 483.704 374.519 486.392 371.511 488.28C368.535 490.136 365.047 491.064 361.047 491.064C355.479 491.064 351.111 489.288 347.943 485.736C344.775 482.152 343.079 477.128 342.855 470.664H384.759C384.887 461.576 382.855 454.488 378.663 449.4C374.471 444.28 368.599 441.72 361.047 441.72C356.087 441.72 351.799 442.84 348.183 445.08C344.567 447.288 341.783 450.44 339.831 454.536C337.879 458.632 336.903 463.512 336.903 469.176C336.903 474.744 337.879 479.576 339.831 483.672C341.815 487.736 344.615 490.888 348.231 493.128C351.879 495.336 356.183 496.44 361.143 496.44ZM361.143 446.952C366.391 446.952 370.503 448.552 373.479 451.752C376.487 454.952 378.263 459.592 378.807 465.672H342.951C343.463 459.688 345.271 455.08 348.375 451.848C351.511 448.584 355.767 446.952 361.143 446.952ZM415.555 495H454.675V489.624H421.075V425.88H415.555V495ZM463.836 432.696H469.356V425.64H463.836V432.696ZM463.836 495H469.356V443.16H463.836V495ZM503.703 496.44C507.511 496.44 510.839 495.608 513.687 493.944C516.567 492.28 518.935 490.024 520.791 487.176V493.176C520.823 500.024 519.607 505.192 517.143 508.68C514.679 512.2 510.295 513.96 503.991 513.96C500.983 513.96 498.055 513.272 495.207 511.896C492.359 510.52 490.135 508.232 488.535 505.032L483.543 508.008C485.847 512.2 488.855 515.16 492.567 516.888C496.311 518.616 500.103 519.48 503.943 519.48C510.471 519.48 515.543 518.04 519.159 515.16C522.807 512.28 525.047 507.832 525.879 501.816C526.103 500.408 526.247 499 526.311 497.592C526.375 496.184 526.406 494.712 526.406 493.176V443.16H521.367V451.8C519.511 448.664 517.063 446.2 514.023 444.408C510.983 442.616 507.367 441.72 503.175 441.72C498.471 441.72 494.455 442.936 491.127 445.368C487.831 447.768 485.303 451.032 483.543 455.16C481.783 459.256 480.903 463.864 480.903 468.984C480.903 474.168 481.783 478.84 483.543 483C485.303 487.128 487.879 490.408 491.271 492.84C494.695 495.24 498.839 496.44 503.703 496.44ZM504.039 491.16C500.231 491.16 497.047 490.184 494.487 488.232C491.927 486.28 490.007 483.64 488.727 480.312C487.447 476.952 486.807 473.176 486.807 468.984C486.807 464.824 487.431 461.096 488.679 457.8C489.927 454.472 491.831 451.848 494.391 449.928C496.951 447.976 500.199 447 504.135 447C507.943 447 511.127 447.944 513.687 449.832C516.247 451.72 518.167 454.312 519.447 457.608C520.727 460.904 521.367 464.696 521.367 468.984C521.367 473.208 520.727 477 519.447 480.36C518.167 483.688 516.247 486.328 513.687 488.28C511.127 490.2 507.911 491.16 504.039 491.16ZM539.845 495H545.413V467.016C545.413 463.208 545.989 459.816 547.141 456.84C548.325 453.864 550.117 451.528 552.517 449.832C554.917 448.136 558.005 447.288 561.781 447.288C567.221 447.288 571.253 449.112 573.877 452.76C576.501 456.376 577.813 461.464 577.813 468.024V495H583.381V466.632C583.381 462.12 582.629 457.992 581.125 454.248C579.653 450.504 577.365 447.528 574.261 445.32C571.189 443.08 567.269 441.96 562.501 441.96C558.789 441.96 555.397 442.696 552.325 444.168C549.285 445.64 546.805 447.896 544.885 450.936V425.88H539.845V495ZM623.318 495V490.008C619.446 490.616 616.262 490.696 613.766 490.248C611.27 489.768 609.446 488.424 608.294 486.216C607.686 485.032 607.35 483.736 607.286 482.328C607.254 480.92 607.238 479.112 607.238 476.904V448.2H623.318V443.16H607.238V428.76H601.67V443.16H590.054V448.2H601.67V477C601.67 479.4 601.718 481.544 601.814 483.432C601.91 485.288 602.39 487.112 603.254 488.904C604.31 491.112 605.894 492.76 608.006 493.848C610.118 494.936 612.502 495.544 615.158 495.672C617.846 495.8 620.566 495.576 623.318 495Z" fill="black"/>
</g>
<defs>
<clipPath id="clip0">
<rect width="854" height="524" fill="white"/>
</clipPath>
</defs>
</svg>
