<svg width="354" height="97" viewBox="0 0 354 97" fill="none" xmlns="http://www.w3.org/2000/svg">
<g clip-path="url(#clip0_4479_3673)">
<mask id="mask0_4479_3673" style="mask-type:luminance" maskUnits="userSpaceOnUse" x="0" y="0" width="354" height="97">
<path d="M0 0H353.88V96.2696H0V0Z" fill="white"/>
</mask>
<g mask="url(#mask0_4479_3673)">
<path d="M40.643 20.824L78.3454 58.5263L40.643 96.2286L2.94043 58.5263L40.643 20.824Z" fill="#D31D2C"/>
<path d="M40.643 18.4755L78.3454 56.1781L40.643 93.8804L2.94043 56.1781L40.643 18.4755Z" fill="white"/>
<path d="M40.6429 28.9987L73.0837 61.4394L40.6429 93.8805L8.20215 61.4394L40.6429 28.9987Z" fill="#FF5C5C"/>
<path d="M40.6431 43.6208L65.7727 68.7505L40.6431 93.8804L15.5132 68.7505L40.6431 43.6208Z" fill="#FF3A3A"/>
<path d="M12.8148 38.6243C12.471 38.9489 12.2702 39.3968 12.2566 39.8694C12.243 40.3421 12.4177 40.8007 12.7423 41.1445C13.0669 41.4884 13.5148 41.6892 13.9874 41.7028C14.4601 41.7164 14.9187 41.5416 15.2626 41.2171L12.8148 38.6243ZM40.6115 14.8341L41.8336 13.5363C41.5025 13.2246 41.0649 13.0511 40.6103 13.0514C40.1556 13.0517 39.7182 13.2257 39.3876 13.5378L40.6115 14.8341ZM66.024 41.2182C66.1944 41.3788 66.3947 41.5042 66.6136 41.5872C66.8325 41.6703 67.0656 41.7095 67.2996 41.7025C67.5336 41.6955 67.764 41.6425 67.9775 41.5465C68.191 41.4505 68.3835 41.3133 68.5441 41.1429C68.7046 40.9725 68.83 40.7721 68.9131 40.5533C68.9961 40.3344 69.0353 40.1013 69.0283 39.8673C69.0213 39.6333 68.9683 39.4029 68.8723 39.1894C68.7763 38.9759 68.6392 38.7833 68.4687 38.6228L66.024 41.2182ZM15.2626 41.2171L41.835 16.1305L39.3876 13.5378L12.8148 38.6243L15.2626 41.2171ZM39.3891 16.132L66.024 41.2182L68.4687 38.6228L41.8336 13.5363L39.3891 16.132Z" fill="#D31D2C"/>
<path d="M12.8148 36.9883C12.6446 37.149 12.5076 37.3417 12.4119 37.5554C12.3161 37.769 12.2633 37.9994 12.2566 38.2334C12.2499 38.4675 12.2893 38.7005 12.3726 38.9193C12.456 39.1381 12.5816 39.3383 12.7423 39.5086C12.903 39.6788 13.0957 39.8157 13.3093 39.9115C13.523 40.0073 13.7534 40.06 13.9874 40.0668C14.2214 40.0735 14.4545 40.0341 14.6733 39.9507C14.8921 39.8674 15.0923 39.7418 15.2625 39.5811L12.8148 36.9883ZM40.6115 13.1981L41.8336 11.9003C41.5025 11.5886 41.0649 11.4151 40.6103 11.4154C40.1556 11.4157 39.7182 11.5897 39.3876 11.9018L40.6115 13.1981ZM66.024 39.5823C66.1944 39.7428 66.3947 39.8682 66.6136 39.9513C66.8325 40.0343 67.0656 40.0735 67.2996 40.0665C67.5336 40.0595 67.764 40.0065 67.9775 39.9105C68.191 39.8145 68.3835 39.6773 68.5441 39.5069C68.7046 39.3365 68.83 39.1361 68.9131 38.9173C68.9961 38.6984 69.0353 38.4653 69.0283 38.2313C69.0213 37.9973 68.9683 37.7669 68.8723 37.5534C68.7763 37.3399 68.6392 37.1474 68.4687 36.9868L66.024 39.5823ZM15.2625 39.5811L41.835 14.4945L39.3876 11.9018L12.8148 36.9883L15.2625 39.5811ZM39.3891 14.496L66.024 39.5823L68.4687 36.9868L41.8336 11.9003L39.3891 14.496Z" fill="white"/>
<g filter="url(#filter0_dddddd_4479_3673)">
<path d="M45.6007 15.1563C65.1143 9.2093 68.8444 3.96944 58.4334 4.54765C54.4715 4.76753 17.0068 12.6361 17.0068 18.182C17.0068 19.1179 21.2088 22.5899 45.6007 15.1563Z" stroke="#D31D2C" stroke-width="2.97128"/>
</g>
<path d="M45.777 13.6649C65.2906 7.7176 69.0207 2.47774 58.6096 3.05595C54.6477 3.27613 17.1831 11.1447 17.1831 16.6906C17.1831 17.6262 21.3851 21.0985 45.777 13.6646V13.6649Z" stroke="white" stroke-width="2.97128"/>
<path d="M20.4066 23.0721C19.0591 23.4259 18.6099 21.2581 18.5537 20.1296C24.1151 20.87 27.2533 20.7755 32.8857 19.7335C31.1475 20.9399 28.6492 28.0347 26.0562 28.1773C23.4629 28.3199 23.0505 22.7333 22.3326 22.4469C21.6147 22.1602 22.091 22.6293 20.4066 23.0721Z" fill="#D31D2C"/>
<path d="M131.3 68.0742C131.3 57.8939 124.979 52.0898 116.728 52.0898C108.432 52.0898 102.157 57.8939 102.157 68.0742C102.157 78.2086 108.432 84.0582 116.728 84.0582C124.979 84.0582 131.3 78.2541 131.3 68.0742ZM124.629 68.0742C124.629 74.6683 121.499 78.2389 116.728 78.2389C111.942 78.2389 108.827 74.6683 108.827 68.0742C108.827 61.4797 111.942 57.9091 116.728 57.9091C121.499 57.9091 124.629 61.4797 124.629 68.0742ZM134.34 92.3846H140.813V79.8951H141.01C141.906 81.8398 143.867 84.0127 147.635 84.0127C152.953 84.0127 157.101 79.8039 157.101 71.9942C157.101 63.9717 152.77 59.9908 147.65 59.9908C143.745 59.9908 141.876 62.3155 141.01 64.2148H140.722V60.2947H134.34V92.3846ZM140.676 71.9636C140.676 67.8005 142.438 65.1415 145.583 65.1415C148.789 65.1415 150.491 67.922 150.491 71.9636C150.491 76.0357 148.759 78.8617 145.583 78.8617C142.469 78.8617 140.676 76.1269 140.676 71.9636ZM170.34 84.0885C176.114 84.0885 180.004 81.2777 180.915 76.9473L174.929 76.5524C174.275 78.3301 172.604 79.2569 170.447 79.2569C167.21 79.2569 165.159 77.1146 165.159 73.6349V73.6198H181.052V71.842C181.052 63.9108 176.251 59.9908 170.082 59.9908C163.214 59.9908 158.762 64.8681 158.762 72.0699C158.762 79.4696 163.153 84.0885 170.34 84.0885ZM165.159 69.6085C165.296 66.9495 167.317 64.8224 170.188 64.8224C172.999 64.8224 174.944 66.828 174.959 69.6085H165.159ZM190.037 70.1404C190.052 67.132 191.845 65.3694 194.459 65.3694C197.057 65.3694 198.622 67.0714 198.607 69.9276V83.6327H205.079V68.773C205.079 63.3335 201.888 59.9908 197.026 59.9908C193.562 59.9908 191.055 61.6924 190.007 64.4124H189.733V60.2947H183.564V83.6327H190.037V70.1404ZM233.663 61.4645H239.968C239.877 55.9186 235.319 52.0898 228.39 52.0898C221.568 52.0898 216.569 55.858 216.6 61.5103C216.585 66.0989 219.821 68.7272 225.078 69.9886L228.466 70.8392C231.855 71.6599 233.739 72.6321 233.754 74.7289C233.739 77.0082 231.581 78.558 228.238 78.558C224.82 78.558 222.358 76.9776 222.145 73.8631H215.779C215.946 80.594 220.763 84.0733 228.314 84.0733C235.911 84.0733 240.378 80.4421 240.394 74.7441C240.378 69.5631 236.473 66.8128 231.065 65.5973L228.269 64.9288C225.564 64.306 223.3 63.3032 223.346 61.0697C223.346 59.064 225.123 57.59 228.345 57.59C231.49 57.59 233.42 59.0183 233.663 61.4645ZM253.53 84.0885C260.611 84.0885 265.017 79.2417 265.017 72.0548C265.017 64.8224 260.611 59.9908 253.53 59.9908C246.45 59.9908 242.044 64.8224 242.044 72.0548C242.044 79.2417 246.45 84.0885 253.53 84.0885ZM253.561 79.0744C250.294 79.0744 248.623 76.0812 248.623 72.0093C248.623 67.9372 250.294 64.9288 253.561 64.9288C256.767 64.9288 258.438 67.9372 258.438 72.0093C258.438 76.0812 256.767 79.0744 253.561 79.0744ZM282.481 73.6958C282.496 76.8258 280.353 78.4668 278.029 78.4668C275.583 78.4668 274.002 76.7497 273.987 73.9998V60.2947H267.514V75.1544C267.53 80.6091 270.721 83.9367 275.415 83.9367C278.925 83.9367 281.447 82.1286 282.496 79.3936H282.739V83.6327H288.953V60.2947H282.481V73.6958ZM292.419 83.6327H298.893V70.4292C298.893 67.5575 300.988 65.5821 303.846 65.5821C304.741 65.5821 305.974 65.7343 306.58 65.9316V60.1884C306.003 60.0517 305.198 59.9605 304.544 59.9605C301.93 59.9605 299.787 61.4797 298.938 64.3666H298.694V60.2947H292.419V83.6327ZM317.675 84.0885C323.887 84.0885 327.792 80.4421 328.098 75.0784H321.989C321.609 77.5704 319.968 78.9681 317.749 78.9681C314.727 78.9681 312.766 76.4309 312.766 71.9636C312.766 67.5575 314.742 65.0351 317.749 65.0351C320.12 65.0351 321.638 66.6001 321.989 68.9248H328.098C327.824 63.5311 323.736 59.9908 317.642 59.9908C310.561 59.9908 306.188 64.8985 306.188 72.0548C306.188 79.1505 310.487 84.0885 317.675 84.0885ZM341.165 84.0885C346.939 84.0885 350.828 81.2777 351.74 76.9473L345.753 76.5524C345.099 78.3301 343.43 79.2569 341.272 79.2569C338.034 79.2569 335.984 77.1146 335.984 73.6349V73.6198H351.877V71.842C351.877 63.9108 347.075 59.9908 340.907 59.9908C334.04 59.9908 329.586 64.8681 329.586 72.0699C329.586 79.4696 333.978 84.0885 341.165 84.0885ZM335.984 69.6085C336.12 66.9495 338.141 64.8224 341.014 64.8224C343.825 64.8224 345.768 66.828 345.783 69.6085H335.984ZM105.44 20.9321L103.103 44.131H107.956L109.071 33.0573C109.557 32.748 110.668 32.253 111.851 32.253C113.155 32.253 113.471 33.0264 113.356 34.1709L112.353 44.131H117.205L118.283 33.4284C118.582 30.4589 117.624 28.2316 113.499 28.2316C111.831 28.2316 110.575 28.6648 109.457 29.2217L110.292 20.9318L105.44 20.9321ZM132.491 38.033C133.373 33.1767 133.417 28.2278 126.932 28.2278C122.235 28.2278 119.58 30.8259 119.02 36.3937C118.459 41.9613 120.622 44.5597 125.622 44.5597C127.44 44.5597 129.596 44.2195 131.428 43.477L131.817 39.6105C130.67 40.1673 128.926 40.6314 126.654 40.6314C124.29 40.6314 123.319 40.0437 123.643 38.033H132.491ZM126.619 31.9395C128.468 31.9395 128.694 33.3003 128.25 35.0017H123.947C124.144 33.0531 124.983 31.9395 126.619 31.9395ZM134.867 28.661L133.311 44.1268H138.159L139.273 33.0531C139.759 32.7438 140.869 32.2488 142.051 32.2488C143.353 32.2488 143.669 33.0222 143.554 34.1665L142.552 44.1268H147.4L148.477 33.4242C148.775 30.4547 147.818 28.2275 143.697 28.2275C142.031 28.2275 140.072 28.7225 138.27 29.7743L137.776 28.6607L134.867 28.661ZM159.021 40.3934C158.772 40.4552 158.153 40.5791 157.516 40.5791C155.969 40.5791 155.582 39.8984 155.704 38.692L156.299 32.7842H160.061L160.475 28.6702H156.714L157.153 24.3089L152.165 25.6389L151.844 28.825L149.318 29.5054L148.988 32.7842H151.445L150.81 39.0943C150.442 42.7443 151.866 44.5692 156.113 44.5692C156.78 44.5692 157.945 44.4453 158.632 44.2599L159.021 40.3934ZM169.423 39.8889C169.423 39.8889 168.418 40.5384 167.206 40.5384C164.964 40.5384 164.629 39.0539 164.896 36.3937C165.161 33.7645 165.798 32.2488 168.04 32.2488C169.252 32.2488 170.126 32.8983 170.126 32.8983L169.423 39.8889ZM175.4 28.6607H172.492L171.549 29.8979C170.582 28.97 169.233 28.2278 166.809 28.2278C162.87 28.2278 160.682 30.7022 160.109 36.3937C159.537 42.0852 161.227 44.5597 165.165 44.5597C167.589 44.5597 169.098 44.6215 170.252 43.6936L170.935 44.1265H173.844L175.4 28.6607ZM175.764 44.1399H180.602L182.164 28.6743H177.327L175.764 44.1399ZM177.324 24.1889C177.155 25.8594 178.274 27.1275 179.917 27.1275C181.53 27.1275 182.936 25.8594 183.104 24.1889C183.27 22.5496 182.124 21.2503 180.511 21.2503C178.868 21.2503 177.489 22.5496 177.324 24.1889ZM191.908 44.5669C199.061 44.5669 201.469 39.6176 202.182 32.5343C202.895 25.4508 201.483 20.5018 194.33 20.5018C187.177 20.5018 184.77 25.4508 184.057 32.5343C183.344 39.6176 184.755 44.5669 191.908 44.5669ZM193.879 24.987C196.879 24.987 197.817 27.1213 197.272 32.5343C196.727 37.9474 195.36 40.0817 192.359 40.0817C189.359 40.0817 188.422 37.9474 188.967 32.5343C189.511 27.1213 190.878 24.987 193.879 24.987ZM212.015 30.029C209.684 29.6884 208.858 29.1628 209.026 27.4924C209.176 26.0076 210.651 25.2036 213.168 25.2036C215.472 25.2036 217.926 25.8222 219.107 26.4408L219.59 21.6464C218.588 21.0586 216.37 20.5018 213.278 20.5018C207.274 20.5018 204.478 23.2859 204.054 27.4924C203.596 32.0393 205.635 33.7716 211.318 34.545C213.591 34.8543 214.29 35.442 214.112 37.2049C213.953 38.7827 212.844 39.8651 209.418 39.8651C206.416 39.8651 203.988 38.6897 202.989 38.071L202.478 43.1439C204.015 44.1336 206.973 44.5669 209.429 44.5669C214.796 44.5669 218.552 42.4944 219.131 36.7411C219.629 31.7918 216.976 30.7403 212.015 30.029Z" fill="white"/>
</g>
</g>
<defs>
<filter id="filter0_dddddd_4479_3673" x="-8.24927" y="3.01831" width="97.6079" height="71.7603" filterUnits="userSpaceOnUse" color-interpolation-filters="sRGB">
<feFlood flood-opacity="0" result="BackgroundImageFix"/>
<feColorMatrix in="SourceAlpha" type="matrix" values="0 0 0 0 0 0 0 0 0 0 0 0 0 0 0 0 0 0 127 0" result="hardAlpha"/>
<feOffset dy="0.822154"/>
<feGaussianBlur stdDeviation="0.328921"/>
<feColorMatrix type="matrix" values="0 0 0 0 0 0 0 0 0 0 0 0 0 0 0 0 0 0 0.0272236 0"/>
<feBlend mode="normal" in2="BackgroundImageFix" result="effect1_dropShadow_4479_3673"/>
<feColorMatrix in="SourceAlpha" type="matrix" values="0 0 0 0 0 0 0 0 0 0 0 0 0 0 0 0 0 0 127 0" result="hardAlpha"/>
<feOffset dy="1.9759"/>
<feGaussianBlur stdDeviation="0.790362"/>
<feColorMatrix type="matrix" values="0 0 0 0 0 0 0 0 0 0 0 0 0 0 0 0 0 0 0.0395987 0"/>
<feBlend mode="normal" in2="effect1_dropShadow_4479_3673" result="effect2_dropShadow_4479_3673"/>
<feColorMatrix in="SourceAlpha" type="matrix" values="0 0 0 0 0 0 0 0 0 0 0 0 0 0 0 0 0 0 127 0" result="hardAlpha"/>
<feOffset dy="3.72064"/>
<feGaussianBlur stdDeviation="1.48832"/>
<feColorMatrix type="matrix" values="0 0 0 0 0 0 0 0 0 0 0 0 0 0 0 0 0 0 0.0493241 0"/>
<feBlend mode="normal" in2="effect2_dropShadow_4479_3673" result="effect3_dropShadow_4479_3673"/>
<feColorMatrix in="SourceAlpha" type="matrix" values="0 0 0 0 0 0 0 0 0 0 0 0 0 0 0 0 0 0 127 0" result="hardAlpha"/>
<feOffset dy="6.63666"/>
<feGaussianBlur stdDeviation="2.65484"/>
<feColorMatrix type="matrix" values="0 0 0 0 0 0 0 0 0 0 0 0 0 0 0 0 0 0 0.0588507 0"/>
<feBlend mode="normal" in2="effect3_dropShadow_4479_3673" result="effect4_dropShadow_4479_3673"/>
<feColorMatrix in="SourceAlpha" type="matrix" values="0 0 0 0 0 0 0 0 0 0 0 0 0 0 0 0 0 0 127 0" result="hardAlpha"/>
<feOffset dy="12.4134"/>
<feGaussianBlur stdDeviation="4.96531"/>
<feColorMatrix type="matrix" values="0 0 0 0 0 0 0 0 0 0 0 0 0 0 0 0 0 0 0.0703296 0"/>
<feBlend mode="normal" in2="effect4_dropShadow_4479_3673" result="effect5_dropShadow_4479_3673"/>
<feColorMatrix in="SourceAlpha" type="matrix" values="0 0 0 0 0 0 0 0 0 0 0 0 0 0 0 0 0 0 127 0" result="hardAlpha"/>
<feOffset dy="29.7128"/>
<feGaussianBlur stdDeviation="11.8851"/>
<feColorMatrix type="matrix" values="0 0 0 0 0 0 0 0 0 0 0 0 0 0 0 0 0 0 0.09 0"/>
<feBlend mode="normal" in2="effect5_dropShadow_4479_3673" result="effect6_dropShadow_4479_3673"/>
<feBlend mode="normal" in="SourceGraphic" in2="effect6_dropShadow_4479_3673" result="shape"/>
</filter>
<clipPath id="clip0_4479_3673">
<rect width="353.88" height="96.2696" fill="white"/>
</clipPath>
</defs>
</svg>
