<svg width="1191" height="324" fill="none" xmlns="http://www.w3.org/2000/svg"><g clip-path="url(#a)"><path d="m136.786 70.084 126.889 126.889-126.889 126.889L9.896 196.973l126.89-126.889Z" fill="#D31D2C"/><path d="m136.786 62.18 126.889 126.89-126.889 126.889L9.896 189.07l126.89-126.89Z" fill="#fff"/><path d="m136.786 97.596 109.181 109.181-109.181 109.182L27.605 206.777l109.181-109.18Z" fill="#FF5C5C"/><path d="m136.786 146.808 84.575 84.575-84.575 84.576-84.576-84.576 84.576-84.575Z" fill="#FF3A3A"/><path d="M43.13 129.992a6 6 0 0 0 8.238 8.726l-8.238-8.726Zm93.551-80.067 4.113-4.368a6 6 0 0 0-8.232.005l4.119 4.363Zm85.527 88.797a6 6 0 1 0 8.228-8.735l-8.228 8.735Zm-170.84-.004 89.431-84.43-8.237-8.726-89.432 84.43 8.238 8.726Zm81.199-84.425 89.641 84.429 8.228-8.735-89.642-84.43-8.227 8.736Z" fill="#D31D2C"/><path d="M43.13 124.486a6 6 0 0 0 8.238 8.726l-8.238-8.726Zm93.551-80.067 4.113-4.368a6 6 0 0 0-8.232.005l4.119 4.363Zm85.527 88.797a6 6 0 1 0 8.228-8.735l-8.228 8.735Zm-170.84-.004 89.431-84.43-8.237-8.726-89.432 84.43 8.238 8.726Zm81.199-84.425 89.641 84.429 8.228-8.735-89.642-84.43-8.227 8.736Z" fill="#fff"/><g filter="url(#b)"><path d="M153.472 51.009c65.674-20.015 78.228-37.65 43.189-35.704-13.334.74-139.423 27.222-139.423 45.887 0 3.15 14.142 14.835 96.234-10.183Z" stroke="#D31D2C" stroke-width="10"/></g><path d="M154.064 45.99c65.674-20.016 78.228-37.651 43.189-35.705-13.334.741-139.423 27.223-139.423 45.888 0 3.149 14.142 14.835 96.234-10.184Z" stroke="#fff" stroke-width="10"/><path d="M68.68 77.65c-4.535 1.191-6.047-6.105-6.236-9.903 18.717 2.492 29.279 2.174 48.235-1.333-5.85 4.06-14.258 27.938-22.985 28.418-8.728.48-10.116-18.322-12.532-19.286-2.416-.965-.813.613-6.482 2.103Z" fill="#D31D2C"/><path d="M441.896 229.107c0-34.262-21.273-53.796-49.04-53.796-27.921 0-49.04 19.534-49.04 53.796 0 34.108 21.119 53.795 49.04 53.795 27.767 0 49.04-19.534 49.04-53.795Zm-22.449 0c0 22.193-10.534 34.21-26.591 34.21-16.108 0-26.591-12.017-26.591-34.21 0-22.194 10.483-34.211 26.591-34.211 16.057 0 26.591 12.017 26.591 34.211Zm32.681 81.818h21.785v-42.034h.664c3.017 6.545 9.614 13.858 22.296 13.858 17.898 0 31.858-14.165 31.858-40.449 0-27-14.574-40.398-31.807-40.398-13.142 0-19.432 7.824-22.347 14.216h-.971v-13.193h-21.478v108Zm21.324-68.728c0-14.011 5.932-22.96 16.517-22.96 10.79 0 16.517 9.358 16.517 22.96 0 13.705-5.829 23.216-16.517 23.216-10.483 0-16.517-9.204-16.517-23.216Zm99.837 40.807c19.432 0 32.523-9.46 35.591-24.034l-20.148-1.329c-2.199 5.983-7.824 9.102-15.085 9.102-10.892 0-17.796-7.21-17.796-18.921v-.051h53.489v-5.983c0-26.693-16.159-39.886-36.92-39.886-23.114 0-38.097 16.415-38.097 40.653 0 24.904 14.778 40.449 38.966 40.449Zm-17.438-48.733c.461-8.949 7.262-16.108 16.927-16.108 9.46 0 16.005 6.75 16.056 16.108h-32.983Zm83.729 1.79c.051-10.125 6.085-16.057 14.881-16.057 8.744 0 14.011 5.728 13.96 15.341v46.125h21.784v-50.011c0-18.307-10.739-29.557-27.102-29.557-11.659 0-20.097 5.727-23.625 14.881h-.921v-13.858h-20.761v78.545h21.784v-45.409Zm146.824-29.199h21.221c-.306-18.665-15.647-31.551-38.965-31.551-22.961 0-39.785 12.682-39.682 31.705-.051 15.443 10.841 24.289 28.534 28.534l11.403 2.863c11.404 2.762 17.745 6.034 17.796 13.091-.051 7.671-7.313 12.887-18.563 12.887-11.506 0-19.79-5.319-20.506-15.801h-21.426c.563 22.653 16.773 34.363 42.188 34.363 25.568 0 40.602-12.221 40.653-31.398-.051-17.437-13.193-26.693-31.397-30.784l-9.41-2.25c-9.102-2.096-16.721-5.471-16.568-12.988 0-6.75 5.983-11.711 16.824-11.711 10.585 0 17.08 4.807 17.898 13.04Zm66.866 76.142c23.83 0 38.659-16.312 38.659-40.5 0-24.341-14.829-40.602-38.659-40.602-23.829 0-38.659 16.261-38.659 40.602 0 24.188 14.83 40.5 38.659 40.5Zm.103-16.875c-10.995 0-16.62-10.074-16.62-23.778 0-13.705 5.625-23.83 16.62-23.83 10.789 0 16.414 10.125 16.414 23.83 0 13.704-5.625 23.778-16.414 23.778Zm97.33-18.102c.052 10.534-7.159 16.057-14.983 16.057-8.232 0-13.551-5.779-13.602-15.034v-46.125h-21.784v50.011c.051 18.358 10.79 29.557 26.591 29.557 11.813 0 20.301-6.085 23.83-15.29h.818v14.267h20.915v-78.545h-21.785v45.102Zm33.449 33.443h21.788v-44.437c0-9.665 7.05-16.313 16.67-16.313 3.01 0 7.16.512 9.2 1.176v-19.329c-1.94-.46-4.65-.767-6.85-.767-8.8 0-16.01 5.113-18.87 14.829h-.82v-13.704h-21.118v78.545Zm84.998 1.534c20.91 0 34.05-12.272 35.08-30.324h-20.56c-1.28 8.387-6.8 13.091-14.27 13.091-10.17 0-16.77-8.539-16.77-23.574 0-14.829 6.65-23.318 16.77-23.318 7.98 0 13.09 5.267 14.27 13.091h20.56c-.92-18.153-14.68-30.068-35.19-30.068-23.83 0-38.55 16.517-38.55 40.602 0 23.881 14.47 40.5 38.66 40.5Zm79.06 0c19.43 0 32.52-9.46 35.59-24.034l-20.15-1.329c-2.2 5.983-7.82 9.102-15.08 9.102-10.9 0-17.8-7.21-17.8-18.921v-.051h53.49v-5.983c0-26.693-16.16-39.886-36.92-39.886-23.11 0-38.1 16.415-38.1 40.653 0 24.904 14.78 40.449 38.97 40.449Zm-17.44-48.733c.46-8.949 7.26-16.108 16.93-16.108 9.46 0 16 6.75 16.05 16.108h-32.98ZM354.864 70.448 347 148.525h16.331l3.753-37.269c1.636-1.041 5.376-2.707 9.357-2.707 4.389 0 5.453 2.603 5.065 6.455l-3.376 33.521h16.331l3.627-36.02c1.007-9.994-2.219-17.49-16.1-17.49-5.613 0-9.843 1.458-13.604 3.332l2.81-27.9h-16.33Zm91.041 57.554c2.97-16.344 3.117-33-18.708-33-15.807 0-24.744 8.744-26.629 27.483-1.886 18.738 5.392 27.483 22.22 27.483 6.119 0 13.373-1.145 19.539-3.644l1.31-13.013c-3.86 1.874-9.729 3.436-17.377 3.436-7.955 0-11.223-1.978-10.134-8.745h29.779Zm-19.761-20.508c6.221 0 6.984 4.58 5.49 10.306h-14.482c.66-6.558 3.485-10.306 8.992-10.306Zm27.759-11.034-5.238 52.051h16.316l3.75-37.269c1.634-1.041 5.371-2.707 9.348-2.707 4.384 0 5.448 2.603 5.061 6.454l-3.373 33.522h16.315l3.624-36.02c1.006-9.994-2.217-17.49-16.085-17.49-5.608 0-12.2 1.666-18.266 5.206l-1.663-3.748h-9.789Zm81.291 39.486c-.838.208-2.922.625-5.066.625-5.207 0-6.508-2.291-6.099-6.351l2.004-19.883h12.66l1.395-13.846h-12.66l1.478-14.678-16.786 4.476-1.08 10.723-8.501 2.29-1.112 11.035h8.27l-2.139 21.237C506.32 143.858 511.112 150 525.406 150c2.246 0 6.168-.417 8.477-1.041l1.311-13.013Zm35.007-1.698s-3.381 2.186-7.46 2.186c-7.546 0-8.674-4.996-7.773-13.949.89-8.849 3.035-13.95 10.581-13.95 4.078 0 7.019 2.186 7.019 2.186l-2.367 23.527Zm20.118-37.789h-9.789l-3.173 4.164c-3.254-3.123-7.795-5.621-15.953-5.621-13.256 0-20.62 8.328-22.548 27.483-1.927 19.155 3.761 27.483 17.017 27.483 8.158 0 13.235.208 17.118-2.915l2.301 1.457h9.789l5.238-52.05Zm1.224 52.096h16.282l5.259-52.05h-16.282l-5.259 52.05Zm5.249-67.146c-.568 5.622 3.199 9.89 8.729 9.89 5.427 0 10.159-4.268 10.727-9.89.558-5.517-3.301-9.89-8.729-9.89-5.529 0-10.17 4.373-10.727 9.89Zm49.084 68.583c24.074 0 32.177-16.657 34.577-40.496 2.4-23.84-2.35-40.496-26.424-40.496-24.074 0-32.177 16.656-34.577 40.496-2.399 23.839 2.351 40.496 26.424 40.496Zm6.634-65.897c10.098 0 13.252 7.183 11.418 25.401-1.834 18.218-6.433 25.401-16.532 25.401s-13.252-7.183-11.418-25.401c1.833-18.218 6.433-25.401 16.532-25.401Zm61.038 16.969c-7.844-1.146-10.625-2.915-10.059-8.537.503-4.997 5.469-7.703 13.939-7.703 7.755 0 16.014 2.082 19.988 4.164l1.625-16.136C735.669 70.874 728.205 69 717.797 69c-20.204 0-29.617 9.37-31.043 23.527-1.541 15.303 5.321 21.133 24.447 23.736 7.65 1.041 10.002 3.019 9.404 8.952-.534 5.31-4.268 8.953-15.799 8.953-10.102 0-18.275-3.956-21.637-6.038l-1.719 17.073c5.175 3.331 15.13 4.789 23.395 4.789 18.061 0 30.702-6.975 32.652-26.338 1.677-16.657-7.252-20.196-23.949-22.59Z" fill="#fff"/></g><defs><clipPath id="a"><path fill="#fff" d="M0 0h1191v324H0z"/></clipPath><filter id="b" x="-27.762" y="10.158" width="328.503" height="241.513" filterUnits="userSpaceOnUse" color-interpolation-filters="sRGB"><feFlood flood-opacity="0" result="BackgroundImageFix"/><feColorMatrix in="SourceAlpha" values="0 0 0 0 0 0 0 0 0 0 0 0 0 0 0 0 0 0 127 0"/><feOffset dy="2.767"/><feGaussianBlur stdDeviation="1.107"/><feColorMatrix values="0 0 0 0 0 0 0 0 0 0 0 0 0 0 0 0 0 0 0.0272236 0"/><feBlend in2="BackgroundImageFix" result="effect1_dropShadow"/><feColorMatrix in="SourceAlpha" values="0 0 0 0 0 0 0 0 0 0 0 0 0 0 0 0 0 0 127 0"/><feOffset dy="6.65"/><feGaussianBlur stdDeviation="2.66"/><feColorMatrix values="0 0 0 0 0 0 0 0 0 0 0 0 0 0 0 0 0 0 0.0395987 0"/><feBlend in2="effect1_dropShadow" result="effect2_dropShadow"/><feColorMatrix in="SourceAlpha" values="0 0 0 0 0 0 0 0 0 0 0 0 0 0 0 0 0 0 127 0"/><feOffset dy="12.522"/><feGaussianBlur stdDeviation="5.009"/><feColorMatrix values="0 0 0 0 0 0 0 0 0 0 0 0 0 0 0 0 0 0 0.0493241 0"/><feBlend in2="effect2_dropShadow" result="effect3_dropShadow"/><feColorMatrix in="SourceAlpha" values="0 0 0 0 0 0 0 0 0 0 0 0 0 0 0 0 0 0 127 0"/><feOffset dy="22.336"/><feGaussianBlur stdDeviation="8.935"/><feColorMatrix values="0 0 0 0 0 0 0 0 0 0 0 0 0 0 0 0 0 0 0.0588507 0"/><feBlend in2="effect3_dropShadow" result="effect4_dropShadow"/><feColorMatrix in="SourceAlpha" values="0 0 0 0 0 0 0 0 0 0 0 0 0 0 0 0 0 0 127 0"/><feOffset dy="41.778"/><feGaussianBlur stdDeviation="16.711"/><feColorMatrix values="0 0 0 0 0 0 0 0 0 0 0 0 0 0 0 0 0 0 0.0703296 0"/><feBlend in2="effect4_dropShadow" result="effect5_dropShadow"/><feColorMatrix in="SourceAlpha" values="0 0 0 0 0 0 0 0 0 0 0 0 0 0 0 0 0 0 127 0"/><feOffset dy="100"/><feGaussianBlur stdDeviation="40"/><feColorMatrix values="0 0 0 0 0 0 0 0 0 0 0 0 0 0 0 0 0 0 0.09 0"/><feBlend in2="effect5_dropShadow" result="effect6_dropShadow"/><feBlend in="SourceGraphic" in2="effect6_dropShadow" result="shape"/></filter></defs></svg>