<svg width="675" height="381" viewBox="0 0 675 381" fill="none" xmlns="http://www.w3.org/2000/svg">
<g clip-path="url(#clip0)">
<path d="M17.2235 67H24.4555V54.584H36.8075V47.352H24.4555V35H17.2235V47.352H4.8075V54.584H17.2235V67ZM44.4335 67H47.1855C50.3428 67 53.0735 66.3813 55.3775 65.144C57.7242 63.9067 59.5162 62.1787 60.7535 59.96C62.0335 57.7413 62.6735 55.16 62.6735 52.216V19.32H53.9055V52.536C53.9055 54.4987 53.2868 56.0773 52.0495 57.272C50.8548 58.424 49.2335 59 47.1855 59H44.4335V67ZM81.5265 67.768C86.0492 67.768 89.6758 66.2747 92.4065 63.288V67H100.343V43.832C100.343 41.4 99.7238 39.2453 98.4865 37.368C97.2492 35.4907 95.5425 34.04 93.3665 33.016C91.2332 31.9493 88.7372 31.416 85.8785 31.416C82.3798 31.416 79.2652 32.248 76.5345 33.912C73.8038 35.576 71.9265 37.7733 70.9025 40.504L77.7505 43.832C78.3905 42.2533 79.3932 40.9947 80.7585 40.056C82.1238 39.0747 83.7238 38.584 85.5585 38.584C87.4785 38.584 89.0145 39.096 90.1665 40.12C91.3612 41.1013 91.9585 42.3387 91.9585 43.832V44.984L81.5905 46.648C77.4945 47.3307 74.4652 48.632 72.5025 50.552C70.5398 52.472 69.5585 54.8827 69.5585 57.784C69.5585 60.856 70.6465 63.288 72.8225 65.08C74.9985 66.872 77.8998 67.768 81.5265 67.768ZM78.2625 57.464C78.2625 55.032 79.9052 53.496 83.1905 52.856L91.9585 51.384V52.792C91.9585 55.1813 91.1265 57.208 89.4625 58.872C87.8412 60.536 85.7078 61.368 83.0625 61.368C81.6545 61.368 80.5025 61.0267 79.6065 60.344C78.7105 59.6187 78.2625 58.6587 78.2625 57.464ZM108.092 67H116.476V56.376L120.956 51.512L130.748 67H140.347L127.228 46.2L140.092 32.184H129.66L116.476 46.008V18.552H108.092V67ZM155.589 67.768C160.112 67.768 163.738 66.2747 166.469 63.288V67H174.405V43.832C174.405 41.4 173.786 39.2453 172.549 37.368C171.312 35.4907 169.605 34.04 167.429 33.016C165.296 31.9493 162.8 31.416 159.941 31.416C156.442 31.416 153.328 32.248 150.597 33.912C147.866 35.576 145.989 37.7733 144.965 40.504L151.813 43.832C152.453 42.2533 153.456 40.9947 154.821 40.056C156.186 39.0747 157.786 38.584 159.621 38.584C161.541 38.584 163.077 39.096 164.229 40.12C165.424 41.1013 166.021 42.3387 166.021 43.832V44.984L155.653 46.648C151.557 47.3307 148.528 48.632 146.565 50.552C144.602 52.472 143.621 54.8827 143.621 57.784C143.621 60.856 144.709 63.288 146.885 65.08C149.061 66.872 151.962 67.768 155.589 67.768ZM152.325 57.464C152.325 55.032 153.968 53.496 157.253 52.856L166.021 51.384V52.792C166.021 55.1813 165.189 57.208 163.525 58.872C161.904 60.536 159.77 61.368 157.125 61.368C155.717 61.368 154.565 61.0267 153.669 60.344C152.773 59.6187 152.325 58.6587 152.325 57.464ZM182.154 67H190.538V47.608C190.538 44.9627 191.263 42.9147 192.714 41.464C194.207 39.9707 196.127 39.224 198.474 39.224H201.482V31.8H199.434C197.301 31.8 195.423 32.184 193.802 32.952C192.181 33.72 190.922 35.1067 190.026 37.112V32.184H182.154V67ZM222.901 67.384C224.309 67.384 225.696 67.2773 227.061 67.064V59.832C226.25 59.96 225.504 60.024 224.821 60.024C222.773 60.024 221.28 59.5547 220.341 58.616C219.402 57.6773 218.933 56.3333 218.933 54.584V39.672H226.933V32.184H218.933V24.248H210.549V26.936C210.549 28.6427 210.08 29.944 209.141 30.84C208.202 31.736 206.88 32.184 205.173 32.184H204.533V39.672H210.549V55.032C210.549 58.9147 211.616 61.944 213.749 64.12C215.925 66.296 218.976 67.384 222.901 67.384ZM243.839 67.768C248.362 67.768 251.988 66.2747 254.719 63.288V67H262.655V43.832C262.655 41.4 262.036 39.2453 260.799 37.368C259.562 35.4907 257.855 34.04 255.679 33.016C253.546 31.9493 251.05 31.416 248.191 31.416C244.692 31.416 241.578 32.248 238.847 33.912C236.116 35.576 234.239 37.7733 233.215 40.504L240.063 43.832C240.703 42.2533 241.706 40.9947 243.071 40.056C244.436 39.0747 246.036 38.584 247.871 38.584C249.791 38.584 251.327 39.096 252.479 40.12C253.674 41.1013 254.271 42.3387 254.271 43.832V44.984L243.903 46.648C239.807 47.3307 236.778 48.632 234.815 50.552C232.852 52.472 231.871 54.8827 231.871 57.784C231.871 60.856 232.959 63.288 235.135 65.08C237.311 66.872 240.212 67.768 243.839 67.768ZM240.575 57.464C240.575 55.032 242.218 53.496 245.503 52.856L254.271 51.384V52.792C254.271 55.1813 253.439 57.208 251.775 58.872C250.154 60.536 248.02 61.368 245.375 61.368C243.967 61.368 242.815 61.0267 241.919 60.344C241.023 59.6187 240.575 58.6587 240.575 57.464ZM288.132 67.768C291.417 67.768 294.297 67.1707 296.772 65.976C299.247 64.7813 301.188 63.1387 302.596 61.048C304.004 58.9573 304.708 56.5467 304.708 53.816C304.708 47.4587 300.911 43.064 293.316 40.632L284.548 37.88C282.841 37.3253 281.54 36.5573 280.644 35.576C279.791 34.552 279.364 33.3787 279.364 32.056C279.364 30.3067 280.025 28.8987 281.348 27.832C282.713 26.7227 284.505 26.168 286.724 26.168C289.199 26.168 291.375 26.8293 293.252 28.152C295.129 29.432 296.537 31.2667 297.476 33.656L304.644 30.456C303.364 26.872 301.124 23.992 297.924 21.816C294.767 19.64 291.033 18.552 286.724 18.552C283.609 18.552 280.836 19.1493 278.404 20.344C276.015 21.496 274.137 23.1173 272.772 25.208C271.449 27.2987 270.788 29.7093 270.788 32.44C270.788 35.5547 271.727 38.264 273.604 40.568C275.481 42.8293 278.276 44.5573 281.988 45.752L291.14 48.696C292.804 49.2507 294.041 49.976 294.852 50.872C295.705 51.768 296.132 52.92 296.132 54.328C296.132 56.0773 295.428 57.4853 294.02 58.552C292.655 59.6187 290.841 60.152 288.58 60.152C285.849 60.152 283.396 59.384 281.22 57.848C279.044 56.2693 277.38 54.1147 276.228 51.384L268.996 54.52C269.849 57.1653 271.193 59.4907 273.028 61.496C274.905 63.4587 277.124 64.9947 279.684 66.104C282.287 67.2133 285.103 67.768 288.132 67.768ZM322.089 67.768C326.612 67.768 330.238 66.2747 332.969 63.288V67H340.905V43.832C340.905 41.4 340.286 39.2453 339.049 37.368C337.812 35.4907 336.105 34.04 333.929 33.016C331.796 31.9493 329.3 31.416 326.441 31.416C322.942 31.416 319.828 32.248 317.097 33.912C314.366 35.576 312.489 37.7733 311.465 40.504L318.313 43.832C318.953 42.2533 319.956 40.9947 321.321 40.056C322.686 39.0747 324.286 38.584 326.121 38.584C328.041 38.584 329.577 39.096 330.729 40.12C331.924 41.1013 332.521 42.3387 332.521 43.832V44.984L322.153 46.648C318.057 47.3307 315.028 48.632 313.065 50.552C311.102 52.472 310.121 54.8827 310.121 57.784C310.121 60.856 311.209 63.288 313.385 65.08C315.561 66.872 318.462 67.768 322.089 67.768ZM318.825 57.464C318.825 55.032 320.468 53.496 323.753 52.856L332.521 51.384V52.792C332.521 55.1813 331.689 57.208 330.025 58.872C328.404 60.536 326.27 61.368 323.625 61.368C322.217 61.368 321.065 61.0267 320.169 60.344C319.273 59.6187 318.825 58.6587 318.825 57.464ZM348.654 67H357.038V46.584C357.038 44.3227 357.678 42.5093 358.958 41.144C360.281 39.7787 361.987 39.096 364.078 39.096C366.169 39.096 367.854 39.7787 369.134 41.144C370.457 42.4667 371.118 44.28 371.118 46.584V67H379.502V44.6C379.502 41.9973 378.947 39.7147 377.838 37.752C376.729 35.7467 375.171 34.1893 373.166 33.08C371.203 31.9707 368.942 31.416 366.382 31.416C364.206 31.416 362.243 31.8427 360.494 32.696C358.787 33.5493 357.465 34.808 356.526 36.472V32.184H348.654V67ZM399.84 67.768C402.485 67.768 404.789 67.32 406.752 66.424C408.714 65.528 410.25 64.2907 411.36 62.712C412.469 61.0907 413.024 59.2347 413.024 57.144C413.024 54.712 412.256 52.6213 410.72 50.872C409.184 49.1227 406.965 47.8427 404.064 47.032L398.496 45.368C397.301 45.0267 396.32 44.5787 395.552 44.024C394.784 43.4693 394.4 42.7013 394.4 41.72C394.4 40.696 394.805 39.864 395.616 39.224C396.426 38.584 397.536 38.264 398.944 38.264C400.693 38.264 402.272 38.7333 403.68 39.672C405.13 40.6107 406.133 41.8693 406.688 43.448L413.088 40.44C412.021 37.624 410.229 35.4267 407.712 33.848C405.194 32.2267 402.293 31.416 399.008 31.416C396.49 31.416 394.25 31.864 392.288 32.76C390.368 33.656 388.853 34.9147 387.744 36.536C386.677 38.1147 386.144 39.9707 386.144 42.104C386.144 44.4933 386.89 46.5627 388.384 48.312C389.92 50.0613 392.16 51.3627 395.104 52.216L400.8 53.816C401.909 54.1147 402.848 54.5627 403.616 55.16C404.426 55.7147 404.832 56.4827 404.832 57.464C404.832 58.616 404.362 59.5333 403.424 60.216C402.528 60.856 401.333 61.176 399.84 61.176C397.877 61.176 396.106 60.6213 394.528 59.512C392.949 58.4027 391.69 56.8667 390.752 54.904L384.48 57.912C385.504 60.8987 387.381 63.288 390.112 65.08C392.885 66.872 396.128 67.768 399.84 67.768ZM431.546 67H451.642C456.975 67 461.135 65.72 464.122 63.16C467.151 60.5573 468.666 56.9733 468.666 52.408C468.666 50.232 468.239 48.184 467.386 46.264C466.532 44.344 465.039 42.7013 462.906 41.336C464.228 40.1413 465.188 38.8187 465.786 37.368C466.426 35.9173 466.746 34.3813 466.746 32.76C466.746 28.5787 465.402 25.2933 462.714 22.904C460.026 20.5147 456.335 19.32 451.642 19.32H431.546V67ZM440.25 37.816V26.744H452.09C453.882 26.744 455.311 27.2347 456.378 28.216C457.444 29.1973 457.978 30.52 457.978 32.184C457.978 33.848 457.444 35.2133 456.378 36.28C455.311 37.304 453.882 37.816 452.09 37.816H440.25ZM440.25 59.32V45.432H452.538C454.799 45.432 456.591 46.072 457.914 47.352C459.279 48.5893 459.962 50.2747 459.962 52.408C459.962 54.4987 459.279 56.184 457.914 57.464C456.591 58.7013 454.799 59.32 452.538 59.32H440.25ZM492.116 67.768C495.486 67.768 498.558 67 501.332 65.464C504.105 63.8853 506.324 61.7307 507.988 59C509.652 56.2267 510.484 53.0907 510.484 49.592C510.484 46.0933 509.652 42.9787 507.988 40.248C506.366 37.5173 504.169 35.3627 501.396 33.784C498.622 32.2053 495.529 31.416 492.116 31.416C488.66 31.416 485.545 32.2053 482.772 33.784C479.998 35.3627 477.78 37.5173 476.116 40.248C474.494 42.9787 473.684 46.0933 473.684 49.592C473.684 53.0907 474.494 56.2053 476.116 58.936C477.78 61.6667 479.998 63.8213 482.772 65.4C485.588 66.9787 488.702 67.768 492.116 67.768ZM492.116 60.088C490.238 60.088 488.553 59.64 487.06 58.744C485.609 57.848 484.457 56.6107 483.604 55.032C482.793 53.4107 482.388 51.5973 482.388 49.592C482.388 47.5867 482.793 45.7947 483.604 44.216C484.457 42.6373 485.609 41.4 487.06 40.504C488.553 39.5653 490.238 39.096 492.116 39.096C493.993 39.096 495.636 39.5653 497.044 40.504C498.494 41.4 499.625 42.6373 500.436 44.216C501.289 45.7947 501.716 47.5867 501.716 49.592C501.716 51.5973 501.289 53.4107 500.436 55.032C499.625 56.6107 498.494 57.848 497.044 58.744C495.636 59.64 493.993 60.088 492.116 60.088ZM516.842 67H525.226V18.552H516.842V67ZM549.159 67.768C551.42 67.768 553.511 67.384 555.431 66.616C557.351 65.8053 558.951 64.6533 560.231 63.16V67H568.167V18.552H559.783V35.704C557.18 32.8453 553.617 31.416 549.095 31.416C545.809 31.416 542.823 32.2267 540.135 33.848C537.489 35.4267 535.399 37.6027 533.863 40.376C532.327 43.1067 531.559 46.1787 531.559 49.592C531.559 53.0053 532.327 56.0987 533.863 58.872C535.399 61.6027 537.489 63.7787 540.135 65.4C542.78 66.9787 545.788 67.768 549.159 67.768ZM550.055 60.088C548.177 60.088 546.492 59.64 544.999 58.744C543.505 57.848 542.332 56.6107 541.479 55.032C540.668 53.4107 540.263 51.5973 540.263 49.592C540.263 47.5867 540.668 45.7947 541.479 44.216C542.332 42.6373 543.505 41.4 544.999 40.504C546.492 39.5653 548.177 39.096 550.055 39.096C551.932 39.096 553.596 39.544 555.047 40.44C556.54 41.336 557.692 42.5733 558.503 44.152C559.356 45.7307 559.783 47.544 559.783 49.592C559.783 51.64 559.356 53.4533 558.503 55.032C557.692 56.6107 556.54 57.848 555.047 58.744C553.596 59.64 551.932 60.088 550.055 60.088ZM16.9035 167H22.4715V153.752H35.6555V148.184H22.4715V135H16.9035V148.184H3.6555V153.752H16.9035V167ZM42.825 167H45.449C49.6303 167 52.9583 165.763 55.433 163.288C57.9077 160.813 59.145 157.485 59.145 153.304V119.32H52.809V153.432C52.809 155.736 52.1477 157.571 50.825 158.936C49.5023 160.259 47.7103 160.92 45.449 160.92H42.825V167ZM79.0325 167.768C81.5498 167.768 83.8112 167.299 85.8165 166.36C87.8218 165.379 89.4432 164.099 90.6805 162.52V167H96.5045V143.576C96.5045 141.229 95.9285 139.181 94.7765 137.432C93.6672 135.64 92.1098 134.253 90.1045 133.272C88.0992 132.248 85.7738 131.736 83.1285 131.736C81.0805 131.736 79.1178 132.099 77.2405 132.824C75.3632 133.549 73.7205 134.552 72.3125 135.832C70.9045 137.069 69.8805 138.477 69.2405 140.056L74.4245 142.744C75.1498 141.123 76.2592 139.8 77.7525 138.776C79.2458 137.752 80.9952 137.24 83.0005 137.24C85.2618 137.24 87.0752 137.837 88.4405 139.032C89.8485 140.184 90.5525 141.699 90.5525 143.576V145.176L78.7765 147.096C74.8938 147.736 72.0352 149.037 70.2005 151C68.4085 152.92 67.5125 155.245 67.5125 157.976C67.5125 160.877 68.5792 163.245 70.7125 165.08C72.8885 166.872 75.6618 167.768 79.0325 167.768ZM73.7845 157.784C73.7845 156.291 74.2752 155.032 75.2565 154.008C76.2805 152.984 77.9018 152.28 80.1205 151.896L90.5525 150.168V152.344C90.5525 154.264 90.1045 156.013 89.2085 157.592C88.3125 159.171 87.0538 160.429 85.4325 161.368C83.8112 162.264 81.9125 162.712 79.7365 162.712C78.0298 162.712 76.6005 162.243 75.4485 161.304C74.3392 160.365 73.7845 159.192 73.7845 157.784ZM105.733 167H111.685V156.632L117.573 150.424L129.029 167H136.069L121.925 146.392L135.173 132.504H127.557L111.685 148.696V118.552H105.733V167ZM151.533 167.768C154.05 167.768 156.311 167.299 158.317 166.36C160.322 165.379 161.943 164.099 163.181 162.52V167H169.005V143.576C169.005 141.229 168.429 139.181 167.277 137.432C166.167 135.64 164.61 134.253 162.605 133.272C160.599 132.248 158.274 131.736 155.628 131.736C153.581 131.736 151.618 132.099 149.741 132.824C147.863 133.549 146.221 134.552 144.812 135.832C143.405 137.069 142.381 138.477 141.741 140.056L146.925 142.744C147.65 141.123 148.759 139.8 150.253 138.776C151.746 137.752 153.495 137.24 155.501 137.24C157.762 137.24 159.575 137.837 160.941 139.032C162.349 140.184 163.053 141.699 163.053 143.576V145.176L151.277 147.096C147.394 147.736 144.535 149.037 142.701 151C140.909 152.92 140.013 155.245 140.013 157.976C140.013 160.877 141.079 163.245 143.213 165.08C145.389 166.872 148.162 167.768 151.533 167.768ZM146.285 157.784C146.285 156.291 146.775 155.032 147.757 154.008C148.781 152.984 150.402 152.28 152.621 151.896L163.053 150.168V152.344C163.053 154.264 162.605 156.013 161.709 157.592C160.813 159.171 159.554 160.429 157.933 161.368C156.311 162.264 154.413 162.712 152.237 162.712C150.53 162.712 149.101 162.243 147.949 161.304C146.839 160.365 146.285 159.192 146.285 157.784ZM178.233 167H184.185V146.456C184.185 143.683 184.932 141.549 186.425 140.056C187.918 138.52 189.881 137.752 192.313 137.752H195.321V132.12H193.209C191.076 132.12 189.241 132.504 187.705 133.272C186.169 133.997 184.953 135.107 184.057 136.6V132.504H178.233V167ZM214.937 167.384C215.406 167.384 215.982 167.363 216.665 167.32C217.347 167.277 217.966 167.192 218.521 167.064V161.752C218.137 161.795 217.731 161.837 217.305 161.88C216.878 161.923 216.494 161.944 216.153 161.944C214.062 161.944 212.569 161.432 211.673 160.408C210.819 159.341 210.393 157.933 210.393 156.184V138.2H218.137V132.504H210.393V124.568H204.441V127.384C204.441 128.963 203.993 130.221 203.097 131.16C202.201 132.056 200.985 132.504 199.449 132.504H198.169V138.2H204.441V156.376C204.441 159.875 205.337 162.584 207.129 164.504C208.963 166.424 211.566 167.384 214.937 167.384ZM235.908 167.768C238.425 167.768 240.686 167.299 242.692 166.36C244.697 165.379 246.318 164.099 247.556 162.52V167H253.38V143.576C253.38 141.229 252.804 139.181 251.652 137.432C250.542 135.64 248.985 134.253 246.98 133.272C244.974 132.248 242.649 131.736 240.003 131.736C237.956 131.736 235.993 132.099 234.116 132.824C232.238 133.549 230.596 134.552 229.188 135.832C227.78 137.069 226.756 138.477 226.116 140.056L231.3 142.744C232.025 141.123 233.134 139.8 234.628 138.776C236.121 137.752 237.87 137.24 239.876 137.24C242.137 137.24 243.95 137.837 245.316 139.032C246.724 140.184 247.428 141.699 247.428 143.576V145.176L235.652 147.096C231.769 147.736 228.91 149.037 227.076 151C225.284 152.92 224.388 155.245 224.388 157.976C224.388 160.877 225.454 163.245 227.588 165.08C229.764 166.872 232.537 167.768 235.908 167.768ZM230.66 157.784C230.66 156.291 231.15 155.032 232.132 154.008C233.156 152.984 234.777 152.28 236.996 151.896L247.428 150.168V152.344C247.428 154.264 246.98 156.013 246.084 157.592C245.188 159.171 243.929 160.429 242.308 161.368C240.686 162.264 238.788 162.712 236.612 162.712C234.905 162.712 233.476 162.243 232.324 161.304C231.214 160.365 230.66 159.192 230.66 157.784ZM279.696 167.768C282.811 167.768 285.541 167.213 287.888 166.104C290.277 164.952 292.133 163.373 293.456 161.368C294.821 159.363 295.504 157.059 295.504 154.456C295.504 148.227 291.707 143.939 284.112 141.592L276.112 139.224C273.851 138.499 272.165 137.453 271.056 136.088C269.947 134.68 269.392 133.123 269.392 131.416C269.392 129.197 270.181 127.448 271.76 126.168C273.339 124.845 275.408 124.184 277.968 124.184C280.741 124.184 283.152 124.888 285.2 126.296C287.291 127.704 288.827 129.731 289.808 132.376L295.184 130.136C294.459 127.96 293.264 125.997 291.6 124.248C289.979 122.499 287.995 121.112 285.648 120.088C283.344 119.064 280.763 118.552 277.904 118.552C275.045 118.552 272.485 119.128 270.224 120.28C268.005 121.389 266.256 122.947 264.976 124.952C263.739 126.915 263.12 129.197 263.12 131.8C263.12 134.787 264.037 137.432 265.872 139.736C267.707 142.04 270.352 143.725 273.808 144.792L282.576 147.48C284.709 148.12 286.352 149.016 287.504 150.168C288.656 151.32 289.232 152.899 289.232 154.904C289.232 157.123 288.357 158.893 286.608 160.216C284.901 161.496 282.64 162.136 279.824 162.136C276.752 162.136 274.064 161.325 271.76 159.704C269.456 158.04 267.749 155.672 266.64 152.6L261.2 154.84C261.968 157.272 263.227 159.469 264.976 161.432C266.725 163.352 268.859 164.888 271.376 166.04C273.893 167.192 276.667 167.768 279.696 167.768ZM313.158 167.768C315.675 167.768 317.936 167.299 319.942 166.36C321.947 165.379 323.568 164.099 324.806 162.52V167H330.63V143.576C330.63 141.229 330.054 139.181 328.902 137.432C327.792 135.64 326.235 134.253 324.23 133.272C322.224 132.248 319.899 131.736 317.253 131.736C315.206 131.736 313.243 132.099 311.366 132.824C309.488 133.549 307.846 134.552 306.438 135.832C305.03 137.069 304.006 138.477 303.366 140.056L308.55 142.744C309.275 141.123 310.384 139.8 311.878 138.776C313.371 137.752 315.12 137.24 317.126 137.24C319.387 137.24 321.2 137.837 322.566 139.032C323.974 140.184 324.678 141.699 324.678 143.576V145.176L312.902 147.096C309.019 147.736 306.16 149.037 304.326 151C302.534 152.92 301.638 155.245 301.638 157.976C301.638 160.877 302.704 163.245 304.838 165.08C307.014 166.872 309.787 167.768 313.158 167.768ZM307.91 157.784C307.91 156.291 308.4 155.032 309.382 154.008C310.406 152.984 312.027 152.28 314.246 151.896L324.678 150.168V152.344C324.678 154.264 324.23 156.013 323.334 157.592C322.438 159.171 321.179 160.429 319.558 161.368C317.936 162.264 316.038 162.712 313.862 162.712C312.155 162.712 310.726 162.243 309.574 161.304C308.464 160.365 307.91 159.192 307.91 157.784ZM339.858 167H345.81V146.584C345.81 143.768 346.599 141.549 348.178 139.928C349.757 138.307 351.762 137.496 354.194 137.496C356.626 137.496 358.61 138.307 360.146 139.928C361.682 141.507 362.45 143.725 362.45 146.584V167H368.466V144.664C368.466 142.189 367.89 139.992 366.738 138.072C365.629 136.109 364.093 134.573 362.13 133.464C360.21 132.312 358.013 131.736 355.538 131.736C353.405 131.736 351.485 132.184 349.778 133.08C348.071 133.933 346.706 135.149 345.682 136.728V132.504H339.858V167ZM389.335 167.768C391.81 167.768 393.986 167.341 395.863 166.488C397.74 165.635 399.212 164.461 400.279 162.968C401.346 161.432 401.879 159.683 401.879 157.72C401.879 155.331 401.09 153.283 399.511 151.576C397.932 149.869 395.756 148.611 392.983 147.8L387.351 146.136C386.668 145.923 385.964 145.667 385.239 145.368C384.514 145.027 383.895 144.557 383.383 143.96C382.871 143.32 382.615 142.509 382.615 141.528C382.615 140.163 383.127 139.053 384.151 138.2C385.218 137.347 386.604 136.92 388.311 136.92C390.188 136.92 391.895 137.453 393.431 138.52C395.01 139.544 396.183 140.952 396.951 142.744L401.815 140.504C400.791 137.731 399.063 135.576 396.631 134.04C394.242 132.504 391.532 131.736 388.503 131.736C386.242 131.736 384.194 132.163 382.359 133.016C380.567 133.869 379.138 135.064 378.071 136.6C377.047 138.093 376.535 139.864 376.535 141.912C376.535 144.131 377.239 146.093 378.647 147.8C380.098 149.464 382.38 150.723 385.495 151.576L390.679 153.048C391.404 153.219 392.151 153.496 392.919 153.88C393.73 154.221 394.412 154.712 394.967 155.352C395.564 155.949 395.863 156.76 395.863 157.784C395.863 159.235 395.244 160.408 394.007 161.304C392.77 162.2 391.212 162.648 389.335 162.648C387.244 162.648 385.346 162.072 383.639 160.92C381.932 159.725 380.588 158.083 379.607 155.992L374.871 158.296C375.938 161.197 377.751 163.501 380.311 165.208C382.871 166.915 385.879 167.768 389.335 167.768ZM421.437 167H427.709V130.776L443.261 152.92H443.773L459.261 131.096V167H465.597V119.32H459.837L443.581 142.616L427.197 119.32H421.437V167ZM491.355 167.768C494.896 167.768 497.968 166.936 500.571 165.272C503.174 163.608 505.008 161.581 506.075 159.192L501.083 156.632C500.102 158.296 498.822 159.661 497.243 160.728C495.664 161.795 493.723 162.328 491.419 162.328C489.499 162.328 487.707 161.901 486.043 161.048C484.422 160.152 483.078 158.893 482.011 157.272C480.987 155.651 480.432 153.731 480.347 151.512H506.715C506.928 150.36 507.035 149.293 507.035 148.312C507.035 145.453 506.395 142.765 505.115 140.248C503.835 137.731 501.979 135.683 499.547 134.104C497.158 132.525 494.256 131.736 490.843 131.736C487.643 131.736 484.784 132.504 482.267 134.04C479.75 135.576 477.744 137.709 476.251 140.44C474.8 143.128 474.075 146.2 474.075 149.656C474.075 153.112 474.822 156.205 476.315 158.936C477.808 161.667 479.856 163.821 482.459 165.4C485.062 166.979 488.027 167.768 491.355 167.768ZM490.843 137.048C492.592 137.048 494.192 137.453 495.643 138.264C497.094 139.032 498.267 140.12 499.163 141.528C500.059 142.936 500.528 144.557 500.571 146.392H480.475C480.902 143.491 482.096 141.208 484.059 139.544C486.022 137.88 488.283 137.048 490.843 137.048ZM530.476 167.768C533.036 167.768 535.361 167.277 537.452 166.296C539.585 165.272 541.292 163.821 542.572 161.944V167H548.396V118.552H542.38V137.112C541.057 135.405 539.372 134.083 537.324 133.144C535.276 132.205 532.993 131.736 530.476 131.736C527.233 131.736 524.31 132.525 521.708 134.104C519.148 135.683 517.121 137.837 515.628 140.568C514.134 143.256 513.388 146.328 513.388 149.784C513.388 153.197 514.134 156.269 515.628 159C517.121 161.688 519.148 163.821 521.708 165.4C524.31 166.979 527.233 167.768 530.476 167.768ZM530.988 162.008C528.812 162.008 526.87 161.475 525.164 160.408C523.457 159.341 522.113 157.891 521.132 156.056C520.15 154.179 519.66 152.088 519.66 149.784C519.66 147.437 520.15 145.347 521.132 143.512C522.113 141.635 523.457 140.163 525.164 139.096C526.913 138.029 528.854 137.496 530.988 137.496C533.164 137.496 535.105 138.051 536.812 139.16C538.518 140.227 539.862 141.677 540.844 143.512C541.868 145.347 542.38 147.437 542.38 149.784C542.38 152.088 541.868 154.179 540.844 156.056C539.862 157.891 538.518 159.341 536.812 160.408C535.105 161.475 533.164 162.008 530.988 162.008ZM557.608 127H563.56V119.32H557.608V127ZM557.608 167H563.56V132.504H557.608V167ZM585.02 167.768C587.153 167.768 589.073 167.341 590.78 166.488C592.486 165.592 593.852 164.355 594.876 162.776V167H600.7V132.504H594.684V152.92C594.684 155.736 593.894 157.955 592.316 159.576C590.78 161.197 588.796 162.008 586.364 162.008C583.889 162.008 581.884 161.24 580.348 159.704C578.812 158.125 578.044 156.035 578.044 153.432V132.504H572.092V154.072C572.092 156.76 572.646 159.149 573.756 161.24C574.865 163.288 576.38 164.888 578.3 166.04C580.262 167.192 582.502 167.768 585.02 167.768ZM609.921 167H615.873V146.584C615.873 143.768 616.641 141.549 618.177 139.928C619.713 138.307 621.633 137.496 623.937 137.496C626.283 137.496 628.182 138.307 629.633 139.928C631.126 141.507 631.873 143.725 631.873 146.584V167H637.889V146.584C637.889 143.768 638.635 141.549 640.129 139.928C641.665 138.307 643.606 137.496 645.953 137.496C648.257 137.496 650.155 138.307 651.649 139.928C653.142 141.507 653.889 143.725 653.889 146.584V167H659.905V144.664C659.905 142.189 659.329 139.992 658.177 138.072C657.025 136.109 655.467 134.573 653.505 133.464C651.585 132.312 649.43 131.736 647.041 131.736C644.737 131.736 642.625 132.269 640.705 133.336C638.827 134.403 637.334 135.96 636.225 138.008C635.201 136.088 633.707 134.573 631.745 133.464C629.825 132.312 627.691 131.736 625.345 131.736C623.297 131.736 621.419 132.184 619.713 133.08C618.049 133.933 616.726 135.171 615.745 136.792V132.504H609.921V167ZM16.7115 267H21.5115V253.368H35.0795V248.568H21.5115V235H16.7115V248.568H3.0795V253.368H16.7115V267ZM42.02 267H44.58C48.5053 267 51.62 265.827 53.924 263.48C56.228 261.091 57.38 257.891 57.38 253.88V219.32H52.26V253.88C52.26 256.355 51.5773 258.317 50.212 259.768C48.8467 261.176 46.9693 261.88 44.58 261.88H42.02V267ZM77.848 267.768C80.4933 267.768 82.8827 267.235 85.016 266.168C87.1493 265.101 88.7707 263.736 89.88 262.072V267H94.68V243.448C94.68 241.187 94.1253 239.203 93.016 237.496C91.9493 235.747 90.4347 234.381 88.472 233.4C86.552 232.419 84.3333 231.928 81.816 231.928C79.896 231.928 78.04 232.291 76.248 233.016C74.456 233.699 72.856 234.637 71.448 235.832C70.0827 237.027 69.08 238.349 68.44 239.8L72.792 242.168C73.56 240.504 74.7333 239.16 76.312 238.136C77.8907 237.069 79.7253 236.536 81.816 236.536C84.2053 236.536 86.1467 237.176 87.64 238.456C89.1333 239.736 89.88 241.4 89.88 243.448V245.24L77.464 247.288C73.6667 247.928 70.8933 249.229 69.144 251.192C67.3947 253.155 66.52 255.459 66.52 258.104C66.52 259.981 67.0107 261.645 67.992 263.096C68.9733 264.547 70.3173 265.699 72.024 266.552C73.7307 267.363 75.672 267.768 77.848 267.768ZM71.64 257.912C71.64 256.333 72.1733 254.968 73.24 253.816C74.3493 252.664 76.1413 251.875 78.616 251.448L89.88 249.592V252.152C89.88 254.243 89.3893 256.141 88.408 257.848C87.4267 259.555 86.0613 260.92 84.312 261.944C82.5627 262.925 80.5147 263.416 78.168 263.416C76.248 263.416 74.6693 262.883 73.432 261.816C72.2373 260.749 71.64 259.448 71.64 257.912ZM104.553 267H109.353V256.696L115.881 249.976L128.233 267H133.993L119.337 246.456L132.777 232.696H126.569L109.353 250.104V218.552H104.553V267ZM149.536 267.768C152.181 267.768 154.57 267.235 156.704 266.168C158.837 265.101 160.458 263.736 161.568 262.072V267H166.368V243.448C166.368 241.187 165.813 239.203 164.704 237.496C163.637 235.747 162.122 234.381 160.16 233.4C158.24 232.419 156.021 231.928 153.503 231.928C151.584 231.928 149.728 232.291 147.936 233.016C146.144 233.699 144.544 234.637 143.135 235.832C141.77 237.027 140.768 238.349 140.128 239.8L144.48 242.168C145.248 240.504 146.421 239.16 148 238.136C149.578 237.069 151.413 236.536 153.503 236.536C155.893 236.536 157.834 237.176 159.328 238.456C160.821 239.736 161.568 241.4 161.568 243.448V245.24L149.152 247.288C145.354 247.928 142.581 249.229 140.832 251.192C139.082 253.155 138.208 255.459 138.208 258.104C138.208 259.981 138.698 261.645 139.68 263.096C140.661 264.547 142.005 265.699 143.712 266.552C145.418 267.363 147.36 267.768 149.536 267.768ZM143.328 257.912C143.328 256.333 143.861 254.968 144.928 253.816C146.037 252.664 147.829 251.875 150.304 251.448L161.568 249.592V252.152C161.568 254.243 161.077 256.141 160.096 257.848C159.114 259.555 157.749 260.92 156 261.944C154.25 262.925 152.202 263.416 149.856 263.416C147.936 263.416 146.357 262.883 145.12 261.816C143.925 260.749 143.328 259.448 143.328 257.912ZM176.241 267H181.041V245.88C181.041 243.064 181.787 240.888 183.281 239.352C184.774 237.816 186.758 237.048 189.233 237.048H192.241V232.248H190.065C187.974 232.248 186.161 232.611 184.625 233.336C183.131 234.061 181.937 235.085 181.041 236.408V232.696H176.241V267ZM210.986 267.384C211.37 267.384 211.882 267.363 212.522 267.32C213.162 267.277 213.738 267.192 214.25 267.064V262.712C213.908 262.755 213.503 262.797 213.034 262.84C212.564 262.883 212.159 262.904 211.818 262.904C209.684 262.904 208.212 262.349 207.402 261.24C206.591 260.131 206.186 258.723 206.186 257.016V237.496H213.738V232.696H206.186V224.76H201.385V227.64C201.385 229.091 200.959 230.307 200.106 231.288C199.252 232.227 198.1 232.696 196.65 232.696H195.049V237.496H201.385V257.016C201.385 260.344 202.218 262.904 203.882 264.696C205.546 266.488 207.914 267.384 210.986 267.384ZM231.973 267.768C234.618 267.768 237.008 267.235 239.141 266.168C241.274 265.101 242.896 263.736 244.005 262.072V267H248.805V243.448C248.805 241.187 248.25 239.203 247.141 237.496C246.074 235.747 244.56 234.381 242.597 233.4C240.677 232.419 238.458 231.928 235.941 231.928C234.021 231.928 232.165 232.291 230.373 233.016C228.581 233.699 226.981 234.637 225.573 235.832C224.208 237.027 223.205 238.349 222.565 239.8L226.917 242.168C227.685 240.504 228.858 239.16 230.437 238.136C232.016 237.069 233.85 236.536 235.941 236.536C238.33 236.536 240.272 237.176 241.765 238.456C243.258 239.736 244.005 241.4 244.005 243.448V245.24L231.589 247.288C227.792 247.928 225.018 249.229 223.269 251.192C221.52 253.155 220.645 255.459 220.645 258.104C220.645 259.981 221.136 261.645 222.117 263.096C223.098 264.547 224.442 265.699 226.149 266.552C227.856 267.363 229.797 267.768 231.973 267.768ZM225.765 257.912C225.765 256.333 226.298 254.968 227.365 253.816C228.474 252.664 230.266 251.875 232.741 251.448L244.005 249.592V252.152C244.005 254.243 243.514 256.141 242.533 257.848C241.552 259.555 240.186 260.92 238.437 261.944C236.688 262.925 234.64 263.416 232.293 263.416C230.373 263.416 228.794 262.883 227.557 261.816C226.362 260.749 225.765 259.448 225.765 257.912ZM275.446 267.768C278.475 267.768 281.142 267.213 283.446 266.104C285.793 264.995 287.606 263.48 288.886 261.56C290.209 259.597 290.87 257.336 290.87 254.776C290.87 251.619 289.91 248.995 287.99 246.904C286.07 244.813 283.233 243.213 279.478 242.104L271.926 239.864C269.366 239.096 267.467 237.944 266.23 236.408C264.993 234.829 264.374 233.059 264.374 231.096C264.374 228.664 265.227 226.744 266.934 225.336C268.641 223.885 270.859 223.16 273.59 223.16C276.491 223.16 279.009 223.885 281.142 225.336C283.318 226.787 284.918 228.92 285.942 231.736L290.422 229.944C289.739 227.853 288.609 225.955 287.03 224.248C285.451 222.541 283.51 221.176 281.206 220.152C278.945 219.085 276.385 218.552 273.526 218.552C270.795 218.552 268.342 219.107 266.166 220.216C264.033 221.325 262.347 222.861 261.11 224.824C259.873 226.744 259.254 228.963 259.254 231.48C259.254 234.424 260.15 237.048 261.942 239.352C263.777 241.656 266.379 243.299 269.75 244.28L278.326 246.84C280.715 247.523 282.55 248.504 283.83 249.784C285.11 251.064 285.75 252.877 285.75 255.224C285.75 257.613 284.79 259.533 282.87 260.984C280.993 262.435 278.518 263.16 275.446 263.16C272.203 263.16 269.409 262.328 267.062 260.664C264.715 258.957 262.987 256.483 261.878 253.24L257.27 254.968C257.995 257.315 259.211 259.469 260.918 261.432C262.625 263.352 264.715 264.888 267.19 266.04C269.665 267.192 272.417 267.768 275.446 267.768ZM308.723 267.768C311.368 267.768 313.758 267.235 315.891 266.168C318.024 265.101 319.646 263.736 320.755 262.072V267H325.555V243.448C325.555 241.187 325 239.203 323.891 237.496C322.824 235.747 321.31 234.381 319.347 233.4C317.427 232.419 315.208 231.928 312.691 231.928C310.771 231.928 308.915 232.291 307.123 233.016C305.331 233.699 303.731 234.637 302.323 235.832C300.958 237.027 299.955 238.349 299.315 239.8L303.667 242.168C304.435 240.504 305.608 239.16 307.187 238.136C308.766 237.069 310.6 236.536 312.691 236.536C315.08 236.536 317.022 237.176 318.515 238.456C320.008 239.736 320.755 241.4 320.755 243.448V245.24L308.339 247.288C304.542 247.928 301.768 249.229 300.019 251.192C298.27 253.155 297.395 255.459 297.395 258.104C297.395 259.981 297.886 261.645 298.867 263.096C299.848 264.547 301.192 265.699 302.899 266.552C304.606 267.363 306.547 267.768 308.723 267.768ZM302.515 257.912C302.515 256.333 303.048 254.968 304.115 253.816C305.224 252.664 307.016 251.875 309.491 251.448L320.755 249.592V252.152C320.755 254.243 320.264 256.141 319.283 257.848C318.302 259.555 316.936 260.92 315.187 261.944C313.438 262.925 311.39 263.416 309.043 263.416C307.123 263.416 305.544 262.883 304.307 261.816C303.112 260.749 302.515 259.448 302.515 257.912ZM335.428 267H340.228V246.584C340.228 243.512 341.081 241.101 342.788 239.352C344.495 237.603 346.649 236.728 349.252 236.728C351.897 236.728 354.031 237.603 355.652 239.352C357.316 241.059 358.148 243.469 358.148 246.584V267H362.948V244.728C362.948 242.296 362.372 240.12 361.22 238.2C360.111 236.237 358.575 234.701 356.612 233.592C354.692 232.483 352.516 231.928 350.084 231.928C347.951 231.928 346.031 232.376 344.324 233.272C342.617 234.168 341.252 235.384 340.228 236.92V232.696H335.428V267ZM384.02 267.768C386.409 267.768 388.521 267.363 390.356 266.552C392.19 265.699 393.62 264.525 394.644 263.032C395.71 261.539 396.244 259.853 396.244 257.976C396.244 255.672 395.454 253.667 393.876 251.96C392.34 250.253 390.185 248.995 387.412 248.184L381.716 246.52C381.118 246.349 380.414 246.093 379.604 245.752C378.836 245.411 378.153 244.899 377.556 244.216C376.958 243.533 376.66 242.616 376.66 241.464C376.66 239.971 377.236 238.733 378.388 237.752C379.54 236.771 381.076 236.28 382.996 236.28C384.958 236.28 386.729 236.835 388.308 237.944C389.929 239.011 391.166 240.504 392.02 242.424L396.116 240.504C395.134 237.816 393.449 235.725 391.06 234.232C388.713 232.696 386.089 231.928 383.188 231.928C381.054 231.928 379.113 232.333 377.364 233.144C375.614 233.955 374.228 235.107 373.204 236.6C372.18 238.093 371.668 239.843 371.668 241.848C371.668 243.981 372.372 245.859 373.78 247.48C375.188 249.101 377.47 250.36 380.628 251.256L385.556 252.664C386.238 252.835 387.028 253.112 387.924 253.496C388.82 253.88 389.609 254.435 390.292 255.16C390.974 255.843 391.316 256.781 391.316 257.976C391.316 259.597 390.612 260.92 389.204 261.944C387.796 262.925 386.068 263.416 384.02 263.416C381.886 263.416 379.924 262.797 378.132 261.56C376.382 260.323 375.017 258.659 374.036 256.568L370.004 258.488C371.113 261.347 372.905 263.608 375.38 265.272C377.854 266.936 380.734 267.768 384.02 267.768ZM416.257 267H421.377V248.44H433.025L443.521 267H449.537L438.401 247.608C441.43 246.627 443.82 244.941 445.569 242.552C447.361 240.163 448.257 237.283 448.257 233.912C448.257 231.011 447.596 228.472 446.273 226.296C444.993 224.077 443.18 222.371 440.833 221.176C438.486 219.939 435.756 219.32 432.641 219.32H416.257V267ZM421.377 243.64V224.12H432.897C435.969 224.12 438.444 224.995 440.321 226.744C442.198 228.451 443.137 230.819 443.137 233.848C443.137 236.877 442.198 239.267 440.321 241.016C438.444 242.765 435.969 243.64 432.897 243.64H421.377ZM470.232 267.768C472.578 267.768 474.712 267.384 476.632 266.616C478.594 265.805 480.28 264.76 481.688 263.48C483.096 262.157 484.141 260.728 484.824 259.192L480.728 257.016C479.661 258.808 478.274 260.301 476.568 261.496C474.861 262.691 472.749 263.288 470.232 263.288C468.184 263.288 466.264 262.797 464.472 261.816C462.68 260.835 461.208 259.469 460.056 257.72C458.946 255.928 458.349 253.795 458.264 251.32H485.272C485.357 250.765 485.421 250.232 485.464 249.72C485.506 249.165 485.528 248.675 485.528 248.248C485.528 246.2 485.165 244.216 484.44 242.296C483.714 240.333 482.669 238.584 481.304 237.048C479.938 235.469 478.274 234.232 476.312 233.336C474.392 232.397 472.194 231.928 469.72 231.928C466.605 231.928 463.789 232.696 461.272 234.232C458.797 235.768 456.834 237.88 455.384 240.568C453.933 243.213 453.208 246.264 453.208 249.72C453.208 253.176 453.954 256.269 455.448 259C456.941 261.731 458.968 263.885 461.528 265.464C464.13 267 467.032 267.768 470.232 267.768ZM469.72 236.408C471.64 236.408 473.389 236.856 474.968 237.752C476.589 238.648 477.869 239.885 478.808 241.464C479.789 243 480.301 244.792 480.344 246.84H458.392C458.648 244.707 459.309 242.872 460.376 241.336C461.485 239.757 462.85 238.541 464.472 237.688C466.093 236.835 467.842 236.408 469.72 236.408ZM510.247 281.08C513.404 281.08 516.199 280.397 518.631 279.032C521.105 277.709 523.025 275.875 524.391 273.528C525.799 271.224 526.503 268.6 526.503 265.656V232.696H521.703V237.88C520.337 236.045 518.588 234.595 516.455 233.528C514.321 232.461 511.996 231.928 509.479 231.928C506.236 231.928 503.335 232.696 500.775 234.232C498.257 235.768 496.252 237.837 494.759 240.44C493.308 243.043 492.583 245.965 492.583 249.208C492.583 252.408 493.308 255.331 494.759 257.976C496.252 260.579 498.279 262.648 500.839 264.184C503.399 265.72 506.279 266.488 509.479 266.488C511.996 266.488 514.343 265.933 516.519 264.824C518.695 263.715 520.423 262.157 521.703 260.152V265.656C521.703 267.96 521.169 269.901 520.103 271.48C519.036 273.059 517.628 274.253 515.879 275.064C514.129 275.875 512.209 276.28 510.119 276.28C507.388 276.28 505.148 275.683 503.399 274.488C501.649 273.293 500.433 271.885 499.751 270.264L495.335 272.632C496.487 275.107 498.364 277.133 500.967 278.712C503.612 280.291 506.705 281.08 510.247 281.08ZM509.735 261.688C507.431 261.688 505.361 261.133 503.527 260.024C501.735 258.872 500.305 257.357 499.239 255.48C498.215 253.56 497.703 251.469 497.703 249.208C497.703 246.904 498.215 244.813 499.239 242.936C500.305 241.059 501.756 239.565 503.591 238.456C505.425 237.304 507.473 236.728 509.735 236.728C511.953 236.728 513.959 237.304 515.751 238.456C517.543 239.565 518.972 241.08 520.039 243C521.148 244.877 521.703 246.947 521.703 249.208C521.703 251.469 521.148 253.56 520.039 255.48C518.972 257.357 517.543 258.872 515.751 260.024C513.959 261.133 511.953 261.688 509.735 261.688ZM548.526 267.768C550.659 267.768 552.579 267.32 554.286 266.424C555.992 265.528 557.358 264.312 558.382 262.776V267H563.182V232.696H558.382V253.112C558.382 256.184 557.528 258.595 555.822 260.344C554.158 262.093 552.003 262.968 549.358 262.968C546.755 262.968 544.622 262.136 542.958 260.472C541.294 258.765 540.462 256.525 540.462 253.752V232.696H535.661V254.328C535.661 256.973 536.216 259.32 537.326 261.368C538.478 263.373 540.035 264.952 541.998 266.104C543.96 267.213 546.136 267.768 548.526 267.768ZM573.053 267H577.853V218.552H573.053V267ZM597.598 267.768C600.243 267.768 602.633 267.235 604.766 266.168C606.899 265.101 608.521 263.736 609.63 262.072V267H614.43V243.448C614.43 241.187 613.875 239.203 612.766 237.496C611.699 235.747 610.185 234.381 608.222 233.4C606.302 232.419 604.083 231.928 601.566 231.928C599.646 231.928 597.79 232.291 595.998 233.016C594.206 233.699 592.606 234.637 591.198 235.832C589.833 237.027 588.83 238.349 588.19 239.8L592.542 242.168C593.31 240.504 594.483 239.16 596.062 238.136C597.641 237.069 599.475 236.536 601.566 236.536C603.955 236.536 605.897 237.176 607.39 238.456C608.883 239.736 609.63 241.4 609.63 243.448V245.24L597.214 247.288C593.417 247.928 590.643 249.229 588.894 251.192C587.145 253.155 586.27 255.459 586.27 258.104C586.27 259.981 586.761 261.645 587.742 263.096C588.723 264.547 590.067 265.699 591.774 266.552C593.481 267.363 595.422 267.768 597.598 267.768ZM591.39 257.912C591.39 256.333 591.923 254.968 592.99 253.816C594.099 252.664 595.891 251.875 598.366 251.448L609.63 249.592V252.152C609.63 254.243 609.139 256.141 608.158 257.848C607.177 259.555 605.811 260.92 604.062 261.944C602.313 262.925 600.265 263.416 597.918 263.416C595.998 263.416 594.419 262.883 593.182 261.816C591.987 260.749 591.39 259.448 591.39 257.912ZM624.303 267H629.103V245.88C629.103 243.064 629.85 240.888 631.343 239.352C632.836 237.816 634.82 237.048 637.295 237.048H640.303V232.248H638.127C636.036 232.248 634.223 232.611 632.687 233.336C631.194 234.061 629.999 235.085 629.103 236.408V232.696H624.303V267ZM17.0315 367H20.8715V352.856H34.9515V349.016H20.8715V335H17.0315V349.016H2.9515V352.856H17.0315V367ZM42.029 367H44.525C48.1943 367 51.117 365.869 53.293 363.608C55.5117 361.304 56.621 358.211 56.621 354.328V319.32H52.461V354.2C52.461 356.931 51.757 359.064 50.349 360.6C48.941 362.093 46.9997 362.84 44.525 362.84H42.029V367ZM77.6025 367.768C80.4612 367.768 82.9998 367.128 85.2185 365.848C87.4798 364.525 89.1225 362.947 90.1465 361.112V367H93.9865V343.512C93.9865 341.293 93.4318 339.352 92.3225 337.688C91.2558 335.981 89.7838 334.659 87.9065 333.72C86.0292 332.739 83.8532 332.248 81.3785 332.248C79.4158 332.248 77.5598 332.589 75.8105 333.272C74.0612 333.955 72.5252 334.872 71.2025 336.024C69.8798 337.176 68.8985 338.435 68.2585 339.8L71.7145 341.656C72.6105 339.907 73.9118 338.52 75.6185 337.496C77.3252 336.429 79.2452 335.896 81.3785 335.896C83.9812 335.896 86.0932 336.6 87.7145 338.008C89.3358 339.416 90.1465 341.251 90.1465 343.512V345.432L77.4105 347.544C73.4852 348.227 70.6692 349.549 68.9625 351.512C67.2985 353.475 66.4665 355.693 66.4665 358.168C66.4665 360.045 66.9572 361.709 67.9385 363.16C68.9198 364.611 70.2425 365.741 71.9065 366.552C73.6132 367.363 75.5118 367.768 77.6025 367.768ZM70.4985 358.04C70.4985 356.333 71.0958 354.84 72.2905 353.56C73.4852 352.28 75.5332 351.405 78.4345 350.936L90.1465 349.016V351.96C90.1465 354.179 89.6345 356.227 88.6105 358.104C87.5865 359.981 86.1572 361.475 84.3225 362.584C82.4878 363.693 80.3332 364.248 77.8585 364.248C75.7678 364.248 74.0185 363.672 72.6105 362.52C71.2025 361.368 70.4985 359.875 70.4985 358.04ZM104.562 367H108.402V356.44L115.186 349.464L128.242 367H133.042L118.066 346.712L131.762 333.016H126.514L108.402 351V318.552H104.562V367ZM149.103 367.768C151.961 367.768 154.5 367.128 156.719 365.848C158.98 364.525 160.623 362.947 161.647 361.112V367H165.487V343.512C165.487 341.293 164.932 339.352 163.823 337.688C162.756 335.981 161.284 334.659 159.407 333.72C157.529 332.739 155.353 332.248 152.878 332.248C150.916 332.248 149.06 332.589 147.311 333.272C145.561 333.955 144.025 334.872 142.703 336.024C141.38 337.176 140.399 338.435 139.759 339.8L143.215 341.656C144.111 339.907 145.412 338.52 147.119 337.496C148.825 336.429 150.745 335.896 152.878 335.896C155.481 335.896 157.593 336.6 159.215 338.008C160.836 339.416 161.647 341.251 161.647 343.512V345.432L148.911 347.544C144.985 348.227 142.169 349.549 140.463 351.512C138.799 353.475 137.967 355.693 137.967 358.168C137.967 360.045 138.457 361.709 139.439 363.16C140.42 364.611 141.743 365.741 143.407 366.552C145.113 367.363 147.012 367.768 149.103 367.768ZM141.999 358.04C141.999 356.333 142.596 354.84 143.791 353.56C144.985 352.28 147.033 351.405 149.935 350.936L161.647 349.016V351.96C161.647 354.179 161.135 356.227 160.111 358.104C159.087 359.981 157.657 361.475 155.823 362.584C153.988 363.693 151.833 364.248 149.359 364.248C147.268 364.248 145.519 363.672 144.111 362.52C142.703 361.368 141.999 359.875 141.999 358.04ZM176.062 367H179.902V346.2C179.902 343.213 180.691 340.845 182.27 339.096C183.891 337.304 186.067 336.408 188.798 336.408H191.422V332.568H189.246C187.155 332.568 185.299 332.995 183.678 333.848C182.057 334.659 180.798 335.811 179.902 337.304V333.016H176.062V367ZM210.102 367.384C210.443 367.384 210.912 367.363 211.51 367.32C212.107 367.277 212.64 367.192 213.11 367.064V363.544C212.811 363.587 212.406 363.629 211.894 363.672C211.424 363.715 211.019 363.736 210.678 363.736C209.142 363.736 207.968 363.459 207.158 362.904C206.347 362.349 205.792 361.624 205.494 360.728C205.238 359.832 205.11 358.915 205.11 357.976V336.664H212.534V333.016H205.11V325.08H201.27V328.728C201.27 330.051 200.907 331.096 200.182 331.864C199.499 332.632 198.539 333.016 197.302 333.016H194.87V336.664H201.27V357.976C201.27 361.048 202.016 363.395 203.51 365.016C205.046 366.595 207.243 367.384 210.102 367.384ZM231.103 367.768C233.961 367.768 236.5 367.128 238.719 365.848C240.98 364.525 242.623 362.947 243.647 361.112V367H247.487V343.512C247.487 341.293 246.932 339.352 245.823 337.688C244.756 335.981 243.284 334.659 241.407 333.72C239.529 332.739 237.353 332.248 234.878 332.248C232.916 332.248 231.06 332.589 229.311 333.272C227.561 333.955 226.025 334.872 224.703 336.024C223.38 337.176 222.399 338.435 221.759 339.8L225.215 341.656C226.111 339.907 227.412 338.52 229.119 337.496C230.825 336.429 232.745 335.896 234.878 335.896C237.481 335.896 239.593 336.6 241.215 338.008C242.836 339.416 243.647 341.251 243.647 343.512V345.432L230.911 347.544C226.985 348.227 224.169 349.549 222.463 351.512C220.799 353.475 219.967 355.693 219.967 358.168C219.967 360.045 220.457 361.709 221.439 363.16C222.42 364.611 223.743 365.741 225.407 366.552C227.113 367.363 229.012 367.768 231.103 367.768ZM223.999 358.04C223.999 356.333 224.596 354.84 225.791 353.56C226.985 352.28 229.033 351.405 231.935 350.936L243.647 349.016V351.96C243.647 354.179 243.135 356.227 242.111 358.104C241.087 359.981 239.657 361.475 237.823 362.584C235.988 363.693 233.833 364.248 231.359 364.248C229.268 364.248 227.519 363.672 226.111 362.52C224.703 361.368 223.999 359.875 223.999 358.04ZM274.254 367.768C277.198 367.768 279.801 367.235 282.062 366.168C284.323 365.059 286.094 363.544 287.374 361.624C288.654 359.704 289.294 357.507 289.294 355.032C289.294 351.96 288.355 349.379 286.478 347.288C284.643 345.155 282.019 343.576 278.606 342.552L270.798 340.248C267.897 339.352 265.827 338.136 264.59 336.6C263.353 335.021 262.734 333.165 262.734 331.032C262.734 328.344 263.651 326.211 265.486 324.632C267.363 323.011 269.731 322.2 272.59 322.2C275.491 322.2 278.03 322.968 280.206 324.504C282.425 326.04 284.067 328.259 285.134 331.16L288.782 329.816C288.142 327.768 287.054 325.891 285.518 324.184C284.025 322.477 282.169 321.112 279.95 320.088C277.731 319.064 275.257 318.552 272.526 318.552C269.881 318.552 267.513 319.085 265.422 320.152C263.331 321.219 261.667 322.712 260.43 324.632C259.235 326.509 258.638 328.707 258.638 331.224C258.638 334.083 259.491 336.664 261.198 338.968C262.905 341.272 265.507 342.936 269.006 343.96L277.71 346.52C279.886 347.16 281.678 348.163 283.086 349.528C284.494 350.851 285.198 352.749 285.198 355.224C285.198 357.955 284.174 360.109 282.126 361.688C280.078 363.267 277.433 364.056 274.19 364.056C270.905 364.056 268.067 363.203 265.678 361.496C263.331 359.789 261.561 357.315 260.366 354.072L256.654 355.416C257.337 357.592 258.467 359.619 260.046 361.496C261.667 363.373 263.673 364.888 266.062 366.04C268.494 367.192 271.225 367.768 274.254 367.768ZM307.665 367.768C310.524 367.768 313.062 367.128 315.281 365.848C317.542 364.525 319.185 362.947 320.209 361.112V367H324.049V343.512C324.049 341.293 323.494 339.352 322.385 337.688C321.318 335.981 319.846 334.659 317.969 333.72C316.092 332.739 313.916 332.248 311.441 332.248C309.478 332.248 307.622 332.589 305.873 333.272C304.124 333.955 302.588 334.872 301.265 336.024C299.942 337.176 298.961 338.435 298.321 339.8L301.777 341.656C302.673 339.907 303.974 338.52 305.681 337.496C307.388 336.429 309.308 335.896 311.441 335.896C314.044 335.896 316.156 336.6 317.777 338.008C319.398 339.416 320.209 341.251 320.209 343.512V345.432L307.473 347.544C303.548 348.227 300.732 349.549 299.025 351.512C297.361 353.475 296.529 355.693 296.529 358.168C296.529 360.045 297.02 361.709 298.001 363.16C298.982 364.611 300.305 365.741 301.969 366.552C303.676 367.363 305.574 367.768 307.665 367.768ZM300.561 358.04C300.561 356.333 301.158 354.84 302.353 353.56C303.548 352.28 305.596 351.405 308.497 350.936L320.209 349.016V351.96C320.209 354.179 319.697 356.227 318.673 358.104C317.649 359.981 316.22 361.475 314.385 362.584C312.55 363.693 310.396 364.248 307.921 364.248C305.83 364.248 304.081 363.672 302.673 362.52C301.265 361.368 300.561 359.875 300.561 358.04ZM334.625 367H338.465V346.52C338.465 343.448 339.318 340.931 341.025 338.968C342.774 337.005 345.099 336.024 348.001 336.024C350.731 336.024 352.993 336.899 354.785 338.648C356.577 340.397 357.473 342.808 357.473 345.88V367H361.312V344.792C361.312 342.317 360.737 340.141 359.585 338.264C358.433 336.387 356.897 334.915 354.977 333.848C353.057 332.781 350.923 332.248 348.577 332.248C346.401 332.248 344.417 332.717 342.625 333.656C340.833 334.595 339.446 335.896 338.465 337.56V333.016H334.625V367ZM382.706 367.768C384.967 367.768 386.994 367.363 388.786 366.552C390.578 365.699 391.986 364.547 393.01 363.096C394.034 361.645 394.546 360.003 394.546 358.168C394.546 355.907 393.778 353.944 392.242 352.28C390.748 350.616 388.615 349.4 385.842 348.632L380.146 346.968C378.78 346.584 377.543 345.987 376.434 345.176C375.324 344.323 374.77 343.107 374.77 341.528C374.77 339.864 375.41 338.499 376.69 337.432C377.97 336.323 379.634 335.768 381.682 335.768C383.644 335.768 385.436 336.323 387.058 337.432C388.679 338.499 389.938 339.992 390.834 341.912L394.29 340.312C393.351 337.837 391.73 335.875 389.426 334.424C387.122 332.973 384.562 332.248 381.746 332.248C379.74 332.248 377.906 332.653 376.242 333.464C374.578 334.232 373.255 335.341 372.274 336.792C371.292 338.2 370.802 339.864 370.802 341.784C370.802 343.917 371.484 345.773 372.85 347.352C374.258 348.888 376.434 350.083 379.378 350.936L384.626 352.408C386.119 352.835 387.484 353.496 388.722 354.392C389.959 355.288 390.578 356.568 390.578 358.232C390.578 360.024 389.81 361.475 388.274 362.584C386.78 363.651 384.924 364.184 382.706 364.184C380.53 364.184 378.546 363.587 376.754 362.392C374.962 361.155 373.532 359.491 372.466 357.4L369.138 358.936C370.247 361.667 371.996 363.821 374.385 365.4C376.818 366.979 379.591 367.768 382.706 367.768ZM415.329 367H440.929V363.16H419.489V319.32H415.329V367ZM448.687 326.36H452.527V319.32H448.687V326.36ZM448.687 367H452.527V333.016H448.687V367ZM478.934 381.08C482.049 381.08 484.801 380.419 487.19 379.096C489.622 377.773 491.521 375.939 492.886 373.592C494.251 371.288 494.934 368.664 494.934 365.72V333.016H491.094V339.16C489.729 337.027 487.937 335.341 485.718 334.104C483.499 332.867 481.003 332.248 478.23 332.248C475.03 332.248 472.171 333.016 469.654 334.552C467.179 336.088 465.217 338.157 463.766 340.76C462.358 343.32 461.654 346.179 461.654 349.336C461.654 352.493 462.358 355.373 463.766 357.976C465.217 360.579 467.179 362.648 469.654 364.184C472.171 365.72 475.03 366.488 478.23 366.488C480.961 366.488 483.457 365.848 485.718 364.568C487.979 363.288 489.771 361.539 491.094 359.32V365.72C491.094 368.323 490.497 370.477 489.302 372.184C488.15 373.891 486.635 375.171 484.758 376.024C482.923 376.877 480.961 377.304 478.87 377.304C476.267 377.304 474.006 376.707 472.086 375.512C470.209 374.317 468.779 372.803 467.798 370.968L464.342 372.824C465.537 375.213 467.414 377.176 469.974 378.712C472.577 380.291 475.563 381.08 478.934 381.08ZM478.358 362.648C475.926 362.648 473.75 362.051 471.83 360.856C469.953 359.661 468.459 358.061 467.35 356.056C466.283 354.008 465.75 351.768 465.75 349.336C465.75 346.904 466.283 344.685 467.35 342.68C468.459 340.675 469.953 339.075 471.83 337.88C473.75 336.685 475.926 336.088 478.358 336.088C480.747 336.088 482.881 336.685 484.758 337.88C486.678 339.075 488.193 340.675 489.302 342.68C490.411 344.685 490.966 346.904 490.966 349.336C490.966 351.768 490.411 354.008 489.302 356.056C488.193 358.061 486.678 359.661 484.758 360.856C482.881 362.051 480.747 362.648 478.358 362.648ZM505.5 367H509.34V346.52C509.34 343.448 510.214 340.931 511.964 338.968C513.713 337.005 516.017 336.024 518.876 336.024C521.564 336.024 523.804 336.899 525.596 338.648C527.43 340.397 528.348 342.808 528.348 345.88V367H532.188V344.792C532.188 342.317 531.612 340.141 530.46 338.264C529.308 336.387 527.772 334.915 525.852 333.848C523.932 332.781 521.798 332.248 519.452 332.248C517.276 332.248 515.292 332.717 513.5 333.656C511.708 334.595 510.321 335.896 509.34 337.56V318.552H505.5V367ZM554.477 367.384C554.818 367.384 555.287 367.363 555.885 367.32C556.482 367.277 557.015 367.192 557.485 367.064V363.544C557.186 363.587 556.781 363.629 556.269 363.672C555.799 363.715 555.394 363.736 555.053 363.736C553.517 363.736 552.343 363.459 551.533 362.904C550.722 362.349 550.167 361.624 549.869 360.728C549.613 359.832 549.485 358.915 549.485 357.976V336.664H556.909V333.016H549.485V325.08H545.645V328.728C545.645 330.051 545.282 331.096 544.557 331.864C543.874 332.632 542.914 333.016 541.677 333.016H539.245V336.664H545.645V357.976C545.645 361.048 546.391 363.395 547.885 365.016C549.421 366.595 551.618 367.384 554.477 367.384Z" fill="#282828"/>
</g>
<defs>
<clipPath id="clip0">
<rect width="675" height="381" fill="white"/>
</clipPath>
</defs>
</svg>
