<svg width="216" height="170" fill="none" xmlns="http://www.w3.org/2000/svg"><g clip-path="url(#a)"><path d="M156.067 72.709h1.51a1 1 0 0 1 1 1v17.166a1 1 0 0 1-1 1h-1.51V72.71Z" fill="#D9D9D9"/><path d="M156.067 96.097h1.51a1 1 0 0 1 1 1v17.167a1 1 0 0 1-1 1h-1.51V96.097Z" fill="#007AFF"/><path d="M156.067 130.729h1.51a1 1 0 0 1 1 1v17.167a1 1 0 0 1-1 1h-1.51v-19.167Z" fill="#E94F60"/><path fill-rule="evenodd" clip-rule="evenodd" d="M135.605-.317H21.908c-12.15 0-22 9.85-22 22v300.095c0 12.15 9.85 22 22 22h113.697c12.15 0 22-9.85 22-22V151.312h-1.654a.5.5 0 0 1-.5-.5v-21a.5.5 0 0 1 .5-.5h1.654V116.68h-1.654a.5.5 0 0 1-.5-.5v-21a.5.5 0 0 1 .5-.5h1.654v-1.388h-1.654a.5.5 0 0 1-.5-.5v-21a.5.5 0 0 1 .5-.5h1.654V21.683c0-12.15-9.85-22-22-22Zm-132.697 22c0-10.493 8.507-19 19-19h113.697c10.493 0 19 8.507 19 19v300.095c0 10.493-8.507 19-19 19H21.908c-10.493 0-19-8.507-19-19V21.683Z" fill="#A6A6A6"/><rect x="2.908" y="2.683" width="151.697" height="338.094" rx="19" fill="#000"/><path d="M213.903 104.68a1 1 0 1 1 0 2h-44.132l4.79 4.79a1.004 1.004 0 0 1-1.42 1.42l-7.21-7.21 7.21-7.21a1.004 1.004 0 0 1 1.42 1.42l-4.79 4.79h44.132Z" fill="#007AFF"/><path d="M212.013 139.313a1 1 0 0 1 0 2h-42.242l4.79 4.79a1.004 1.004 0 0 1-1.42 1.42l-7.21-7.21 7.21-7.21a1.004 1.004 0 0 1 1.42 1.42l-4.79 4.79h42.242Z" fill="#E94F60"/><path d="M18.796 22.495h.727l-1.817-5.637h-.734l-1.816 5.637h.699l.492-1.617h1.961l.488 1.617Zm-1.476-4.809h.02l.788 2.602h-1.601l.793-2.602Zm3.23 4.81h.664v-2.497c0-.723.47-1.21 1.168-1.21.66 0 .973.358.973 1.124v2.582h.664v-2.75c0-1.015-.5-1.566-1.422-1.566-.644 0-1.129.297-1.355.824h-.055v-.746h-.637v4.238Zm6.414.07c.606 0 1.051-.25 1.27-.72h.074v.65h.652v-5.903h-.675v2.32h-.07c-.184-.465-.637-.727-1.25-.727-.981 0-1.622.708-1.622 1.794v.789c0 1.09.64 1.796 1.621 1.796Zm.196-.606c-.7 0-1.149-.504-1.149-1.285v-.61c0-.78.45-1.28 1.149-1.28.695 0 1.144.5 1.144 1.28v.61c0 .785-.45 1.285-1.144 1.285Zm4.847-1.363c0-1.078.555-1.727 1.492-1.727.23 0 .504.047.7.117v-.746c-.14-.058-.371-.093-.614-.093-.816 0-1.343.406-1.5 1.19H32v-1.081h-1.583v.531h.942v3.176h-.856v.531h2.817v-.531h-1.313v-1.367Zm5.114 1.976c1.12 0 1.835-.73 1.835-1.875v-.64c0-1.145-.714-1.875-1.835-1.875-1.122 0-1.836.73-1.836 1.875v.64c0 1.145.715 1.875 1.836 1.875Zm0-3.804c.726 0 1.18.515 1.18 1.347v.52c0 .836-.454 1.347-1.18 1.347-.727 0-1.18-.511-1.18-1.347v-.52c0-.832.453-1.347 1.18-1.347Zm5.02-1.551c.312 0 .55-.235.55-.547a.536.536 0 0 0-.55-.543.536.536 0 0 0-.552.543c0 .312.239.547.551.547Zm1.776 5.277v-.55h-1.402v-3.688h-2.098v.55h1.442v3.137h-1.453v.551h3.511Zm2.829.07c.605 0 1.05-.25 1.27-.718h.073v.648h.653v-5.902h-.676v2.32h-.07c-.184-.465-.637-.727-1.25-.727-.98 0-1.622.708-1.622 1.794v.789c0 1.09.641 1.796 1.622 1.796Zm.195-.605c-.7 0-1.149-.504-1.149-1.285v-.61c0-.78.45-1.28 1.149-1.28.695 0 1.144.5 1.144 1.28v.61c0 .785-.449 1.285-1.144 1.285Zm10.176-1.711 1.05 2.246h.778l-1.149-2.387c.641-.21 1.051-.816 1.051-1.554 0-1.047-.7-1.696-1.816-1.696h-1.89v5.637h.679V20.25h1.297Zm-1.297-2.777h1.148c.754 0 1.184.398 1.184 1.097 0 .704-.438 1.098-1.215 1.098H55.82v-2.195Zm7.172 3.93c-.117.37-.512.597-1.047.597-.723 0-1.184-.5-1.184-1.277v-.172h2.887v-.414c0-1.227-.649-1.957-1.75-1.957-1.078 0-1.793.734-1.793 1.851v.637c0 1.207.676 1.906 1.84 1.906.89 0 1.562-.472 1.691-1.172h-.644Zm-1.098-2.653c.684 0 1.098.488 1.098 1.297h-2.23c0-.813.425-1.297 1.132-1.297Zm6.664.828c-.11-.87-.75-1.402-1.687-1.402-1.153 0-1.825.707-1.825 1.922v.554c0 1.215.672 1.922 1.825 1.922.937 0 1.582-.527 1.687-1.39h-.656c-.082.484-.496.793-1.043.793-.738 0-1.149-.5-1.149-1.41v-.383c0-.91.41-1.414 1.149-1.414.547 0 .96.312 1.043.808h.656Zm3.18 2.996c1.12 0 1.836-.73 1.836-1.875v-.64c0-1.145-.715-1.875-1.836-1.875s-1.836.73-1.836 1.875v.64c0 1.145.715 1.875 1.836 1.875Zm0-3.804c.726 0 1.18.515 1.18 1.347v.52c0 .836-.454 1.347-1.18 1.347-.727 0-1.18-.511-1.18-1.347v-.52c0-.832.453-1.347 1.18-1.347Zm3.031-.512 1.55 4.238h.731l1.547-4.238h-.707l-1.176 3.527h-.05l-1.184-3.527h-.711Zm8.004 3.144c-.117.372-.512.598-1.047.598-.723 0-1.184-.5-1.184-1.277v-.172h2.887v-.414c0-1.227-.648-1.957-1.75-1.957-1.078 0-1.793.734-1.793 1.851v.637c0 1.207.676 1.906 1.84 1.906.89 0 1.563-.472 1.691-1.172h-.644Zm-1.098-2.652c.684 0 1.098.488 1.098 1.297h-2.23c0-.813.425-1.297 1.132-1.297Zm4.73 1.848c0-1.078.555-1.727 1.493-1.727.23 0 .504.047.7.117v-.746c-.141-.058-.372-.093-.614-.093-.817 0-1.344.406-1.5 1.19h-.086v-1.081h-1.582v.531h.941v3.176h-.855v.531h2.816v-.531h-1.312v-1.367Zm3.927 3.406c.785 0 1.14-.309 1.511-1.352l1.598-4.394h-.707l-1.184 3.547h-.05l-1.188-3.547h-.723l1.559 4.265-.074.23c-.176.493-.395.673-.793.673-.063 0-.184-.004-.235-.016v.582c.059.008.188.012.285.012Z" fill="#fff"/><path fill="#01FFFE" d="M2.908 45.529h151.697v14.335H2.908z"/><path d="M15.523 55.697v-5.6h1.904c.373 0 .698.072.976.216a1.6 1.6 0 0 1 .896 1.472c0 .368-.096.685-.288.952a1.644 1.644 0 0 1-.784.584l1.224 2.376h-1.032l-1.112-2.24h-.824v2.24h-.96Zm.96-3.008h.864c.298 0 .536-.08.712-.24a.836.836 0 0 0 .272-.648c0-.272-.091-.488-.272-.648-.176-.166-.414-.248-.712-.248h-.864v1.784Zm5.684 3.088c-.389 0-.74-.09-1.056-.272a2.118 2.118 0 0 1-.752-.752 2.077 2.077 0 0 1-.272-1.056c0-.395.086-.747.256-1.056.177-.31.414-.555.712-.736.305-.187.643-.28 1.017-.28a1.948 1.948 0 0 1 1.744 1.008c.175.31.264.664.264 1.064v.216h-3.104c.026.218.096.413.207.584.118.165.265.296.44.392.182.096.38.144.592.144.209 0 .4-.04.576-.12.182-.08.331-.192.448-.336l.6.536c-.229.23-.482.397-.76.504-.277.106-.58.16-.912.16Zm-1.184-2.432h2.232a1.156 1.156 0 0 0-.207-.512 1.015 1.015 0 0 0-.392-.344 1.074 1.074 0 0 0-.529-.128c-.186 0-.357.04-.511.12-.15.08-.275.194-.377.344a1.391 1.391 0 0 0-.216.52Zm4.093 2.352v-5.76l.904-.152v2.336c.144-.155.31-.275.496-.36.187-.086.387-.128.6-.128.342 0 .648.093.92.28.278.181.5.426.664.736.166.31.248.658.248 1.048 0 .384-.082.733-.248 1.048-.16.31-.376.554-.648.736a1.621 1.621 0 0 1-.92.272c-.229 0-.44-.043-.632-.128a1.486 1.486 0 0 1-.504-.392v.464h-.88Zm1.8-.688c.224 0 .422-.056.592-.168.171-.112.304-.267.4-.464a1.57 1.57 0 0 0 .144-.68c0-.262-.048-.49-.144-.688a1.134 1.134 0 0 0-.4-.464 1.054 1.054 0 0 0-.592-.168c-.176 0-.34.037-.496.112-.154.07-.288.168-.4.296v1.824c.107.128.238.226.392.296.155.07.323.104.504.104Zm4.781.768c-.378 0-.72-.09-1.024-.272a2.05 2.05 0 0 1-.72-.744 2.142 2.142 0 0 1-.264-1.064c0-.39.088-.739.264-1.048.176-.315.416-.563.72-.744.304-.187.646-.28 1.024-.28.379 0 .72.093 1.024.28.304.181.544.43.72.744.176.31.264.658.264 1.048 0 .394-.088.75-.264 1.064a2.05 2.05 0 0 1-.72.744c-.298.181-.64.272-1.024.272Zm0-.776c.219 0 .411-.056.576-.168.171-.112.304-.267.4-.464a1.45 1.45 0 0 0 .152-.672c0-.25-.05-.472-.152-.664a1.134 1.134 0 0 0-.4-.464 1.002 1.002 0 0 0-.576-.168c-.218 0-.413.058-.584.176a1.219 1.219 0 0 0-.4.464c-.096.192-.144.41-.144.656 0 .25.048.474.144.672.102.197.235.352.4.464.171.112.366.168.584.168Zm4.797.776c-.379 0-.72-.09-1.024-.272a2.05 2.05 0 0 1-.72-.744 2.142 2.142 0 0 1-.264-1.064c0-.39.088-.739.264-1.048.176-.315.416-.563.72-.744.304-.187.645-.28 1.024-.28s.72.093 1.024.28c.304.181.544.43.72.744.176.31.264.658.264 1.048 0 .394-.088.75-.264 1.064a2.05 2.05 0 0 1-.72.744c-.299.181-.64.272-1.024.272Zm0-.776c.219 0 .41-.056.576-.168.17-.112.304-.267.4-.464a1.45 1.45 0 0 0 .152-.672c0-.25-.05-.472-.152-.664a1.135 1.135 0 0 0-.4-.464 1.003 1.003 0 0 0-.576-.168c-.218 0-.413.058-.584.176a1.218 1.218 0 0 0-.4.464c-.096.192-.144.41-.144.656 0 .25.048.474.144.672.102.197.235.352.4.464.17.112.366.168.584.168Zm5.501.776c-.501 0-.883-.11-1.144-.328-.256-.224-.384-.55-.384-.976v-2.064h-1.28v-.72h1.28v-1.104l.904-.192v1.296h1.696v.72h-1.696v1.896c0 .25.059.43.176.536.123.106.312.16.568.16.139 0 .283-.01.432-.032.155-.027.33-.075.528-.144v.768c-.17.053-.35.096-.536.128a2.773 2.773 0 0 1-.544.056Zm9.594 0c-.502 0-.883-.11-1.144-.328-.256-.224-.384-.55-.384-.976v-2.064h-1.28v-.72h1.28v-1.104l.904-.192v1.296h1.696v.72h-1.696v1.896c0 .25.059.43.176.536.123.106.312.16.568.16.139 0 .283-.01.432-.032.154-.027.33-.075.528-.144v.768c-.17.053-.35.096-.536.128a2.774 2.774 0 0 1-.544.056Zm4.093 0c-.379 0-.72-.09-1.024-.272a2.05 2.05 0 0 1-.72-.744 2.142 2.142 0 0 1-.264-1.064c0-.39.088-.739.264-1.048.176-.315.416-.563.72-.744.304-.187.645-.28 1.024-.28.378 0 .72.093 1.024.28.304.181.544.43.72.744.176.31.264.658.264 1.048 0 .394-.088.75-.264 1.064a2.05 2.05 0 0 1-.72.744c-.299.181-.64.272-1.024.272Zm0-.776c.218 0 .41-.056.576-.168.17-.112.304-.267.4-.464a1.45 1.45 0 0 0 .152-.672c0-.25-.051-.472-.152-.664a1.135 1.135 0 0 0-.4-.464 1.003 1.003 0 0 0-.576-.168c-.219 0-.414.058-.584.176a1.218 1.218 0 0 0-.4.464c-.096.192-.144.41-.144.656 0 .25.048.474.144.672.101.197.234.352.4.464.17.112.365.168.584.168Zm9.633.784c-.394 0-.768-.067-1.12-.2a4.088 4.088 0 0 1-1.048-.624l.504-.72c.342.272.64.466.896.584.256.112.52.168.792.168.214 0 .4-.038.56-.112a.922.922 0 0 0 .384-.304.73.73 0 0 0 .136-.432c0-.198-.058-.352-.176-.464a1.148 1.148 0 0 0-.448-.264 4.117 4.117 0 0 0-.608-.176c-.218-.048-.44-.104-.664-.168a2.774 2.774 0 0 1-.616-.256 1.311 1.311 0 0 1-.44-.448c-.112-.192-.168-.438-.168-.736 0-.326.078-.608.232-.848.16-.246.384-.435.672-.568a2.372 2.372 0 0 1 1.024-.208c.374 0 .731.058 1.072.176.347.112.678.288.992.528l-.488.712a3.23 3.23 0 0 0-.808-.464 2.08 2.08 0 0 0-.792-.16c-.298 0-.538.072-.72.216a.638.638 0 0 0-.272.528c0 .192.056.344.168.456.112.112.262.2.448.264.192.064.4.12.624.168.224.048.448.106.672.176.224.064.43.152.616.264.187.112.336.264.448.456.118.192.176.44.176.744 0 .33-.085.626-.256.888-.17.256-.41.458-.72.608-.304.144-.66.216-1.072.216Zm3.39 1.664c-.097 0-.203-.008-.32-.024a3.256 3.256 0 0 1-.329-.048v-.8c.112.021.206.037.28.048.08.01.168.016.264.016a.87.87 0 0 0 .448-.104.616.616 0 0 0 .28-.336l.184-.44-1.56-4.072h.992l1.088 3 1.16-3h.968l-1.968 4.704a2.29 2.29 0 0 1-.36.616 1.11 1.11 0 0 1-.464.336c-.176.07-.397.104-.664.104Zm6.132-1.672c-.373 0-.72-.048-1.04-.144a2.393 2.393 0 0 1-.808-.432l.44-.6c.278.176.526.298.744.368.219.07.438.104.656.104.293 0 .525-.048.696-.144.176-.096.264-.222.264-.376a.335.335 0 0 0-.144-.288.973.973 0 0 0-.376-.152 8.01 8.01 0 0 0-.52-.088 7.57 7.57 0 0 1-.568-.104 2.597 2.597 0 0 1-.52-.176c-.154-.08-.28-.19-.376-.328-.096-.144-.144-.33-.144-.56 0-.256.07-.475.208-.656.139-.187.334-.33.584-.432.256-.102.547-.152.872-.152.31 0 .608.042.896.128.293.08.573.21.84.392l-.44.592a2.047 2.047 0 0 0-.656-.312 2.353 2.353 0 0 0-.664-.096c-.256 0-.459.042-.608.128-.15.08-.224.192-.224.336 0 .122.048.216.144.28.096.064.224.112.384.144.16.032.336.061.528.088.192.026.382.061.568.104.192.042.368.104.528.184.16.08.288.192.384.336.096.144.144.333.144.568 0 .25-.08.474-.24.672a1.567 1.567 0 0 1-.64.456c-.272.106-.576.16-.912.16Zm5.533 0c-.501 0-.883-.11-1.144-.328-.256-.224-.384-.55-.384-.976v-2.064h-1.28v-.72h1.28v-1.104l.904-.192v1.296h1.696v.72h-1.696v1.896c0 .25.059.43.176.536.123.106.312.16.568.16.139 0 .283-.01.432-.032.155-.027.33-.075.528-.144v.768c-.17.053-.35.096-.536.128a2.773 2.773 0 0 1-.544.056Zm4.197 0c-.39 0-.741-.09-1.056-.272a2.118 2.118 0 0 1-.752-.752 2.077 2.077 0 0 1-.272-1.056c0-.395.085-.747.256-1.056.176-.31.413-.555.712-.736.304-.187.643-.28 1.016-.28a1.948 1.948 0 0 1 1.744 1.008c.176.31.264.664.264 1.064v.216h-3.104c.027.218.096.413.208.584.117.165.264.296.44.392.181.096.379.144.592.144.208 0 .4-.04.576-.12.181-.08.33-.192.448-.336l.6.536c-.23.23-.483.397-.76.504-.277.106-.581.16-.912.16Zm-1.184-2.432h2.232a1.156 1.156 0 0 0-.208-.512 1.015 1.015 0 0 0-.392-.344 1.074 1.074 0 0 0-.528-.128c-.187 0-.357.04-.512.12-.15.08-.275.194-.376.344a1.391 1.391 0 0 0-.216.52Zm3.885 2.352v-4.008h.776v.344c.096-.139.2-.24.312-.304a.805.805 0 0 1 .392-.096c.17 0 .323.042.456.128a.79.79 0 0 1 .32.352c.107-.166.23-.286.368-.36a.972.972 0 0 1 .48-.12c.261 0 .475.096.64.288.17.192.256.442.256.752v3.024h-.768v-2.784c0-.192-.04-.342-.12-.448a.397.397 0 0 0-.344-.168.458.458 0 0 0-.208.048.534.534 0 0 0-.184.168c.01.032.016.064.016.096v3.088h-.768v-2.784c0-.192-.043-.342-.128-.448a.397.397 0 0 0-.344-.168.495.495 0 0 0-.192.04.474.474 0 0 0-.184.152v3.208h-.776Z" fill="#000"/></g><defs><clipPath id="a"><path fill="#fff" transform="translate(.636 .574)" d="M0 0h215v169H0z"/></clipPath></defs></svg>