<svg width="215" height="185" fill="none" xmlns="http://www.w3.org/2000/svg"><g clip-path="url(#a)"><path d="M155.795 72.609h1.51a1 1 0 0 1 1 1v17.167a1 1 0 0 1-1 1h-1.51V72.609Z" fill="#D9D9D9"/><path d="M155.795 95.997h1.51a1 1 0 0 1 1 1v17.167a1 1 0 0 1-1 1h-1.51V95.997Z" fill="#007AFF"/><path d="M155.795 130.63h1.51a1 1 0 0 1 1 1v17.166a1 1 0 0 1-1 1h-1.51V130.63Z" fill="#E94F60"/><path fill-rule="evenodd" clip-rule="evenodd" d="M135.333-.416H21.636c-12.15 0-22 9.85-22 22v300.094c0 12.15 9.85 22 22 22h113.697c12.15 0 22-9.85 22-22V151.213h-1.654a.5.5 0 0 1-.5-.5v-21a.5.5 0 0 1 .5-.5h1.654v-12.632h-1.654a.5.5 0 0 1-.5-.5v-21a.5.5 0 0 1 .5-.5h1.654v-1.389h-1.654a.5.5 0 0 1-.5-.5v-21a.5.5 0 0 1 .5-.5h1.654V21.584c0-12.15-9.85-22-22-22Zm-132.697 22c0-10.494 8.507-19 19-19h113.697c10.493 0 19 8.506 19 19v300.094c0 10.494-8.507 19-19 19H21.636c-10.493 0-19-8.506-19-19V21.584Z" fill="#A6A6A6"/><rect x="2.636" y="2.584" width="151.697" height="338.094" rx="19" fill="#000"/><path d="M213.631 104.581a1 1 0 1 1 0 2h-44.132l4.79 4.79a1.004 1.004 0 0 1-1.42 1.42l-7.21-7.21 7.21-7.21a1.004 1.004 0 0 1 1.42 1.42l-4.79 4.79h44.132Z" fill="#007AFF"/><path d="M211.741 139.213a1 1 0 0 1 0 2h-42.242l4.79 4.79a1.004 1.004 0 0 1-1.42 1.42l-7.21-7.21 7.21-7.21a1.004 1.004 0 0 1 1.42 1.42l-4.79 4.79h42.242Z" fill="#E94F60"/><path d="M18.524 22.395h.727l-1.817-5.636H16.7l-1.816 5.636h.699l.492-1.617h1.96l.49 1.617Zm-1.476-4.808h.02l.788 2.601h-1.601l.793-2.601Zm3.23 4.808h.664V19.9c0-.723.469-1.21 1.168-1.21.66 0 .973.359.973 1.124v2.582h.664v-2.75c0-1.015-.5-1.566-1.422-1.566-.645 0-1.129.297-1.355.824h-.055v-.746h-.637v4.238Zm6.414.07c.606 0 1.05-.25 1.27-.718h.074v.648h.652v-5.902h-.675v2.32h-.07c-.184-.465-.638-.726-1.25-.726-.981 0-1.622.707-1.622 1.793v.789c0 1.09.64 1.797 1.621 1.797Zm.195-.605c-.699 0-1.148-.504-1.148-1.285v-.61c0-.78.45-1.28 1.148-1.28.696 0 1.145.5 1.145 1.28v.61c0 .785-.45 1.285-1.145 1.285Zm4.848-1.363c0-1.078.555-1.727 1.492-1.727.23 0 .504.047.7.117v-.746c-.141-.058-.372-.093-.614-.093-.816 0-1.344.406-1.5 1.191h-.086v-1.082h-1.582v.531h.942v3.176h-.856v.531h2.817v-.531h-1.313v-1.367Zm5.113 1.976c1.121 0 1.836-.73 1.836-1.875v-.64c0-1.145-.715-1.875-1.836-1.875-1.12 0-1.835.73-1.835 1.875v.64c0 1.145.714 1.875 1.835 1.875Zm0-3.804c.727 0 1.18.515 1.18 1.347v.52c0 .836-.453 1.348-1.18 1.348-.726 0-1.18-.512-1.18-1.348v-.52c0-.832.454-1.347 1.18-1.347Zm5.02-1.551c.312 0 .55-.234.55-.547a.536.536 0 0 0-.55-.543.536.536 0 0 0-.55.543c0 .313.237.547.55.547Zm1.777 5.277v-.55h-1.402v-3.688h-2.098v.55h1.442v3.137h-1.454v.551h3.512Zm2.828.07c.606 0 1.051-.25 1.27-.718h.074v.648h.652v-5.902h-.675v2.32h-.07c-.184-.465-.637-.726-1.25-.726-.981 0-1.622.707-1.622 1.793v.789c0 1.09.64 1.797 1.621 1.797Zm.196-.605c-.7 0-1.149-.504-1.149-1.285v-.61c0-.78.45-1.28 1.149-1.28.695 0 1.144.5 1.144 1.28v.61c0 .785-.449 1.285-1.144 1.285Zm10.175-1.71 1.051 2.245h.778l-1.149-2.386c.64-.211 1.051-.817 1.051-1.555 0-1.047-.7-1.695-1.817-1.695h-1.89v5.636h.68V20.15h1.296Zm-1.296-2.778h1.148c.754 0 1.184.398 1.184 1.098 0 .703-.438 1.097-1.215 1.097h-1.117v-2.195Zm7.171 3.93c-.117.37-.511.597-1.046.597-.723 0-1.184-.5-1.184-1.277v-.172h2.887v-.414c0-1.227-.649-1.957-1.75-1.957-1.078 0-1.793.734-1.793 1.851v.637c0 1.207.675 1.906 1.84 1.906.89 0 1.562-.472 1.691-1.171h-.645Zm-1.097-2.653c.683 0 1.097.488 1.097 1.297h-2.23c0-.813.426-1.297 1.133-1.297Zm6.664.828c-.11-.87-.75-1.402-1.688-1.402-1.152 0-1.824.707-1.824 1.922v.555c0 1.214.672 1.921 1.824 1.921.938 0 1.582-.527 1.688-1.39h-.656c-.082.484-.496.793-1.043.793-.739 0-1.149-.5-1.149-1.41v-.383c0-.91.41-1.414 1.149-1.414.546 0 .96.312 1.043.808h.656Zm3.18 2.996c1.12 0 1.836-.73 1.836-1.875v-.64c0-1.145-.715-1.875-1.836-1.875s-1.836.73-1.836 1.875v.64c0 1.145.715 1.875 1.836 1.875Zm0-3.804c.726 0 1.18.515 1.18 1.347v.52c0 .836-.454 1.348-1.18 1.348-.727 0-1.18-.512-1.18-1.348v-.52c0-.832.453-1.347 1.18-1.347Zm3.03-.512 1.552 4.238h.73l1.547-4.238h-.707l-1.176 3.527h-.05l-1.184-3.527h-.711Zm8.005 3.145c-.118.37-.512.597-1.047.597-.723 0-1.184-.5-1.184-1.277v-.172h2.887v-.414c0-1.227-.648-1.957-1.75-1.957-1.078 0-1.793.734-1.793 1.851v.637c0 1.207.676 1.906 1.84 1.906.89 0 1.562-.472 1.691-1.171h-.644Zm-1.098-2.653c.684 0 1.098.488 1.098 1.297h-2.23c0-.813.425-1.297 1.132-1.297Zm4.73 1.848c0-1.078.555-1.727 1.493-1.727.23 0 .504.047.699.117v-.746c-.14-.058-.371-.093-.613-.093-.817 0-1.344.406-1.5 1.191h-.086v-1.082h-1.582v.531h.941v3.176h-.855v.531h2.816v-.531h-1.313v-1.367Zm3.926 3.406c.785 0 1.141-.308 1.512-1.351l1.598-4.395h-.707l-1.184 3.547h-.05l-1.188-3.547h-.723l1.559 4.266-.075.23c-.175.492-.394.672-.793.672-.062 0-.183-.004-.234-.016v.582c.059.008.188.012.285.012Z" fill="#fff"/><path fill="#01FFFE" d="M2.636 45.43h151.697v14.335H2.636z"/><path d="m17.09 52.101.833 3.496h.648l.969-5.637h-.652l-.34 2.258-.34 2.348h-.043l-.79-3.317h-.616l-.79 3.317h-.042l-.34-2.348-.34-2.258h-.652l.968 5.637h.649l.832-3.496h.047Zm4.997-1.781c.312 0 .55-.235.55-.547a.536.536 0 0 0-.55-.543.536.536 0 0 0-.551.543c0 .312.238.547.55.547Zm1.777 5.277v-.55h-1.402v-3.688h-2.098v.55h1.441v3.137h-1.453v.551h3.512Zm3.36-4.308c-.606 0-1.047.25-1.27.718h-.07v-.648h-.657v5.668h.676V54.94h.074c.184.465.633.726 1.246.726.98 0 1.622-.707 1.622-1.793v-.789c0-1.09-.641-1.796-1.622-1.796Zm-.192.609c.7 0 1.145.5 1.145 1.281v.61c0 .78-.446 1.285-1.145 1.285-.7 0-1.145-.5-1.145-1.285v-.61c0-.781.446-1.281 1.145-1.281Zm6.016 2.605c-.118.371-.512.598-1.047.598-.723 0-1.184-.5-1.184-1.277v-.172h2.887v-.414c0-1.227-.649-1.957-1.75-1.957-1.078 0-1.793.734-1.793 1.851v.637c0 1.207.676 1.906 1.84 1.906.89 0 1.562-.472 1.691-1.172h-.644Zm-1.098-2.652c.683 0 1.098.488 1.098 1.297h-2.23c0-.813.425-1.297 1.132-1.297Zm9.578 3.816c.605 0 1.05-.25 1.27-.718h.074v.648h.652v-5.902h-.676v2.32h-.07c-.184-.465-.637-.726-1.25-.726-.98 0-1.621.707-1.621 1.792v.79c0 1.09.64 1.796 1.621 1.796Zm.195-.605c-.699 0-1.148-.504-1.148-1.285v-.61c0-.78.45-1.28 1.148-1.28.696 0 1.145.5 1.145 1.28v.61c0 .785-.45 1.285-1.145 1.285Zm4.586.61c.617 0 1.079-.255 1.282-.708h.066v.637h.633V52.7c0-.883-.57-1.39-1.567-1.39-.867 0-1.523.464-1.601 1.144h.652c.11-.364.453-.57.942-.57.59 0 .914.292.914.823v.383l-1.164.059c-.965.05-1.504.496-1.504 1.246 0 .77.539 1.277 1.347 1.277Zm.192-.583c-.535 0-.867-.273-.867-.718 0-.442.312-.696.906-.723l1.09-.05v.5c0 .566-.489.991-1.13.991Zm4.46-4.867v1.149h-1.128v.566h1.129v2.398c0 .883.488 1.282 1.539 1.282.203 0 .718-.02.824-.04v-.562c-.113.012-.54.024-.777.024-.598 0-.922-.25-.922-.711v-2.391h1.71v-.566h-1.718v-1.149h-.656Zm5.239 5.45c.617 0 1.078-.255 1.281-.708h.067v.637h.632V52.7c0-.883-.57-1.39-1.566-1.39-.867 0-1.523.464-1.601 1.144h.652c.11-.364.453-.57.941-.57.59 0 .914.292.914.823v.383l-1.164.059c-.965.05-1.504.496-1.504 1.246 0 .77.54 1.277 1.348 1.277Zm.191-.583c-.535 0-.867-.273-.867-.718 0-.442.313-.696.906-.723l1.09-.05v.5c0 .566-.488.991-1.129.991Zm4.133 1.043 2.75-6.707h-.652l-2.746 6.707h.648Zm5.207-.535V53.14h2.407v-.613H65.73v-1.934h2.633v-.633H65.04v5.637h.691Zm5.305.074c.617 0 1.078-.254 1.281-.707h.067v.637h.632V52.7c0-.883-.57-1.39-1.566-1.39-.867 0-1.523.464-1.602 1.144h.653c.11-.364.453-.57.941-.57.59 0 .914.292.914.823v.383l-1.164.059c-.965.05-1.504.496-1.504 1.246 0 .77.54 1.277 1.348 1.277Zm.191-.582c-.535 0-.867-.273-.867-.718 0-.442.313-.696.906-.723l1.09-.05v.5c0 .566-.488.991-1.129.991Zm6.95-2.41c-.11-.87-.75-1.402-1.688-1.402-1.152 0-1.824.707-1.824 1.922v.554c0 1.215.672 1.922 1.824 1.922.938 0 1.582-.527 1.688-1.39h-.657c-.082.484-.496.793-1.043.793-.738 0-1.148-.5-1.148-1.41v-.383c0-.91.41-1.414 1.148-1.414.547 0 .961.312 1.043.808h.657Zm2.456-2.457v1.149h-1.128v.566h1.129v2.398c0 .883.488 1.282 1.539 1.282.203 0 .718-.02.824-.04v-.562c-.114.012-.54.024-.778.024-.597 0-.921-.25-.921-.711v-2.391h1.71v-.566H81.29v-1.149h-.657Zm5.669 5.453c1.12 0 1.835-.73 1.835-1.875v-.64c0-1.145-.714-1.875-1.835-1.875-1.122 0-1.836.73-1.836 1.875v.64c0 1.145.714 1.875 1.836 1.875Zm0-3.804c.726 0 1.18.515 1.18 1.347v.52c0 .836-.454 1.347-1.18 1.347-.727 0-1.18-.511-1.18-1.347v-.52c0-.832.453-1.347 1.18-1.347Zm4.777 1.828c0-1.078.555-1.727 1.492-1.727.23 0 .504.047.7.117v-.746c-.141-.058-.372-.094-.614-.094-.816 0-1.344.407-1.5 1.192h-.086v-1.082h-1.582v.531h.941v3.176h-.855v.531h2.816v-.531H91.08v-1.367Zm3.926 3.406c.785 0 1.14-.309 1.511-1.352l1.598-4.394h-.707l-1.184 3.547h-.05l-1.188-3.547h-.722l1.558 4.265-.074.231c-.176.492-.395.672-.793.672-.063 0-.184-.004-.234-.016v.582c.058.008.187.012.285.012Zm11.293-3.754 1.05 2.246h.778l-1.149-2.387c.641-.21 1.051-.816 1.051-1.554 0-1.047-.699-1.696-1.816-1.696h-1.891v5.637h.68v-2.246h1.297Zm-1.297-2.777h1.148c.754 0 1.184.398 1.184 1.097 0 .703-.438 1.098-1.215 1.098h-1.117v-2.195Zm7.172 3.93c-.118.37-.512.597-1.047.597-.723 0-1.184-.5-1.184-1.277v-.172h2.887v-.414c0-1.227-.649-1.957-1.75-1.957-1.078 0-1.793.734-1.793 1.851v.637c0 1.207.676 1.906 1.84 1.906.89 0 1.562-.472 1.691-1.172h-.644Zm-1.098-2.653c.684 0 1.098.488 1.098 1.297h-2.231c0-.813.426-1.297 1.133-1.297Zm3.355.652c0 .602.379.989 1.145 1.164l.629.145c.539.121.746.3.746.637 0 .406-.367.668-.945.668-.547 0-.922-.227-1.02-.617h-.676c.075.726.711 1.175 1.672 1.175 1.004 0 1.656-.508 1.656-1.289 0-.613-.375-.972-1.199-1.16l-.597-.137c-.532-.117-.75-.3-.75-.625 0-.386.347-.636.886-.636.496 0 .852.226.93.597h.641c-.079-.707-.676-1.148-1.559-1.148-.934 0-1.559.492-1.559 1.226Zm7.633 2c-.117.371-.511.598-1.047.598-.722 0-1.183-.5-1.183-1.277v-.172h2.886v-.414c0-1.227-.648-1.957-1.75-1.957-1.078 0-1.792.734-1.792 1.851v.637c0 1.207.675 1.906 1.839 1.906.891 0 1.563-.472 1.692-1.172h-.645Zm-1.097-2.652c.683 0 1.097.488 1.097 1.297h-2.23c0-.813.426-1.297 1.133-1.297Zm4.175-1.629v1.149h-1.129v.566h1.129v2.398c0 .883.489 1.282 1.539 1.282.204 0 .719-.02.825-.04v-.562c-.114.012-.539.024-.778.024-.597 0-.922-.25-.922-.711v-2.391h1.711v-.566h-1.718v-1.149h-.657Z" fill="#000"/></g><defs><clipPath id="a"><path fill="#fff" transform="translate(0 .058)" d="M0 0h215v184H0z"/></clipPath></defs></svg>