<svg width="215" height="173" fill="none" xmlns="http://www.w3.org/2000/svg"><g clip-path="url(#a)"><path d="M155.795 72.609h1.51a1 1 0 0 1 1 1v17.167a1 1 0 0 1-1 1h-1.51V72.609Z" fill="#D9D9D9"/><path d="M155.795 95.997h1.51a1 1 0 0 1 1 1v17.167a1 1 0 0 1-1 1h-1.51V95.997Z" fill="#007AFF"/><path d="M155.795 130.63h1.51a1 1 0 0 1 1 1v17.166a1 1 0 0 1-1 1h-1.51V130.63Z" fill="#E94F60"/><path fill-rule="evenodd" clip-rule="evenodd" d="M135.333-.416H21.636c-12.15 0-22 9.85-22 22v300.094c0 12.15 9.85 22 22 22h113.697c12.15 0 22-9.85 22-22V151.213h-1.654a.5.5 0 0 1-.5-.5v-21a.5.5 0 0 1 .5-.5h1.654v-12.632h-1.654a.5.5 0 0 1-.5-.5v-21a.5.5 0 0 1 .5-.5h1.654v-1.389h-1.654a.5.5 0 0 1-.5-.5v-21a.5.5 0 0 1 .5-.5h1.654V21.584c0-12.15-9.85-22-22-22Zm-132.697 22c0-10.494 8.507-19 19-19h113.697c10.493 0 19 8.506 19 19v300.094c0 10.494-8.507 19-19 19H21.636c-10.493 0-19-8.506-19-19V21.584Z" fill="#A6A6A6"/><rect x="2.636" y="2.584" width="151.697" height="338.094" rx="19" fill="#000"/><path d="M213.631 104.581a1 1 0 1 1 0 2h-44.132l4.79 4.79a1.004 1.004 0 0 1-1.42 1.42l-7.21-7.21 7.21-7.21a1.004 1.004 0 0 1 1.42 1.42l-4.79 4.79h44.132Z" fill="#007AFF"/><path d="M211.741 139.213a1 1 0 0 1 0 2h-42.242l4.79 4.79a1.004 1.004 0 0 1-1.42 1.42l-7.21-7.21 7.21-7.21a1.004 1.004 0 0 1 1.42 1.42l-4.79 4.79h42.242Z" fill="#E94F60"/><path d="M18.524 22.395h.727l-1.817-5.636H16.7l-1.816 5.636h.699l.492-1.617h1.96l.49 1.617Zm-1.476-4.808h.02l.788 2.601h-1.601l.793-2.601Zm3.23 4.808h.664V19.9c0-.723.469-1.21 1.168-1.21.66 0 .973.359.973 1.124v2.582h.664v-2.75c0-1.015-.5-1.566-1.422-1.566-.645 0-1.129.297-1.355.824h-.055v-.746h-.637v4.238Zm6.414.07c.606 0 1.05-.25 1.27-.718h.074v.648h.652v-5.902h-.675v2.32h-.07c-.184-.465-.638-.726-1.25-.726-.981 0-1.622.707-1.622 1.793v.789c0 1.09.64 1.797 1.621 1.797Zm.195-.605c-.699 0-1.148-.504-1.148-1.285v-.61c0-.78.45-1.28 1.148-1.28.696 0 1.145.5 1.145 1.28v.61c0 .785-.45 1.285-1.145 1.285Zm4.848-1.363c0-1.078.555-1.727 1.492-1.727.23 0 .504.047.7.117v-.746c-.141-.058-.372-.093-.614-.093-.816 0-1.344.406-1.5 1.191h-.086v-1.082h-1.582v.531h.942v3.176h-.856v.531h2.817v-.531h-1.313v-1.367Zm5.113 1.976c1.121 0 1.836-.73 1.836-1.875v-.64c0-1.145-.715-1.875-1.836-1.875-1.12 0-1.835.73-1.835 1.875v.64c0 1.145.714 1.875 1.835 1.875Zm0-3.804c.727 0 1.18.515 1.18 1.347v.52c0 .836-.453 1.348-1.18 1.348-.726 0-1.18-.512-1.18-1.348v-.52c0-.832.454-1.347 1.18-1.347Zm5.02-1.551c.312 0 .55-.234.55-.547a.536.536 0 0 0-.55-.543.536.536 0 0 0-.55.543c0 .313.237.547.55.547Zm1.777 5.277v-.55h-1.402v-3.688h-2.098v.55h1.442v3.137h-1.454v.551h3.512Zm2.828.07c.606 0 1.051-.25 1.27-.718h.074v.648h.652v-5.902h-.675v2.32h-.07c-.184-.465-.637-.726-1.25-.726-.981 0-1.622.707-1.622 1.793v.789c0 1.09.64 1.797 1.621 1.797Zm.196-.605c-.7 0-1.149-.504-1.149-1.285v-.61c0-.78.45-1.28 1.149-1.28.695 0 1.144.5 1.144 1.28v.61c0 .785-.449 1.285-1.144 1.285Zm10.175-1.71 1.051 2.245h.778l-1.149-2.386c.64-.211 1.051-.817 1.051-1.555 0-1.047-.7-1.695-1.817-1.695h-1.89v5.636h.68V20.15h1.296Zm-1.296-2.778h1.148c.754 0 1.184.398 1.184 1.098 0 .703-.438 1.097-1.215 1.097h-1.117v-2.195Zm7.171 3.93c-.117.37-.511.597-1.046.597-.723 0-1.184-.5-1.184-1.277v-.172h2.887v-.414c0-1.227-.649-1.957-1.75-1.957-1.078 0-1.793.734-1.793 1.851v.637c0 1.207.675 1.906 1.84 1.906.89 0 1.562-.472 1.691-1.171h-.645Zm-1.097-2.653c.683 0 1.097.488 1.097 1.297h-2.23c0-.813.426-1.297 1.133-1.297Zm6.664.828c-.11-.87-.75-1.402-1.688-1.402-1.152 0-1.824.707-1.824 1.922v.555c0 1.214.672 1.921 1.824 1.921.938 0 1.582-.527 1.688-1.39h-.656c-.082.484-.496.793-1.043.793-.739 0-1.149-.5-1.149-1.41v-.383c0-.91.41-1.414 1.149-1.414.546 0 .96.312 1.043.808h.656Zm3.18 2.996c1.12 0 1.836-.73 1.836-1.875v-.64c0-1.145-.715-1.875-1.836-1.875s-1.836.73-1.836 1.875v.64c0 1.145.715 1.875 1.836 1.875Zm0-3.804c.726 0 1.18.515 1.18 1.347v.52c0 .836-.454 1.348-1.18 1.348-.727 0-1.18-.512-1.18-1.348v-.52c0-.832.453-1.347 1.18-1.347Zm3.03-.512 1.552 4.238h.73l1.547-4.238h-.707l-1.176 3.527h-.05l-1.184-3.527h-.711Zm8.005 3.145c-.118.37-.512.597-1.047.597-.723 0-1.184-.5-1.184-1.277v-.172h2.887v-.414c0-1.227-.648-1.957-1.75-1.957-1.078 0-1.793.734-1.793 1.851v.637c0 1.207.676 1.906 1.84 1.906.89 0 1.562-.472 1.691-1.171h-.644Zm-1.098-2.653c.684 0 1.098.488 1.098 1.297h-2.23c0-.813.425-1.297 1.132-1.297Zm4.73 1.848c0-1.078.555-1.727 1.493-1.727.23 0 .504.047.699.117v-.746c-.14-.058-.371-.093-.613-.093-.817 0-1.344.406-1.5 1.191h-.086v-1.082h-1.582v.531h.941v3.176h-.855v.531h2.816v-.531h-1.313v-1.367Zm3.926 3.406c.785 0 1.141-.308 1.512-1.351l1.598-4.395h-.707l-1.184 3.547h-.05l-1.188-3.547h-.723l1.559 4.266-.075.23c-.175.492-.394.672-.793.672-.062 0-.183-.004-.234-.016v.582c.059.008.188.012.285.012Z" fill="#fff"/><path fill="#01FFFE" d="M2.636 45.43h151.697v14.335H2.636z"/><path d="M15.107 55.597v-.816h1.408v-3.968h-1.409v-.816h3.777v.816h-1.409v3.968h1.409v.816h-3.776Zm4.932 0V51.59h.904v.6c.31-.443.72-.664 1.232-.664.278 0 .52.062.728.184.208.117.371.285.488.504.123.213.184.462.184.744v2.64h-.912v-2.384c0-.293-.08-.525-.24-.696-.16-.176-.373-.264-.64-.264-.17 0-.328.038-.472.112a1.024 1.024 0 0 0-.368.328v2.904h-.904Zm6.517.08c-.373 0-.72-.048-1.04-.144a2.394 2.394 0 0 1-.808-.432l.44-.6c.278.176.526.299.744.368.219.07.438.104.656.104.294 0 .526-.048.696-.144.176-.096.264-.221.264-.376a.335.335 0 0 0-.144-.288.973.973 0 0 0-.376-.152 7.998 7.998 0 0 0-.52-.088 7.58 7.58 0 0 1-.568-.104 2.6 2.6 0 0 1-.52-.176 1.02 1.02 0 0 1-.376-.328c-.096-.144-.144-.33-.144-.56 0-.256.07-.474.208-.656.139-.187.334-.33.584-.432.256-.101.547-.152.872-.152.31 0 .608.043.896.128.294.08.574.21.84.392l-.44.592a2.046 2.046 0 0 0-.656-.312 2.352 2.352 0 0 0-.664-.096c-.256 0-.458.043-.608.128-.15.08-.224.192-.224.336 0 .123.048.216.144.28.096.064.224.112.384.144.16.032.336.061.528.088.192.027.382.061.568.104.192.043.368.104.528.184.16.08.288.192.384.336.096.144.144.334.144.568 0 .25-.08.475-.24.672a1.566 1.566 0 0 1-.64.456c-.272.107-.576.16-.912.16Zm5.533 0c-.501 0-.883-.11-1.144-.328-.256-.224-.384-.55-.384-.976V52.31h-1.28v-.72h1.28v-1.104l.904-.192v1.296h1.696v.72h-1.696v1.896c0 .25.059.43.176.536.123.107.312.16.568.16.139 0 .283-.01.432-.032.155-.026.33-.075.528-.144v.768c-.17.053-.35.096-.536.128a2.774 2.774 0 0 1-.544.056Zm3.629-.008a1.77 1.77 0 0 1-.752-.152 1.279 1.279 0 0 1-.512-.432 1.137 1.137 0 0 1-.176-.632c0-.245.061-.456.184-.632.128-.176.307-.312.536-.408a2.19 2.19 0 0 1 .832-.144c.192 0 .379.022.56.064.181.038.363.102.544.192v-.4c0-.282-.077-.493-.232-.632-.155-.144-.392-.216-.712-.216-.176 0-.363.027-.56.08a3.524 3.524 0 0 0-.648.264l-.344-.656c.315-.155.61-.267.888-.336.283-.07.563-.104.84-.104.528 0 .936.13 1.224.392.293.261.44.632.44 1.112v2.568h-.896v-.424c-.181.17-.37.296-.568.376a1.71 1.71 0 0 1-.648.12Zm-.592-1.24c0 .187.075.336.224.448.155.107.36.16.616.16.187 0 .36-.03.52-.088.16-.058.31-.146.448-.264v-.632a1.929 1.929 0 0 0-.448-.152 2.446 2.446 0 0 0-.496-.048c-.267 0-.477.053-.632.16a.473.473 0 0 0-.232.416Zm6.797 1.248c-.48 0-.848-.114-1.104-.344-.25-.23-.376-.568-.376-1.016v-3.824h-1.44v-.712h2.344v4.44c0 .24.056.414.168.52.117.107.296.16.536.16.128 0 .256-.013.384-.04.128-.026.27-.07.424-.128v.76a2.96 2.96 0 0 1-.44.128c-.17.037-.336.056-.496.056Zm4.797 0c-.48 0-.848-.114-1.104-.344-.25-.23-.376-.568-.376-1.016v-3.824H43.8v-.712h2.344v4.44c0 .24.056.414.168.52.117.107.296.16.536.16.128 0 .256-.013.384-.04.128-.026.27-.07.424-.128v.76c-.123.048-.27.09-.44.128a2.32 2.32 0 0 1-.496.056Zm8.266-.016c-.272 0-.515-.061-.728-.184a1.363 1.363 0 0 1-.497-.504 1.519 1.519 0 0 1-.175-.744v-2.64h.912v2.376c0 .299.08.536.24.712.16.17.373.256.64.256.175 0 .333-.035.471-.104.145-.075.267-.184.369-.328V51.59h.903v4.008h-.904v-.6c-.303.443-.714.664-1.231.664Zm3.388 1.608v-5.68h.88v.488c.144-.176.312-.31.504-.4a1.41 1.41 0 0 1 .64-.144c.336 0 .64.093.912.28.278.181.496.427.656.736.166.31.248.659.248 1.048 0 .384-.082.733-.248 1.048-.165.31-.386.555-.664.736a1.622 1.622 0 0 1-.92.272c-.218 0-.421-.04-.608-.12a1.56 1.56 0 0 1-.496-.36v2.096h-.904Zm1.808-2.352c.224 0 .422-.056.592-.168.171-.112.304-.267.4-.464.096-.202.144-.432.144-.688 0-.256-.048-.483-.144-.68a1.135 1.135 0 0 0-.4-.464 1.019 1.019 0 0 0-.592-.176c-.181 0-.349.038-.504.112-.154.07-.288.17-.4.304v1.808c.112.134.246.238.4.312.16.07.328.104.504.104Zm4.55.736c-.337 0-.643-.09-.92-.272a1.998 1.998 0 0 1-.657-.736 2.279 2.279 0 0 1-.24-1.048c0-.39.083-.739.248-1.048a1.97 1.97 0 0 1 .664-.736c.278-.187.584-.28.92-.28.219 0 .419.043.6.128.187.085.352.206.496.36v-2.168l.904-.152v5.896h-.88v-.464c-.144.17-.312.301-.504.392a1.539 1.539 0 0 1-.632.128Zm.215-.744c.182 0 .35-.035.504-.104.155-.07.286-.168.392-.296v-1.824a1.06 1.06 0 0 0-.4-.296 1.125 1.125 0 0 0-.496-.112c-.224 0-.421.056-.592.168-.17.112-.304.267-.4.464a1.555 1.555 0 0 0-.144.688c0 .25.048.477.144.68.096.197.23.352.4.464.17.112.368.168.592.168Zm4.35.76a1.77 1.77 0 0 1-.753-.152 1.28 1.28 0 0 1-.512-.432 1.138 1.138 0 0 1-.176-.632c0-.245.061-.456.184-.632.128-.176.307-.312.536-.408a2.19 2.19 0 0 1 .832-.144c.192 0 .379.022.56.064.181.038.363.102.544.192v-.4c0-.282-.077-.493-.232-.632-.155-.144-.392-.216-.712-.216-.176 0-.363.027-.56.08a3.524 3.524 0 0 0-.648.264l-.344-.656a4.51 4.51 0 0 1 .888-.336c.283-.07.563-.104.84-.104.528 0 .936.13 1.224.392.293.261.44.632.44 1.112v2.568h-.896v-.424c-.181.17-.37.296-.568.376-.197.08-.413.12-.648.12Zm-.593-1.24c0 .187.075.336.224.448.155.107.36.16.616.16.187 0 .36-.03.52-.088.16-.058.31-.146.448-.264v-.632a1.927 1.927 0 0 0-.448-.152 2.446 2.446 0 0 0-.496-.048c-.267 0-.477.053-.632.16a.473.473 0 0 0-.232.416Zm6.557 1.248c-.501 0-.883-.11-1.144-.328-.256-.224-.384-.55-.384-.976V52.31h-1.28v-.72h1.28v-1.104l.904-.192v1.296h1.696v.72h-1.696v1.896c0 .25.059.43.176.536.123.107.312.16.568.16.139 0 .283-.01.432-.032.155-.026.33-.075.528-.144v.768a4.15 4.15 0 0 1-.536.128 2.774 2.774 0 0 1-.544.056Zm4.197 0c-.39 0-.742-.09-1.056-.272a2.117 2.117 0 0 1-.752-.752 2.076 2.076 0 0 1-.272-1.056c0-.395.085-.747.256-1.056.176-.31.413-.554.712-.736.304-.187.642-.28 1.016-.28a1.948 1.948 0 0 1 1.744 1.008c.176.31.264.664.264 1.064v.216h-3.104c.026.219.096.413.208.584a1.245 1.245 0 0 0 1.032.536c.208 0 .4-.04.576-.12.181-.08.33-.192.448-.336l.6.536c-.23.23-.483.398-.76.504-.278.107-.582.16-.912.16Zm-1.184-2.432h2.232a1.157 1.157 0 0 0-.208-.512 1.015 1.015 0 0 0-.392-.344 1.074 1.074 0 0 0-.528-.128c-.187 0-.358.04-.512.12a1.05 1.05 0 0 0-.376.344 1.388 1.388 0 0 0-.216.52Zm11.378 2.432c-.502 0-.883-.11-1.144-.328-.256-.224-.384-.55-.384-.976V52.31h-1.28v-.72h1.28v-1.104l.904-.192v1.296h1.696v.72h-1.696v1.896c0 .25.058.43.176.536.122.107.312.16.568.16.138 0 .282-.01.432-.032.154-.026.33-.075.528-.144v.768c-.171.053-.35.096-.536.128a2.774 2.774 0 0 1-.544.056Zm2.34-.08v-5.736l.904-.16v2.488c.31-.443.72-.664 1.233-.664.277 0 .52.062.727.184.209.117.371.285.489.504.122.213.183.462.183.744v2.64h-.912v-2.384c0-.293-.08-.525-.24-.696-.16-.176-.373-.264-.64-.264-.17 0-.328.038-.472.112a1.024 1.024 0 0 0-.367.328v2.904h-.904Zm4.765 0v-.712h.992V52.31h-.992v-.72h1.896v.952c.134-.336.315-.59.544-.76.235-.17.502-.256.8-.256.123 0 .227.01.312.032.086.016.187.045.304.088v.824a1.681 1.681 0 0 0-.376-.104 1.835 1.835 0 0 0-.376-.04c-.261 0-.498.064-.712.192a1.249 1.249 0 0 0-.496.528v1.84h1.056v.712h-2.952Zm6.581.08c-.378 0-.72-.09-1.024-.272a2.05 2.05 0 0 1-.72-.744 2.142 2.142 0 0 1-.264-1.064c0-.39.088-.739.264-1.048.176-.315.416-.563.72-.744.304-.187.646-.28 1.024-.28.379 0 .72.093 1.024.28.304.181.544.43.72.744.176.31.264.659.264 1.048 0 .395-.088.75-.264 1.064a2.05 2.05 0 0 1-.72.744c-.298.181-.64.272-1.024.272Zm0-.776a1 1 0 0 0 .576-.168c.171-.112.304-.266.4-.464.102-.197.152-.421.152-.672 0-.25-.05-.472-.152-.664a1.132 1.132 0 0 0-.4-.464 1 1 0 0 0-.576-.168c-.218 0-.413.059-.584.176a1.227 1.227 0 0 0-.4.464c-.096.192-.144.41-.144.656 0 .25.048.475.144.672.102.198.235.352.4.464.171.112.366.168.584.168Zm4.413.76c-.272 0-.515-.061-.728-.184a1.366 1.366 0 0 1-.496-.504 1.523 1.523 0 0 1-.176-.744v-2.64h.912v2.376c0 .299.08.536.24.712.16.17.373.256.64.256.176 0 .333-.035.472-.104.144-.075.267-.184.368-.328V51.59h.904v4.008h-.904v-.6c-.304.443-.715.664-1.232.664Zm5.133 1.688a3.448 3.448 0 0 1-1.6-.392l.312-.664c.235.112.453.195.656.248.203.059.403.088.6.088.645 0 .968-.296.968-.888v-.632a1.515 1.515 0 0 1-1.16.528c-.331 0-.632-.09-.904-.272a2.023 2.023 0 0 1-.64-.744 2.271 2.271 0 0 1-.232-1.032c0-.378.083-.72.248-1.024a1.97 1.97 0 0 1 .664-.736c.277-.181.584-.272.92-.272a1.481 1.481 0 0 1 1.112.496v-.464h.888v4.152c0 .517-.157.915-.472 1.192-.309.278-.763.416-1.36.416Zm.032-2.456c.187 0 .355-.037.504-.112.155-.075.288-.176.4-.304V52.71a1.133 1.133 0 0 0-.408-.296 1.127 1.127 0 0 0-.496-.112 1.076 1.076 0 0 0-.992.624 1.485 1.485 0 0 0-.144.672c0 .245.048.467.144.664.096.197.229.352.4.464.171.112.368.168.592.168Zm3.061.704v-5.736l.904-.16v2.488c.309-.443.72-.664 1.232-.664.277 0 .52.062.728.184.208.117.371.285.488.504.123.213.184.462.184.744v2.64h-.912v-2.384c0-.293-.08-.525-.24-.696-.16-.176-.373-.264-.64-.264-.171 0-.328.038-.472.112a1.022 1.022 0 0 0-.368.328v2.904h-.904Zm9.018 0 1.76-5.6h1.136l1.76 5.6h-.976l-.408-1.352h-1.928l-.4 1.352h-.944Zm1.56-2.096h1.504l-.752-2.488-.752 2.488Zm4.692 1.28h.6c.283 0 .531-.08.744-.24.214-.16.382-.386.504-.68.123-.293.184-.648.184-1.064 0-.416-.061-.77-.184-1.064a1.583 1.583 0 0 0-.504-.68 1.205 1.205 0 0 0-.744-.24h-.6v3.968Zm-.96.816v-5.6h1.648c.448 0 .846.115 1.192.344.347.23.619.555.816.976.203.416.304.91.304 1.48 0 .566-.101 1.059-.304 1.48a2.308 2.308 0 0 1-.816.976 2.11 2.11 0 0 1-1.192.344h-1.648Zm4.909 0v-5.6h1.832c.352 0 .659.062.92.184.267.123.475.296.624.52.15.219.224.475.224.768 0 .288-.082.541-.248.76a1.491 1.491 0 0 1-.672.48c.342.101.611.27.808.504a1.2 1.2 0 0 1 .304.824c0 .31-.08.581-.24.816-.154.235-.37.419-.648.552a2.253 2.253 0 0 1-.968.192h-1.936Zm.944-3.24h.792c.278 0 .499-.072.664-.216a.724.724 0 0 0 .248-.576c0-.245-.082-.437-.248-.576-.165-.144-.386-.216-.664-.216h-.792v1.584Zm0 2.464h.88c.304 0 .547-.077.728-.232a.79.79 0 0 0 .28-.632c0-.267-.09-.477-.272-.632-.181-.155-.426-.232-.736-.232h-.88v1.728Z" fill="#000"/></g><defs><clipPath id="a"><path fill="#fff" transform="translate(0 .058)" d="M0 0h215v172H0z"/></clipPath></defs></svg>