<svg width="488" height="729" fill="none" xmlns="http://www.w3.org/2000/svg"><rect x=".636" y=".291" width="486.561" height="98.478" rx="10" fill="#332F2C"/><path d="M85.79 58.53V40.426h6.453c1.402 0 2.566.241 3.492.724.93.484 1.626 1.153 2.086 2.007.46.849.69 1.83.69 2.944 0 1.108-.233 2.083-.699 2.926-.46.837-1.155 1.488-2.086 1.954-.925.465-2.09.698-3.492.698h-4.889v-2.352h4.641c.885 0 1.603-.126 2.157-.38.56-.253.97-.621 1.23-1.105.258-.483.388-1.063.388-1.741 0-.684-.132-1.276-.398-1.777-.259-.5-.668-.884-1.228-1.15-.554-.27-1.282-.406-2.184-.406h-3.43V58.53H85.79Zm8.937-8.168L99.2 58.53h-3.112l-4.384-8.168h3.023Zm11.332 8.442c-1.337 0-2.49-.286-3.456-.857-.961-.578-1.703-1.388-2.228-2.431-.518-1.05-.778-2.278-.778-3.687 0-1.39.26-2.616.778-3.677.525-1.061 1.256-1.889 2.193-2.484.943-.596 2.045-.893 3.306-.893a6.65 6.65 0 0 1 2.227.38 5.39 5.39 0 0 1 1.936 1.193c.572.543 1.023 1.247 1.353 2.113.33.86.495 1.907.495 3.138v.938h-10.794v-1.98h8.204c0-.696-.142-1.312-.424-1.848a3.208 3.208 0 0 0-1.194-1.282c-.507-.313-1.102-.469-1.786-.469-.742 0-1.39.183-1.944.549-.548.359-.973.83-1.273 1.414a4.079 4.079 0 0 0-.442 1.883v1.547c0 .907.159 1.68.477 2.316.324.636.775 1.123 1.353 1.459.577.33 1.252.495 2.024.495.501 0 .958-.071 1.37-.213a2.96 2.96 0 0 0 1.07-.654c.3-.288.53-.645.689-1.07l2.502.451c-.2.737-.56 1.382-1.078 1.936-.513.549-1.158.976-1.936 1.282-.772.3-1.654.451-2.644.451Zm17.689-10.537-2.396.424a2.833 2.833 0 0 0-.477-.875 2.362 2.362 0 0 0-.866-.68c-.366-.178-.823-.266-1.371-.266-.748 0-1.373.168-1.874.504-.501.33-.751.757-.751 1.282 0 .453.168.819.504 1.096.336.277.878.504 1.626.68l2.157.496c1.25.288 2.181.733 2.794 1.334.613.602.919 1.382.919 2.343 0 .813-.236 1.538-.707 2.175-.466.63-1.117 1.125-1.954 1.485-.831.36-1.794.54-2.89.54-1.521 0-2.761-.325-3.722-.973-.961-.654-1.55-1.583-1.768-2.785l2.555-.389c.159.666.486 1.17.981 1.512.495.336 1.14.504 1.936.504.866 0 1.559-.18 2.077-.54.519-.365.778-.81.778-1.334 0-.425-.159-.781-.477-1.07-.312-.289-.793-.507-1.441-.654l-2.298-.504c-1.268-.289-2.205-.749-2.812-1.38-.601-.63-.901-1.428-.901-2.395 0-.801.224-1.503.672-2.104.447-.601 1.066-1.07 1.856-1.405.79-.342 1.694-.513 2.714-.513 1.467 0 2.622.318 3.465.955.843.63 1.4 1.476 1.671 2.537Zm7.779 10.537c-1.338 0-2.49-.286-3.457-.857-.96-.578-1.703-1.388-2.227-2.431-.519-1.05-.778-2.278-.778-3.687 0-1.39.259-2.616.778-3.677.524-1.061 1.255-1.889 2.192-2.484.943-.596 2.045-.893 3.306-.893.766 0 1.509.127 2.228.38a5.398 5.398 0 0 1 1.936 1.193c.571.543 1.022 1.247 1.352 2.113.33.86.495 1.907.495 3.138v.938h-10.793v-1.98h8.203c0-.696-.141-1.312-.424-1.848a3.213 3.213 0 0 0-1.193-1.282c-.507-.313-1.103-.469-1.786-.469-.743 0-1.391.183-1.945.549-.548.359-.972.83-1.273 1.414a4.079 4.079 0 0 0-.442 1.883v1.547c0 .907.159 1.68.477 2.316.325.636.775 1.123 1.353 1.459.577.33 1.252.495 2.024.495.501 0 .958-.071 1.371-.213a2.956 2.956 0 0 0 1.069-.654c.301-.288.531-.645.69-1.07l2.501.451a4.522 4.522 0 0 1-1.078 1.936c-.513.549-1.158.976-1.936 1.282-.772.3-1.653.451-2.643.451Zm13.852-13.852v2.121h-7.417v-2.121h7.417Zm-5.428-3.253h2.643v12.844c0 .513.077.899.23 1.158a1.2 1.2 0 0 0 .592.522c.248.088.516.132.805.132.212 0 .397-.014.557-.044l.371-.07.477 2.183a4.417 4.417 0 0 1-.654.177 5.17 5.17 0 0 1-1.061.106 4.657 4.657 0 0 1-1.945-.371 3.333 3.333 0 0 1-1.458-1.203c-.371-.542-.557-1.223-.557-2.042V41.7Zm18.17 17.105c-1.273 0-2.384-.292-3.333-.875-.949-.584-1.685-1.4-2.21-2.449-.524-1.049-.787-2.275-.787-3.677 0-1.409.263-2.64.787-3.695.525-1.055 1.261-1.874 2.21-2.458.949-.583 2.06-.875 3.333-.875 1.273 0 2.384.292 3.333.875.948.584 1.685 1.403 2.21 2.458.524 1.055.786 2.286.786 3.695 0 1.402-.262 2.628-.786 3.677-.525 1.05-1.262 1.866-2.21 2.449-.949.583-2.06.875-3.333.875Zm.009-2.219c.825 0 1.508-.218 2.051-.654.542-.436.942-1.017 1.202-1.741.265-.725.398-1.524.398-2.396 0-.866-.133-1.662-.398-2.387-.26-.73-.66-1.317-1.202-1.76-.543-.441-1.226-.662-2.051-.662-.831 0-1.521.22-2.069.663-.542.442-.946 1.028-1.211 1.76a7.049 7.049 0 0 0-.389 2.386c0 .872.13 1.67.389 2.396.265.724.669 1.305 1.211 1.741.548.436 1.238.654 2.069.654Zm8.026 7.037v-18.67h2.581v2.2h.221c.154-.282.375-.61.663-.98.289-.372.69-.696 1.203-.973.512-.283 1.19-.424 2.033-.424 1.096 0 2.074.277 2.935.83.86.555 1.535 1.353 2.024 2.397.495 1.043.743 2.298.743 3.765 0 1.468-.245 2.726-.734 3.775-.489 1.043-1.161 1.848-2.016 2.413-.854.56-1.83.84-2.926.84-.825 0-1.5-.138-2.024-.415-.519-.277-.925-.601-1.22-.973a7.323 7.323 0 0 1-.681-.99h-.159v7.205h-2.643Zm2.59-11.881c0 .955.139 1.791.416 2.51.277.72.677 1.282 1.202 1.689.524.4 1.167.601 1.927.601.79 0 1.45-.21 1.98-.628.531-.424.931-.999 1.202-1.723.277-.725.416-1.542.416-2.45 0-.895-.136-1.7-.407-2.413-.265-.713-.666-1.275-1.202-1.688-.53-.413-1.193-.619-1.989-.619-.766 0-1.414.198-1.945.592-.524.395-.922.946-1.193 1.654-.271.707-.407 1.532-.407 2.475Zm17.868-6.79v2.122h-7.417v-2.121h7.417Zm-5.428-3.252h2.643v12.844c0 .513.077.899.23 1.158a1.2 1.2 0 0 0 .592.522c.248.088.516.132.805.132.212 0 .397-.014.557-.044l.371-.07.477 2.183a4.417 4.417 0 0 1-.654.177 5.17 5.17 0 0 1-1.061.106 4.657 4.657 0 0 1-1.945-.371 3.333 3.333 0 0 1-1.458-1.203c-.371-.542-.557-1.223-.557-2.042V41.7Zm7.107 16.831V44.952h2.643V58.53h-2.643Zm1.335-15.673c-.46 0-.855-.154-1.185-.46a1.495 1.495 0 0 1-.486-1.114c0-.436.162-.807.486-1.114.33-.312.725-.468 1.185-.468.459 0 .851.156 1.175.468.33.307.495.678.495 1.114 0 .43-.165.801-.495 1.114-.324.306-.716.46-1.175.46Zm9.339 15.947c-1.273 0-2.384-.292-3.333-.875-.949-.584-1.685-1.4-2.21-2.449-.524-1.049-.787-2.275-.787-3.677 0-1.409.263-2.64.787-3.695.525-1.055 1.261-1.874 2.21-2.458.949-.583 2.06-.875 3.333-.875 1.273 0 2.384.292 3.333.875.948.584 1.685 1.403 2.21 2.458.524 1.055.786 2.286.786 3.695 0 1.402-.262 2.628-.786 3.677-.525 1.05-1.262 1.866-2.21 2.449-.949.583-2.06.875-3.333.875Zm.009-2.219c.825 0 1.508-.218 2.051-.654.542-.436.942-1.017 1.202-1.741.265-.725.398-1.524.398-2.396 0-.866-.133-1.662-.398-2.387-.26-.73-.66-1.317-1.202-1.76-.543-.441-1.226-.662-2.051-.662-.831 0-1.521.22-2.069.663-.542.442-.946 1.028-1.211 1.76a7.049 7.049 0 0 0-.389 2.386c0 .872.13 1.67.389 2.396.265.724.669 1.305 1.211 1.741.548.436 1.238.654 2.069.654Zm10.669-6.117v8.062h-2.643V44.952h2.537v2.21h.168a3.88 3.88 0 0 1 1.468-1.733c.671-.436 1.517-.654 2.537-.654.925 0 1.735.194 2.431.583.695.383 1.234.955 1.617 1.715.383.76.575 1.7.575 2.82v8.637h-2.643v-8.319c0-.984-.257-1.753-.769-2.307-.513-.56-1.217-.84-2.113-.84-.613 0-1.158.133-1.635.398a2.858 2.858 0 0 0-1.123 1.167c-.271.507-.407 1.12-.407 1.839Zm21.165-2.201-2.396.424a2.833 2.833 0 0 0-.477-.875 2.362 2.362 0 0 0-.866-.68c-.366-.178-.822-.266-1.37-.266-.749 0-1.374.168-1.875.504-.501.33-.751.757-.751 1.282 0 .453.168.819.504 1.096.336.277.878.504 1.626.68l2.157.496c1.25.288 2.181.733 2.794 1.334.613.602.919 1.382.919 2.343 0 .813-.235 1.538-.707 2.175-.465.63-1.117 1.125-1.954 1.485-.831.36-1.794.54-2.89.54-1.521 0-2.761-.325-3.722-.973-.961-.654-1.55-1.583-1.768-2.785l2.555-.389c.159.666.486 1.17.981 1.512.495.336 1.14.504 1.936.504.866 0 1.559-.18 2.077-.54.519-.365.778-.81.778-1.334 0-.425-.159-.781-.477-1.07-.312-.289-.793-.507-1.441-.654l-2.298-.504c-1.267-.289-2.204-.749-2.811-1.38-.602-.63-.902-1.428-.902-2.395 0-.801.224-1.503.672-2.104.448-.601 1.066-1.07 1.856-1.405.79-.342 1.694-.513 2.714-.513 1.467 0 2.623.318 3.465.955.843.63 1.4 1.476 1.671 2.537Z" fill="#fff"/><path d="M43.947 44.254h-1.979v6.595l5.646 3.35.95-1.596-4.617-2.743v-5.606Zm-.66-6.595a11.871 11.871 0 0 0-11.87 11.87h-3.958l5.224 5.316 5.328-5.315h-3.957a9.233 9.233 0 1 1 9.233 9.233 9.159 9.159 0 0 1-6.515-2.717l-1.873 1.873a11.734 11.734 0 0 0 8.388 3.482 11.871 11.871 0 1 0 0-23.742" fill="#DDC8BD"/><rect x=".636" y="111.542" width="486.561" height="98.478" rx="10" fill="#332F2C"/><path d="M33.118 169.781v-18.104h11.35v2.351H35.85v5.516h8.027v2.343h-8.027v5.543h8.725v2.351H33.118Zm13.542 0v-13.578h2.555v2.157h.141a3.28 3.28 0 0 1 1.309-1.724 3.746 3.746 0 0 1 2.14-.636 10.984 10.984 0 0 1 1.122.061v2.529a4.72 4.72 0 0 0-.566-.098 5.43 5.43 0 0 0-.813-.061c-.625 0-1.182.132-1.671.397a2.96 2.96 0 0 0-1.574 2.661v8.292H46.66Zm12.14.301c-.861 0-1.639-.159-2.334-.478a3.93 3.93 0 0 1-1.654-1.405c-.4-.613-.6-1.364-.6-2.254 0-.766.147-1.397.441-1.892a3.265 3.265 0 0 1 1.194-1.176 6.214 6.214 0 0 1 1.68-.654c.618-.147 1.249-.259 1.891-.336l1.98-.23c.507-.065.876-.168 1.105-.309.23-.142.345-.371.345-.69v-.062c0-.772-.218-1.37-.654-1.794-.43-.424-1.073-.637-1.927-.637-.89 0-1.591.198-2.104.593-.507.389-.858.822-1.052 1.299l-2.484-.566c.295-.825.725-1.491 1.29-1.997a5.233 5.233 0 0 1 1.972-1.114 7.688 7.688 0 0 1 2.342-.354c.543 0 1.117.065 1.724.195a5.028 5.028 0 0 1 1.715.689c.537.336.976.816 1.317 1.441.342.619.513 1.423.513 2.413v9.017H62.92v-1.856h-.106c-.171.342-.428.678-.77 1.008-.341.33-.78.604-1.316.822-.537.218-1.18.327-1.928.327Zm.574-2.122c.73 0 1.355-.144 1.874-.433.525-.289.922-.666 1.194-1.131.276-.472.415-.976.415-1.512v-1.75c-.094.094-.277.182-.548.265a8.699 8.699 0 0 1-.91.203c-.342.053-.675.103-1 .15l-.813.106a6.577 6.577 0 0 0-1.405.327 2.429 2.429 0 0 0-1.008.663c-.248.283-.371.661-.371 1.132 0 .654.241 1.149.724 1.485.484.33 1.1.495 1.848.495Zm18.577-8.442-2.396.424c-.1-.306-.259-.598-.477-.875a2.365 2.365 0 0 0-.866-.681c-.366-.176-.823-.265-1.37-.265-.749 0-1.374.168-1.875.504-.5.33-.751.757-.751 1.282 0 .454.168.819.504 1.096.336.277.878.504 1.626.681l2.157.495c1.25.289 2.18.734 2.794 1.335.613.601.92 1.382.92 2.342a3.56 3.56 0 0 1-.708 2.175c-.466.631-1.117 1.126-1.954 1.485-.83.36-1.794.539-2.89.539-1.52 0-2.761-.324-3.722-.972-.96-.654-1.55-1.582-1.768-2.785l2.555-.389c.159.666.486 1.17.981 1.512.495.336 1.14.504 1.936.504.866 0 1.559-.18 2.077-.539.519-.366.778-.811.778-1.335 0-.425-.159-.781-.477-1.07-.312-.289-.793-.507-1.441-.654l-2.298-.504c-1.267-.289-2.204-.748-2.812-1.379-.6-.631-.901-1.429-.901-2.396 0-.801.224-1.502.672-2.104.447-.601 1.066-1.069 1.856-1.405.79-.342 1.694-.513 2.714-.513 1.467 0 2.623.318 3.465.955.843.63 1.4 1.476 1.671 2.537Zm7.779 10.537c-1.338 0-2.49-.286-3.457-.857-.96-.578-1.703-1.388-2.227-2.431-.519-1.049-.778-2.278-.778-3.687 0-1.39.259-2.616.778-3.677.524-1.061 1.255-1.889 2.192-2.484.943-.595 2.045-.893 3.306-.893.766 0 1.509.127 2.228.38a5.394 5.394 0 0 1 1.936 1.194c.572.542 1.022 1.246 1.352 2.112.33.861.495 1.907.495 3.139v.937H80.762v-1.98h8.203c0-.696-.141-1.312-.424-1.848a3.208 3.208 0 0 0-1.193-1.282c-.507-.312-1.102-.468-1.786-.468-.743 0-1.391.182-1.945.548a3.677 3.677 0 0 0-1.273 1.414 4.083 4.083 0 0 0-.442 1.883v1.547c0 .908.16 1.68.477 2.316.325.637.775 1.123 1.353 1.459.578.33 1.252.495 2.024.495.501 0 .958-.071 1.37-.212a2.968 2.968 0 0 0 1.07-.655c.3-.288.53-.645.69-1.069l2.502.451c-.2.736-.56 1.382-1.079 1.936-.513.548-1.158.975-1.936 1.281-.772.301-1.653.451-2.643.451Zm16.808.027c-.86 0-1.638-.159-2.333-.478a3.927 3.927 0 0 1-1.653-1.405c-.401-.613-.602-1.364-.602-2.254 0-.766.148-1.397.442-1.892a3.265 3.265 0 0 1 1.194-1.176 6.225 6.225 0 0 1 1.679-.654c.619-.147 1.25-.259 1.892-.336l1.98-.23c.507-.065.875-.168 1.105-.309.23-.142.345-.371.345-.69v-.062c0-.772-.218-1.37-.654-1.794-.43-.424-1.073-.637-1.927-.637-.89 0-1.591.198-2.104.593-.507.389-.858.822-1.052 1.299l-2.484-.566c.294-.825.725-1.491 1.29-1.997a5.23 5.23 0 0 1 1.972-1.114 7.682 7.682 0 0 1 2.342-.354 8.24 8.24 0 0 1 1.724.195 5.024 5.024 0 0 1 1.715.689c.537.336.976.816 1.317 1.441.342.619.513 1.423.513 2.413v9.017h-2.581v-1.856h-.106a3.777 3.777 0 0 1-.769 1.008c-.342.33-.781.604-1.318.822-.536.218-1.178.327-1.927.327Zm.575-2.122c.731 0 1.355-.144 1.874-.433.525-.289.922-.666 1.193-1.131.277-.472.416-.976.416-1.512v-1.75c-.094.094-.277.182-.548.265a8.687 8.687 0 0 1-.911.203 95.6 95.6 0 0 1-.999.15l-.813.106a6.563 6.563 0 0 0-1.405.327c-.419.154-.755.375-1.008.663-.248.283-.372.661-.372 1.132 0 .654.242 1.149.725 1.485.484.33 1.099.495 1.848.495Zm11.045-16.283v18.104h-2.643v-18.104h2.643Zm4.955 0v18.104h-2.644v-18.104h2.644Zm12.737 18.369c-1.096 0-2.074-.279-2.935-.839-.854-.566-1.526-1.371-2.015-2.414-.483-1.049-.725-2.307-.725-3.774 0-1.468.245-2.723.734-3.766.495-1.043 1.172-1.842 2.033-2.396.86-.554 1.836-.831 2.926-.831.843 0 1.52.142 2.033.424.519.277.92.602 1.202.973.289.371.513.698.672.981h.159v-6.727h2.644v18.104h-2.582v-2.113h-.221a7.053 7.053 0 0 1-.689.991c-.295.371-.702.695-1.22.972-.519.277-1.191.415-2.016.415Zm.584-2.254c.76 0 1.402-.2 1.927-.601.53-.407.931-.969 1.202-1.688.277-.719.416-1.556.416-2.511 0-.943-.136-1.768-.407-2.475-.271-.707-.669-1.258-1.193-1.653-.525-.395-1.173-.593-1.945-.593-.796 0-1.459.207-1.989.619-.531.413-.931.976-1.203 1.689-.265.713-.397 1.517-.397 2.413 0 .908.135 1.724.406 2.449.271.725.672 1.299 1.203 1.724.536.418 1.196.627 1.98.627Zm12.623 2.29c-.861 0-1.638-.159-2.334-.478a3.933 3.933 0 0 1-1.653-1.405c-.401-.613-.601-1.364-.601-2.254 0-.766.147-1.397.442-1.892a3.266 3.266 0 0 1 1.193-1.176 6.215 6.215 0 0 1 1.68-.654 16.847 16.847 0 0 1 1.892-.336l1.98-.23c.507-.065.875-.168 1.105-.309.23-.142.345-.371.345-.69v-.062c0-.772-.218-1.37-.655-1.794-.43-.424-1.072-.637-1.927-.637-.89 0-1.591.198-2.104.593-.506.389-.857.822-1.052 1.299l-2.484-.566c.295-.825.725-1.491 1.291-1.997a5.24 5.24 0 0 1 1.971-1.114 7.693 7.693 0 0 1 2.343-.354c.542 0 1.117.065 1.724.195a5.032 5.032 0 0 1 1.715.689c.536.336.975.816 1.317 1.441.342.619.513 1.423.513 2.413v9.017h-2.582v-1.856h-.106a3.756 3.756 0 0 1-.769 1.008c-.342.33-.781.604-1.317.822-.536.218-1.179.327-1.927.327Zm.574-2.122c.731 0 1.356-.144 1.875-.433.524-.289.922-.666 1.193-1.131.277-.472.415-.976.415-1.512v-1.75c-.094.094-.277.182-.548.265a8.665 8.665 0 0 1-.91.203c-.342.053-.675.103-.999.15l-.813.106a6.573 6.573 0 0 0-1.406.327 2.435 2.435 0 0 0-1.008.663c-.247.283-.371.661-.371 1.132 0 .654.242 1.149.725 1.485.483.33 1.099.495 1.847.495Zm14.741-11.757v2.122h-7.417v-2.122h7.417Zm-5.428-3.253h2.643v12.844c0 .513.077.899.23 1.158.153.254.351.428.592.522.248.088.516.133.805.133.212 0 .398-.015.557-.045l.371-.07.477 2.183a4.425 4.425 0 0 1-.654.177 5.17 5.17 0 0 1-1.061.106 4.652 4.652 0 0 1-1.944-.371 3.336 3.336 0 0 1-1.459-1.202c-.371-.543-.557-1.223-.557-2.043V152.95Zm11.059 17.132c-.861 0-1.639-.159-2.334-.478a3.921 3.921 0 0 1-1.653-1.405c-.401-.613-.601-1.364-.601-2.254 0-.766.147-1.397.442-1.892a3.258 3.258 0 0 1 1.193-1.176 6.215 6.215 0 0 1 1.68-.654 16.83 16.83 0 0 1 1.891-.336l1.981-.23c.506-.065.875-.168 1.105-.309.229-.142.344-.371.344-.69v-.062c0-.772-.218-1.37-.654-1.794-.43-.424-1.072-.637-1.927-.637-.89 0-1.591.198-2.104.593-.507.389-.857.822-1.052 1.299l-2.484-.566c.295-.825.725-1.491 1.291-1.997a5.224 5.224 0 0 1 1.971-1.114 7.689 7.689 0 0 1 2.343-.354c.542 0 1.116.065 1.723.195a5.024 5.024 0 0 1 1.715.689c.537.336.976.816 1.318 1.441.341.619.512 1.423.512 2.413v9.017h-2.581v-1.856h-.106a3.756 3.756 0 0 1-.769 1.008c-.342.33-.781.604-1.317.822-.537.218-1.179.327-1.927.327Zm.574-2.122c.731 0 1.356-.144 1.874-.433.525-.289.923-.666 1.194-1.131.277-.472.415-.976.415-1.512v-1.75c-.094.094-.277.182-.548.265a8.722 8.722 0 0 1-.91.203c-.342.053-.675.103-.999.15l-.814.106a6.577 6.577 0 0 0-1.405.327c-.419.154-.755.375-1.008.663-.248.283-.371.661-.371 1.132 0 .654.241 1.149.725 1.485.483.33 1.099.495 1.847.495Zm14.515-5.693c0-2.216.291-4.255.875-6.117a18.225 18.225 0 0 1 2.555-5.154h2.422c-.436.584-.843 1.3-1.22 2.148-.377.849-.707 1.78-.99 2.794a25.007 25.007 0 0 0-.663 3.138 21.852 21.852 0 0 0-.239 3.191c0 1.403.139 2.823.416 4.261a23.82 23.82 0 0 0 1.122 4.005c.472 1.231.996 2.236 1.574 3.014h-2.422a18.2 18.2 0 0 1-2.555-5.154c-.584-1.862-.875-3.904-.875-6.126Zm13.856-6.064v2.122h-7.673v-2.122h7.673Zm-5.569 13.578v-15.152c0-.848.185-1.553.557-2.112a3.413 3.413 0 0 1 1.476-1.265 4.723 4.723 0 0 1 1.998-.424c.53 0 .984.044 1.361.133.377.082.657.159.84.23l-.619 2.139a13.344 13.344 0 0 0-.477-.124 2.725 2.725 0 0 0-.707-.079c-.643 0-1.102.159-1.379.477-.271.318-.407.778-.407 1.379v14.798h-2.643Zm10.59.301c-.861 0-1.639-.159-2.334-.478a3.933 3.933 0 0 1-1.653-1.405c-.401-.613-.601-1.364-.601-2.254 0-.766.147-1.397.442-1.892a3.258 3.258 0 0 1 1.193-1.176 6.215 6.215 0 0 1 1.68-.654 16.847 16.847 0 0 1 1.892-.336l1.98-.23c.507-.065.875-.168 1.105-.309.23-.142.345-.371.345-.69v-.062c0-.772-.219-1.37-.655-1.794-.43-.424-1.072-.637-1.927-.637-.89 0-1.591.198-2.104.593-.507.389-.857.822-1.052 1.299l-2.484-.566c.295-.825.725-1.491 1.291-1.997a5.24 5.24 0 0 1 1.971-1.114 7.693 7.693 0 0 1 2.343-.354c.542 0 1.117.065 1.724.195a5.032 5.032 0 0 1 1.715.689c.536.336.975.816 1.317 1.441.342.619.513 1.423.513 2.413v9.017h-2.582v-1.856h-.106a3.756 3.756 0 0 1-.769 1.008c-.342.33-.781.604-1.317.822-.536.218-1.179.327-1.927.327Zm.574-2.122c.731 0 1.356-.144 1.874-.433.525-.289.923-.666 1.194-1.131.277-.472.415-.976.415-1.512v-1.75c-.094.094-.277.182-.548.265a8.665 8.665 0 0 1-.91.203c-.342.053-.675.103-.999.15l-.813.106a6.573 6.573 0 0 0-1.406.327 2.435 2.435 0 0 0-1.008.663c-.247.283-.371.661-.371 1.132 0 .654.242 1.149.725 1.485.483.33 1.099.495 1.847.495Zm14.122 2.095c-1.314 0-2.446-.297-3.395-.893-.943-.601-1.667-1.429-2.174-2.484-.507-1.055-.761-2.263-.761-3.624 0-1.379.26-2.596.778-3.651.519-1.061 1.25-1.889 2.193-2.484.943-.595 2.054-.893 3.332-.893 1.032 0 1.951.192 2.759.575a4.942 4.942 0 0 1 1.953 1.591c.501.684.799 1.482.893 2.396h-2.572a3.087 3.087 0 0 0-.973-1.645c-.501-.459-1.173-.689-2.015-.689-.737 0-1.382.194-1.936.583-.548.383-.976.931-1.282 1.644-.307.708-.46 1.545-.46 2.511 0 .99.15 1.845.451 2.564.301.719.725 1.276 1.273 1.67.554.395 1.205.593 1.954.593.501 0 .954-.092 1.361-.274a2.778 2.778 0 0 0 1.034-.805c.283-.347.481-.766.593-1.255h2.572a4.995 4.995 0 0 1-.857 2.351c-.478.69-1.117 1.232-1.919 1.627-.795.395-1.729.592-2.802.592Zm13.498-13.852v2.122h-7.417v-2.122h7.417Zm-5.427-3.253h2.643v12.844c0 .513.076.899.23 1.158.153.254.35.428.592.522.247.088.515.133.804.133.212 0 .398-.015.557-.045l.371-.07.478 2.183a4.425 4.425 0 0 1-.654.177c-.283.065-.637.1-1.061.106a4.654 4.654 0 0 1-1.945-.371 3.347 3.347 0 0 1-1.459-1.202c-.371-.543-.556-1.223-.556-2.043V152.95Zm12.68 17.105c-1.273 0-2.384-.291-3.333-.875-.948-.583-1.685-1.4-2.21-2.449-.524-1.049-.786-2.274-.786-3.677 0-1.409.262-2.64.786-3.695.525-1.055 1.262-1.874 2.21-2.458.949-.583 2.06-.875 3.333-.875 1.273 0 2.384.292 3.333.875.949.584 1.685 1.403 2.21 2.458.524 1.055.787 2.286.787 3.695 0 1.403-.263 2.628-.787 3.677-.525 1.049-1.261 1.866-2.21 2.449-.949.584-2.06.875-3.333.875Zm.009-2.219c.825 0 1.509-.218 2.051-.654.542-.436.943-1.016 1.202-1.741.265-.725.398-1.524.398-2.396 0-.866-.133-1.662-.398-2.387-.259-.73-.66-1.317-1.202-1.759-.542-.442-1.226-.663-2.051-.663-.831 0-1.52.221-2.069.663-.542.442-.945 1.029-1.211 1.759a7.051 7.051 0 0 0-.389 2.387c0 .872.13 1.671.389 2.396.266.725.669 1.305 1.211 1.741.549.436 1.238.654 2.069.654Zm8.026 1.945v-13.578h2.555v2.157h.142a3.275 3.275 0 0 1 1.308-1.724 3.745 3.745 0 0 1 2.139-.636 11.008 11.008 0 0 1 1.123.061v2.529a4.725 4.725 0 0 0-.566-.098 5.427 5.427 0 0 0-.813-.061c-.625 0-1.182.132-1.671.397a2.961 2.961 0 0 0-1.573 2.661v8.292h-2.644Zm10.394 5.092c-.395 0-.755-.032-1.079-.097-.324-.059-.566-.124-.725-.195l.637-2.165c.483.129.913.185 1.29.168.378-.018.711-.16.999-.425.295-.265.554-.698.778-1.299l.327-.902-4.968-13.755h2.829l3.439 10.537h.141l3.439-10.537h2.838l-5.596 15.39c-.259.708-.589 1.306-.99 1.795a3.851 3.851 0 0 1-1.432 1.114c-.554.247-1.197.371-1.927.371Zm16.527-5.092v-13.578h2.555v2.157h.142a3.275 3.275 0 0 1 1.308-1.724 3.748 3.748 0 0 1 2.139-.636 11.008 11.008 0 0 1 1.123.061v2.529a4.725 4.725 0 0 0-.566-.098 5.427 5.427 0 0 0-.813-.061c-.625 0-1.182.132-1.671.397a2.961 2.961 0 0 0-1.573 2.661v8.292h-2.644Zm13.676.274c-1.338 0-2.49-.286-3.457-.857-.96-.578-1.703-1.388-2.228-2.431-.518-1.049-.777-2.278-.777-3.687 0-1.39.259-2.616.777-3.677.525-1.061 1.256-1.889 2.193-2.484.943-.595 2.045-.893 3.306-.893.766 0 1.509.127 2.228.38a5.397 5.397 0 0 1 1.936 1.194c.571.542 1.022 1.246 1.352 2.112.33.861.495 1.907.495 3.139v.937h-10.794v-1.98h8.204c0-.696-.141-1.312-.424-1.848a3.208 3.208 0 0 0-1.194-1.282c-.506-.312-1.102-.468-1.785-.468-.743 0-1.391.182-1.945.548a3.673 3.673 0 0 0-1.273 1.414 4.08 4.08 0 0 0-.442 1.883v1.547c0 .908.159 1.68.477 2.316.324.637.775 1.123 1.353 1.459.577.33 1.252.495 2.024.495.501 0 .958-.071 1.37-.212a2.968 2.968 0 0 0 1.07-.655c.301-.288.53-.645.69-1.069l2.501.451c-.2.736-.56 1.382-1.078 1.936-.513.548-1.158.975-1.936 1.281-.772.301-1.653.451-2.643.451Zm17.688-10.537-2.395.424a2.863 2.863 0 0 0-.478-.875 2.365 2.365 0 0 0-.866-.681c-.366-.176-.822-.265-1.37-.265-.749 0-1.374.168-1.874.504-.501.33-.752.757-.752 1.282 0 .454.168.819.504 1.096.336.277.878.504 1.627.681l2.157.495c1.249.289 2.18.734 2.793 1.335s.919 1.382.919 2.342c0 .814-.235 1.538-.707 2.175-.465.631-1.117 1.126-1.953 1.485-.831.36-1.795.539-2.891.539-1.521 0-2.761-.324-3.722-.972-.96-.654-1.55-1.582-1.768-2.785l2.555-.389c.159.666.486 1.17.981 1.512.495.336 1.141.504 1.936.504.866 0 1.559-.18 2.078-.539.518-.366.777-.811.777-1.335 0-.425-.159-.781-.477-1.07-.312-.289-.793-.507-1.441-.654l-2.298-.504c-1.267-.289-2.204-.748-2.811-1.379-.602-.631-.902-1.429-.902-2.396 0-.801.224-1.502.672-2.104.448-.601 1.066-1.069 1.856-1.405.79-.342 1.695-.513 2.714-.513 1.468 0 2.623.318 3.465.955.843.63 1.4 1.476 1.671 2.537Zm7.779 10.537c-1.338 0-2.49-.286-3.456-.857-.961-.578-1.704-1.388-2.228-2.431-.519-1.049-.778-2.278-.778-3.687 0-1.39.259-2.616.778-3.677.524-1.061 1.255-1.889 2.192-2.484.943-.595 2.045-.893 3.306-.893.766 0 1.509.127 2.228.38a5.397 5.397 0 0 1 1.936 1.194c.572.542 1.023 1.246 1.353 2.112.33.861.495 1.907.495 3.139v.937h-10.794v-1.98h8.203c0-.696-.141-1.312-.424-1.848a3.213 3.213 0 0 0-1.193-1.282c-.507-.312-1.102-.468-1.786-.468-.743 0-1.391.182-1.945.548a3.681 3.681 0 0 0-1.273 1.414 4.092 4.092 0 0 0-.442 1.883v1.547c0 .908.159 1.68.478 2.316.324.637.775 1.123 1.352 1.459.578.33 1.252.495 2.025.495.5 0 .957-.071 1.37-.212a2.964 2.964 0 0 0 1.069-.655 2.83 2.83 0 0 0 .69-1.069l2.502.451a4.538 4.538 0 0 1-1.079 1.936c-.513.548-1.158.975-1.936 1.281-.772.301-1.653.451-2.643.451Zm13.852-13.852v2.122h-7.417v-2.122h7.417Zm-5.428-3.253h2.643v12.844c0 .513.077.899.23 1.158.153.254.351.428.592.522.248.088.516.133.805.133.212 0 .398-.015.557-.045l.371-.07.477 2.183a4.425 4.425 0 0 1-.654.177c-.283.065-.636.1-1.06.106a4.654 4.654 0 0 1-1.945-.371 3.342 3.342 0 0 1-1.459-1.202c-.371-.543-.557-1.223-.557-2.043V152.95Zm12.19 9.317c0 2.222-.292 4.264-.875 6.126a18.2 18.2 0 0 1-2.555 5.154h-2.422c.436-.583.843-1.299 1.22-2.148.377-.849.707-1.777.99-2.785a25.34 25.34 0 0 0 .663-3.147c.159-1.084.239-2.151.239-3.2 0-1.397-.139-2.814-.416-4.252a23.78 23.78 0 0 0-1.122-4.004c-.472-1.232-.996-2.237-1.574-3.015h2.422a18.225 18.225 0 0 1 2.555 5.154c.583 1.862.875 3.901.875 6.117Z" fill="#fff"/><g clip-path="url(#a)"><rect x=".636" y="222.793" width="450.8" height="505.898" rx="17.114" fill="#1F1B18"/><path d="M64.533 262.664v2.105H54.01v4.209h2.104v27.361a4.209 4.209 0 0 0 4.21 4.21H81.37a4.211 4.211 0 0 0 4.21-4.21v-27.361h2.104v-4.209H77.162v-2.105H64.533Zm-4.21 6.314h21.048v27.361H60.324v-27.361Zm4.21 4.209v18.943h4.21v-18.943h-4.21Zm8.42 0v18.943h4.209v-18.943h-4.21Z" fill="#FBD8BD"/><path d="M46.685 375.67v-29.143h18.27v3.785H51.083v8.88h12.92v3.771h-12.92v8.922h14.044v3.785H46.685Zm21.799 0v-21.857h4.112v3.472h.228c.398-1.176 1.1-2.101 2.106-2.775 1.015-.683 2.163-1.024 3.444-1.024a18.105 18.105 0 0 1 1.807.099v4.07a7.71 7.71 0 0 0-.91-.157 8.743 8.743 0 0 0-1.31-.099c-1.005 0-1.902.213-2.69.64a4.764 4.764 0 0 0-1.85 1.75c-.455.74-.682 1.585-.682 2.533v13.348h-4.255Zm19.54.484c-1.385 0-2.637-.256-3.756-.769-1.12-.521-2.007-1.276-2.661-2.262-.645-.987-.968-2.196-.968-3.629 0-1.233.237-2.248.712-3.045a5.251 5.251 0 0 1 1.92-1.893 10.089 10.089 0 0 1 2.704-1.053 26.839 26.839 0 0 1 3.045-.54l3.188-.37c.816-.105 1.409-.271 1.779-.498.37-.228.555-.598.555-1.11v-.1c0-1.243-.351-2.205-1.053-2.889-.693-.683-1.727-1.024-3.103-1.024-1.432 0-2.56.318-3.386.953-.816.626-1.38 1.324-1.694 2.092l-3.998-.911c.474-1.328 1.167-2.4 2.077-3.216a8.43 8.43 0 0 1 3.174-1.792c1.195-.38 2.452-.57 3.77-.57.873 0 1.798.105 2.775.313.987.2 1.907.57 2.761 1.11.863.541 1.57 1.314 2.12 2.32.55.996.826 2.291.826 3.885v14.514h-4.156v-2.988h-.17c-.275.55-.688 1.091-1.238 1.622-.55.531-1.257.972-2.12 1.323-.864.351-1.898.527-3.103.527Zm.925-3.415c1.177 0 2.182-.233 3.017-.698.844-.465 1.485-1.072 1.921-1.821.446-.759.669-1.57.669-2.433v-2.818c-.152.152-.446.294-.882.427a13.84 13.84 0 0 1-1.466.327c-.55.086-1.086.166-1.608.242-.522.067-.958.124-1.31.171-.825.104-1.579.28-2.262.526-.673.247-1.214.603-1.622 1.068-.398.455-.598 1.062-.598 1.821 0 1.053.39 1.85 1.167 2.391.778.531 1.77.797 2.974.797Zm29.904-13.59-3.857.683a4.567 4.567 0 0 0-.768-1.409c-.342-.445-.807-.811-1.395-1.095-.588-.285-1.323-.427-2.205-.427-1.205 0-2.211.27-3.017.811-.806.531-1.21 1.219-1.21 2.063 0 .731.271 1.319.812 1.765.54.446 1.413.811 2.618 1.095l3.472.797c2.011.465 3.51 1.181 4.497 2.149.986.968 1.479 2.225 1.479 3.771 0 1.309-.379 2.476-1.138 3.5-.749 1.015-1.798 1.812-3.145 2.391-1.337.579-2.888.868-4.653.868-2.447 0-4.444-.522-5.991-1.565-1.546-1.053-2.495-2.547-2.846-4.483l4.113-.626c.256 1.072.782 1.883 1.579 2.434.797.54 1.836.811 3.117.811 1.394 0 2.509-.29 3.344-.868.834-.589 1.252-1.305 1.252-2.149 0-.683-.256-1.257-.769-1.722-.502-.465-1.275-.816-2.319-1.053l-3.7-.811c-2.039-.465-3.548-1.205-4.525-2.22-.967-1.015-1.451-2.3-1.451-3.856 0-1.29.36-2.419 1.081-3.387.721-.967 1.717-1.722 2.988-2.262 1.272-.551 2.728-.826 4.369-.826 2.362 0 4.222.513 5.578 1.537 1.357 1.015 2.253 2.377 2.69 4.084Zm12.521 16.962c-2.153 0-4.008-.46-5.564-1.38-1.546-.93-2.741-2.234-3.586-3.913-.835-1.689-1.252-3.667-1.252-5.934 0-2.239.417-4.212 1.252-5.92.845-1.707 2.021-3.04 3.529-3.998 1.518-.959 3.292-1.438 5.322-1.438 1.233 0 2.429.204 3.586.612a8.675 8.675 0 0 1 3.116 1.921c.921.873 1.646 2.007 2.178 3.401.531 1.385.797 3.069.797 5.052v1.508h-17.375v-3.187h13.205c0-1.12-.228-2.111-.683-2.974a5.166 5.166 0 0 0-1.921-2.064c-.816-.503-1.774-.754-2.874-.754-1.196 0-2.239.294-3.131.882a5.929 5.929 0 0 0-2.049 2.277 6.577 6.577 0 0 0-.711 3.031v2.49c0 1.461.256 2.704.768 3.728.522 1.025 1.247 1.808 2.177 2.348.93.532 2.016.797 3.259.797.806 0 1.541-.114 2.205-.341a4.762 4.762 0 0 0 1.722-1.053 4.573 4.573 0 0 0 1.11-1.722l4.027.726a7.29 7.29 0 0 1-1.736 3.116c-.825.882-1.864 1.57-3.116 2.063-1.243.484-2.661.726-4.255.726Zm27.057.043c-1.385 0-2.638-.256-3.757-.769-1.119-.521-2.006-1.276-2.661-2.262-.645-.987-.968-2.196-.968-3.629 0-1.233.238-2.248.712-3.045a5.252 5.252 0 0 1 1.921-1.893 10.074 10.074 0 0 1 2.704-1.053 26.837 26.837 0 0 1 3.045-.54l3.187-.37c.816-.105 1.409-.271 1.779-.498.37-.228.555-.598.555-1.11v-.1c0-1.243-.351-2.205-1.053-2.889-.693-.683-1.727-1.024-3.102-1.024-1.433 0-2.562.318-3.387.953-.816.626-1.38 1.324-1.693 2.092l-3.999-.911c.474-1.328 1.167-2.4 2.078-3.216a8.429 8.429 0 0 1 3.173-1.792 12.37 12.37 0 0 1 3.771-.57c.873 0 1.798.105 2.775.313.986.2 1.906.57 2.76 1.11.864.541 1.57 1.314 2.12 2.32.551.996.826 2.291.826 3.885v14.514h-4.155v-2.988h-.171c-.275.55-.688 1.091-1.238 1.622-.55.531-1.257.972-2.12 1.323-.864.351-1.898.527-3.102.527Zm.925-3.415c1.176 0 2.181-.233 3.016-.698.845-.465 1.485-1.072 1.921-1.821.446-.759.669-1.57.669-2.433v-2.818c-.152.152-.446.294-.882.427-.427.123-.916.232-1.466.327-.55.086-1.086.166-1.608.242-.522.067-.958.124-1.309.171-.825.104-1.579.28-2.262.526-.674.247-1.215.603-1.623 1.068-.398.455-.597 1.062-.597 1.821 0 1.053.389 1.85 1.167 2.391.777.531 1.769.797 2.974.797Zm17.779-26.212v29.143h-4.255v-29.143h4.255Zm7.975 0v29.143h-4.255v-29.143h4.255Zm20.504 29.57c-1.765 0-3.339-.451-4.724-1.352-1.376-.911-2.457-2.206-3.245-3.885-.778-1.688-1.167-3.714-1.167-6.076 0-2.362.394-4.383 1.181-6.062.797-1.679 1.888-2.964 3.273-3.856 1.385-.892 2.955-1.338 4.71-1.338 1.357 0 2.448.228 3.273.683.835.446 1.48.968 1.935 1.566a13.16 13.16 0 0 1 1.082 1.579h.256v-10.829h4.255v29.143h-4.155v-3.401h-.356c-.256.465-.626.996-1.11 1.594-.474.597-1.129 1.119-1.964 1.565-.835.446-1.916.669-3.244.669Zm.939-3.629c1.224 0 2.258-.322 3.102-.967.854-.655 1.499-1.561 1.935-2.718.446-1.158.669-2.505.669-4.042 0-1.517-.218-2.846-.654-3.984-.437-1.138-1.077-2.025-1.921-2.661-.845-.635-1.888-.953-3.131-.953-1.281 0-2.348.332-3.202.996-.853.664-1.499 1.57-1.935 2.718-.427 1.148-.64 2.442-.64 3.884 0 1.461.218 2.775.654 3.942.437 1.167 1.082 2.092 1.936 2.775.863.673 1.925 1.01 3.187 1.01Zm20.319 3.686c-1.385 0-2.637-.256-3.756-.769-1.12-.521-2.007-1.276-2.661-2.262-.645-.987-.968-2.196-.968-3.629 0-1.233.237-2.248.712-3.045a5.245 5.245 0 0 1 1.921-1.893 10.08 10.08 0 0 1 2.703-1.053 26.854 26.854 0 0 1 3.046-.54l3.187-.37c.816-.105 1.409-.271 1.779-.498.37-.228.555-.598.555-1.11v-.1c0-1.243-.351-2.205-1.053-2.889-.693-.683-1.727-1.024-3.102-1.024-1.433 0-2.562.318-3.387.953-.816.626-1.38 1.324-1.693 2.092l-3.999-.911c.474-1.328 1.167-2.4 2.078-3.216a8.421 8.421 0 0 1 3.173-1.792 12.37 12.37 0 0 1 3.771-.57c.872 0 1.797.105 2.775.313.986.2 1.906.57 2.76 1.11.863.541 1.57 1.314 2.12 2.32.551.996.826 2.291.826 3.885v14.514h-4.155v-2.988h-.171c-.275.55-.688 1.091-1.238 1.622-.55.531-1.257.972-2.12 1.323-.864.351-1.898.527-3.103.527Zm.925-3.415c1.177 0 2.182-.233 3.017-.698.844-.465 1.485-1.072 1.921-1.821.446-.759.669-1.57.669-2.433v-2.818c-.152.152-.446.294-.882.427-.427.123-.916.232-1.466.327-.55.086-1.086.166-1.608.242-.522.067-.958.124-1.309.171-.825.104-1.58.28-2.263.526-.673.247-1.214.603-1.622 1.068-.398.455-.597 1.062-.597 1.821 0 1.053.388 1.85 1.166 2.391.778.531 1.77.797 2.974.797Zm23.728-18.926v3.415h-11.939v-3.415h11.939Zm-8.737-5.237h4.255v20.676c0 .826.123 1.447.369 1.864.247.408.565.688.954.84.398.142.83.213 1.295.213.341 0 .64-.023.896-.071.256-.047.456-.085.598-.114l.768 3.515a7.1 7.1 0 0 1-1.053.285c-.455.104-1.024.161-1.707.171a7.514 7.514 0 0 1-3.131-.598 5.384 5.384 0 0 1-2.348-1.935c-.597-.873-.896-1.969-.896-3.287v-21.559Zm17.801 27.578c-1.385 0-2.638-.256-3.757-.769-1.12-.521-2.006-1.276-2.661-2.262-.645-.987-.968-2.196-.968-3.629 0-1.233.237-2.248.712-3.045a5.245 5.245 0 0 1 1.921-1.893 10.08 10.08 0 0 1 2.703-1.053 26.894 26.894 0 0 1 3.046-.54l3.187-.37c.816-.105 1.409-.271 1.779-.498.37-.228.555-.598.555-1.11v-.1c0-1.243-.351-2.205-1.053-2.889-.693-.683-1.727-1.024-3.102-1.024-1.433 0-2.562.318-3.387.953-.816.626-1.38 1.324-1.693 2.092l-3.999-.911c.474-1.328 1.167-2.4 2.078-3.216a8.429 8.429 0 0 1 3.173-1.792 12.37 12.37 0 0 1 3.771-.57c.873 0 1.798.105 2.775.313.986.2 1.906.57 2.76 1.11.863.541 1.57 1.314 2.12 2.32.551.996.826 2.291.826 3.885v14.514h-4.155v-2.988h-.171c-.275.55-.688 1.091-1.238 1.622-.55.531-1.257.972-2.12 1.323-.864.351-1.898.527-3.102.527Zm.925-3.415c1.176 0 2.181-.233 3.016-.698.845-.465 1.485-1.072 1.921-1.821.446-.759.669-1.57.669-2.433v-2.818c-.152.152-.446.294-.882.427-.427.123-.916.232-1.466.327-.55.086-1.086.166-1.608.242-.522.067-.958.124-1.309.171a10.59 10.59 0 0 0-2.263.526c-.673.247-1.214.603-1.622 1.068-.398.455-.597 1.062-.597 1.821 0 1.053.389 1.85 1.166 2.391.778.531 1.77.797 2.975.797ZM47.581 411.575c0-3.567.47-6.85 1.409-9.847a29.332 29.332 0 0 1 4.112-8.296h3.9c-.703.939-1.357 2.091-1.965 3.457a32.726 32.726 0 0 0-1.593 4.497 40.336 40.336 0 0 0-1.068 5.052 35.162 35.162 0 0 0-.384 5.137c0 2.257.223 4.544.67 6.858.445 2.315 1.047 4.464 1.806 6.446.76 1.983 1.604 3.601 2.533 4.853h-3.899a29.345 29.345 0 0 1-4.112-8.296c-.94-2.998-1.409-6.285-1.409-9.861Zm22.305-9.762v3.415H57.534v-3.415h12.352ZM60.92 423.67v-24.39c0-1.366.299-2.5.896-3.401a5.497 5.497 0 0 1 2.377-2.035c.986-.455 2.058-.683 3.216-.683.853 0 1.584.071 2.191.214.607.132 1.058.256 1.352.37l-.996 3.443c-.2-.057-.456-.123-.769-.199a4.396 4.396 0 0 0-1.138-.128c-1.034 0-1.774.256-2.22.768-.436.513-.654 1.253-.654 2.22v23.821H60.92Zm17.046.484c-1.385 0-2.637-.256-3.756-.769-1.12-.521-2.007-1.276-2.661-2.262-.645-.987-.968-2.196-.968-3.629 0-1.233.237-2.248.712-3.045a5.251 5.251 0 0 1 1.92-1.893 10.088 10.088 0 0 1 2.704-1.053 26.844 26.844 0 0 1 3.045-.54l3.188-.37c.816-.105 1.409-.271 1.779-.498.37-.228.555-.598.555-1.11v-.1c0-1.243-.351-2.205-1.053-2.889-.693-.683-1.727-1.024-3.102-1.024-1.433 0-2.562.318-3.387.953-.816.626-1.38 1.324-1.694 2.092l-3.998-.911c.474-1.328 1.167-2.4 2.078-3.216a8.43 8.43 0 0 1 3.173-1.792c1.195-.38 2.452-.57 3.77-.57.873 0 1.798.105 2.775.313.987.2 1.907.57 2.761 1.11.863.541 1.57 1.314 2.12 2.32.55.996.826 2.291.826 3.885v14.514h-4.156v-2.988h-.17c-.275.55-.688 1.091-1.238 1.622-.55.531-1.257.972-2.12 1.323-.864.351-1.898.527-3.103.527Zm.925-3.415c1.177 0 2.182-.233 3.017-.698.844-.465 1.485-1.072 1.921-1.821.446-.759.669-1.57.669-2.433v-2.818c-.152.152-.446.294-.882.427a13.84 13.84 0 0 1-1.466.327c-.55.086-1.086.166-1.608.242-.522.067-.958.124-1.31.171-.824.104-1.579.28-2.262.526-.673.247-1.214.603-1.622 1.068-.398.455-.598 1.062-.598 1.821 0 1.053.39 1.85 1.167 2.391.778.531 1.77.797 2.974.797Zm22.732 3.372c-2.116 0-3.937-.479-5.465-1.437-1.517-.968-2.684-2.301-3.5-3.999-.816-1.698-1.224-3.643-1.224-5.834 0-2.22.418-4.179 1.252-5.877.835-1.707 2.012-3.04 3.53-3.998 1.517-.959 3.305-1.438 5.364-1.438 1.66 0 3.14.309 4.44.925 1.299.607 2.348 1.461 3.145 2.562.806 1.1 1.285 2.386 1.437 3.856h-4.141c-.228-1.025-.75-1.907-1.565-2.647-.807-.74-1.888-1.11-3.245-1.11-1.186 0-2.224.313-3.116.939-.882.617-1.57 1.499-2.063 2.647-.494 1.139-.74 2.486-.74 4.041 0 1.594.242 2.97.725 4.127.484 1.157 1.167 2.054 2.05 2.69.891.635 1.939.953 3.144.953.807 0 1.537-.147 2.192-.441a4.478 4.478 0 0 0 1.665-1.295c.455-.56.773-1.233.953-2.021h4.141c-.152 1.414-.612 2.675-1.38 3.785-.769 1.11-1.798 1.983-3.088 2.619-1.281.635-2.785.953-4.511.953Zm21.728-22.298v3.415h-11.939v-3.415h11.939Zm-8.737-5.237h4.255v20.676c0 .826.123 1.447.37 1.864.246.408.564.688.953.84.398.142.83.213 1.295.213.341 0 .64-.023.896-.071.257-.047.456-.085.598-.114l.768 3.515a7.1 7.1 0 0 1-1.053.285c-.455.104-1.024.161-1.707.171a7.514 7.514 0 0 1-3.131-.598 5.384 5.384 0 0 1-2.348-1.935c-.597-.873-.896-1.969-.896-3.287v-21.559Zm20.412 27.535c-2.049 0-3.837-.47-5.365-1.409-1.527-.939-2.713-2.253-3.557-3.941-.845-1.689-1.267-3.662-1.267-5.92 0-2.267.422-4.25 1.267-5.948.844-1.698 2.03-3.017 3.557-3.956 1.528-.939 3.316-1.409 5.365-1.409 2.049 0 3.837.47 5.364 1.409 1.528.939 2.714 2.258 3.558 3.956.844 1.698 1.266 3.681 1.266 5.948 0 2.258-.422 4.231-1.266 5.92-.844 1.688-2.03 3.002-3.558 3.941-1.527.939-3.315 1.409-5.364 1.409Zm.014-3.572c1.328 0 2.429-.351 3.301-1.053.873-.702 1.518-1.636 1.936-2.803.427-1.167.64-2.452.64-3.856 0-1.395-.213-2.675-.64-3.842-.418-1.177-1.063-2.12-1.936-2.832-.872-.711-1.973-1.067-3.301-1.067-1.338 0-2.447.356-3.33 1.067-.872.712-1.522 1.655-1.949 2.832-.418 1.167-.626 2.447-.626 3.842 0 1.404.208 2.689.626 3.856.427 1.167 1.077 2.101 1.949 2.803.883.702 1.992 1.053 3.33 1.053Zm12.92 3.131v-21.857h4.112v3.472h.228c.399-1.176 1.101-2.101 2.106-2.775 1.015-.683 2.163-1.024 3.444-1.024a18.132 18.132 0 0 1 1.807.099v4.07a7.702 7.702 0 0 0-.911-.157 8.74 8.74 0 0 0-1.309-.099c-1.005 0-1.902.213-2.689.64a4.761 4.761 0 0 0-1.85 1.75c-.456.74-.683 1.585-.683 2.533v13.348h-4.255Zm16.73 8.196a8.903 8.903 0 0 1-1.736-.156c-.522-.095-.911-.199-1.167-.313l1.025-3.487c.778.209 1.47.299 2.077.271a2.49 2.49 0 0 0 1.608-.683c.475-.427.892-1.124 1.252-2.092l.527-1.451-7.997-22.142h4.553l5.536 16.962h.227l5.536-16.962h4.568l-9.008 24.774c-.417 1.138-.949 2.101-1.594 2.889a6.189 6.189 0 0 1-2.305 1.793c-.892.398-1.926.597-3.102.597Zm26.605-8.196v-21.857h4.112v3.472h.228c.398-1.176 1.1-2.101 2.106-2.775 1.015-.683 2.163-1.024 3.444-1.024a18.132 18.132 0 0 1 1.807.099v4.07a7.742 7.742 0 0 0-.911-.157 8.74 8.74 0 0 0-1.309-.099c-1.006 0-1.902.213-2.69.64a4.765 4.765 0 0 0-1.849 1.75c-.456.74-.683 1.585-.683 2.533v13.348h-4.255Zm22.013.441c-2.154 0-4.008-.46-5.564-1.38-1.547-.93-2.742-2.234-3.586-3.913-.835-1.689-1.252-3.667-1.252-5.934 0-2.239.417-4.212 1.252-5.92.844-1.707 2.02-3.04 3.529-3.998 1.518-.959 3.292-1.438 5.322-1.438 1.233 0 2.428.204 3.586.612a8.683 8.683 0 0 1 3.116 1.921c.92.873 1.646 2.007 2.177 3.401.531 1.385.797 3.069.797 5.052v1.508h-17.375v-3.187h13.206c0-1.12-.228-2.111-.683-2.974a5.173 5.173 0 0 0-1.921-2.064c-.816-.503-1.774-.754-2.875-.754-1.195 0-2.239.294-3.13.882a5.913 5.913 0 0 0-2.049 2.277 6.565 6.565 0 0 0-.712 3.031v2.49c0 1.461.256 2.704.769 3.728.521 1.025 1.247 1.808 2.177 2.348.929.532 2.016.797 3.258.797.807 0 1.542-.114 2.206-.341a4.762 4.762 0 0 0 1.722-1.053 4.573 4.573 0 0 0 1.11-1.722l4.027.726a7.31 7.31 0 0 1-1.736 3.116c-.826.882-1.864 1.57-3.117 2.063-1.242.484-2.661.726-4.254.726Zm28.473-16.962-3.857.683a4.567 4.567 0 0 0-.768-1.409c-.341-.445-.806-.811-1.394-1.095-.589-.285-1.324-.427-2.206-.427-1.205 0-2.21.27-3.017.811-.806.531-1.209 1.219-1.209 2.063 0 .731.27 1.319.811 1.765.54.446 1.413.811 2.618 1.095l3.472.797c2.011.465 3.51 1.181 4.497 2.149.986.968 1.48 2.225 1.48 3.771 0 1.309-.38 2.476-1.139 3.5-.749 1.015-1.797 1.812-3.145 2.391-1.337.579-2.888.868-4.653.868-2.447 0-4.444-.522-5.99-1.565-1.547-1.053-2.495-2.547-2.846-4.483l4.112-.626c.256 1.072.783 1.883 1.58 2.434.796.54 1.835.811 3.116.811 1.394 0 2.509-.29 3.344-.868.835-.589 1.252-1.305 1.252-2.149 0-.683-.256-1.257-.768-1.722-.503-.465-1.276-.816-2.32-1.053l-3.7-.811c-2.039-.465-3.547-1.205-4.525-2.22-.967-1.015-1.451-2.3-1.451-3.856 0-1.29.36-2.419 1.081-3.387.721-.967 1.717-1.722 2.989-2.262 1.271-.551 2.727-.826 4.368-.826 2.362 0 4.222.513 5.578 1.537 1.357 1.015 2.253 2.377 2.69 4.084Zm12.521 16.962c-2.153 0-4.008-.46-5.564-1.38-1.546-.93-2.741-2.234-3.585-3.913-.835-1.689-1.253-3.667-1.253-5.934 0-2.239.418-4.212 1.253-5.92.844-1.707 2.02-3.04 3.529-3.998 1.517-.959 3.291-1.438 5.321-1.438 1.234 0 2.429.204 3.586.612a8.687 8.687 0 0 1 3.117 1.921c.92.873 1.646 2.007 2.177 3.401.531 1.385.797 3.069.797 5.052v1.508h-17.375v-3.187h13.205c0-1.12-.227-2.111-.683-2.974a5.159 5.159 0 0 0-1.921-2.064c-.816-.503-1.774-.754-2.874-.754-1.195 0-2.239.294-3.131.882a5.929 5.929 0 0 0-2.049 2.277 6.577 6.577 0 0 0-.711 3.031v2.49c0 1.461.256 2.704.768 3.728.522 1.025 1.248 1.808 2.177 2.348.93.532 2.016.797 3.259.797.806 0 1.542-.114 2.206-.341a4.75 4.75 0 0 0 1.721-1.053 4.573 4.573 0 0 0 1.11-1.722l4.027.726a7.29 7.29 0 0 1-1.736 3.116c-.825.882-1.864 1.57-3.116 2.063-1.243.484-2.661.726-4.255.726Zm22.298-22.298v3.415h-11.939v-3.415h11.939Zm-8.737-5.237h4.254v20.676c0 .826.124 1.447.37 1.864.247.408.565.688.954.84.398.142.83.213 1.295.213.341 0 .64-.023.896-.071.256-.047.455-.085.598-.114l.768 3.515c-.247.095-.598.19-1.053.285-.455.104-1.024.161-1.707.171a7.514 7.514 0 0 1-3.131-.598 5.379 5.379 0 0 1-2.348-1.935c-.598-.873-.896-1.969-.896-3.287v-21.559Zm19.622 14.999c0 3.576-.47 6.863-1.409 9.861a29.352 29.352 0 0 1-4.112 8.296h-3.899c.702-.939 1.356-2.092 1.963-3.458a32.953 32.953 0 0 0 1.594-4.482 41.017 41.017 0 0 0 1.067-5.066 35.48 35.48 0 0 0 .385-5.151c0-2.249-.223-4.53-.669-6.845-.446-2.315-1.049-4.463-1.807-6.446-.759-1.983-1.604-3.6-2.533-4.852h3.899a29.339 29.339 0 0 1 4.112 8.296c.939 2.997 1.409 6.28 1.409 9.847ZM44.006 498.538h2.063l4.125 6.943h.174l4.126-6.943h2.063l-5.375 8.745v6.13H49.38v-6.13l-5.375-8.745Zm16.58 15.107c-1.008 0-1.891-.24-2.652-.719-.755-.479-1.346-1.15-1.772-2.012-.421-.862-.632-1.869-.632-3.021 0-1.162.21-2.177.632-3.044.426-.866 1.017-1.539 1.772-2.019.76-.479 1.644-.719 2.651-.719 1.008 0 1.889.24 2.644.719.76.48 1.351 1.153 1.772 2.019.426.867.64 1.882.64 3.044 0 1.152-.214 2.159-.64 3.021-.42.862-1.012 1.533-1.772 2.012-.755.479-1.636.719-2.644.719Zm0-1.54c.764 0 1.394-.196 1.888-.588.494-.392.86-.908 1.097-1.547a5.925 5.925 0 0 0 .355-2.077c0-.746-.118-1.441-.355-2.085-.238-.644-.603-1.164-1.097-1.561-.494-.398-1.123-.596-1.889-.596-.765 0-1.394.198-1.888.596-.494.397-.86.917-1.097 1.561a5.984 5.984 0 0 0-.356 2.085c0 .745.119 1.438.356 2.077s.603 1.155 1.097 1.547c.494.392 1.123.588 1.888.588Zm13.68-3.254v-6.595h1.713v11.157h-1.714v-1.889h-.116c-.261.567-.668 1.048-1.22 1.446-.552.392-1.25.588-2.092.588-.697 0-1.317-.153-1.86-.458-.542-.31-.968-.774-1.278-1.394-.31-.625-.465-1.412-.465-2.361v-7.089h1.715v6.973c0 .814.227 1.462.682 1.947.46.484 1.046.726 1.758.726.426 0 .86-.109 1.3-.327a2.836 2.836 0 0 0 1.119-1.002c.305-.451.457-1.024.457-1.722Zm10.274-2.15v6.712h-1.714v-14.875h1.714V504h.145a3.15 3.15 0 0 1 1.177-1.373c.528-.344 1.23-.516 2.106-.516.76 0 1.426.153 1.998.458.57.3 1.014.762 1.329 1.387.32.62.479 1.409.479 2.368v7.089H90.06v-6.973c0-.886-.23-1.571-.69-2.055-.455-.49-1.087-.734-1.896-.734-.561 0-1.065.119-1.51.356-.441.237-.79.583-1.046 1.038-.252.456-.378 1.008-.378 1.656Zm12.63 6.973c-.707 0-1.348-.133-1.925-.399a3.307 3.307 0 0 1-1.372-1.17c-.34-.513-.509-1.133-.509-1.859 0-.639.126-1.157.378-1.554a2.67 2.67 0 0 1 1.01-.945 5.312 5.312 0 0 1 1.394-.508 17.117 17.117 0 0 1 1.547-.276 67.625 67.625 0 0 1 1.649-.196c.426-.049.736-.128.93-.24.198-.111.297-.305.297-.581v-.058c0-.717-.196-1.273-.588-1.671-.387-.397-.976-.595-1.765-.595-.818 0-1.46.179-1.925.537-.465.359-.791.741-.98 1.148l-1.627-.581c.29-.678.678-1.206 1.162-1.583a4.346 4.346 0 0 1 1.598-.799 6.633 6.633 0 0 1 1.714-.233c.358 0 .77.044 1.235.131.47.082.922.254 1.358.516.441.261.806.656 1.097 1.183.29.528.435 1.235.435 2.121v7.351h-1.714v-1.511h-.087c-.116.242-.31.501-.58.777-.272.276-.633.511-1.083.705-.45.193-1 .29-1.649.29Zm.262-1.54c.677 0 1.249-.133 1.714-.399.47-.267.823-.61 1.06-1.032.242-.421.363-.864.363-1.329v-1.569c-.072.088-.232.168-.479.24a8.216 8.216 0 0 1-.843.182c-.314.048-.622.092-.922.13-.295.034-.535.063-.719.088a6.52 6.52 0 0 0-1.25.283 2.152 2.152 0 0 0-.929.574c-.232.251-.349.595-.349 1.031 0 .596.22 1.046.661 1.351.446.3 1.01.45 1.693.45Zm15.68-9.878-4.125 11.157h-1.743l-4.126-11.157h1.86l3.079 8.89h.116l3.08-8.89h1.859Zm5.518 11.389c-1.075 0-2.002-.237-2.782-.712-.774-.479-1.372-1.147-1.794-2.004-.416-.862-.624-1.865-.624-3.007 0-1.143.208-2.15.624-3.022.422-.876 1.008-1.559 1.758-2.048.755-.494 1.637-.741 2.644-.741.581 0 1.155.097 1.721.291a4.25 4.25 0 0 1 1.547.944c.465.431.836 1.002 1.112 1.714.276.712.414 1.588.414 2.629v.727h-8.6v-1.482h6.856c0-.63-.125-1.191-.377-1.685a2.85 2.85 0 0 0-1.061-1.17c-.455-.285-.992-.428-1.612-.428-.683 0-1.274.169-1.772.508-.494.334-.874.77-1.141 1.308a3.84 3.84 0 0 0-.399 1.728v.988c0 .843.145 1.557.436 2.143a3.14 3.14 0 0 0 1.227 1.329c.523.3 1.131.45 1.823.45.451 0 .857-.063 1.22-.189.368-.13.686-.324.952-.581.266-.261.472-.586.617-.973l1.656.465a3.669 3.669 0 0 1-.879 1.482c-.411.421-.92.75-1.525.987-.605.233-1.285.349-2.041.349Zm15.786-11.389v1.453h-5.782v-1.453h5.782Zm-4.097-2.672h1.715v10.633c0 .484.07.847.21 1.089.145.238.329.397.552.48.228.077.467.116.719.116.189 0 .344-.01.465-.029l.291-.058.348 1.539a3.336 3.336 0 0 1-.486.131 3.55 3.55 0 0 1-.792.073c-.484 0-.959-.104-1.424-.312a2.834 2.834 0 0 1-1.147-.952c-.3-.426-.451-.964-.451-1.612v-11.098Zm10.065 14.061c-1.007 0-1.891-.24-2.651-.719-.755-.479-1.346-1.15-1.772-2.012-.422-.862-.632-1.869-.632-3.021 0-1.162.21-2.177.632-3.044.426-.866 1.017-1.539 1.772-2.019.76-.479 1.644-.719 2.651-.719s1.888.24 2.644.719c.76.48 1.351 1.153 1.772 2.019.426.867.639 1.882.639 3.044 0 1.152-.213 2.159-.639 3.021-.421.862-1.012 1.533-1.772 2.012-.756.479-1.637.719-2.644.719Zm0-1.54c.765 0 1.395-.196 1.888-.588.494-.392.86-.908 1.097-1.547a5.93 5.93 0 0 0 .356-2.077 5.99 5.99 0 0 0-.356-2.085 3.509 3.509 0 0 0-1.097-1.561c-.493-.398-1.123-.596-1.888-.596-.765 0-1.395.198-1.888.596-.494.397-.86.917-1.097 1.561a5.99 5.99 0 0 0-.356 2.085c0 .745.119 1.438.356 2.077a3.466 3.466 0 0 0 1.097 1.547c.493.392 1.123.588 1.888.588Zm11.379 1.308v-11.157h1.656v1.685h.116c.203-.552.571-.999 1.104-1.343a3.249 3.249 0 0 1 1.801-.516c.126 0 .284.003.472.007.189.005.332.012.429.022v1.743a5.36 5.36 0 0 0-.4-.065 3.907 3.907 0 0 0-.646-.051c-.542 0-1.027.114-1.453.341a2.58 2.58 0 0 0-1.002.93c-.242.392-.363.84-.363 1.344v7.06h-1.714Zm10.925.232c-1.075 0-2.002-.237-2.782-.712-.775-.479-1.373-1.147-1.794-2.004-.416-.862-.624-1.865-.624-3.007 0-1.143.208-2.15.624-3.022.421-.876 1.007-1.559 1.758-2.048.755-.494 1.637-.741 2.644-.741.581 0 1.155.097 1.721.291a4.25 4.25 0 0 1 1.547.944c.465.431.835 1.002 1.111 1.714s.414 1.588.414 2.629v.727h-8.599v-1.482h6.856c0-.63-.126-1.191-.377-1.685a2.85 2.85 0 0 0-1.061-1.17c-.455-.285-.993-.428-1.612-.428-.683 0-1.274.169-1.773.508-.493.334-.874.77-1.14 1.308a3.84 3.84 0 0 0-.399 1.728v.988c0 .843.145 1.557.435 2.143.296.581.705 1.024 1.228 1.329.523.3 1.131.45 1.823.45.45 0 .857-.063 1.22-.189.368-.13.685-.324.952-.581.266-.261.472-.586.617-.973l1.656.465a3.669 3.669 0 0 1-.879 1.482c-.411.421-.92.75-1.525.987-.605.233-1.286.349-2.041.349Zm6.204 3.951v-15.34h1.656v1.773h.204c.125-.194.3-.441.522-.741.228-.305.552-.576.974-.814.426-.242 1.002-.363 1.728-.363.94 0 1.768.235 2.484.705.717.469 1.276 1.135 1.678 1.997.402.862.603 1.879.603 3.051 0 1.181-.201 2.205-.603 3.072-.402.862-.959 1.53-1.67 2.004-.712.47-1.533.705-2.463.705-.716 0-1.29-.119-1.721-.356-.431-.242-.763-.516-.995-.821-.232-.31-.412-.566-.537-.77h-.146v5.898h-1.714Zm1.685-9.761c0 .842.124 1.585.371 2.229.247.639.607 1.141 1.082 1.504.474.358 1.055.537 1.743.537.717 0 1.315-.189 1.794-.566.484-.383.847-.896 1.089-1.54.247-.649.371-1.37.371-2.164 0-.785-.121-1.492-.363-2.121-.238-.635-.598-1.136-1.082-1.504-.48-.373-1.083-.559-1.809-.559-.697 0-1.283.177-1.758.53-.474.349-.833.838-1.075 1.467-.242.625-.363 1.354-.363 2.187Zm16.787 1.016v-6.595h1.714v11.157h-1.714v-1.889h-.116c-.262.567-.669 1.048-1.221 1.446-.552.392-1.249.588-2.091.588-.698 0-1.317-.153-1.86-.458-.542-.31-.968-.774-1.278-1.394-.31-.625-.465-1.412-.465-2.361v-7.089h1.714v6.973c0 .814.228 1.462.683 1.947.46.484 1.046.726 1.758.726.426 0 .859-.109 1.3-.327a2.836 2.836 0 0 0 1.118-1.002c.305-.451.458-1.024.458-1.722Zm3.831 4.562v-11.157h1.656v1.685h.116c.203-.552.571-.999 1.104-1.343a3.249 3.249 0 0 1 1.801-.516c.126 0 .283.003.472.007.189.005.332.012.429.022v1.743a5.36 5.36 0 0 0-.4-.065 3.916 3.916 0 0 0-.646-.051c-.542 0-1.027.114-1.453.341a2.58 2.58 0 0 0-1.002.93c-.242.392-.363.84-.363 1.344v7.06h-1.714Zm10.78.232c-1.046 0-1.947-.247-2.702-.741-.756-.494-1.337-1.174-1.743-2.041-.407-.866-.61-1.857-.61-2.97 0-1.133.208-2.133.624-3 .421-.872 1.007-1.552 1.758-2.041.755-.494 1.636-.741 2.644-.741.784 0 1.491.145 2.12.436.63.29 1.146.697 1.547 1.22.402.523.652 1.133.749 1.83h-1.715c-.13-.508-.421-.958-.871-1.35-.446-.398-1.046-.596-1.801-.596-.669 0-1.254.174-1.758.523-.499.344-.889.83-1.169 1.46-.276.624-.414 1.358-.414 2.201 0 .861.135 1.612.406 2.251.276.639.664 1.136 1.162 1.489.504.353 1.095.53 1.773.53.445 0 .849-.077 1.213-.232a2.51 2.51 0 0 0 .922-.668 2.56 2.56 0 0 0 .537-1.046h1.715a3.98 3.98 0 0 1-.719 1.779 4.01 4.01 0 0 1-1.504 1.249c-.62.305-1.341.458-2.164.458Zm7.584-6.944v6.712h-1.714v-14.875h1.714V504h.145a3.154 3.154 0 0 1 1.177-1.373c.527-.344 1.23-.516 2.106-.516.76 0 1.426.153 1.997.458.572.3 1.015.762 1.33 1.387.319.62.479 1.409.479 2.368v7.089h-1.714v-6.973c0-.886-.23-1.571-.69-2.055-.455-.49-1.087-.734-1.896-.734-.562 0-1.065.119-1.511.356-.44.237-.789.583-1.046 1.038-.251.456-.377 1.008-.377 1.656Zm12.63 6.973a4.541 4.541 0 0 1-1.925-.399 3.306 3.306 0 0 1-1.372-1.17c-.339-.513-.509-1.133-.509-1.859 0-.639.126-1.157.378-1.554a2.672 2.672 0 0 1 1.009-.945 5.331 5.331 0 0 1 1.395-.508 17.11 17.11 0 0 1 1.547-.276 67.272 67.272 0 0 1 1.649-.196c.426-.049.736-.128.929-.24.199-.111.298-.305.298-.581v-.058c0-.717-.196-1.273-.588-1.671-.387-.397-.976-.595-1.765-.595-.818 0-1.46.179-1.925.537-.465.359-.791.741-.98 1.148l-1.627-.581c.29-.678.678-1.206 1.162-1.583a4.348 4.348 0 0 1 1.598-.799 6.63 6.63 0 0 1 1.714-.233c.358 0 .77.044 1.235.131.469.082.922.254 1.358.516.44.261.806.656 1.096 1.183.291.528.436 1.235.436 2.121v7.351h-1.714v-1.511h-.087c-.116.242-.31.501-.581.777-.271.276-.632.511-1.082.705-.451.193-1 .29-1.649.29Zm.262-1.54c.677 0 1.249-.133 1.714-.399.469-.267.823-.61 1.06-1.032.242-.421.363-.864.363-1.329v-1.569c-.072.088-.232.168-.479.24a8.197 8.197 0 0 1-.843.182 36.36 36.36 0 0 1-.922.13c-.295.034-.535.063-.719.088a6.502 6.502 0 0 0-1.249.283 2.148 2.148 0 0 0-.93.574c-.233.251-.349.595-.349 1.031 0 .596.221 1.046.661 1.351.446.3 1.01.45 1.693.45Zm14.86-7.379-1.54.436a2.854 2.854 0 0 0-.429-.748 2.074 2.074 0 0 0-.755-.61c-.32-.16-.729-.24-1.228-.24-.682 0-1.251.157-1.706.472-.451.31-.676.704-.676 1.184 0 .426.155.762.465 1.009.31.247.794.453 1.453.618l1.656.407c.997.242 1.74.612 2.229 1.111.489.494.734 1.13.734 1.91 0 .639-.184 1.21-.552 1.714-.363.504-.872.901-1.525 1.191-.654.291-1.414.436-2.281.436-1.138 0-2.08-.247-2.825-.741-.746-.494-1.218-1.215-1.417-2.164l1.627-.407c.155.6.448 1.051.879 1.351.436.3 1.005.45 1.707.45.799 0 1.433-.169 1.903-.508.474-.344.712-.755.712-1.235 0-.387-.136-.712-.407-.973-.271-.266-.688-.465-1.249-.596l-1.86-.435c-1.021-.243-1.772-.618-2.251-1.126-.475-.514-.712-1.155-.712-1.925 0-.629.177-1.186.53-1.671.358-.484.845-.864 1.46-1.14.62-.276 1.322-.414 2.106-.414 1.104 0 1.971.242 2.601.726.634.485 1.084 1.124 1.351 1.918Zm6.438 8.89c-1.075 0-2.002-.237-2.782-.712-.775-.479-1.373-1.147-1.794-2.004-.416-.862-.624-1.865-.624-3.007 0-1.143.208-2.15.624-3.022.421-.876 1.007-1.559 1.758-2.048.755-.494 1.636-.741 2.644-.741a5.28 5.28 0 0 1 1.721.291 4.25 4.25 0 0 1 1.547.944c.465.431.835 1.002 1.111 1.714s.414 1.588.414 2.629v.727h-8.599v-1.482h6.856c0-.63-.126-1.191-.378-1.685a2.842 2.842 0 0 0-1.06-1.17c-.455-.285-.993-.428-1.612-.428-.683 0-1.274.169-1.773.508-.493.334-.874.77-1.14 1.308a3.84 3.84 0 0 0-.399 1.728v.988c0 .843.145 1.557.435 2.143.296.581.705 1.024 1.228 1.329.523.3 1.131.45 1.823.45.45 0 .857-.063 1.22-.189.368-.13.685-.324.952-.581.266-.261.472-.586.617-.973l1.656.465a3.669 3.669 0 0 1-.879 1.482c-.411.421-.92.75-1.525.987-.605.233-1.286.349-2.041.349Zm12.038 3.951c-.291 0-.55-.024-.777-.072a2.09 2.09 0 0 1-.472-.131l.435-1.511c.417.107.785.145 1.104.116.32-.029.603-.172.85-.428.252-.252.482-.661.69-1.228l.32-.871-4.126-11.215h1.86l3.079 8.89h.116l3.08-8.89h1.859l-4.735 12.784c-.213.576-.477 1.053-.792 1.43a2.96 2.96 0 0 1-1.097.85 3.378 3.378 0 0 1-1.394.276Zm13.391-3.951c-1.007 0-1.891-.24-2.651-.719-.756-.479-1.346-1.15-1.772-2.012-.422-.862-.632-1.869-.632-3.021 0-1.162.21-2.177.632-3.044.426-.866 1.016-1.539 1.772-2.019.76-.479 1.644-.719 2.651-.719s1.888.24 2.644.719c.76.48 1.351 1.153 1.772 2.019.426.867.639 1.882.639 3.044 0 1.152-.213 2.159-.639 3.021-.421.862-1.012 1.533-1.772 2.012-.756.479-1.637.719-2.644.719Zm0-1.54c.765 0 1.394-.196 1.888-.588.494-.392.86-.908 1.097-1.547a5.93 5.93 0 0 0 .356-2.077 5.99 5.99 0 0 0-.356-2.085 3.509 3.509 0 0 0-1.097-1.561c-.494-.398-1.123-.596-1.888-.596-.765 0-1.395.198-1.889.596a3.515 3.515 0 0 0-1.096 1.561 5.968 5.968 0 0 0-.356 2.085c0 .745.118 1.438.356 2.077a3.471 3.471 0 0 0 1.096 1.547c.494.392 1.124.588 1.889.588Zm13.68-3.254v-6.595h1.714v11.157h-1.714v-1.889h-.117c-.261.567-.668 1.048-1.22 1.446-.552.392-1.249.588-2.092.588-.697 0-1.317-.153-1.859-.458-.542-.31-.968-.774-1.278-1.394-.31-.625-.465-1.412-.465-2.361v-7.089h1.714v6.973c0 .814.228 1.462.683 1.947.46.484 1.046.726 1.757.726.427 0 .86-.109 1.301-.327a2.836 2.836 0 0 0 1.118-1.002c.305-.451.458-1.024.458-1.722Zm3.831 4.562v-11.157h1.656v1.685h.116c.203-.552.571-.999 1.104-1.343a3.246 3.246 0 0 1 1.801-.516c.126 0 .283.003.472.007.189.005.332.012.429.022v1.743a5.459 5.459 0 0 0-.4-.065 3.916 3.916 0 0 0-.646-.051 3.04 3.04 0 0 0-1.453.341 2.58 2.58 0 0 0-1.002.93c-.242.392-.363.84-.363 1.344v7.06h-1.714Zm12.159 0h-1.888l5.462-14.875h1.859l5.462 14.875h-1.889l-4.445-12.522h-.116l-4.445 12.522Zm.697-5.811h7.612v1.598h-7.612v-1.598Zm11.26 5.811v-11.157h1.656V504h.145a2.805 2.805 0 0 1 1.126-1.388c.518-.334 1.14-.501 1.866-.501.736 0 1.349.167 1.838.501.494.33.879.792 1.155 1.388h.116a3.245 3.245 0 0 1 1.286-1.373c.571-.344 1.256-.516 2.055-.516.998 0 1.813.312 2.448.937.634.62.951 1.586.951 2.898v7.467h-1.714v-7.467c0-.823-.225-1.411-.675-1.765-.451-.353-.981-.53-1.591-.53-.784 0-1.392.237-1.823.712-.431.469-.646 1.065-.646 1.786v7.264h-1.744v-7.641c0-.635-.205-1.145-.617-1.533-.412-.392-.942-.588-1.591-.588-.445 0-.862.119-1.249.356a2.692 2.692 0 0 0-.93.988c-.232.416-.348.898-.348 1.445v6.973h-1.714Zm21.286.232c-1.007 0-1.891-.24-2.651-.719-.756-.479-1.346-1.15-1.772-2.012-.422-.862-.632-1.869-.632-3.021 0-1.162.21-2.177.632-3.044.426-.866 1.016-1.539 1.772-2.019.76-.479 1.644-.719 2.651-.719s1.888.24 2.644.719c.76.48 1.351 1.153 1.772 2.019.426.867.639 1.882.639 3.044 0 1.152-.213 2.159-.639 3.021-.421.862-1.012 1.533-1.772 2.012-.756.479-1.637.719-2.644.719Zm0-1.54c.765 0 1.394-.196 1.888-.588.494-.392.86-.908 1.097-1.547a5.93 5.93 0 0 0 .356-2.077 5.99 5.99 0 0 0-.356-2.085 3.509 3.509 0 0 0-1.097-1.561c-.494-.398-1.123-.596-1.888-.596-.765 0-1.395.198-1.889.596-.494.397-.859.917-1.096 1.561a5.968 5.968 0 0 0-.356 2.085c0 .745.118 1.438.356 2.077.237.639.602 1.155 1.096 1.547.494.392 1.124.588 1.889.588Zm8.363-5.404v6.712h-1.714v-11.157h1.656V504h.145a3.193 3.193 0 0 1 1.191-1.366c.533-.349 1.22-.523 2.063-.523.755 0 1.416.155 1.983.465.566.305 1.007.77 1.322 1.395.314.619.472 1.404.472 2.353v7.089h-1.714v-6.973c0-.876-.228-1.559-.683-2.048-.455-.494-1.08-.741-1.874-.741-.547 0-1.036.119-1.467.356a2.546 2.546 0 0 0-1.01 1.038c-.247.456-.37 1.008-.37 1.656Zm13.73 11.128c-.827 0-1.539-.107-2.135-.32-.595-.208-1.092-.484-1.489-.828a4.554 4.554 0 0 1-.937-1.089l1.366-.959c.155.203.351.436.588.697.237.266.562.496.973.69.417.199.961.298 1.634.298.901 0 1.644-.218 2.23-.654.586-.436.879-1.118.879-2.048v-2.266h-.145a9.172 9.172 0 0 1-.538.755c-.227.296-.556.559-.987.792-.427.227-1.003.341-1.729.341-.901 0-1.709-.213-2.426-.639-.712-.426-1.276-1.046-1.692-1.859-.412-.814-.618-1.801-.618-2.964 0-1.142.201-2.137.603-2.985.402-.852.961-1.51 1.678-1.975.717-.47 1.545-.705 2.484-.705.726 0 1.303.121 1.729.363.431.238.76.509.987.814.233.3.412.547.538.741h.174v-1.773h1.656v11.476c0 .959-.218 1.738-.653 2.339a3.723 3.723 0 0 1-1.744 1.329c-.726.286-1.535.429-2.426.429Zm-.058-6.131c.688 0 1.269-.157 1.744-.472.474-.314.835-.767 1.082-1.358.247-.591.37-1.297.37-2.121 0-.803-.121-1.513-.363-2.128-.242-.615-.6-1.096-1.075-1.445-.474-.349-1.06-.523-1.758-.523-.726 0-1.331.184-1.815.552-.48.368-.84.862-1.083 1.482-.237.619-.355 1.307-.355 2.062 0 .775.121 1.46.363 2.056.247.591.61 1.055 1.089 1.394.484.334 1.085.501 1.801.501Zm21.72-13.16h1.801v9.849c0 1.016-.239 1.924-.719 2.723-.474.794-1.145 1.421-2.012 1.881-.866.455-1.883.683-3.05.683-1.167 0-2.184-.228-3.051-.683-.866-.46-1.539-1.087-2.019-1.881-.474-.799-.712-1.707-.712-2.723v-9.849h1.802v9.703c0 .727.159 1.373.479 1.94.32.561.775 1.004 1.366 1.329.595.319 1.307.479 2.135.479.828 0 1.54-.16 2.135-.479a3.384 3.384 0 0 0 1.366-1.329c.319-.567.479-1.213.479-1.94v-9.703Zm12.046 6.217-1.54.436a2.854 2.854 0 0 0-.429-.748 2.066 2.066 0 0 0-.755-.61c-.32-.16-.729-.24-1.228-.24-.682 0-1.251.157-1.706.472-.451.31-.676.704-.676 1.184 0 .426.155.762.465 1.009.31.247.794.453 1.453.618l1.656.407c.997.242 1.74.612 2.229 1.111.489.494.734 1.13.734 1.91 0 .639-.184 1.21-.552 1.714-.363.504-.872.901-1.525 1.191-.654.291-1.414.436-2.281.436-1.138 0-2.08-.247-2.825-.741-.746-.494-1.218-1.215-1.417-2.164l1.627-.407c.155.6.448 1.051.879 1.351.436.3 1.005.45 1.707.45.799 0 1.433-.169 1.903-.508.475-.344.712-.755.712-1.235 0-.387-.136-.712-.407-.973-.271-.266-.688-.465-1.249-.596l-1.86-.435c-1.021-.243-1.772-.618-2.251-1.126-.475-.514-.712-1.155-.712-1.925 0-.629.177-1.186.53-1.671.359-.484.845-.864 1.46-1.14.62-.276 1.322-.414 2.106-.414 1.104 0 1.971.242 2.601.726.634.485 1.084 1.124 1.351 1.918ZM45.284 538.413v-14.875h5.026c1.167 0 2.121.21 2.862.632.746.416 1.298.98 1.656 1.692.358.712.537 1.506.537 2.382 0 .877-.179 1.673-.537 2.39-.354.716-.9 1.288-1.642 1.714-.74.421-1.69.632-2.847.632h-3.602v-1.598h3.544c.8 0 1.44-.138 1.925-.414a2.468 2.468 0 0 0 1.053-1.119c.223-.474.334-1.009.334-1.605 0-.595-.111-1.128-.334-1.598-.218-.469-.571-.837-1.06-1.104-.49-.271-1.138-.406-1.947-.406h-3.167v13.277h-1.8Zm13.442-14.875v14.875h-1.714v-14.875h1.714Zm9.148 10.313v-6.595h1.714v11.157h-1.714v-1.889h-.117c-.261.567-.668 1.048-1.22 1.446-.552.392-1.25.588-2.092.588-.697 0-1.317-.153-1.859-.458-.542-.31-.968-.774-1.278-1.394-.31-.625-.465-1.412-.465-2.361v-7.089h1.714v6.973c0 .814.228 1.462.683 1.947.46.484 1.046.726 1.757.726.427 0 .86-.109 1.3-.327a2.836 2.836 0 0 0 1.119-1.002c.305-.451.458-1.024.458-1.722Zm11.733-4.096-1.54.436a2.85 2.85 0 0 0-.428-.748 2.071 2.071 0 0 0-.756-.61c-.32-.16-.729-.24-1.227-.24-.683 0-1.252.157-1.707.472-.45.31-.676.704-.676 1.184 0 .426.155.762.465 1.009.31.247.794.453 1.453.618l1.656.407c.997.242 1.74.612 2.23 1.111.489.494.733 1.13.733 1.91 0 .639-.184 1.21-.552 1.714-.363.504-.871.901-1.525 1.191-.654.291-1.414.436-2.28.436-1.139 0-2.08-.247-2.826-.741s-1.218-1.215-1.416-2.164l1.627-.407c.155.6.448 1.051.878 1.351.436.3 1.005.45 1.707.45.8 0 1.433-.169 1.903-.508.475-.344.712-.755.712-1.235 0-.387-.136-.712-.407-.973-.27-.266-.687-.465-1.249-.596l-1.86-.435c-1.021-.243-1.772-.618-2.25-1.126-.476-.514-.713-1.155-.713-1.925 0-.629.177-1.186.53-1.671.359-.484.845-.864 1.46-1.14.62-.276 1.322-.414 2.107-.414 1.104 0 1.97.242 2.6.726a3.92 3.92 0 0 1 1.35 1.918Zm3.475 1.946v6.712h-1.714v-14.875h1.714V529h.145a3.15 3.15 0 0 1 1.177-1.373c.528-.344 1.23-.516 2.106-.516.76 0 1.426.153 1.997.458.572.3 1.015.762 1.33 1.387.32.62.479 1.409.479 2.368v7.089h-1.714v-6.973c0-.886-.23-1.571-.69-2.055-.455-.49-1.087-.734-1.896-.734-.562 0-1.065.119-1.51.356-.441.237-.79.583-1.046 1.038-.252.456-.378 1.008-.378 1.656Zm9.347 6.712v-11.157h1.714v11.157H92.43Zm.872-13.016a1.22 1.22 0 0 1-.865-.341 1.097 1.097 0 0 1-.356-.821c0-.32.12-.593.356-.821a1.22 1.22 0 0 1 .865-.341c.334 0 .62.114.857.341.242.228.363.501.363.821 0 .32-.121.593-.363.821a1.196 1.196 0 0 1-.857.341Zm7.637 13.248c-1.075 0-2.003-.237-2.782-.712-.775-.479-1.373-1.147-1.794-2.004-.417-.862-.625-1.865-.625-3.007 0-1.143.208-2.15.625-3.022.421-.876 1.007-1.559 1.758-2.048.755-.494 1.636-.741 2.643-.741.581 0 1.155.097 1.722.291a4.258 4.258 0 0 1 1.547.944c.464.431.835 1.002 1.111 1.714s.414 1.588.414 2.629v.727h-8.6v-1.482h6.857c0-.63-.126-1.191-.378-1.685a2.848 2.848 0 0 0-1.06-1.17c-.455-.285-.993-.428-1.613-.428-.682 0-1.273.169-1.772.508-.494.334-.874.77-1.14 1.308a3.837 3.837 0 0 0-.4 1.728v.988c0 .843.146 1.557.436 2.143a3.144 3.144 0 0 0 1.228 1.329c.523.3 1.13.45 1.823.45.45 0 .857-.063 1.22-.189.368-.13.685-.324.951-.581a2.64 2.64 0 0 0 .618-.973l1.656.465a3.691 3.691 0 0 1-.879 1.482c-.412.421-.92.75-1.525.987-.606.233-1.286.349-2.041.349Zm7.453-.116a1.26 1.26 0 0 1-.922-.385 1.258 1.258 0 0 1-.385-.923c0-.358.128-.665.385-.922.256-.257.564-.385.922-.385.358 0 .666.128.922.385.257.257.385.564.385.922 0 .238-.06.456-.181.654a1.353 1.353 0 0 1-.472.479 1.241 1.241 0 0 1-.654.175Z" fill="#fff"/><path fill-rule="evenodd" clip-rule="evenodd" d="M317.383 633.114c-14.106 0-25.542 11.436-25.542 25.543s11.436 25.543 25.542 25.543h71.96c14.107 0 25.543-11.436 25.543-25.543s-11.436-25.543-25.543-25.543h-71.96Zm-11.708 19.965v12.351h7.815v-1.604h-5.952v-3.781h5.476v-1.598h-5.476v-3.764h5.88v-1.604h-7.743Zm9.238 3.088v9.263h1.803v-5.657a2.013 2.013 0 0 1 1.074-1.815 2.354 2.354 0 0 1 1.14-.271c.185 0 .37.014.555.042.184.024.313.046.385.066v-1.725a2.558 2.558 0 0 0-2.225.392 2.239 2.239 0 0 0-.892 1.176h-.097v-1.471h-1.743Zm6.689 9.142a3.79 3.79 0 0 0 1.593.326c.51 0 .948-.074 1.314-.223.366-.149.666-.336.899-.561.233-.225.408-.454.524-.687h.073v1.266h1.761v-6.151c0-.676-.117-1.224-.35-1.647a2.608 2.608 0 0 0-.899-.983 3.423 3.423 0 0 0-1.17-.47 5.667 5.667 0 0 0-1.175-.133c-.559 0-1.092.081-1.599.242a3.57 3.57 0 0 0-1.344.759c-.386.346-.68.8-.881 1.363l1.695.386c.132-.325.372-.621.717-.886.35-.27.829-.404 1.436-.404.583 0 1.021.144 1.314.434.298.289.447.697.447 1.224v.042c0 .217-.079.374-.236.471-.156.096-.408.167-.753.211l-1.351.157c-.439.052-.869.128-1.291.229-.422.1-.804.249-1.146.446a2.228 2.228 0 0 0-.814.802c-.201.338-.301.768-.301 1.291 0 .607.136 1.119.41 1.538.277.418.653.737 1.127.958Zm3.263-1.417c-.354.197-.78.296-1.278.296-.511 0-.931-.113-1.261-.338-.33-.229-.494-.567-.494-1.013 0-.322.084-.579.253-.772.173-.197.402-.348.687-.452.29-.105.609-.179.959-.224l.555-.072c.221-.032.448-.066.682-.102.233-.041.44-.087.621-.139.185-.056.309-.117.374-.181v1.194a2 2 0 0 1-.284 1.031 2.065 2.065 0 0 1-.814.772Zm9.76-5.174 1.635-.29c-.185-.723-.565-1.3-1.14-1.73-.575-.435-1.363-.652-2.364-.652-.696 0-1.313.117-1.852.35-.538.229-.96.549-1.266.959-.306.41-.458.888-.458 1.435 0 .66.205 1.204.615 1.635.414.43 1.053.743 1.918.94l1.567.344c.443.101.77.249.983.446a.945.945 0 0 1 .326.73c0 .358-.177.661-.531.911-.353.245-.826.368-1.417.368-.543 0-.983-.115-1.32-.344-.338-.233-.561-.577-.67-1.031l-1.743.265c.149.82.551 1.453 1.206 1.9.656.442 1.502.663 2.539.663.748 0 1.405-.123 1.972-.368.571-.245 1.015-.583 1.333-1.013.322-.434.483-.929.483-1.484 0-.655-.21-1.188-.628-1.598-.418-.41-1.053-.713-1.905-.91l-1.472-.338c-.51-.121-.88-.275-1.109-.464a.92.92 0 0 1-.344-.748c0-.358.171-.65.512-.875.342-.229.768-.343 1.279-.343.374 0 .685.06.935.181.249.12.446.275.591.464.148.189.257.388.325.597Zm4.583 6.314c.66.39 1.446.585 2.358.585.676 0 1.277-.103 1.803-.308.531-.209.971-.5 1.321-.874.354-.378.599-.818.736-1.321l-1.707-.307a1.933 1.933 0 0 1-1.2 1.176 2.88 2.88 0 0 1-.935.144c-.526 0-.987-.112-1.381-.337a2.359 2.359 0 0 1-.922-.995c-.203-.405-.311-.889-.324-1.454h6.583v-.639c0-.84-.112-1.554-.337-2.141-.225-.591-.533-1.071-.923-1.441-.39-.37-.83-.641-1.321-.814a4.533 4.533 0 0 0-1.519-.26c-.861 0-1.613.203-2.256.609-.639.406-1.138.971-1.495 1.695-.354.724-.531 1.56-.531 2.509 0 .961.177 1.799.531 2.515a3.966 3.966 0 0 0 1.519 1.658Zm-.248-5.042c.021-.398.12-.77.297-1.115.205-.398.494-.72.868-.965.378-.249.82-.374 1.327-.374.466 0 .872.106 1.218.32.35.213.621.504.814.874.193.366.289.786.289 1.26h-4.813Zm12.481 5.319a3.782 3.782 0 0 0 1.592.326c.51 0 .949-.074 1.315-.223.365-.149.665-.336.898-.561.233-.225.408-.454.525-.687h.072v1.266h1.761v-6.151c0-.676-.116-1.224-.35-1.647a2.606 2.606 0 0 0-.898-.983 3.439 3.439 0 0 0-1.17-.47 5.668 5.668 0 0 0-1.176-.133 5.24 5.24 0 0 0-1.598.242c-.507.156-.955.41-1.345.759-.386.346-.68.8-.881 1.363l1.695.386c.133-.325.372-.621.718-.886.349-.27.828-.404 1.435-.404.583 0 1.021.144 1.315.434.297.289.446.697.446 1.224v.042c0 .217-.078.374-.235.471-.157.096-.408.167-.754.211l-1.351.157c-.438.052-.868.128-1.291.229-.422.1-.804.249-1.145.446a2.22 2.22 0 0 0-.814.802c-.201.338-.302.768-.302 1.291 0 .607.137 1.119.41 1.538.277.418.653.737 1.128.958Zm3.262-1.417c-.353.197-.78.296-1.278.296-.511 0-.931-.113-1.261-.338-.329-.229-.494-.567-.494-1.013 0-.322.084-.579.253-.772a1.64 1.64 0 0 1 .688-.452 4.48 4.48 0 0 1 .959-.224l.554-.072c.222-.032.449-.066.682-.102.233-.041.44-.087.621-.139.185-.056.31-.117.374-.181v1.194c0 .366-.095.71-.283 1.031a2.068 2.068 0 0 1-.815.772Zm6.257 1.538v-12.351h-1.803v12.351h1.803Zm3.38 0v-12.351h-1.803v12.351h1.803Zm6.687-.392c.587.382 1.254.573 2.002.573.563 0 1.021-.095 1.375-.284a2.6 2.6 0 0 0 .832-.663c.205-.253.362-.478.471-.675h.151v1.441h1.761v-12.351h-1.804v4.59h-.108a5.62 5.62 0 0 0-.458-.67c-.193-.253-.467-.474-.821-.663-.349-.193-.812-.29-1.387-.29-.743 0-1.409.189-1.996.567-.587.378-1.049.923-1.387 1.635-.334.711-.5 1.567-.5 2.569 0 1.001.164 1.859.494 2.575.334.711.792 1.26 1.375 1.646Zm3.715-1.375c-.358.273-.796.41-1.315.41-.534 0-.985-.143-1.351-.428-.361-.29-.635-.682-.82-1.176-.185-.495-.277-1.051-.277-1.671 0-.611.09-1.159.271-1.646.185-.486.459-.87.82-1.152.362-.281.815-.422 1.357-.422.527 0 .969.135 1.327.404.358.27.629.645.814 1.128.185.482.278 1.045.278 1.688 0 .652-.095 1.223-.284 1.713-.185.491-.458.875-.82 1.152Zm5.705 1.646a3.782 3.782 0 0 0 1.592.326c.51 0 .949-.074 1.314-.223.366-.149.666-.336.899-.561.233-.225.408-.454.525-.687h.072v1.266h1.761v-6.151c0-.676-.117-1.224-.35-1.647a2.614 2.614 0 0 0-.898-.983 3.439 3.439 0 0 0-1.17-.47 5.668 5.668 0 0 0-1.176-.133 5.24 5.24 0 0 0-1.598.242c-.507.156-.955.41-1.345.759-.386.346-.68.8-.881 1.363l1.695.386c.133-.325.372-.621.717-.886.35-.27.829-.404 1.436-.404.583 0 1.021.144 1.314.434.298.289.447.697.447 1.224v.042c0 .217-.079.374-.235.471-.157.096-.409.167-.754.211l-1.351.157c-.438.052-.869.128-1.291.229-.422.1-.804.249-1.146.446a2.228 2.228 0 0 0-.814.802c-.201.338-.301.768-.301 1.291 0 .607.136 1.119.41 1.538.277.418.653.737 1.128.958Zm3.262-1.417c-.354.197-.78.296-1.278.296-.511 0-.931-.113-1.261-.338-.329-.229-.494-.567-.494-1.013 0-.322.084-.579.253-.772a1.64 1.64 0 0 1 .688-.452c.289-.105.609-.179.958-.224l.555-.072c.221-.032.449-.066.682-.102.233-.041.44-.087.621-.139.185-.056.309-.117.374-.181v1.194a2 2 0 0 1-.284 1.031 2.065 2.065 0 0 1-.814.772Zm8.777-6.278v-1.447h-1.899v-2.219h-1.803v2.219h-1.357v1.447h1.357v5.47c0 .559.126 1.023.38 1.393.253.37.585.643.995.82.41.177.852.262 1.326.254a3.54 3.54 0 0 0 .724-.073c.193-.04.342-.08.446-.12l-.325-1.49-.254.048c-.108.02-.235.03-.38.03-.197 0-.379-.03-.548-.09a.813.813 0 0 1-.404-.356c-.105-.177-.157-.44-.157-.79v-5.096h1.899Zm2.25 7.695a3.782 3.782 0 0 0 1.592.326c.51 0 .948-.074 1.314-.223.366-.149.666-.336.899-.561.233-.225.408-.454.525-.687h.072v1.266h1.761v-6.151c0-.676-.117-1.224-.35-1.647a2.614 2.614 0 0 0-.898-.983 3.439 3.439 0 0 0-1.17-.47 5.676 5.676 0 0 0-1.176-.133 5.24 5.24 0 0 0-1.598.242c-.507.156-.955.41-1.345.759-.386.346-.68.8-.881 1.363l1.695.386c.132-.325.372-.621.717-.886.35-.27.829-.404 1.436-.404.583 0 1.021.144 1.314.434.298.289.447.697.447 1.224v.042c0 .217-.079.374-.236.471-.156.096-.408.167-.753.211l-1.351.157c-.438.052-.869.128-1.291.229-.422.1-.804.249-1.146.446a2.228 2.228 0 0 0-.814.802c-.201.338-.301.768-.301 1.291 0 .607.136 1.119.41 1.538.277.418.653.737 1.128.958Zm3.262-1.417c-.354.197-.78.296-1.278.296-.511 0-.931-.113-1.261-.338-.329-.229-.494-.567-.494-1.013 0-.322.084-.579.253-.772a1.64 1.64 0 0 1 .688-.452c.289-.105.609-.179.958-.224l.555-.072c.221-.032.448-.066.682-.102.233-.041.44-.087.621-.139.185-.056.309-.117.374-.181v1.194a2 2 0 0 1-.284 1.031 2.065 2.065 0 0 1-.814.772Z" fill="#FEDBC3"/><path d="M1.77 601.983h448.533" stroke="#3A3633" stroke-width="1.67" stroke-linecap="round"/></g><defs><clipPath id="a"><rect x=".636" y="222.793" width="450.8" height="505.898" rx="17.114" fill="#fff"/></clipPath></defs></svg>