<svg width="488" height="99" fill="none" xmlns="http://www.w3.org/2000/svg"><rect x=".636" y=".04" width="486.561" height="98.478" rx="10" fill="#332F2C"/><path d="M95.664 31.937c-.094-.837-.483-1.485-1.167-1.945-.684-.466-1.544-.698-2.581-.698-.743 0-1.385.118-1.927.353-.543.23-.964.548-1.264.955-.295.4-.442.857-.442 1.37 0 .43.1.802.3 1.114.206.312.474.575.805.787.335.206.695.38 1.078.521.383.136.751.248 1.105.336l1.768.46c.578.142 1.17.333 1.777.575.607.241 1.17.56 1.688.954.519.395.937.884 1.256 1.468.324.583.486 1.282.486 2.095 0 1.025-.265 1.936-.796 2.732-.524.795-1.287 1.423-2.29 1.882-.995.46-2.2.69-3.615.69-1.355 0-2.528-.215-3.518-.645-.99-.43-1.765-1.04-2.325-1.83-.56-.796-.87-1.739-.928-2.83h2.74c.053.655.265 1.2.636 1.636.378.43.858.752 1.441.964.59.206 1.235.31 1.936.31.772 0 1.459-.122 2.06-.363.607-.248 1.084-.59 1.432-1.026a2.43 2.43 0 0 0 .522-1.547c0-.536-.153-.975-.46-1.317-.3-.342-.71-.625-1.229-.848a12.008 12.008 0 0 0-1.741-.593l-2.14-.583c-1.45-.395-2.599-.976-3.447-1.742-.843-.766-1.264-1.78-1.264-3.04 0-1.044.283-1.954.848-2.732.566-.778 1.332-1.382 2.299-1.812.966-.437 2.057-.655 3.27-.655 1.226 0 2.308.215 3.245.646.943.43 1.685 1.022 2.228 1.777.542.748.825 1.608.848 2.58h-2.634Zm6.36 18.44c-.395 0-.754-.032-1.079-.097-.324-.059-.565-.124-.724-.194l.636-2.166c.483.13.913.185 1.291.168.377-.018.71-.16.999-.425.294-.265.554-.698.778-1.3l.327-.9-4.968-13.756h2.828l3.439 10.537h.142l3.438-10.537h2.838l-5.596 15.39c-.259.708-.589 1.306-.99 1.795a3.846 3.846 0 0 1-1.432 1.114c-.554.248-1.196.371-1.927.371Zm21.359-15.355-2.395.424a2.858 2.858 0 0 0-.478-.875 2.362 2.362 0 0 0-.866-.68c-.365-.177-.822-.266-1.37-.266-.749 0-1.373.168-1.874.504-.501.33-.752.758-.752 1.282 0 .454.168.82.504 1.096.336.277.878.504 1.627.68l2.157.496c1.249.289 2.18.734 2.793 1.335.613.6.92 1.382.92 2.342 0 .814-.236 1.539-.708 2.175-.465.63-1.117 1.126-1.953 1.485-.831.36-1.795.54-2.891.54-1.521 0-2.761-.325-3.722-.973-.96-.654-1.55-1.582-1.768-2.785l2.555-.389c.159.666.486 1.17.981 1.512.495.336 1.141.504 1.936.504.867 0 1.559-.18 2.078-.54.518-.365.778-.81.778-1.334 0-.424-.16-.781-.478-1.07-.312-.288-.792-.507-1.441-.654l-2.298-.504c-1.267-.289-2.204-.748-2.811-1.379-.601-.63-.902-1.429-.902-2.395 0-.802.224-1.503.672-2.104.448-.602 1.067-1.07 1.856-1.406.79-.342 1.695-.513 2.714-.513 1.468 0 2.623.319 3.466.955.842.63 1.399 1.476 1.67 2.537Zm8.265-3.315v2.122h-7.416v-2.122h7.416Zm-5.427-3.253h2.643v12.844c0 .513.076.9.23 1.159.153.253.35.427.592.521.247.088.516.133.804.133.212 0 .398-.015.557-.044.159-.03.283-.053.371-.071l.478 2.183a4.417 4.417 0 0 1-.654.177c-.283.065-.637.1-1.061.106a4.652 4.652 0 0 1-1.945-.371 3.342 3.342 0 0 1-1.459-1.202c-.371-.543-.556-1.223-.556-2.042V28.454Zm12.813 17.105c-1.338 0-2.49-.285-3.457-.857-.96-.578-1.703-1.388-2.227-2.431-.519-1.05-.778-2.278-.778-3.686 0-1.391.259-2.617.778-3.678.524-1.06 1.255-1.889 2.192-2.484.943-.595 2.045-.893 3.306-.893.766 0 1.509.127 2.228.38a5.398 5.398 0 0 1 1.936 1.194c.571.542 1.022 1.246 1.352 2.113.33.86.495 1.906.495 3.138v.937h-10.793v-1.98h8.203c0-.696-.141-1.312-.424-1.848a3.208 3.208 0 0 0-1.194-1.282c-.506-.312-1.102-.468-1.785-.468-.743 0-1.391.182-1.945.548-.548.36-.972.83-1.273 1.414a4.08 4.08 0 0 0-.442 1.883v1.547c0 .908.159 1.68.477 2.316.325.637.775 1.123 1.353 1.459.577.33 1.252.495 2.024.495.501 0 .958-.07 1.37-.212.413-.148.77-.366 1.07-.654.301-.29.531-.646.69-1.07l2.501.45a4.522 4.522 0 0 1-1.078 1.937c-.513.548-1.158.975-1.936 1.282-.772.3-1.653.45-2.643.45Zm7.513-.274V31.707h2.537v2.21h.168a3.511 3.511 0 0 1 1.388-1.75c.643-.425 1.412-.637 2.308-.637.907 0 1.667.212 2.28.637.619.424 1.076 1.008 1.371 1.75h.141a3.821 3.821 0 0 1 1.547-1.733c.707-.436 1.55-.654 2.528-.654 1.232 0 2.237.386 3.015 1.158.784.772 1.175 1.936 1.175 3.492v9.105h-2.643v-8.857c0-.92-.25-1.586-.751-1.998-.501-.413-1.099-.619-1.795-.619-.86 0-1.529.265-2.006.796-.478.524-.716 1.199-.716 2.024v8.654h-2.635V36.26c0-.737-.23-1.33-.689-1.777-.46-.448-1.058-.672-1.795-.672a2.57 2.57 0 0 0-1.388.398c-.418.26-.757.621-1.016 1.087-.254.466-.38 1.005-.38 1.618v8.371h-2.644ZM87.294 74.088V61.036h1.581v11.65h6.067v1.402h-7.648Zm11.875.23c-.62 0-1.183-.117-1.689-.35a2.9 2.9 0 0 1-1.204-1.027c-.298-.45-.446-.994-.446-1.631 0-.561.11-1.016.331-1.364a2.34 2.34 0 0 1 .886-.829c.37-.2.778-.348 1.224-.446.45-.102.903-.183 1.357-.242a60.74 60.74 0 0 1 1.447-.172c.374-.043.646-.113.816-.21.174-.098.261-.268.261-.51v-.052c0-.628-.172-1.117-.516-1.465-.34-.349-.856-.523-1.549-.523-.718 0-1.28.157-1.689.472-.408.314-.694.65-.86 1.007l-1.428-.51c.255-.595.595-1.058 1.02-1.39.429-.335.896-.569 1.402-.7a5.825 5.825 0 0 1 1.504-.205c.315 0 .676.038 1.084.115.412.072.809.223 1.191.453.387.229.708.575.963 1.038.255.463.382 1.084.382 1.861v6.45h-1.504v-1.325h-.076c-.102.212-.272.44-.51.682-.238.242-.555.448-.95.618-.395.17-.877.255-1.447.255Zm.23-1.351c.595 0 1.096-.117 1.504-.35.412-.235.722-.536.93-.906.213-.37.319-.758.319-1.166v-1.377c-.064.077-.204.147-.42.21-.213.06-.459.113-.74.16a33.77 33.77 0 0 1-1.44.19c-.391.052-.757.135-1.096.25a1.89 1.89 0 0 0-.816.503c-.204.22-.306.523-.306.905 0 .523.193.918.58 1.186.39.263.886.395 1.485.395Zm7.609-4.768v5.89h-1.504v-9.79h1.453v1.53h.128a2.794 2.794 0 0 1 1.045-1.199c.468-.306 1.071-.459 1.81-.459.663 0 1.243.136 1.74.408.497.268.884.676 1.16 1.224.276.544.414 1.232.414 2.065v6.22h-1.504V67.97c0-.77-.199-1.368-.599-1.797-.399-.434-.947-.65-1.644-.65-.48 0-.909.104-1.288.312a2.236 2.236 0 0 0-.886.911c-.216.4-.325.884-.325 1.453Zm12.049 9.764c-.726 0-1.351-.093-1.874-.28-.522-.183-.958-.425-1.306-.727a3.979 3.979 0 0 1-.822-.956l1.198-.84c.136.178.308.382.516.611.208.234.493.436.854.605.365.175.844.262 1.434.262.79 0 1.443-.191 1.957-.574.514-.382.771-.981.771-1.797v-1.989h-.128c-.11.179-.267.4-.471.663-.2.26-.489.49-.867.695-.374.2-.879.3-1.517.3-.79 0-1.5-.188-2.129-.561-.624-.374-1.119-.918-1.485-1.632-.361-.714-.541-1.58-.541-2.6 0-1.003.176-1.876.529-2.62.352-.748.843-1.326 1.472-1.733.629-.413 1.355-.619 2.18-.619.637 0 1.143.106 1.517.319.378.208.667.446.866.714.204.263.362.48.472.65h.153v-1.555h1.453v10.07c0 .841-.191 1.525-.574 2.052-.378.531-.888.92-1.529 1.166-.638.251-1.347.376-2.129.376Zm-.051-5.379c.603 0 1.113-.138 1.53-.414.416-.276.733-.674.949-1.192.217-.518.325-1.139.325-1.86 0-.706-.106-1.329-.318-1.868-.213-.54-.527-.963-.944-1.269-.416-.306-.93-.459-1.542-.459-.637 0-1.168.162-1.593.485-.421.323-.737.756-.95 1.3a5.03 5.03 0 0 0-.312 1.81c0 .68.106 1.281.318 1.804.217.518.536.926.957 1.223.424.294.951.44 1.58.44Zm12.309-2.498v-5.787h1.504v9.79h-1.504V72.43h-.102a3.22 3.22 0 0 1-1.071 1.269c-.485.344-1.096.516-1.836.516-.612 0-1.155-.134-1.631-.402-.476-.272-.85-.68-1.122-1.223-.272-.548-.408-1.239-.408-2.072V64.3h1.504v6.118c0 .714.2 1.284.599 1.708.404.425.918.638 1.543.638.374 0 .754-.096 1.141-.287.39-.191.718-.484.981-.88.268-.395.402-.898.402-1.51Zm6.242 4.232a3.98 3.98 0 0 1-1.689-.35 2.902 2.902 0 0 1-1.205-1.027c-.297-.45-.446-.994-.446-1.631 0-.561.111-1.016.332-1.364.221-.353.516-.63.886-.829.369-.2.777-.348 1.223-.446.451-.102.903-.183 1.358-.242a60.922 60.922 0 0 1 1.447-.172c.374-.043.646-.113.815-.21.175-.098.262-.268.262-.51v-.052c0-.628-.172-1.117-.516-1.465-.34-.349-.857-.523-1.549-.523-.718 0-1.281.157-1.689.472-.408.314-.695.65-.861 1.007l-1.427-.51c.255-.595.595-1.058 1.02-1.39.429-.335.896-.569 1.402-.7a5.823 5.823 0 0 1 1.504-.205c.314 0 .675.038 1.083.115.412.072.81.223 1.192.453.387.229.708.575.963 1.038.254.463.382 1.084.382 1.861v6.45h-1.504v-1.325h-.077c-.102.212-.272.44-.51.682-.238.242-.554.448-.949.618-.395.17-.878.255-1.447.255Zm.229-1.351c.595 0 1.097-.117 1.505-.35.412-.235.722-.536.93-.906.213-.37.319-.758.319-1.166v-1.377c-.064.077-.204.147-.421.21-.212.06-.459.113-.739.16a33.136 33.136 0 0 1-1.441.19c-.39.052-.756.135-1.096.25a1.9 1.9 0 0 0-.816.503c-.204.22-.306.523-.306.905 0 .523.194.918.58 1.186.391.263.886.395 1.485.395Zm10.057 4.996c-.726 0-1.351-.093-1.873-.28-.523-.183-.958-.425-1.307-.727a3.979 3.979 0 0 1-.822-.956l1.198-.84c.136.178.308.382.516.611.209.234.493.436.854.605.366.175.844.262 1.434.262.791 0 1.443-.191 1.957-.574.514-.382.771-.981.771-1.797v-1.989h-.127c-.111.179-.268.4-.472.663-.2.26-.488.49-.867.695-.374.2-.879.3-1.516.3-.791 0-1.5-.188-2.129-.561-.625-.374-1.12-.918-1.485-1.632-.361-.714-.542-1.58-.542-2.6 0-1.003.176-1.876.529-2.62.353-.748.843-1.326 1.472-1.733.629-.413 1.356-.619 2.18-.619.637 0 1.143.106 1.517.319.378.208.667.446.867.714.204.263.361.48.471.65h.153v-1.555h1.453v10.07c0 .841-.191 1.525-.573 2.052-.378.531-.888.92-1.53 1.166-.637.251-1.347.376-2.129.376Zm-.051-5.379c.604 0 1.114-.138 1.53-.414.417-.276.733-.674.95-1.192.216-.518.325-1.139.325-1.86 0-.706-.106-1.329-.319-1.868-.212-.54-.527-.963-.943-1.269-.417-.306-.931-.459-1.543-.459-.637 0-1.168.162-1.593.485-.421.323-.737.756-.95 1.3a5.03 5.03 0 0 0-.312 1.81c0 .68.106 1.281.319 1.804.217.518.535.926.956 1.223.425.294.952.44 1.58.44Zm10.244 1.708c-.943 0-1.757-.208-2.441-.624a4.186 4.186 0 0 1-1.574-1.76c-.366-.756-.549-1.635-.549-2.638s.183-1.886.549-2.651c.369-.77.883-1.368 1.542-1.798.663-.433 1.436-.65 2.32-.65.51 0 1.013.085 1.51.255.498.17.95.446 1.358.829.408.378.733.88.975 1.504s.363 1.394.363 2.307v.637h-7.546v-1.3h6.017a3.21 3.21 0 0 0-.332-1.478 2.496 2.496 0 0 0-.93-1.026c-.4-.251-.871-.377-1.415-.377-.599 0-1.118.15-1.555.447a2.934 2.934 0 0 0-1.001 1.147c-.234.472-.35.977-.35 1.517v.867c0 .739.127 1.365.382 1.88.259.51.618.898 1.077 1.166.459.263.992.395 1.6.395.395 0 .752-.055 1.071-.166.323-.114.601-.284.835-.51.233-.229.414-.514.541-.853l1.453.407c-.153.493-.41.927-.771 1.3-.361.37-.807.66-1.338.867-.531.204-1.128.306-1.791.306Zm12.378-7.8-1.351.382a2.5 2.5 0 0 0-.376-.657 1.817 1.817 0 0 0-.663-.535c-.28-.14-.639-.21-1.077-.21-.599 0-1.098.138-1.498.414-.395.272-.592.618-.592 1.039 0 .374.136.669.408.886.272.216.696.397 1.274.541l1.453.357c.876.213 1.528.538 1.957.975.429.434.644.993.644 1.677 0 .56-.162 1.062-.485 1.504-.318.442-.764.79-1.338 1.045-.574.255-1.241.382-2.001.382-.999 0-1.825-.216-2.479-.65-.655-.433-1.069-1.066-1.243-1.9l1.427-.356c.136.527.393.922.772 1.186.382.263.881.395 1.497.395.701 0 1.258-.15 1.67-.447.417-.301.625-.662.625-1.083 0-.34-.119-.625-.357-.854-.238-.234-.604-.408-1.096-.523l-1.632-.382c-.897-.212-1.555-.542-1.976-.988-.416-.45-.624-1.013-.624-1.689 0-.552.155-1.04.465-1.466.314-.425.741-.758 1.281-1 .544-.243 1.16-.364 1.848-.364.969 0 1.73.213 2.282.638.557.425.952.985 1.185 1.682Zm3.789 5.812-.102.688a13.994 13.994 0 0 1-.331 1.555 30.115 30.115 0 0 1-.453 1.562c-.157.488-.287.877-.389 1.166h-1.147c.055-.272.128-.63.217-1.077.089-.446.178-.945.268-1.498.093-.548.17-1.109.229-1.682l.077-.714h1.631Zm9.991 5.66c-.726 0-1.351-.094-1.873-.281-.523-.183-.958-.425-1.307-.727a3.979 3.979 0 0 1-.822-.956l1.198-.84c.136.178.308.382.516.611.209.234.493.436.854.605.366.175.844.262 1.434.262.791 0 1.443-.191 1.957-.574.514-.382.771-.981.771-1.797v-1.989h-.127c-.111.179-.268.4-.472.663-.2.26-.488.49-.867.695-.374.2-.879.3-1.516.3-.791 0-1.5-.188-2.129-.561-.625-.374-1.12-.918-1.485-1.632-.361-.714-.542-1.58-.542-2.6 0-1.003.176-1.876.529-2.62.353-.748.843-1.326 1.472-1.733.629-.413 1.356-.619 2.18-.619.637 0 1.143.106 1.517.319.378.208.667.446.867.714.204.263.361.48.471.65h.153v-1.555h1.453v10.07c0 .841-.191 1.525-.573 2.052-.378.531-.888.92-1.53 1.166-.637.251-1.347.376-2.129.376Zm-.051-5.38c.604 0 1.114-.138 1.53-.414.416-.276.733-.674.95-1.192.216-.518.325-1.139.325-1.86 0-.706-.106-1.329-.319-1.868-.212-.54-.527-.963-.943-1.269-.417-.306-.931-.459-1.543-.459-.637 0-1.168.162-1.593.485-.421.323-.737.756-.95 1.3a5.03 5.03 0 0 0-.312 1.81c0 .68.106 1.281.319 1.804.217.518.535.926.956 1.223.425.294.952.44 1.58.44Zm10.244 1.708c-.943 0-1.757-.208-2.441-.624a4.186 4.186 0 0 1-1.574-1.76c-.366-.756-.549-1.635-.549-2.638s.183-1.886.549-2.651c.369-.77.883-1.368 1.542-1.798.663-.433 1.436-.65 2.32-.65.51 0 1.013.085 1.51.255.498.17.95.446 1.358.829.408.378.733.88.975 1.504s.363 1.394.363 2.307v.637h-7.546v-1.3h6.017a3.21 3.21 0 0 0-.332-1.478 2.496 2.496 0 0 0-.93-1.026c-.4-.251-.871-.377-1.415-.377-.599 0-1.118.15-1.555.447a2.934 2.934 0 0 0-1.001 1.147c-.234.472-.35.977-.35 1.517v.867c0 .739.127 1.365.382 1.88.259.51.618.898 1.077 1.166.459.263.992.395 1.6.395.395 0 .752-.055 1.071-.166.323-.114.601-.284.835-.51.233-.229.414-.514.541-.853l1.453.407c-.153.493-.41.927-.771 1.3-.361.37-.807.66-1.338.867-.531.204-1.128.306-1.791.306Zm12.378-7.8-1.351.382a2.5 2.5 0 0 0-.376-.657 1.817 1.817 0 0 0-.663-.535c-.28-.14-.639-.21-1.077-.21-.599 0-1.098.138-1.498.414-.395.272-.592.618-.592 1.039 0 .374.136.669.408.886.272.216.696.397 1.274.541l1.454.357c.875.213 1.527.538 1.956.975.429.434.644.993.644 1.677 0 .56-.162 1.062-.485 1.504-.318.442-.764.79-1.338 1.045-.574.255-1.241.382-2.001.382-.999 0-1.825-.216-2.479-.65-.655-.433-1.069-1.066-1.243-1.9l1.427-.356c.136.527.393.922.772 1.186.382.263.881.395 1.497.395.701 0 1.258-.15 1.67-.447.417-.301.625-.662.625-1.083 0-.34-.119-.625-.357-.854-.238-.234-.604-.408-1.096-.523l-1.632-.382c-.897-.212-1.555-.542-1.976-.988-.416-.45-.624-1.013-.624-1.689 0-.552.155-1.04.465-1.466.314-.425.741-.758 1.281-1 .544-.243 1.16-.364 1.848-.364.969 0 1.73.213 2.282.638.557.425.952.985 1.185 1.682Zm5.803-2.193v1.274h-5.073V64.3h5.073Zm-3.595-2.346h1.505v9.331c0 .425.061.744.184.956a.959.959 0 0 0 .485.42c.2.069.41.103.631.103.166 0 .301-.009.408-.026l.255-.05.306 1.35a3.09 3.09 0 0 1-.427.115 3.15 3.15 0 0 1-.695.064c-.425 0-.841-.091-1.249-.274a2.475 2.475 0 0 1-1.007-.835c-.264-.374-.396-.846-.396-1.415v-9.739Zm11.13 8.133v-5.787h1.504v9.79h-1.504V72.43h-.102a3.22 3.22 0 0 1-1.071 1.269c-.484.344-1.096.516-1.835.516-.612 0-1.156-.134-1.632-.402-.476-.272-.85-.68-1.122-1.223-.272-.548-.408-1.239-.408-2.072V64.3h1.504v6.118c0 .714.2 1.284.6 1.708.403.425.917.638 1.542.638.374 0 .754-.096 1.141-.287.391-.191.718-.484.981-.88.268-.395.402-.898.402-1.51Zm3.361 4.002v-9.79h1.454v1.48h.102c.178-.485.501-.878.968-1.18a2.855 2.855 0 0 1 1.581-.452c.11 0 .249.002.414.006.166.004.291.01.376.02V65.7a4.485 4.485 0 0 0-.35-.057 3.451 3.451 0 0 0-.567-.045c-.476 0-.901.1-1.275.3a2.26 2.26 0 0 0-.88.815 2.202 2.202 0 0 0-.318 1.18v6.194h-1.505Zm9.587.204c-.943 0-1.756-.208-2.441-.624a4.2 4.2 0 0 1-1.574-1.76c-.365-.756-.548-1.635-.548-2.638s.183-1.886.548-2.651c.37-.77.884-1.368 1.543-1.798.662-.433 1.436-.65 2.319-.65.51 0 1.014.085 1.511.255.497.17.95.446 1.358.829.407.378.732.88.975 1.504.242.624.363 1.394.363 2.307v.637h-7.546v-1.3h6.016c0-.552-.11-1.045-.331-1.478a2.498 2.498 0 0 0-.931-1.026c-.399-.251-.871-.377-1.415-.377-.599 0-1.117.15-1.555.447a2.931 2.931 0 0 0-1 1.147 3.367 3.367 0 0 0-.351 1.517v.867c0 .739.128 1.365.383 1.88.259.51.618.898 1.077 1.166.459.263.992.395 1.599.395a3.25 3.25 0 0 0 1.071-.166c.323-.114.601-.284.835-.51a2.32 2.32 0 0 0 .542-.853l1.453.407c-.153.493-.41.927-.771 1.3-.361.37-.807.66-1.339.867-.531.204-1.128.306-1.791.306Zm12.379-7.8-1.351.382a2.53 2.53 0 0 0-.376-.657 1.834 1.834 0 0 0-.663-.535c-.281-.14-.64-.21-1.077-.21-.599 0-1.099.138-1.498.414-.395.272-.593.618-.593 1.039 0 .374.136.669.408.886.272.216.697.397 1.275.541l1.453.357c.875.213 1.528.538 1.957.975.429.434.643.993.643 1.677 0 .56-.161 1.062-.484 1.504-.319.442-.765.79-1.338 1.045-.574.255-1.241.382-2.002.382-.998 0-1.825-.216-2.479-.65-.654-.433-1.069-1.066-1.243-1.9l1.428-.356c.136.527.393.922.771 1.186.383.263.882.395 1.498.395.701 0 1.258-.15 1.67-.447.416-.301.624-.662.624-1.083 0-.34-.119-.625-.357-.854-.238-.234-.603-.408-1.096-.523l-1.631-.382c-.897-.212-1.556-.542-1.976-.988-.417-.45-.625-1.013-.625-1.689 0-.552.155-1.04.465-1.466.315-.425.742-.758 1.282-1 .543-.243 1.159-.364 1.848-.364.969 0 1.729.213 2.282.638a3.44 3.44 0 0 1 1.185 1.682Zm3.789 5.812-.102.688a14.01 14.01 0 0 1-.332 1.555 29.18 29.18 0 0 1-.452 1.562c-.157.488-.287.877-.389 1.166h-1.147l.216-1.077c.09-.446.179-.945.268-1.498.094-.548.17-1.109.23-1.682l.076-.714h1.632Zm10.297-8.005v1.274h-5.073V64.3h5.073Zm-3.595-2.346h1.504v9.331c0 .425.062.744.185.956a.959.959 0 0 0 .485.42c.199.069.41.103.631.103.165 0 .301-.009.408-.026l.254-.05.306 1.35a3.05 3.05 0 0 1-.427.115 3.135 3.135 0 0 1-.694.064c-.425 0-.842-.091-1.25-.274a2.488 2.488 0 0 1-1.007-.835c-.263-.374-.395-.846-.395-1.415v-9.739Zm4.96 12.135v-9.79h1.504v9.79h-1.504Zm.765-11.42c-.293 0-.546-.1-.758-.3a.96.96 0 0 1-.313-.72c0-.281.104-.521.313-.72.212-.2.465-.3.758-.3s.544.1.752.3c.212.199.319.439.319.72 0 .28-.107.52-.319.72-.208.2-.459.3-.752.3Zm2.597 11.42v-9.79h1.453v1.53h.127c.204-.522.534-.928.988-1.217.455-.293 1.001-.44 1.638-.44.646 0 1.184.147 1.613.44.433.289.771.695 1.013 1.217h.102a2.856 2.856 0 0 1 1.128-1.204c.502-.302 1.103-.453 1.804-.453.875 0 1.591.274 2.148.822.556.544.835 1.392.835 2.544v6.551h-1.504v-6.551c0-.723-.198-1.24-.593-1.55a2.195 2.195 0 0 0-1.396-.465c-.688 0-1.222.209-1.6.625-.378.412-.567.935-.567 1.568v6.373h-1.53v-6.704c0-.557-.18-1.005-.541-1.345-.361-.344-.827-.517-1.396-.517-.391 0-.756.105-1.096.313a2.355 2.355 0 0 0-.816.867c-.204.365-.306.788-.306 1.268v6.118h-1.504Zm18.806.204c-.943 0-1.757-.208-2.441-.624a4.186 4.186 0 0 1-1.574-1.76c-.366-.756-.548-1.635-.548-2.638s.182-1.886.548-2.651c.369-.77.883-1.368 1.542-1.798.663-.433 1.436-.65 2.32-.65.51 0 1.013.085 1.511.255.497.17.949.446 1.357.829.408.378.733.88.975 1.504s.363 1.394.363 2.307v.637h-7.546v-1.3h6.017a3.21 3.21 0 0 0-.332-1.478 2.49 2.49 0 0 0-.93-1.026c-.399-.251-.871-.377-1.415-.377-.599 0-1.117.15-1.555.447a2.942 2.942 0 0 0-1.001 1.147 3.38 3.38 0 0 0-.35 1.517v.867c0 .739.127 1.365.382 1.88.259.51.618.898 1.077 1.166.459.263.992.395 1.6.395.395 0 .752-.055 1.071-.166.323-.114.601-.284.835-.51.233-.229.414-.514.541-.853l1.454.407c-.153.493-.41.927-.772 1.3-.361.37-.807.66-1.338.867-.531.204-1.128.306-1.791.306Zm7.688-1.988-.102.688a14.01 14.01 0 0 1-.332 1.555 29.18 29.18 0 0 1-.452 1.562c-.157.488-.287.877-.389 1.166h-1.147l.216-1.077c.09-.446.179-.945.268-1.498.094-.548.17-1.109.23-1.682l.076-.714h1.632Zm6.243 1.784V61.036h1.505v4.818h.127c.11-.17.263-.387.459-.65.2-.268.484-.506.854-.714.374-.212.879-.319 1.517-.319.824 0 1.551.206 2.18.618.628.413 1.119.997 1.472 1.753.352.757.529 1.649.529 2.677 0 1.037-.177 1.936-.529 2.696-.353.756-.841 1.343-1.466 1.76-.625.411-1.345.617-2.161.617-.629 0-1.132-.104-1.51-.312-.378-.212-.669-.453-.873-.72a9.477 9.477 0 0 1-.472-.676h-.178v1.504h-1.454Zm1.479-4.894c0 .739.108 1.391.325 1.956.217.561.533 1 .95 1.32.416.314.926.471 1.529.471.629 0 1.154-.166 1.575-.497.424-.336.743-.786.956-1.351.216-.57.325-1.203.325-1.9 0-.688-.107-1.308-.319-1.86-.208-.557-.525-.997-.95-1.32-.42-.327-.949-.49-1.587-.49-.611 0-1.126.154-1.542.465-.416.306-.731.735-.943 1.287-.213.548-.319 1.188-.319 1.919Zm11.448 5.124a3.98 3.98 0 0 1-1.689-.35 2.902 2.902 0 0 1-1.205-1.027c-.297-.45-.446-.994-.446-1.631 0-.561.111-1.016.332-1.364.221-.353.516-.63.886-.829.369-.2.777-.348 1.223-.446.451-.102.903-.183 1.358-.242a60.922 60.922 0 0 1 1.447-.172c.374-.043.646-.113.815-.21.175-.098.262-.268.262-.51v-.052c0-.628-.172-1.117-.516-1.465-.34-.349-.857-.523-1.549-.523-.718 0-1.281.157-1.689.472-.408.314-.695.65-.861 1.007l-1.427-.51c.255-.595.595-1.058 1.02-1.39.429-.335.896-.569 1.402-.7a5.823 5.823 0 0 1 1.504-.205c.314 0 .675.038 1.083.115.412.072.81.223 1.192.453.387.229.708.575.963 1.038.254.463.382 1.084.382 1.861v6.45h-1.504v-1.325h-.077c-.102.212-.272.44-.51.682-.237.242-.554.448-.949.618-.395.17-.878.255-1.447.255Zm.229-1.351c.595 0 1.097-.117 1.505-.35.412-.235.722-.536.93-.906.213-.37.319-.758.319-1.166v-1.377c-.064.077-.204.147-.421.21-.212.06-.459.113-.739.16a33.136 33.136 0 0 1-1.441.19c-.39.052-.756.135-1.096.25a1.9 1.9 0 0 0-.816.503c-.204.22-.306.523-.306.905 0 .523.194.918.58 1.186.391.263.886.395 1.485.395Zm10.083 1.325c-.918 0-1.708-.216-2.371-.65-.663-.433-1.173-1.03-1.53-1.79-.357-.761-.535-1.63-.535-2.607 0-.995.183-1.872.548-2.633.37-.764.884-1.361 1.543-1.79.662-.434 1.436-.65 2.319-.65.689 0 1.309.127 1.862.382a3.567 3.567 0 0 1 1.357 1.07c.353.46.572.995.657 1.607h-1.505c-.114-.447-.369-.842-.764-1.186-.391-.348-.918-.523-1.581-.523-.586 0-1.101.153-1.542.46-.438.301-.78.728-1.027 1.28-.242.549-.363 1.192-.363 1.932 0 .756.119 1.415.357 1.975.242.561.582.997 1.02 1.307.442.31.96.465 1.555.465a2.68 2.68 0 0 0 1.064-.204c.319-.136.589-.331.81-.586a2.24 2.24 0 0 0 .471-.918h1.505a3.493 3.493 0 0 1-.631 1.562 3.533 3.533 0 0 1-1.32 1.096c-.544.267-1.177.401-1.899.401Zm6.553-3.773-.025-1.86h.306l4.283-4.36h1.861l-4.564 4.614h-.127l-1.734 1.606Zm-1.402 3.57V61.035h1.504v13.052h-1.504Zm6.22 0-3.824-4.844 1.071-1.046 4.666 5.89h-1.913Zm8.815-4.003v-5.787h1.504v9.79h-1.504V72.43h-.102a3.22 3.22 0 0 1-1.071 1.269c-.484.344-1.096.516-1.836.516-.611 0-1.155-.134-1.631-.402-.476-.272-.85-.68-1.122-1.223-.272-.548-.408-1.239-.408-2.072V64.3h1.504v6.118c0 .714.2 1.284.599 1.708.404.425.918.638 1.543.638.374 0 .754-.096 1.141-.287.391-.191.718-.484.981-.88.268-.395.402-.898.402-1.51Zm3.361 7.674V64.299h1.453v1.555h.179c.11-.17.263-.387.459-.65.2-.268.484-.506.854-.714.374-.212.879-.319 1.517-.319.824 0 1.551.206 2.179.618.629.413 1.12.997 1.473 1.753.352.757.529 1.649.529 2.677 0 1.037-.177 1.936-.529 2.696-.353.756-.842 1.343-1.466 1.76-.625.411-1.345.617-2.161.617-.629 0-1.132-.104-1.51-.312-.378-.212-.669-.453-.873-.72a9.477 9.477 0 0 1-.472-.676h-.128v5.175h-1.504Zm1.479-8.566c0 .739.108 1.391.325 1.956.217.561.533 1 .95 1.32.416.314.926.471 1.529.471.629 0 1.154-.166 1.575-.497.424-.336.743-.786.956-1.351.216-.57.325-1.203.325-1.9 0-.688-.107-1.308-.319-1.86-.208-.557-.525-.997-.95-1.32-.42-.327-.949-.49-1.587-.49-.612 0-1.126.154-1.542.465-.416.306-.731.735-.943 1.287-.213.548-.319 1.188-.319 1.919Z" fill="#fff"/><path d="M42.1 45.717h2.375v-2.374H42.1v2.374Zm1.188 13.059c-5.236 0-9.497-4.262-9.497-9.497 0-5.236 4.261-9.497 9.497-9.497 5.235 0 9.496 4.261 9.496 9.497 0 5.235-4.261 9.496-9.496 9.496Zm0-21.369a11.871 11.871 0 1 0 0 23.743 11.871 11.871 0 0 0 0-23.742ZM42.1 55.215h2.375v-7.122H42.1v7.122Z" fill="#DDC8BD"/></svg>