<svg xmlns="http://www.w3.org/2000/svg" width="245" height="288" fill="none"><g clip-path="url(#a)"><rect width="186.7" height="394.6" x=".1" fill="url(#b)" rx="10"/><g clip-path="url(#c)"><rect width="180.6" height="381.4" x="3.2" y="6.6" fill="#7D7C81" rx="7"/><path fill="#000" d="M3.2 6.6h188v397.7H3.2z"/><path fill="#F9EF4F" d="m19.1 48 1-3.7h.8l1 3.7h-.4l-.3-.9H20l-.2.9H19Zm1-1.4h1l-.5-1.8-.6 1.8Zm4.1 1.4v-2.2l-.5-.1c-.4 0-.6.2-.6.8V48h-.6v-2.7h.5v.4h.1c0-.3.3-.5.8-.5.3 0 .5 0 .6.3.2.1.3.4.3.7V48h-.6Zm2.4 0c-.4 0-.7 0-.9-.3l-.2-1c0-.5 0-.9.2-1.1.2-.3.5-.4.9-.4l.5.1.2.4v-1.6h.6V48h-.5v-.5h-.1c0 .2 0 .3-.2.4l-.5.2Zm.7-1.3v-.2c0-.5-.2-.8-.6-.8-.5 0-.7.3-.7 1 0 .6.2.9.7.9.4 0 .6-.3.6-.9Zm2.4.1v.7h.7v.5h-1.9v-.5h.7v-1.8h-.6v-.4h1v.7h.2c0-.5.2-.8.7-.8.3 0 .5 0 .6.2.2.2.2.5.2.8h-.5l-.1-.4-.3-.1c-.2 0-.4 0-.5.3l-.2.8Zm3.3 1.3c-.4 0-.7-.2-.9-.4-.2-.3-.3-.6-.3-1 0-.5.1-.9.3-1.1.2-.3.5-.4.9-.4s.7.1.9.4c.2.2.3.6.3 1 0 .5-.1.8-.3 1a1 1 0 0 1-.9.5Zm0-.5c.2 0 .4-.1.5-.3l.1-.7-.1-.7a.5.5 0 0 0-.5-.2c-.2 0-.4 0-.5.2l-.1.7.1.7c.1.2.3.3.5.3Zm2 .4v-.5h1v-1.8h-.9v-.4h1.5v2.2h.8v.5H35Zm1.3-3.2-.3-.1-.1-.3.1-.2.3-.2s.2 0 .2.2l.2.2c0 .1 0 .2-.2.3l-.2.1Zm2.7 3.3c-.3 0-.6-.2-.8-.4-.2-.2-.3-.6-.3-1 0-.5.1-.9.3-1.1.2-.3.5-.4.8-.4l.5.1.2.4v-1.6h.6V48h-.5v-.5c0 .2-.1.3-.3.4l-.5.2Zm.8-1.4v-.2c0-.5-.2-.8-.7-.8-.4 0-.6.3-.6 1 0 .6.2.9.6.9.5 0 .7-.3.7-.9Zm4.5 1.3v-3.7h1.2c.4 0 .7.1.9.3.2.2.3.5.3.8l-.1.7a1 1 0 0 1-.5.4l.8 1.5h-.7l-.6-1.4h-.8V48h-.5Zm.5-1.9h.7c.2 0 .4 0 .5-.2l.2-.4c0-.2 0-.4-.2-.5a.6.6 0 0 0-.5-.2h-.7v1.3Zm4 2c-.5 0-.8-.2-1-.4-.3-.3-.5-.6-.5-1 0-.5.1-.9.4-1.1.2-.3.5-.4.9-.4.3 0 .6.1.8.3.2.3.3.6.3 1v.4H48c0 .2.1.4.3.5l.7.2a3.1 3.1 0 0 0 .6-.1l.1.5a3.6 3.6 0 0 1-.8 0Zm-1-1.7h1.4l-.1-.5a.6.6 0 0 0-.5-.2c-.2 0-.4 0-.5.2a1 1 0 0 0-.3.5Zm4.1 1.7c-.4 0-.8-.2-1-.4-.3-.3-.4-.6-.4-1 0-.5 0-.9.3-1.1.3-.3.6-.4 1-.4.3 0 .6 0 .7.2.2 0 .4.2.5.4l-.5.3-.3-.3a.8.8 0 0 0-.4-.1c-.2 0-.4 0-.6.2l-.2.7c0 .3.1.5.3.7.1.2.4.3.7.3a4 4 0 0 0 .8-.1v.5a6.4 6.4 0 0 1-.9 0Zm2.9 0c-.4 0-.7-.2-1-.4l-.2-1c0-.5 0-.9.3-1.1.2-.3.5-.4.9-.4s.7.1.9.4c.2.2.3.6.3 1 0 .5-.1.8-.3 1a1 1 0 0 1-1 .5Zm0-.5c.2 0 .3-.1.4-.3.2-.1.2-.4.2-.7 0-.3 0-.5-.2-.7a.5.5 0 0 0-.4-.2c-.2 0-.4 0-.5.2l-.2.7.2.7c.1.2.3.3.5.3Zm2.7.4-1-2.7h.6l.8 2.2.8-2.2h.5l-1 2.7h-.7Zm3.7 0c-.4 0-.8 0-1-.3-.3-.3-.4-.6-.4-1 0-.5 0-.9.3-1.1.2-.3.5-.4 1-.4.3 0 .6.1.8.3.2.3.3.6.3 1v.4h-1.9c0 .2.2.4.3.5l.7.2a3.1 3.1 0 0 0 .7-.1v.5a3.6 3.6 0 0 1-.8 0Zm-1-1.6h1.5c0-.2 0-.4-.2-.5a.6.6 0 0 0-.5-.2c-.2 0-.4 0-.5.2a1 1 0 0 0-.2.5Zm3.7.4v.7h.7v.5h-1.8v-.5h.6v-1.8h-.5v-.4h1v.7c.1-.5.4-.8.8-.8.3 0 .5 0 .7.2l.1.8H65v-.4l-.4-.1c-.2 0-.4 0-.5.3l-.2.8Zm2 2.4v-.4l.4-.1c.2 0 .4 0 .5-.2l.4-.5h-.3l-1-2.7h.5l.9 2.3.7-2.3h.6l-.8 2.5-.4.7c-.1.3-.3.4-.4.5l-.7.2H66Zm-45.4 4.9c-.7 0-1.1-.5-1.1-1.3v-2.5h.5v2.5c0 .3 0 .4.2.6 0 .1.2.2.5.2.4 0 .6-.3.6-.8v-2.5h.5v2.5c0 .4 0 .7-.3 1-.2.1-.5.3-.9.3Zm3 0a6.7 6.7 0 0 1-1-.1v-.5a9.5 9.5 0 0 0 1 0h.6l.1-.3V53H24l-.7-.2-.6-.3-.1-.4c0-.3 0-.6.3-.7l1.1-.2h.7v.5a7.5 7.5 0 0 0-.7 0 2 2 0 0 0-.7 0l-.2.3.1.2.3.1.5.1c.3 0 .5.2.6.3.2.1.2.3.2.5 0 .3 0 .5-.3.7a2 2 0 0 1-1 .2Zm3.5 0c-.5 0-.8-.2-1-.4-.3-.3-.5-.6-.5-1 0-.5.2-.9.4-1.1.2-.3.5-.4.9-.4s.6.1.8.3c.3.3.4.6.4 1v.4h-2l.4.5.7.2a3.1 3.1 0 0 0 .7-.1v.5a3.6 3.6 0 0 1-.8 0Zm-1-1.7h1.5l-.2-.5a.6.6 0 0 0-.5-.2c-.2 0-.4 0-.5.2a1 1 0 0 0-.2.5Zm6.6 1.6-1-2.7h.6l.8 2.2.8-2.2h.5l-1 2.7h-.7Zm3.5 0c-.4 0-.7 0-.9-.3-.2-.3-.3-.6-.3-1 0-.5.1-.9.3-1.1.2-.3.5-.4 1-.4.3 0 .6.1.8.4.2.2.3.6.3 1 0 .5 0 .8-.3 1a1 1 0 0 1-.9.5Zm0-.4c.2 0 .4-.1.5-.3l.1-.7-.1-.7a.5.5 0 0 0-.5-.2c-.2 0-.3 0-.5.2l-.1.7.1.7c.2.2.3.3.5.3Zm3.5.5a1 1 0 0 1-.7-.3l-.2-.8v-2.4H38V50h1.4v3.3l.2.2h.8v.4a3.1 3.1 0 0 1-.8.2Zm2.5 0a1 1 0 0 1-.7-.3 1 1 0 0 1-.2-.7v-1.8h.5V53l.1.3.4.2.5-.2.1-.7v-1.4h.6v2.2h.4v.5h-1v-.5c0 .2-.1.3-.3.4l-.4.2Zm4-.1v-2.1c0-.2 0-.3-.2-.3-.1 0-.2.1-.2.4v2h-.5v-2.2c0-.1 0-.2-.2-.2s-.3.1-.3.4v2h-.5v-2.7h.5v.3c0-.3.2-.4.5-.4l.3.1.2.3.1-.3.4-.1c.2 0 .3 0 .4.2l.1.4V54h-.5Zm2.7 0c-.5 0-.8 0-1-.3-.3-.3-.5-.6-.5-1 0-.5.1-.9.4-1.1.2-.3.5-.4.9-.4.3 0 .6.1.8.3.2.3.3.6.3 1v.4H48c0 .2.1.4.3.5l.7.2a3.1 3.1 0 0 0 .6-.1l.1.5a3.6 3.6 0 0 1-.8 0Zm-1-1.6h1.4l-.1-.5a.6.6 0 0 0-.5-.2c-.2 0-.4 0-.5.2a1 1 0 0 0-.3.5Zm6.7 1.7a1 1 0 0 1-.7-.3 1 1 0 0 1-.2-.7v-1.8h.6v2.1l.5.2.4-.2.2-.7v-1.4h.5v2.2h.4v.5h-.9v-.5l-.3.4-.5.2Zm2.3 1v-3.8h.5v.4l.3-.4.5-.1c.4 0 .6.1.8.4.2.2.3.6.3 1 0 .5-.1.9-.3 1.1-.2.2-.4.4-.8.4l-.5-.2a.6.6 0 0 1-.2-.4v1.7h-.6Zm.5-2.4c0 .6.2.9.7.9.4 0 .7-.3.7-1 0-.6-.3-1-.7-1-.5 0-.7.4-.7 1v.1Zm2.4 1.8 2.1-4.7h.6l-2.1 4.7h-.6ZM64 54c-.4 0-.6-.2-.8-.4-.2-.2-.3-.6-.3-1 0-.5.1-.9.3-1.1.2-.3.4-.4.8-.4l.5.1.2.4V50h.6v4h-.5v-.5c0 .2-.2.3-.3.4l-.5.2Zm.8-1.4v-.2c0-.5-.2-.8-.7-.8-.4 0-.7.3-.7 1 0 .6.3.9.7.9.5 0 .7-.3.7-.9Zm2.5 1.4c-.4 0-.7-.2-.9-.4-.2-.3-.3-.6-.3-1 0-.5.1-.9.3-1.1.2-.3.5-.4 1-.4.3 0 .6.1.8.4.2.2.3.6.3 1 0 .5 0 .8-.3 1a1 1 0 0 1-.9.5Zm0-.5c.2 0 .4-.1.5-.3l.2-.7-.2-.7a.5.5 0 0 0-.5-.2c-.2 0-.3 0-.4.2-.2.2-.2.4-.2.7 0 .3 0 .6.2.7 0 .2.2.3.4.3Zm3.4.4-.3-2.2L70 54h-.7l-.3-2.7h.5l.2 2.3.4-2.3h.5l.3 2.3.3-2.3h.5l-.4 2.7h-.7Zm3.4 0v-1.8l-.1-.4-.4-.1c-.4 0-.6.2-.6.8V54h-.6v-2.7h.5v.4h.1c0-.3.3-.5.8-.5.2 0 .5 0 .6.3.2.1.3.4.3.7V54H74Zm6.2 0v-.6c0 .2-.2.4-.3.5a1 1 0 0 1-.6.2 1 1 0 0 1-.7-.3.7.7 0 0 1-.2-.5c0-.3 0-.6.3-.7.2-.2.5-.2 1-.2h.4v-.1c0-.2 0-.3-.2-.4a1 1 0 0 0-.5-.2h-.7v-.5h.6c.5 0 .8.1 1 .3.2.2.3.5.3.9v1.1h.5v.5h-.9Zm0-1.2h-.6c-.5 0-.7.1-.7.4l.1.3.4.1h.4l.2-.3.1-.3v-.2Zm3.1 1.2v-2.2l-.4-.1c-.5 0-.7.2-.7.8V54h-.5v-2.7h.5v.4c0-.3.3-.5.8-.5.3 0 .5 0 .7.3l.2.7V54h-.6Zm2.4 0c-.4 0-.7 0-.8-.3-.2-.2-.3-.6-.3-1 0-.5 0-.9.3-1.1.1-.3.4-.4.8-.4l.5.1.2.4V50h.6v4h-.5v-.5l-.3.4-.5.2Zm.8-1.3v-.2c0-.5-.3-.8-.7-.8-.4 0-.7.3-.7 1 0 .6.3.9.7.9.4 0 .7-.3.7-.9Zm4.5 2.5v-4h.5v.5l.3-.4.5-.1c.4 0 .7.1.8.4.2.2.3.6.3 1 0 .5 0 .9-.3 1.1-.1.2-.4.4-.8.4l-.5-.2a.6.6 0 0 1-.2-.4v1.7H91Zm.5-2.5c0 .6.3.9.7.9.4 0 .7-.3.7-1 0-.6-.3-1-.7-1-.4 0-.7.4-.7 1v.1Zm3.7 1.4c-.4 0-.7-.2-.9-.4-.2-.3-.3-.6-.3-1 0-.5.1-.9.3-1.1.2-.3.5-.4 1-.4.3 0 .6.1.8.4.2.2.3.6.3 1 0 .5 0 .8-.3 1a1 1 0 0 1-.9.5Zm0-.5c.2 0 .4-.1.5-.3l.2-.7-.2-.7a.5.5 0 0 0-.5-.2c-.2 0-.3 0-.4.2-.2.2-.2.4-.2.7 0 .3 0 .6.2.7 0 .2.2.3.4.3Zm3.4.4-.3-2.2L98 54h-.7l-.3-2.7h.5l.2 2.3.4-2.3h.5l.3 2.3.3-2.3h.5l-.4 2.7h-.7Zm3 0c-.4 0-.7 0-1-.3-.3-.3-.4-.6-.4-1 0-.5.1-.9.3-1.1.3-.3.6-.4 1-.4.3 0 .6.1.8.3.2.3.3.6.3 1v.4h-1.8c0 .2.1.4.3.5l.6.2a3 3 0 0 0 .7-.1v.5a3.6 3.6 0 0 1-.7 0Zm-.9-1.6h1.4c0-.2 0-.4-.2-.5a.6.6 0 0 0-.4-.2c-.3 0-.4 0-.5.2a1 1 0 0 0-.3.5Zm3.7.4v.7h.6v.5h-1.8v-.5h.6v-1.8h-.5v-.4h1v.7h.1c0-.5.3-.8.8-.8.3 0 .5 0 .6.2l.2.8h-.6v-.4l-.3-.1c-.3 0-.4 0-.6.3l-.1.8Zm3.3 1.3c-.1 0-.2 0-.3-.2l-.1-.2.1-.3.3-.1.2.1.2.3s0 .2-.2.2l-.2.2Z"/><path fill="#2792FF" d="M17.1 81.6h153.6v7.9H17.1z"/><path fill="#2793FF" d="M19.4 66.3v-3.7h1.2c.4 0 .7 0 1 .3l.2.8-.1.7a1 1 0 0 1-.5.4l.8 1.5h-.7l-.6-1.4h-.8v1.4h-.5Zm.5-2h1.2l.2-.5c0-.3 0-.4-.2-.5a.6.6 0 0 0-.5-.2H20v1.3Zm4 2c-.5 0-.8-.1-1-.3-.3-.3-.5-.7-.5-1.1 0-.5.1-.8.4-1 .2-.3.5-.4.9-.4.3 0 .6 0 .8.3.2.2.3.6.3 1v.3H23c0 .3.1.4.3.6l.7.1a3.1 3.1 0 0 0 .6 0l.1.4a3.6 3.6 0 0 1-.8.1Zm-1-1.6h1.4l-.1-.6a.6.6 0 0 0-.5-.2l-.5.2a1 1 0 0 0-.2.6Zm3.5 1.6a4.3 4.3 0 0 1-.8 0v-4h.6V64c0-.3.3-.5.7-.5.4 0 .7 0 .9.3.2.2.3.5.3 1 0 .4-.2.8-.5 1.1-.3.3-.7.4-1.2.4Zm-.2-1.6v1.1h.3c.3 0 .6 0 .8-.2l.2-.9-.1-.6a.6.6 0 0 0-.5-.2c-.5 0-.7.3-.7.8Zm3.7 1.6c-.4 0-.7-.1-.9-.4-.2-.2-.3-.6-.3-1 0-.5 0-.8.3-1 .2-.3.5-.4.9-.4s.7 0 .9.3c.2.3.3.6.3 1 0 .5-.1.9-.3 1.1a1 1 0 0 1-1 .4Zm0-.5c.2 0 .3 0 .5-.2l.1-.7-.1-.7a.5.5 0 0 0-.5-.2c-.2 0-.4 0-.5.2l-.1.7.1.7.5.2Zm3.1.5c-.4 0-.7-.1-.9-.4-.2-.2-.3-.6-.3-1 0-.5.1-.8.3-1 .2-.3.5-.4.9-.4s.7 0 .9.3c.2.3.3.6.3 1 0 .5-.1.9-.3 1.1a1 1 0 0 1-.9.4Zm0-.5c.2 0 .4 0 .5-.2l.1-.7-.1-.7a.5.5 0 0 0-.5-.2c-.2 0-.4 0-.5.2l-.1.7.1.7.5.2Zm3.6.5c-.4 0-.7 0-.9-.2-.2-.2-.3-.5-.3-.9V64h-.7v-.5h.7v-.8h.6v.8h1.2v.5H36v1.2l.1.5.6.1a3.1 3.1 0 0 0 .6 0v.5a4.4 4.4 0 0 1-.7 0Zm5.6 0c-.4 0-.8 0-1-.2v-.5l.5.2h.5c.5 0 .8-.1.8-.5 0-.2-.1-.4-.4-.5l-.6-.2-.6-.5a1 1 0 0 1-.2-.6c0-.3.1-.5.3-.7.2-.2.5-.3.8-.3l.7.1.5.4-.3.4-.5-.3a1 1 0 0 0-.4 0H42l-.1.4v.3l.3.2.6.3c.3 0 .5.2.6.4l.2.6c0 .7-.4 1-1.3 1Zm1.9 1.2V67h.4l.5-.2.4-.5H45l-1-2.8h.5l.9 2.4.7-2.4h.6L46 66l-.4.8c0 .2-.2.4-.4.5l-.6.2H44Zm4.2-1.2a6.7 6.7 0 0 1-.9 0v-.6a9.4 9.4 0 0 0 1 .1h.5c.2-.1.2-.2.2-.3v-.2l-.2-.1-.7-.2-.6-.2-.2-.5c0-.3.2-.5.4-.6.2-.2.6-.2 1.1-.2h.7v.5a7.5 7.5 0 0 0-.7 0 2 2 0 0 0-.7 0l-.2.3.1.2h.3l.5.2c.3 0 .5.2.6.3l.2.5c0 .3-.1.5-.3.6a2 2 0 0 1-1 .2Zm3.9 0c-.5 0-.8 0-1-.2l-.2-.9V64h-.7v-.5h.7v-.8h.5v.8h1.3v.5h-1.3v1.2c0 .2 0 .4.2.5l.5.1a3.1 3.1 0 0 0 .6 0v.5a4.4 4.4 0 0 1-.6 0Zm2.8 0c-.5 0-.8-.1-1-.3-.3-.3-.5-.7-.5-1.1 0-.5.2-.8.4-1 .2-.3.5-.4.9-.4s.6 0 .8.3c.3.2.4.6.4 1v.3h-2l.4.6.7.1a3.1 3.1 0 0 0 .7 0v.4a3.6 3.6 0 0 1-.8.1Zm-1-1.6h1.5l-.2-.6a.6.6 0 0 0-.5-.2l-.5.2a1 1 0 0 0-.2.6Zm4.6 1.6v-2.1c0-.2 0-.3-.2-.3s-.3.1-.3.4v2h-.4V64c0-.1-.1-.2-.3-.2-.1 0-.2.1-.2.4v2h-.6v-2.8h.5v.4c.1-.3.3-.4.6-.4h.2l.2.4.2-.3.3-.1.4.1.2.5v2.2h-.6Zm6 0-1-2.8h-.1v2.8h-.6v-3.7h.7l1 2.8h.1v-2.8h.6v3.7h-.7Zm2.6 0c-.4 0-.7-.1-.9-.4-.2-.2-.3-.6-.3-1 0-.5.1-.8.3-1 .2-.3.5-.4 1-.4.3 0 .6 0 .8.3.2.3.3.6.3 1 0 .5 0 .9-.3 1.1a1 1 0 0 1-.9.4Zm0-.5c.2 0 .4 0 .5-.2l.2-.7-.2-.7a.5.5 0 0 0-.5-.2c-.2 0-.3 0-.4.2-.2.2-.2.4-.2.7 0 .3 0 .5.2.7l.4.2Zm3.4.5-.3-2.2-.3 2.2h-.7l-.3-2.8h.5l.2 2.4.4-2.4h.5l.3 2.4.3-2.4h.5l-.4 2.8h-.7Zm-51.2 7v-3.7h1.2c.4 0 .7 0 1 .3l.2.8-.1.7a1 1 0 0 1-.5.4l.8 1.5h-.7l-.6-1.4h-.8v1.4h-.5Zm.5-2h1.2l.2-.5c0-.3 0-.4-.2-.5a.6.6 0 0 0-.5-.2H20v1.3Zm4 2c-.5 0-.8-.1-1-.3-.3-.3-.5-.7-.5-1.1 0-.5.1-.8.4-1 .2-.3.5-.4.9-.4.3 0 .6 0 .8.3.2.2.3.6.3 1v.3H23c0 .3.1.4.3.6l.7.1a3.1 3.1 0 0 0 .6 0l.1.4a3.6 3.6 0 0 1-.8.1Zm-1-1.6h1.4l-.1-.6a.6.6 0 0 0-.5-.2l-.5.2a1 1 0 0 0-.2.6Zm3.5 1.6a4.3 4.3 0 0 1-.8 0v-4h.6V71c0-.3.3-.5.7-.5.4 0 .7 0 .9.3.2.2.3.5.3 1 0 .4-.2.8-.5 1.1-.3.3-.7.4-1.2.4Zm-.2-1.6v1.1h.3c.3 0 .6 0 .8-.2l.2-.9-.1-.6a.6.6 0 0 0-.5-.2c-.5 0-.7.3-.7.8Zm3.7 1.6c-.4 0-.7-.1-.9-.4-.2-.2-.3-.6-.3-1 0-.5 0-.8.3-1 .2-.3.5-.4.9-.4s.7 0 .9.3c.2.3.3.6.3 1 0 .5-.1.9-.3 1.1a1 1 0 0 1-1 .4Zm0-.5c.2 0 .3 0 .5-.2l.1-.7-.1-.7a.5.5 0 0 0-.5-.2c-.2 0-.4 0-.5.2l-.1.7.1.7.5.2Zm3.1.5c-.4 0-.7-.1-.9-.4-.2-.2-.3-.6-.3-1 0-.5.1-.8.3-1 .2-.3.5-.4.9-.4s.7 0 .9.3c.2.3.3.6.3 1 0 .5-.1.9-.3 1.1a1 1 0 0 1-.9.4Zm0-.5c.2 0 .4 0 .5-.2l.1-.7-.1-.7a.5.5 0 0 0-.5-.2c-.2 0-.4 0-.5.2l-.1.7.1.7.5.2Zm3.6.5c-.4 0-.7 0-.9-.2-.2-.2-.3-.5-.3-.9V71h-.7v-.5h.7v-.8h.6v.8h1.2v.5H36v1.2l.1.5.6.1a3.1 3.1 0 0 0 .6 0v.5a4.4 4.4 0 0 1-.7 0Zm6.2 0c-.4 0-.7 0-.9-.2-.2-.2-.3-.5-.3-.9V71H41v-.5h.6v-.8h.6v.8h1.2v.5h-1.2v1.2c0 .2 0 .4.2.5l.5.1a3.1 3.1 0 0 0 .6 0v.5a4.4 4.4 0 0 1-.7 0Zm2.6 0a1 1 0 0 1-.8-.4c-.3-.2-.4-.6-.4-1 0-.5.1-.8.4-1 .2-.3.5-.4.8-.4.4 0 .7 0 1 .3l.2 1c0 .5 0 .9-.3 1.1a1 1 0 0 1-.9.4Zm0-.5c.2 0 .4 0 .5-.2l.2-.7c0-.3 0-.5-.2-.7a.5.5 0 0 0-.5-.2c-.2 0-.3 0-.4.2l-.2.7c0 .3 0 .5.2.7l.4.2Zm5.9.5a4.3 4.3 0 0 1-.8 0v-4h.6V71c0-.3.3-.5.7-.5.4 0 .7 0 .9.3.2.2.3.5.3 1 0 .4-.2.8-.5 1.1-.3.3-.7.4-1.2.4Zm-.2-1.6v1.1h.3c.3 0 .6 0 .7-.2.2-.2.3-.5.3-.9l-.1-.6a.6.6 0 0 0-.5-.2c-.5 0-.7.3-.7.8Zm3.7 1.6c-.4 0-.7-.1-1-.4l-.2-1c0-.5 0-.8.3-1 .2-.3.5-.4.9-.4s.7 0 .9.3c.2.3.3.6.3 1 0 .5-.1.9-.3 1.1a1 1 0 0 1-1 .4Zm0-.5c.2 0 .3 0 .4-.2.2-.2.2-.4.2-.7 0-.3 0-.5-.2-.7a.5.5 0 0 0-.4-.2c-.2 0-.4 0-.5.2l-.2.7.2.7.5.2Zm3 .5a1 1 0 0 1-.8-.4c-.2-.2-.3-.6-.3-1 0-.5 0-.8.3-1 .2-.3.5-.4.9-.4s.7 0 .9.3c.2.3.3.6.3 1 0 .5-.1.9-.3 1.1a1 1 0 0 1-1 .4Zm0-.5c.3 0 .4 0 .6-.2l.1-.7-.1-.7a.5.5 0 0 0-.5-.2c-.2 0-.4 0-.5.2l-.1.7.1.7.5.2Zm3.7.5c-.4 0-.7 0-1-.2l-.2-.9V71h-.7v-.5h.7v-.8h.6v.8H62v.5h-1v1.2l.1.5.6.1a3.1 3.1 0 0 0 .6 0v.5a4.4 4.4 0 0 1-.7 0Zm3 0c-.3 0-.5 0-.7-.2l-.2-.9V70h-.8v-.5h1.4v3.1l.2.2h.9v.4a3.1 3.1 0 0 1-.8.1Zm2.7 0c-.4 0-.7-.1-.9-.4-.2-.2-.3-.6-.3-1 0-.5.1-.8.3-1 .2-.3.5-.4 1-.4.3 0 .6 0 .8.3.2.3.3.6.3 1 0 .5 0 .9-.3 1.1a1 1 0 0 1-.9.4Zm0-.5c.2 0 .4 0 .5-.2l.2-.7-.2-.7a.5.5 0 0 0-.5-.2c-.2 0-.3 0-.4.2-.2.2-.2.4-.2.7 0 .3 0 .5.2.7l.4.2Zm3.7.5v-.6l-.4.5a1 1 0 0 1-.6.1 1 1 0 0 1-.6-.2.7.7 0 0 1-.3-.6c0-.3.1-.5.4-.6.2-.2.5-.3.9-.3h.5c0-.2 0-.4-.2-.5a1 1 0 0 0-.6-.1h-.6v-.5h.6c.4 0 .8.1 1 .3.2.2.3.5.3.8v1.2h.5v.5h-.9Zm-.1-1.2h-.5c-.5 0-.8.1-.8.4 0 .1 0 .2.2.3h.7c.2 0 .2-.1.3-.2V72Zm2.4 1.2c-.3 0-.6-.1-.8-.3-.2-.3-.3-.6-.3-1 0-.6.1-1 .3-1.2.2-.2.5-.3.8-.3l.5.1c.2.1.2.2.3.4v-1.6h.6v3.9H74v-.5l-.3.4-.5.1ZM74 72v-.2c0-.6-.2-.9-.6-.9-.5 0-.7.4-.7 1s.2 1 .7 1c.4 0 .6-.3.6-1Zm2.8 1.3c-.5 0-.8-.1-1-.3-.3-.3-.5-.7-.5-1.1 0-.5.1-.8.4-1 .2-.3.5-.4.9-.4.3 0 .6 0 .8.3.2.2.3.6.3 1v.3H76c0 .3.1.4.3.6l.7.1a3.1 3.1 0 0 0 .6 0l.1.4a3.6 3.6 0 0 1-.8.1Zm-1-1.6h1.4l-.1-.6a.6.6 0 0 0-.5-.2l-.5.2a1 1 0 0 0-.3.6Zm3.7.4v.7h.7v.5h-1.9v-.5h.6V71h-.5v-.5h1v.7h.1c0-.5.3-.7.8-.7.3 0 .5 0 .6.2l.2.8h-.5l-.1-.4-.3-.2c-.3 0-.4.1-.5.3-.2.2-.2.5-.2.9Zm-60 8.2v-3.7h2.4v.5h-2v1h1.5v.6H20v1h1.9v.6h-2.5Zm4.7 0V78l-.5-.1c-.4 0-.6.2-.6.7v1.6h-.6v-2.8h.5v.5h.1c0-.3.3-.5.8-.5.3 0 .5 0 .6.2.2.2.3.5.3.8v1.8h-.6Zm3 0c-.3 0-.6 0-.8-.2-.2-.2-.3-.5-.3-.9V78h-.7v-.5h.7v-.8h.5v.8H28v.5h-1.3v1.2l.2.5.5.1a3.1 3.1 0 0 0 .6 0l.1.5a4.4 4.4 0 0 1-.7 0Zm3 0c-.5 0-.9-.1-1.2-.3a2 2 0 0 1-.3-1.1c0-.5 0-.8.3-1 .2-.3.5-.4.9-.4s.7 0 .9.3c.2.2.3.6.3 1v.3h-2l.4.6.7.1a3.1 3.1 0 0 0 .7 0v.4a3.6 3.6 0 0 1-.8.1Zm-1-1.6h1.4c0-.2 0-.4-.2-.6a.6.6 0 0 0-.5-.2l-.5.2a1 1 0 0 0-.2.6Zm3.6.4v.7h.7v.5h-1.8v-.5h.6V78h-.5v-.5h1v.7c.1-.5.3-.7.8-.7.3 0 .5 0 .6.2.2.2.2.4.2.8H34l-.1-.4-.3-.2c-.2 0-.4.1-.5.3l-.2.9Zm6 1.2v-1.7h-1v-.5h1v-.3c0-1 .3-1.5 1.2-1.5h.6v.6a4.6 4.6 0 0 0-.6 0c-.5 0-.7.2-.7.8v.4h1v.5h-1v1.7h-.6Zm4.1 0v-.6l-.4.5a1 1 0 0 1-.6.1 1 1 0 0 1-.6-.2.7.7 0 0 1-.3-.6c0-.3.1-.5.4-.6.2-.2.5-.3.9-.3h.5c0-.2 0-.4-.2-.5a1 1 0 0 0-.6-.1h-.6v-.5h.6c.4 0 .8.1 1 .3.2.2.3.5.3.8v1.2h.5v.5h-.9Zm-.1-1.2h-.5c-.5 0-.8.1-.8.4 0 .1 0 .2.2.3h.7c.2 0 .2-.1.3-.2V79Zm2.4 1.2a6.7 6.7 0 0 1-1 0l.2-.6a9.4 9.4 0 0 0 .8.1h.6c.2-.1.2-.2.2-.3v-.2l-.2-.1-.7-.2-.6-.2-.2-.5c0-.3.2-.5.4-.6.2-.2.6-.2 1.1-.2h.7v.5a7.5 7.5 0 0 0-.7 0 2 2 0 0 0-.7 0l-.2.3v.2h.4l.5.2.6.3.2.5c0 .3-.1.5-.3.6a2 2 0 0 1-1 .2Zm3.9 0c-.5 0-.8 0-1-.2l-.2-.9V78h-.7v-.5h.7v-.8h.5v.8h1.3v.5h-1.3v1.2c0 .2 0 .4.2.5l.5.1a3.1 3.1 0 0 0 .6 0v.5a4.4 4.4 0 0 1-.6 0Zm2.2 0a4.3 4.3 0 0 1-.8 0v-4h.6V78c0-.3.3-.5.7-.5.4 0 .7 0 .9.3.2.2.3.5.3 1 0 .4-.2.8-.5 1.1-.3.3-.7.4-1.2.4Zm-.2-1.6v1.1h.3c.3 0 .6 0 .7-.2.2-.2.3-.5.3-.9l-.1-.6a.6.6 0 0 0-.5-.2c-.5 0-.7.3-.7.8Zm3.7 1.6c-.4 0-.7-.1-1-.4l-.2-1c0-.5 0-.8.3-1 .2-.3.5-.4.9-.4s.7 0 .9.3c.2.3.3.6.3 1 0 .5-.1.9-.3 1.1a1 1 0 0 1-1 .4Zm0-.5c.2 0 .3 0 .4-.2.2-.2.2-.4.2-.7 0-.3 0-.5-.2-.7a.5.5 0 0 0-.4-.2c-.2 0-.4 0-.5.2l-.2.7.2.7.5.2Zm3 .5a1 1 0 0 1-.8-.4c-.2-.2-.3-.6-.3-1 0-.5 0-.8.3-1 .2-.3.5-.4.9-.4s.7 0 .9.3c.2.3.3.6.3 1 0 .5-.1.9-.3 1.1a1 1 0 0 1-1 .4Zm0-.5c.3 0 .4 0 .6-.2l.1-.7-.1-.7a.5.5 0 0 0-.5-.2c-.2 0-.4 0-.5.2l-.1.7.1.7.5.2Zm3.7.5c-.4 0-.7 0-1-.2l-.2-.9V78h-.7v-.5h.7v-.8h.6v.8H62v.5h-1v1.2l.1.5.6.1a3.1 3.1 0 0 0 .6 0v.5a4.4 4.4 0 0 1-.7 0Zm-42.4 14 1-3.7h.8l1 3.7h-.4l-.3-1H20l-.2 1H19Zm1-1.4h1l-.5-1.9-.6 2Zm2.4 2.6v-4h.5v.5h.1c0-.2.1-.3.3-.4l.5-.1c.3 0 .6 0 .8.3.2.3.3.6.3 1.1 0 .5-.1.8-.3 1a1 1 0 0 1-.8.4l-.5-.1a.6.6 0 0 1-.3-.4v1.7h-.6Zm.6-2.5c0 .6.2.9.7.9.4 0 .6-.4.6-1s-.2-1-.6-1c-.5 0-.7.3-.7.9v.2Zm2.6 2.5v-4h.5v.5c0-.2.1-.3.3-.4l.5-.1c.3 0 .6 0 .8.3.2.3.3.6.3 1.1 0 .5-.1.8-.3 1a1 1 0 0 1-.8.4l-.5-.1a.6.6 0 0 1-.2-.4v1.7h-.6Zm.5-2.5c0 .6.2.9.7.9.4 0 .6-.4.6-1s-.2-1-.6-1c-.5 0-.7.3-.7.9v.2Zm4.1 1.3c-.3 0-.5 0-.7-.2l-.2-.9V91h-.8v-.5h1.3v3.1l.2.2h1v.4a3.1 3.1 0 0 1-.8.1Zm1.3 1.2V95h.4l.6-.2.3-.5h-.2l-1.1-2.8h.6L33 94l.7-2.4h.5l-.8 2.5c0 .4-.2.6-.3.8l-.5.5-.6.2h-.5Zm7.4-1.2c-.3 0-.6 0-.7-.2a1 1 0 0 1-.3-.8v-1.8h.6v1.8l.1.4.4.1c.2 0 .4 0 .5-.2l.1-.6v-1.5h.6v2.3h.3v.5h-.8v-.6h-.1c0 .2-.2.4-.3.5l-.4.1Zm2.2 1.2v-4h.5v.5l.3-.4.5-.1c.4 0 .7 0 .9.3l.2 1.1c0 .5 0 .8-.2 1-.2.3-.5.4-.9.4l-.5-.1a.6.6 0 0 1-.2-.4v1.7h-.6Zm.6-2.5c0 .6.2.9.6.9.5 0 .7-.4.7-1s-.2-1-.7-1c-.4 0-.6.3-.6.9v.2Zm3.4 1.3c-.3 0-.6-.1-.8-.3-.2-.3-.3-.6-.3-1 0-.6.1-1 .3-1.2.2-.2.5-.3.8-.3l.5.1c.2.1.2.2.3.4v-1.6h.6v3.9H46v-.5l-.3.4-.5.1ZM46 93v-.2c0-.6-.2-.9-.6-.9-.5 0-.7.4-.7 1s.2 1 .7 1c.4 0 .6-.3.6-1Zm3.1 1.3v-.6c0 .2-.2.4-.3.5a1 1 0 0 1-.6.1 1 1 0 0 1-.7-.2.7.7 0 0 1-.3-.6c0-.3.2-.5.4-.6.2-.2.5-.3.9-.3h.5c0-.2 0-.4-.2-.5a1 1 0 0 0-.6-.1h-.6v-.5h.6c.4 0 .8.1 1 .3.2.2.3.5.3.8v1.2h.5v.5h-.9Zm0-1.2h-.7c-.5 0-.7.1-.7.4v.3h.9l.2-.2.1-.3V93Zm3 1.2c-.4 0-.7 0-.8-.2-.2-.2-.3-.5-.3-.9V92h-.7v-.5h.7v-.8h.5v.8h1.3v.5h-1.3v1.2c0 .2 0 .4.2.5l.5.1a3.1 3.1 0 0 0 .6 0v.5a4.4 4.4 0 0 1-.6 0Zm3 0c-.6 0-1-.1-1.2-.3-.2-.3-.4-.7-.4-1.1 0-.5.2-.8.4-1 .2-.3.5-.4.9-.4s.6 0 .8.3c.3.2.4.6.4 1v.3h-2l.4.6.7.1a3.1 3.1 0 0 0 .7 0v.4a3.6 3.6 0 0 1-.8.1Zm-1-1.6h1.4l-.2-.6a.6.6 0 0 0-.5-.2l-.5.2a1 1 0 0 0-.2.6Zm6.4 1.6v-1.7h-.9v-.5h.9v-.3c0-1 .4-1.5 1.3-1.5h.6l-.1.6a4.6 4.6 0 0 0-.5 0c-.5 0-.8.2-.8.8v.4h1.2v.5H61v1.7h-.5Zm3.4-1.2v.7h.7v.5h-1.8v-.5h.6V92h-.5v-.5h1v.7c.1-.5.4-.7.8-.7.3 0 .5 0 .7.2l.1.8H65v-.4l-.4-.2c-.2 0-.4.1-.5.3l-.2.9Zm3.3 1.2c-.4 0-.7-.1-.9-.4-.2-.2-.3-.6-.3-1 0-.5.1-.8.3-1 .2-.3.5-.4 1-.4.3 0 .6 0 .8.3.2.3.3.6.3 1 0 .5 0 .9-.3 1.1a1 1 0 0 1-.9.4Zm0-.5c.2 0 .4 0 .5-.2l.2-.7-.2-.7a.5.5 0 0 0-.5-.2c-.2 0-.3 0-.4.2-.2.2-.2.4-.2.7 0 .3 0 .5.2.7l.4.2Zm3.8.5v-2.1c0-.2 0-.3-.2-.3-.1 0-.2.1-.2.4v2H70V92c0-.1 0-.2-.2-.2s-.3.1-.3.4v2H69v-2.8h.5v.4c0-.3.2-.4.5-.4h.3l.1.4.2-.3.4-.1.4.1.1.5v2.2H71Zm5.4 0c-.4 0-.8 0-1-.2v-.5l.6.2h.5c.4 0 .7-.1.7-.5 0-.2-.1-.4-.4-.5l-.6-.2-.6-.5a1 1 0 0 1-.2-.6c0-.3.1-.5.3-.7.2-.2.5-.3.8-.3l.7.1.6.4-.4.4-.4-.3a1 1 0 0 0-.5 0h-.4l-.1.4v.3l.4.2.5.3c.3 0 .5.2.6.4.2.2.2.4.2.6 0 .7-.4 1-1.3 1Zm2 0v-3.7h1c1 0 1.7.6 1.7 1.9 0 1.2-.6 1.8-1.7 1.8h-1Zm.6-.5h.4c.7 0 1.1-.5 1.1-1.3 0-1-.4-1.4-1.1-1.4H79v2.7Zm7.2.5c-.5 0-.9-.1-1.1-.3-.3-.3-.4-.7-.4-1.1 0-.5.1-.8.3-1 .3-.3.6-.4 1-.4l.8.1.4.4-.4.4-.3-.3a.8.8 0 0 0-.4-.1c-.3 0-.5 0-.6.2a1 1 0 0 0-.3.7c0 .3.1.5.3.7l.7.2a4 4 0 0 0 .8 0v.4a6.4 6.4 0 0 1-.9 0Zm3.4 0v-.6h-.1c0 .2-.1.4-.3.5a1 1 0 0 1-.6.1 1 1 0 0 1-.7-.2.7.7 0 0 1-.2-.6c0-.3.1-.5.3-.6.2-.2.5-.3 1-.3h.5l-.2-.5a1 1 0 0 0-.6-.1H88v-.5h.6c.5 0 .8.1 1 .3.3.2.4.5.4.8v1.2h.4v.5h-.8Zm-.1-1.2h-.6c-.4 0-.7.1-.7.4l.1.3h.8l.3-.2V93Zm2.4 0v.7h.7v.5h-1.8v-.5h.6V92h-.5v-.5h1v.7c.1-.5.4-.7.8-.7.3 0 .5 0 .7.2l.1.8H93v-.4l-.4-.2c-.2 0-.4.1-.5.3l-.2.9Zm3.1 1.2c-.3 0-.6-.1-.8-.3-.2-.3-.3-.6-.3-1 0-.6.1-1 .3-1.2.2-.2.5-.3.8-.3l.5.1.2.4v-1.6h.6v3.9H96l-.1-.5-.3.4-.5.1Zm.8-1.3v-.2c0-.6-.2-.9-.7-.9-.4 0-.6.4-.6 1s.2 1 .6 1c.5 0 .7-.3.7-1Zm-76.3 8.3-.4-3.7h.5l.3 3.3.4-2.4h.5l.4 2.4.3-3.3h.6l-.5 3.7h-.8l-.2-2.3-.3 2.3h-.8Zm3 0v-.5h1V99h-.8v-.5H24v2.3h.9v.5h-2.5Zm1.3-3.2-.2-.1-.2-.3c0-.1 0-.2.2-.3h.5l.1.3-.1.3h-.3Zm1.9 4.4v-4h.5v.5c0-.2.1-.3.3-.4l.5-.1c.3 0 .6 0 .8.3.2.3.3.6.3 1.1 0 .5-.1.8-.3 1a1 1 0 0 1-.8.4l-.5-.1a.6.6 0 0 1-.2-.4v1.7h-.6Zm.5-2.5c0 .6.2.9.7.9.4 0 .6-.4.6-1s-.2-1-.6-1c-.5 0-.7.3-.7.9v.2Zm4 1.3c-.5 0-.9-.1-1.2-.3a2 2 0 0 1-.3-1.1c0-.5 0-.8.3-1 .2-.3.5-.4.9-.4s.7 0 .9.3c.2.2.3.6.3 1v.3h-2l.4.6.7.1a3.1 3.1 0 0 0 .7 0v.4a3.5 3.5 0 0 1-.8.1Zm-1-1.6h1.4c0-.2 0-.4-.2-.6a.6.6 0 0 0-.5-.2l-.5.2a1 1 0 0 0-.2.6Zm6.7 1.6c-.4 0-.6-.1-.8-.3-.2-.3-.3-.6-.3-1 0-.6.1-1 .3-1.2.2-.2.4-.3.8-.3l.5.1.2.4v-1.6h.6v3.9h-.5v-.5l-.3.4-.5.1Zm.8-1.3v-.2c0-.6-.2-.9-.7-.9-.4 0-.7.4-.7 1s.3 1 .7 1c.5 0 .7-.3.7-1Zm3 1.3v-.6c0 .2-.1.4-.3.5l-.6.1a1 1 0 0 1-.6-.2.7.7 0 0 1-.3-.6c0-.3.1-.5.3-.6.3-.2.6-.3 1-.3h.5c0-.2 0-.4-.2-.5a1 1 0 0 0-.6-.1h-.6v-.5h.6c.4 0 .8.1 1 .3.2.2.3.5.3.8v1.2h.5v.5h-1Zm0-1.2H39c-.4 0-.7.1-.7.4 0 .1 0 .2.2.3h.7l.3-.2v-.5Zm3.1 1.2c-.4 0-.7 0-.9-.2-.2-.2-.3-.5-.3-.9V99H41v-.5h.6v-.8h.6v.8h1.2v.5h-1.2v1.2c0 .2 0 .4.2.5l.5.1a3.3 3.3 0 0 0 .6 0v.5a4.6 4.6 0 0 1-.7 0Zm3.2 0v-.6c0 .2-.2.4-.3.5l-.7.1a1 1 0 0 1-.6-.2.7.7 0 0 1-.3-.6c0-.3.1-.5.4-.6.2-.2.5-.3.9-.3h.5c0-.2 0-.4-.2-.5a1 1 0 0 0-.6-.1h-.6v-.5h.6c.4 0 .8.1 1 .3.2.2.3.5.3.8v1.2h.5v.5H46Zm0-1.3h-.5c-.5 0-.7.1-.7.4v.3h.9l.2-.2.1-.3v-.2Zm1.4 1.7 2-4.7h.6l-2 4.7h-.6Zm3.9-.5v-1.7h-1V99h1v-.3c0-1 .4-1.5 1.3-1.5h.5v.6a4.6 4.6 0 0 0-.6 0c-.5 0-.7.2-.7.8v.4h1.1v.5h-1.1v1.7h-.5Zm4.1 0v-.6c0 .2-.1.4-.3.5l-.6.1a1 1 0 0 1-.7-.2.7.7 0 0 1-.2-.6c0-.3 0-.5.3-.6.2-.2.5-.3 1-.3h.4c0-.2 0-.4-.2-.5a1 1 0 0 0-.5-.1h-.7v-.5h.6c.5 0 .8.1 1 .3.2.2.4.5.4.8v1.2h.4v.5h-.9Zm0-1.2h-.6c-.5 0-.7.1-.7.4l.1.3h.8l.2-.2.1-.3v-.2Zm2.9 1.2c-.5 0-.9-.1-1.1-.3-.3-.3-.4-.7-.4-1.1 0-.5.1-.8.3-1 .3-.3.6-.4 1-.4l.8.1.4.4-.4.4-.3-.3a.8.8 0 0 0-.4-.1c-.3 0-.5 0-.6.2a1 1 0 0 0-.3.7c0 .3.1.5.3.7l.7.2a4.1 4.1 0 0 0 .8 0v.4a3.1 3.1 0 0 1-.8.1Zm3.3 0c-.4 0-.7 0-1-.2l-.2-.9V99h-.7v-.5h.7v-.8h.6v.8h1v.5h-1v1.2l.1.5.6.1a3.3 3.3 0 0 0 .6 0v.5a4.6 4.6 0 0 1-.7 0Zm2.6 0c-.4 0-.7-.1-.9-.4-.2-.2-.3-.6-.3-1 0-.5.1-.8.3-1 .2-.3.5-.4 1-.4.3 0 .6 0 .8.3.2.3.3.6.3 1 0 .5 0 .9-.3 1.1a1 1 0 0 1-.9.4Zm0-.5c.2 0 .4 0 .5-.2l.1-.7-.1-.7a.5.5 0 0 0-.5-.2c-.2 0-.3 0-.5.2l-.1.7.1.7.5.2Zm3-.7v.7h.6v.5H66v-.5h.6V99H66v-.5h1v.7c.1-.5.4-.7.8-.7.3 0 .5 0 .7.2l.2.8H68v-.4l-.4-.2c-.2 0-.4.1-.5.3l-.2.9Zm1.9 2.4v-.5h.4l.5-.2.4-.5H70l-1-2.8h.5l.9 2.4.7-2.4h.6l-.8 2.5-.4.8-.4.5-.7.2H69Zm7.4-2.4v.7h.6v.5h-1.8v-.5h.6V99h-.5v-.5h1v.7h.1c0-.5.3-.7.8-.7.3 0 .5 0 .6.2l.2.8h-.6v-.4l-.3-.2c-.3 0-.4.1-.6.3l-.1.9Zm3.5 1.2c-.5 0-.8-.1-1-.3-.3-.3-.5-.7-.5-1.1 0-.5.1-.8.4-1 .2-.3.5-.4.9-.4.3 0 .6 0 .8.3.2.2.3.6.3 1v.3H79c0 .3.1.4.3.6l.7.1a3.1 3.1 0 0 0 .6 0l.1.4a3.5 3.5 0 0 1-.8.1Zm-1-1.6h1.4l-.1-.6a.6.6 0 0 0-.5-.2l-.5.2a1 1 0 0 0-.2.6Zm3.7 1.6a6.8 6.8 0 0 1-1 0v-.6a10.6 10.6 0 0 0 1 .1h.6l.2-.3-.1-.2-.2-.1-.6-.2-.6-.2c-.2-.1-.2-.3-.2-.5 0-.3 0-.5.3-.6.2-.2.6-.2 1.1-.2h.8l-.1.5a7.5 7.5 0 0 0-.7 0 2 2 0 0 0-.7 0l-.2.3.1.2h.3l.5.2c.3 0 .5.2.6.3.2 0 .2.3.2.5 0 .3 0 .5-.3.6a2 2 0 0 1-1 .2Zm3.5 0c-.4 0-.8-.1-1-.3-.3-.3-.4-.7-.4-1.1 0-.5 0-.8.3-1 .2-.3.5-.4.9-.4s.7 0 .9.3c.2.2.3.6.3 1v.3h-1.9c0 .3.2.4.3.6l.7.1a3.1 3.1 0 0 0 .7 0v.4a3.5 3.5 0 0 1-.8.1Zm-1-1.6h1.5c0-.2 0-.4-.2-.6a.6.6 0 0 0-.5-.2l-.5.2a1 1 0 0 0-.2.6Zm4.4 1.6c-.4 0-.7 0-1-.2l-.2-.9V99h-.7v-.5h.7v-.8h.6v.8h1v.5h-1v1.2l.1.5.6.1a3.3 3.3 0 0 0 .6 0v.5a4.6 4.6 0 0 1-.7 0Zm-70.2 7v-3.7h.8l.4 1.6.5-1.6h.8v3.7h-.5v-3h-.1l-.4 1.5h-.5l-.4-1.6v3h-.6Zm4.4 0c-.4 0-.7-.1-1-.4l-.2-1c0-.5 0-.8.3-1 .2-.3.5-.4.9-.4.3 0 .6 0 .9.3.2.3.3.6.3 1 0 .5-.1.9-.3 1.1a1 1 0 0 1-1 .4Zm0-.5c.2 0 .3 0 .4-.2l.2-.7c0-.3 0-.5-.2-.7a.5.5 0 0 0-.4-.2c-.2 0-.4 0-.5.2l-.2.7c0 .3 0 .5.2.7l.5.2Zm2.8.5c-.3 0-.5 0-.7-.2a1 1 0 0 1-.2-.8v-1.8h.6v2.2l.5.1c.2 0 .3 0 .4-.2l.2-.6v-1.5h.5v2.3h.4v.5h-.9v-.6l-.3.5-.5.1Zm4 0v-1.8c0-.2 0-.3-.2-.4l-.3-.1c-.5 0-.7.2-.7.7v1.6h-.5v-2.8h.5v.5c.1-.3.3-.5.8-.5.3 0 .5 0 .7.2l.2.8v1.8h-.5Zm3 0c-.4 0-.7 0-1-.2l-.2-.9V106h-.7v-.5h.7v-.8h.6v.8h1v.5h-1v1.2l.1.5.5.1a3.3 3.3 0 0 0 .7 0v.5a4.6 4.6 0 0 1-.7 0Zm4.5.5 2-4.7h.6l-2 4.7H38Zm4.1-.5a6.8 6.8 0 0 1-1 0l.1-.6a10.6 10.6 0 0 0 1 .1h.5c.2-.1.2-.2.2-.3v-.2l-.3-.1-.6-.2-.6-.2-.2-.5c0-.3.1-.5.4-.6.2-.2.6-.2 1-.2h.8v.5a7 7 0 0 0-.7 0 2 2 0 0 0-.7 0l-.2.3v.2h.3l.5.2c.3 0 .5.2.7.3l.2.5c0 .3-.1.5-.3.6a2 2 0 0 1-1 .2Zm2 1.2v-.5h.4l.5-.2.4-.5H45l-1-2.8h.5l.9 2.4.7-2.4h.6L46 108l-.4.8c0 .2-.2.4-.4.5l-.6.2H44Zm4.2-1.2a6.8 6.8 0 0 1-.9 0v-.6a10.6 10.6 0 0 0 1 .1h.5c.2-.1.2-.2.2-.3v-.2l-.2-.1-.7-.2-.6-.2-.2-.5c0-.3.2-.5.4-.6.2-.2.6-.2 1.1-.2h.7v.5a7 7 0 0 0-.7 0 2 2 0 0 0-.7 0l-.2.3.1.2h.3l.5.2c.3 0 .5.2.6.3l.2.5c0 .3-.1.5-.3.6a2 2 0 0 1-1 .2Zm3.9 0c-.5 0-.8 0-1-.2l-.2-.9V106h-.7v-.5h.7v-.8h.5v.8h1.3v.5h-1.3v1.2c0 .2 0 .4.2.5l.5.1a3.3 3.3 0 0 0 .6 0v.5a4.6 4.6 0 0 1-.6 0Zm2.8 0c-.5 0-.8-.1-1-.3-.3-.3-.5-.7-.5-1.1 0-.5.2-.8.4-1 .2-.3.5-.4.9-.4s.6 0 .8.3c.3.2.4.6.4 1v.3h-2l.4.6.7.1a3.1 3.1 0 0 0 .7 0v.4a3.5 3.5 0 0 1-.8.1Zm-1-1.6h1.5l-.2-.6a.6.6 0 0 0-.5-.2l-.5.2a1 1 0 0 0-.2.6Zm4.6 1.6v-2.1c0-.2 0-.3-.2-.3s-.3.1-.3.4v2h-.4V106c0-.1-.1-.2-.3-.2-.1 0-.2.1-.2.4v2h-.6v-2.8h.5v.4c.1-.3.3-.4.6-.4h.2l.2.4.2-.3.3-.1.4.1.2.5v2.2h-.6Zm-38.4 7-1-3.7h.5l.8 3.2 1-3.2h.5l-1 3.7h-.8Zm2.3 0v-.5h1V113h-.8v-.5H24v2.3h.9v.5h-2.5Zm1.3-3.2a.4.4 0 0 1-.4-.4c0-.1 0-.2.2-.3h.5l.1.3-.1.3h-.3Zm3.2 3.2c-.5 0-.8-.1-1-.3-.3-.3-.5-.7-.5-1.1 0-.5.2-.8.4-1 .2-.3.5-.4.9-.4s.6 0 .8.3c.3.2.4.6.4 1v.3h-2l.4.6.7.1a3.1 3.1 0 0 0 .7 0v.4a3.5 3.5 0 0 1-.8.1Zm-1-1.6h1.5l-.2-.6a.6.6 0 0 0-.5-.2l-.5.2a1 1 0 0 0-.2.6Zm4.2 1.6L30 113l-.4 2.2h-.7l-.3-2.8h.5l.2 2.4.4-2.4h.5l.3 2.4.3-2.4h.6l-.4 2.8h-.7ZM36 114v.7h.7v.5h-1.8v-.5h.6V113H35v-.5h1v.7c.1-.5.4-.7.8-.7.3 0 .5 0 .7.2l.1.8H37v-.4l-.4-.2c-.2 0-.4.1-.5.3l-.2.9Zm3.6 1.2c-.5 0-.9-.1-1.1-.3-.3-.3-.4-.7-.4-1.1 0-.5.1-.8.3-1 .2-.3.5-.4 1-.4.3 0 .6 0 .8.3.2.2.3.6.3 1v.3h-1.9c0 .3.2.4.4.6l.6.1a3.1 3.1 0 0 0 .7 0v.4a3.5 3.5 0 0 1-.7.1Zm-1-1.6H40c0-.2 0-.4-.2-.6a.6.6 0 0 0-.5-.2l-.5.2a1 1 0 0 0-.2.6Zm4.1 1.6c-.5 0-.8-.1-1-.3-.3-.3-.5-.7-.5-1.1 0-.5.2-.8.4-1 .2-.3.6-.4 1-.4l.7.1.4.4-.4.4c0-.2-.2-.3-.3-.3a.8.8 0 0 0-.4-.1c-.3 0-.5 0-.6.2l-.2.7c0 .3 0 .5.2.7l.8.2a4.1 4.1 0 0 0 .7 0v.4a3.1 3.1 0 0 1-.8.1Zm2.8 0a1 1 0 0 1-.8-.4c-.3-.2-.4-.6-.4-1 0-.5.1-.8.4-1 .2-.3.5-.4.8-.4.4 0 .7 0 1 .3l.2 1c0 .5 0 .9-.3 1.1a1 1 0 0 1-.9.4Zm0-.5c.2 0 .4 0 .5-.2l.2-.7c0-.3 0-.5-.2-.7a.5.5 0 0 0-.5-.2c-.2 0-.3 0-.4.2l-.2.7c0 .3 0 .5.2.7l.4.2Zm2.8.5-1-2.8h.6l.7 2.3.8-2.3h.6l-1 2.8h-.7Zm3.7 0c-.5 0-.8-.1-1-.3-.3-.3-.5-.7-.5-1.1 0-.5.1-.8.4-1 .2-.3.5-.4.9-.4.3 0 .6 0 .8.3.2.2.3.6.3 1v.3H51c0 .3.1.4.3.6l.7.1a3.1 3.1 0 0 0 .6 0l.1.4a3.5 3.5 0 0 1-.8.1Zm-1-1.6h1.4l-.1-.6a.6.6 0 0 0-.5-.2l-.5.2a1 1 0 0 0-.2.6Zm3.7.4v.7h.7v.5h-1.9v-.5h.6V113h-.5v-.5h1v.7h.1c0-.5.3-.7.8-.7.3 0 .5 0 .6.2l.2.8h-.5l-.1-.4-.3-.2c-.2 0-.4.1-.5.3-.2.2-.2.5-.2.9Zm2 2.4-.1-.5h.4l.6-.2.3-.5h-.2l-1.1-2.8h.5l1 2.4.7-2.4h.5l-.8 2.5c0 .4-.2.6-.3.8l-.5.5-.6.2h-.5Zm8-1.2c-.4 0-.6 0-.8-.2l-.2-.9V112h-.8v-.5h1.4v3.1l.2.2h.8v.4a3 3 0 0 1-.8.1Zm2.6 0c-.4 0-.7-.1-.9-.4-.2-.2-.3-.6-.3-1 0-.5.1-.8.3-1 .2-.3.5-.4 1-.4.3 0 .6 0 .8.3.2.3.3.6.3 1 0 .5 0 .9-.3 1.1a1 1 0 0 1-.9.4Zm0-.5c.2 0 .4 0 .5-.2l.2-.7-.2-.7a.5.5 0 0 0-.5-.2c-.2 0-.3 0-.4.2-.2.2-.2.4-.2.7 0 .3 0 .5.2.7l.4.2Zm2 1.7v-.5h1c.2 0 .4-.1.5-.3l.2-.6v-.3l-.3.4-.5.1c-.3 0-.6-.1-.8-.3-.2-.3-.3-.6-.3-1 0-.6.1-1 .3-1.2.2-.2.5-.3.8-.3l.5.1c.2.1.3.2.3.4v-.5h.6v2.5c0 .5-.2.9-.4 1.1-.2.2-.6.4-1 .4h-.8Zm1.7-2.7c0-.6-.2-.9-.7-.9-.4 0-.6.4-.6 1s.2 1 .6 1c.5 0 .7-.3.7-1v-.1Zm2.3 1.5a6.8 6.8 0 0 1-1 0l.2-.6a10.6 10.6 0 0 0 .8.1h.6c.2-.1.2-.2.2-.3v-.2l-.2-.1-.7-.2-.6-.2-.2-.5c0-.3.2-.5.4-.6.2-.2.6-.2 1.1-.2h.7v.5a7 7 0 0 0-.7 0 2 2 0 0 0-.7 0l-.2.3v.2h.4l.5.2c.3 0 .5.2.6.3l.2.5c0 .3-.1.5-.3.6a2 2 0 0 1-1 .2Zm-53.8 7v-3.7h1.2c.4 0 .7 0 1 .3l.2.8-.1.7a1 1 0 0 1-.5.4l.8 1.5h-.7l-.6-1.4H20v1.4h-.5Zm.5-2h1.2l.2-.5c0-.3 0-.4-.2-.5a.6.6 0 0 0-.5-.2H20v1.3Zm3.5 2c-.3 0-.5 0-.7-.2a1 1 0 0 1-.2-.8v-1.8h.5v1.8c0 .2 0 .3.2.4l.4.1c.2 0 .3 0 .4-.2l.2-.6v-1.5h.5v2.3h.4v.5h-.9v-.6l-.3.5-.5.1Zm4 0v-1.8c0-.2 0-.3-.2-.4l-.3-.1c-.5 0-.7.2-.7.7v1.6h-.5v-2.8h.5v.5c0-.3.3-.5.8-.5.3 0 .5 0 .7.2l.2.8v1.8h-.6Zm4.5 1.2v-.5h.9c.3 0 .5-.1.6-.3l.2-.6v-.3l-.3.4-.5.1c-.4 0-.6-.1-.8-.3-.2-.3-.3-.6-.3-1 0-.6 0-1 .3-1.2.2-.2.4-.3.8-.3l.5.1.2.4.1-.5h.5v2.5c0 .5 0 .9-.3 1.1-.2.2-.6.4-1 .4H32Zm1.7-2.7c0-.6-.2-.9-.7-.9-.4 0-.7.4-.7 1s.3 1 .7 1c.5 0 .7-.3.7-1v-.1Zm2.3.3v.7h.7v.5h-1.8v-.5h.6V120H35v-.5h1v.7c.1-.5.4-.7.8-.7.3 0 .5 0 .7.2l.1.8H37v-.4l-.4-.2c-.2 0-.4.1-.5.3l-.2.9Zm3.9 1.2v-.6l-.4.5-.6.1a1 1 0 0 1-.6-.2.7.7 0 0 1-.3-.6c0-.3.1-.5.3-.6.3-.2.6-.3 1-.3h.5c0-.2 0-.4-.2-.5a1 1 0 0 0-.6-.1h-.6v-.5h.6c.4 0 .8.1 1 .3.2.2.3.5.3.8v1.2h.5v.5h-1Zm-.1-1.2H39c-.4 0-.7.1-.7.4 0 .1 0 .2.2.3h.7l.3-.2v-.5Zm1.5 2.4v-4h.5v.5l.3-.4.5-.1c.4 0 .7 0 .9.3l.2 1.1c0 .5 0 .8-.2 1-.2.3-.5.4-.9.4l-.5-.1a.6.6 0 0 1-.2-.4v1.7h-.6Zm.6-2.5c0 .6.2.9.6.9.5 0 .7-.4.7-1s-.2-1-.7-1c-.4 0-.6.3-.6.9v.2Zm4.2 1.3v-1.8l-.1-.4-.4-.2c-.4 0-.6.3-.6.8v1.6h-.6v-4h.6v1.7c0-.3.3-.5.8-.5.2 0 .5 0 .6.2.2.2.3.5.3.8v1.8H46Zm1.4 0v-.5h1V120h-.8v-.5H49v2.3h.9v.5h-2.5Zm1.3-3.2a.4.4 0 0 1-.4-.4l.1-.3h.6l.1.3-.1.3h-.3Zm3.2 3.2c-.4 0-.8-.1-1-.3-.3-.3-.4-.7-.4-1.1 0-.5 0-.8.3-1 .3-.3.6-.4 1-.4l.7.1.5.4-.5.4c0-.2-.1-.3-.3-.3a.8.8 0 0 0-.4-.1c-.2 0-.4 0-.6.2l-.2.7c0 .3.1.5.3.7l.7.2a4.1 4.1 0 0 0 .8 0v.4a3.1 3.1 0 0 1-.9.1Zm2.7 0a6.8 6.8 0 0 1-1 0v-.6a10.6 10.6 0 0 0 1 .1h.6l.2-.3-.1-.2-.2-.1-.6-.2-.6-.2c-.2-.1-.2-.3-.2-.5 0-.3 0-.5.3-.6.2-.2.6-.2 1.1-.2h.8l-.1.5a7 7 0 0 0-.7 0 2 2 0 0 0-.7 0l-.2.3.1.2h.3l.5.2c.3 0 .5.2.6.3.2 0 .2.3.2.5 0 .3 0 .5-.3.6a2 2 0 0 1-1 .2Zm6.9 0c-.4 0-.7 0-1-.2l-.2-.9V120h-.7v-.5h.7v-.8h.6v.8h1v.5h-1v1.2l.1.5.6.1a3.3 3.3 0 0 0 .6 0v.5a4.6 4.6 0 0 1-.7 0Zm2.9 0c-.5 0-.9-.1-1.1-.3-.3-.3-.4-.7-.4-1.1 0-.5 0-.8.3-1 .2-.3.5-.4 1-.4.3 0 .6 0 .8.3.2.2.3.6.3 1v.3h-1.9c0 .3.2.4.3.6l.7.1a3.1 3.1 0 0 0 .7 0v.4a3.5 3.5 0 0 1-.7.1Zm-1-1.6h1.4c0-.2 0-.4-.2-.6a.6.6 0 0 0-.5-.2l-.5.2a1 1 0 0 0-.2.6Zm3.6 1.6a6.8 6.8 0 0 1-1 0l.1-.6a10.6 10.6 0 0 0 1 .1h.5l.2-.3v-.2l-.3-.1-.6-.2-.6-.2-.2-.5c0-.3.1-.5.4-.6.2-.2.6-.2 1-.2h.8v.5a7 7 0 0 0-.7 0 2 2 0 0 0-.7 0l-.2.3v.2h.3l.5.2c.3 0 .5.2.7.3l.2.5c0 .3-.1.5-.4.6a2 2 0 0 1-1 .2Zm3.8 0c-.4 0-.7 0-.9-.2-.2-.2-.3-.5-.3-.9V120H69v-.5h.6v-.8h.6v.8h1.2v.5h-1.2v1.2c0 .2 0 .4.2.5l.5.1a3.3 3.3 0 0 0 .6 0v.5a4.6 4.6 0 0 1-.7 0Zm-51.4 7v-3.7h1.2c.4 0 .7 0 1 .3l.2.8-.1.7a1 1 0 0 1-.5.4l.8 1.5h-.7l-.6-1.4H20v1.4h-.5Zm.5-2h1.2l.2-.5c0-.3 0-.4-.2-.5a.6.6 0 0 0-.5-.2H20v1.3Zm3.5 2c-.3 0-.5 0-.7-.2a1 1 0 0 1-.2-.8v-1.8h.5v1.8c0 .2 0 .3.2.4l.4.1c.2 0 .3 0 .4-.2l.2-.6v-1.5h.5v2.3h.4v.5h-.9v-.6l-.3.5-.5.1Zm4 0v-1.8c0-.2 0-.3-.2-.4l-.3-.1c-.5 0-.7.2-.7.7v1.6h-.5v-2.8h.5v.5c0-.3.3-.5.8-.5.3 0 .5 0 .7.2l.2.8v1.8h-.6Zm6 0c-.3 0-.5 0-.7-.2l-.2-.9V126h-.8v-.5h1.4v3.1l.2.2h.8v.4a3 3 0 0 1-.8.1Zm2.7 0c-.4 0-.7-.1-.9-.4-.2-.2-.3-.6-.3-1 0-.5.1-.8.3-1 .2-.3.5-.4 1-.4.3 0 .6 0 .8.3.2.3.3.6.3 1 0 .5 0 .9-.3 1.1a1 1 0 0 1-.9.4Zm0-.5c.2 0 .4 0 .5-.2l.1-.7-.1-.7a.5.5 0 0 0-.5-.2c-.2 0-.3 0-.5.2l-.1.7.1.7.5.2Zm3.4.5c-.5 0-.8-.1-1.1-.3-.3-.3-.4-.7-.4-1.1 0-.5.1-.8.4-1 .2-.3.6-.4 1-.4l.7.1.4.4-.4.4c0-.2-.2-.3-.3-.3a.8.8 0 0 0-.4-.1c-.3 0-.5 0-.6.2-.2.2-.2.4-.2.7 0 .3 0 .5.2.7l.7.2a4.1 4.1 0 0 0 .8 0v.4a3.1 3.1 0 0 1-.8.1Zm3.4 0v-.6l-.4.5-.6.1a1 1 0 0 1-.6-.2.7.7 0 0 1-.3-.6c0-.3.1-.5.4-.6.2-.2.5-.3.9-.3h.5c0-.2 0-.4-.2-.5a1 1 0 0 0-.6-.1h-.6v-.5h.6c.4 0 .8.1 1 .3.2.2.3.5.3.8v1.2h.5v.5H43Zm-.1-1.2h-.5c-.5 0-.8.1-.8.4 0 .1 0 .2.2.3h.7c.2 0 .2-.1.3-.2v-.5Zm3 1.2c-.3 0-.5 0-.6-.2-.2-.2-.2-.5-.2-.9V126H44v-.5h1.4v3.1l.2.2h.9v.4a3 3 0 0 1-.7.1Zm3 0c-.5 0-.8-.1-1-.3-.3-.3-.5-.7-.5-1.1 0-.5.1-.8.4-1 .2-.3.5-.4.9-.4.3 0 .6 0 .8.3.2.2.3.6.3 1v.3H48c0 .3.1.4.3.6l.7.1a3.1 3.1 0 0 0 .6 0l.1.4a3.5 3.5 0 0 1-.8.1Zm-1-1.6h1.4l-.1-.6a.6.6 0 0 0-.5-.2l-.5.2a1 1 0 0 0-.3.6Zm7.5 1.6c-.4 0-.7 0-1-.2l-.2-.9V127h-.7v-.5h.7v-.8h.5v.8H56v.5h-1.3v1.2l.2.5.5.1a3.3 3.3 0 0 0 .6 0l.1.5a4.6 4.6 0 0 1-.7 0Zm2.8 0c-.4 0-.8-.1-1-.3-.3-.3-.4-.7-.4-1.1 0-.5 0-.8.3-1 .2-.3.5-.4.9-.4s.7 0 .9.3c.2.2.3.6.3 1v.3h-2l.4.6.7.1a3.1 3.1 0 0 0 .7 0v.4a3.5 3.5 0 0 1-.8.1Zm-1-1.6h1.5c0-.2 0-.4-.2-.6a.6.6 0 0 0-.5-.2l-.5.2a1 1 0 0 0-.2.6Zm3.7 1.6a6.8 6.8 0 0 1-1 0l.1-.6a10.6 10.6 0 0 0 .9.1h.6l.2-.3v-.2l-.3-.1-.6-.2-.6-.2-.2-.5c0-.3.1-.5.3-.6.3-.2.6-.2 1.2-.2h.7v.5a7 7 0 0 0-.8 0 2 2 0 0 0-.6 0c-.2 0-.2.2-.2.3v.2h.3l.5.2c.3 0 .5.2.6.3.2 0 .3.3.3.5 0 .3-.2.5-.4.6a2 2 0 0 1-1 .2Zm3.8 0c-.4 0-.7 0-.9-.2-.2-.2-.3-.5-.3-.9V127h-.7v-.5h.7v-.8h.6v.8h1.2v.5H64v1.2l.1.5.6.1a3.3 3.3 0 0 0 .6 0v.5a4.6 4.6 0 0 1-.7 0Zm-45.2 7v-3.7h1.1c.5 0 .8 0 1 .3.3.2.4.5.4.9s-.1.8-.4 1c-.2.2-.5.3-1 .3H20v1.2h-.6Zm.6-1.7h.5c.6 0 .9-.2.9-.8 0-.5-.3-.7-.9-.7H20v1.5Zm3.7 1.7c-.4 0-.7-.1-1-.4l-.2-1c0-.5 0-.8.3-1 .2-.3.5-.4.9-.4.3 0 .6 0 .9.3.2.3.3.6.3 1 0 .5-.1.9-.3 1.1a1 1 0 0 1-1 .4Zm0-.5c.2 0 .3 0 .4-.2l.2-.7c0-.3 0-.5-.2-.7a.5.5 0 0 0-.4-.2c-.2 0-.4 0-.5.2l-.2.7c0 .3 0 .5.2.7l.5.2Zm3.4.5-.3-2.2-.4 2.2h-.7l-.3-2.8h.5l.2 2.4.4-2.4h.5l.3 2.4.3-2.4h.6l-.4 2.8H27Zm3 0c-.4 0-.8-.1-1-.3-.3-.3-.4-.7-.4-1.1 0-.5 0-.8.3-1 .2-.3.5-.4.9-.4s.7 0 .9.3c.2.2.3.6.3 1v.3h-2l.4.6.7.1a3.1 3.1 0 0 0 .7 0v.4a3.5 3.5 0 0 1-.8.1Zm-1-1.6h1.5c0-.2 0-.4-.2-.6a.6.6 0 0 0-.5-.2l-.5.2a1 1 0 0 0-.2.6Zm3.7.4v.7h.7v.5h-1.8v-.5h.6V134h-.5v-.5h1v.7c.1-.5.3-.7.8-.7.3 0 .5 0 .6.2.2.2.2.4.2.8H34l-.1-.4-.3-.2c-.2 0-.4.1-.5.3l-.2.9Zm6.4 1.2c-.4 0-.7-.1-.9-.4-.2-.2-.3-.6-.3-1 0-.5.1-.8.3-1 .2-.3.5-.4 1-.4.3 0 .6 0 .8.3.2.3.3.6.3 1 0 .5 0 .9-.3 1.1a1 1 0 0 1-.9.4Zm0-.5c.2 0 .4 0 .5-.2l.2-.7-.2-.7a.5.5 0 0 0-.5-.2c-.2 0-.3 0-.4.2-.2.2-.2.4-.2.7 0 .3 0 .5.2.7l.4.2Zm2.6.5v-1.7H41v-.5h.8v-.3c0-1 .5-1.5 1.3-1.5h.6v.6a4.3 4.3 0 0 0-.6 0c-.5 0-.7.2-.7.8v.4h1.1v.5h-1.1v1.7h-.6Zm3.1 0v-1.7h-.8v-.5h.8v-.3c0-1 .5-1.5 1.3-1.5h.6v.6a4.3 4.3 0 0 0-.6 0c-.5 0-.7.2-.7.8v.4h1.1v.5h-1.1v1.7H45Z"/><path fill="#fff" d="m19.1 87.3 1-3.7h.8l1 3.7h-.4l-.3-1H20l-.2 1H19Zm1-1.4h1l-.5-1.9-.6 2Zm2.4 2.6v-4h.5v.5h.1c0-.2.1-.3.3-.4l.5-.1c.3 0 .6 0 .8.3.2.3.3.6.3 1.1 0 .5-.1.8-.3 1a1 1 0 0 1-.8.4l-.5-.1a.6.6 0 0 1-.3-.4v1.7h-.6Zm.6-2.5c0 .6.2.9.7.9.4 0 .6-.4.6-1s-.2-1-.6-1c-.5 0-.7.3-.7.9v.2Zm2.6 2.5v-4h.5v.5c0-.2.1-.3.3-.4l.5-.1c.3 0 .6 0 .8.3.2.3.3.6.3 1.1 0 .5-.1.8-.3 1a1 1 0 0 1-.8.4l-.5-.1a.6.6 0 0 1-.2-.4v1.7h-.6Zm.5-2.5c0 .6.2.9.7.9.4 0 .6-.4.6-1s-.2-1-.6-1c-.5 0-.7.3-.7.9v.2Zm4.1 1.3c-.3 0-.5 0-.7-.2l-.2-.9V84h-.8v-.5h1.3v3.1l.2.2h1v.4a3.1 3.1 0 0 1-.8.1Zm1.3 1.2V88h.4l.6-.2.3-.5h-.2l-1.1-2.8h.6L33 87l.7-2.4h.5l-.8 2.5c0 .4-.2.6-.3.8l-.5.5-.6.2h-.5Zm7.4-1.2c-.3 0-.6 0-.7-.2a1 1 0 0 1-.3-.8v-1.8h.6v1.8l.1.4.4.1c.2 0 .4 0 .5-.2l.1-.6v-1.5h.6v2.3h.3v.5h-.8v-.6h-.1c0 .2-.2.4-.3.5l-.4.1Zm2.2 1.2v-4h.5v.5l.3-.4.5-.1c.4 0 .7 0 .9.3l.2 1.1c0 .5 0 .8-.2 1-.2.3-.5.4-.9.4l-.5-.1a.6.6 0 0 1-.2-.4v1.7h-.6Zm.6-2.5c0 .6.2.9.6.9.5 0 .7-.4.7-1s-.2-1-.7-1c-.4 0-.6.3-.6.9v.2Zm3.4 1.3c-.3 0-.6-.1-.8-.3-.2-.3-.3-.6-.3-1 0-.6.1-1 .3-1.2.2-.2.5-.3.8-.3l.5.1c.2.1.2.2.3.4v-1.6h.6v3.9H46v-.5l-.3.4-.5.1ZM46 86v-.2c0-.6-.2-.9-.6-.9-.5 0-.7.4-.7 1s.2 1 .7 1c.4 0 .6-.3.6-1Zm3.1 1.3v-.6c0 .2-.2.4-.3.5a1 1 0 0 1-.6.1 1 1 0 0 1-.7-.2.7.7 0 0 1-.3-.6c0-.3.2-.5.4-.6.2-.2.5-.3.9-.3h.5c0-.2 0-.4-.2-.5a1 1 0 0 0-.6-.1h-.6v-.5h.6c.4 0 .8.1 1 .3.2.2.3.5.3.8v1.2h.5v.5h-.9Zm0-1.2h-.7c-.5 0-.7.1-.7.4v.3h.9l.2-.2.1-.3V86Zm3 1.2c-.4 0-.7 0-.8-.2-.2-.2-.3-.5-.3-.9V85h-.7v-.5h.7v-.8h.5v.8h1.3v.5h-1.3v1.2c0 .2 0 .4.2.5l.5.1a3.1 3.1 0 0 0 .6 0v.5a4.4 4.4 0 0 1-.6 0Zm3 0c-.6 0-1-.1-1.2-.3-.2-.3-.4-.7-.4-1.1 0-.5.2-.8.4-1 .2-.3.5-.4.9-.4s.6 0 .8.3c.3.2.4.6.4 1v.3h-2l.4.6.7.1a3.1 3.1 0 0 0 .7 0v.4a3.6 3.6 0 0 1-.8.1Zm-1-1.6h1.4l-.2-.6a.6.6 0 0 0-.5-.2l-.5.2a1 1 0 0 0-.2.6Zm6.4 1.6v-1.7h-.9v-.5h.9v-.3c0-1 .4-1.5 1.3-1.5h.6l-.1.6a4.6 4.6 0 0 0-.5 0c-.5 0-.8.2-.8.8v.4h1.2v.5H61v1.7h-.5Zm3.4-1.2v.7h.7v.5h-1.8v-.5h.6V85h-.5v-.5h1v.7c.1-.5.4-.7.8-.7.3 0 .5 0 .7.2l.1.8H65v-.4l-.4-.2c-.2 0-.4.1-.5.3l-.2.9Zm3.3 1.2c-.4 0-.7-.1-.9-.4-.2-.2-.3-.6-.3-1 0-.5.1-.8.3-1 .2-.3.5-.4 1-.4.3 0 .6 0 .8.3.2.3.3.6.3 1 0 .5 0 .9-.3 1.1a1 1 0 0 1-.9.4Zm0-.5c.2 0 .4 0 .5-.2l.2-.7-.2-.7a.5.5 0 0 0-.5-.2c-.2 0-.3 0-.4.2-.2.2-.2.4-.2.7 0 .3 0 .5.2.7l.4.2Zm3.8.5v-2.1c0-.2 0-.3-.2-.3-.1 0-.2.1-.2.4v2H70V85c0-.1 0-.2-.2-.2s-.3.1-.3.4v2H69v-2.8h.5v.4c0-.3.2-.4.5-.4h.3l.1.4.2-.3.4-.1.4.1.1.5v2.2H71Zm4.1 0 1-3.7h.8l1.1 3.7h-.5l-.3-1H76l-.2 1H75Zm1-1.4h1l-.5-1.9-.6 2Zm2.4 1.4v-3.7h.9c1 0 1.7.6 1.7 1.9 0 1.2-.6 1.8-1.7 1.8h-1Zm.5-.5h.4c.7 0 1.1-.5 1.1-1.3 0-1-.4-1.4-1.1-1.4H79v2.7Zm2.6.5v-3.7h1.1c.4 0 .7 0 .9.2.2.2.3.4.3.7 0 .2 0 .4-.2.6l-.7.2c.4 0 .7.1.9.3.2.1.3.4.3.7 0 .3-.1.5-.3.7-.2.2-.5.3-.9.3h-1.4Zm.6-.5h.7c.2 0 .4 0 .5-.2.2 0 .2-.2.2-.4s0-.4-.2-.5a.9.9 0 0 0-.5-.1h-.7v1.2Zm0-1.7h.5c.2 0 .4 0 .5-.2l.2-.3-.2-.4a.8.8 0 0 0-.5-.1h-.5v1Z"/><path stroke="#2792FF" d="M18.7 58h152"/><path stroke="#2792FF" d="M18.7 141h152"/><g filter="url(#d)"><path fill="#fff" d="M12.5 215 10.7 35.8l-.9 179 1 179.7 1.7-179.7Z"/></g><g filter="url(#e)"><path fill="#fff" d="m179 139.8-1.2-117.3-.6 117.3.6 117.8 1.1-117.8Z"/></g><g clip-path="url(#f)" style="mix-blend-mode:exclusion"><rect width="8.8" height="8.8" x="89.1" y="12.8" fill="#353535" rx="4.4"/><g clip-path="url(#g)"><rect width="5.3" height="5.3" x="90.9" y="14.5" fill="#000" rx="2.6"/><g filter="url(#h)" opacity=".6"><circle cx="92" cy="16.5" r=".7" fill="#fff"/></g></g><g filter="url(#i)" opacity=".3"><rect width="3.5" height="3.5" x="93.5" y="17.6" fill="#fff" rx="1.8"/></g><g filter="url(#j)" opacity=".3"><rect width="2.6" height="2.6" x="90.4" y="13.7" fill="#fff" rx="1.3"/></g></g></g><path fill="#121214" d="M188.6 106.6a3 3 0 0 0-3-3.1v30.8a3 3 0 0 0 3-3v-24.7Z"/><path fill="#121214" d="M188.6 157.2a3 3 0 0 0-3-3v61.6a3 3 0 0 0 3-3v-55.6Z"/><g filter="url(#k)"><path fill="#fff" d="M11.6 19.8 11 1.6l-.3 18.2.3 18.4.6-18.4Z"/></g><g clip-path="url(#l)"><path fill="#2E2E33" d="M80.7 0h25.1c0 1-.8 1.8-1.7 1.8H82.5c-1 0-1.8-.8-1.8-1.8Z"/></g></g><path fill="#E94F60" d="M243.7 117.9a1 1 0 0 1 0 2h-42.3l4.8 4.8a1 1 0 0 1-1.4 1.4l-7.2-7.2 7.2-7.2a1 1 0 0 1 1.4 1.4l-4.8 4.8h42.3Z"/><defs><filter id="d" width="6.2" height="362.2" x="8.1" y="34.1" color-interpolation-filters="sRGB" filterUnits="userSpaceOnUse"><feFlood flood-opacity="0" result="BackgroundImageFix"/><feBlend in="SourceGraphic" in2="BackgroundImageFix" result="shape"/><feGaussianBlur result="effect1_foregroundBlur_1755_1413" stdDeviation=".9"/></filter><filter id="e" width="5.3" height="238.7" x="175.4" y="20.7" color-interpolation-filters="sRGB" filterUnits="userSpaceOnUse"><feFlood flood-opacity="0" result="BackgroundImageFix"/><feBlend in="SourceGraphic" in2="BackgroundImageFix" result="shape"/><feGaussianBlur result="effect1_foregroundBlur_1755_1413" stdDeviation=".9"/></filter><filter id="h" width="3.1" height="3.1" x="90.4" y="15" color-interpolation-filters="sRGB" filterUnits="userSpaceOnUse"><feFlood flood-opacity="0" result="BackgroundImageFix"/><feBlend in="SourceGraphic" in2="BackgroundImageFix" result="shape"/><feGaussianBlur result="effect1_foregroundBlur_1755_1413" stdDeviation=".4"/></filter><filter id="i" width="5.3" height="5.3" x="92.6" y="16.7" color-interpolation-filters="sRGB" filterUnits="userSpaceOnUse"><feFlood flood-opacity="0" result="BackgroundImageFix"/><feBlend in="SourceGraphic" in2="BackgroundImageFix" result="shape"/><feGaussianBlur result="effect1_foregroundBlur_1755_1413" stdDeviation=".4"/></filter><filter id="j" width="4.4" height="4.4" x="89.5" y="12.8" color-interpolation-filters="sRGB" filterUnits="userSpaceOnUse"><feFlood flood-opacity="0" result="BackgroundImageFix"/><feBlend in="SourceGraphic" in2="BackgroundImageFix" result="shape"/><feGaussianBlur result="effect1_foregroundBlur_1755_1413" stdDeviation=".4"/></filter><filter id="k" width="4.4" height="40.1" x="9" y="-.2" color-interpolation-filters="sRGB" filterUnits="userSpaceOnUse"><feFlood flood-opacity="0" result="BackgroundImageFix"/><feBlend in="SourceGraphic" in2="BackgroundImageFix" result="shape"/><feGaussianBlur result="effect1_foregroundBlur_1755_1413" stdDeviation=".9"/></filter><clipPath id="a"><path fill="#fff" d="M.1 0h190v288H.1z"/></clipPath><clipPath id="c"><rect width="180.6" height="381.4" x="3.2" y="6.6" fill="#fff" rx="7"/></clipPath><clipPath id="f"><rect width="8.8" height="8.8" x="89.1" y="12.8" fill="#fff" rx="4.4"/></clipPath><clipPath id="g"><rect width="5.3" height="5.3" x="90.9" y="14.5" fill="#fff" rx="2.6"/></clipPath><clipPath id="l"><path fill="#fff" d="M80.7 0h25.1c0 1-.8 1.8-1.7 1.8H82.5c-1 0-1.8-.8-1.8-1.8Z"/></clipPath><linearGradient id="b" x1=".1" x2="186.9" y1="394.6" y2="394.6" gradientUnits="userSpaceOnUse"><stop stop-color="#37373D"/><stop offset="1" stop-color="#111113"/></linearGradient></defs></svg>