<svg xmlns="http://www.w3.org/2000/svg" width="245" height="289" fill="none"><g clip-path="url(#a)"><rect width="186.72" height="394.58" x=".14" y=".95" fill="url(#b)" rx="10"/><g clip-path="url(#c)"><rect width="180.56" height="381.37" x="3.23" y="7.55" fill="#7D7C81" rx="7"/><path fill="#000" d="M3.23 7.55h188.04v397.67H3.23z"/><path fill="#2792FF" d="M17.12 98.95h153.56v7.93H17.12v-7.93Z"/><path fill="#F9EF4F" d="M21.25 45.01H20l-.3.98h-.48l1.22-3.77h.4l1.2 3.77h-.48l-.3-.98Zm-1.13-.41h1l-.5-1.64-.5 1.64Zm2.52 1.39v-2.8h.43l.03.41a1.23 1.23 0 0 1 .3-.3c.08-.05.17-.09.27-.12a1.05 1.05 0 0 1 .7.02c.13.04.23.1.32.19.08.09.15.2.19.34.05.13.07.3.07.48v1.78h-.48v-1.77a1 1 0 0 0-.04-.32.51.51 0 0 0-.12-.2.5.5 0 0 0-.2-.12.9.9 0 0 0-.52 0 .81.81 0 0 0-.21.1.94.94 0 0 0-.26.3v2.01h-.48Zm3.1-1.43a1.75 1.75 0 0 1 .3-1.03c.1-.12.22-.22.36-.3a1 1 0 0 1 .46-.1c.17 0 .31.03.44.09a.9.9 0 0 1 .33.24v-1.45h.48v3.98h-.45l-.02-.3c-.09.12-.2.2-.33.26s-.28.1-.45.1a.98.98 0 0 1-.82-.42c-.1-.13-.17-.28-.22-.45a1.9 1.9 0 0 1-.08-.56v-.06Zm.48.06c0 .14.01.26.04.39a1 1 0 0 0 .14.32c.06.1.14.17.23.22.1.06.21.09.34.09.17 0 .3-.04.4-.11.11-.08.2-.17.26-.3v-1.3a.8.8 0 0 0-.26-.28.67.67 0 0 0-.39-.11.69.69 0 0 0-.35.08.69.69 0 0 0-.23.23c-.06.1-.1.2-.14.33-.03.12-.04.25-.04.38v.06Zm4.64-1.49a2.18 2.18 0 0 1 .49.07l-.07.47a2.32 2.32 0 0 0-.53-.06c-.11 0-.22.01-.31.04a.73.73 0 0 0-.42.3c-.05.08-.09.15-.12.24V46h-.48v-2.8h.46l.02.37v.07c.11-.15.25-.27.4-.36.17-.1.35-.14.56-.14Zm1.21 1.43c0-.2.03-.39.09-.56.06-.18.14-.33.25-.45a1.23 1.23 0 0 1 .93-.41 1.24 1.24 0 0 1 .94.4c.11.13.2.28.25.46.06.17.1.36.1.56v.06a1.69 1.69 0 0 1-.35 1.01 1.18 1.18 0 0 1-.93.41c-.2 0-.38-.03-.54-.1a1.15 1.15 0 0 1-.4-.3c-.1-.14-.2-.29-.25-.46a1.74 1.74 0 0 1-.09-.56v-.06Zm.48.06c0 .14.02.27.05.4.03.12.08.23.15.32a.67.67 0 0 0 .6.31.7.7 0 0 0 .6-.3 1.33 1.33 0 0 0 .19-.73v-.06c0-.13-.01-.27-.05-.39a1.04 1.04 0 0 0-.15-.33.75.75 0 0 0-.25-.23.68.68 0 0 0-.34-.08.68.68 0 0 0-.35.08.73.73 0 0 0-.25.23 1 1 0 0 0-.15.33c-.03.12-.05.26-.05.4v.05Zm2.92-1.43h1.43v2.39h.92v.41h-2.35v-.41h.96V43.6h-.96v-.41Zm.9-.74.01-.12a.25.25 0 0 1 .15-.14.34.34 0 0 1 .12-.02c.05 0 .09 0 .12.02.03 0 .06.03.09.05l.06.09.02.12c0 .08-.03.14-.07.2-.05.05-.12.07-.22.07s-.17-.02-.22-.08a.28.28 0 0 1-.07-.2Zm2.12 2.11c0-.2.03-.4.08-.57.06-.18.13-.33.23-.46.1-.12.21-.22.35-.3a1 1 0 0 1 .47-.1c.16 0 .31.03.43.09a.9.9 0 0 1 .33.24v-1.45h.48v3.98h-.44l-.02-.3c-.1.12-.2.2-.33.26s-.29.1-.46.1a.98.98 0 0 1-.81-.42 1.6 1.6 0 0 1-.23-.45 1.9 1.9 0 0 1-.08-.56v-.06Zm.48.06c0 .14.02.26.05.39a1 1 0 0 0 .14.32c.06.1.13.17.23.22.1.06.2.09.34.09a.7.7 0 0 0 .4-.11c.1-.08.19-.17.25-.3v-1.3a.8.8 0 0 0-.25-.28.67.67 0 0 0-.4-.11.69.69 0 0 0-.34.08.69.69 0 0 0-.23.23.9.9 0 0 0-.14.33c-.03.12-.05.25-.05.38v.06Zm7.24-.17h-.75v1.54h-.48v-3.77h1.1c.18 0 .35.02.5.07.16.05.3.12.42.21.11.1.2.21.27.35a1.13 1.13 0 0 1-.1 1.11.92.92 0 0 1-.22.22l-.29.17.8 1.6V46h-.5l-.75-1.54Zm-.75-.4h.64a.8.8 0 0 0 .55-.19.66.66 0 0 0 .24-.52.78.78 0 0 0-.06-.31.64.64 0 0 0-.42-.37 1.1 1.1 0 0 0-.32-.05h-.63v1.45Zm3.93 2c-.2 0-.38-.04-.54-.1a1.23 1.23 0 0 1-.7-.72 1.4 1.4 0 0 1-.1-.54v-.11c0-.23.04-.43.1-.6.08-.19.18-.34.3-.47a1.26 1.26 0 0 1 .88-.38c.2 0 .38.04.53.1a1.13 1.13 0 0 1 .6.74c.05.16.07.34.07.54v.22h-2v.01c.01.14.04.26.08.36a.91.91 0 0 0 .45.48c.1.05.23.07.36.07a.98.98 0 0 0 .78-.38l.3.23c-.1.14-.24.27-.42.38-.19.1-.42.16-.69.16Zm-.06-2.52a.7.7 0 0 0-.5.2.92.92 0 0 0-.19.26c-.04.1-.08.21-.1.34h1.51v-.02a.88.88 0 0 0-.04-.28.81.81 0 0 0-.14-.26.67.67 0 0 0-.54-.24Zm3.2 2.12a.77.77 0 0 0 .48-.16.5.5 0 0 0 .15-.17.44.44 0 0 0 .06-.21h.46c0 .12-.04.24-.1.35a1 1 0 0 1-.25.3 1.3 1.3 0 0 1-1.35.17c-.16-.08-.3-.18-.4-.31a1.3 1.3 0 0 1-.24-.44 1.76 1.76 0 0 1-.08-.54v-.1c0-.2.03-.37.08-.54.05-.17.13-.32.24-.45.1-.12.24-.23.4-.3.16-.08.34-.12.56-.12a1.25 1.25 0 0 1 .81.3 1 1 0 0 1 .33.72h-.46a.63.63 0 0 0-.42-.57.73.73 0 0 0-.26-.05.73.73 0 0 0-.38.09.73.73 0 0 0-.24.23c-.07.1-.11.2-.14.32a1.7 1.7 0 0 0-.04.36v.11c0 .12.02.25.04.37.03.12.07.22.14.32a.74.74 0 0 0 .62.33Zm1.86-1.09c0-.2.03-.39.1-.56.05-.18.14-.33.25-.45a1.23 1.23 0 0 1 .93-.41 1.24 1.24 0 0 1 .94.4 1.56 1.56 0 0 1 .34 1.02v.06c0 .2-.03.39-.1.56a1.18 1.18 0 0 1-1.18.86 1.15 1.15 0 0 1-.94-.41c-.1-.13-.19-.28-.25-.45a1.74 1.74 0 0 1-.09-.56v-.06Zm.48.06c0 .14.02.27.05.4a1 1 0 0 0 .15.32.67.67 0 0 0 .6.31.7.7 0 0 0 .6-.3c.06-.1.11-.21.15-.33.03-.13.05-.26.05-.4v-.06c0-.13-.02-.27-.06-.39a1.04 1.04 0 0 0-.14-.33.75.75 0 0 0-.26-.23.68.68 0 0 0-.34-.08.68.68 0 0 0-.35.08.73.73 0 0 0-.25.23 1 1 0 0 0-.15.33c-.03.12-.05.26-.05.4v.05Zm3.8 1.37-1.15-2.8h.5l.8 2.11.04.17.05-.17.78-2.11h.5l-1.15 2.8h-.37Zm3.48.05c-.2 0-.38-.03-.55-.1a1.23 1.23 0 0 1-.7-.71c-.06-.17-.1-.35-.1-.54v-.11c0-.23.04-.43.12-.6a1.26 1.26 0 0 1 1.17-.84c.2 0 .37.03.52.1a1.07 1.07 0 0 1 .6.73c.05.16.08.34.08.54v.22h-2v.01c0 .14.03.26.08.36a.91.91 0 0 0 .45.48c.1.05.22.07.35.07a.98.98 0 0 0 .8-.38l.28.23a1.2 1.2 0 0 1-.42.38c-.18.1-.41.16-.68.16Zm-.07-2.51a.7.7 0 0 0-.27.05.7.7 0 0 0-.23.15.92.92 0 0 0-.18.26c-.05.1-.08.21-.1.34h1.51v-.02a.88.88 0 0 0-.05-.28.8.8 0 0 0-.14-.26.67.67 0 0 0-.54-.24Zm3.85-.4a2.18 2.18 0 0 1 .5.07l-.07.47a2.32 2.32 0 0 0-.53-.06c-.11 0-.22.01-.32.04a.73.73 0 0 0-.41.3c-.05.08-.09.15-.12.24V46h-.48v-2.8h.45l.03.37v.07c.11-.15.25-.27.4-.36.17-.1.35-.14.55-.14Zm1.58 4-.16-.02-.13-.03.07-.39a3.2 3.2 0 0 0 .23.01c.07 0 .13-.01.18-.05a.7.7 0 0 0 .15-.13 2.53 2.53 0 0 0 .18-.29l.19-.37L67 43.19h.54l.77 1.8.12.34.13-.32.73-1.82h.53l-1.42 3.23a1.85 1.85 0 0 1-.31.46.99.99 0 0 1-.25.17.74.74 0 0 1-.34.07Zm-45.69 2.09v2.55a1.3 1.3 0 0 1-.34.9 1.2 1.2 0 0 1-.89.37c-.18 0-.35-.03-.5-.1a1.14 1.14 0 0 1-.38-.27 1.2 1.2 0 0 1-.26-.4 1.4 1.4 0 0 1-.09-.5v-2.55h.46l.01 2.55c0 .11.02.22.05.33.04.1.09.2.15.27a.7.7 0 0 0 .24.2c.09.04.2.06.32.06s.23-.02.33-.07c.09-.04.17-.1.23-.19a.87.87 0 0 0 .14-.27c.04-.1.06-.22.06-.33v-2.55h.47Zm2.68 3.03c0-.06 0-.11-.03-.16a.34.34 0 0 0-.11-.12.88.88 0 0 0-.22-.1c-.08-.04-.2-.07-.33-.1-.16-.03-.3-.07-.44-.12a1.4 1.4 0 0 1-.33-.16.72.72 0 0 1-.22-.23.66.66 0 0 1 0-.62c.05-.1.13-.2.22-.27a1.45 1.45 0 0 1 .79-.24c.18 0 .33.03.47.07.14.05.26.1.35.19a.83.83 0 0 1 .3.62h-.47a.36.36 0 0 0-.05-.18.5.5 0 0 0-.13-.15.66.66 0 0 0-.2-.11.98.98 0 0 0-.53 0 .59.59 0 0 0-.2.08.38.38 0 0 0-.11.13.33.33 0 0 0-.04.16c0 .05 0 .1.03.15a.3.3 0 0 0 .1.11c.06.04.13.07.21.1a3 3 0 0 0 .33.08c.17.03.32.08.46.12.14.05.25.1.35.17.09.07.16.15.2.24a.68.68 0 0 1-.01.65.78.78 0 0 1-.23.25 1 1 0 0 1-.36.17 1.68 1.68 0 0 1-.96-.01 1.2 1.2 0 0 1-.38-.2.87.87 0 0 1-.24-.3.78.78 0 0 1-.08-.34h.48c0 .1.04.18.08.25.05.06.1.12.17.16a.7.7 0 0 0 .23.09 1.2 1.2 0 0 0 .58-.02c.1-.03.17-.07.22-.13a.35.35 0 0 0 .08-.1.32.32 0 0 0 .02-.13Zm2.57.8c-.2 0-.38-.04-.55-.1a1.23 1.23 0 0 1-.7-.72c-.06-.17-.1-.35-.1-.54v-.11c0-.23.04-.43.12-.6a1.26 1.26 0 0 1 1.17-.84c.2 0 .37.03.52.1.16.07.28.16.38.29.1.12.18.27.23.44.05.16.07.34.07.54v.22h-2v.01c.01.14.04.26.08.36a.91.91 0 0 0 .45.48c.1.05.22.07.35.07a.98.98 0 0 0 .8-.38l.29.23c-.1.14-.24.27-.42.38-.19.1-.42.16-.7.16ZM27 50.52a.7.7 0 0 0-.28.05.7.7 0 0 0-.23.15.92.92 0 0 0-.18.26c-.05.1-.08.21-.1.34h1.51v-.02a.88.88 0 0 0-.05-.28.8.8 0 0 0-.13-.26.67.67 0 0 0-.54-.24Zm6.15 2.46L32 50.18h.5l.8 2.11.04.17.05-.17.78-2.11h.5l-1.15 2.8h-.37Zm2.1-1.43c0-.2.03-.39.09-.56.06-.18.14-.33.25-.45a1.23 1.23 0 0 1 .93-.41 1.24 1.24 0 0 1 .94.4c.11.13.2.28.25.46.06.17.1.36.1.56v.06a1.69 1.69 0 0 1-.35 1.01 1.18 1.18 0 0 1-.93.41c-.2 0-.38-.03-.54-.1a1.15 1.15 0 0 1-.4-.3c-.1-.14-.2-.29-.25-.46a1.74 1.74 0 0 1-.09-.56v-.06Zm.48.06c0 .14.02.27.05.4a1 1 0 0 0 .15.32.67.67 0 0 0 .6.31.7.7 0 0 0 .6-.3 1.33 1.33 0 0 0 .19-.73v-.06c0-.13-.01-.27-.05-.39a1.04 1.04 0 0 0-.15-.33.75.75 0 0 0-.25-.23.68.68 0 0 0-.35-.08.68.68 0 0 0-.34.08.73.73 0 0 0-.25.23 1 1 0 0 0-.15.33c-.03.12-.05.26-.05.4v.05ZM38.66 49h1.43v3.57h.92v.41h-2.35v-.41h.95v-3.15h-.95V49Zm4.96 3.98-.03-.39a.93.93 0 0 1-.35.33 1.13 1.13 0 0 1-.88.05.78.78 0 0 1-.3-.22.78.78 0 0 1-.2-.37 1.9 1.9 0 0 1-.07-.54V50.2h.48v1.67c0 .15.01.28.04.38.02.1.06.18.1.23.05.06.11.1.18.13a.6.6 0 0 0 .24.04c.11 0 .2-.01.3-.04a.74.74 0 0 0 .21-.1.6.6 0 0 0 .14-.13l.1-.17v-2.02h.48V53h-.44Zm1.56-2.8.02.26c.05-.1.13-.18.22-.23.1-.06.2-.09.34-.09a.7.7 0 0 1 .2.03c.06.01.1.04.15.07.04.02.07.05.1.09l.06.11a.66.66 0 0 1 .2-.2.68.68 0 0 1 .35-.1c.1 0 .19.02.26.05a.5.5 0 0 1 .34.37c.03.1.04.21.04.35v2.09h-.45v-2.1a.41.41 0 0 0-.03-.16.3.3 0 0 0-.05-.1.26.26 0 0 0-.1-.07.43.43 0 0 0-.15-.02c-.06 0-.1 0-.15.02a.3.3 0 0 0-.1.07.3.3 0 0 0-.06.1.4.4 0 0 0-.04.1V53h-.45v-2.1c0-.06 0-.11-.02-.16a.26.26 0 0 0-.06-.1.22.22 0 0 0-.1-.07.5.5 0 0 0-.29 0 .3.3 0 0 0-.16.12.4.4 0 0 0-.04.08V53h-.46v-2.8h.43Zm4.21 2.85c-.2 0-.38-.03-.54-.1a1.23 1.23 0 0 1-.7-.71 1.4 1.4 0 0 1-.1-.54v-.11c0-.23.04-.43.1-.6.08-.19.18-.34.3-.47a1.26 1.26 0 0 1 .88-.38c.2 0 .38.04.53.1a1.13 1.13 0 0 1 .6.74c.05.16.07.34.07.54v.22h-2v.01c.01.14.04.26.08.36a.91.91 0 0 0 .45.48c.1.05.23.07.36.07a.98.98 0 0 0 .78-.38l.3.23c-.1.14-.24.27-.42.38-.19.1-.42.16-.69.16Zm-.06-2.51a.7.7 0 0 0-.5.2.92.92 0 0 0-.19.26c-.04.1-.08.21-.1.34h1.51v-.02a.88.88 0 0 0-.04-.28.81.81 0 0 0-.14-.26.67.67 0 0 0-.54-.24Zm7.05 2.46-.03-.39c-.1.14-.21.25-.35.33a1.13 1.13 0 0 1-.88.05.78.78 0 0 1-.31-.22 1 1 0 0 1-.2-.37 1.9 1.9 0 0 1-.06-.54V50.2h.47v1.67c0 .15.02.28.04.38.03.1.06.18.11.23.05.06.1.1.18.13a.92.92 0 0 0 .53 0 .75.75 0 0 0 .22-.1.6.6 0 0 0 .13-.13c.04-.06.08-.11.1-.17v-2.02h.48V53h-.43Zm1.34 1.08v-3.88h.43l.03.3a.9.9 0 0 1 .5-.32 1.18 1.18 0 0 1 .77.07c.14.07.26.17.35.3.1.12.16.27.21.45.05.17.08.37.08.57v.06a2 2 0 0 1-.08.56 1.4 1.4 0 0 1-.21.45.98.98 0 0 1-.82.41c-.1 0-.2 0-.3-.03a1 1 0 0 1-.37-.18 1.08 1.08 0 0 1-.11-.1v1.34h-.48Zm1.89-2.5c0-.14-.02-.27-.05-.4a1.03 1.03 0 0 0-.14-.32.69.69 0 0 0-.59-.3.8.8 0 0 0-.2.02.6.6 0 0 0-.17.07.63.63 0 0 0-.15.12.9.9 0 0 0-.11.16v1.35c.02.06.06.1.1.15a.72.72 0 0 0 .54.23c.13 0 .25-.03.34-.08.1-.06.18-.14.24-.23.06-.1.11-.2.14-.33.03-.12.05-.25.05-.4v-.05Zm1.93 1.74h-.43l1.58-4.1h.42l-1.57 4.1Zm2.47-1.75c0-.2.02-.4.07-.57.06-.18.13-.33.23-.46.1-.12.22-.22.35-.3a1 1 0 0 1 .47-.1c.17 0 .31.03.44.09a.9.9 0 0 1 .32.24V49h.48v3.98h-.44l-.02-.3c-.1.12-.2.2-.33.26s-.28.1-.46.1a.98.98 0 0 1-.8-.42c-.1-.13-.18-.28-.23-.45a1.9 1.9 0 0 1-.08-.56v-.06Zm.48.06c0 .14.01.26.04.39a1 1 0 0 0 .14.32c.06.1.13.17.23.22.1.06.2.09.34.09a.7.7 0 0 0 .4-.11c.1-.08.2-.17.25-.3v-1.3a.8.8 0 0 0-.25-.28.67.67 0 0 0-.4-.11.69.69 0 0 0-.34.08.69.69 0 0 0-.23.23.9.9 0 0 0-.14.33c-.03.12-.04.25-.04.38v.06Zm2.66-.06c0-.2.03-.39.09-.56.06-.18.14-.33.25-.45a1.23 1.23 0 0 1 .93-.41 1.24 1.24 0 0 1 .94.4c.11.13.2.28.25.46.06.17.1.36.1.56v.06a1.69 1.69 0 0 1-.35 1.01 1.18 1.18 0 0 1-.93.41c-.2 0-.38-.03-.54-.1a1.15 1.15 0 0 1-.4-.3c-.1-.14-.2-.29-.25-.46a1.74 1.74 0 0 1-.09-.56v-.06Zm.48.06c0 .14.02.27.05.4.03.12.08.23.15.32a.67.67 0 0 0 .6.31.7.7 0 0 0 .6-.3 1.33 1.33 0 0 0 .19-.73v-.06c0-.13-.02-.27-.05-.39a1.04 1.04 0 0 0-.15-.33.75.75 0 0 0-.25-.23.68.68 0 0 0-.35-.08.68.68 0 0 0-.34.08.73.73 0 0 0-.25.23 1 1 0 0 0-.15.33c-.03.12-.05.26-.05.4v.05Zm3.11 1.37-.6-2.8h.43l.33 1.78.06.4.07-.4.44-1.78h.31l.45 1.78.07.44.07-.44.32-1.78h.42l-.6 2.8h-.37l-.44-1.72-.07-.43-.07.43-.44 1.72h-.38Zm2.92 0v-2.8h.43l.04.41a1.23 1.23 0 0 1 .29-.3c.08-.05.17-.09.27-.12a1.06 1.06 0 0 1 .71.02c.12.04.22.1.3.19.1.09.16.2.2.34.05.13.07.3.07.48v1.78h-.48v-1.77a1 1 0 0 0-.04-.32.5.5 0 0 0-.12-.2.5.5 0 0 0-.2-.12.9.9 0 0 0-.52 0 .82.82 0 0 0-.2.1.95.95 0 0 0-.27.3v2.01h-.48Zm8.22 0a.55.55 0 0 1-.04-.13 1.74 1.74 0 0 1-.03-.18 1.3 1.3 0 0 1-.58.33 1.2 1.2 0 0 1-.66-.04.92.92 0 0 1-.31-.17.76.76 0 0 1-.27-.59.82.82 0 0 1 .35-.7c.12-.07.25-.13.41-.16.16-.04.34-.06.53-.06h.53v-.22a.5.5 0 0 0-.18-.4.62.62 0 0 0-.21-.11.9.9 0 0 0-.53 0 .63.63 0 0 0-.2.1.44.44 0 0 0-.11.13.36.36 0 0 0-.05.17h-.48c0-.1.03-.2.08-.3.05-.1.13-.19.22-.26.1-.08.21-.15.35-.2a1.58 1.58 0 0 1 .91-.01c.14.04.26.1.36.18a.85.85 0 0 1 .32.7v1.3a1.86 1.86 0 0 0 .1.58v.04h-.5Zm-.84-.37a.91.91 0 0 0 .65-.26c.05-.05.09-.1.12-.16v-.57h-.45c-.17 0-.31.01-.44.04a.7.7 0 0 0-.29.13.57.57 0 0 0-.12.15.53.53 0 0 0 0 .39c.02.06.06.1.1.15.05.04.1.07.18.1a.9.9 0 0 0 .25.03Zm2.19.37v-2.8h.43l.03.41a1.23 1.23 0 0 1 .3-.3c.08-.05.17-.09.27-.12a1.05 1.05 0 0 1 .7.02c.13.04.23.1.32.19a1 1 0 0 1 .19.34c.05.13.07.3.07.48v1.78h-.48v-1.77a1 1 0 0 0-.04-.32.51.51 0 0 0-.12-.2.5.5 0 0 0-.2-.12.9.9 0 0 0-.52 0 .82.82 0 0 0-.21.1.95.95 0 0 0-.26.3v2.01h-.48Zm3.1-1.43a1.75 1.75 0 0 1 .3-1.03c.1-.12.22-.22.36-.3a1 1 0 0 1 .46-.1c.17 0 .31.03.44.09a.9.9 0 0 1 .33.24V49h.48v3.98h-.45l-.02-.3c-.09.12-.2.2-.33.26s-.28.1-.45.1a.98.98 0 0 1-.82-.42c-.1-.13-.17-.28-.22-.45a1.9 1.9 0 0 1-.08-.56v-.06Zm.48.06c0 .14.01.26.04.39a1 1 0 0 0 .14.32c.06.1.14.17.23.22.1.06.21.09.34.09.17 0 .3-.04.4-.11.1-.08.2-.17.26-.3v-1.3a.8.8 0 0 0-.26-.28.67.67 0 0 0-.39-.11.69.69 0 0 0-.35.08.69.69 0 0 0-.23.23c-.06.1-.1.2-.14.33-.03.12-.04.25-.04.38v.06Zm5.98 2.45v-3.88h.44l.03.3a.89.89 0 0 1 .5-.32 1.18 1.18 0 0 1 .77.07c.14.07.26.17.35.3.1.12.16.27.21.45.05.17.07.37.07.57v.06a2 2 0 0 1-.07.56 1.4 1.4 0 0 1-.21.45.98.98 0 0 1-.82.41c-.1 0-.2 0-.3-.03a1 1 0 0 1-.37-.18 1.08 1.08 0 0 1-.12-.1v1.34h-.48Zm1.9-2.5c0-.14-.02-.27-.05-.4a1.03 1.03 0 0 0-.14-.32.69.69 0 0 0-.59-.3.8.8 0 0 0-.2.02.6.6 0 0 0-.17.07.63.63 0 0 0-.15.12.9.9 0 0 0-.12.16v1.35l.1.15.13.11a.72.72 0 0 0 .42.12c.13 0 .24-.03.34-.08.1-.06.18-.14.24-.23.06-.1.1-.2.14-.33.03-.12.04-.25.04-.4v-.05Zm1.16 0c0-.21.03-.4.09-.57.06-.18.14-.33.25-.45a1.23 1.23 0 0 1 .93-.41 1.24 1.24 0 0 1 .94.4c.11.13.2.28.25.46.06.17.1.36.1.56v.06a1.69 1.69 0 0 1-.35 1.01 1.18 1.18 0 0 1-.93.41c-.2 0-.38-.03-.54-.1a1.15 1.15 0 0 1-.4-.3c-.1-.14-.2-.29-.25-.46a1.74 1.74 0 0 1-.09-.56v-.06Zm.48.05c0 .14.02.27.05.4a1 1 0 0 0 .15.32.67.67 0 0 0 .6.31.7.7 0 0 0 .6-.3 1.33 1.33 0 0 0 .19-.73v-.06c0-.13-.02-.27-.05-.39a1.04 1.04 0 0 0-.15-.33.75.75 0 0 0-.25-.23.68.68 0 0 0-.35-.08.68.68 0 0 0-.34.08.73.73 0 0 0-.25.23 1 1 0 0 0-.15.33c-.03.12-.05.26-.05.4v.05Zm3.11 1.37-.6-2.8h.43l.33 1.78.06.4.07-.4.44-1.78h.31l.45 1.78.07.44.08-.44.3-1.78h.43l-.6 2.8h-.37l-.44-1.72-.07-.43-.07.43-.44 1.72h-.38Zm4.16.05c-.2 0-.38-.03-.54-.1a1.23 1.23 0 0 1-.7-.71c-.06-.17-.1-.35-.1-.54v-.11a1.57 1.57 0 0 1 .41-1.07 1.26 1.26 0 0 1 .87-.38c.2 0 .38.04.53.1a1.13 1.13 0 0 1 .6.74c.05.16.08.34.08.54v.22h-2v.01a.92.92 0 0 0 .53.83c.1.06.22.08.35.08a.97.97 0 0 0 .79-.38l.29.23a1.27 1.27 0 0 1-1.1.54Zm-.06-2.51a.7.7 0 0 0-.27.05.7.7 0 0 0-.24.15.92.92 0 0 0-.17.26c-.05.1-.08.21-.1.34h1.5v-.02a.87.87 0 0 0-.04-.28.8.8 0 0 0-.14-.26.67.67 0 0 0-.54-.24Zm3.85-.4a2.17 2.17 0 0 1 .5.07l-.07.47a2.3 2.3 0 0 0-.53-.06c-.12 0-.22.01-.32.04a.72.72 0 0 0-.42.3c-.04.08-.08.15-.11.24V53h-.49v-2.8h.46l.02.37v.07c.12-.15.25-.27.41-.36.16-.1.35-.14.55-.14Zm2.19 2.55c0-.1.03-.19.09-.26.06-.08.16-.11.28-.11.13 0 .22.03.28.1.07.08.1.17.1.27s-.03.19-.1.26a.4.4 0 0 1-.28.1.4.4 0 0 1-.28-.1.38.38 0 0 1-.1-.26Z"/><path fill="#2793FF" d="M20.7 63.37h-.75v1.54h-.48v-3.77h1.1c.18 0 .35.03.5.07.16.05.3.12.41.21.12.1.21.22.28.36a1.13 1.13 0 0 1-.1 1.1 1.28 1.28 0 0 1-.51.39l.8 1.61v.03h-.5l-.75-1.54Zm-.75-.39h.64c.1 0 .2-.02.3-.05a.8.8 0 0 0 .25-.14.66.66 0 0 0 .23-.52.78.78 0 0 0-.05-.32.64.64 0 0 0-.42-.37 1.1 1.1 0 0 0-.32-.05h-.63v1.45Zm3.93 1.99c-.2 0-.38-.04-.55-.1a1.23 1.23 0 0 1-.7-.72c-.06-.16-.1-.34-.1-.54v-.1c0-.24.05-.44.12-.62.07-.18.17-.33.29-.45a1.26 1.26 0 0 1 .88-.38c.2 0 .38.03.53.1.15.07.27.17.37.3.1.12.18.26.23.43.05.17.07.35.07.54v.22h-2v.02c.01.13.04.25.08.36a.91.91 0 0 0 .45.47c.1.05.23.07.36.07a.97.97 0 0 0 .78-.37l.3.22a1.3 1.3 0 0 1-1.12.55Zm-.06-2.52a.71.71 0 0 0-.5.2.92.92 0 0 0-.19.26c-.04.1-.08.21-.1.34h1.51v-.02a.88.88 0 0 0-.05-.28.8.8 0 0 0-.13-.26.66.66 0 0 0-.54-.24Zm4.39 1.1a2.16 2.16 0 0 1-.11.66c-.05.13-.1.25-.18.35a1 1 0 0 1-.27.26 1 1 0 0 1-.55.15c-.12 0-.23-.02-.33-.05a.93.93 0 0 1-.47-.33l-.03.32h-.44v-3.98h.48v1.48a.89.89 0 0 1 .29-.24.94.94 0 0 1 .23-.08 1.2 1.2 0 0 1 .6.02c.1.03.2.07.28.13l.2.2a1.44 1.44 0 0 1 .26.63c.02.13.04.27.04.42v.05Zm-.48-.06a1.78 1.78 0 0 0-.07-.5 1.1 1.1 0 0 0-.12-.25.57.57 0 0 0-.19-.18.64.64 0 0 0-.17-.07.77.77 0 0 0-.43 0 .63.63 0 0 0-.33.24.86.86 0 0 0-.1.17v1.22c.02.07.06.12.1.18.04.05.1.1.15.13a.67.67 0 0 0 .41.13c.08 0 .15-.01.22-.03a.63.63 0 0 0 .35-.27 1.24 1.24 0 0 0 .16-.47l.02-.25v-.05Zm1.15 0c0-.2.03-.4.1-.57.05-.17.13-.32.25-.45a1.23 1.23 0 0 1 .93-.41 1.23 1.23 0 0 1 .93.4c.11.14.2.29.26.46.05.18.08.36.08.57v.05c0 .2-.03.4-.08.57-.06.17-.15.32-.26.45a1.18 1.18 0 0 1-.93.4c-.2 0-.38-.03-.54-.1a1.15 1.15 0 0 1-.4-.3c-.1-.13-.19-.28-.25-.45a1.74 1.74 0 0 1-.09-.57v-.05Zm.48.05c0 .14.02.27.05.4a1 1 0 0 0 .15.33.71.71 0 0 0 .6.3.7.7 0 0 0 .6-.3c.06-.1.11-.2.15-.33.03-.13.04-.26.04-.4v-.05c0-.14-.01-.27-.05-.4a1.04 1.04 0 0 0-.14-.33.75.75 0 0 0-.26-.22.68.68 0 0 0-.34-.09.68.68 0 0 0-.35.09.73.73 0 0 0-.25.22 1 1 0 0 0-.15.33c-.03.13-.05.26-.05.4v.05Zm2.71-.05c0-.2.03-.4.09-.57.06-.17.14-.32.25-.45a1.23 1.23 0 0 1 .93-.41 1.23 1.23 0 0 1 .94.4 1.75 1.75 0 0 1 .35 1.03v.05c0 .2-.04.4-.1.57-.05.17-.14.32-.25.45a1.18 1.18 0 0 1-.93.4c-.2 0-.38-.03-.54-.1a1.15 1.15 0 0 1-.4-.3c-.1-.13-.2-.28-.25-.45a1.74 1.74 0 0 1-.09-.57v-.05Zm.48.05c0 .14.02.27.05.4.03.12.08.23.15.33a.71.71 0 0 0 .6.3.7.7 0 0 0 .6-.3 1.33 1.33 0 0 0 .19-.73v-.05c0-.14-.01-.27-.05-.4a1.04 1.04 0 0 0-.15-.33.75.75 0 0 0-.25-.22.68.68 0 0 0-.34-.09.68.68 0 0 0-.35.09.73.73 0 0 0-.25.22 1 1 0 0 0-.15.33c-.03.13-.05.26-.05.4v.05Zm3.98-2.11v.68h1.07v.37h-1.07V64c0 .11.02.2.04.27a.42.42 0 0 0 .28.26.7.7 0 0 0 .2.03 1.72 1.72 0 0 0 .33-.03 5.94 5.94 0 0 0 .26-.05l.07.34a.72.72 0 0 1-.15.06 1.67 1.67 0 0 1-.4.08h-.22a.96.96 0 0 1-.35-.05.73.73 0 0 1-.28-.17.8.8 0 0 1-.2-.3 1.3 1.3 0 0 1-.06-.44v-1.52h-.74v-.37h.74v-.68h.48Zm7.22 2.53a.51.51 0 0 0-.08-.3.7.7 0 0 0-.2-.2c-.09-.05-.18-.1-.28-.13l-.28-.1c-.14-.04-.27-.1-.41-.15a1.9 1.9 0 0 1-.37-.23 1.13 1.13 0 0 1-.28-.3.83.83 0 0 1-.11-.43c0-.17.04-.31.1-.44a1.25 1.25 0 0 1 .68-.52 1.46 1.46 0 0 1 .92.01c.15.05.29.13.4.23a1.07 1.07 0 0 1 .4.83h-.5a.73.73 0 0 0-.07-.3.68.68 0 0 0-.4-.38.95.95 0 0 0-.58-.02.7.7 0 0 0-.22.12.6.6 0 0 0-.17.2.56.56 0 0 0 .02.54l.2.19.27.12.27.1.42.15c.14.06.27.14.39.24.11.09.2.2.27.32a.94.94 0 0 1 0 .89.99.99 0 0 1-.3.31c-.11.09-.25.15-.4.2a1.69 1.69 0 0 1-.98-.03 1.33 1.33 0 0 1-.73-.61c-.06-.13-.1-.28-.1-.44h.49c.01.11.05.22.1.3.04.1.1.17.18.24.08.06.16.1.26.14a1.1 1.1 0 0 0 .6.02c.1-.03.18-.07.25-.12a.52.52 0 0 0 .24-.45Zm1.44 2.09c-.05 0-.1 0-.16-.02l-.14-.02.08-.4a3.62 3.62 0 0 0 .23.02c.06 0 .12-.02.18-.06a.7.7 0 0 0 .15-.13 2.58 2.58 0 0 0 .18-.29l.19-.37-1.21-2.67h.53l.77 1.8.13.35.13-.33.72-1.82h.54l-1.42 3.24-.13.23a.98.98 0 0 1-.44.4c-.1.04-.2.07-.33.07Zm4.83-1.88c0-.06-.02-.1-.04-.15a.34.34 0 0 0-.11-.13.87.87 0 0 0-.21-.1l-.33-.1a1.89 1.89 0 0 1-.44-.11 1.4 1.4 0 0 1-.34-.17.72.72 0 0 1-.22-.23.66.66 0 0 1 0-.62c.05-.1.13-.19.23-.26.1-.08.2-.14.34-.18a1.68 1.68 0 0 1 .91 0c.14.05.26.11.35.2a.83.83 0 0 1 .3.61H50a.36.36 0 0 0-.05-.17.5.5 0 0 0-.13-.16.66.66 0 0 0-.2-.1.97.97 0 0 0-.53 0 .58.58 0 0 0-.2.08.38.38 0 0 0-.11.13.34.34 0 0 0-.04.15c0 .06.01.1.03.15a.3.3 0 0 0 .11.12.8.8 0 0 0 .2.1l.33.07c.17.04.33.08.46.13.14.05.25.1.35.17.1.06.16.14.21.23a.68.68 0 0 1-.01.65.78.78 0 0 1-.23.26c-.1.07-.22.13-.36.17a1.68 1.68 0 0 1-.97-.02 1.2 1.2 0 0 1-.38-.2.87.87 0 0 1-.24-.3.78.78 0 0 1-.08-.34h.48c.01.1.04.18.08.25.05.07.1.12.18.16a.7.7 0 0 0 .22.1 1.2 1.2 0 0 0 .58-.03.5.5 0 0 0 .22-.12.35.35 0 0 0 .08-.11.31.31 0 0 0 .03-.13Zm2.46-2.74v.68h1.06v.37h-1.06V64c0 .11.01.2.04.27a.42.42 0 0 0 .28.26c.06.02.13.03.2.03a1.72 1.72 0 0 0 .32-.03 5.87 5.87 0 0 0 .26-.05l.07.34a.72.72 0 0 1-.14.06 1.67 1.67 0 0 1-.4.08h-.23c-.12 0-.24-.01-.35-.05a.73.73 0 0 1-.28-.17.8.8 0 0 1-.19-.3A1.3 1.3 0 0 1 52 64v-1.52h-.73v-.37H52v-.68h.49Zm3.29 3.54c-.2 0-.38-.04-.55-.1a1.24 1.24 0 0 1-.7-.72c-.06-.16-.1-.34-.1-.54v-.1c0-.24.04-.44.12-.62.07-.18.17-.33.29-.45a1.26 1.26 0 0 1 .88-.38c.2 0 .38.03.53.1.15.07.27.17.37.3.1.12.18.26.23.43.05.17.07.35.07.54v.22h-2v.02c.01.13.04.25.08.36a.91.91 0 0 0 .45.47c.1.05.23.07.35.07a.97.97 0 0 0 .8-.37l.29.22a1.3 1.3 0 0 1-1.12.55Zm-.06-2.52a.71.71 0 0 0-.5.2.92.92 0 0 0-.19.26c-.04.1-.08.21-.1.34h1.51v-.02a.88.88 0 0 0-.05-.28.8.8 0 0 0-.13-.26.66.66 0 0 0-.54-.24Zm2.23-.34.01.26a.7.7 0 0 1 .22-.23c.1-.05.21-.08.34-.08a.7.7 0 0 1 .2.02.5.5 0 0 1 .16.07l.09.1.07.1a.66.66 0 0 1 .19-.2.68.68 0 0 1 .36-.1c.1 0 .18.02.26.05a.5.5 0 0 1 .2.13c.05.06.1.14.13.24.03.1.05.21.05.35v2.1h-.46v-2.1c0-.06 0-.12-.02-.16a.3.3 0 0 0-.06-.11.26.26 0 0 0-.1-.07.43.43 0 0 0-.14-.02c-.06 0-.1.01-.15.03a.3.3 0 0 0-.1.06.3.3 0 0 0-.07.1.4.4 0 0 0-.03.11v2.15h-.46v-2.1c0-.06 0-.1-.02-.15a.26.26 0 0 0-.06-.12.22.22 0 0 0-.1-.06.5.5 0 0 0-.29 0 .3.3 0 0 0-.16.12.42.42 0 0 0-.04.08v2.23h-.45v-2.8h.43Zm8.52 2.8h-.49l-1.46-2.82v2.82H64v-3.77h.5l1.46 2.81v-2.81h.5v3.77Zm.69-1.42c0-.2.03-.4.09-.57.06-.17.14-.32.25-.45a1.23 1.23 0 0 1 .93-.41 1.23 1.23 0 0 1 .94.4 1.75 1.75 0 0 1 .35 1.03v.05c0 .2-.04.4-.1.57-.06.17-.14.32-.25.45a1.18 1.18 0 0 1-.93.4c-.2 0-.38-.03-.54-.1a1.15 1.15 0 0 1-.4-.3c-.1-.13-.2-.28-.25-.45a1.74 1.74 0 0 1-.09-.57v-.05Zm.48.05c0 .14.02.27.05.4.03.12.08.23.15.33a.71.71 0 0 0 .6.3.7.7 0 0 0 .6-.3 1.33 1.33 0 0 0 .19-.73v-.05c0-.14-.02-.27-.05-.4a1.04 1.04 0 0 0-.15-.33.75.75 0 0 0-.25-.22.68.68 0 0 0-.35-.09.68.68 0 0 0-.34.09.73.73 0 0 0-.25.22 1 1 0 0 0-.15.33c-.03.13-.05.26-.05.4v.05Zm3.11 1.37-.6-2.8h.43l.33 1.79.06.4.07-.4.44-1.8h.31l.45 1.8.07.44.07-.44.32-1.8h.42l-.6 2.81h-.37l-.44-1.72-.07-.43-.07.43-.44 1.72h-.38ZM20.7 71.37h-.75v1.54h-.48v-3.77h1.1c.18 0 .35.03.5.07.16.05.3.12.41.21.12.1.21.22.28.36a1.13 1.13 0 0 1-.1 1.1 1.28 1.28 0 0 1-.51.39l.8 1.61v.03h-.5l-.75-1.54Zm-.75-.39h.64c.1 0 .2-.02.3-.05a.8.8 0 0 0 .25-.14.66.66 0 0 0 .23-.52.78.78 0 0 0-.05-.32.64.64 0 0 0-.42-.37 1.1 1.1 0 0 0-.32-.05h-.63v1.45Zm3.93 1.99c-.2 0-.38-.04-.55-.1a1.23 1.23 0 0 1-.7-.72c-.06-.16-.1-.34-.1-.54v-.1c0-.24.05-.44.12-.62.07-.18.17-.33.29-.45a1.26 1.26 0 0 1 .88-.38c.2 0 .38.03.53.1.15.07.27.17.37.3.1.12.18.26.23.43.05.17.07.35.07.54v.22h-2v.02c.01.13.04.25.08.36a.91.91 0 0 0 .45.47c.1.05.23.07.36.07a.97.97 0 0 0 .78-.37l.3.22a1.3 1.3 0 0 1-1.12.55Zm-.06-2.52a.71.71 0 0 0-.5.2.92.92 0 0 0-.19.26c-.04.1-.08.21-.1.34h1.51v-.02a.88.88 0 0 0-.05-.28.8.8 0 0 0-.13-.26.66.66 0 0 0-.54-.24Zm4.39 1.1a2.16 2.16 0 0 1-.11.66c-.05.13-.1.25-.18.35a1 1 0 0 1-.27.26 1 1 0 0 1-.55.15c-.12 0-.23-.02-.33-.05a.93.93 0 0 1-.47-.33l-.03.32h-.44v-3.98h.48v1.48a.89.89 0 0 1 .29-.24.94.94 0 0 1 .23-.08 1.2 1.2 0 0 1 .6.02c.1.03.2.07.28.13l.2.2a1.44 1.44 0 0 1 .26.63c.02.13.04.27.04.42v.05Zm-.48-.06a1.78 1.78 0 0 0-.07-.5 1.1 1.1 0 0 0-.12-.25.57.57 0 0 0-.19-.18.64.64 0 0 0-.17-.07.77.77 0 0 0-.43 0 .63.63 0 0 0-.33.24.86.86 0 0 0-.1.17v1.22c.02.07.06.12.1.18.04.05.1.1.15.13a.67.67 0 0 0 .41.13c.08 0 .15-.01.22-.03a.63.63 0 0 0 .35-.27 1.24 1.24 0 0 0 .16-.47l.02-.25v-.05Zm1.15 0c0-.2.03-.4.1-.57.05-.17.13-.32.25-.45a1.23 1.23 0 0 1 .93-.41 1.23 1.23 0 0 1 .93.4c.11.14.2.29.26.46.05.18.08.36.08.57v.05c0 .2-.03.4-.08.56-.06.18-.15.33-.26.46a1.18 1.18 0 0 1-.93.4c-.2 0-.38-.03-.54-.1a1.15 1.15 0 0 1-.4-.3c-.1-.13-.19-.28-.25-.45a1.74 1.74 0 0 1-.09-.57v-.05Zm.48.05c0 .14.02.27.05.4a1 1 0 0 0 .15.33.71.71 0 0 0 .6.3.7.7 0 0 0 .6-.3c.06-.1.11-.2.15-.33.03-.13.04-.26.04-.4v-.05c0-.14-.01-.27-.05-.4a1.04 1.04 0 0 0-.14-.33.75.75 0 0 0-.26-.22.68.68 0 0 0-.34-.09.68.68 0 0 0-.35.09.73.73 0 0 0-.25.22 1 1 0 0 0-.15.33c-.03.13-.05.26-.05.4v.05Zm2.71-.05c0-.2.03-.4.09-.57.06-.17.14-.32.25-.45a1.23 1.23 0 0 1 .93-.41 1.23 1.23 0 0 1 .94.4 1.75 1.75 0 0 1 .35 1.03v.05c0 .2-.04.4-.1.56a1.18 1.18 0 0 1-1.18.86c-.2 0-.38-.03-.54-.1a1.15 1.15 0 0 1-.4-.3c-.1-.13-.2-.28-.25-.45a1.74 1.74 0 0 1-.09-.57v-.05Zm.48.05c0 .14.02.27.05.4.03.12.08.23.15.33a.71.71 0 0 0 .6.3.7.7 0 0 0 .6-.3 1.33 1.33 0 0 0 .19-.73v-.05c0-.14-.01-.27-.05-.4a1.04 1.04 0 0 0-.15-.33.75.75 0 0 0-.25-.22.68.68 0 0 0-.34-.09.68.68 0 0 0-.35.09.73.73 0 0 0-.25.22 1 1 0 0 0-.15.33c-.03.13-.05.26-.05.4v.05Zm3.98-2.11v.68h1.07v.37h-1.07V72c0 .11.02.2.04.27a.42.42 0 0 0 .28.26.7.7 0 0 0 .2.03 1.72 1.72 0 0 0 .33-.03 5.94 5.94 0 0 0 .26-.05l.07.34a.72.72 0 0 1-.15.06 1.67 1.67 0 0 1-.4.08h-.22a.96.96 0 0 1-.35-.05.73.73 0 0 1-.28-.17.8.8 0 0 1-.2-.3 1.3 1.3 0 0 1-.06-.44v-1.52h-.74v-.37h.74v-.68h.48Zm6.38 0v.68h1.07v.37H42.9V72c0 .11.01.2.04.27a.42.42 0 0 0 .28.26c.06.02.13.03.2.03a1.72 1.72 0 0 0 .33-.03 5.87 5.87 0 0 0 .26-.05l.06.34a.72.72 0 0 1-.14.06 1.66 1.66 0 0 1-.4.08h-.23c-.12 0-.24-.01-.35-.05a.73.73 0 0 1-.28-.17.8.8 0 0 1-.19-.3 1.3 1.3 0 0 1-.06-.44v-1.52h-.74v-.37h.74v-.68h.48Zm1.92 2.06c0-.2.03-.4.09-.57.05-.17.14-.32.25-.45a1.23 1.23 0 0 1 .93-.41 1.23 1.23 0 0 1 .94.4 1.58 1.58 0 0 1 .34 1.03v.05c0 .2-.03.4-.09.56a1.18 1.18 0 0 1-1.18.86c-.2 0-.38-.03-.54-.1a1.15 1.15 0 0 1-.4-.3c-.11-.13-.2-.28-.25-.45a1.74 1.74 0 0 1-.1-.57v-.05Zm.48.05c0 .14.01.27.05.4a1 1 0 0 0 .15.33c.06.1.15.17.25.22.1.06.21.09.35.09a.7.7 0 0 0 .6-.31 1.42 1.42 0 0 0 .19-.73v-.05c0-.14-.02-.27-.05-.4a1.04 1.04 0 0 0-.15-.33.75.75 0 0 0-.25-.22.68.68 0 0 0-.35-.09.68.68 0 0 0-.35.09.73.73 0 0 0-.24.22 1 1 0 0 0-.15.33c-.04.13-.05.26-.05.4v.05Zm8.4 0a2.16 2.16 0 0 1-.1.67c-.05.13-.1.25-.18.35a1 1 0 0 1-.27.26 1 1 0 0 1-.55.15c-.12 0-.23-.02-.33-.05a.93.93 0 0 1-.47-.33l-.03.32h-.44v-3.98h.48v1.48a.89.89 0 0 1 .3-.24.94.94 0 0 1 .22-.08 1.2 1.2 0 0 1 .6.02c.1.03.2.07.28.13l.2.2a1.44 1.44 0 0 1 .26.63c.03.13.04.27.04.42v.05Zm-.47-.05a1.78 1.78 0 0 0-.07-.5 1.1 1.1 0 0 0-.12-.25.57.57 0 0 0-.19-.18.64.64 0 0 0-.16-.07.77.77 0 0 0-.44 0 .63.63 0 0 0-.33.24.86.86 0 0 0-.1.17v1.22c.02.07.06.12.1.18.04.05.1.1.15.13a.67.67 0 0 0 .41.13c.08 0 .16-.01.22-.03a.63.63 0 0 0 .35-.27 1.24 1.24 0 0 0 .16-.47l.02-.25v-.05Zm1.15 0c0-.2.03-.4.1-.57.05-.17.14-.32.25-.45a1.23 1.23 0 0 1 .93-.41 1.23 1.23 0 0 1 .94.4c.1.14.19.29.25.46.06.18.09.36.09.57v.05c0 .2-.03.4-.1.56a1.18 1.18 0 0 1-1.18.86 1.15 1.15 0 0 1-.94-.41c-.1-.12-.19-.27-.25-.44a1.74 1.74 0 0 1-.09-.57v-.05Zm.48.05c0 .14.02.27.05.4a1 1 0 0 0 .15.33.71.71 0 0 0 .6.3.7.7 0 0 0 .6-.3c.06-.1.11-.2.15-.33.03-.13.05-.26.05-.4v-.05c0-.14-.02-.27-.06-.4a1.04 1.04 0 0 0-.14-.33.75.75 0 0 0-.26-.22.68.68 0 0 0-.34-.09.68.68 0 0 0-.35.09.73.73 0 0 0-.25.22 1 1 0 0 0-.15.33c-.03.13-.05.26-.05.4v.05Zm2.71-.05c0-.2.03-.4.1-.57.05-.17.14-.32.25-.45a1.23 1.23 0 0 1 .93-.41 1.23 1.23 0 0 1 .94.4c.1.14.19.29.25.46.06.18.08.36.08.57v.05c0 .2-.02.4-.08.56a1.18 1.18 0 0 1-1.18.86 1.15 1.15 0 0 1-.94-.41c-.11-.12-.2-.27-.26-.44a1.74 1.74 0 0 1-.09-.57v-.05Zm.48.05c0 .14.02.27.05.4.04.12.09.23.15.33a.71.71 0 0 0 .6.3.7.7 0 0 0 .6-.3c.06-.1.11-.2.15-.33.03-.13.05-.26.05-.4v-.05c0-.14-.02-.27-.06-.4a1.04 1.04 0 0 0-.14-.33.75.75 0 0 0-.26-.22.68.68 0 0 0-.34-.09.68.68 0 0 0-.35.09.73.73 0 0 0-.25.22 1 1 0 0 0-.15.33c-.03.13-.05.26-.05.4v.05Zm3.98-2.11v.68h1.07v.37h-1.07V72c0 .11.02.2.04.27a.42.42 0 0 0 .28.26l.2.03a1.72 1.72 0 0 0 .33-.03 5.87 5.87 0 0 0 .26-.05l.07.34a.72.72 0 0 1-.15.06 1.67 1.67 0 0 1-.4.08h-.22a.99.99 0 0 1-.35-.05.73.73 0 0 1-.28-.17.8.8 0 0 1-.2-.3 1.3 1.3 0 0 1-.06-.44v-1.52h-.74v-.37h.74v-.68h.48Zm2.13-.5h1.44v3.57h.91v.41h-2.35v-.41h.96v-3.15h-.96v-.42Zm2.98 2.56c0-.2.03-.4.09-.57.06-.17.14-.32.25-.45a1.23 1.23 0 0 1 .93-.41 1.23 1.23 0 0 1 .94.4 1.75 1.75 0 0 1 .35 1.03v.05c0 .2-.04.4-.1.56a1.18 1.18 0 0 1-1.18.86c-.2 0-.38-.03-.54-.1a1.15 1.15 0 0 1-.4-.3c-.1-.13-.2-.28-.25-.45a1.74 1.74 0 0 1-.09-.57v-.05Zm.48.05c0 .14.02.27.05.4.03.12.08.23.15.33a.71.71 0 0 0 .6.3.7.7 0 0 0 .6-.3 1.33 1.33 0 0 0 .19-.73v-.05c0-.14-.02-.27-.05-.4a1.04 1.04 0 0 0-.15-.33.75.75 0 0 0-.25-.22.68.68 0 0 0-.35-.09.68.68 0 0 0-.34.09.73.73 0 0 0-.25.22 1 1 0 0 0-.15.33c-.03.13-.05.26-.05.4v.05Zm4.69 1.37a.55.55 0 0 1-.05-.13 1.74 1.74 0 0 1-.02-.17 1.3 1.3 0 0 1-.6.33 1.2 1.2 0 0 1-.66-.04.92.92 0 0 1-.3-.18.76.76 0 0 1-.26-.58c0-.16.03-.3.09-.4a.82.82 0 0 1 .26-.3c.11-.07.25-.13.4-.17.16-.04.34-.06.54-.06h.52V71a.5.5 0 0 0-.18-.4.62.62 0 0 0-.2-.1.9.9 0 0 0-.54-.01.63.63 0 0 0-.19.1.44.44 0 0 0-.12.14.36.36 0 0 0-.04.17h-.49c0-.1.03-.2.08-.3.05-.1.13-.2.23-.27.09-.08.2-.14.34-.2a1.73 1.73 0 0 1 .92 0 .85.85 0 0 1 .67.88v1.3a1.86 1.86 0 0 0 .1.57v.04h-.5Zm-.85-.36a.91.91 0 0 0 .66-.27l.11-.16v-.57h-.45c-.16 0-.3.02-.43.05a.7.7 0 0 0-.3.13.36.36 0 0 0-.11.14.53.53 0 0 0 0 .39c.02.06.05.1.1.15.04.04.1.08.17.1.07.03.16.04.25.04Zm2.1-1.06c0-.21.03-.4.08-.58a1.28 1.28 0 0 1 .58-.75 1 1 0 0 1 .46-.1c.17 0 .32.03.44.08a.9.9 0 0 1 .33.25v-1.46h.48v3.98h-.44l-.02-.3a1 1 0 0 1-.34.27c-.13.06-.28.09-.45.09a.98.98 0 0 1-.81-.41 1.6 1.6 0 0 1-.23-.45 1.9 1.9 0 0 1-.08-.57v-.05Zm.48.05c0 .14.02.27.05.4a1 1 0 0 0 .13.32c.06.09.14.16.24.22.1.05.2.08.34.08a.7.7 0 0 0 .4-.11c.1-.07.19-.17.25-.3v-1.3a.8.8 0 0 0-.25-.27.67.67 0 0 0-.4-.12.69.69 0 0 0-.34.09.69.69 0 0 0-.24.22 1.6 1.6 0 0 0-.18.72v.05Zm4.04 1.43c-.2 0-.38-.04-.54-.1a1.23 1.23 0 0 1-.7-.72c-.07-.16-.1-.34-.1-.54v-.1c0-.24.04-.44.11-.62s.17-.33.29-.45a1.26 1.26 0 0 1 .88-.38c.2 0 .38.03.53.1a1.17 1.17 0 0 1 .6.73c.05.17.07.35.07.54v.22h-2v.02c.01.13.04.25.08.36a.91.91 0 0 0 .45.47c.1.05.23.07.36.07a.97.97 0 0 0 .79-.37l.29.22c-.1.15-.23.27-.42.38-.19.11-.42.17-.69.17Zm-.06-2.52a.71.71 0 0 0-.5.2.92.92 0 0 0-.19.26c-.04.1-.07.21-.1.34h1.52v-.02a.88.88 0 0 0-.05-.28.8.8 0 0 0-.14-.26.66.66 0 0 0-.54-.24Zm3.85-.4a2.18 2.18 0 0 1 .5.07l-.07.47a2.3 2.3 0 0 0-.53-.06c-.12 0-.23.02-.32.05a.73.73 0 0 0-.42.3c-.05.07-.08.15-.12.23v1.8h-.48v-2.8h.46l.02.37v.07c.12-.15.25-.27.41-.36.16-.09.35-.13.55-.13Zm-60.35 9.12h-1.58v1.34h1.84v.4h-2.32v-3.77h2.3v.4h-1.82v1.22h1.58v.4Zm1.11 1.74v-2.8h.43l.03.41a1.23 1.23 0 0 1 .3-.29c.08-.05.17-.1.27-.12a1.2 1.2 0 0 1 .7.01c.13.04.23.1.32.2.08.08.15.2.19.33.05.14.07.3.07.48v1.78h-.48v-1.77a.93.93 0 0 0-.04-.31.51.51 0 0 0-.12-.21.5.5 0 0 0-.2-.12.9.9 0 0 0-.52 0 .81.81 0 0 0-.21.1.94.94 0 0 0-.26.3v2.01h-.48Zm4.32-3.48v.68h1.07v.37h-1.07V80c0 .11.02.2.05.27a.42.42 0 0 0 .28.26c.06.02.13.03.2.03a1.72 1.72 0 0 0 .32-.03 5.94 5.94 0 0 0 .26-.05l.07.34a.72.72 0 0 1-.15.06 1.67 1.67 0 0 1-.4.08h-.22a.99.99 0 0 1-.35-.05.73.73 0 0 1-.28-.17.8.8 0 0 1-.19-.3 1.3 1.3 0 0 1-.07-.44v-1.52h-.73v-.37h.73v-.68h.48Zm3.3 3.54c-.2 0-.38-.04-.55-.1a1.23 1.23 0 0 1-.7-.72c-.06-.16-.1-.34-.1-.54v-.1c0-.24.04-.44.12-.62.07-.18.17-.33.29-.45a1.26 1.26 0 0 1 .88-.38c.2 0 .37.03.52.1.16.07.28.17.38.3.1.12.18.26.23.43.05.17.07.35.07.54v.22h-2v.02c0 .13.04.25.08.36a.91.91 0 0 0 .45.47c.1.05.22.07.35.07a.97.97 0 0 0 .8-.37l.28.22c-.09.15-.23.27-.42.38a1.3 1.3 0 0 1-.68.17Zm-.07-2.52a.71.71 0 0 0-.5.2.92.92 0 0 0-.18.26c-.05.1-.08.21-.1.34h1.51v-.02a.88.88 0 0 0-.05-.28.8.8 0 0 0-.14-.26.66.66 0 0 0-.54-.24Zm3.86-.4a2.18 2.18 0 0 1 .49.07l-.07.47a2.3 2.3 0 0 0-.53-.06 1 1 0 0 0-.31.05.73.73 0 0 0-.42.3 1 1 0 0 0-.12.23v1.8h-.48v-2.8h.45l.03.37v.07c.11-.15.25-.27.4-.36.17-.09.35-.13.55-.13Zm5.25 2.86v-2.43h-.77v-.37h.77v-.2c0-.18.03-.34.08-.47a.93.93 0 0 1 .57-.55 1.37 1.37 0 0 1 .65-.06 2.52 2.52 0 0 1 .47.1l-.06.39a1.73 1.73 0 0 0-.55-.1 1 1 0 0 0-.3.05.51.51 0 0 0-.33.33.98.98 0 0 0-.05.31v.2h1.08v.37h-1.08v2.43h-.48Zm4.32 0a.56.56 0 0 1-.05-.13 1.77 1.77 0 0 1-.02-.17 1.3 1.3 0 0 1-.6.33 1.2 1.2 0 0 1-.66-.04.92.92 0 0 1-.3-.18.76.76 0 0 1-.26-.58c0-.16.03-.3.09-.4a.83.83 0 0 1 .26-.3c.11-.07.25-.13.4-.17.16-.04.34-.06.54-.06h.52V79a.5.5 0 0 0-.18-.4.62.62 0 0 0-.21-.1.9.9 0 0 0-.53-.01.63.63 0 0 0-.19.1.44.44 0 0 0-.12.14.36.36 0 0 0-.04.17h-.49c0-.1.03-.2.08-.3.05-.1.13-.2.22-.27.1-.08.22-.14.35-.2a1.73 1.73 0 0 1 .91 0 .85.85 0 0 1 .67.88v1.3a1.85 1.85 0 0 0 .1.57v.04h-.5Zm-.85-.36a.91.91 0 0 0 .66-.27c.04-.05.08-.1.1-.16v-.57h-.44c-.16 0-.3.02-.43.05a.7.7 0 0 0-.3.13.36.36 0 0 0-.11.14.53.53 0 0 0 0 .39c.01.06.05.1.1.15.04.04.1.08.17.1.07.03.16.04.25.04Zm4.06-.38c0-.06-.01-.1-.04-.15a.34.34 0 0 0-.11-.13.87.87 0 0 0-.21-.1l-.33-.1a1.89 1.89 0 0 1-.44-.11 1.4 1.4 0 0 1-.34-.17.72.72 0 0 1-.22-.23.66.66 0 0 1 0-.62c.06-.1.13-.19.23-.26.1-.08.2-.14.34-.18a1.65 1.65 0 0 1 .91 0c.14.05.26.11.35.2a.83.83 0 0 1 .3.61h-.47a.36.36 0 0 0-.05-.17.5.5 0 0 0-.13-.16.66.66 0 0 0-.2-.1.97.97 0 0 0-.53 0 .58.58 0 0 0-.2.08.38.38 0 0 0-.11.13.33.33 0 0 0-.04.15c0 .06.01.1.03.15a.3.3 0 0 0 .11.12.8.8 0 0 0 .2.1l.33.07c.17.04.33.08.46.13.14.04.26.1.35.17.1.06.16.14.21.23a.68.68 0 0 1-.01.65.78.78 0 0 1-.23.26c-.1.07-.22.13-.36.17a1.68 1.68 0 0 1-.97-.02 1.2 1.2 0 0 1-.38-.2.87.87 0 0 1-.23-.3.78.78 0 0 1-.08-.34h.47c.01.1.04.18.08.25.05.07.1.12.18.16a.7.7 0 0 0 .22.1 1.2 1.2 0 0 0 .58-.03c.1-.03.17-.07.23-.12a.35.35 0 0 0 .07-.11.31.31 0 0 0 .03-.13Zm2.46-2.74v.68h1.07v.37h-1.07V80c0 .11.01.2.04.27a.42.42 0 0 0 .28.26c.06.02.13.03.2.03a1.72 1.72 0 0 0 .32-.03 5.87 5.87 0 0 0 .26-.05l.07.34a.72.72 0 0 1-.14.06 1.67 1.67 0 0 1-.4.08h-.23c-.12 0-.24-.01-.35-.05a.73.73 0 0 1-.28-.17.8.8 0 0 1-.19-.3 1.3 1.3 0 0 1-.07-.44v-1.52h-.73v-.37h.73v-.68h.49Zm4.43 2.11a2.16 2.16 0 0 1-.1.67c-.05.13-.12.25-.2.35a1 1 0 0 1-.26.26 1 1 0 0 1-.55.15c-.12 0-.23-.02-.33-.05a.93.93 0 0 1-.47-.33l-.03.32h-.44v-3.98h.48v1.48a.89.89 0 0 1 .3-.24.94.94 0 0 1 .22-.08 1.2 1.2 0 0 1 .6.02c.1.03.2.07.28.13l.2.2a1.44 1.44 0 0 1 .26.63c.03.13.04.27.04.42v.05Zm-.48-.05a1.78 1.78 0 0 0-.07-.5 1.1 1.1 0 0 0-.12-.25.57.57 0 0 0-.19-.18.64.64 0 0 0-.16-.07.77.77 0 0 0-.44 0 .63.63 0 0 0-.33.24.86.86 0 0 0-.1.17v1.22c.02.07.06.12.1.18.04.05.1.1.15.13a.67.67 0 0 0 .41.13c.08 0 .16-.01.22-.03a.63.63 0 0 0 .35-.27 1.24 1.24 0 0 0 .16-.47l.02-.25v-.05Zm1.15 0c0-.2.03-.4.1-.57.05-.17.14-.32.25-.45a1.23 1.23 0 0 1 .93-.41 1.23 1.23 0 0 1 .94.4c.1.14.19.29.25.46.06.18.09.36.09.57v.05c0 .2-.03.4-.1.56a1.18 1.18 0 0 1-1.18.86 1.15 1.15 0 0 1-.94-.41c-.1-.12-.19-.27-.25-.44a1.74 1.74 0 0 1-.09-.57v-.05Zm.48.05c0 .14.02.27.05.4a1 1 0 0 0 .15.33.71.71 0 0 0 .6.3.7.7 0 0 0 .6-.3c.06-.1.11-.2.15-.33.03-.13.05-.26.05-.4v-.05c0-.14-.02-.27-.06-.4a1.04 1.04 0 0 0-.14-.33.75.75 0 0 0-.26-.22.68.68 0 0 0-.34-.09.68.68 0 0 0-.35.09.73.73 0 0 0-.25.22 1 1 0 0 0-.15.33c-.03.13-.05.26-.05.4v.05Zm2.71-.05c0-.2.03-.4.1-.57.05-.17.14-.32.25-.45a1.23 1.23 0 0 1 .93-.41 1.23 1.23 0 0 1 .94.4c.1.14.19.29.25.46.06.18.08.36.08.57v.05c0 .2-.02.4-.08.56a1.18 1.18 0 0 1-1.18.86 1.15 1.15 0 0 1-.94-.41c-.11-.12-.2-.27-.26-.44a1.74 1.74 0 0 1-.09-.57v-.05Zm.48.05c0 .14.02.27.05.4.04.12.09.23.15.33a.71.71 0 0 0 .6.3.7.7 0 0 0 .6-.3c.06-.1.11-.2.15-.33.03-.13.05-.26.05-.4v-.05c0-.14-.02-.27-.06-.4a1.04 1.04 0 0 0-.14-.33.75.75 0 0 0-.26-.22.68.68 0 0 0-.34-.09.68.68 0 0 0-.35.09.73.73 0 0 0-.25.22 1 1 0 0 0-.15.33c-.03.13-.05.26-.05.4v.05Zm3.98-2.11v.68h1.07v.37h-1.07V80c0 .11.02.2.04.27a.42.42 0 0 0 .28.26l.2.03a1.72 1.72 0 0 0 .33-.03 5.87 5.87 0 0 0 .26-.05l.07.34a.72.72 0 0 1-.15.06 1.67 1.67 0 0 1-.4.08h-.22a.99.99 0 0 1-.35-.05.73.73 0 0 1-.28-.17.8.8 0 0 1-.2-.3 1.3 1.3 0 0 1-.06-.44v-1.52h-.74v-.37h.74v-.68h.48Zm-40.79 10.5H20l-.3.98h-.48l1.22-3.77h.4l1.2 3.77h-.48l-.3-.97Zm-1.13-.41h1l-.5-1.64-.5 1.64Zm2.52 2.47v-3.88h.44l.02.3a.9.9 0 0 1 .51-.32 1.18 1.18 0 0 1 .76.07c.14.07.26.17.35.3.1.12.17.28.21.45.05.18.08.37.08.58v.05a2 2 0 0 1-.08.56 1.4 1.4 0 0 1-.2.46.98.98 0 0 1-.82.41c-.11 0-.21-.02-.3-.04a1 1 0 0 1-.38-.18 1.07 1.07 0 0 1-.11-.1v1.34h-.48Zm1.89-2.5c0-.14-.02-.27-.05-.4a1.03 1.03 0 0 0-.14-.32.69.69 0 0 0-.59-.3.8.8 0 0 0-.2.02.6.6 0 0 0-.17.07.62.62 0 0 0-.15.13.9.9 0 0 0-.11.16v1.35l.1.14c.04.05.08.09.13.12a.72.72 0 0 0 .41.11c.13 0 .25-.02.34-.08.1-.06.18-.13.24-.23a.9.9 0 0 0 .14-.33c.03-.12.05-.25.05-.39v-.05Zm1.3 2.5v-3.88h.43l.03.3a.9.9 0 0 1 .5-.32 1.18 1.18 0 0 1 .77.07c.14.07.26.17.35.3.1.12.17.28.21.45.05.18.08.37.08.58v.05a2 2 0 0 1-.08.56 1.4 1.4 0 0 1-.2.46.98.98 0 0 1-.82.41c-.11 0-.21-.02-.3-.04a1 1 0 0 1-.38-.18 1.08 1.08 0 0 1-.11-.1v1.34h-.48Zm1.89-2.5c0-.14-.02-.27-.05-.4a1.02 1.02 0 0 0-.14-.32.69.69 0 0 0-.59-.3.8.8 0 0 0-.2.02.6.6 0 0 0-.17.07.63.63 0 0 0-.15.13.9.9 0 0 0-.11.16v1.35l.1.14c.04.05.08.09.13.12a.72.72 0 0 0 .4.11c.14 0 .26-.02.35-.08.1-.06.18-.13.24-.23s.11-.2.14-.33c.03-.12.05-.25.05-.39v-.05Zm1.37-2.56h1.44v3.57h.91v.41H29.1v-.41h.96v-3.15h-.96v-.42Zm3.34 5.12c-.04 0-.1 0-.16-.02l-.13-.02.07-.4a3.64 3.64 0 0 0 .23.02c.07 0 .13-.02.18-.06a.7.7 0 0 0 .15-.13 2.58 2.58 0 0 0 .18-.29l.19-.37-1.2-2.67h.53l.77 1.8.12.35.14-.33.72-1.82h.54l-1.43 3.24a1.86 1.86 0 0 1-.3.45.98.98 0 0 1-.26.18.9.9 0 0 1-.34.07Zm8-1.14-.03-.38a.9.9 0 0 1-.35.32 1.13 1.13 0 0 1-.88.05.78.78 0 0 1-.3-.22.88.88 0 0 1-.2-.37 1.9 1.9 0 0 1-.07-.53V86.1h.48v1.67c0 .15.01.28.04.38.02.1.06.18.1.24.05.06.11.1.18.13a1.05 1.05 0 0 0 .53 0 .75.75 0 0 0 .22-.11.6.6 0 0 0 .14-.13l.1-.17V86.1h.48v2.8h-.44ZM41.77 90v-3.88h.44l.02.3a.9.9 0 0 1 .51-.32 1.18 1.18 0 0 1 .77.07 1 1 0 0 1 .35.3c.09.12.16.28.2.45.06.18.08.37.08.58v.05a2 2 0 0 1-.07.56 1.4 1.4 0 0 1-.21.46.98.98 0 0 1-.82.41c-.1 0-.2-.02-.3-.04a1 1 0 0 1-.38-.18 1.07 1.07 0 0 1-.1-.1V90h-.49Zm1.9-2.5c0-.14-.02-.27-.06-.4a1.02 1.02 0 0 0-.13-.32.69.69 0 0 0-.59-.3.8.8 0 0 0-.2.02.6.6 0 0 0-.18.07.63.63 0 0 0-.15.13.9.9 0 0 0-.1.16v1.35c.02.05.05.1.1.14.03.05.07.09.12.12a.72.72 0 0 0 .41.11.65.65 0 0 0 .59-.31c.06-.1.1-.2.13-.33.04-.12.05-.25.05-.39v-.05Zm1.2 0c0-.21.03-.4.08-.58a1.28 1.28 0 0 1 .58-.75 1 1 0 0 1 .46-.1c.17 0 .32.03.44.08a.9.9 0 0 1 .33.25v-1.46h.48v3.98h-.44l-.02-.3a1 1 0 0 1-.34.27 1.1 1.1 0 0 1-.45.09.98.98 0 0 1-.81-.41 1.6 1.6 0 0 1-.23-.45 1.91 1.91 0 0 1-.08-.57v-.05Zm.48.05c0 .14.02.27.05.4a1 1 0 0 0 .13.32c.06.09.14.16.24.22.1.05.2.08.34.08a.7.7 0 0 0 .4-.11c.1-.07.19-.17.25-.3v-1.3a.8.8 0 0 0-.25-.27.67.67 0 0 0-.4-.12.69.69 0 0 0-.34.09.69.69 0 0 0-.24.22 1.6 1.6 0 0 0-.18.72v.05ZM50 88.91a.56.56 0 0 1-.04-.13 1.8 1.8 0 0 1-.03-.17 1.3 1.3 0 0 1-.58.33 1.2 1.2 0 0 1-.66-.04.92.92 0 0 1-.31-.18.76.76 0 0 1-.27-.58.82.82 0 0 1 .35-.7c.12-.07.25-.13.41-.17.16-.04.34-.06.53-.06h.53V87a.5.5 0 0 0-.18-.4.62.62 0 0 0-.21-.1.9.9 0 0 0-.53-.01.63.63 0 0 0-.2.1.44.44 0 0 0-.11.14.36.36 0 0 0-.05.17h-.48c0-.1.03-.2.08-.3.05-.1.13-.2.22-.27.1-.08.21-.14.35-.2a1.73 1.73 0 0 1 .91 0 .85.85 0 0 1 .67.88v1.3a1.85 1.85 0 0 0 .1.57v.04H50Zm-.84-.36a.91.91 0 0 0 .65-.27c.05-.05.09-.1.12-.16v-.57h-.45c-.16 0-.31.02-.43.05a.7.7 0 0 0-.3.13.53.53 0 0 0-.12.14.53.53 0 0 0 0 .39c.02.06.06.1.1.15.05.04.11.08.18.1.07.03.15.04.25.04Zm3.33-3.12v.68h1.06v.37h-1.06V88c0 .11.01.2.04.27a.42.42 0 0 0 .28.26c.06.02.13.03.2.03a1.72 1.72 0 0 0 .32-.03 5.87 5.87 0 0 0 .26-.05l.07.34a.72.72 0 0 1-.14.06 1.67 1.67 0 0 1-.4.08h-.23c-.12 0-.24-.01-.35-.05a.73.73 0 0 1-.28-.17.8.8 0 0 1-.19-.3A1.3 1.3 0 0 1 52 88v-1.52h-.73v-.37H52v-.68h.49Zm3.29 3.54c-.2 0-.38-.04-.55-.1a1.24 1.24 0 0 1-.7-.72c-.06-.16-.1-.34-.1-.54v-.1c0-.24.04-.44.12-.62.07-.18.17-.33.29-.45a1.26 1.26 0 0 1 .88-.38c.2 0 .38.03.53.1.15.07.27.17.37.3.1.12.18.26.23.43.05.17.07.35.07.54v.22h-2v.02c.01.13.04.25.08.36a.91.91 0 0 0 .45.47c.1.05.23.07.35.07a.97.97 0 0 0 .8-.37l.29.22a1.3 1.3 0 0 1-1.12.55Zm-.06-2.52a.71.71 0 0 0-.5.2.92.92 0 0 0-.19.26c-.04.1-.08.21-.1.34h1.51v-.02a.88.88 0 0 0-.05-.28.8.8 0 0 0-.13-.26.66.66 0 0 0-.54-.24Zm5.91 2.46v-2.43h-.77v-.37h.77v-.2c0-.18.03-.34.08-.47a.93.93 0 0 1 .57-.55 1.37 1.37 0 0 1 .66-.06 2.51 2.51 0 0 1 .46.1l-.06.39a1.73 1.73 0 0 0-.55-.1c-.1 0-.2.02-.29.05a.51.51 0 0 0-.34.33.98.98 0 0 0-.04.31v.2h1.08v.37h-1.1v2.43h-.49Zm4.31-2.85a2.18 2.18 0 0 1 .5.06l-.07.47a2.3 2.3 0 0 0-.53-.06c-.11 0-.22.02-.32.05a.73.73 0 0 0-.41.3 1 1 0 0 0-.12.23v1.8h-.48v-2.8h.45l.03.37v.07c.11-.15.25-.27.4-.36.17-.09.35-.13.55-.13Zm1.22 1.43c0-.2.03-.4.09-.57.06-.17.14-.32.25-.45a1.23 1.23 0 0 1 .93-.41 1.23 1.23 0 0 1 .94.4 1.75 1.75 0 0 1 .35 1.03v.05c0 .2-.04.4-.1.56a1.18 1.18 0 0 1-1.18.86c-.2 0-.38-.03-.54-.1a1.15 1.15 0 0 1-.4-.3c-.1-.13-.2-.28-.25-.45a1.74 1.74 0 0 1-.09-.57v-.05Zm.48.05c0 .14.02.27.05.4.03.12.08.23.15.33a.71.71 0 0 0 .6.3.7.7 0 0 0 .6-.3 1.33 1.33 0 0 0 .19-.73v-.05c0-.14-.02-.27-.05-.4a1.04 1.04 0 0 0-.15-.33.75.75 0 0 0-.25-.22.68.68 0 0 0-.35-.09.68.68 0 0 0-.34.09.73.73 0 0 0-.25.22 1 1 0 0 0-.15.33c-.03.13-.05.26-.05.4v.05Zm3.06-1.43.02.26a.6.6 0 0 1 .22-.23c.1-.05.2-.08.34-.08a.7.7 0 0 1 .2.02l.16.07.08.1.07.1a.66.66 0 0 1 .2-.2.68.68 0 0 1 .35-.1c.1 0 .19.02.26.05a.5.5 0 0 1 .2.13c.06.06.1.14.14.24.03.1.04.21.04.35v2.1h-.45v-2.1l-.02-.16a.3.3 0 0 0-.06-.11.26.26 0 0 0-.1-.07.42.42 0 0 0-.15-.02c-.05 0-.1.01-.14.03a.3.3 0 0 0-.1.06.3.3 0 0 0-.07.1.4.4 0 0 0-.03.11v2.15h-.46v-2.1c0-.06 0-.1-.02-.15a.26.26 0 0 0-.06-.12.22.22 0 0 0-.1-.06.5.5 0 0 0-.29 0 .3.3 0 0 0-.16.12.41.41 0 0 0-.04.08v2.23h-.46v-2.8h.43Zm7.96 1.83H77.4l-.3.97h-.48l1.22-3.77h.4l1.2 3.77h-.48l-.3-.97Zm-1.13-.42h1l-.5-1.64-.5 1.64Zm2.47 1.4v-3.78h.88a1.98 1.98 0 0 1 .77.16 1.42 1.42 0 0 1 .7.68 2.3 2.3 0 0 1 .2.9v.29a2.19 2.19 0 0 1-.2.88 1.48 1.48 0 0 1-.97.8c-.15.04-.32.06-.5.06H80Zm.49-3.39v3h.39c.13 0 .26-.03.37-.06a1.04 1.04 0 0 0 .7-.67l.09-.3.03-.33v-.29a2.11 2.11 0 0 0-.12-.64 1.18 1.18 0 0 0-.19-.32.9.9 0 0 0-.28-.24 1.39 1.39 0 0 0-.6-.15h-.4Zm2.74 3.38v-3.77h1.13c.15 0 .3.02.45.06a1.04 1.04 0 0 1 .68.49.91.91 0 0 1 .05.72.74.74 0 0 1-.12.22.85.85 0 0 1-.18.17l-.23.13a.96.96 0 0 1 .5.32 1.05 1.05 0 0 1 .18.57.99.99 0 0 1-.38.8c-.11.1-.25.17-.4.22-.15.05-.3.07-.47.07h-1.2Zm.49-1.76v1.36h.74a.8.8 0 0 0 .52-.18.62.62 0 0 0 .23-.5.65.65 0 0 0-.21-.5.7.7 0 0 0-.23-.13.95.95 0 0 0-.29-.05h-.76Zm0-.4h.67c.09 0 .17-.02.26-.04a.75.75 0 0 0 .23-.12.59.59 0 0 0 .16-.19.52.52 0 0 0 .07-.26.55.55 0 0 0-.23-.45.75.75 0 0 0-.23-.1 1.2 1.2 0 0 0-.28-.04h-.65v1.2Zm-62.46 9.19H20l-.3.97h-.48l1.22-3.77h.4l1.2 3.77h-.48l-.3-.97Zm-1.13-.42h1l-.5-1.64-.5 1.64Zm2.52 2.47v-3.88h.44l.02.3a.9.9 0 0 1 .51-.32 1.18 1.18 0 0 1 .76.07c.14.07.26.17.35.3.1.12.17.28.21.45.05.18.08.37.08.58v.05a2 2 0 0 1-.08.56 1.4 1.4 0 0 1-.2.46.98.98 0 0 1-.82.41c-.11 0-.21-.02-.3-.04a1 1 0 0 1-.38-.18 1.07 1.07 0 0 1-.11-.1v1.34h-.48Zm1.89-2.5c0-.14-.02-.27-.05-.4a1.03 1.03 0 0 0-.14-.32.69.69 0 0 0-.59-.3.8.8 0 0 0-.2.02.6.6 0 0 0-.17.07.62.62 0 0 0-.15.13.9.9 0 0 0-.11.16v1.35l.1.14c.04.05.08.09.13.12a.72.72 0 0 0 .41.11c.13 0 .25-.02.34-.08.1-.06.18-.13.24-.23a.9.9 0 0 0 .14-.33c.03-.12.05-.25.05-.39v-.05Zm1.3 2.5v-3.88h.43l.03.3a.9.9 0 0 1 .5-.32 1.18 1.18 0 0 1 .77.07c.14.07.26.17.35.3.1.12.17.28.21.45.05.18.08.37.08.58v.05a2 2 0 0 1-.08.56 1.4 1.4 0 0 1-.2.46.98.98 0 0 1-.82.41c-.11 0-.21-.02-.3-.04a1 1 0 0 1-.38-.18 1.08 1.08 0 0 1-.11-.1v1.34h-.48Zm1.89-2.5c0-.14-.02-.27-.05-.4a1.02 1.02 0 0 0-.14-.32.69.69 0 0 0-.59-.3.8.8 0 0 0-.2.02.6.6 0 0 0-.17.07.63.63 0 0 0-.15.13.9.9 0 0 0-.11.16v1.35l.1.14c.04.05.08.09.13.12a.72.72 0 0 0 .4.11c.14 0 .26-.02.35-.08.1-.06.18-.13.24-.23s.11-.2.14-.33c.03-.12.05-.25.05-.39v-.05Zm1.37-2.56h1.44v3.57h.91v.41H29.1v-.41h.96v-3.15h-.96v-.42Zm3.34 5.12c-.04 0-.1 0-.16-.02l-.13-.02.07-.4a3.64 3.64 0 0 0 .23.02c.07 0 .13-.02.18-.06a.7.7 0 0 0 .15-.13 2.58 2.58 0 0 0 .18-.29l.19-.37-1.2-2.67h.53l.77 1.8.12.35.14-.33.72-1.82h.54l-1.43 3.24a1.86 1.86 0 0 1-.3.45.98.98 0 0 1-.26.18.9.9 0 0 1-.34.07Zm8-1.14-.03-.38a.9.9 0 0 1-.35.32 1.13 1.13 0 0 1-.88.05.78.78 0 0 1-.3-.22.88.88 0 0 1-.2-.37 1.9 1.9 0 0 1-.07-.53V94.1h.48v1.67c0 .15.01.28.04.38.02.1.06.18.1.24.05.06.11.1.18.13a1.05 1.05 0 0 0 .53 0 .75.75 0 0 0 .22-.11.6.6 0 0 0 .14-.13l.1-.17V94.1h.48v2.8h-.44ZM41.77 98v-3.88h.44l.02.3a.9.9 0 0 1 .51-.32 1.18 1.18 0 0 1 .77.07 1 1 0 0 1 .35.3c.09.12.16.28.2.45.06.18.08.37.08.58v.05a2 2 0 0 1-.07.56 1.4 1.4 0 0 1-.21.46.98.98 0 0 1-.82.41c-.1 0-.2-.02-.3-.04a1 1 0 0 1-.38-.18 1.07 1.07 0 0 1-.1-.1V98h-.49Zm1.9-2.5c0-.14-.02-.27-.06-.4a1.02 1.02 0 0 0-.13-.32.69.69 0 0 0-.59-.3.8.8 0 0 0-.2.02.6.6 0 0 0-.18.07.63.63 0 0 0-.15.13.9.9 0 0 0-.1.16v1.35c.02.05.05.1.1.14.03.05.07.09.12.12a.72.72 0 0 0 .41.11.65.65 0 0 0 .59-.31c.06-.1.1-.2.13-.33.04-.12.05-.25.05-.39v-.05Zm1.2 0c0-.21.03-.4.08-.58a1.28 1.28 0 0 1 .58-.75 1 1 0 0 1 .46-.1c.17 0 .32.03.44.08a.9.9 0 0 1 .33.25v-1.46h.48v3.98h-.44l-.02-.3a1 1 0 0 1-.34.27 1.1 1.1 0 0 1-.45.09.98.98 0 0 1-.81-.41 1.6 1.6 0 0 1-.23-.45 1.91 1.91 0 0 1-.08-.57v-.05Zm.48.05c0 .14.02.27.05.4a1 1 0 0 0 .13.32c.06.09.14.16.24.22.1.05.2.08.34.08a.7.7 0 0 0 .4-.11c.1-.07.19-.17.25-.3v-1.3a.8.8 0 0 0-.25-.27.67.67 0 0 0-.4-.12.69.69 0 0 0-.34.09.69.69 0 0 0-.24.22 1.6 1.6 0 0 0-.18.72v.05ZM50 96.91a.56.56 0 0 1-.04-.13 1.8 1.8 0 0 1-.03-.17 1.3 1.3 0 0 1-.58.33 1.2 1.2 0 0 1-.66-.04.92.92 0 0 1-.31-.18.76.76 0 0 1-.27-.58.82.82 0 0 1 .35-.7c.12-.07.25-.13.41-.17.16-.04.34-.06.53-.06h.53V95a.5.5 0 0 0-.18-.4.62.62 0 0 0-.21-.1.9.9 0 0 0-.53-.01.63.63 0 0 0-.2.1.44.44 0 0 0-.11.14.36.36 0 0 0-.05.17h-.48c0-.1.03-.2.08-.3.05-.1.13-.2.22-.27.1-.08.21-.14.35-.2a1.73 1.73 0 0 1 .91 0 .85.85 0 0 1 .67.88v1.3a1.85 1.85 0 0 0 .1.57v.04H50Zm-.84-.36a.91.91 0 0 0 .65-.27c.05-.05.09-.1.12-.16v-.57h-.45c-.16 0-.31.02-.43.05a.7.7 0 0 0-.3.13.53.53 0 0 0-.12.14.53.53 0 0 0 0 .39c.02.06.06.1.1.15.05.04.11.08.18.1.07.03.15.04.25.04Zm3.33-3.12v.68h1.06v.37h-1.06V96c0 .11.01.2.04.27a.42.42 0 0 0 .28.26c.06.02.13.03.2.03a1.72 1.72 0 0 0 .32-.03 5.87 5.87 0 0 0 .26-.05l.07.34a.72.72 0 0 1-.14.06 1.67 1.67 0 0 1-.4.08h-.23c-.12 0-.24-.01-.35-.05a.73.73 0 0 1-.28-.17.8.8 0 0 1-.19-.3A1.3 1.3 0 0 1 52 96v-1.52h-.73v-.37H52v-.68h.49Zm3.29 3.54c-.2 0-.38-.04-.55-.1a1.24 1.24 0 0 1-.7-.72c-.06-.16-.1-.34-.1-.54v-.1c0-.24.04-.44.12-.62.07-.18.17-.33.29-.45a1.26 1.26 0 0 1 .88-.38c.2 0 .38.03.53.1.15.07.27.17.37.3.1.12.18.26.23.43.05.17.07.35.07.54v.22h-2v.02c.01.13.04.25.08.36a.91.91 0 0 0 .45.47c.1.05.23.07.35.07a.97.97 0 0 0 .8-.37l.29.22a1.3 1.3 0 0 1-1.12.55Zm-.06-2.52a.71.71 0 0 0-.5.2.92.92 0 0 0-.19.26c-.04.1-.08.21-.1.34h1.51v-.02a.88.88 0 0 0-.05-.28.8.8 0 0 0-.13-.26.66.66 0 0 0-.54-.24Zm5.91 2.46v-2.43h-.77v-.37h.77v-.2c0-.18.03-.34.08-.47a.93.93 0 0 1 .57-.55 1.37 1.37 0 0 1 .66-.06 2.51 2.51 0 0 1 .46.1l-.06.39a1.73 1.73 0 0 0-.55-.1c-.1 0-.2.02-.29.05a.51.51 0 0 0-.34.33.98.98 0 0 0-.04.31v.2h1.08v.37h-1.1v2.43h-.49Zm4.31-2.85a2.18 2.18 0 0 1 .5.06l-.07.47a2.3 2.3 0 0 0-.53-.06c-.11 0-.22.02-.32.05a.73.73 0 0 0-.41.3 1 1 0 0 0-.12.23v1.8h-.48v-2.8h.45l.03.37v.07c.11-.15.25-.27.4-.36.17-.09.35-.13.55-.13Zm1.22 1.43c0-.2.03-.4.09-.57.06-.17.14-.32.25-.45a1.23 1.23 0 0 1 .93-.41 1.23 1.23 0 0 1 .94.4 1.75 1.75 0 0 1 .35 1.03v.05c0 .2-.04.4-.1.56a1.18 1.18 0 0 1-1.18.86c-.2 0-.38-.03-.54-.1a1.15 1.15 0 0 1-.4-.3c-.1-.13-.2-.28-.25-.45a1.74 1.74 0 0 1-.09-.57v-.05Zm.48.05c0 .14.02.27.05.4.03.12.08.23.15.33a.71.71 0 0 0 .6.3.7.7 0 0 0 .6-.3 1.33 1.33 0 0 0 .19-.73v-.05c0-.14-.02-.27-.05-.4a1.04 1.04 0 0 0-.15-.33.75.75 0 0 0-.25-.22.68.68 0 0 0-.35-.09.68.68 0 0 0-.34.09.73.73 0 0 0-.25.22 1 1 0 0 0-.15.33c-.03.13-.05.26-.05.4v.05Zm3.06-1.43.02.26a.6.6 0 0 1 .22-.23c.1-.05.2-.08.34-.08a.7.7 0 0 1 .2.02l.16.07.08.1.07.1a.66.66 0 0 1 .2-.2.68.68 0 0 1 .35-.1c.1 0 .19.02.26.05a.5.5 0 0 1 .2.13c.06.06.1.14.14.24.03.1.04.21.04.35v2.1h-.45v-2.1l-.02-.16a.3.3 0 0 0-.06-.11.26.26 0 0 0-.1-.07.42.42 0 0 0-.15-.02c-.05 0-.1.01-.14.03a.3.3 0 0 0-.1.06.3.3 0 0 0-.07.1.4.4 0 0 0-.03.11v2.15h-.46v-2.1c0-.06 0-.1-.02-.15a.26.26 0 0 0-.06-.12.22.22 0 0 0-.1-.06.5.5 0 0 0-.29 0 .3.3 0 0 0-.16.12.41.41 0 0 0-.04.08v2.23h-.46v-2.8h.43Zm8.14 1.85a.51.51 0 0 0-.08-.3.7.7 0 0 0-.2-.2c-.09-.05-.18-.1-.28-.13l-.29-.1-.4-.15a1.9 1.9 0 0 1-.38-.23 2 2 0 0 1-.28-.3.83.83 0 0 1-.1-.43.9.9 0 0 1 .1-.44 1.25 1.25 0 0 1 .68-.52 1.46 1.46 0 0 1 .92.01c.15.05.29.13.4.23a1.07 1.07 0 0 1 .4.83h-.5a.74.74 0 0 0-.08-.3.68.68 0 0 0-.4-.38.95.95 0 0 0-.58-.02.7.7 0 0 0-.22.12.6.6 0 0 0-.16.2.56.56 0 0 0 .02.54c.06.07.12.13.2.19l.27.12.27.1.42.15c.14.06.27.14.39.24.11.09.2.2.27.32.07.13.1.28.1.44 0 .17-.03.32-.1.45a.99.99 0 0 1-.3.31c-.12.09-.25.15-.4.2a1.69 1.69 0 0 1-.98-.03 1.33 1.33 0 0 1-.73-.61c-.06-.13-.1-.28-.1-.44h.49a.6.6 0 0 0 .1.3c.04.1.1.17.18.24.08.06.16.1.26.14a1.1 1.1 0 0 0 .6.02c.1-.03.18-.07.25-.12a.52.52 0 0 0 .24-.45Zm1.16.95v-3.77h.88a1.98 1.98 0 0 1 .77.16 1.42 1.42 0 0 1 .7.68 2.3 2.3 0 0 1 .2.9v.29a2.19 2.19 0 0 1-.2.88 1.48 1.48 0 0 1-.97.8c-.15.04-.32.06-.5.06H80Zm.49-3.38v3h.39c.13 0 .26-.03.37-.06a1.04 1.04 0 0 0 .7-.67l.09-.3.03-.33v-.29a2.11 2.11 0 0 0-.12-.64 1.18 1.18 0 0 0-.19-.32.9.9 0 0 0-.28-.24 1.39 1.39 0 0 0-.6-.15h-.4Zm7.13 3.05a.77.77 0 0 0 .48-.16c.06-.05.11-.1.15-.17a.44.44 0 0 0 .06-.22h.45a.7.7 0 0 1-.1.36 1 1 0 0 1-.25.3 1.29 1.29 0 0 1-1.34.16c-.16-.07-.3-.18-.4-.3a1.3 1.3 0 0 1-.24-.45 1.76 1.76 0 0 1-.08-.53v-.11c0-.19.03-.37.08-.53.05-.17.13-.32.24-.45a1 1 0 0 1 .4-.3c.16-.09.34-.12.55-.12a1.25 1.25 0 0 1 .82.29 1 1 0 0 1 .32.72h-.45a.63.63 0 0 0-.42-.57.73.73 0 0 0-.27-.05.73.73 0 0 0-.37.1.73.73 0 0 0-.25.22c-.06.1-.1.2-.13.33a1.7 1.7 0 0 0-.04.36v.1c0 .13.01.25.04.37a1 1 0 0 0 .13.32.7.7 0 0 0 .62.33Zm3.84.33a.56.56 0 0 1-.05-.13 1.77 1.77 0 0 1-.02-.17 1.3 1.3 0 0 1-.59.33 1.2 1.2 0 0 1-.66-.04.92.92 0 0 1-.3-.18.76.76 0 0 1-.27-.58c0-.16.03-.3.1-.4a.82.82 0 0 1 .25-.3 1.6 1.6 0 0 1 .94-.23h.52V95a.5.5 0 0 0-.18-.4.62.62 0 0 0-.2-.1.9.9 0 0 0-.54-.01.63.63 0 0 0-.19.1.44.44 0 0 0-.12.14.36.36 0 0 0-.04.17h-.48c0-.1.03-.2.08-.3.05-.1.12-.2.22-.27.1-.08.21-.14.35-.2a1.68 1.68 0 0 1 .91 0 .85.85 0 0 1 .67.88v1.3a1.85 1.85 0 0 0 .1.57v.04h-.5Zm-.85-.36a.91.91 0 0 0 .66-.27c.05-.05.09-.1.11-.16v-.57h-.44c-.17 0-.31.02-.44.05a.7.7 0 0 0-.3.13l-.11.14a.53.53 0 0 0 0 .39c.02.06.05.1.1.15.05.04.1.08.18.1a.6.6 0 0 0 .24.04Zm4.03-2.5a2.18 2.18 0 0 1 .5.07l-.07.47a2.3 2.3 0 0 0-.53-.06c-.11 0-.22.02-.32.05a.73.73 0 0 0-.41.3 1 1 0 0 0-.12.23v1.8h-.48v-2.8h.45l.03.37v.07c.11-.15.25-.27.4-.36.17-.09.35-.13.55-.13Zm1.26 1.44c0-.21.03-.4.08-.58.06-.17.13-.33.23-.45.1-.13.22-.23.35-.3a1 1 0 0 1 .47-.1c.17 0 .31.03.44.08a.9.9 0 0 1 .32.25v-1.46h.48v3.98h-.44l-.02-.3c-.1.12-.2.2-.33.27a1.1 1.1 0 0 1-.46.09.98.98 0 0 1-.8-.41c-.1-.13-.18-.28-.23-.45a1.9 1.9 0 0 1-.09-.57v-.05Zm.48.05c0 .14.02.27.05.4a1 1 0 0 0 .14.32.7.7 0 0 0 .23.22c.1.05.2.08.34.08a.7.7 0 0 0 .4-.11c.1-.07.19-.17.25-.3v-1.3a.8.8 0 0 0-.25-.27.67.67 0 0 0-.4-.12.69.69 0 0 0-.34.09.68.68 0 0 0-.23.22.9.9 0 0 0-.14.33 1.6 1.6 0 0 0-.05.39v.05Zm-76.4 13.6.62 1.89.67-1.9h.6v3.78h-.47v-1.5l.03-1.58-.7 2.03h-.27l-.64-1.97.04 1.52v1.5h-.47v-3.77h.6Zm2.54 2.34a1.43 1.43 0 0 1 .34-1.01 1.23 1.23 0 0 1 .93-.41 1.24 1.24 0 0 1 .94.4c.1.14.19.29.25.46.06.18.09.36.09.56v.06c0 .2-.03.4-.1.56a1.18 1.18 0 0 1-1.18.86c-.2 0-.37-.03-.53-.1a1.15 1.15 0 0 1-.4-.3c-.11-.13-.2-.28-.26-.45a1.74 1.74 0 0 1-.08-.57v-.06Zm.47.06c0 .14.02.27.05.4.04.12.09.23.15.33a.72.72 0 0 0 .6.3.7.7 0 0 0 .6-.3c.07-.1.11-.2.15-.33.03-.13.05-.26.05-.4v-.06c0-.13-.02-.26-.06-.39a1.04 1.04 0 0 0-.14-.33.76.76 0 0 0-.25-.22.68.68 0 0 0-.35-.09.68.68 0 0 0-.35.09.74.74 0 0 0-.25.22 1 1 0 0 0-.15.33c-.03.13-.05.26-.05.4v.05Zm4.7 1.37-.03-.38c-.1.14-.21.24-.35.32a1.12 1.12 0 0 1-.88.05.77.77 0 0 1-.31-.22 1 1 0 0 1-.2-.37 1.9 1.9 0 0 1-.07-.53v-1.67h.48v1.67c0 .15.02.28.04.38.02.1.06.18.1.24.06.06.12.1.19.13a1.06 1.06 0 0 0 .53 0 .75.75 0 0 0 .22-.11.8.8 0 0 0 .23-.3v-2.01h.48v2.8h-.43Zm1.34 0v-2.8h.43l.03.41a1.25 1.25 0 0 1 .3-.29 1.1 1.1 0 0 1 .58-.18c.14 0 .28.03.4.07.12.04.22.1.3.2.09.08.15.2.2.33.04.13.07.3.07.48v1.78h-.48v-1.77c0-.12-.02-.23-.04-.31a.5.5 0 0 0-.13-.21.48.48 0 0 0-.2-.12.92.92 0 0 0-.51 0 .81.81 0 0 0-.21.1.96.96 0 0 0-.26.3v2.01h-.48Zm4.32-3.48v.68h1.07v.37h-1.07V112c0 .11.02.2.04.27a.41.41 0 0 0 .28.26l.2.03a1.8 1.8 0 0 0 .33-.03l.15-.03.1-.02.08.33a.67.67 0 0 1-.15.07 1.69 1.69 0 0 1-.4.08h-.22a.99.99 0 0 1-.35-.05.72.72 0 0 1-.28-.17.8.8 0 0 1-.2-.3 1.3 1.3 0 0 1-.06-.44v-1.52h-.74v-.37h.74v-.68h.48Zm5.88 3.8h-.43l1.57-4.1h.43l-1.57 4.1Zm4.42-1.06c0-.06-.01-.1-.04-.15a.34.34 0 0 0-.11-.13.87.87 0 0 0-.21-.1l-.33-.1c-.16-.02-.3-.06-.44-.11a1.4 1.4 0 0 1-.34-.17.6.6 0 0 1-.3-.53c0-.11.03-.22.08-.32a.8.8 0 0 1 .23-.26c.1-.08.21-.13.34-.18a1.65 1.65 0 0 1 .91 0c.14.05.26.11.36.2a.82.82 0 0 1 .3.61h-.48a.36.36 0 0 0-.05-.17.5.5 0 0 0-.13-.16.67.67 0 0 0-.2-.1.95.95 0 0 0-.53 0 .57.57 0 0 0-.2.08.38.38 0 0 0-.1.13.34.34 0 0 0 0 .3.3.3 0 0 0 .1.12l.2.1.32.07c.17.04.33.08.46.13.14.04.26.1.35.17.1.06.16.14.21.23a.68.68 0 0 1-.01.65.79.79 0 0 1-.23.26c-.1.07-.22.13-.36.17a1.7 1.7 0 0 1-.96-.02 1.22 1.22 0 0 1-.38-.2.87.87 0 0 1-.24-.3.78.78 0 0 1-.08-.34h.48a.5.5 0 0 0 .25.41.7.7 0 0 0 .22.1 1.23 1.23 0 0 0 .58-.03c.1-.03.17-.07.23-.12a.35.35 0 0 0 .07-.11.32.32 0 0 0 .03-.13Zm1.55 1.88a2.52 2.52 0 0 1-.3-.04l.08-.4.13.01h.1a.3.3 0 0 0 .18-.05.7.7 0 0 0 .15-.13l.1-.15.07-.14.2-.37-1.21-2.67h.53l.77 1.8.13.35.13-.33.72-1.82h.54l-1.42 3.24-.13.23a1 1 0 0 1-.44.4c-.1.04-.2.07-.33.07Zm4.83-1.88c0-.06-.02-.1-.04-.15a.34.34 0 0 0-.11-.13.87.87 0 0 0-.21-.1l-.33-.1a1.89 1.89 0 0 1-.44-.11 1.4 1.4 0 0 1-.34-.17.6.6 0 0 1-.3-.53.72.72 0 0 1 .31-.58c.1-.08.2-.13.34-.18a1.68 1.68 0 0 1 .91 0c.14.05.26.11.35.2a.82.82 0 0 1 .3.61H50a.36.36 0 0 0-.05-.17.5.5 0 0 0-.13-.16.67.67 0 0 0-.2-.1.95.95 0 0 0-.53 0 .57.57 0 0 0-.2.08.38.38 0 0 0-.11.13.34.34 0 0 0 0 .3.3.3 0 0 0 .1.12l.2.1.33.07c.17.04.33.08.46.13.14.04.25.1.35.17.1.06.16.14.21.23a.68.68 0 0 1-.01.65.79.79 0 0 1-.23.26c-.1.07-.22.13-.36.17a1.7 1.7 0 0 1-.97-.02 1.22 1.22 0 0 1-.38-.2.87.87 0 0 1-.24-.3.78.78 0 0 1-.08-.34h.48a.5.5 0 0 0 .26.41.7.7 0 0 0 .22.1 1.23 1.23 0 0 0 .58-.03.5.5 0 0 0 .22-.12.35.35 0 0 0 .08-.11.32.32 0 0 0 .03-.13Zm2.46-2.74v.68h1.06v.37h-1.06V112c0 .11.01.2.04.27a.41.41 0 0 0 .28.26c.06.02.13.03.2.03a1.8 1.8 0 0 0 .32-.03l.15-.03.11-.02.07.33a.67.67 0 0 1-.14.07 1.69 1.69 0 0 1-.4.08h-.23c-.12 0-.24-.01-.35-.05a.72.72 0 0 1-.28-.17.8.8 0 0 1-.19-.3A1.3 1.3 0 0 1 52 112v-1.52h-.73v-.37H52v-.68h.49Zm3.29 3.54c-.2 0-.38-.04-.55-.1a1.25 1.25 0 0 1-.7-.72c-.06-.16-.1-.34-.1-.54v-.1c0-.24.04-.44.12-.62.07-.18.17-.33.29-.45a1.26 1.26 0 0 1 .88-.38c.2 0 .38.03.53.1.15.07.27.17.37.3.1.12.18.26.23.43.05.17.07.35.07.54v.22h-2v.02c.01.13.04.25.08.36a.92.92 0 0 0 .45.47c.1.05.23.07.35.07a.98.98 0 0 0 .8-.37l.29.22a1.3 1.3 0 0 1-1.12.55Zm-.06-2.52a.7.7 0 0 0-.51.2.92.92 0 0 0-.18.26c-.04.1-.08.22-.1.34h1.51v-.02a.87.87 0 0 0-.05-.28.8.8 0 0 0-.13-.26.66.66 0 0 0-.54-.24Zm2.23-.34.01.26a.7.7 0 0 1 .22-.23c.1-.05.21-.08.34-.08a.68.68 0 0 1 .36.1l.09.08a.5.5 0 0 1 .07.12.67.67 0 0 1 .19-.2.72.72 0 0 1 .62-.06c.08.03.14.07.2.13.05.06.1.14.13.24.03.1.05.21.05.35v2.1h-.46v-2.1c0-.06 0-.12-.02-.16a.3.3 0 0 0-.06-.11.25.25 0 0 0-.1-.06.42.42 0 0 0-.14-.03c-.06 0-.1.01-.15.03a.31.31 0 0 0-.1.06.3.3 0 0 0-.07.1.4.4 0 0 0-.03.11v2.15h-.46v-2.1c0-.06 0-.1-.02-.15a.26.26 0 0 0-.06-.12.22.22 0 0 0-.1-.06.49.49 0 0 0-.29 0 .3.3 0 0 0-.2.2v2.23h-.45v-2.8h.43Zm-37.56 10.8-1.2-3.77h.52l.83 2.82.05.18.06-.19.83-2.81h.51l-1.19 3.77h-.41Zm2.34-2.8h1.43v2.39h.91v.41h-2.34v-.41h.95v-1.97h-.95v-.42Zm.89-.74c0-.04 0-.08.02-.11a.24.24 0 0 1 .14-.15.36.36 0 0 1 .24 0 .23.23 0 0 1 .15.14c.02.04.02.08.02.12 0 .08-.02.14-.07.2-.05.05-.12.08-.22.08s-.16-.03-.21-.08a.28.28 0 0 1-.07-.2Zm3.46 3.6c-.2 0-.38-.04-.55-.1a1.24 1.24 0 0 1-.7-.72c-.06-.16-.1-.34-.1-.54v-.1c0-.24.04-.44.12-.62.07-.18.17-.33.29-.45a1.26 1.26 0 0 1 .88-.38c.2 0 .37.03.52.1.16.07.28.17.38.3.1.12.18.26.23.43.05.17.07.35.07.54v.22h-2v.02c.01.13.04.25.08.36a.92.92 0 0 0 .45.47c.1.05.22.07.35.07a.98.98 0 0 0 .8-.37l.29.22a1.3 1.3 0 0 1-1.12.55Zm-.06-2.52a.7.7 0 0 0-.51.2.92.92 0 0 0-.18.26c-.05.1-.08.22-.1.34h1.51v-.02a.87.87 0 0 0-.05-.28.8.8 0 0 0-.13-.26.66.66 0 0 0-.54-.24Zm2.28 2.46-.6-2.8h.43l.32 1.79.06.4.07-.4.45-1.8h.3l.45 1.8.08.44.07-.44.3-1.8h.43l-.6 2.81h-.37l-.44-1.72-.07-.43-.07.43-.43 1.72h-.38Zm7.94-2.85a2.2 2.2 0 0 1 .5.06l-.07.47a2.59 2.59 0 0 0-.53-.06c-.11 0-.22.02-.32.05a.74.74 0 0 0-.41.3 1 1 0 0 0-.12.23v1.8h-.48v-2.8h.45l.02.38v.07c.12-.16.26-.28.42-.37.16-.09.34-.13.54-.13Zm2.6 2.9c-.2 0-.38-.03-.55-.1a1.24 1.24 0 0 1-.7-.7c-.06-.17-.1-.35-.1-.55v-.1c0-.24.04-.44.11-.62.08-.18.17-.33.3-.45a1.26 1.26 0 0 1 .87-.38c.2 0 .38.03.53.1a1.17 1.17 0 0 1 .6.73c.05.17.08.35.08.54v.22h-2v.02a.92.92 0 0 0 .53.83c.1.05.22.07.35.07a.98.98 0 0 0 .79-.37l.3.22a1.33 1.33 0 0 1-1.1.54Zm-.07-2.5a.7.7 0 0 0-.5.2.92.92 0 0 0-.18.25c-.05.1-.08.22-.1.34h1.5v-.02a.88.88 0 0 0-.04-.28.8.8 0 0 0-.14-.26.66.66 0 0 0-.54-.24Zm3.2 2.12a.77.77 0 0 0 .48-.16c.06-.05.12-.1.15-.17a.44.44 0 0 0 .07-.22h.45a.7.7 0 0 1-.1.36 1 1 0 0 1-.25.3 1.28 1.28 0 0 1-1.35.16 1.2 1.2 0 0 1-.4-.3 1.3 1.3 0 0 1-.24-.45 1.77 1.77 0 0 1-.08-.53v-.11a1.61 1.61 0 0 1 .32-.98c.11-.13.24-.23.4-.3.16-.09.35-.12.56-.12a1.27 1.27 0 0 1 .82.29.99.99 0 0 1 .32.72h-.45a.63.63 0 0 0-.42-.57.72.72 0 0 0-.27-.05.72.72 0 0 0-.38.1.72.72 0 0 0-.24.22c-.06.1-.1.2-.14.33a1.7 1.7 0 0 0-.03.36v.1c0 .13 0 .25.03.37s.08.23.14.32c.06.1.14.18.24.24.1.06.23.09.38.09Zm1.87-1.1c0-.2.03-.38.09-.56.05-.17.14-.32.25-.45a1.23 1.23 0 0 1 .93-.41 1.24 1.24 0 0 1 .94.4 1.58 1.58 0 0 1 .34 1.02v.06c0 .2-.03.4-.09.56a1.18 1.18 0 0 1-1.18.86c-.2 0-.38-.03-.54-.1a1.15 1.15 0 0 1-.4-.3c-.11-.13-.2-.28-.25-.45a1.74 1.74 0 0 1-.1-.57v-.06Zm.48.06c0 .14.01.27.05.4a1 1 0 0 0 .15.33c.06.1.15.17.25.22.1.06.21.09.35.09a.7.7 0 0 0 .6-.31 1.42 1.42 0 0 0 .19-.73v-.06c0-.13-.02-.26-.05-.39a1.04 1.04 0 0 0-.15-.33.76.76 0 0 0-.25-.22.68.68 0 0 0-.35-.09.68.68 0 0 0-.35.09.74.74 0 0 0-.24.22 1 1 0 0 0-.15.33c-.04.13-.05.26-.05.4v.05Zm3.8 1.37-1.16-2.8h.5l.8 2.11.04.18.05-.18.79-2.11h.49l-1.15 2.8h-.36Zm3.47.06c-.2 0-.38-.04-.54-.1a1.24 1.24 0 0 1-.7-.72c-.07-.16-.1-.34-.1-.54v-.1c0-.24.04-.44.1-.62.08-.18.18-.33.3-.45a1.26 1.26 0 0 1 .88-.38c.2 0 .38.03.53.1a1.17 1.17 0 0 1 .6.73c.05.17.07.35.07.54v.22h-2v.02c.01.13.04.25.08.36a.92.92 0 0 0 .45.47c.1.05.23.07.36.07a.98.98 0 0 0 .78-.37l.3.22a1.3 1.3 0 0 1-1.11.55Zm-.06-2.52a.7.7 0 0 0-.51.2.92.92 0 0 0-.18.26c-.04.1-.08.22-.1.34h1.51v-.02a.88.88 0 0 0-.05-.28.8.8 0 0 0-.13-.26.66.66 0 0 0-.54-.24Zm3.85-.4a2.2 2.2 0 0 1 .49.07l-.06.47a2.59 2.59 0 0 0-.53-.06c-.12 0-.23.02-.32.05a.74.74 0 0 0-.42.3 1 1 0 0 0-.12.23v1.8h-.48v-2.8h.46l.02.38v.07c.12-.16.25-.28.41-.37.16-.09.34-.13.55-.13Zm1.57 4a2.55 2.55 0 0 1-.3-.04l.09-.4.12.01h.1a.3.3 0 0 0 .18-.05.7.7 0 0 0 .15-.13c.04-.05.08-.1.1-.15l.08-.14.2-.37-1.22-2.67h.54l.77 1.8.12.35.14-.33.72-1.82h.54l-1.43 3.24-.12.23c-.05.08-.12.15-.19.22a1 1 0 0 1-.25.18.9.9 0 0 1-.34.07Zm6.23-5.12h1.44v3.57h.91v.41h-2.35v-.41h.96v-3.15h-.96v-.42Zm2.98 2.55c0-.2.03-.38.09-.56.06-.17.14-.32.25-.45a1.23 1.23 0 0 1 .93-.41 1.24 1.24 0 0 1 .94.4 1.74 1.74 0 0 1 .35 1.02v.06c0 .2-.04.4-.1.56a1.18 1.18 0 0 1-1.18.86c-.2 0-.38-.03-.54-.1a1.15 1.15 0 0 1-.4-.3c-.1-.13-.2-.28-.25-.45a1.74 1.74 0 0 1-.09-.57v-.06Zm.48.06c0 .14.02.27.05.4.03.12.08.23.15.33a.72.72 0 0 0 .6.3.7.7 0 0 0 .6-.3 1.33 1.33 0 0 0 .19-.73v-.06c0-.13-.02-.26-.05-.39a1.04 1.04 0 0 0-.15-.33.76.76 0 0 0-.25-.22.68.68 0 0 0-.35-.09.68.68 0 0 0-.34.09.74.74 0 0 0-.25.22 1 1 0 0 0-.15.33c-.03.13-.05.26-.05.4v.05Zm2.76-.05c0-.21.02-.4.07-.58.05-.17.13-.33.22-.45a1.01 1.01 0 0 1 .82-.4c.12 0 .22.01.31.04a.9.9 0 0 1 .48.32l.03-.31h.43v2.74c0 .19-.03.35-.09.5a1.03 1.03 0 0 1-.61.6 1.45 1.45 0 0 1-1.3-.19.94.94 0 0 1-.22-.23l.24-.28a1.2 1.2 0 0 0 .38.3l.19.06a.93.93 0 0 0 .5-.03.51.51 0 0 0 .23-.15.62.62 0 0 0 .15-.23c.04-.1.05-.2.05-.32v-.24a1.04 1.04 0 0 1-.24.2 1.17 1.17 0 0 1-.53.13.99.99 0 0 1-.81-.41 1.6 1.6 0 0 1-.23-.45 1.97 1.97 0 0 1-.07-.57v-.05Zm.48.05a1.33 1.33 0 0 0 .17.71c.06.1.14.17.24.23a.8.8 0 0 0 .57.05.7.7 0 0 0 .17-.09c.06-.03.1-.08.14-.13a.9.9 0 0 0 .11-.16v-1.29a.75.75 0 0 0-.25-.29.71.71 0 0 0-.4-.11.68.68 0 0 0-.34.09.68.68 0 0 0-.24.22c-.06.1-.1.2-.13.33-.03.12-.04.25-.04.39v.05Zm4.66.63c0-.06-.01-.1-.04-.15a.34.34 0 0 0-.11-.13.87.87 0 0 0-.21-.1l-.33-.1a1.89 1.89 0 0 1-.44-.11 1.4 1.4 0 0 1-.34-.17.6.6 0 0 1-.3-.53.72.72 0 0 1 .31-.58c.1-.08.2-.13.34-.18a1.65 1.65 0 0 1 .91 0c.14.05.26.11.35.2a.82.82 0 0 1 .3.61h-.47a.36.36 0 0 0-.05-.17.5.5 0 0 0-.13-.16.67.67 0 0 0-.2-.1.95.95 0 0 0-.53 0 .58.58 0 0 0-.2.08.38.38 0 0 0-.11.13.34.34 0 0 0 0 .3.3.3 0 0 0 .1.12l.2.1.33.07c.17.04.33.08.46.13.14.04.26.1.35.17.1.06.16.14.21.23a.68.68 0 0 1-.01.65.79.79 0 0 1-.23.26c-.1.07-.22.13-.36.17-.14.04-.3.06-.46.06a1.6 1.6 0 0 1-.51-.08 1.22 1.22 0 0 1-.38-.2.87.87 0 0 1-.23-.3.78.78 0 0 1-.08-.34h.48c0 .1.03.18.07.25.05.07.1.12.18.16a.7.7 0 0 0 .22.1 1.23 1.23 0 0 0 .58-.03c.1-.03.17-.07.23-.12a.35.35 0 0 0 .07-.11.32.32 0 0 0 .03-.13Zm-54.83 7.2h-.75v1.54h-.48v-3.77h1.1c.18 0 .35.03.5.07.16.05.3.12.41.21.12.1.21.22.28.36a1.13 1.13 0 0 1-.1 1.1 1 1 0 0 1-.23.23c-.08.06-.18.11-.28.16l.8 1.61v.03h-.5l-.75-1.54Zm-.75-.39h.64c.1 0 .2-.02.3-.05.1-.03.18-.08.25-.14a.65.65 0 0 0 .23-.52.78.78 0 0 0-.05-.32.64.64 0 0 0-.42-.37 1.1 1.1 0 0 0-.32-.05h-.63v1.45Zm4.54 1.93-.03-.38c-.1.14-.21.24-.35.32a1.12 1.12 0 0 1-.88.05.77.77 0 0 1-.31-.22 1 1 0 0 1-.2-.37 1.9 1.9 0 0 1-.06-.53v-1.67h.48v1.67c0 .15 0 .28.03.38.03.1.06.18.11.24s.1.1.18.13a1.06 1.06 0 0 0 .53 0 .75.75 0 0 0 .22-.11.8.8 0 0 0 .23-.3v-2.01h.48v2.8h-.43Zm1.34 0v-2.8h.43l.03.41a1.25 1.25 0 0 1 .3-.29c.08-.05.17-.1.27-.12a1.2 1.2 0 0 1 .7.01c.13.04.23.1.31.2.09.08.15.2.2.33.05.13.07.3.07.48v1.78h-.48v-1.77a.93.93 0 0 0-.04-.31.5.5 0 0 0-.12-.21.49.49 0 0 0-.2-.12.92.92 0 0 0-.52 0 .81.81 0 0 0-.21.1.95.95 0 0 0-.26.3v2.01h-.48Zm6.29-1.42c0-.21.02-.4.07-.58.06-.17.13-.33.23-.45a1 1 0 0 1 .35-.3c.14-.07.3-.1.47-.1.11 0 .21.01.3.04a.9.9 0 0 1 .49.32l.02-.31h.44v2.74c0 .19-.03.35-.1.5a1.03 1.03 0 0 1-.6.6 1.45 1.45 0 0 1-1.3-.19.94.94 0 0 1-.23-.23l.25-.28a1.2 1.2 0 0 0 .37.3l.19.06a.93.93 0 0 0 .5-.03c.1-.03.17-.08.24-.15a.62.62 0 0 0 .14-.23c.04-.1.06-.2.06-.32v-.24a1.03 1.03 0 0 1-.25.2 1.17 1.17 0 0 1-.53.13.99.99 0 0 1-.81-.41c-.1-.13-.17-.28-.22-.46a1.97 1.97 0 0 1-.08-.56v-.05Zm.48.05c0 .14.01.27.04.4a1 1 0 0 0 .14.31c.06.1.14.17.23.23a.8.8 0 0 0 .57.05.7.7 0 0 0 .18-.09c.05-.03.1-.07.14-.13a.9.9 0 0 0 .1-.16v-1.29a.75.75 0 0 0-.25-.29.71.71 0 0 0-.4-.11.68.68 0 0 0-.34.09.68.68 0 0 0-.23.22c-.06.1-.11.2-.14.33-.03.12-.04.25-.04.39v.05Zm4.63-1.48a2.2 2.2 0 0 1 .5.06l-.07.47a2.59 2.59 0 0 0-.53-.06c-.11 0-.22.02-.32.05a.74.74 0 0 0-.41.3 1 1 0 0 0-.12.23v1.8h-.48v-2.8h.45l.02.38v.07c.12-.16.26-.28.42-.37.16-.09.34-.13.54-.13Zm3.2 2.85a.55.55 0 0 1-.05-.13 1.78 1.78 0 0 1-.02-.17 1.3 1.3 0 0 1-.59.33 1.2 1.2 0 0 1-.66-.04.92.92 0 0 1-.3-.18.76.76 0 0 1-.27-.58c0-.16.03-.3.09-.4a.83.83 0 0 1 .26-.3c.11-.08.25-.13.4-.17.16-.04.34-.06.54-.06h.52V127a.53.53 0 0 0-.05-.22.5.5 0 0 0-.13-.18.61.61 0 0 0-.2-.1.9.9 0 0 0-.28-.05c-.1 0-.18.02-.26.04a.66.66 0 0 0-.19.1.44.44 0 0 0-.12.14.36.36 0 0 0-.04.17h-.48c0-.1.02-.2.07-.3.05-.1.13-.2.23-.27.1-.08.2-.14.34-.2a1.73 1.73 0 0 1 .92 0 .85.85 0 0 1 .67.88v1.3a1.84 1.84 0 0 0 .1.57v.04h-.5Zm-.85-.36a.92.92 0 0 0 .66-.27.7.7 0 0 0 .11-.16v-.57h-.45c-.16 0-.3.02-.43.05a.7.7 0 0 0-.3.13.36.36 0 0 0-.11.14.53.53 0 0 0 0 .39c.02.06.05.1.1.15.04.04.1.08.17.1.07.03.16.04.25.04Zm2.2 1.44v-3.88h.43l.02.3a.86.86 0 0 1 .27-.23.89.89 0 0 1 .24-.09 1.2 1.2 0 0 1 .77.07 1 1 0 0 1 .35.3c.09.13.16.28.2.45.06.18.08.37.08.58v.05a2 2 0 0 1-.07.56 1.4 1.4 0 0 1-.21.46 1 1 0 0 1-.82.41c-.1 0-.2-.02-.3-.04a.96.96 0 0 1-.49-.29V130h-.48Zm1.88-2.5c0-.14-.01-.27-.05-.4a1.02 1.02 0 0 0-.13-.32.68.68 0 0 0-.59-.3c-.08 0-.15 0-.2.02a.58.58 0 0 0-.18.08.61.61 0 0 0-.15.12.88.88 0 0 0-.1.16v1.35c.02.05.05.1.1.14a.6.6 0 0 0 .12.12.74.74 0 0 0 .41.11.65.65 0 0 0 .59-.31c.06-.1.1-.2.13-.33.04-.12.05-.25.05-.39v-.05Zm1.78-.96a1.04 1.04 0 0 1 .28-.29c.08-.06.17-.1.27-.13a1.14 1.14 0 0 1 .72.01c.12.04.22.1.3.2.1.09.16.2.2.34.05.14.07.3.07.49v1.76h-.48v-1.77c0-.1-.01-.2-.04-.29a.54.54 0 0 0-.11-.2.48.48 0 0 0-.2-.14.74.74 0 0 0-.28-.05.83.83 0 0 0-.73.42v2.03h-.48v-3.98h.48v1.6Zm2.79-.42h1.43v2.39h.92v.41h-2.35v-.41h.95v-1.97h-.95v-.42Zm.89-.74c0-.04 0-.08.02-.11a.24.24 0 0 1 .14-.15.36.36 0 0 1 .25 0l.08.05a.2.2 0 0 1 .06.1c.02.03.02.07.02.11 0 .08-.02.14-.07.2a.29.29 0 0 1-.21.08.3.3 0 0 1-.22-.08.28.28 0 0 1-.07-.2Zm3.42 3.2a.77.77 0 0 0 .47-.15c.06-.05.11-.1.15-.17a.44.44 0 0 0 .06-.22h.46c0 .12-.04.24-.1.36a1 1 0 0 1-.25.3 1.28 1.28 0 0 1-1.35.16c-.16-.07-.3-.18-.4-.3a1.3 1.3 0 0 1-.24-.45 1.77 1.77 0 0 1-.08-.53v-.11c0-.19.03-.36.08-.53.05-.17.13-.32.24-.45a1 1 0 0 1 .4-.3c.16-.09.34-.12.56-.12a1.27 1.27 0 0 1 .81.29.99.99 0 0 1 .33.72h-.46a.63.63 0 0 0-.42-.57.72.72 0 0 0-.26-.05.72.72 0 0 0-.38.1.72.72 0 0 0-.24.22.9.9 0 0 0-.14.33 1.7 1.7 0 0 0-.04.36v.1c0 .13.02.25.04.37.03.12.07.23.14.32.06.1.14.18.24.24.1.06.23.09.38.09Zm3.85-.4c0-.06 0-.1-.03-.15a.34.34 0 0 0-.11-.13.86.86 0 0 0-.22-.1c-.09-.04-.2-.07-.33-.1-.16-.02-.3-.06-.44-.11a1.4 1.4 0 0 1-.33-.17.6.6 0 0 1-.3-.53.6.6 0 0 1 .08-.32c.05-.1.13-.19.22-.26.1-.08.22-.13.35-.18a1.73 1.73 0 0 1 .91 0 1 1 0 0 1 .35.2.82.82 0 0 1 .3.61h-.48a.36.36 0 0 0-.04-.17.5.5 0 0 0-.13-.16.67.67 0 0 0-.2-.1.95.95 0 0 0-.53 0 .58.58 0 0 0-.2.08.38.38 0 0 0-.11.13.33.33 0 0 0-.04.15c0 .06 0 .1.03.15a.3.3 0 0 0 .1.12l.21.1.33.07c.17.04.32.08.46.13.14.04.25.1.35.17.09.06.16.14.2.23a.68.68 0 0 1-.01.65.79.79 0 0 1-.23.26c-.1.07-.22.13-.36.17-.14.04-.29.06-.45.06a1.6 1.6 0 0 1-.51-.08 1.22 1.22 0 0 1-.38-.2.87.87 0 0 1-.24-.3.78.78 0 0 1-.08-.34h.48c0 .1.03.18.08.25s.1.12.17.16a.7.7 0 0 0 .23.1 1.23 1.23 0 0 0 .58-.03.5.5 0 0 0 .22-.12.35.35 0 0 0 .08-.11.32.32 0 0 0 .02-.13Zm5.65-2.74v.68h1.07v.37h-1.07V128c0 .11.02.2.04.27a.41.41 0 0 0 .28.26l.2.03a1.8 1.8 0 0 0 .33-.03l.15-.03.11-.02.07.34a.67.67 0 0 1-.15.06 1.69 1.69 0 0 1-.4.08h-.22a.99.99 0 0 1-.35-.05.72.72 0 0 1-.28-.17.8.8 0 0 1-.2-.3 1.3 1.3 0 0 1-.06-.44v-1.52h-.74v-.37h.74v-.68h.48Zm3.3 3.54c-.2 0-.38-.04-.55-.1a1.25 1.25 0 0 1-.7-.72c-.06-.16-.1-.34-.1-.54v-.1c0-.24.04-.44.11-.62.08-.18.17-.33.3-.45a1.26 1.26 0 0 1 .87-.38c.2 0 .38.03.53.1.15.07.28.17.38.3.1.12.18.26.22.43.05.17.08.35.08.54v.22h-2v.02c0 .13.03.25.08.36a.92.92 0 0 0 .45.47c.1.05.22.07.35.07a.98.98 0 0 0 .79-.37l.3.22a1.33 1.33 0 0 1-1.1.54Zm-.07-2.52a.7.7 0 0 0-.5.2.92.92 0 0 0-.18.26c-.05.1-.08.22-.1.34H66v-.02a.88.88 0 0 0-.04-.28.8.8 0 0 0-.14-.26.66.66 0 0 0-.54-.24Zm3.88 1.72c0-.06-.01-.1-.03-.15a.34.34 0 0 0-.12-.13.87.87 0 0 0-.21-.1c-.09-.04-.2-.07-.33-.1-.16-.02-.3-.06-.44-.11a1.4 1.4 0 0 1-.34-.17.6.6 0 0 1-.3-.53c0-.11.03-.22.08-.32a.8.8 0 0 1 .23-.26c.1-.08.21-.13.34-.18.14-.04.29-.06.45-.06.17 0 .33.02.46.06.14.05.26.11.36.2a.82.82 0 0 1 .3.61h-.48a.36.36 0 0 0-.05-.17.5.5 0 0 0-.13-.16.67.67 0 0 0-.2-.1.95.95 0 0 0-.53 0 .57.57 0 0 0-.2.08.38.38 0 0 0-.1.13.34.34 0 0 0 0 .3.3.3 0 0 0 .1.12l.2.1.32.07c.18.04.33.08.47.13.13.04.25.1.34.17.1.06.17.14.21.23a.68.68 0 0 1-.01.65.79.79 0 0 1-.23.26c-.1.07-.22.13-.36.17a1.7 1.7 0 0 1-.96-.02 1.22 1.22 0 0 1-.38-.2.87.87 0 0 1-.24-.3.78.78 0 0 1-.08-.34h.48a.5.5 0 0 0 .25.41.7.7 0 0 0 .22.1 1.23 1.23 0 0 0 .59-.03.66.66 0 0 0 .22-.12.35.35 0 0 0 .07-.11.32.32 0 0 0 .03-.13Zm2.46-2.74v.68h1.07v.37H71.6V128c0 .11.01.2.04.27a.41.41 0 0 0 .28.26.7.7 0 0 0 .2.03 1.8 1.8 0 0 0 .33-.03l.14-.03.12-.02.06.34a.67.67 0 0 1-.14.06 1.69 1.69 0 0 1-.4.08H72c-.12 0-.24-.01-.35-.05a.72.72 0 0 1-.28-.17.8.8 0 0 1-.19-.3 1.3 1.3 0 0 1-.06-.44v-1.52h-.74v-.37h.74v-.68h.48Zm-50.9 9.94h-.76v1.54h-.48v-3.77h1.1c.18 0 .35.03.5.07.16.05.3.12.41.21.12.1.21.22.28.36a1.13 1.13 0 0 1-.1 1.1 1 1 0 0 1-.23.23c-.08.06-.18.11-.28.16l.8 1.61v.03h-.5l-.75-1.54Zm-.76-.39h.64c.1 0 .2-.02.3-.05.1-.03.18-.08.25-.14a.65.65 0 0 0 .23-.52.78.78 0 0 0-.05-.32.64.64 0 0 0-.42-.37 1.1 1.1 0 0 0-.32-.05h-.63v1.45Zm4.54 1.93-.03-.38c-.1.14-.21.24-.35.32a1.12 1.12 0 0 1-.88.05.77.77 0 0 1-.31-.22 1 1 0 0 1-.2-.37 1.9 1.9 0 0 1-.06-.53v-1.67h.48v1.67c0 .15 0 .28.03.38.03.1.06.18.11.24s.1.1.18.13a1.06 1.06 0 0 0 .53 0 .75.75 0 0 0 .22-.11.8.8 0 0 0 .23-.3v-2.01h.48v2.8h-.43Zm1.34 0v-2.8h.43l.03.41a1.25 1.25 0 0 1 .3-.29c.08-.05.17-.1.27-.12a1.2 1.2 0 0 1 .7.01c.13.04.23.1.31.2.09.08.15.2.2.33.05.13.07.3.07.48v1.78h-.48v-1.77a.93.93 0 0 0-.04-.31.5.5 0 0 0-.12-.21.49.49 0 0 0-.2-.12.92.92 0 0 0-.52 0 .81.81 0 0 0-.21.1.95.95 0 0 0-.26.3v2.01h-.48Zm6.45-3.98h1.44v3.57h.91v.41h-2.35v-.41h.96v-3.15h-.96v-.42Zm2.98 2.56c0-.2.03-.4.09-.57.06-.17.14-.32.25-.45a1.23 1.23 0 0 1 .93-.41 1.24 1.24 0 0 1 .94.4 1.75 1.75 0 0 1 .35 1.03v.05c0 .2-.04.4-.1.56a1.18 1.18 0 0 1-1.18.86c-.2 0-.38-.03-.54-.1a1.15 1.15 0 0 1-.4-.3c-.1-.13-.2-.28-.25-.46a1.74 1.74 0 0 1-.09-.56v-.05Zm.48.05c0 .14.02.27.05.4a1 1 0 0 0 .15.33.72.72 0 0 0 .6.3.7.7 0 0 0 .6-.3 1.33 1.33 0 0 0 .19-.73v-.05c0-.14-.01-.27-.05-.4a1.04 1.04 0 0 0-.15-.33.76.76 0 0 0-.25-.22.68.68 0 0 0-.35-.09.68.68 0 0 0-.34.09.74.74 0 0 0-.25.22 1 1 0 0 0-.15.33c-.03.13-.05.26-.05.4v.05Zm4.04 1.04a.77.77 0 0 0 .47-.16.6.6 0 0 0 .15-.17.44.44 0 0 0 .07-.22h.45a.7.7 0 0 1-.1.36 1 1 0 0 1-.25.3 1.28 1.28 0 0 1-1.35.16 1.2 1.2 0 0 1-.4-.3 1.3 1.3 0 0 1-.24-.45 1.77 1.77 0 0 1-.08-.53v-.11c0-.19.03-.37.08-.53.06-.17.14-.32.25-.45.1-.13.23-.23.4-.3.15-.09.34-.12.55-.12a1.26 1.26 0 0 1 .82.29.98.98 0 0 1 .32.72h-.45a.63.63 0 0 0-.42-.57.72.72 0 0 0-.27-.05.72.72 0 0 0-.38.1.72.72 0 0 0-.24.22c-.06.1-.1.2-.13.33a1.7 1.7 0 0 0-.04.36v.1c0 .13.01.25.04.37.02.12.07.23.13.32.06.1.14.18.24.24.1.06.23.09.38.09Zm3.84.33a.55.55 0 0 1-.05-.13 1.74 1.74 0 0 1-.02-.17 1.3 1.3 0 0 1-.6.33 1.2 1.2 0 0 1-.66-.04.92.92 0 0 1-.3-.18.76.76 0 0 1-.26-.58c0-.16.03-.3.09-.4a.83.83 0 0 1 .26-.3c.11-.07.25-.13.4-.17.16-.04.34-.06.54-.06h.52V135a.54.54 0 0 0-.05-.23.5.5 0 0 0-.13-.17.62.62 0 0 0-.21-.1.9.9 0 0 0-.27-.05c-.1 0-.19.02-.26.04a.67.67 0 0 0-.19.1.44.44 0 0 0-.12.14.36.36 0 0 0-.04.17h-.49c0-.1.03-.2.08-.3.05-.1.13-.2.22-.27.1-.08.22-.14.35-.2a1.73 1.73 0 0 1 .91 0 1 1 0 0 1 .36.17.85.85 0 0 1 .32.7v1.31a1.84 1.84 0 0 0 .1.57v.04h-.5Zm-.85-.36a.92.92 0 0 0 .66-.27.7.7 0 0 0 .1-.16v-.57h-.44c-.16 0-.3.02-.43.05a.7.7 0 0 0-.3.13.36.36 0 0 0-.11.14.54.54 0 0 0 0 .39c.01.06.05.1.1.15.04.04.1.08.17.1.07.03.16.04.25.04Zm2.27-3.62h1.43v3.57h.92v.41h-2.35v-.41H46v-3.15h-.95v-.42Zm4.35 4.04c-.2 0-.38-.04-.54-.1a1.24 1.24 0 0 1-.7-.72c-.07-.16-.1-.34-.1-.54v-.1c0-.24.04-.44.1-.62.08-.18.18-.33.3-.45a1.26 1.26 0 0 1 .88-.38c.2 0 .38.03.53.1.15.07.28.17.38.3.1.11.17.26.22.43.05.17.07.35.07.54v.22h-2v.02c.01.13.04.25.08.36a.92.92 0 0 0 .45.47c.1.05.23.07.36.07a.98.98 0 0 0 .78-.37l.3.22a1.3 1.3 0 0 1-1.11.55Zm-.06-2.52a.7.7 0 0 0-.51.2.92.92 0 0 0-.18.26c-.04.1-.08.22-.1.34h1.51v-.02a.88.88 0 0 0-.04-.28.8.8 0 0 0-.14-.25.66.66 0 0 0-.54-.25Zm6.34-1.02v.68h1.06v.37h-1.06V136c0 .11 0 .2.04.27a.41.41 0 0 0 .28.26c.06.02.13.03.2.03a1.79 1.79 0 0 0 .32-.03l.15-.03.11-.02.07.34a.67.67 0 0 1-.15.06 1.7 1.7 0 0 1-.4.08h-.22a.99.99 0 0 1-.35-.05.72.72 0 0 1-.28-.17.8.8 0 0 1-.19-.3 1.29 1.29 0 0 1-.07-.44v-1.52h-.73v-.37h.73v-.68h.48Zm3.29 3.54c-.2 0-.38-.04-.55-.1a1.24 1.24 0 0 1-.7-.72c-.06-.16-.1-.34-.1-.54v-.1c0-.24.04-.44.12-.62.07-.18.17-.33.29-.45a1.26 1.26 0 0 1 .88-.38c.2 0 .37.03.52.1.16.07.28.17.38.3.1.11.18.26.23.43.05.17.07.35.07.54v.22h-2v.02c0 .13.04.25.08.36a.92.92 0 0 0 .45.47c.1.05.22.07.35.07a.98.98 0 0 0 .8-.37l.28.22c-.09.15-.23.27-.42.38-.18.11-.4.17-.68.17Zm-.06-2.52a.7.7 0 0 0-.51.2.92.92 0 0 0-.18.26c-.05.1-.08.22-.1.34h1.51v-.02a.88.88 0 0 0-.05-.28.8.8 0 0 0-.14-.25.66.66 0 0 0-.53-.25Zm3.87 1.72c0-.06-.01-.1-.03-.15a.34.34 0 0 0-.12-.13.87.87 0 0 0-.2-.1 2 2 0 0 0-.34-.1c-.16-.03-.3-.06-.44-.11a1.4 1.4 0 0 1-.34-.17.6.6 0 0 1-.3-.53.6.6 0 0 1 .09-.32.97.97 0 0 1 .57-.44 1.73 1.73 0 0 1 .91 0c.13.05.25.11.35.2a.82.82 0 0 1 .3.61h-.48a.36.36 0 0 0-.04-.17.5.5 0 0 0-.13-.16.67.67 0 0 0-.2-.1.95.95 0 0 0-.53 0 .57.57 0 0 0-.2.07.38.38 0 0 0-.12.14.34.34 0 0 0 0 .3.3.3 0 0 0 .1.12l.2.1.33.07c.18.04.33.08.47.13.14.04.25.1.34.17a.6.6 0 0 1 .29.54.8.8 0 0 1-.08.34.79.79 0 0 1-.24.26c-.1.07-.22.13-.36.17a1.7 1.7 0 0 1-.96-.02 1.22 1.22 0 0 1-.38-.2.87.87 0 0 1-.24-.3.78.78 0 0 1-.08-.34h.48c0 .1.03.18.08.25.04.07.1.12.17.16a.7.7 0 0 0 .23.1 1.22 1.22 0 0 0 .58-.03.5.5 0 0 0 .22-.12.35.35 0 0 0 .08-.11.32.32 0 0 0 .02-.13Zm2.46-2.74v.68h1.07v.37h-1.07V136c0 .11.02.2.04.27a.41.41 0 0 0 .28.26.7.7 0 0 0 .2.03 1.79 1.79 0 0 0 .33-.03l.14-.03.12-.02.07.34a.67.67 0 0 1-.15.06 1.7 1.7 0 0 1-.4.08h-.22a.99.99 0 0 1-.35-.05.72.72 0 0 1-.28-.17.8.8 0 0 1-.2-.3 1.29 1.29 0 0 1-.06-.44v-1.52h-.74v-.37h.74v-.68h.48Zm-45.26 9.97v1.51h-.47v-3.77h1.22c.17 0 .33.03.48.08.15.05.28.12.4.22.11.1.2.21.27.35a1.2 1.2 0 0 1 0 .96c-.07.14-.16.26-.27.35-.12.1-.25.17-.4.22-.15.05-.31.08-.48.08h-.75Zm0-.4h.75c.11 0 .21-.01.3-.05a.65.65 0 0 0 .4-.37.76.76 0 0 0-.16-.85.7.7 0 0 0-.24-.14.91.91 0 0 0-.3-.06h-.75v1.48Zm2.54.49a1.43 1.43 0 0 1 .34-1.02 1.23 1.23 0 0 1 .93-.41 1.24 1.24 0 0 1 .94.4c.1.14.19.29.25.46.06.18.09.36.09.57v.05c0 .2-.03.4-.1.56a1.18 1.18 0 0 1-1.18.86c-.2 0-.37-.03-.53-.1a1.15 1.15 0 0 1-.4-.3c-.11-.13-.2-.28-.26-.46a1.74 1.74 0 0 1-.08-.56v-.05Zm.47.05c0 .14.02.27.05.4.04.12.09.23.15.33a.72.72 0 0 0 .6.3.7.7 0 0 0 .6-.3c.07-.1.11-.2.15-.33.03-.13.05-.26.05-.4v-.05c0-.14-.02-.27-.06-.4a1.04 1.04 0 0 0-.14-.33.76.76 0 0 0-.25-.22.68.68 0 0 0-.35-.09.68.68 0 0 0-.35.09.74.74 0 0 0-.25.22 1 1 0 0 0-.15.33c-.03.13-.05.26-.05.4v.05Zm3.12 1.37-.6-2.8h.43l.32 1.79.06.4.07-.4.45-1.8h.3l.45 1.8.08.44.07-.44.31-1.8h.43l-.6 2.81h-.38l-.44-1.72-.07-.43-.07.44-.43 1.71h-.38Zm4.16.06c-.2 0-.38-.04-.55-.1a1.24 1.24 0 0 1-.7-.72c-.06-.16-.1-.34-.1-.54v-.1c0-.24.04-.44.12-.62.07-.18.17-.33.29-.45a1.26 1.26 0 0 1 .88-.38c.2 0 .37.03.52.1.16.07.28.17.38.3.1.11.18.26.23.43.05.17.07.35.07.54v.22h-2v.02c0 .13.04.25.08.36a.92.92 0 0 0 .45.47c.1.05.22.07.35.07a.98.98 0 0 0 .8-.37l.28.22c-.09.15-.23.27-.42.38a1.3 1.3 0 0 1-.68.17Zm-.07-2.52a.7.7 0 0 0-.5.2.92.92 0 0 0-.18.26c-.05.1-.08.22-.1.34h1.51v-.02a.88.88 0 0 0-.05-.28.8.8 0 0 0-.14-.25.66.66 0 0 0-.54-.25Zm3.86-.4a2.2 2.2 0 0 1 .49.07l-.07.47a2.58 2.58 0 0 0-.53-.06 1 1 0 0 0-.31.05.74.74 0 0 0-.42.3.9.9 0 0 0-.12.24v1.8h-.48v-2.81h.45l.03.38v.06c.11-.15.25-.27.4-.36.17-.09.35-.13.55-.13Zm4.4 1.44c0-.2.03-.4.09-.57.06-.17.14-.32.25-.45a1.23 1.23 0 0 1 .93-.41 1.24 1.24 0 0 1 .94.4 1.75 1.75 0 0 1 .35 1.03v.05c0 .2-.04.4-.1.56a1.18 1.18 0 0 1-1.18.86c-.2 0-.38-.03-.54-.1a1.15 1.15 0 0 1-.4-.3c-.1-.13-.2-.28-.25-.46a1.74 1.74 0 0 1-.09-.56v-.05Zm.48.05c0 .14.02.27.05.4.03.12.08.23.15.33.06.1.15.17.25.22.1.06.21.09.35.09a.7.7 0 0 0 .6-.31 1.42 1.42 0 0 0 .19-.73v-.05c0-.14-.02-.27-.05-.4a1.04 1.04 0 0 0-.15-.33.76.76 0 0 0-.25-.22.68.68 0 0 0-.35-.09.68.68 0 0 0-.34.09.74.74 0 0 0-.25.22 1 1 0 0 0-.15.33c-.03.13-.05.26-.05.4v.05Zm3.56 1.37v-2.43h-.77v-.37h.77v-.2c0-.18.03-.34.08-.47a.92.92 0 0 1 .57-.55 1.36 1.36 0 0 1 .65-.06 2.2 2.2 0 0 1 .46.1l-.05.39a1.73 1.73 0 0 0-.55-.1 1 1 0 0 0-.3.05.5.5 0 0 0-.33.33.98.98 0 0 0-.05.31v.2h1.08v.37h-1.08v2.43h-.48Zm3.19 0v-2.43h-.77v-.37h.77v-.2c0-.18.02-.34.08-.47a.92.92 0 0 1 .57-.55 1.36 1.36 0 0 1 .65-.06 2.2 2.2 0 0 1 .46.1l-.05.39a1.73 1.73 0 0 0-.55-.1 1 1 0 0 0-.3.05.5.5 0 0 0-.34.33.98.98 0 0 0-.04.31v.2h1.08v.37h-1.08v2.43h-.48Z"/><path fill="#fff" d="m19.65 104.91-.46-3.77h.46l.27 2.6.01.15.03-.15.46-2.6h.42l.45 2.6.03.15.02-.15.27-2.6h.45l-.45 3.77h-.5l-.45-2.68-.03-.16-.03.16-.46 2.68h-.5Zm3.07-2.8h1.43v2.39h.91v.41h-2.34v-.41h.95v-1.97h-.95v-.42Zm.89-.74c0-.04 0-.08.02-.11a.24.24 0 0 1 .14-.15.36.36 0 0 1 .24 0 .23.23 0 0 1 .15.14c.02.04.02.08.02.12 0 .08-.02.14-.07.2-.05.05-.12.08-.22.08s-.16-.03-.21-.08a.28.28 0 0 1-.07-.2Zm2.22 4.62v-3.88h.43l.03.3a.86.86 0 0 1 .27-.23.89.89 0 0 1 .24-.09 1.2 1.2 0 0 1 .76.07 1.17 1.17 0 0 1 .56.75c.05.18.08.37.08.58v.05a2 2 0 0 1-.08.56 1.4 1.4 0 0 1-.2.46 1 1 0 0 1-.82.41c-.11 0-.21-.02-.3-.04a.96.96 0 0 1-.5-.29V106h-.47Zm1.89-2.5c0-.14-.02-.27-.05-.4a1.03 1.03 0 0 0-.14-.32.68.68 0 0 0-.59-.3c-.07 0-.14 0-.2.02a.58.58 0 0 0-.17.08.61.61 0 0 0-.15.12.88.88 0 0 0-.11.16v1.35l.1.14a.6.6 0 0 0 .13.12.73.73 0 0 0 .4.11c.14 0 .26-.02.35-.08.1-.06.18-.13.24-.23s.11-.2.14-.33c.03-.12.05-.25.05-.39v-.05Zm2.54 1.48c-.2 0-.38-.04-.55-.1a1.24 1.24 0 0 1-.7-.72c-.06-.16-.1-.34-.1-.54v-.1c0-.24.04-.44.12-.62.07-.18.17-.33.29-.45a1.26 1.26 0 0 1 .88-.38c.2 0 .37.03.52.1.16.07.28.17.38.3.1.12.18.26.23.43.05.17.07.35.07.54v.22h-2v.02c0 .13.04.25.08.36a.92.92 0 0 0 .45.47c.1.05.22.07.35.07a.98.98 0 0 0 .8-.37l.28.22c-.09.15-.23.27-.42.38a1.3 1.3 0 0 1-.68.17Zm-.07-2.52a.7.7 0 0 0-.5.2.92.92 0 0 0-.18.26c-.05.1-.08.22-.1.34h1.51v-.02a.88.88 0 0 0-.05-.28.8.8 0 0 0-.14-.26.66.66 0 0 0-.54-.24Zm5.12 1.04c0-.21.02-.4.07-.58.06-.17.13-.33.23-.45.1-.13.22-.23.35-.3a1 1 0 0 1 .47-.1c.17 0 .31.02.44.08.12.06.23.14.32.25v-1.46h.48v3.98h-.44l-.02-.3c-.1.12-.2.2-.33.27a1.1 1.1 0 0 1-.92-.02 1.06 1.06 0 0 1-.35-.3c-.1-.13-.17-.28-.22-.45a1.91 1.91 0 0 1-.08-.57v-.05Zm.47.05c0 .14.02.27.05.4a1 1 0 0 0 .14.31c.06.1.13.17.23.23.1.05.2.08.34.08a.7.7 0 0 0 .4-.11c.1-.07.19-.17.25-.3v-1.3a.8.8 0 0 0-.25-.27.67.67 0 0 0-.4-.12.68.68 0 0 0-.34.09.68.68 0 0 0-.23.22.9.9 0 0 0-.14.33 1.6 1.6 0 0 0-.05.39v.05Zm4.65 1.37a.55.55 0 0 1-.05-.13 1.78 1.78 0 0 1-.02-.17 1.3 1.3 0 0 1-.59.33 1.2 1.2 0 0 1-.66-.04.92.92 0 0 1-.3-.18.76.76 0 0 1-.27-.58c0-.16.03-.3.09-.4a.83.83 0 0 1 .26-.3c.11-.08.25-.13.4-.17.16-.04.34-.06.54-.06h.52V103a.53.53 0 0 0-.05-.22.5.5 0 0 0-.13-.18.61.61 0 0 0-.2-.1.9.9 0 0 0-.28-.05c-.1 0-.18.02-.26.04a.66.66 0 0 0-.19.1.44.44 0 0 0-.12.14.36.36 0 0 0-.04.17h-.48c0-.1.02-.2.07-.3.05-.1.13-.2.23-.27.1-.08.2-.14.34-.2a1.73 1.73 0 0 1 .92 0 .85.85 0 0 1 .67.88v1.3a1.84 1.84 0 0 0 .1.57v.04h-.5Zm-.85-.36a.92.92 0 0 0 .66-.27.7.7 0 0 0 .11-.16v-.57h-.45c-.16 0-.3.02-.43.05a.7.7 0 0 0-.3.13.36.36 0 0 0-.11.14.53.53 0 0 0 0 .39c.02.06.05.1.1.15.04.04.1.08.17.1.07.03.16.04.25.04Zm3.33-3.12v.68h1.07v.37H42.9V104c0 .11.01.2.04.27a.41.41 0 0 0 .28.26c.06.02.13.03.2.03a1.8 1.8 0 0 0 .33-.03l.14-.03.12-.02.06.33a.67.67 0 0 1-.14.07 1.69 1.69 0 0 1-.4.08h-.23c-.12 0-.24-.01-.35-.05a.72.72 0 0 1-.28-.17.8.8 0 0 1-.19-.3 1.3 1.3 0 0 1-.06-.44v-1.52h-.74v-.37h.74v-.68h.48Zm3.9 3.48a.55.55 0 0 1-.05-.13 1.74 1.74 0 0 1-.02-.17 1.3 1.3 0 0 1-.6.33 1.2 1.2 0 0 1-.66-.04.92.92 0 0 1-.3-.18.76.76 0 0 1-.26-.58c0-.16.03-.3.09-.4a.83.83 0 0 1 .26-.3c.11-.08.25-.13.4-.17.16-.04.34-.06.53-.06h.53V103a.54.54 0 0 0-.05-.22.5.5 0 0 0-.13-.18.61.61 0 0 0-.21-.1.9.9 0 0 0-.28-.05c-.1 0-.18.02-.25.04a.67.67 0 0 0-.2.1.44.44 0 0 0-.11.14.36.36 0 0 0-.04.17h-.49c0-.1.03-.2.08-.3.05-.1.13-.2.22-.27.1-.08.21-.14.35-.2a1.73 1.73 0 0 1 .91 0 1 1 0 0 1 .36.17.85.85 0 0 1 .32.7v1.31a1.84 1.84 0 0 0 .1.57v.04h-.5Zm-.85-.36a.92.92 0 0 0 .65-.27.7.7 0 0 0 .12-.16v-.57h-.45c-.16 0-.3.02-.43.05a.7.7 0 0 0-.3.13.53.53 0 0 0-.12.14.53.53 0 0 0 0 .39c.02.06.06.1.1.15.05.04.11.08.18.1.07.03.15.04.25.04Zm2.82.69h-.43l1.58-4.1h.43l-1.58 4.1Zm3.28-.33v-2.43h-.78v-.37h.78v-.2c0-.18.02-.33.07-.47a.92.92 0 0 1 .57-.55 1.36 1.36 0 0 1 .66-.06 2.2 2.2 0 0 1 .46.1l-.06.39a1.73 1.73 0 0 0-.54-.1.94.94 0 0 0-.3.05.5.5 0 0 0-.34.33.98.98 0 0 0-.04.31v.2h1.08v.37h-1.08v2.43h-.48Zm4.31 0a.55.55 0 0 1-.04-.13 1.74 1.74 0 0 1-.03-.17 1.3 1.3 0 0 1-.59.33 1.2 1.2 0 0 1-.66-.04.92.92 0 0 1-.3-.18.76.76 0 0 1-.27-.58c0-.16.03-.3.1-.4a.83.83 0 0 1 .26-.3c.1-.08.24-.13.4-.17.16-.04.34-.06.53-.06h.52V103a.54.54 0 0 0-.04-.22.5.5 0 0 0-.13-.18.61.61 0 0 0-.21-.1.9.9 0 0 0-.28-.05c-.1 0-.18.02-.26.04a.66.66 0 0 0-.18.1.44.44 0 0 0-.13.14.36.36 0 0 0-.04.17h-.48c0-.1.03-.2.08-.3.05-.1.12-.2.22-.27.1-.08.21-.14.35-.2a1.73 1.73 0 0 1 .91 0 1 1 0 0 1 .36.17.85.85 0 0 1 .31.7v1.31a1.84 1.84 0 0 0 .1.57v.04h-.5Zm-.84-.36a.92.92 0 0 0 .65-.27.7.7 0 0 0 .12-.16v-.57h-.45c-.17 0-.31.02-.44.05a.7.7 0 0 0-.29.13.4.4 0 0 0-.12.14.53.53 0 0 0 0 .39c.02.06.06.1.1.15.05.04.1.08.18.1a.6.6 0 0 0 .24.04Zm3.38.03a.77.77 0 0 0 .48-.16c.06-.05.11-.1.15-.17a.44.44 0 0 0 .06-.22h.45a.7.7 0 0 1-.1.36 1 1 0 0 1-.25.3 1.28 1.28 0 0 1-1.34.16c-.16-.07-.3-.18-.4-.3a1.3 1.3 0 0 1-.24-.45 1.77 1.77 0 0 1-.08-.53v-.11a1.55 1.55 0 0 1 .32-.98 1 1 0 0 1 .4-.3c.16-.09.34-.12.55-.12a1.27 1.27 0 0 1 .82.29.99.99 0 0 1 .32.72h-.45a.63.63 0 0 0-.42-.57.72.72 0 0 0-.27-.05.72.72 0 0 0-.37.1.72.72 0 0 0-.25.22c-.06.1-.1.2-.13.33a1.7 1.7 0 0 0-.04.36v.1c0 .13.01.25.04.37s.07.23.13.32c.06.1.14.18.24.24.1.06.23.09.38.09Zm3.13-3.15v.68h1.07v.37h-1.07V104c0 .11.02.2.04.27a.41.41 0 0 0 .28.26l.2.03a1.8 1.8 0 0 0 .33-.03l.15-.03.11-.02.07.33a.67.67 0 0 1-.15.07 1.69 1.69 0 0 1-.4.08h-.22a.99.99 0 0 1-.35-.05.72.72 0 0 1-.28-.17.8.8 0 0 1-.2-.3 1.3 1.3 0 0 1-.06-.44v-1.52h-.74v-.37h.74v-.68h.48Zm1.92 2.05c0-.2.03-.38.09-.56.06-.17.14-.32.25-.45a1.23 1.23 0 0 1 .93-.41 1.24 1.24 0 0 1 .94.4 1.74 1.74 0 0 1 .35 1.02v.06c0 .2-.04.4-.1.56a1.18 1.18 0 0 1-1.18.86c-.2 0-.38-.03-.54-.1a1.15 1.15 0 0 1-.4-.3c-.1-.13-.2-.28-.25-.45a1.74 1.74 0 0 1-.09-.57v-.06Zm.48.06c0 .14.02.27.05.4.03.12.08.23.15.33a.72.72 0 0 0 .6.3.7.7 0 0 0 .6-.3 1.33 1.33 0 0 0 .19-.73v-.06c0-.13-.01-.26-.05-.39a1.04 1.04 0 0 0-.15-.33.76.76 0 0 0-.25-.22.68.68 0 0 0-.35-.09.68.68 0 0 0-.34.09.74.74 0 0 0-.25.22 1 1 0 0 0-.15.33c-.03.13-.05.26-.05.4v.05Zm4.68-1.48a2.2 2.2 0 0 1 .5.06l-.07.47a2.58 2.58 0 0 0-.53-.06c-.12 0-.22.02-.32.05a.74.74 0 0 0-.41.3 1 1 0 0 0-.12.23v1.8h-.48v-2.8h.45l.02.38v.07c.12-.16.26-.28.42-.37.16-.09.34-.13.54-.13Zm1.58 3.99a2.52 2.52 0 0 1-.3-.04l.08-.4.13.01h.1a.3.3 0 0 0 .18-.05.7.7 0 0 0 .15-.13l.1-.15.08-.14.19-.37-1.21-2.67h.54l.77 1.8.12.35.13-.33.73-1.82h.53l-1.42 3.24-.13.23a1 1 0 0 1-.44.4c-.1.04-.2.07-.33.07Zm7.99-4a2.2 2.2 0 0 1 .5.07l-.07.47a2.58 2.58 0 0 0-.53-.06c-.12 0-.22.02-.32.05a.74.74 0 0 0-.42.3l-.11.23v1.8h-.49v-2.8h.46l.02.38v.07a1.12 1.12 0 0 1 .96-.5Zm2.59 2.92c-.2 0-.38-.04-.54-.1a1.25 1.25 0 0 1-.7-.72c-.07-.16-.1-.34-.1-.54v-.1c0-.24.04-.44.1-.62.08-.18.18-.33.3-.45a1.26 1.26 0 0 1 .88-.38c.2 0 .38.03.53.1a1.17 1.17 0 0 1 .6.73c.05.17.07.35.07.54v.22h-2v.02c.01.13.04.25.08.36a.92.92 0 0 0 .45.47c.1.05.23.07.36.07a.98.98 0 0 0 .78-.37l.3.22a1.3 1.3 0 0 1-1.11.55Zm-.06-2.52a.7.7 0 0 0-.51.2.92.92 0 0 0-.18.26c-.04.1-.08.22-.1.34h1.51v-.02a.87.87 0 0 0-.05-.28.8.8 0 0 0-.13-.26.66.66 0 0 0-.54-.24Zm3.87 1.72c0-.06 0-.1-.03-.15a.34.34 0 0 0-.11-.13.87.87 0 0 0-.22-.1c-.08-.04-.2-.07-.33-.1-.16-.02-.3-.06-.44-.11a1.4 1.4 0 0 1-.33-.17.6.6 0 0 1-.3-.53c0-.11.03-.22.08-.32s.13-.19.22-.26c.1-.08.22-.13.35-.18a1.68 1.68 0 0 1 .91 0 1 1 0 0 1 .35.2.82.82 0 0 1 .3.61h-.47a.36.36 0 0 0-.05-.17.5.5 0 0 0-.13-.16.67.67 0 0 0-.2-.1.95.95 0 0 0-.53 0 .57.57 0 0 0-.2.08.38.38 0 0 0-.11.13.34.34 0 0 0 0 .3.3.3 0 0 0 .1.12l.2.1.33.07c.17.04.32.08.46.13.14.04.25.1.35.17.09.06.16.14.2.23a.68.68 0 0 1-.01.65.79.79 0 0 1-.23.26c-.1.07-.22.13-.36.17a1.63 1.63 0 0 1-.96-.02 1.22 1.22 0 0 1-.38-.2.87.87 0 0 1-.24-.3.78.78 0 0 1-.08-.34h.48c0 .1.03.18.08.25s.1.12.17.16a.7.7 0 0 0 .23.1 1.23 1.23 0 0 0 .58-.03.5.5 0 0 0 .22-.12.35.35 0 0 0 .08-.11.32.32 0 0 0 .02-.13Zm2.57.8c-.2 0-.38-.04-.55-.1a1.24 1.24 0 0 1-.7-.72c-.06-.16-.1-.34-.1-.54v-.1c0-.24.04-.44.12-.62.07-.18.17-.33.29-.45a1.26 1.26 0 0 1 .88-.38c.2 0 .37.03.52.1.16.07.28.17.38.3.1.12.18.26.23.43.05.17.07.35.07.54v.22h-2v.02c0 .13.04.25.08.36a.91.91 0 0 0 .45.47c.1.05.22.07.35.07a.98.98 0 0 0 .8-.37l.29.22a1.3 1.3 0 0 1-1.12.55Zm-.06-2.52a.7.7 0 0 0-.51.2.92.92 0 0 0-.18.26c-.05.1-.08.22-.1.34h1.51v-.02a.88.88 0 0 0-.05-.28.8.8 0 0 0-.13-.26.66.66 0 0 0-.54-.24Zm3.14-1.02v.68h1.07v.37h-1.07V104c0 .11.02.2.04.27a.41.41 0 0 0 .28.26l.2.03a1.8 1.8 0 0 0 .33-.03l.15-.03.11-.02.07.33a.67.67 0 0 1-.15.07 1.7 1.7 0 0 1-.4.08h-.22a.99.99 0 0 1-.35-.05.72.72 0 0 1-.28-.17.8.8 0 0 1-.2-.3 1.29 1.29 0 0 1-.06-.44v-1.52h-.74v-.37h.74v-.68h.48Z"/><path stroke="#2792FF" d="M18.73 58.91h151.95"/><path stroke="#2792FF" d="M18.73 148.07h151.95"/><g filter="url(#d)"><path fill="#fff" d="M12.47 215.85 10.71 36.84l-.88 179.01.88 179.68 1.76-179.68Z"/></g><g filter="url(#e)"><path fill="#fff" d="m178.94 140.77-1.18-117.36-.58 117.36.58 117.8 1.18-117.8Z"/></g><g clip-path="url(#f)" style="mix-blend-mode:exclusion"><rect width="8.81" height="8.81" x="89.1" y="13.72" fill="#353535" rx="4.4"/><g clip-path="url(#g)"><rect width="5.28" height="5.28" x="90.86" y="15.48" fill="#000" rx="2.64"/><g filter="url(#h)" opacity=".6"><circle cx="91.96" cy="17.46" r=".66" fill="#fff"/></g></g><g filter="url(#i)" opacity=".3"><rect width="3.52" height="3.52" x="93.5" y="18.56" fill="#fff" rx="1.76"/></g><g filter="url(#j)" opacity=".3"><rect width="2.64" height="2.64" x="90.42" y="14.6" fill="#fff" rx="1.32"/></g></g></g><path fill="#121214" d="M188.63 107.52c0-1.7-1.38-3.08-3.09-3.08v30.82c1.7 0 3.09-1.38 3.09-3.08v-24.66Z"/><path fill="#121214" d="M188.63 158.16c0-1.7-1.38-3.08-3.09-3.08v61.65c1.7 0 3.09-1.38 3.09-3.08v-55.49Z"/><g filter="url(#k)"><path fill="#fff" d="M11.6 20.79 11 2.55l-.29 18.24.3 18.31.58-18.31Z"/></g><g clip-path="url(#l)"><path fill="#2E2E33" d="M80.73.95h25.1c0 .97-.78 1.76-1.76 1.76H82.5c-.97 0-1.76-.8-1.76-1.76Z"/><g stroke="#fff" stroke-width=".13" opacity=".1"><path d="M100.96.04 99.6 4.23"/><path d="M98.75.04 97.4 4.23"/><path d="M96.55.04 95.2 4.23"/><path d="M94.35.04 93 4.23"/><path d="M92.15.04 90.8 4.23"/><path d="M89.07.04 87.7 4.23"/><path d="M96.65.04 98 4.24"/><path d="M87.74.04 86.4 4.23"/><path d="M85.54.04 84.2 4.23"/><path d="M83.34.04 82 4.23"/></g></g></g><path fill="#E94F60" d="M243.68 118.85a1 1 0 1 1 0 2h-42.24l4.79 4.79a1 1 0 0 1-1.42 1.42l-7.21-7.21 7.2-7.21a1 1 0 0 1 1.42 1.42l-4.78 4.79h42.24Z"/><defs><filter id="d" width="6.17" height="362.21" x="8.07" y="35.08" color-interpolation-filters="sRGB" filterUnits="userSpaceOnUse"><feFlood flood-opacity="0" result="BackgroundImageFix"/><feBlend in="SourceGraphic" in2="BackgroundImageFix" result="shape"/><feGaussianBlur result="effect1_foregroundBlur_1755_1414" stdDeviation=".88"/></filter><filter id="e" width="5.28" height="238.69" x="175.41" y="21.64" color-interpolation-filters="sRGB" filterUnits="userSpaceOnUse"><feFlood flood-opacity="0" result="BackgroundImageFix"/><feBlend in="SourceGraphic" in2="BackgroundImageFix" result="shape"/><feGaussianBlur result="effect1_foregroundBlur_1755_1414" stdDeviation=".88"/></filter><filter id="h" width="3.08" height="3.08" x="90.42" y="15.92" color-interpolation-filters="sRGB" filterUnits="userSpaceOnUse"><feFlood flood-opacity="0" result="BackgroundImageFix"/><feBlend in="SourceGraphic" in2="BackgroundImageFix" result="shape"/><feGaussianBlur result="effect1_foregroundBlur_1755_1414" stdDeviation=".44"/></filter><filter id="i" width="5.28" height="5.28" x="92.62" y="17.68" color-interpolation-filters="sRGB" filterUnits="userSpaceOnUse"><feFlood flood-opacity="0" result="BackgroundImageFix"/><feBlend in="SourceGraphic" in2="BackgroundImageFix" result="shape"/><feGaussianBlur result="effect1_foregroundBlur_1755_1414" stdDeviation=".44"/></filter><filter id="j" width="4.4" height="4.4" x="89.54" y="13.72" color-interpolation-filters="sRGB" filterUnits="userSpaceOnUse"><feFlood flood-opacity="0" result="BackgroundImageFix"/><feBlend in="SourceGraphic" in2="BackgroundImageFix" result="shape"/><feGaussianBlur result="effect1_foregroundBlur_1755_1414" stdDeviation=".44"/></filter><filter id="k" width="4.4" height="40.07" x="8.95" y=".79" color-interpolation-filters="sRGB" filterUnits="userSpaceOnUse"><feFlood flood-opacity="0" result="BackgroundImageFix"/><feBlend in="SourceGraphic" in2="BackgroundImageFix" result="shape"/><feGaussianBlur result="effect1_foregroundBlur_1755_1414" stdDeviation=".88"/></filter><clipPath id="a"><path fill="#fff" d="M.14.95h190v288H.14z"/></clipPath><clipPath id="c"><rect width="180.56" height="381.37" x="3.23" y="7.55" fill="#fff" rx="7"/></clipPath><clipPath id="f"><rect width="8.81" height="8.81" x="89.1" y="13.72" fill="#fff" rx="4.4"/></clipPath><clipPath id="g"><rect width="5.28" height="5.28" x="90.86" y="15.48" fill="#fff" rx="2.64"/></clipPath><clipPath id="l"><path fill="#fff" d="M80.73.95h25.1c0 .97-.78 1.76-1.76 1.76H82.5c-.97 0-1.76-.8-1.76-1.76Z"/></clipPath><linearGradient id="b" x1=".14" x2="186.87" y1="395.53" y2="395.53" gradientUnits="userSpaceOnUse"><stop stop-color="#37373D"/><stop offset="1" stop-color="#111113"/></linearGradient></defs></svg>