<svg xmlns="http://www.w3.org/2000/svg" width="245" height="289" fill="none"><g clip-path="url(#a)"><rect width="186.72" height="394.58" x=".14" y=".93" fill="url(#b)" rx="10"/><g clip-path="url(#c)"><rect width="180.56" height="381.37" x="3.23" y="7.53" fill="#7D7C81" rx="7"/><path fill="#000" d="M3.23 7.53h188.04V405.2H3.23z"/><path fill="#F9EF4F" d="M21.25 48.95H20l-.3.98h-.48l1.22-3.78h.4l1.2 3.78h-.48l-.3-.98Zm-1.13-.42h1l-.5-1.64-.5 1.64Zm2.52 1.4v-2.8h.43l.03.4a1.23 1.23 0 0 1 .3-.28 1.09 1.09 0 0 1 .58-.18c.14 0 .28.02.4.06.12.04.22.1.3.2.09.09.16.2.2.33.05.14.07.3.07.49v1.78h-.48v-1.77a1 1 0 0 0-.04-.32.51.51 0 0 0-.12-.21.5.5 0 0 0-.2-.12.9.9 0 0 0-.52 0 .81.81 0 0 0-.21.1.94.94 0 0 0-.26.3v2.02h-.48Zm3.1-1.43a1.75 1.75 0 0 1 .3-1.03c.1-.12.22-.22.36-.3a1 1 0 0 1 .46-.1c.17 0 .31.03.44.09a.9.9 0 0 1 .33.24v-1.45h.48v3.98h-.45l-.02-.3c-.09.12-.2.2-.33.26s-.28.09-.45.09a.98.98 0 0 1-.82-.41c-.1-.13-.17-.28-.22-.45a1.9 1.9 0 0 1-.08-.56v-.06Zm.48.06c0 .13.01.26.04.38a1 1 0 0 0 .14.33.63.63 0 0 0 .57.3c.17 0 .3-.03.4-.1.11-.08.2-.18.26-.3v-1.3a.8.8 0 0 0-.26-.28.67.67 0 0 0-.39-.11.69.69 0 0 0-.35.08.69.69 0 0 0-.23.22c-.06.1-.1.2-.14.33a1.7 1.7 0 0 0-.04.4v.05Zm4.64-1.49a2.18 2.18 0 0 1 .49.07l-.07.47a2.32 2.32 0 0 0-.53-.06c-.11 0-.22.01-.31.04a.73.73 0 0 0-.42.3.9.9 0 0 0-.12.24v1.8h-.48v-2.8h.46l.02.37v.07a1.1 1.1 0 0 1 .96-.5Zm1.21 1.43a1.64 1.64 0 0 1 .34-1.02 1.23 1.23 0 0 1 .93-.41 1.24 1.24 0 0 1 .94.41c.11.13.2.28.25.46.06.17.1.36.1.56v.06a1.69 1.69 0 0 1-.35 1.01 1.18 1.18 0 0 1-.93.4c-.2 0-.38-.03-.54-.1a1.15 1.15 0 0 1-.4-.3c-.1-.13-.2-.28-.25-.45a1.74 1.74 0 0 1-.09-.56v-.06Zm.48.06c0 .13.02.27.05.4.03.12.08.23.15.32.07.1.15.17.25.23.1.05.22.08.35.08a.7.7 0 0 0 .6-.3c.06-.1.11-.21.14-.34.04-.12.05-.26.05-.4v-.05c0-.14-.01-.27-.05-.4a1.04 1.04 0 0 0-.15-.32.75.75 0 0 0-.25-.23.68.68 0 0 0-.34-.09.68.68 0 0 0-.35.09.73.73 0 0 0-.25.23 1 1 0 0 0-.15.33 1.6 1.6 0 0 0-.05.39v.06Zm2.92-1.44h1.43v2.4h.92v.4h-2.35v-.4h.96v-1.98h-.96v-.42Zm.9-.73.01-.12a.25.25 0 0 1 .15-.15.34.34 0 0 1 .12-.02l.12.02.09.06.06.09.02.12c0 .07-.03.14-.07.19-.05.05-.12.08-.22.08s-.17-.03-.22-.08a.28.28 0 0 1-.07-.2Zm2.12 2.11c0-.2.03-.4.08-.57.06-.18.13-.33.23-.46.1-.12.21-.22.35-.3a1 1 0 0 1 .47-.1c.16 0 .31.03.43.09a.9.9 0 0 1 .33.24v-1.45h.48v3.98h-.44l-.02-.3c-.1.12-.2.2-.33.26s-.29.09-.46.09a.98.98 0 0 1-.81-.41 1.6 1.6 0 0 1-.23-.45 1.9 1.9 0 0 1-.08-.56v-.06Zm.48.06c0 .13.02.26.05.38a1 1 0 0 0 .14.33c.06.1.13.17.23.22.1.06.2.08.34.08a.7.7 0 0 0 .4-.1c.1-.08.19-.18.25-.3v-1.3a.8.8 0 0 0-.25-.28.67.67 0 0 0-.4-.11.69.69 0 0 0-.34.08.69.69 0 0 0-.23.22.9.9 0 0 0-.14.33c-.03.13-.05.25-.05.4v.05Zm7.24-.17h-.75v1.54h-.48v-3.78h1.1c.18 0 .35.03.5.08a.97.97 0 0 1 .68.56 1.13 1.13 0 0 1-.1 1.11.87.87 0 0 1-.21.22c-.1.06-.19.12-.29.16l.8 1.62v.03h-.5l-.75-1.54Zm-.75-.4h.64c.1 0 .2-.02.3-.05a.8.8 0 0 0 .26-.14.66.66 0 0 0 .23-.52.78.78 0 0 0-.06-.32.64.64 0 0 0-.42-.36 1.1 1.1 0 0 0-.32-.05h-.63v1.44Zm3.93 1.99c-.2 0-.38-.03-.54-.1a1.23 1.23 0 0 1-.7-.72c-.07-.16-.1-.34-.1-.54v-.1c0-.23.04-.43.1-.61.08-.18.18-.33.3-.46a1.26 1.26 0 0 1 .88-.38c.2 0 .38.04.53.1a1.13 1.13 0 0 1 .6.73c.05.17.07.35.07.55v.21h-2v.02c.01.14.04.26.08.36a.91.91 0 0 0 .45.48 1 1 0 0 0 .36.07.98.98 0 0 0 .78-.38l.3.23c-.1.14-.24.27-.42.38-.19.1-.42.16-.69.16Zm-.06-2.52a.71.71 0 0 0-.5.2.92.92 0 0 0-.19.27c-.04.1-.08.2-.1.34h1.51v-.03a.88.88 0 0 0-.04-.27.8.8 0 0 0-.14-.26.66.66 0 0 0-.54-.25Zm3.2 2.13a.77.77 0 0 0 .48-.16c.06-.05.11-.1.15-.17a.44.44 0 0 0 .06-.22h.46c0 .13-.04.25-.1.36a1 1 0 0 1-.25.3 1.29 1.29 0 0 1-1.35.16 1 1 0 0 1-.4-.3 1.3 1.3 0 0 1-.24-.45 1.76 1.76 0 0 1-.08-.53v-.11c0-.18.03-.36.08-.53.05-.17.13-.32.24-.45a1 1 0 0 1 .4-.3c.16-.08.34-.12.56-.12a1.25 1.25 0 0 1 .81.3 1 1 0 0 1 .33.72h-.46a.63.63 0 0 0-.42-.57.73.73 0 0 0-.26-.06.73.73 0 0 0-.38.1.73.73 0 0 0-.24.23c-.07.1-.11.2-.14.32a1.7 1.7 0 0 0-.04.36v.1c0 .13.02.25.04.37.03.12.07.23.14.33.06.1.14.17.24.23.1.06.23.09.38.09Zm1.86-1.1c0-.2.03-.38.1-.55.05-.18.14-.33.25-.46a1.23 1.23 0 0 1 .93-.41 1.24 1.24 0 0 1 .94.41 1.56 1.56 0 0 1 .34 1.02v.06c0 .2-.03.39-.1.56a1.18 1.18 0 0 1-1.18.86c-.2 0-.37-.04-.53-.11a1.15 1.15 0 0 1-.4-.3c-.11-.13-.2-.28-.26-.45a1.74 1.74 0 0 1-.09-.56v-.06Zm.48.07c0 .13.02.27.05.4a1 1 0 0 0 .15.32c.07.1.15.17.25.23.1.05.22.08.35.08a.7.7 0 0 0 .6-.3c.06-.1.11-.21.15-.34.03-.12.05-.26.05-.4v-.05c0-.14-.02-.27-.06-.4a1.04 1.04 0 0 0-.14-.32.75.75 0 0 0-.26-.23.68.68 0 0 0-.34-.09.68.68 0 0 0-.35.09.73.73 0 0 0-.25.23 1 1 0 0 0-.15.33 1.6 1.6 0 0 0-.05.39v.06Zm3.8 1.37-1.15-2.8h.5l.8 2.1.04.18.05-.17.78-2.12h.5l-1.15 2.8h-.37Zm3.48.05c-.2 0-.38-.03-.55-.1a1.23 1.23 0 0 1-.7-.72c-.06-.16-.1-.34-.1-.54v-.1c0-.23.04-.43.12-.61.07-.18.16-.33.29-.46a1.26 1.26 0 0 1 .87-.38c.2 0 .38.04.53.1.16.08.28.17.38.3.1.12.18.26.22.43.05.17.08.35.08.55v.21h-2v.02c0 .14.03.26.08.36a.91.91 0 0 0 .45.48.98.98 0 0 0 1.14-.3l.3.22a1.33 1.33 0 0 1-1.1.54Zm-.07-2.52a.7.7 0 0 0-.5.2.92.92 0 0 0-.18.27c-.05.1-.08.2-.1.34h1.51v-.03a.88.88 0 0 0-.05-.27.8.8 0 0 0-.14-.26.66.66 0 0 0-.54-.25Zm3.85-.39a2.18 2.18 0 0 1 .5.07l-.07.47a2.32 2.32 0 0 0-.53-.06c-.11 0-.22.01-.32.04a.73.73 0 0 0-.41.3.9.9 0 0 0-.12.24v1.8h-.48v-2.8h.45l.03.37v.07a1.1 1.1 0 0 1 .96-.5Zm1.58 3.99c-.04 0-.1 0-.16-.02l-.13-.02.07-.4a3.39 3.39 0 0 0 .23.02c.07 0 .13-.02.18-.05a.7.7 0 0 0 .15-.13 2.58 2.58 0 0 0 .18-.29l.19-.37L67 47.12h.54l.77 1.81.12.34.13-.33.73-1.82h.53l-1.42 3.24a1.86 1.86 0 0 1-.31.46.98.98 0 0 1-.25.17.74.74 0 0 1-.34.07Zm-45.69 2.1v2.55a1.3 1.3 0 0 1-.34.9 1.2 1.2 0 0 1-.89.37c-.18 0-.35-.03-.5-.1a1.14 1.14 0 0 1-.38-.27c-.11-.12-.2-.25-.26-.4a1.4 1.4 0 0 1-.09-.5v-2.56h.46l.01 2.56c0 .11.02.22.05.32.04.1.09.2.15.28a.7.7 0 0 0 .24.19c.09.05.2.07.32.07s.23-.02.33-.07a.63.63 0 0 0 .23-.2.87.87 0 0 0 .14-.27c.04-.1.06-.2.06-.32v-2.56h.47Zm2.68 3.02c0-.05 0-.1-.03-.15a.34.34 0 0 0-.11-.13.87.87 0 0 0-.22-.1l-.33-.09c-.16-.03-.3-.07-.44-.12a1.4 1.4 0 0 1-.33-.17.72.72 0 0 1-.22-.22.66.66 0 0 1 0-.62c.05-.1.13-.2.22-.27.1-.07.22-.13.35-.18.13-.04.28-.06.44-.06a1.37 1.37 0 0 1 .82.25.83.83 0 0 1 .3.63h-.47a.36.36 0 0 0-.05-.18.5.5 0 0 0-.13-.16.66.66 0 0 0-.2-.1.97.97 0 0 0-.53 0 .58.58 0 0 0-.2.08.38.38 0 0 0-.11.13.33.33 0 0 0-.04.16c0 .05 0 .1.03.14a.3.3 0 0 0 .1.12.8.8 0 0 0 .21.1l.33.07c.17.04.32.08.46.13s.25.1.35.17a.7.7 0 0 1 .2.23.68.68 0 0 1-.01.65.78.78 0 0 1-.23.26c-.1.07-.22.13-.36.17a1.68 1.68 0 0 1-.96-.02 1.2 1.2 0 0 1-.38-.2.87.87 0 0 1-.24-.3.78.78 0 0 1-.08-.34h.48c0 .1.04.19.08.25.05.07.1.12.17.17a.7.7 0 0 0 .23.08 1.2 1.2 0 0 0 .58-.01c.1-.03.17-.08.22-.13a.35.35 0 0 0 .08-.11.32.32 0 0 0 .02-.13Zm2.57.8c-.2 0-.38-.03-.55-.1a1.23 1.23 0 0 1-.7-.72c-.06-.16-.1-.34-.1-.54v-.1c0-.23.04-.43.12-.61.07-.18.17-.33.29-.46a1.26 1.26 0 0 1 .88-.38c.2 0 .37.04.52.1a1.18 1.18 0 0 1 .61.73c.05.17.07.35.07.55v.21h-2v.02c.01.14.04.26.08.36a.91.91 0 0 0 .45.48.98.98 0 0 0 1.14-.3l.3.22c-.1.14-.24.27-.42.38-.19.1-.42.16-.7.16ZM27 54.46a.7.7 0 0 0-.5.2.92.92 0 0 0-.19.27c-.05.1-.08.2-.1.34h1.51v-.03a.88.88 0 0 0-.05-.27.8.8 0 0 0-.13-.26.66.66 0 0 0-.54-.25Zm6.15 2.47L32 54.13h.5l.8 2.1.04.18.05-.17.78-2.12h.5l-1.15 2.8h-.37Zm2.1-1.43a1.64 1.64 0 0 1 .34-1.02 1.23 1.23 0 0 1 .93-.41 1.24 1.24 0 0 1 .94.41c.11.13.2.28.25.46.06.17.1.36.1.56v.06a1.69 1.69 0 0 1-.35 1.01 1.18 1.18 0 0 1-.93.4c-.2 0-.38-.03-.54-.1a1.15 1.15 0 0 1-.4-.3c-.1-.13-.2-.28-.25-.45a1.74 1.74 0 0 1-.09-.56v-.06Zm.48.06c0 .13.02.27.05.4a1 1 0 0 0 .15.32c.07.1.15.17.25.23.1.05.22.08.35.08a.7.7 0 0 0 .6-.3 1.57 1.57 0 0 0 .2-.73v-.06c0-.14-.02-.27-.06-.4a1.04 1.04 0 0 0-.15-.32.75.75 0 0 0-.25-.23.68.68 0 0 0-.35-.09.68.68 0 0 0-.34.09.73.73 0 0 0-.25.23 1 1 0 0 0-.15.33 1.6 1.6 0 0 0-.05.39v.06Zm2.92-2.62h1.43v3.57H41v.42h-2.35v-.42h.95v-3.15h-.95v-.41Zm4.96 3.99-.03-.39a.93.93 0 0 1-.35.33 1.13 1.13 0 0 1-.88.05.78.78 0 0 1-.3-.22.78.78 0 0 1-.2-.37 1.9 1.9 0 0 1-.07-.54v-1.67h.48v1.67c0 .16.01.28.04.38.02.1.06.18.1.24.05.06.11.1.18.13a1.05 1.05 0 0 0 .53 0 .75.75 0 0 0 .22-.1.6.6 0 0 0 .14-.14l.1-.17v-2h.48v2.8h-.44Zm1.56-2.8.02.26c.05-.1.13-.18.22-.23.1-.06.2-.09.34-.09a.7.7 0 0 1 .2.03c.06.01.1.03.15.07l.1.08.06.12a.66.66 0 0 1 .2-.2.68.68 0 0 1 .35-.1c.1 0 .19.01.26.04a.5.5 0 0 1 .34.37c.03.1.04.22.04.35v2.1H47v-2.1a.41.41 0 0 0-.03-.16.3.3 0 0 0-.05-.11.26.26 0 0 0-.1-.06.42.42 0 0 0-.15-.02c-.06 0-.1 0-.15.02a.3.3 0 0 0-.1.06.3.3 0 0 0-.06.1.4.4 0 0 0-.04.12v2.15h-.45v-2.1c0-.06 0-.12-.02-.16a.26.26 0 0 0-.06-.11.22.22 0 0 0-.1-.06.5.5 0 0 0-.29 0 .3.3 0 0 0-.16.12.4.4 0 0 0-.04.08v2.23h-.46v-2.8h.43Zm4.21 2.85c-.2 0-.38-.03-.54-.1a1.23 1.23 0 0 1-.7-.72c-.07-.16-.1-.34-.1-.54v-.1c0-.23.04-.43.1-.61.08-.18.18-.33.3-.46a1.26 1.26 0 0 1 .88-.38c.2 0 .38.04.53.1a1.13 1.13 0 0 1 .6.73c.05.17.07.35.07.55v.21h-2v.02c.01.14.04.26.08.36a.91.91 0 0 0 .45.48 1 1 0 0 0 .36.07.98.98 0 0 0 .78-.38l.3.23c-.1.14-.24.27-.42.38-.19.1-.42.16-.69.16Zm-.06-2.52a.71.71 0 0 0-.5.2.92.92 0 0 0-.19.27c-.04.1-.08.2-.1.34h1.51v-.03a.88.88 0 0 0-.04-.27.8.8 0 0 0-.14-.26.66.66 0 0 0-.54-.25Zm7.05 2.47-.03-.39c-.1.14-.21.25-.35.33a1.13 1.13 0 0 1-.88.05.78.78 0 0 1-.31-.22 1 1 0 0 1-.2-.37 1.9 1.9 0 0 1-.06-.54v-1.67h.47v1.67c0 .16.02.28.04.38.03.1.06.18.11.24s.1.1.18.13a1.05 1.05 0 0 0 .53 0 .75.75 0 0 0 .22-.1.6.6 0 0 0 .13-.14c.04-.05.08-.1.1-.17v-2h.48v2.8h-.43ZM57.72 58v-3.89h.43l.03.3a.9.9 0 0 1 .5-.32 1.18 1.18 0 0 1 .77.08c.14.07.26.17.35.3.1.12.16.27.21.45.05.17.08.36.08.57v.06c0 .2-.03.38-.08.56a1.4 1.4 0 0 1-.21.45.98.98 0 0 1-.82.41l-.3-.03a1 1 0 0 1-.37-.19 1.08 1.08 0 0 1-.11-.1V58h-.48Zm1.89-2.5c0-.15-.02-.27-.05-.4a1.03 1.03 0 0 0-.14-.33.69.69 0 0 0-.59-.3.8.8 0 0 0-.2.02.6.6 0 0 0-.17.08.63.63 0 0 0-.15.12.9.9 0 0 0-.11.16v1.35c.02.05.06.1.1.15a.72.72 0 0 0 .54.23c.13 0 .25-.03.34-.09.1-.05.18-.13.24-.22.06-.1.11-.2.14-.33.03-.13.05-.26.05-.4v-.05Zm1.93 1.74h-.43l1.58-4.1h.42l-1.57 4.1Zm2.47-1.75c0-.2.02-.4.07-.57.06-.18.13-.33.23-.46.1-.12.22-.22.35-.3a1 1 0 0 1 .47-.1c.17 0 .31.03.44.09a.9.9 0 0 1 .32.24v-1.45h.48v3.98h-.44l-.02-.3c-.1.12-.2.2-.33.26s-.28.09-.46.09a.98.98 0 0 1-.8-.41c-.1-.13-.18-.28-.23-.45a1.9 1.9 0 0 1-.08-.56v-.06Zm.48.06c0 .13.01.26.04.38a1 1 0 0 0 .14.33c.06.1.13.17.23.22.1.06.2.08.34.08a.7.7 0 0 0 .4-.1.8.8 0 0 0 .25-.3v-1.3a.8.8 0 0 0-.25-.28.67.67 0 0 0-.4-.11.69.69 0 0 0-.34.08.69.69 0 0 0-.23.22.9.9 0 0 0-.14.33 1.7 1.7 0 0 0-.04.4v.05Zm2.66-.06a1.64 1.64 0 0 1 .34-1.02 1.23 1.23 0 0 1 .93-.41 1.24 1.24 0 0 1 .94.41c.11.13.2.28.25.46.06.17.1.36.1.56v.06a1.69 1.69 0 0 1-.35 1.01 1.18 1.18 0 0 1-.93.4c-.2 0-.38-.03-.54-.1a1.15 1.15 0 0 1-.4-.3c-.1-.13-.2-.28-.25-.45a1.74 1.74 0 0 1-.09-.56v-.06Zm.48.06c0 .13.02.27.05.4.03.12.08.23.15.32.07.1.15.17.25.23.1.05.22.08.35.08a.7.7 0 0 0 .6-.3c.06-.1.11-.21.14-.34.04-.12.05-.26.05-.4v-.05c0-.14-.02-.27-.05-.4a1.04 1.04 0 0 0-.15-.32.75.75 0 0 0-.25-.23.68.68 0 0 0-.35-.09.68.68 0 0 0-.34.09.73.73 0 0 0-.25.23 1 1 0 0 0-.15.33 1.6 1.6 0 0 0-.05.39v.06Zm3.11 1.37-.6-2.8h.43l.33 1.78.06.4.07-.4.44-1.79h.31l.45 1.8.07.43.07-.44.32-1.79h.42l-.6 2.8h-.37l-.44-1.71-.07-.44-.07.44-.44 1.72h-.38Zm2.92 0v-2.8h.43l.04.4a1.23 1.23 0 0 1 .29-.28 1.08 1.08 0 0 1 .58-.18c.15 0 .28.02.4.06.12.04.22.1.3.2.1.09.16.2.2.33.05.14.07.3.07.49v1.78h-.48v-1.77a1 1 0 0 0-.04-.32.51.51 0 0 0-.12-.21.5.5 0 0 0-.2-.12.9.9 0 0 0-.52 0 .82.82 0 0 0-.2.1.95.95 0 0 0-.27.3v2.02h-.48Zm8.22 0a.55.55 0 0 1-.04-.14 1.74 1.74 0 0 1-.03-.17 1.3 1.3 0 0 1-.58.33 1.2 1.2 0 0 1-.66-.04.92.92 0 0 1-.31-.17.76.76 0 0 1-.27-.59.82.82 0 0 1 .35-.7c.12-.07.25-.13.41-.17.16-.03.34-.05.53-.05h.53V55a.5.5 0 0 0-.18-.4.62.62 0 0 0-.21-.11.9.9 0 0 0-.28-.04c-.1 0-.18 0-.25.03a.63.63 0 0 0-.2.1.44.44 0 0 0-.11.14.36.36 0 0 0-.05.17h-.48c0-.1.03-.2.08-.3.05-.1.13-.19.22-.27.1-.08.21-.14.35-.19a1.58 1.58 0 0 1 .91-.01c.14.04.26.1.36.17a.85.85 0 0 1 .32.71v1.3a1.86 1.86 0 0 0 .1.58v.04h-.5Zm-.84-.37a.91.91 0 0 0 .65-.27c.05-.05.09-.1.12-.16v-.56h-.45c-.17 0-.31.01-.44.04a.7.7 0 0 0-.29.13.57.57 0 0 0-.12.15.53.53 0 0 0 0 .39c.02.05.06.1.1.14.05.05.1.08.18.1.07.03.15.04.25.04Zm2.19.37v-2.8h.43l.03.4a1.23 1.23 0 0 1 .3-.28 1.08 1.08 0 0 1 .58-.18c.14 0 .28.02.4.06.12.04.22.1.3.2.09.09.15.2.2.33.05.14.07.3.07.49v1.78h-.48v-1.77a1 1 0 0 0-.04-.32.51.51 0 0 0-.12-.21.5.5 0 0 0-.2-.12.9.9 0 0 0-.52 0 .82.82 0 0 0-.21.1.95.95 0 0 0-.26.3v2.02h-.48Zm3.1-1.43a1.75 1.75 0 0 1 .3-1.03c.1-.12.22-.22.36-.3a1 1 0 0 1 .46-.1c.17 0 .31.03.44.09a.9.9 0 0 1 .33.24v-1.45h.48v3.98h-.45l-.02-.3c-.09.12-.2.2-.33.26s-.28.09-.45.09a.98.98 0 0 1-.82-.41c-.1-.13-.17-.28-.22-.45a1.9 1.9 0 0 1-.08-.56v-.06Zm.48.06c0 .13.01.26.04.38a1 1 0 0 0 .14.33.63.63 0 0 0 .57.3c.17 0 .3-.03.4-.1.1-.08.2-.18.26-.3v-1.3a.8.8 0 0 0-.26-.28.67.67 0 0 0-.39-.11.69.69 0 0 0-.35.08.69.69 0 0 0-.23.22c-.06.1-.1.2-.14.33a1.7 1.7 0 0 0-.04.4v.05ZM92.79 58v-3.89h.44l.03.3a.9.9 0 0 1 .5-.32 1.18 1.18 0 0 1 .77.08c.14.07.26.17.35.3.1.12.16.27.21.45.05.17.07.36.07.57v.06c0 .2-.02.38-.07.56a1.4 1.4 0 0 1-.21.45.98.98 0 0 1-.82.41l-.3-.03a1 1 0 0 1-.37-.19 1.08 1.08 0 0 1-.12-.1V58h-.48Zm1.9-2.5c0-.15-.02-.27-.05-.4a1.03 1.03 0 0 0-.14-.33.69.69 0 0 0-.59-.3.8.8 0 0 0-.2.02.6.6 0 0 0-.17.08.63.63 0 0 0-.15.12.9.9 0 0 0-.12.16v1.35l.1.15.13.11a.72.72 0 0 0 .42.12c.13 0 .24-.03.34-.09.1-.05.18-.13.24-.22.06-.1.1-.2.14-.33.03-.13.04-.26.04-.4v-.05Zm1.16-.01a1.64 1.64 0 0 1 .34-1.02 1.23 1.23 0 0 1 .93-.41 1.24 1.24 0 0 1 .94.41c.11.13.2.28.25.46.06.17.1.36.1.56v.06a1.69 1.69 0 0 1-.35 1.01 1.18 1.18 0 0 1-.93.4c-.2 0-.38-.03-.54-.1a1.15 1.15 0 0 1-.4-.3c-.1-.13-.2-.28-.25-.45a1.74 1.74 0 0 1-.09-.56v-.06Zm.48.06c0 .13.02.27.05.4a1 1 0 0 0 .15.32c.07.1.15.17.25.23.1.05.22.08.35.08a.7.7 0 0 0 .6-.3 1.57 1.57 0 0 0 .2-.73v-.06c0-.14-.03-.27-.06-.4a1.04 1.04 0 0 0-.15-.32.75.75 0 0 0-.25-.23.68.68 0 0 0-.35-.09.68.68 0 0 0-.34.09.73.73 0 0 0-.25.23 1 1 0 0 0-.15.33 1.6 1.6 0 0 0-.05.39v.06Zm3.11 1.37-.6-2.8h.43l.33 1.78.06.4.07-.4.44-1.79h.31l.45 1.8.07.43.08-.44.3-1.79h.43l-.6 2.8h-.37l-.44-1.71-.07-.44-.07.44-.44 1.72h-.38Zm4.16.05c-.2 0-.38-.03-.54-.1a1.23 1.23 0 0 1-.7-.72c-.06-.16-.1-.34-.1-.54v-.1c0-.23.04-.43.11-.61s.17-.33.3-.46a1.26 1.26 0 0 1 .87-.38c.2 0 .38.04.53.1a1.13 1.13 0 0 1 .6.73c.05.17.08.35.08.55v.21h-2v.02a.92.92 0 0 0 .53.83c.1.05.22.08.35.08a.97.97 0 0 0 .79-.38l.29.23a1.27 1.27 0 0 1-1.1.54Zm-.06-2.52a.7.7 0 0 0-.27.06.7.7 0 0 0-.24.15.92.92 0 0 0-.17.26c-.05.1-.08.2-.1.34h1.5v-.03a.87.87 0 0 0-.04-.27.8.8 0 0 0-.14-.26.67.67 0 0 0-.54-.25Zm3.85-.39a2.17 2.17 0 0 1 .5.07l-.07.47a2.3 2.3 0 0 0-.53-.06c-.12 0-.22.01-.32.04a.72.72 0 0 0-.42.3c-.04.07-.08.15-.11.24v1.8h-.49v-2.8h.46l.02.37v.07c.12-.16.25-.28.41-.37.16-.08.35-.13.55-.13Zm2.19 2.55c0-.1.03-.2.09-.27s.16-.1.28-.1c.13 0 .22.03.28.1.07.08.1.16.1.27 0 .1-.03.18-.1.25-.06.07-.16.1-.28.1-.12 0-.22-.03-.28-.1a.38.38 0 0 1-.1-.25Z"/><path fill="#2792FF" d="M17.12 64.36h153.56v7.93H17.12z"/><path fill="#fff" d="M20.7 68.82h-.75v1.54h-.48V66.6h1.1c.18 0 .35.03.5.07a1.06 1.06 0 0 1 .69.56 1.13 1.13 0 0 1-.1 1.11 1.44 1.44 0 0 1-.5.38l.79 1.62v.03h-.5l-.75-1.54Zm-.75-.4h.64a.8.8 0 0 0 .55-.19.66.66 0 0 0 .23-.52.78.78 0 0 0-.05-.31.64.64 0 0 0-.42-.37 1.1 1.1 0 0 0-.32-.05h-.63v1.45Zm3.93 2c-.2 0-.38-.04-.55-.1a1.23 1.23 0 0 1-.7-.72c-.06-.17-.1-.35-.1-.54v-.11c0-.23.05-.43.12-.6.07-.19.17-.34.29-.46a1.26 1.26 0 0 1 .88-.39c.2 0 .38.04.53.11.15.07.27.17.37.29.1.12.18.27.23.44.05.16.07.35.07.54v.22h-2v.01c.01.14.04.26.08.36a.91.91 0 0 0 .45.48c.1.05.23.07.36.07a.98.98 0 0 0 .78-.38l.3.23c-.1.14-.24.27-.42.38-.19.1-.42.16-.7.16Zm-.06-2.52a.71.71 0 0 0-.5.2.92.92 0 0 0-.19.26c-.04.1-.08.21-.1.34h1.51v-.02a.88.88 0 0 0-.05-.28.8.8 0 0 0-.13-.26.66.66 0 0 0-.54-.24Zm4.39 1.09a2.16 2.16 0 0 1-.11.67c-.05.13-.1.25-.18.35a1 1 0 0 1-.27.26 1 1 0 0 1-.55.14c-.12 0-.23-.01-.33-.04a.93.93 0 0 1-.47-.33l-.03.32h-.44v-3.98h.48v1.48a.88.88 0 0 1 .29-.24.94.94 0 0 1 .23-.09 1.2 1.2 0 0 1 .6.02c.1.04.2.08.28.14.07.06.14.12.2.2a1.43 1.43 0 0 1 .26.63c.02.13.04.27.04.42v.05Zm-.48-.05a1.78 1.78 0 0 0-.07-.5 1.1 1.1 0 0 0-.12-.25.57.57 0 0 0-.19-.18.65.65 0 0 0-.17-.07.78.78 0 0 0-.61.1.75.75 0 0 0-.26.3v1.23l.11.17c.04.06.1.1.15.14a.67.67 0 0 0 .41.13c.08 0 .15-.01.22-.03a.63.63 0 0 0 .35-.27 1.24 1.24 0 0 0 .16-.47l.02-.25v-.05Zm1.15 0c0-.2.03-.4.1-.57.05-.17.13-.33.25-.45a1.23 1.23 0 0 1 .93-.41 1.23 1.23 0 0 1 .93.4c.11.13.2.29.26.46a2 2 0 0 1 .08.56V69a2 2 0 0 1-.08.56c-.06.18-.15.33-.26.45a1.18 1.18 0 0 1-.93.41c-.2 0-.38-.03-.54-.1a1.15 1.15 0 0 1-.4-.3c-.1-.13-.19-.28-.25-.46a1.74 1.74 0 0 1-.09-.56v-.06Zm.48.05c0 .14.02.27.05.4a1 1 0 0 0 .15.33.71.71 0 0 0 .6.3.7.7 0 0 0 .35-.08c.1-.05.18-.13.25-.22.06-.1.11-.2.15-.33.03-.13.04-.26.04-.4v-.06c0-.13-.01-.26-.05-.39a1.04 1.04 0 0 0-.14-.33.75.75 0 0 0-.26-.23.68.68 0 0 0-.34-.08.68.68 0 0 0-.35.08.73.73 0 0 0-.25.23 1 1 0 0 0-.15.33c-.03.13-.05.26-.05.4v.05Zm2.71-.06c0-.2.03-.39.09-.56.06-.17.14-.33.25-.45a1.23 1.23 0 0 1 .93-.41 1.23 1.23 0 0 1 .94.4 1.69 1.69 0 0 1 .35 1.02V69c0 .2-.04.39-.1.56a1.1 1.1 0 0 1-.25.45 1.18 1.18 0 0 1-.93.41c-.2 0-.38-.03-.54-.1a1.15 1.15 0 0 1-.4-.3c-.1-.13-.2-.28-.25-.46a1.74 1.74 0 0 1-.09-.56v-.06Zm.48.06c0 .14.02.27.05.4.03.12.08.23.15.33a.71.71 0 0 0 .6.3.7.7 0 0 0 .34-.08c.1-.05.19-.13.26-.22a1.33 1.33 0 0 0 .19-.73v-.06c0-.13-.01-.26-.05-.39a1.04 1.04 0 0 0-.15-.33.75.75 0 0 0-.25-.23.68.68 0 0 0-.34-.08.68.68 0 0 0-.35.08.73.73 0 0 0-.25.23 1 1 0 0 0-.15.33c-.03.13-.05.26-.05.4v.05Zm3.98-2.11v.68h1.07v.37h-1.07v1.52c0 .11.02.2.04.27a.42.42 0 0 0 .28.26.7.7 0 0 0 .2.03 1.72 1.72 0 0 0 .33-.03 5.52 5.52 0 0 0 .26-.06l.07.34a.71.71 0 0 1-.15.07 1.64 1.64 0 0 1-.4.07l-.22.01a.96.96 0 0 1-.35-.05.73.73 0 0 1-.28-.17.8.8 0 0 1-.2-.3 1.3 1.3 0 0 1-.06-.44v-1.52h-.74v-.37h.74v-.68h.48Zm7.22 2.53a.51.51 0 0 0-.08-.3.7.7 0 0 0-.2-.2c-.09-.05-.18-.1-.28-.13l-.28-.1c-.14-.04-.27-.1-.41-.16a1.9 1.9 0 0 1-.37-.22c-.12-.09-.21-.2-.28-.31a.83.83 0 0 1-.11-.43 1 1 0 0 1 .1-.43c.08-.13.17-.24.29-.33a1.46 1.46 0 0 1 1.31-.19c.15.06.29.14.4.24.12.1.22.21.29.35.07.14.1.3.1.47h-.48c-.02-.1-.04-.2-.08-.3a.67.67 0 0 0-.4-.38.95.95 0 0 0-.58-.02.7.7 0 0 0-.22.13.6.6 0 0 0-.17.2.56.56 0 0 0 .02.53c.06.08.13.14.2.2l.27.12.27.1.42.15a1.22 1.22 0 0 1 .66.56.94.94 0 0 1 0 .89.99.99 0 0 1-.3.3.94.94 0 0 1-.4.2 1.69 1.69 0 0 1-.98-.03 1.33 1.33 0 0 1-.73-.6 1.1 1.1 0 0 1-.1-.45h.49c.01.12.05.22.1.32.04.09.1.16.18.22.08.07.16.12.26.15a1.1 1.1 0 0 0 .6.01c.1-.02.18-.06.25-.1a.52.52 0 0 0 .24-.45Zm1.44 2.08-.16-.01-.14-.03.08-.39a3.39 3.39 0 0 0 .23.01.3.3 0 0 0 .18-.05.7.7 0 0 0 .15-.13 2.58 2.58 0 0 0 .18-.29l.19-.37-1.21-2.67h.53l.77 1.8.13.35.13-.33.72-1.82h.54l-1.42 3.23-.13.24a.98.98 0 0 1-.44.4c-.1.04-.2.06-.33.06Zm4.83-1.87a.42.42 0 0 0-.04-.16.34.34 0 0 0-.11-.12.87.87 0 0 0-.21-.1l-.33-.1-.44-.11a1.2 1.2 0 0 1-.34-.17.72.72 0 0 1-.22-.23.66.66 0 0 1 0-.62c.05-.1.13-.19.23-.26.1-.08.2-.14.34-.18a1.5 1.5 0 0 1 .91 0c.14.05.26.1.35.19a.83.83 0 0 1 .3.62H50a.36.36 0 0 0-.05-.18.5.5 0 0 0-.13-.15.66.66 0 0 0-.2-.11.97.97 0 0 0-.53 0 .58.58 0 0 0-.2.08.38.38 0 0 0-.11.14.33.33 0 0 0-.04.15c0 .06.01.1.03.15a.3.3 0 0 0 .11.12.8.8 0 0 0 .2.09l.33.08a3.7 3.7 0 0 1 .81.29c.1.07.16.15.21.24a.68.68 0 0 1-.01.65.78.78 0 0 1-.23.26c-.1.07-.22.12-.36.16a1.68 1.68 0 0 1-.97-.01 1.2 1.2 0 0 1-.38-.2.87.87 0 0 1-.24-.3.78.78 0 0 1-.08-.34h.48c.01.1.04.18.08.25a.7.7 0 0 0 .4.25 1.2 1.2 0 0 0 .58-.02c.1-.03.17-.07.22-.13a.35.35 0 0 0 .08-.1.31.31 0 0 0 .03-.13Zm2.46-2.74v.68h1.06v.37h-1.06v1.52c0 .11.01.2.04.27a.42.42 0 0 0 .28.26c.06.02.13.03.2.03a1.72 1.72 0 0 0 .32-.03 5.46 5.46 0 0 0 .26-.06l.07.34a.71.71 0 0 1-.14.07 1.64 1.64 0 0 1-.4.07l-.23.01c-.12 0-.24-.01-.35-.05a.73.73 0 0 1-.28-.17.8.8 0 0 1-.19-.3 1.3 1.3 0 0 1-.07-.44v-1.52h-.73v-.37h.73v-.68h.49Zm3.29 3.53c-.2 0-.38-.03-.55-.1a1.24 1.24 0 0 1-.7-.71c-.06-.17-.1-.35-.1-.54v-.11c0-.23.04-.43.12-.6.07-.19.17-.34.29-.46a1.26 1.26 0 0 1 .88-.39c.2 0 .38.04.53.11.15.07.27.17.37.29.1.12.18.27.23.44.05.16.07.35.07.54v.22h-2v.01c.01.14.04.26.08.36a.91.91 0 0 0 .45.48c.1.05.23.07.35.07a.98.98 0 0 0 .8-.38l.29.23c-.1.14-.24.27-.42.38-.19.1-.42.16-.7.16Zm-.06-2.51a.71.71 0 0 0-.5.2.92.92 0 0 0-.19.26c-.04.1-.08.21-.1.34h1.51v-.02a.88.88 0 0 0-.05-.28.8.8 0 0 0-.13-.26.66.66 0 0 0-.54-.24Zm2.23-.34.01.26a.7.7 0 0 1 .22-.23.7.7 0 0 1 .54-.06.5.5 0 0 1 .16.07l.09.09c.03.03.05.07.07.12a.66.66 0 0 1 .19-.2.68.68 0 0 1 .36-.1c.1 0 .18 0 .26.04a.5.5 0 0 1 .33.37c.03.1.05.21.05.35v2.1h-.46v-2.1c0-.07 0-.12-.02-.16a.3.3 0 0 0-.06-.12.26.26 0 0 0-.1-.06.43.43 0 0 0-.14-.02c-.06 0-.1 0-.15.02a.3.3 0 0 0-.1.07.3.3 0 0 0-.07.1.4.4 0 0 0-.03.11v2.15h-.46v-2.1c0-.06 0-.11-.02-.16a.26.26 0 0 0-.06-.1.22.22 0 0 0-.1-.07.5.5 0 0 0-.29 0 .3.3 0 0 0-.16.12.41.41 0 0 0-.04.08v2.23h-.45v-2.8h.43Zm8.52 2.8h-.49l-1.46-2.82v2.82H64V66.6h.5l1.46 2.81V66.6h.5v3.77Zm.69-1.43c0-.2.03-.39.09-.56.06-.17.14-.33.25-.45a1.23 1.23 0 0 1 .93-.41 1.23 1.23 0 0 1 .94.4 1.69 1.69 0 0 1 .35 1.02V69a1.69 1.69 0 0 1-.35 1.01 1.18 1.18 0 0 1-.93.41c-.2 0-.38-.03-.54-.1a1.15 1.15 0 0 1-.4-.3c-.1-.13-.2-.28-.25-.46a1.74 1.74 0 0 1-.09-.56v-.06Zm.48.06c0 .14.02.27.05.4.03.12.08.23.15.33a.71.71 0 0 0 .6.3.7.7 0 0 0 .34-.08c.1-.05.19-.13.25-.22a1.33 1.33 0 0 0 .2-.73v-.06c0-.13-.02-.26-.05-.39a1.04 1.04 0 0 0-.15-.33.75.75 0 0 0-.25-.23.68.68 0 0 0-.35-.08.68.68 0 0 0-.34.08.73.73 0 0 0-.25.23 1 1 0 0 0-.15.33c-.03.13-.05.26-.05.4v.05Zm3.11 1.37-.6-2.8h.43l.33 1.79.06.4.07-.4.44-1.8h.31l.45 1.8.07.44.07-.44.32-1.8h.42l-.6 2.81h-.37l-.44-1.72-.07-.43-.07.43-.44 1.72h-.38Z"/><path fill="#2793FF" d="M20.7 76.82h-.75v1.54h-.48V74.6h1.1c.18 0 .35.03.5.07a1.06 1.06 0 0 1 .69.56 1.13 1.13 0 0 1-.1 1.11 1.44 1.44 0 0 1-.5.38l.79 1.62v.03h-.5l-.75-1.54Zm-.75-.4h.64a.8.8 0 0 0 .55-.19.66.66 0 0 0 .23-.52.78.78 0 0 0-.05-.31.64.64 0 0 0-.42-.37 1.1 1.1 0 0 0-.32-.05h-.63v1.45Zm3.93 2c-.2 0-.38-.04-.55-.1a1.23 1.23 0 0 1-.7-.72c-.06-.17-.1-.35-.1-.54v-.11c0-.23.05-.43.12-.6.07-.19.17-.34.29-.46a1.26 1.26 0 0 1 .88-.39c.2 0 .38.04.53.11.15.07.27.17.37.29.1.12.18.27.23.44.05.16.07.35.07.54v.22h-2v.01c.01.14.04.26.08.36a.91.91 0 0 0 .45.48c.1.05.23.07.36.07a.98.98 0 0 0 .78-.38l.3.23c-.1.14-.24.27-.42.38-.19.1-.42.16-.7.16Zm-.06-2.52a.71.71 0 0 0-.5.2.92.92 0 0 0-.19.26c-.04.1-.08.21-.1.34h1.51v-.02a.88.88 0 0 0-.05-.28.8.8 0 0 0-.13-.26.66.66 0 0 0-.54-.24Zm4.39 1.09a2.16 2.16 0 0 1-.11.67c-.05.13-.1.25-.18.35a1 1 0 0 1-.27.26 1 1 0 0 1-.55.14c-.12 0-.23-.01-.33-.04a.93.93 0 0 1-.47-.33l-.03.32h-.44v-3.98h.48v1.48a.88.88 0 0 1 .29-.24.94.94 0 0 1 .23-.09 1.2 1.2 0 0 1 .6.02c.1.04.2.08.28.14.07.06.14.12.2.2a1.43 1.43 0 0 1 .26.63c.02.13.04.27.04.42v.05Zm-.48-.05a1.78 1.78 0 0 0-.07-.5 1.1 1.1 0 0 0-.12-.25.57.57 0 0 0-.19-.18.65.65 0 0 0-.17-.07.78.78 0 0 0-.61.1.75.75 0 0 0-.26.3v1.23l.11.17c.04.06.1.1.15.14a.67.67 0 0 0 .41.13c.08 0 .15-.01.22-.03a.63.63 0 0 0 .35-.27 1.24 1.24 0 0 0 .16-.47l.02-.25v-.05Zm1.15 0c0-.2.03-.4.1-.57.05-.17.13-.33.25-.45a1.23 1.23 0 0 1 .93-.41 1.23 1.23 0 0 1 .93.4c.11.13.2.29.26.46a2 2 0 0 1 .08.56V77a2 2 0 0 1-.08.56c-.06.18-.15.33-.26.45a1.18 1.18 0 0 1-.93.41c-.2 0-.38-.03-.54-.1a1.15 1.15 0 0 1-.4-.3c-.1-.13-.19-.28-.25-.46a1.74 1.74 0 0 1-.09-.56v-.06Zm.48.05c0 .14.02.27.05.4a1 1 0 0 0 .15.33.71.71 0 0 0 .6.3.7.7 0 0 0 .35-.08c.1-.05.18-.13.25-.22.06-.1.11-.2.15-.33.03-.13.04-.26.04-.4v-.06c0-.13-.01-.26-.05-.39a1.04 1.04 0 0 0-.14-.33.75.75 0 0 0-.26-.23.68.68 0 0 0-.34-.08.68.68 0 0 0-.35.08.73.73 0 0 0-.25.23 1 1 0 0 0-.15.33c-.03.13-.05.26-.05.4v.05Zm2.71-.06c0-.2.03-.39.09-.56.06-.17.14-.33.25-.45a1.23 1.23 0 0 1 .93-.41 1.23 1.23 0 0 1 .94.4 1.69 1.69 0 0 1 .35 1.02V77c0 .2-.04.39-.1.56a1.1 1.1 0 0 1-.25.45 1.18 1.18 0 0 1-.93.41c-.2 0-.38-.03-.54-.1a1.15 1.15 0 0 1-.4-.3c-.1-.13-.2-.28-.25-.46a1.74 1.74 0 0 1-.09-.56v-.06Zm.48.06c0 .14.02.27.05.4.03.12.08.23.15.33a.71.71 0 0 0 .6.3.7.7 0 0 0 .34-.08c.1-.05.19-.13.26-.22a1.33 1.33 0 0 0 .19-.73v-.06c0-.13-.01-.26-.05-.39a1.04 1.04 0 0 0-.15-.33.75.75 0 0 0-.25-.23.68.68 0 0 0-.34-.08.68.68 0 0 0-.35.08.73.73 0 0 0-.25.23 1 1 0 0 0-.15.33c-.03.13-.05.26-.05.4v.05Zm3.98-2.11v.68h1.07v.37h-1.07v1.52c0 .11.02.2.04.27a.42.42 0 0 0 .28.26.7.7 0 0 0 .2.03 1.72 1.72 0 0 0 .33-.03 5.52 5.52 0 0 0 .26-.06l.07.34a.71.71 0 0 1-.15.07 1.64 1.64 0 0 1-.4.07l-.22.01a.96.96 0 0 1-.35-.05.73.73 0 0 1-.28-.17.8.8 0 0 1-.2-.3 1.3 1.3 0 0 1-.06-.44v-1.52h-.74v-.37h.74v-.68h.48Zm6.38 0v.68h1.07v.37H42.9v1.52c0 .11.01.2.04.27a.42.42 0 0 0 .28.26c.06.02.13.03.2.03a1.72 1.72 0 0 0 .33-.03 5.46 5.46 0 0 0 .26-.06l.06.34a.71.71 0 0 1-.14.07 1.64 1.64 0 0 1-.4.07l-.23.01c-.12 0-.24-.01-.35-.05a.73.73 0 0 1-.28-.17.8.8 0 0 1-.19-.3 1.3 1.3 0 0 1-.06-.44v-1.52h-.74v-.37h.74v-.68h.48Zm1.92 2.05c0-.2.03-.39.09-.56.05-.17.14-.33.25-.45a1.23 1.23 0 0 1 .93-.41 1.23 1.23 0 0 1 .94.4 1.69 1.69 0 0 1 .34 1.02V77c0 .2-.03.39-.09.56-.06.18-.14.33-.25.45a1.18 1.18 0 0 1-.93.41c-.2 0-.38-.03-.54-.1a1.15 1.15 0 0 1-.4-.3 1.2 1.2 0 0 1-.25-.46 1.74 1.74 0 0 1-.1-.56v-.06Zm.48.06c0 .14.01.27.05.4a1 1 0 0 0 .15.33c.06.1.15.17.25.22.1.06.21.08.35.08a.7.7 0 0 0 .34-.08c.1-.05.18-.13.25-.22.07-.1.12-.2.15-.33s.05-.26.05-.4v-.06c0-.13-.02-.26-.05-.39a1.04 1.04 0 0 0-.15-.33.75.75 0 0 0-.25-.23.68.68 0 0 0-.35-.08.68.68 0 0 0-.35.08.73.73 0 0 0-.24.23 1 1 0 0 0-.15.33c-.04.13-.05.26-.05.4v.05Zm8.4 0a2.16 2.16 0 0 1-.1.67c-.05.13-.1.25-.18.35a1 1 0 0 1-.27.26 1 1 0 0 1-.55.14c-.12 0-.23-.01-.33-.04a.93.93 0 0 1-.47-.33l-.03.32h-.44v-3.98h.48v1.48a.88.88 0 0 1 .3-.24.94.94 0 0 1 .22-.09 1.2 1.2 0 0 1 .6.02c.1.04.2.08.28.14.07.06.14.12.2.2a1.43 1.43 0 0 1 .26.63c.03.13.04.27.04.42v.05Zm-.47-.05a1.78 1.78 0 0 0-.07-.5 1.1 1.1 0 0 0-.12-.25.57.57 0 0 0-.19-.18.65.65 0 0 0-.16-.07.78.78 0 0 0-.62.1.75.75 0 0 0-.26.3v1.23l.11.17c.04.06.1.1.15.14a.67.67 0 0 0 .41.13c.08 0 .16-.01.22-.03a.63.63 0 0 0 .35-.27 1.24 1.24 0 0 0 .16-.47l.02-.25v-.05Zm1.15 0c0-.2.03-.4.1-.57.05-.17.14-.33.25-.45a1.23 1.23 0 0 1 .93-.41 1.23 1.23 0 0 1 .94.4 1.7 1.7 0 0 1 .34 1.02V77c0 .2-.03.39-.1.56a1.18 1.18 0 0 1-1.18.86 1.15 1.15 0 0 1-.94-.41c-.1-.12-.19-.27-.25-.45a1.74 1.74 0 0 1-.09-.56v-.06Zm.48.05c0 .14.02.27.05.4a1 1 0 0 0 .15.33.71.71 0 0 0 .6.3.7.7 0 0 0 .35-.08c.1-.05.18-.13.25-.22.06-.1.11-.2.15-.33.03-.13.05-.26.05-.4v-.06c0-.13-.02-.26-.06-.39a1.04 1.04 0 0 0-.14-.33.75.75 0 0 0-.26-.23.68.68 0 0 0-.34-.08.68.68 0 0 0-.35.08.73.73 0 0 0-.25.23 1 1 0 0 0-.15.33c-.03.13-.05.26-.05.4v.05Zm2.71-.06c0-.2.03-.39.1-.56.05-.17.14-.33.25-.45a1.23 1.23 0 0 1 .93-.41 1.23 1.23 0 0 1 .94.4c.1.13.19.29.25.46.06.17.08.36.08.56V77c0 .2-.02.39-.08.56-.06.18-.15.33-.25.45a1.18 1.18 0 0 1-.94.41 1.15 1.15 0 0 1-.94-.41c-.1-.12-.19-.27-.25-.45a1.74 1.74 0 0 1-.09-.56v-.06Zm.48.06c0 .14.02.27.05.4.04.12.09.23.15.33a.71.71 0 0 0 .6.3.7.7 0 0 0 .35-.08c.1-.05.18-.13.25-.22.06-.1.11-.2.15-.33.03-.13.05-.26.05-.4v-.06c0-.13-.02-.26-.06-.39a1.04 1.04 0 0 0-.14-.33.75.75 0 0 0-.26-.23.68.68 0 0 0-.34-.08.68.68 0 0 0-.35.08.73.73 0 0 0-.25.23 1 1 0 0 0-.15.33c-.03.13-.05.26-.05.4v.05Zm3.98-2.11v.68h1.07v.37h-1.07v1.52c0 .11.02.2.04.27a.42.42 0 0 0 .28.26l.2.03a1.72 1.72 0 0 0 .33-.03 5.46 5.46 0 0 0 .26-.06l.07.34a.71.71 0 0 1-.15.07 1.64 1.64 0 0 1-.4.07l-.22.01a.99.99 0 0 1-.35-.05.73.73 0 0 1-.28-.17.8.8 0 0 1-.2-.3 1.3 1.3 0 0 1-.06-.44v-1.52h-.74v-.37h.74v-.68h.48Zm2.13-.5h1.44v3.57h.91v.41h-2.35v-.41h.96V74.8h-.96v-.42Zm2.98 2.55c0-.2.03-.39.09-.56.06-.17.14-.33.25-.45a1.23 1.23 0 0 1 .93-.41 1.23 1.23 0 0 1 .94.4 1.69 1.69 0 0 1 .35 1.02V77a1.69 1.69 0 0 1-.35 1.01 1.18 1.18 0 0 1-.93.41c-.2 0-.38-.03-.54-.1a1.15 1.15 0 0 1-.4-.3c-.1-.13-.2-.28-.25-.46a1.74 1.74 0 0 1-.09-.56v-.06Zm.48.06c0 .14.02.27.05.4.03.12.08.23.15.33a.71.71 0 0 0 .6.3.7.7 0 0 0 .34-.08c.1-.05.19-.13.25-.22a1.33 1.33 0 0 0 .2-.73v-.06c0-.13-.02-.26-.05-.39a1.04 1.04 0 0 0-.15-.33.75.75 0 0 0-.25-.23.68.68 0 0 0-.35-.08.68.68 0 0 0-.34.08.73.73 0 0 0-.25.23 1 1 0 0 0-.15.33c-.03.13-.05.26-.05.4v.05Zm4.69 1.37a.55.55 0 0 1-.05-.13 1.74 1.74 0 0 1-.02-.17 1.3 1.3 0 0 1-.6.32 1.2 1.2 0 0 1-.66-.04.92.92 0 0 1-.3-.17.76.76 0 0 1-.26-.59c0-.15.03-.28.09-.4a.82.82 0 0 1 .26-.3c.11-.07.25-.12.4-.16.16-.04.34-.06.54-.06h.52v-.22a.5.5 0 0 0-.18-.4.62.62 0 0 0-.2-.11.9.9 0 0 0-.28-.04c-.1 0-.18.01-.26.04a.63.63 0 0 0-.19.1.44.44 0 0 0-.12.14.36.36 0 0 0-.04.16h-.49c0-.1.03-.2.08-.3a1.22 1.22 0 0 1 .57-.46 1.58 1.58 0 0 1 .91-.01c.14.04.26.1.36.18a.85.85 0 0 1 .32.7v1.31a1.86 1.86 0 0 0 .1.57v.04h-.5Zm-.85-.36a.91.91 0 0 0 .66-.27l.11-.16V77h-.45c-.16 0-.3.02-.43.04a.7.7 0 0 0-.3.13.48.48 0 0 0-.11.15.53.53 0 0 0 0 .39c.02.06.05.1.1.15.04.04.1.08.17.1.07.02.16.04.25.04Zm2.1-1.06c0-.21.03-.4.08-.58.05-.18.13-.33.23-.45a1 1 0 0 1 .35-.3 1 1 0 0 1 .46-.1c.17 0 .32.02.44.08a.9.9 0 0 1 .33.24v-1.45h.48v3.98h-.44l-.02-.3a1 1 0 0 1-.34.27c-.13.05-.28.08-.45.08a.98.98 0 0 1-.81-.4c-.1-.13-.17-.28-.23-.46a1.9 1.9 0 0 1-.08-.56v-.05Zm.48.05c0 .14.02.27.05.39a1 1 0 0 0 .13.32c.06.1.14.17.24.23.1.05.2.08.34.08a.7.7 0 0 0 .4-.11c.1-.08.19-.17.25-.3v-1.3a.8.8 0 0 0-.25-.28.67.67 0 0 0-.4-.1.69.69 0 0 0-.34.07.69.69 0 0 0-.24.23 1.6 1.6 0 0 0-.18.72v.05Zm4.04 1.42c-.2 0-.38-.03-.54-.1a1.23 1.23 0 0 1-.7-.71 1.4 1.4 0 0 1-.1-.54v-.11a1.57 1.57 0 0 1 .4-1.06 1.26 1.26 0 0 1 .88-.39c.2 0 .38.04.53.11.15.07.28.17.38.29.1.12.17.27.22.44.05.16.07.35.07.54v.22h-2v.01c.01.14.04.26.08.36a.91.91 0 0 0 .45.48c.1.05.23.07.36.07a.98.98 0 0 0 .79-.38l.29.23c-.1.14-.23.27-.42.38-.19.1-.42.16-.69.16Zm-.06-2.51a.71.71 0 0 0-.5.2.92.92 0 0 0-.19.26c-.04.1-.07.21-.1.34h1.52v-.02a.88.88 0 0 0-.05-.28.8.8 0 0 0-.14-.26.66.66 0 0 0-.54-.24Zm3.85-.4a2.18 2.18 0 0 1 .5.07l-.07.47a2.32 2.32 0 0 0-.53-.06c-.12 0-.23.02-.32.05a.73.73 0 0 0-.42.3c-.05.07-.08.15-.12.23v1.8h-.48v-2.8h.46l.02.37V76c.12-.15.25-.27.41-.36.16-.1.35-.14.55-.14Zm-60.35 9.12h-1.58v1.33h1.84v.41h-2.32V82.6h2.3v.4h-1.82v1.22h1.58v.4Zm1.11 1.74v-2.8h.43l.03.41a1.23 1.23 0 0 1 .3-.29 1.09 1.09 0 0 1 .58-.18c.14 0 .28.03.4.07.12.04.22.1.3.2.09.08.16.2.2.33.05.13.07.3.07.48v1.78h-.48V84.6c0-.12-.01-.23-.04-.32a.51.51 0 0 0-.12-.2.5.5 0 0 0-.2-.12.9.9 0 0 0-.52 0 .81.81 0 0 0-.21.1.94.94 0 0 0-.26.3v2.01h-.48Zm4.32-3.48v.68h1.07v.37h-1.07v1.52c0 .11.02.2.05.27a.42.42 0 0 0 .28.26c.06.02.13.03.2.03a1.72 1.72 0 0 0 .32-.03 5.52 5.52 0 0 0 .26-.06l.07.34a.71.71 0 0 1-.15.07 1.64 1.64 0 0 1-.4.07l-.22.01a.99.99 0 0 1-.35-.05.73.73 0 0 1-.28-.17.8.8 0 0 1-.19-.3 1.3 1.3 0 0 1-.07-.44v-1.52h-.73v-.37h.73v-.68h.48Zm3.3 3.53c-.2 0-.38-.03-.55-.1a1.23 1.23 0 0 1-.7-.71c-.06-.17-.1-.35-.1-.54v-.11c0-.23.04-.43.12-.6.07-.19.17-.34.29-.46a1.26 1.26 0 0 1 .88-.39c.2 0 .37.04.52.11.16.07.28.17.38.29.1.12.18.27.23.44.05.16.07.35.07.54v.22h-2v.01c0 .14.04.26.08.36a.91.91 0 0 0 .45.48c.1.05.22.07.35.07a.98.98 0 0 0 .8-.38l.28.23a1.2 1.2 0 0 1-.42.38c-.18.1-.41.16-.68.16Zm-.07-2.51a.71.71 0 0 0-.5.2.92.92 0 0 0-.18.26c-.05.1-.08.21-.1.34h1.51v-.02a.88.88 0 0 0-.05-.28.8.8 0 0 0-.14-.26.66.66 0 0 0-.54-.24Zm3.86-.4a2.18 2.18 0 0 1 .49.07l-.07.47a2.32 2.32 0 0 0-.53-.06 1 1 0 0 0-.31.05.73.73 0 0 0-.42.3 1 1 0 0 0-.12.23v1.8h-.48v-2.8h.45l.03.37V84c.11-.15.25-.27.4-.36.17-.1.35-.14.55-.14Zm5.25 2.86v-2.43h-.77v-.37h.77v-.2c0-.18.03-.34.08-.47a.93.93 0 0 1 .57-.55 1.37 1.37 0 0 1 .65-.06 2.56 2.56 0 0 1 .47.09l-.06.4a1.74 1.74 0 0 0-.55-.1 1 1 0 0 0-.3.05.51.51 0 0 0-.33.33.98.98 0 0 0-.05.3v.2h1.08v.38h-1.08v2.43h-.48Zm4.32 0a.56.56 0 0 1-.05-.13 1.77 1.77 0 0 1-.02-.17 1.3 1.3 0 0 1-.6.32 1.2 1.2 0 0 1-.66-.04.92.92 0 0 1-.3-.17.76.76 0 0 1-.26-.59c0-.15.03-.28.09-.4a.83.83 0 0 1 .26-.3c.11-.07.25-.12.4-.16.16-.04.34-.06.54-.06h.52v-.22a.5.5 0 0 0-.18-.4.62.62 0 0 0-.21-.11.9.9 0 0 0-.27-.04c-.1 0-.19.01-.26.04a.63.63 0 0 0-.19.1.44.44 0 0 0-.12.14.36.36 0 0 0-.04.16h-.49c0-.1.03-.2.08-.3a.9.9 0 0 1 .22-.26c.1-.08.22-.14.35-.2a1.58 1.58 0 0 1 .91-.01c.14.04.26.1.36.18a.85.85 0 0 1 .32.7v1.31a1.84 1.84 0 0 0 .1.57v.04h-.5Zm-.85-.36a.91.91 0 0 0 .66-.27c.04-.05.08-.1.1-.16V85h-.44c-.16 0-.3.02-.43.04a.7.7 0 0 0-.3.13.48.48 0 0 0-.11.15.53.53 0 0 0 0 .39c.01.06.05.1.1.15.04.04.1.08.17.1.07.02.16.04.25.04Zm4.06-.38a.3.3 0 0 0-.04-.16.34.34 0 0 0-.11-.12.87.87 0 0 0-.21-.1l-.33-.1-.44-.11a1.4 1.4 0 0 1-.34-.17.72.72 0 0 1-.22-.23.66.66 0 0 1 0-.62c.06-.1.13-.19.23-.26.1-.08.2-.14.34-.18a1.5 1.5 0 0 1 .91 0c.14.05.26.1.35.19a.83.83 0 0 1 .3.62h-.47a.36.36 0 0 0-.05-.18.5.5 0 0 0-.13-.15.66.66 0 0 0-.2-.11.97.97 0 0 0-.53 0 .58.58 0 0 0-.2.08.38.38 0 0 0-.11.14.33.33 0 0 0-.04.15c0 .06.01.1.03.15a.3.3 0 0 0 .11.12.8.8 0 0 0 .2.09l.33.08a3.7 3.7 0 0 1 .81.29c.1.07.16.15.21.24a.68.68 0 0 1-.01.65.78.78 0 0 1-.23.26c-.1.07-.22.12-.36.16a1.68 1.68 0 0 1-.97-.01 1.2 1.2 0 0 1-.38-.2.87.87 0 0 1-.23-.3.78.78 0 0 1-.08-.34h.47c.01.1.04.18.08.25a.7.7 0 0 0 .4.25 1.2 1.2 0 0 0 .58-.02c.1-.03.17-.07.23-.13a.35.35 0 0 0 .07-.1.31.31 0 0 0 .03-.13Zm2.46-2.74v.68h1.07v.37h-1.07v1.52c0 .11.01.2.04.27a.42.42 0 0 0 .28.26c.06.02.13.03.2.03a1.72 1.72 0 0 0 .32-.03 5.46 5.46 0 0 0 .26-.06l.07.34a.72.72 0 0 1-.14.07 1.65 1.65 0 0 1-.4.07l-.23.01c-.12 0-.24-.01-.35-.05a.73.73 0 0 1-.28-.17.8.8 0 0 1-.19-.3 1.3 1.3 0 0 1-.07-.44v-1.52h-.73v-.37h.73v-.68h.49Zm4.43 2.11a2.16 2.16 0 0 1-.1.67c-.05.13-.12.25-.2.35a1 1 0 0 1-.26.26 1 1 0 0 1-.55.14c-.12 0-.23-.01-.33-.04a.93.93 0 0 1-.47-.33l-.03.32h-.44v-3.98h.48v1.48a.88.88 0 0 1 .3-.24.94.94 0 0 1 .22-.09 1.2 1.2 0 0 1 .6.02c.1.04.2.08.28.14.07.06.14.12.2.2a1.43 1.43 0 0 1 .26.63c.03.13.04.27.04.42v.05Zm-.48-.05a1.78 1.78 0 0 0-.07-.5 1.1 1.1 0 0 0-.12-.25.57.57 0 0 0-.19-.18.65.65 0 0 0-.16-.07.78.78 0 0 0-.62.1.75.75 0 0 0-.26.3v1.23l.11.17c.04.06.1.1.15.14a.67.67 0 0 0 .41.13c.08 0 .16-.01.22-.03a.63.63 0 0 0 .35-.27 1.24 1.24 0 0 0 .16-.47l.02-.25v-.05Zm1.15 0c0-.2.03-.4.1-.57.05-.17.14-.33.25-.45a1.23 1.23 0 0 1 .93-.41 1.23 1.23 0 0 1 .94.4 1.7 1.7 0 0 1 .34 1.02V85c0 .2-.03.39-.1.56a1.18 1.18 0 0 1-1.18.86 1.15 1.15 0 0 1-.94-.41c-.1-.12-.19-.27-.25-.45a1.74 1.74 0 0 1-.09-.56v-.06Zm.48.05c0 .14.02.27.05.4a1 1 0 0 0 .15.33.71.71 0 0 0 .6.3.7.7 0 0 0 .35-.08c.1-.05.18-.13.25-.22.06-.1.11-.2.15-.33.03-.13.05-.26.05-.4v-.06c0-.13-.02-.26-.06-.39a1.04 1.04 0 0 0-.14-.33.75.75 0 0 0-.26-.23.68.68 0 0 0-.34-.08.68.68 0 0 0-.35.08.73.73 0 0 0-.25.23 1 1 0 0 0-.15.33c-.03.13-.05.26-.05.4v.05Zm2.71-.06c0-.2.03-.39.1-.56.05-.17.14-.33.25-.45a1.23 1.23 0 0 1 .93-.41 1.23 1.23 0 0 1 .94.4c.1.13.19.29.25.46.06.17.08.36.08.56V85c0 .2-.02.39-.08.56-.06.18-.15.33-.25.45a1.18 1.18 0 0 1-.94.41 1.15 1.15 0 0 1-.94-.41c-.1-.12-.19-.27-.25-.45a1.74 1.74 0 0 1-.09-.56v-.06Zm.48.06c0 .14.02.27.05.4.04.12.09.23.15.33a.71.71 0 0 0 .6.3.7.7 0 0 0 .35-.08c.1-.05.18-.13.25-.22.06-.1.11-.2.15-.33.03-.13.05-.26.05-.4v-.06c0-.13-.02-.26-.06-.39a1.04 1.04 0 0 0-.14-.33.75.75 0 0 0-.26-.23.68.68 0 0 0-.34-.08.68.68 0 0 0-.35.08.73.73 0 0 0-.25.23 1 1 0 0 0-.15.33c-.03.13-.05.26-.05.4v.05Zm3.98-2.11v.68h1.07v.37h-1.07v1.52c0 .11.02.2.04.27a.42.42 0 0 0 .28.26l.2.03a1.72 1.72 0 0 0 .33-.03 5.46 5.46 0 0 0 .26-.06l.07.34a.71.71 0 0 1-.15.07 1.64 1.64 0 0 1-.4.07l-.22.01a.99.99 0 0 1-.35-.05.73.73 0 0 1-.28-.17.8.8 0 0 1-.2-.3 1.3 1.3 0 0 1-.06-.44v-1.52h-.74v-.37h.74v-.68h.48Zm-40.79 10.5H20l-.3.98h-.48l1.22-3.77h.4l1.2 3.77h-.48l-.3-.98Zm-1.13-.41h1l-.5-1.64-.5 1.64Zm2.52 2.47v-3.88h.44l.02.3a.9.9 0 0 1 .51-.32 1.18 1.18 0 0 1 .76.07c.14.07.26.17.35.3.1.12.17.27.21.45.05.17.08.37.08.58v.05a2 2 0 0 1-.08.56 1.4 1.4 0 0 1-.2.45.98.98 0 0 1-.82.41c-.11 0-.21 0-.3-.03a1 1 0 0 1-.38-.18 1.08 1.08 0 0 1-.11-.1v1.34h-.48Zm1.89-2.5c0-.14-.02-.27-.05-.4a1.03 1.03 0 0 0-.14-.32.69.69 0 0 0-.59-.3.8.8 0 0 0-.2.02.6.6 0 0 0-.17.07.62.62 0 0 0-.15.12.9.9 0 0 0-.11.17v1.35l.1.14.13.12a.72.72 0 0 0 .41.11c.13 0 .25-.03.34-.08.1-.06.18-.13.24-.23a.9.9 0 0 0 .14-.33c.03-.12.05-.25.05-.39v-.05Zm1.3 2.5v-3.88h.43l.03.3a.89.89 0 0 1 .5-.32 1.18 1.18 0 0 1 .77.07c.14.07.26.17.35.3.1.12.17.27.21.45.05.17.08.37.08.58v.05a2 2 0 0 1-.08.56 1.4 1.4 0 0 1-.2.45.98.98 0 0 1-.82.41c-.11 0-.21 0-.3-.03a1 1 0 0 1-.38-.18 1.09 1.09 0 0 1-.11-.1v1.34h-.48Zm1.89-2.5c0-.14-.02-.27-.05-.4a1.03 1.03 0 0 0-.14-.32.69.69 0 0 0-.59-.3.8.8 0 0 0-.2.02.6.6 0 0 0-.17.07.63.63 0 0 0-.15.12.9.9 0 0 0-.11.17v1.35l.1.14.13.12a.72.72 0 0 0 .4.11c.14 0 .26-.03.35-.08.1-.06.18-.13.24-.23s.11-.2.14-.33c.03-.12.05-.25.05-.39v-.05Zm1.37-2.56h1.44v3.57h.91v.41H29.1v-.41h.96V90.8h-.96v-.42Zm3.34 5.11-.16-.01-.13-.03.07-.39a3.4 3.4 0 0 0 .23.01c.07 0 .13-.01.18-.05a.7.7 0 0 0 .15-.13 2.58 2.58 0 0 0 .18-.29l.19-.37-1.2-2.67h.53l.77 1.8.12.35.14-.33.72-1.82h.54l-1.43 3.23a1.86 1.86 0 0 1-.3.46.98.98 0 0 1-.26.17.74.74 0 0 1-.34.07Zm8-1.13-.03-.38a.98.98 0 0 1-.35.32 1.13 1.13 0 0 1-.88.05.78.78 0 0 1-.3-.22.88.88 0 0 1-.2-.37 1.9 1.9 0 0 1-.07-.54v-1.66h.48v1.67c0 .15.01.28.04.38.02.1.06.18.1.24.05.06.11.1.18.12.07.03.15.04.25.04s.2-.01.28-.04a.75.75 0 0 0 .22-.1.6.6 0 0 0 .14-.13l.1-.17v-2.01h.48v2.8h-.44Zm1.34 1.08v-3.88h.44l.02.3a.89.89 0 0 1 .51-.32 1.18 1.18 0 0 1 .77.07 1 1 0 0 1 .35.3c.09.12.16.27.2.45.06.17.08.37.08.58v.05a2 2 0 0 1-.07.56 1.4 1.4 0 0 1-.21.45.98.98 0 0 1-.82.41c-.1 0-.2 0-.3-.03a1 1 0 0 1-.38-.18 1.08 1.08 0 0 1-.1-.1v1.34h-.49Zm1.9-2.5c0-.14-.02-.27-.06-.4a1.02 1.02 0 0 0-.13-.32.69.69 0 0 0-.59-.3.8.8 0 0 0-.2.02.6.6 0 0 0-.18.07.63.63 0 0 0-.15.12.9.9 0 0 0-.1.17v1.35c.02.05.05.1.1.14.03.05.07.08.12.12a.72.72 0 0 0 .41.11c.14 0 .25-.03.35-.08.1-.06.17-.13.24-.23.06-.1.1-.2.13-.33.04-.12.05-.25.05-.39v-.05Zm1.2 0c0-.21.03-.4.08-.58.05-.18.13-.33.23-.45a1 1 0 0 1 .35-.3 1 1 0 0 1 .46-.1c.17 0 .32.02.44.08a.9.9 0 0 1 .33.24v-1.45h.48v3.98h-.44l-.02-.3a1 1 0 0 1-.34.27 1.1 1.1 0 0 1-.45.08.98.98 0 0 1-.81-.4c-.1-.13-.17-.28-.23-.46a1.91 1.91 0 0 1-.08-.56v-.05Zm.48.05c0 .14.02.27.05.39a1 1 0 0 0 .13.32c.06.1.14.17.24.23.1.05.2.08.34.08a.7.7 0 0 0 .4-.11c.1-.08.19-.17.25-.3v-1.3a.8.8 0 0 0-.25-.28.67.67 0 0 0-.4-.1.69.69 0 0 0-.34.07.69.69 0 0 0-.24.23 1.6 1.6 0 0 0-.18.72v.05ZM50 94.36a.56.56 0 0 1-.04-.13 1.8 1.8 0 0 1-.03-.17 1.3 1.3 0 0 1-.58.32 1.2 1.2 0 0 1-.66-.04.92.92 0 0 1-.31-.17.76.76 0 0 1-.27-.59.82.82 0 0 1 .35-.7c.12-.07.25-.12.41-.16.16-.04.34-.06.53-.06h.53v-.22a.5.5 0 0 0-.18-.4.62.62 0 0 0-.21-.11.9.9 0 0 0-.28-.04c-.1 0-.18.01-.25.04a.63.63 0 0 0-.2.1.44.44 0 0 0-.11.14.36.36 0 0 0-.05.16h-.48c0-.1.03-.2.08-.3a.9.9 0 0 1 .22-.26c.1-.08.21-.14.35-.2a1.58 1.58 0 0 1 .91-.01c.14.04.26.1.36.18a.85.85 0 0 1 .32.7v1.31a1.84 1.84 0 0 0 .1.57v.04H50Zm-.84-.36a.91.91 0 0 0 .65-.27c.05-.05.09-.1.12-.16V93h-.45c-.16 0-.31.02-.43.04a.7.7 0 0 0-.3.13l-.12.15a.53.53 0 0 0 0 .39c.02.06.06.1.1.15.05.04.11.08.18.1.07.02.15.04.25.04Zm3.33-3.12v.68h1.06v.37h-1.06v1.52c0 .11.01.2.04.27a.42.42 0 0 0 .28.26c.06.02.13.03.2.03a1.72 1.72 0 0 0 .32-.03 5.46 5.46 0 0 0 .26-.06l.07.34a.71.71 0 0 1-.14.07 1.64 1.64 0 0 1-.4.07l-.23.01c-.12 0-.24-.01-.35-.05a.73.73 0 0 1-.28-.17.8.8 0 0 1-.19-.3 1.3 1.3 0 0 1-.07-.44v-1.52h-.73v-.37H52v-.68h.49Zm3.29 3.53c-.2 0-.38-.03-.55-.1a1.24 1.24 0 0 1-.7-.71c-.06-.17-.1-.35-.1-.54v-.11c0-.23.04-.43.12-.6.07-.19.17-.34.29-.46a1.26 1.26 0 0 1 .88-.39c.2 0 .38.04.53.11.15.07.27.17.37.29.1.12.18.27.23.44.05.16.07.35.07.54v.22h-2v.01c.01.14.04.26.08.36a.91.91 0 0 0 .45.48c.1.05.23.07.35.07a.98.98 0 0 0 .8-.38l.29.23c-.1.14-.24.27-.42.38-.19.1-.42.16-.7.16Zm-.06-2.51a.71.71 0 0 0-.5.2.92.92 0 0 0-.19.26c-.04.1-.08.21-.1.34h1.51v-.02a.88.88 0 0 0-.05-.28.8.8 0 0 0-.13-.26.66.66 0 0 0-.54-.24Zm5.91 2.46v-2.43h-.77v-.37h.77v-.2c0-.18.03-.34.08-.47a.93.93 0 0 1 .57-.55 1.37 1.37 0 0 1 .66-.06 2.56 2.56 0 0 1 .46.09l-.06.4a1.74 1.74 0 0 0-.55-.1c-.1 0-.2.02-.29.05a.51.51 0 0 0-.34.33.98.98 0 0 0-.04.3v.2h1.08v.38h-1.1v2.43h-.49Zm4.31-2.86a2.18 2.18 0 0 1 .5.07l-.07.47a2.32 2.32 0 0 0-.53-.06c-.11 0-.22.02-.32.05a.73.73 0 0 0-.41.3 1 1 0 0 0-.12.23v1.8h-.48v-2.8h.45l.03.37V92c.11-.15.25-.27.4-.36.17-.1.35-.14.55-.14Zm1.22 1.43c0-.2.03-.39.09-.56.06-.17.14-.33.25-.45a1.23 1.23 0 0 1 .93-.41 1.23 1.23 0 0 1 .94.4 1.69 1.69 0 0 1 .35 1.02V93a1.69 1.69 0 0 1-.35 1.01 1.18 1.18 0 0 1-.93.41c-.2 0-.38-.03-.54-.1a1.15 1.15 0 0 1-.4-.3c-.1-.13-.2-.28-.25-.46a1.74 1.74 0 0 1-.09-.56v-.06Zm.48.06c0 .14.02.27.05.4.03.12.08.23.15.33a.71.71 0 0 0 .6.3.7.7 0 0 0 .34-.08c.1-.05.19-.13.25-.22a1.33 1.33 0 0 0 .2-.73v-.06c0-.13-.02-.26-.05-.39a1.04 1.04 0 0 0-.15-.33.75.75 0 0 0-.25-.23.68.68 0 0 0-.35-.08.68.68 0 0 0-.34.08.73.73 0 0 0-.25.23 1 1 0 0 0-.15.33c-.03.13-.05.26-.05.4v.05Zm3.06-1.43.02.26a.6.6 0 0 1 .22-.23.7.7 0 0 1 .54-.06l.16.07c.03.02.06.05.08.09.03.03.05.07.07.12a.66.66 0 0 1 .2-.2.68.68 0 0 1 .35-.1c.1 0 .19 0 .26.04a.5.5 0 0 1 .34.37c.03.1.04.21.04.35v2.1h-.45v-2.1l-.02-.16a.3.3 0 0 0-.06-.12.26.26 0 0 0-.1-.06.42.42 0 0 0-.15-.02c-.05 0-.1 0-.14.02a.3.3 0 0 0-.1.07.3.3 0 0 0-.07.1.4.4 0 0 0-.03.11v2.15h-.46v-2.1c0-.06 0-.11-.02-.16a.26.26 0 0 0-.06-.1.22.22 0 0 0-.1-.07.5.5 0 0 0-.29 0 .3.3 0 0 0-.16.12.4.4 0 0 0-.04.08v2.23h-.46v-2.8h.43Zm7.96 1.82H77.4l-.3.98h-.48l1.22-3.77h.4l1.2 3.77h-.48l-.3-.98Zm-1.13-.41h1l-.5-1.64-.5 1.64Zm2.47 1.4v-3.78h.88a1.98 1.98 0 0 1 .77.16 1.42 1.42 0 0 1 .7.68 2.3 2.3 0 0 1 .2.9v.28a2.19 2.19 0 0 1-.2.89 1.48 1.48 0 0 1-.97.8c-.15.04-.32.06-.5.06H80Zm.49-3.39v2.99h.39c.13 0 .26-.02.37-.05a1.04 1.04 0 0 0 .7-.68c.04-.09.07-.19.09-.3l.03-.33v-.28a2.11 2.11 0 0 0-.12-.64 1.18 1.18 0 0 0-.19-.33.9.9 0 0 0-.28-.23 1.4 1.4 0 0 0-.6-.15h-.4Zm2.74 3.38V90.6h1.13c.15 0 .3.02.45.06.15.04.28.1.4.18a1 1 0 0 1 .28.3.91.91 0 0 1 .05.73.74.74 0 0 1-.12.22.85.85 0 0 1-.18.17l-.23.12v.01a.96.96 0 0 1 .5.32 1.06 1.06 0 0 1 .18.57.99.99 0 0 1-.38.8c-.11.1-.25.17-.4.22-.15.04-.3.07-.47.07h-1.2Zm.49-1.76v1.35h.74c.1 0 .2-.01.28-.04a.8.8 0 0 0 .24-.14.62.62 0 0 0 .23-.5.65.65 0 0 0-.21-.49.7.7 0 0 0-.23-.13.95.95 0 0 0-.29-.05h-.76Zm0-.4h.67c.09 0 .17-.02.26-.04a.75.75 0 0 0 .23-.12.59.59 0 0 0 .16-.2.52.52 0 0 0 .07-.25.55.55 0 0 0-.23-.45.75.75 0 0 0-.23-.1 1.18 1.18 0 0 0-.28-.04h-.65v1.2Zm-62.46 9.18H20l-.3.98h-.48l1.22-3.77h.4l1.2 3.77h-.48l-.3-.98Zm-1.13-.41h1l-.5-1.64-.5 1.64Zm2.52 2.47v-3.88h.44l.02.3a.9.9 0 0 1 .51-.32 1.18 1.18 0 0 1 .76.07c.14.07.26.17.35.3.1.12.17.27.21.45.05.17.08.37.08.58v.05a2 2 0 0 1-.08.56 1.4 1.4 0 0 1-.2.45 1 1 0 0 1-.82.41c-.11 0-.21 0-.3-.03a1.03 1.03 0 0 1-.38-.18 1.1 1.1 0 0 1-.11-.1v1.34h-.48Zm1.89-2.5c0-.14-.02-.27-.05-.4a1.03 1.03 0 0 0-.14-.32.69.69 0 0 0-.59-.3.8.8 0 0 0-.2.02.59.59 0 0 0-.17.07.6.6 0 0 0-.15.12.91.91 0 0 0-.11.17v1.35l.1.14a.74.74 0 0 0 .54.23c.13 0 .25-.03.34-.08.1-.06.18-.13.24-.23a.9.9 0 0 0 .14-.33c.03-.12.05-.25.05-.39v-.05Zm1.3 2.5v-3.88h.43l.03.3a.89.89 0 0 1 .5-.32 1.18 1.18 0 0 1 .77.07c.14.07.26.17.35.3.1.12.17.27.21.45.05.17.08.37.08.58v.05a2 2 0 0 1-.08.56 1.4 1.4 0 0 1-.2.45 1 1 0 0 1-.83.41c-.1 0-.2 0-.3-.03a1.03 1.03 0 0 1-.37-.18 1.1 1.1 0 0 1-.11-.1v1.34h-.48Zm1.89-2.5c0-.14-.02-.27-.05-.4a1.02 1.02 0 0 0-.14-.32.69.69 0 0 0-.59-.3.8.8 0 0 0-.2.02.59.59 0 0 0-.17.07.61.61 0 0 0-.15.12.92.92 0 0 0-.11.17v1.35l.1.14a.74.74 0 0 0 .54.23c.13 0 .25-.03.34-.08.1-.06.18-.13.24-.23s.11-.2.14-.33c.03-.12.05-.25.05-.39v-.05Zm1.37-2.56h1.44v3.57h.91v.41H29.1v-.41h.96V98.8h-.96v-.42Zm3.34 5.11-.16-.01-.13-.03.07-.39a1.88 1.88 0 0 0 .23.01c.07 0 .13-.01.18-.05a.7.7 0 0 0 .15-.13c.04-.05.08-.1.1-.16l.08-.13.19-.37-1.2-2.67h.53l.77 1.8.12.35.14-.33.72-1.82h.54l-1.43 3.23a1.81 1.81 0 0 1-.3.46.97.97 0 0 1-.26.17.74.74 0 0 1-.34.07Zm8-1.13-.03-.39a.93.93 0 0 1-.35.33 1 1 0 0 1-.48.11c-.15 0-.28-.02-.4-.06a.79.79 0 0 1-.3-.22.88.88 0 0 1-.2-.37 1.9 1.9 0 0 1-.07-.54v-1.66h.48v1.67c0 .15.01.28.04.38.02.1.06.18.1.24.05.06.11.1.18.12.07.03.15.04.25.04s.2-.01.28-.04a.75.75 0 0 0 .22-.1.6.6 0 0 0 .14-.13l.1-.17v-2.01h.48v2.8h-.44Zm1.34 1.08v-3.88h.44l.02.3a.89.89 0 0 1 .51-.32 1.18 1.18 0 0 1 .77.07 1 1 0 0 1 .35.3c.09.12.16.27.2.45.06.17.08.37.08.58v.05a2 2 0 0 1-.07.56 1.4 1.4 0 0 1-.21.45 1 1 0 0 1-.82.41c-.1 0-.2 0-.3-.03a1.04 1.04 0 0 1-.38-.18 1.1 1.1 0 0 1-.1-.1v1.34h-.49Zm1.9-2.5c0-.14-.02-.27-.06-.4a1.02 1.02 0 0 0-.13-.32.69.69 0 0 0-.59-.3.8.8 0 0 0-.2.02.59.59 0 0 0-.18.07.61.61 0 0 0-.15.12.92.92 0 0 0-.1.17v1.35c.02.05.05.1.1.14.03.05.07.08.12.11a.74.74 0 0 0 .41.12c.14 0 .25-.03.35-.08.1-.06.17-.13.24-.23.06-.1.1-.2.13-.33.04-.12.05-.25.05-.39v-.05Zm1.2 0c0-.21.03-.4.08-.58.05-.18.13-.33.23-.45a1 1 0 0 1 .35-.3 1 1 0 0 1 .46-.1c.17 0 .32.02.44.08a.9.9 0 0 1 .33.24v-1.45h.48v3.98h-.44l-.02-.3a1 1 0 0 1-.34.27c-.13.05-.28.08-.45.08a.97.97 0 0 1-.81-.4c-.1-.13-.17-.29-.23-.46a1.92 1.92 0 0 1-.08-.56v-.05Zm.48.05c0 .14.02.27.05.39a1 1 0 0 0 .13.32c.06.1.14.17.24.23.1.05.2.08.34.08a.7.7 0 0 0 .4-.11c.1-.08.19-.17.25-.3v-1.3a.8.8 0 0 0-.25-.28.67.67 0 0 0-.4-.1.69.69 0 0 0-.34.07.7.7 0 0 0-.24.23 1.6 1.6 0 0 0-.18.72v.05Zm4.64 1.37a.55.55 0 0 1-.04-.13 1.87 1.87 0 0 1-.03-.17 1.3 1.3 0 0 1-.58.33l-.26.02a1.2 1.2 0 0 1-.4-.06.9.9 0 0 1-.31-.18.76.76 0 0 1-.27-.59.82.82 0 0 1 .35-.7c.12-.07.25-.12.41-.16.16-.04.34-.06.53-.06h.53v-.22a.51.51 0 0 0-.39-.51.9.9 0 0 0-.28-.04c-.1 0-.18.01-.25.04a.62.62 0 0 0-.2.1.44.44 0 0 0-.11.14.37.37 0 0 0-.05.16h-.48c0-.1.03-.2.08-.3a.9.9 0 0 1 .22-.26c.1-.08.21-.14.35-.2a1.58 1.58 0 0 1 .91-.01c.14.04.26.1.36.18a.85.85 0 0 1 .32.7v1.31a1.85 1.85 0 0 0 .1.57v.04H50Zm-.84-.36a.92.92 0 0 0 .65-.27.7.7 0 0 0 .12-.16V101h-.45c-.16 0-.31.02-.43.04a.7.7 0 0 0-.3.13l-.12.15a.53.53 0 0 0 0 .39c.02.06.06.1.1.15.05.04.11.08.18.1.07.02.15.04.25.04Zm3.33-3.12v.68h1.06v.37h-1.06v1.52c0 .11.01.2.04.27a.42.42 0 0 0 .28.26c.06.02.13.03.2.03a1.48 1.48 0 0 0 .32-.04 3.27 3.27 0 0 0 .26-.05l.07.34a.72.72 0 0 1-.14.07 1.69 1.69 0 0 1-.4.07l-.23.01c-.12 0-.24-.01-.35-.05a.72.72 0 0 1-.28-.17.8.8 0 0 1-.19-.3 1.3 1.3 0 0 1-.07-.44v-1.52h-.73v-.37H52v-.68h.49Zm3.29 3.53c-.2 0-.38-.03-.55-.1a1.23 1.23 0 0 1-.7-.71c-.06-.17-.1-.35-.1-.54v-.11c0-.23.04-.43.12-.6.07-.19.17-.34.29-.46a1.26 1.26 0 0 1 .88-.39c.2 0 .38.04.53.11.15.07.27.17.37.29.1.12.18.27.23.44.05.16.07.35.07.54v.22h-2v.01c.01.14.04.26.08.36a.93.93 0 0 0 .45.48.98.98 0 0 0 1.14-.3l.3.22c-.1.14-.24.27-.42.38-.19.1-.42.16-.7.16Zm-.06-2.51a.7.7 0 0 0-.28.05.7.7 0 0 0-.23.16.92.92 0 0 0-.18.25c-.04.1-.08.21-.1.34h1.51v-.02a.88.88 0 0 0-.05-.28.81.81 0 0 0-.13-.26.67.67 0 0 0-.54-.24Zm5.91 2.46v-2.43h-.77v-.37h.77v-.2c0-.18.03-.34.08-.47a.93.93 0 0 1 .57-.55 1.37 1.37 0 0 1 .66-.06 2.56 2.56 0 0 1 .46.09l-.06.4a1.74 1.74 0 0 0-.55-.1c-.1 0-.2.02-.29.05a.51.51 0 0 0-.34.33.98.98 0 0 0-.04.3v.2h1.08v.38h-1.1v2.43h-.49Zm4.31-2.86a2.18 2.18 0 0 1 .5.07l-.07.47a2.34 2.34 0 0 0-.53-.06c-.11 0-.22.02-.32.05a.75.75 0 0 0-.41.3 1 1 0 0 0-.12.23v1.8h-.48v-2.8h.45l.03.37v.07c.11-.15.25-.27.4-.36.17-.1.35-.14.55-.14Zm1.22 1.43c0-.2.03-.39.09-.56.06-.17.14-.33.25-.45a1.23 1.23 0 0 1 .93-.41 1.23 1.23 0 0 1 .94.4 1.69 1.69 0 0 1 .35 1.02v.06a1.69 1.69 0 0 1-.35 1.01 1 1 0 0 1-.4.3c-.16.08-.33.11-.53.11s-.38-.03-.54-.1a1.14 1.14 0 0 1-.4-.3c-.1-.13-.2-.29-.25-.46a1.74 1.74 0 0 1-.09-.56v-.06Zm.48.06c0 .14.02.27.05.4.03.12.08.23.15.33a.7.7 0 0 0 .6.3c.13 0 .24-.02.34-.08.1-.05.19-.13.25-.22a1.33 1.33 0 0 0 .2-.73v-.06c0-.13-.02-.26-.05-.39a1.03 1.03 0 0 0-.15-.33.75.75 0 0 0-.25-.23.68.68 0 0 0-.35-.08.68.68 0 0 0-.34.08.73.73 0 0 0-.25.23 1 1 0 0 0-.15.33c-.03.13-.05.26-.05.4v.05Zm3.06-1.43.02.26a.6.6 0 0 1 .22-.23.7.7 0 0 1 .54-.06l.16.07c.03.02.06.05.08.09.03.03.05.07.07.12a.66.66 0 0 1 .2-.2.68.68 0 0 1 .35-.1c.1 0 .19 0 .26.04a.5.5 0 0 1 .34.37c.03.1.04.21.04.35v2.1h-.45v-2.1l-.02-.16a.3.3 0 0 0-.06-.12.26.26 0 0 0-.1-.06.42.42 0 0 0-.15-.02c-.05 0-.1 0-.14.02a.3.3 0 0 0-.1.07.31.31 0 0 0-.07.1.4.4 0 0 0-.03.11v2.15h-.46v-2.1c0-.06 0-.11-.02-.16a.25.25 0 0 0-.06-.1.22.22 0 0 0-.1-.07.5.5 0 0 0-.29 0 .3.3 0 0 0-.16.12.46.46 0 0 0-.04.08v2.23h-.46v-2.8h.43Zm8.14 1.85a.52.52 0 0 0-.08-.3.7.7 0 0 0-.2-.2c-.09-.05-.18-.1-.28-.13l-.29-.1c-.13-.04-.26-.1-.4-.16a1.87 1.87 0 0 1-.38-.22c-.1-.09-.2-.2-.28-.31a.83.83 0 0 1-.1-.43c0-.16.03-.3.1-.43.08-.13.17-.24.29-.33a1.46 1.46 0 0 1 1.31-.19c.15.06.29.14.4.24.12.1.22.21.29.35.07.14.1.3.1.47h-.48l-.09-.3a.67.67 0 0 0-.4-.38.95.95 0 0 0-.58-.02.7.7 0 0 0-.22.13.6.6 0 0 0-.16.2.56.56 0 0 0 .02.53c.06.08.12.14.2.2l.27.12.27.1.42.15a1.22 1.22 0 0 1 .66.56c.07.13.1.28.1.44 0 .17-.03.32-.1.45a.99.99 0 0 1-.3.3 1 1 0 0 1-.4.2 1.67 1.67 0 0 1-.98-.03 1.34 1.34 0 0 1-.45-.26c-.12-.1-.21-.21-.28-.34a1.1 1.1 0 0 1-.1-.45h.49c.01.12.04.23.1.32.04.09.1.16.18.22a.8.8 0 0 0 .26.15 1.1 1.1 0 0 0 .6.01c.1-.02.18-.06.25-.1a.52.52 0 0 0 .24-.45Zm1.16.95V98.6h.88a1.98 1.98 0 0 1 .77.16 1.42 1.42 0 0 1 .7.68 2.3 2.3 0 0 1 .2.9v.28a2.19 2.19 0 0 1-.2.89 1.48 1.48 0 0 1-.97.8c-.15.04-.32.06-.5.06H80Zm.49-3.38v2.99h.39c.13 0 .26-.02.37-.05a1.03 1.03 0 0 0 .7-.68c.04-.09.07-.19.09-.3l.03-.33v-.28a2.12 2.12 0 0 0-.12-.64 1.18 1.18 0 0 0-.19-.33.9.9 0 0 0-.28-.23 1.4 1.4 0 0 0-.6-.15h-.4Zm7.13 3.04a.77.77 0 0 0 .48-.15c.06-.05.11-.1.15-.18a.44.44 0 0 0 .06-.21h.45c0 .12-.03.24-.1.35a1 1 0 0 1-.25.3.9.9 0 0 1-.36.2c-.13.06-.28.08-.43.08a1.14 1.14 0 0 1-.95-.42 1.3 1.3 0 0 1-.24-.44 1.76 1.76 0 0 1-.08-.54v-.1c0-.2.03-.37.08-.54.05-.17.13-.32.24-.45.1-.12.24-.23.4-.3.16-.08.34-.12.55-.12a1.25 1.25 0 0 1 .82.3 1 1 0 0 1 .32.72h-.45a.63.63 0 0 0-.42-.57.73.73 0 0 0-.27-.05.73.73 0 0 0-.37.09.73.73 0 0 0-.25.23c-.06.1-.1.2-.13.32s-.04.24-.04.36v.11c0 .13.01.25.04.37s.07.23.13.32c.06.1.15.18.25.24s.22.08.37.08Zm3.84.34a.55.55 0 0 1-.05-.13 1.83 1.83 0 0 1-.02-.17 1.3 1.3 0 0 1-.59.33l-.26.02c-.15 0-.28-.02-.4-.06a.9.9 0 0 1-.3-.18.76.76 0 0 1-.27-.59.82.82 0 0 1 .35-.7c.12-.07.25-.12.4-.16.17-.04.34-.06.54-.06h.52v-.22a.51.51 0 0 0-.39-.51.9.9 0 0 0-.27-.04c-.1 0-.18.01-.26.04a.63.63 0 0 0-.19.1.44.44 0 0 0-.12.14.36.36 0 0 0-.04.16h-.48c0-.1.03-.2.08-.3.05-.1.12-.18.22-.26.1-.08.21-.14.35-.2a1.58 1.58 0 0 1 .91-.01c.14.04.25.1.35.18a.85.85 0 0 1 .32.7v1.31a1.85 1.85 0 0 0 .1.57v.04h-.5Zm-.85-.36a.92.92 0 0 0 .66-.27.7.7 0 0 0 .11-.16V101h-.44c-.17 0-.31.02-.44.04a.7.7 0 0 0-.3.13l-.11.15a.53.53 0 0 0 0 .39c.02.06.05.1.1.15.05.04.1.08.18.1.07.02.15.04.24.04Zm4.03-2.5a2.18 2.18 0 0 1 .5.07l-.07.47a2.34 2.34 0 0 0-.53-.06c-.11 0-.22.02-.32.05a.75.75 0 0 0-.41.3 1 1 0 0 0-.12.23v1.8h-.48v-2.8h.45l.03.37v.07c.11-.15.25-.27.4-.36.17-.1.35-.14.55-.14Zm1.26 1.44c0-.21.03-.4.08-.58.06-.18.13-.33.23-.45.1-.13.22-.23.35-.3a1 1 0 0 1 .47-.1c.17 0 .31.02.44.08a.9.9 0 0 1 .32.24v-1.45h.48v3.98h-.44l-.02-.3c-.1.12-.2.2-.33.27-.13.05-.28.08-.46.08a.97.97 0 0 1-.8-.4c-.1-.13-.18-.29-.23-.46a1.91 1.91 0 0 1-.09-.56v-.05Zm.48.05c0 .14.02.27.05.39.03.12.07.23.14.32.06.1.13.17.23.23.1.05.2.08.34.08a.7.7 0 0 0 .4-.11c.1-.08.19-.17.25-.3v-1.3a.8.8 0 0 0-.25-.28.67.67 0 0 0-.4-.1.69.69 0 0 0-.34.07.69.69 0 0 0-.23.23.9.9 0 0 0-.14.33 1.6 1.6 0 0 0-.05.39v.05Zm-76.72 9.37-.46-3.77h.46l.27 2.6.01.15.03-.16.46-2.6h.42l.45 2.6.03.16.02-.16.27-2.6h.45l-.45 3.78h-.5l-.45-2.69-.03-.15-.03.16-.46 2.68h-.5Zm3.07-2.8h1.43v2.39h.91v.41h-2.34v-.41h.95v-1.98h-.95v-.41Zm.89-.74c0-.04 0-.08.02-.12a.25.25 0 0 1 .14-.14.34.34 0 0 1 .12-.02c.05 0 .09 0 .12.02a.2.2 0 0 1 .09.05c.03.02.05.05.06.1.02.03.02.07.02.11 0 .08-.02.14-.07.2-.05.05-.12.07-.22.07s-.16-.02-.21-.08a.28.28 0 0 1-.07-.19Zm2.22 4.62v-3.88h.43l.03.3a.9.9 0 0 1 .5-.32c.1-.02.2-.04.3-.04a.99.99 0 0 1 .82.4c.1.13.17.28.21.46.05.17.08.37.08.58v.05a2 2 0 0 1-.08.56 1.4 1.4 0 0 1-.2.45 1 1 0 0 1-.83.41c-.1 0-.2 0-.3-.03a1.03 1.03 0 0 1-.37-.18 1.1 1.1 0 0 1-.11-.1v1.34h-.48Zm1.89-2.5c0-.14-.02-.27-.05-.4a1.02 1.02 0 0 0-.14-.32.74.74 0 0 0-.24-.23.8.8 0 0 0-.55-.06.61.61 0 0 0-.17.08.61.61 0 0 0-.15.12.92.92 0 0 0-.11.17v1.35l.1.14a.74.74 0 0 0 .54.23c.13 0 .25-.03.34-.08.1-.06.18-.13.24-.23s.11-.2.14-.33c.03-.12.05-.25.05-.39v-.05Zm2.54 1.47c-.2 0-.38-.03-.55-.1a1.23 1.23 0 0 1-.7-.71c-.06-.17-.1-.35-.1-.54v-.11c0-.23.04-.43.12-.6a1.27 1.27 0 0 1 1.17-.84c.2 0 .37.03.52.1.16.07.28.17.38.29.1.12.18.27.23.44.05.16.07.35.07.54v.22h-2v.01c0 .14.04.26.08.36a.93.93 0 0 0 .45.48c.1.05.22.07.35.07a.98.98 0 0 0 .8-.38l.28.23a1.2 1.2 0 0 1-.42.38c-.18.1-.41.16-.68.16Zm-.07-2.51a.7.7 0 0 0-.27.05.7.7 0 0 0-.23.16.92.92 0 0 0-.18.25c-.05.1-.08.21-.1.34h1.51v-.02a.88.88 0 0 0-.19-.54.67.67 0 0 0-.54-.24Zm5.12 1.04c0-.21.02-.4.07-.58.06-.18.13-.33.23-.45.1-.13.22-.23.35-.3a1 1 0 0 1 .47-.1c.17 0 .31.02.44.08.12.05.23.14.32.24v-1.45h.48v3.98h-.44l-.02-.3c-.1.12-.2.2-.33.27-.13.05-.28.08-.46.08a.97.97 0 0 1-.8-.4c-.1-.13-.18-.29-.23-.46a1.91 1.91 0 0 1-.08-.56v-.05Zm.47.05c0 .14.02.27.05.39a1 1 0 0 0 .14.32c.06.1.13.17.23.23.1.05.2.08.34.08a.7.7 0 0 0 .4-.11c.1-.08.19-.17.25-.3v-1.3a.8.8 0 0 0-.25-.28.67.67 0 0 0-.4-.1.7.7 0 0 0-.34.07.7.7 0 0 0-.23.23.9.9 0 0 0-.14.33 1.6 1.6 0 0 0-.05.39v.05Zm4.65 1.37a.55.55 0 0 1-.05-.13 1.87 1.87 0 0 1-.02-.17 1.3 1.3 0 0 1-.59.33l-.26.02c-.15 0-.28-.02-.4-.06a.9.9 0 0 1-.3-.18.76.76 0 0 1-.27-.59c0-.15.03-.28.09-.4a.82.82 0 0 1 .26-.3c.11-.07.25-.12.4-.16.16-.04.34-.06.54-.06h.52v-.22a.51.51 0 0 0-.39-.51.9.9 0 0 0-.27-.04c-.1 0-.18.01-.26.04a.62.62 0 0 0-.19.1.44.44 0 0 0-.12.14.37.37 0 0 0-.04.16h-.48a.66.66 0 0 1 .3-.56c.1-.08.2-.14.34-.2a1.57 1.57 0 0 1 .91-.01c.14.04.26.1.36.18a.85.85 0 0 1 .32.7v1.31a1.85 1.85 0 0 0 .1.57v.04h-.5Zm-.85-.36a.92.92 0 0 0 .66-.27.7.7 0 0 0 .11-.16V109h-.45c-.16 0-.3.02-.43.04a.7.7 0 0 0-.3.13.48.48 0 0 0-.11.15.53.53 0 0 0 0 .39c.02.06.05.1.1.15.04.04.1.08.17.1.07.02.16.04.25.04Zm3.33-3.12v.68h1.07v.37H42.9v1.52c0 .11.01.2.04.27a.42.42 0 0 0 .28.26c.06.02.13.03.2.03a1.48 1.48 0 0 0 .33-.04 3.27 3.27 0 0 0 .26-.05l.06.34a.72.72 0 0 1-.14.07 1.69 1.69 0 0 1-.4.07l-.23.01c-.12 0-.24-.01-.35-.05a.72.72 0 0 1-.28-.17.8.8 0 0 1-.19-.3 1.3 1.3 0 0 1-.06-.44v-1.52h-.74v-.37h.74v-.68h.48Zm3.9 3.48a.55.55 0 0 1-.05-.13 1.83 1.83 0 0 1-.02-.17 1.3 1.3 0 0 1-.6.33l-.25.02a1.2 1.2 0 0 1-.4-.06.9.9 0 0 1-.31-.18.76.76 0 0 1-.26-.59c0-.15.03-.28.09-.4a.82.82 0 0 1 .26-.3c.11-.07.25-.12.4-.16.16-.04.34-.06.53-.06h.53v-.22a.51.51 0 0 0-.39-.51.9.9 0 0 0-.28-.04c-.1 0-.18.01-.25.04a.62.62 0 0 0-.2.1.44.44 0 0 0-.11.14.36.36 0 0 0-.04.16h-.49c0-.1.03-.2.08-.3a.9.9 0 0 1 .22-.26c.1-.08.21-.14.35-.2a1.57 1.57 0 0 1 .91-.01c.14.04.26.1.36.18a.85.85 0 0 1 .32.7v1.31a1.85 1.85 0 0 0 .1.57v.04h-.5Zm-.85-.36a.92.92 0 0 0 .65-.27.7.7 0 0 0 .12-.16V109h-.45c-.16 0-.3.02-.43.04a.7.7 0 0 0-.3.13l-.12.15a.53.53 0 0 0 0 .39c.02.06.06.1.1.15.05.04.11.08.18.1.07.02.15.04.25.04Zm2.82.69h-.43l1.58-4.1h.43l-1.58 4.1Zm3.28-.33v-2.43h-.78v-.37h.78v-.2c0-.18.02-.34.07-.47a.94.94 0 0 1 .57-.55 1.36 1.36 0 0 1 .66-.06 2.61 2.61 0 0 1 .46.09l-.06.4a1.87 1.87 0 0 0-.54-.1.94.94 0 0 0-.3.05.52.52 0 0 0-.2.11.54.54 0 0 0-.14.22.98.98 0 0 0-.04.3v.2h1.08v.38h-1.08v2.43h-.48Zm4.31 0a.55.55 0 0 1-.04-.13 1.83 1.83 0 0 1-.03-.17 1.3 1.3 0 0 1-.59.33l-.26.02c-.14 0-.28-.02-.4-.06a.9.9 0 0 1-.3-.18.76.76 0 0 1-.27-.59.82.82 0 0 1 .35-.7c.12-.07.25-.12.41-.16.16-.04.34-.06.53-.06h.52v-.22a.51.51 0 0 0-.39-.51.9.9 0 0 0-.27-.04c-.1 0-.18.01-.26.04a.62.62 0 0 0-.18.1.44.44 0 0 0-.13.14.36.36 0 0 0-.04.16h-.48c0-.1.03-.2.08-.3.05-.1.12-.18.22-.26.1-.08.21-.14.35-.2a1.57 1.57 0 0 1 .91-.01c.14.04.26.1.36.18a.85.85 0 0 1 .31.7v1.31a1.85 1.85 0 0 0 .1.57v.04h-.5Zm-.84-.36a.92.92 0 0 0 .65-.27.7.7 0 0 0 .12-.16V109h-.45c-.17 0-.31.02-.44.04a.7.7 0 0 0-.29.13c-.05.05-.1.1-.12.15a.53.53 0 0 0 0 .39c.02.06.06.1.1.15.05.04.1.08.18.1.07.02.15.04.24.04Zm3.38.02a.76.76 0 0 0 .48-.15c.06-.05.11-.1.15-.18a.44.44 0 0 0 .06-.21h.45c0 .12-.03.24-.1.35a1 1 0 0 1-.25.3.9.9 0 0 1-.36.2c-.14.06-.28.08-.43.08a1.14 1.14 0 0 1-.95-.42 1.3 1.3 0 0 1-.24-.44 1.76 1.76 0 0 1-.08-.54v-.1a1.57 1.57 0 0 1 .32-.99c.1-.12.24-.23.4-.3.16-.08.34-.12.55-.12a1.24 1.24 0 0 1 .82.3.95.95 0 0 1 .32.72h-.45a.63.63 0 0 0-.42-.57.72.72 0 0 0-.27-.05.73.73 0 0 0-.37.09.73.73 0 0 0-.25.23c-.06.1-.1.2-.13.32s-.04.24-.04.36v.11c0 .13.01.25.04.37s.07.23.13.32c.06.1.14.18.24.24.1.06.23.08.38.08Zm3.13-3.14v.68h1.07v.37h-1.07v1.52c0 .11.02.2.04.27a.42.42 0 0 0 .28.26l.2.03a1.48 1.48 0 0 0 .33-.04 3.27 3.27 0 0 0 .26-.05l.07.34a.72.72 0 0 1-.15.07 1.69 1.69 0 0 1-.4.07l-.22.01a.99.99 0 0 1-.35-.05.72.72 0 0 1-.28-.17.8.8 0 0 1-.2-.3 1.3 1.3 0 0 1-.06-.44v-1.52h-.74v-.37h.74v-.68h.48Zm1.92 2.05c0-.2.03-.39.09-.56.06-.17.14-.33.25-.45a1.23 1.23 0 0 1 .93-.41 1.24 1.24 0 0 1 .94.4 1.69 1.69 0 0 1 .35 1.02v.06a1.69 1.69 0 0 1-.35 1.01 1 1 0 0 1-.4.3c-.16.08-.33.11-.53.11s-.38-.03-.54-.1a1.14 1.14 0 0 1-.4-.3c-.1-.13-.2-.29-.25-.46a1.74 1.74 0 0 1-.09-.56v-.06Zm.48.06c0 .14.02.27.05.4.03.12.08.23.15.33a.7.7 0 0 0 .6.3c.13 0 .25-.02.34-.08.1-.05.19-.13.26-.22a1.33 1.33 0 0 0 .19-.73v-.06c0-.13-.01-.26-.05-.39a1.04 1.04 0 0 0-.15-.33.75.75 0 0 0-.25-.23.68.68 0 0 0-.35-.08.68.68 0 0 0-.34.08.73.73 0 0 0-.25.23 1 1 0 0 0-.15.33c-.03.13-.05.26-.05.4v.05Zm4.68-1.49a2.03 2.03 0 0 1 .5.07l-.07.47a2.34 2.34 0 0 0-.53-.06c-.12 0-.22.02-.32.05a.75.75 0 0 0-.41.3 1 1 0 0 0-.12.23v1.8h-.48v-2.8h.45l.02.37v.07c.12-.15.26-.27.42-.36a1 1 0 0 1 .54-.14Zm1.58 4-.16-.02-.14-.03.08-.39a1.87 1.87 0 0 0 .23.01c.07 0 .13-.01.18-.05a.7.7 0 0 0 .15-.13l.1-.16.08-.13.19-.37-1.21-2.67h.54l.77 1.8.12.35.13-.33.73-1.82h.53l-1.42 3.23a1.8 1.8 0 0 1-.31.46.97.97 0 0 1-.26.17.7.7 0 0 1-.33.07Zm7.99-4a2.03 2.03 0 0 1 .5.07l-.07.47a2.34 2.34 0 0 0-.53-.06c-.12 0-.22.02-.32.05a.75.75 0 0 0-.42.3l-.11.23v1.8h-.49v-2.8h.46l.02.37v.07c.12-.15.25-.27.41-.36.16-.1.35-.14.55-.14Zm2.59 2.91c-.2 0-.38-.03-.54-.1a1.23 1.23 0 0 1-.7-.71 1.4 1.4 0 0 1-.1-.54v-.11c0-.23.04-.43.1-.6.08-.19.18-.34.3-.46a1.27 1.27 0 0 1 .88-.39c.2 0 .38.04.53.11.15.07.28.17.38.29.1.12.17.27.22.44.05.16.07.35.07.54v.22h-2v.01c.01.14.04.26.08.36a.93.93 0 0 0 .45.48c.1.05.23.07.36.07a.98.98 0 0 0 .78-.38l.3.23c-.1.14-.24.27-.42.38-.19.1-.42.16-.69.16Zm-.06-2.51a.7.7 0 0 0-.28.05.7.7 0 0 0-.23.16.92.92 0 0 0-.18.25c-.04.1-.08.21-.1.34h1.51v-.02a.88.88 0 0 0-.05-.28.81.81 0 0 0-.13-.26.67.67 0 0 0-.54-.24Zm3.87 1.72c0-.06 0-.11-.03-.16a.34.34 0 0 0-.11-.12.87.87 0 0 0-.22-.1c-.08-.04-.2-.07-.33-.1l-.44-.11a1.4 1.4 0 0 1-.33-.17.72.72 0 0 1-.22-.23.66.66 0 0 1 0-.63c.05-.1.13-.18.22-.25.1-.08.22-.14.35-.18a1.5 1.5 0 0 1 .91 0c.14.05.25.1.35.19.1.08.17.17.22.28.06.1.09.22.09.34h-.48a.36.36 0 0 0-.05-.18.51.51 0 0 0-.13-.15.78.78 0 0 0-.47-.15 1 1 0 0 0-.27.03.6.6 0 0 0-.19.1.38.38 0 0 0-.11.13.34.34 0 0 0-.04.15c0 .06 0 .1.03.15a.3.3 0 0 0 .1.12l.21.09.33.08a2.78 2.78 0 0 1 .81.29c.09.07.16.15.2.24a.68.68 0 0 1-.01.64.78.78 0 0 1-.23.27c-.1.07-.22.12-.36.16a1.7 1.7 0 0 1-.96-.01 1.2 1.2 0 0 1-.38-.2.78.78 0 0 1-.32-.63h.48c0 .09.03.17.08.24.05.06.1.12.17.16.07.04.15.07.23.09.08.02.16.02.25.02.12 0 .23-.01.33-.04s.17-.07.22-.13a.35.35 0 0 0 .08-.1.31.31 0 0 0 .02-.13Zm2.57.8c-.2 0-.38-.04-.55-.1a1.23 1.23 0 0 1-.7-.72c-.06-.17-.1-.35-.1-.54v-.11c0-.23.04-.43.12-.6a1.28 1.28 0 0 1 1.17-.84c.2 0 .37.03.52.1.16.07.28.17.38.29.1.12.18.27.23.44.05.16.07.35.07.54v.22h-2v.01c0 .14.04.26.08.36a.93.93 0 0 0 .45.48c.1.05.22.07.35.07a.98.98 0 0 0 .8-.38l.29.23c-.1.14-.24.27-.42.38-.19.1-.42.16-.7.16Zm-.06-2.52a.7.7 0 0 0-.28.05.7.7 0 0 0-.23.16.92.92 0 0 0-.18.25c-.05.1-.08.21-.1.34h1.51v-.02a.88.88 0 0 0-.18-.54.67.67 0 0 0-.54-.24Zm3.14-1.02v.68h1.07v.37h-1.07v1.52c0 .11.02.2.04.27a.42.42 0 0 0 .28.26l.2.03a1.48 1.48 0 0 0 .33-.04 3.32 3.32 0 0 0 .26-.05l.07.34a.72.72 0 0 1-.15.07 1.7 1.7 0 0 1-.4.07l-.22.01a.99.99 0 0 1-.35-.05.72.72 0 0 1-.28-.17.8.8 0 0 1-.2-.3 1.3 1.3 0 0 1-.06-.44v-1.52h-.74v-.37h.74v-.68h.48Zm-70.76 7.7.61 1.9.67-1.9h.6v3.78h-.47v-1.5l.03-1.58-.7 2.03h-.27l-.64-1.98.04 1.53v1.5h-.47v-3.77h.6Zm2.53 2.35c0-.2.02-.39.08-.56.06-.17.15-.33.26-.45a1.23 1.23 0 0 1 .93-.41 1.24 1.24 0 0 1 .94.4 1.69 1.69 0 0 1 .34 1.02v.06c0 .2-.03.39-.1.56a1.17 1.17 0 0 1-.65.75c-.15.08-.33.11-.53.11s-.37-.03-.53-.1a1.14 1.14 0 0 1-.4-.3c-.11-.13-.2-.29-.26-.46a1.74 1.74 0 0 1-.08-.56v-.06Zm.47.06c0 .14.02.27.05.4.04.12.09.23.15.33a.7.7 0 0 0 .6.3c.13 0 .25-.02.35-.08.1-.05.18-.13.25-.22.07-.1.11-.2.15-.33.03-.13.05-.26.05-.4v-.06c0-.13-.02-.26-.06-.39a1.03 1.03 0 0 0-.14-.33.75.75 0 0 0-.25-.23.68.68 0 0 0-.35-.08.68.68 0 0 0-.35.08.73.73 0 0 0-.25.23 1 1 0 0 0-.15.33c-.03.13-.05.26-.05.4v.05Zm4.7 1.37-.03-.39c-.1.14-.21.25-.35.33a1 1 0 0 1-.49.11c-.14 0-.28-.02-.4-.06a.79.79 0 0 1-.3-.22 1 1 0 0 1-.2-.37 1.9 1.9 0 0 1-.07-.54v-1.66h.48v1.67c0 .15.02.28.04.38.02.1.06.18.1.24.06.06.12.1.19.12a.92.92 0 0 0 .53 0 .75.75 0 0 0 .22-.1.6.6 0 0 0 .13-.13l.1-.17v-2.01h.48v2.8h-.43Zm1.34 0v-2.8h.43l.03.41a1.26 1.26 0 0 1 .3-.29.9.9 0 0 1 .26-.13 1.1 1.1 0 0 1 .71.02c.13.04.23.1.31.2.09.08.15.2.2.33.04.13.07.3.07.48v1.78h-.48v-1.77c0-.12-.02-.23-.04-.32a.52.52 0 0 0-.13-.2.5.5 0 0 0-.2-.12.91.91 0 0 0-.51 0 .85.85 0 0 0-.21.1.96.96 0 0 0-.26.3v2.01h-.48Zm4.32-3.48v.68h1.07v.37h-1.07v1.52c0 .11.02.2.04.27a.42.42 0 0 0 .28.26l.2.03a1.48 1.48 0 0 0 .33-.04 3.27 3.27 0 0 0 .26-.05l.07.34a.73.73 0 0 1-.15.07 1.69 1.69 0 0 1-.4.07l-.22.01a.99.99 0 0 1-.35-.05.72.72 0 0 1-.28-.17.8.8 0 0 1-.2-.3 1.3 1.3 0 0 1-.06-.44v-1.52h-.74v-.37h.74v-.68h.48Zm5.88 3.8h-.43l1.57-4.1h.43l-1.57 4.1Zm4.42-1.06a.3.3 0 0 0-.04-.16.35.35 0 0 0-.11-.12.87.87 0 0 0-.21-.1l-.33-.1-.44-.11a1.4 1.4 0 0 1-.34-.17.71.71 0 0 1-.22-.23.66.66 0 0 1 0-.63c.06-.1.13-.18.23-.25a1 1 0 0 1 .34-.18 1.5 1.5 0 0 1 .91 0c.14.05.26.1.36.19a.83.83 0 0 1 .3.62h-.48a.36.36 0 0 0-.05-.18.51.51 0 0 0-.13-.15.78.78 0 0 0-.47-.15 1 1 0 0 0-.26.03.6.6 0 0 0-.2.1.38.38 0 0 0-.1.13.34.34 0 0 0-.05.15c0 .06.01.1.03.15a.3.3 0 0 0 .11.12l.2.09.33.08a2.53 2.53 0 0 1 .81.29c.1.07.16.15.21.24a.68.68 0 0 1-.01.64.78.78 0 0 1-.23.27c-.1.07-.22.12-.36.16a1.7 1.7 0 0 1-.97-.01 1.2 1.2 0 0 1-.37-.2.79.79 0 0 1-.32-.63h.48c0 .09.03.17.07.24a.68.68 0 0 0 .4.25c.09.02.17.02.25.02.13 0 .24-.01.33-.04.1-.03.17-.07.23-.13a.35.35 0 0 0 .07-.1.31.31 0 0 0 .03-.13Zm1.55 1.87-.16-.01-.14-.03.08-.39a1.87 1.87 0 0 0 .23.01.3.3 0 0 0 .18-.05.7.7 0 0 0 .15-.13l.1-.16.07-.13.2-.37-1.21-2.67h.53l.77 1.8.13.35.13-.33.72-1.82h.54l-1.42 3.23a1.8 1.8 0 0 1-.31.46.97.97 0 0 1-.26.17.7.7 0 0 1-.33.07Zm4.83-1.87a.42.42 0 0 0-.04-.16.34.34 0 0 0-.11-.12.87.87 0 0 0-.21-.1l-.33-.1-.44-.11a1.4 1.4 0 0 1-.34-.17.72.72 0 0 1-.22-.23.66.66 0 0 1 0-.63c.05-.1.13-.18.23-.25.1-.08.2-.14.34-.18a1.5 1.5 0 0 1 .91 0c.14.05.26.1.35.19a.77.77 0 0 1 .31.62H50a.36.36 0 0 0-.05-.18.51.51 0 0 0-.13-.15.78.78 0 0 0-.47-.15 1 1 0 0 0-.27.03.6.6 0 0 0-.18.1.38.38 0 0 0-.12.13.34.34 0 0 0-.04.15c0 .06.01.1.03.15a.3.3 0 0 0 .11.12l.2.09.33.08a2.53 2.53 0 0 1 .81.29c.1.07.16.15.21.24a.68.68 0 0 1-.01.64.78.78 0 0 1-.23.27c-.1.07-.22.12-.36.16a1.7 1.7 0 0 1-.97-.01 1.2 1.2 0 0 1-.38-.2.78.78 0 0 1-.32-.63h.48c.01.09.04.17.08.24a.68.68 0 0 0 .4.25c.08.02.17.02.25.02.13 0 .24-.01.33-.04.1-.03.17-.07.22-.13a.35.35 0 0 0 .08-.1.31.31 0 0 0 .03-.13Zm2.46-2.74v.68h1.06v.37h-1.06v1.52c0 .11.01.2.04.27a.42.42 0 0 0 .28.26c.06.02.13.03.2.03a1.48 1.48 0 0 0 .32-.04 3.27 3.27 0 0 0 .26-.05l.07.34a.72.72 0 0 1-.14.07 1.69 1.69 0 0 1-.4.07l-.23.01c-.12 0-.24-.01-.35-.05a.72.72 0 0 1-.28-.17.8.8 0 0 1-.19-.3 1.3 1.3 0 0 1-.07-.44v-1.52h-.73v-.37H52v-.68h.49Zm3.29 3.53c-.2 0-.38-.03-.55-.1a1.23 1.23 0 0 1-.7-.71c-.06-.17-.1-.35-.1-.54v-.11c0-.23.04-.43.12-.6a1.27 1.27 0 0 1 1.17-.84c.2 0 .38.03.53.1.15.07.27.17.37.29.1.12.18.27.23.44.05.16.07.35.07.54v.22h-2v.01c.01.14.04.26.08.36a.93.93 0 0 0 .45.48.98.98 0 0 0 1.14-.3l.3.22c-.1.14-.24.27-.42.38-.19.1-.42.16-.7.16Zm-.06-2.51a.7.7 0 0 0-.28.05.7.7 0 0 0-.23.16.92.92 0 0 0-.18.25c-.04.1-.08.21-.1.34h1.51v-.02a.88.88 0 0 0-.05-.28.81.81 0 0 0-.13-.26.67.67 0 0 0-.54-.24Zm2.23-.34.01.26a.7.7 0 0 1 .22-.23.72.72 0 0 1 .54-.06.5.5 0 0 1 .16.07l.09.09c.03.03.05.07.07.12a.62.62 0 0 1 .55-.3c.1 0 .18 0 .26.04.08.03.14.07.2.12.05.06.1.15.13.25s.05.21.05.35v2.1h-.46v-2.1c0-.07 0-.12-.02-.16a.3.3 0 0 0-.06-.12.27.27 0 0 0-.1-.06.42.42 0 0 0-.14-.02c-.06 0-.1 0-.15.03a.3.3 0 0 0-.1.06.3.3 0 0 0-.07.1.39.39 0 0 0-.03.11v2.15h-.46v-2.1c0-.06 0-.11-.02-.16a.25.25 0 0 0-.06-.1.22.22 0 0 0-.1-.07.49.49 0 0 0-.29 0 .28.28 0 0 0-.1.06.36.36 0 0 0-.06.06.47.47 0 0 0-.04.08v2.23h-.45v-2.8h.43Zm-37.56 10.8-1.2-3.77h.52l.83 2.81.05.19.06-.19.83-2.81h.51l-1.19 3.77h-.41Zm2.34-2.8h1.43v2.39h.91v.41h-2.34v-.41h.95v-1.98h-.95v-.41Zm.89-.74c0-.04 0-.08.02-.12a.25.25 0 0 1 .14-.14.34.34 0 0 1 .12-.02c.05 0 .09 0 .12.02a.2.2 0 0 1 .09.05c.03.02.05.05.06.1.02.03.02.07.02.11 0 .08-.02.14-.07.2-.05.05-.12.07-.22.07s-.16-.02-.21-.08a.28.28 0 0 1-.07-.19Zm3.46 3.6c-.2 0-.38-.04-.55-.1a1.23 1.23 0 0 1-.7-.72c-.06-.17-.1-.35-.1-.54v-.11c0-.23.04-.43.12-.6a1.28 1.28 0 0 1 1.17-.84c.2 0 .37.03.52.1.16.07.28.17.38.29.1.12.18.27.23.44.05.16.07.35.07.54v.22h-2v.01c.01.14.04.26.08.36a.93.93 0 0 0 .45.48c.1.05.22.07.35.07a.98.98 0 0 0 .8-.38l.29.23c-.1.14-.24.27-.42.38-.19.1-.42.16-.7.16ZM27 123.9a.7.7 0 0 0-.28.05.7.7 0 0 0-.23.16.92.92 0 0 0-.18.25c-.05.1-.08.21-.1.34h1.51v-.02a.88.88 0 0 0-.05-.28.81.81 0 0 0-.13-.26.67.67 0 0 0-.54-.24Zm2.28 2.46-.6-2.8h.43l.32 1.78.06.4.07-.4.45-1.78h.3l.45 1.78.08.45.07-.45.3-1.78h.43l-.6 2.8h-.37l-.44-1.72-.07-.43-.07.43-.43 1.72h-.38Zm7.94-2.86a2.03 2.03 0 0 1 .5.07l-.07.47a2.34 2.34 0 0 0-.53-.06c-.11 0-.22.02-.32.05a.74.74 0 0 0-.41.3 1 1 0 0 0-.12.23v1.8h-.48v-2.8h.45l.02.37v.07c.12-.15.26-.27.42-.36a1 1 0 0 1 .54-.14Zm2.6 2.91c-.2 0-.38-.03-.55-.1a1.23 1.23 0 0 1-.7-.71c-.06-.17-.1-.35-.1-.54v-.11c0-.23.04-.43.11-.6.08-.19.17-.34.3-.46a1.27 1.27 0 0 1 .87-.39c.2 0 .38.04.53.11.15.07.28.17.38.29.1.12.17.27.22.44.05.16.08.35.08.54v.22h-2v.01a.93.93 0 0 0 .53.83c.1.06.22.08.35.08a.98.98 0 0 0 .79-.38l.3.23a1.33 1.33 0 0 1-1.1.54Zm-.07-2.51a.7.7 0 0 0-.27.05.7.7 0 0 0-.24.16.92.92 0 0 0-.17.25c-.05.1-.08.21-.1.34h1.5v-.02a.88.88 0 0 0-.18-.54.67.67 0 0 0-.54-.24Zm3.2 2.12a.77.77 0 0 0 .48-.15c.06-.05.12-.1.15-.18a.44.44 0 0 0 .07-.21h.45c0 .12-.03.24-.1.35a1 1 0 0 1-.25.3.98.98 0 0 1-.36.2c-.14.06-.28.08-.43.08a1.14 1.14 0 0 1-.95-.42 1.3 1.3 0 0 1-.25-.44 1.76 1.76 0 0 1-.08-.54v-.1a1.61 1.61 0 0 1 .32-.99 1.25 1.25 0 0 1 .96-.42 1.24 1.24 0 0 1 .82.3c.1.09.18.2.23.32.06.13.09.26.09.4h-.45a.63.63 0 0 0-.42-.57.72.72 0 0 0-.27-.05.73.73 0 0 0-.38.09.73.73 0 0 0-.24.23c-.06.1-.1.2-.14.32l-.03.36v.11c0 .13 0 .25.03.37s.08.23.14.32c.06.1.14.18.24.24.1.06.23.08.38.08Zm1.87-1.09c0-.2.03-.39.09-.56.05-.17.14-.33.25-.45a1.23 1.23 0 0 1 .93-.41 1.24 1.24 0 0 1 .94.4 1.58 1.58 0 0 1 .34 1.02v.06c0 .2-.03.39-.09.56-.06.17-.14.33-.25.45a1.17 1.17 0 0 1-.93.41 1.14 1.14 0 0 1-.94-.4c-.11-.13-.2-.29-.25-.46a1.74 1.74 0 0 1-.1-.56v-.06Zm.48.06c0 .14.01.27.05.4a1 1 0 0 0 .15.33c.06.1.15.17.25.22.1.06.21.08.35.08.13 0 .24-.02.34-.08.1-.05.18-.13.25-.22.07-.1.12-.2.15-.33s.05-.26.05-.4v-.06c0-.13-.02-.26-.05-.39a1.04 1.04 0 0 0-.15-.33.75.75 0 0 0-.25-.23.68.68 0 0 0-.35-.08.68.68 0 0 0-.35.08.73.73 0 0 0-.24.23 1 1 0 0 0-.15.33c-.04.13-.05.26-.05.4v.05Zm3.8 1.37-1.16-2.8h.5l.8 2.11.04.18.05-.18.79-2.11h.49l-1.15 2.8h-.36Zm3.47.05c-.2 0-.38-.03-.54-.1a1.23 1.23 0 0 1-.7-.71 1.4 1.4 0 0 1-.1-.54v-.11c0-.23.04-.43.1-.6.08-.19.18-.34.3-.46a1.28 1.28 0 0 1 .88-.39c.2 0 .38.04.53.11.15.07.27.17.38.29.1.12.17.27.22.44.05.16.07.35.07.54v.22h-2v.01c.01.14.04.26.08.36a.93.93 0 0 0 .45.48c.1.05.23.07.36.07a.98.98 0 0 0 .78-.38l.3.23c-.1.14-.24.27-.42.38-.19.1-.42.16-.69.16Zm-.06-2.51a.7.7 0 0 0-.28.05.7.7 0 0 0-.23.16.92.92 0 0 0-.18.25c-.04.1-.08.21-.1.34h1.51v-.02a.88.88 0 0 0-.18-.54.67.67 0 0 0-.54-.24Zm3.85-.4a2.03 2.03 0 0 1 .49.07l-.06.47a2.34 2.34 0 0 0-.53-.06c-.12 0-.23.02-.32.05a.75.75 0 0 0-.42.3 1 1 0 0 0-.12.23v1.8h-.48v-2.8h.46l.02.37v.07c.12-.15.25-.27.41-.36a1 1 0 0 1 .55-.14Zm1.57 4-.15-.02-.14-.03.08-.39a1.87 1.87 0 0 0 .22.01c.07 0 .13-.01.18-.05a.7.7 0 0 0 .15-.13 2.84 2.84 0 0 0 .18-.29l.2-.37-1.22-2.67h.54l.77 1.8.12.35.14-.33.72-1.82h.54l-1.43 3.23a1.81 1.81 0 0 1-.3.46.97.97 0 0 1-.26.17.74.74 0 0 1-.34.07Zm6.23-5.12h1.44v3.57h.91v.41h-2.35v-.41h.96v-3.15h-.96v-.42Zm2.98 2.55c0-.2.03-.39.09-.56.06-.17.14-.33.25-.45a1.23 1.23 0 0 1 .93-.41 1.24 1.24 0 0 1 .94.4 1.69 1.69 0 0 1 .35 1.02v.06a1.69 1.69 0 0 1-.35 1.01 1 1 0 0 1-.4.3c-.16.08-.33.11-.53.11s-.38-.03-.54-.1a1.14 1.14 0 0 1-.4-.3c-.1-.13-.2-.29-.25-.46a1.74 1.74 0 0 1-.09-.56v-.06Zm.48.06c0 .14.02.27.05.4.03.12.08.23.15.33a.7.7 0 0 0 .6.3c.13 0 .24-.02.34-.08.1-.05.19-.13.25-.22a1.33 1.33 0 0 0 .2-.73v-.06c0-.13-.02-.26-.05-.39a1.03 1.03 0 0 0-.15-.33.75.75 0 0 0-.25-.23.68.68 0 0 0-.35-.08.68.68 0 0 0-.34.08.73.73 0 0 0-.25.23 1 1 0 0 0-.15.33c-.03.13-.05.26-.05.4v.05Zm2.76-.05c0-.21.02-.4.07-.58.05-.18.13-.33.22-.45a1.01 1.01 0 0 1 .82-.4.9.9 0 0 1 .79.36l.03-.31h.43v2.74c0 .19-.03.35-.09.5a.88.88 0 0 1-.24.36 1 1 0 0 1-.37.23 1.42 1.42 0 0 1-1.02-.03 1.5 1.5 0 0 1-.28-.15.92.92 0 0 1-.22-.23l.24-.29a1.16 1.16 0 0 0 .38.3.9.9 0 0 0 .38.08.9.9 0 0 0 .3-.04.62.62 0 0 0 .38-.38c.05-.1.06-.2.06-.32v-.25a.95.95 0 0 1-.24.2 1.18 1.18 0 0 1-.53.12.98.98 0 0 1-.81-.4c-.1-.12-.17-.28-.23-.45a1.98 1.98 0 0 1-.07-.56v-.05Zm.48.05c0 .14 0 .27.04.39.03.12.07.23.13.32.06.1.14.17.24.23a.8.8 0 0 0 .57.05.7.7 0 0 0 .17-.09.7.7 0 0 0 .14-.13c.05-.05.08-.1.11-.16v-1.29a.85.85 0 0 0-.1-.16.66.66 0 0 0-.32-.2.71.71 0 0 0-.22-.04.7.7 0 0 0-.35.08.7.7 0 0 0-.24.23c-.06.1-.1.2-.13.33-.03.12-.04.25-.04.39v.05Zm4.66.63a.3.3 0 0 0-.04-.16.34.34 0 0 0-.11-.12.87.87 0 0 0-.21-.1l-.33-.1-.44-.11a1.4 1.4 0 0 1-.34-.17.72.72 0 0 1-.22-.23.66.66 0 0 1 0-.63c.06-.1.13-.18.23-.25.1-.08.2-.14.34-.18a1.5 1.5 0 0 1 .91 0c.14.05.26.1.35.19a.77.77 0 0 1 .31.62h-.48a.36.36 0 0 0-.05-.18.51.51 0 0 0-.13-.15.78.78 0 0 0-.47-.15 1 1 0 0 0-.26.03.6.6 0 0 0-.2.1.38.38 0 0 0-.11.13.33.33 0 0 0-.04.15c0 .06.01.1.03.15a.3.3 0 0 0 .11.12l.2.09.33.08a2.53 2.53 0 0 1 .81.29c.1.07.16.15.21.24a.68.68 0 0 1-.01.64.78.78 0 0 1-.23.27c-.1.07-.22.12-.36.16a1.7 1.7 0 0 1-.97-.01 1.2 1.2 0 0 1-.38-.2.78.78 0 0 1-.32-.63h.49c0 .09.03.17.07.24a.68.68 0 0 0 .4.25c.09.02.17.02.25.02.13 0 .24-.01.33-.04.1-.03.17-.07.23-.13a.35.35 0 0 0 .07-.1.31.31 0 0 0 .03-.13Zm-54.83 7.2h-.75v1.54h-.48v-3.77h1.1c.18 0 .35.03.5.07a1.06 1.06 0 0 1 .69.56 1.13 1.13 0 0 1-.1 1.11 1.44 1.44 0 0 1-.5.38l.79 1.62v.03h-.5l-.75-1.54Zm-.75-.4h.64a1 1 0 0 0 .3-.04c.1-.03.18-.08.25-.14a.66.66 0 0 0 .23-.53.77.77 0 0 0-.05-.31.65.65 0 0 0-.42-.37c-.1-.03-.2-.05-.32-.05h-.63v1.45Zm4.54 1.94-.03-.39c-.1.14-.21.25-.35.33a1 1 0 0 1-.48.11c-.15 0-.28-.02-.4-.06a.79.79 0 0 1-.31-.22c-.08-.1-.15-.22-.2-.37a1.9 1.9 0 0 1-.06-.54v-1.66h.48v1.67c0 .15 0 .28.03.38.03.1.06.18.11.24s.1.1.18.12a.92.92 0 0 0 .53 0 .75.75 0 0 0 .22-.1.6.6 0 0 0 .13-.13c.04-.06.08-.11.1-.17v-2.01h.48v2.8h-.43Zm1.34 0v-2.8h.43l.03.41a1.26 1.26 0 0 1 .3-.29 1.1 1.1 0 0 1 .98-.11c.12.04.22.1.3.2.09.08.15.2.2.33.05.13.07.3.07.48v1.78h-.48v-1.77c0-.12-.01-.23-.04-.32a.52.52 0 0 0-.12-.2.5.5 0 0 0-.2-.12.91.91 0 0 0-.52 0 .85.85 0 0 0-.21.1.95.95 0 0 0-.26.3v2.01h-.48Zm6.29-1.42c0-.21.02-.4.07-.58.06-.18.13-.33.23-.45a1 1 0 0 1 .35-.3c.14-.07.3-.1.47-.1a.9.9 0 0 1 .79.36l.02-.31h.44v2.74c0 .19-.03.35-.1.5a1.02 1.02 0 0 1-.6.59 1.42 1.42 0 0 1-1.02-.03c-.1-.04-.2-.09-.28-.15a.92.92 0 0 1-.23-.23l.25-.29a1.16 1.16 0 0 0 .37.3.9.9 0 0 0 .38.08.9.9 0 0 0 .31-.05c.1-.03.17-.08.24-.14a.62.62 0 0 0 .14-.23c.04-.1.06-.2.06-.33v-.24a.94.94 0 0 1-.78.33.98.98 0 0 1-.81-.4c-.1-.13-.17-.28-.22-.46a1.97 1.97 0 0 1-.08-.56v-.05Zm.48.05c0 .14.01.27.04.39a1 1 0 0 0 .14.32c.06.1.14.17.23.23a.8.8 0 0 0 .57.05.7.7 0 0 0 .18-.09.7.7 0 0 0 .14-.13c.04-.05.08-.1.1-.16v-1.29a.86.86 0 0 0-.1-.16.66.66 0 0 0-.32-.2.71.71 0 0 0-.22-.04.7.7 0 0 0-.35.08.7.7 0 0 0-.23.23c-.06.1-.11.2-.14.33-.03.12-.04.25-.04.39v.05Zm4.63-1.49a2.03 2.03 0 0 1 .5.07l-.07.47a2.34 2.34 0 0 0-.53-.06c-.11 0-.22.02-.32.05a.74.74 0 0 0-.41.3 1 1 0 0 0-.12.23v1.8h-.48v-2.8h.45l.02.37v.07c.12-.15.26-.27.42-.36a1 1 0 0 1 .54-.14Zm3.2 2.86a.55.55 0 0 1-.05-.13 1.87 1.87 0 0 1-.02-.17 1.3 1.3 0 0 1-.59.32 1.18 1.18 0 0 1-.66-.04.9.9 0 0 1-.3-.17.76.76 0 0 1-.27-.59c0-.15.03-.29.09-.4a.82.82 0 0 1 .26-.3c.11-.07.25-.12.4-.16.16-.04.34-.06.54-.06h.52v-.22a.51.51 0 0 0-.39-.51.9.9 0 0 0-.27-.04c-.1 0-.18.01-.26.04a.62.62 0 0 0-.19.1.44.44 0 0 0-.12.13.37.37 0 0 0-.04.17h-.48a.66.66 0 0 1 .3-.56c.1-.08.2-.15.34-.2a1.57 1.57 0 0 1 .91-.01c.14.04.26.1.36.18a.85.85 0 0 1 .32.7v1.31a1.85 1.85 0 0 0 .1.57v.04h-.5Zm-.85-.36a.92.92 0 0 0 .66-.27.7.7 0 0 0 .11-.16V133h-.45c-.16 0-.3.01-.43.04a.7.7 0 0 0-.3.13.48.48 0 0 0-.11.15.53.53 0 0 0 0 .39c.02.06.05.1.1.15.04.04.1.07.17.1.07.02.16.04.25.04Zm2.2 1.44v-3.88h.43l.02.3a.9.9 0 0 1 .51-.32c.1-.02.19-.04.3-.04a.99.99 0 0 1 .82.4c.09.13.16.28.2.46.06.17.08.37.08.58v.05a2 2 0 0 1-.07.56 1.4 1.4 0 0 1-.21.45 1 1 0 0 1-.82.41c-.1 0-.2 0-.3-.03a1.04 1.04 0 0 1-.38-.18 1.1 1.1 0 0 1-.1-.1v1.34h-.49Zm1.88-2.5c0-.14-.01-.27-.05-.4a1.02 1.02 0 0 0-.13-.32.74.74 0 0 0-.24-.23.8.8 0 0 0-.55-.06.61.61 0 0 0-.18.08.61.61 0 0 0-.15.12.92.92 0 0 0-.1.16v1.36c.02.05.05.1.1.14.03.05.07.08.12.12a.74.74 0 0 0 .41.11c.14 0 .25-.03.35-.08.1-.06.17-.13.24-.23.06-.1.1-.2.13-.33.04-.12.05-.25.05-.39v-.05Zm1.78-.97a1.04 1.04 0 0 1 .28-.28c.08-.06.17-.1.27-.14a1.14 1.14 0 0 1 .72.02c.12.04.22.1.3.2.1.09.16.2.2.34.05.13.07.3.07.49v1.76h-.48v-1.77c0-.11-.01-.2-.04-.29a.5.5 0 0 0-.32-.34.76.76 0 0 0-.27-.05.83.83 0 0 0-.73.41v2.04h-.48v-3.98h.48v1.6Zm2.79-.41h1.43v2.39h.92v.41h-2.35v-.41h.95v-1.98h-.95v-.41Zm.89-.74c0-.04 0-.08.02-.12a.25.25 0 0 1 .14-.14.34.34 0 0 1 .13-.02c.04 0 .08 0 .12.02l.08.05c.03.02.05.05.06.1.02.03.02.07.02.11 0 .08-.02.14-.07.2-.05.05-.12.07-.21.07-.1 0-.17-.02-.22-.08a.28.28 0 0 1-.07-.19Zm3.42 3.2a.77.77 0 0 0 .47-.15c.06-.05.11-.1.15-.18a.44.44 0 0 0 .06-.21h.46c0 .12-.04.24-.1.36a1 1 0 0 1-.25.3 1.3 1.3 0 0 1-.79.27 1.14 1.14 0 0 1-.95-.42 1.3 1.3 0 0 1-.25-.44 1.76 1.76 0 0 1-.08-.54v-.1c0-.2.03-.37.08-.54.05-.17.13-.32.24-.45.1-.12.24-.23.4-.3.16-.08.34-.12.56-.12a1.24 1.24 0 0 1 .81.3.95.95 0 0 1 .32.72h-.45a.63.63 0 0 0-.42-.57.72.72 0 0 0-.26-.05.73.73 0 0 0-.38.09.73.73 0 0 0-.24.23c-.07.1-.11.2-.14.32a2.2 2.2 0 0 0-.04.36v.11c0 .13.02.25.04.37.03.12.07.22.14.32.06.1.14.18.24.24.1.06.23.08.38.08Zm3.85-.4c0-.06 0-.11-.03-.16a.35.35 0 0 0-.11-.12.87.87 0 0 0-.22-.1c-.09-.04-.2-.07-.33-.1l-.44-.11a1.4 1.4 0 0 1-.33-.17.72.72 0 0 1-.22-.23.66.66 0 0 1 0-.63c.05-.1.13-.18.22-.25.1-.08.22-.14.35-.18a1.5 1.5 0 0 1 .91 0c.14.05.25.1.35.19.1.08.17.17.22.28.06.1.08.22.08.34h-.48a.36.36 0 0 0-.04-.18.51.51 0 0 0-.13-.15.78.78 0 0 0-.47-.15 1 1 0 0 0-.27.03.6.6 0 0 0-.19.1.38.38 0 0 0-.11.13.33.33 0 0 0-.04.15c0 .06 0 .1.03.15a.3.3 0 0 0 .1.11c.06.04.13.07.21.1l.33.08a2.78 2.78 0 0 1 .81.29c.09.07.16.15.2.24a.68.68 0 0 1-.01.65.78.78 0 0 1-.23.25 1 1 0 0 1-.36.17 1.7 1.7 0 0 1-.96-.01 1.2 1.2 0 0 1-.38-.2.78.78 0 0 1-.32-.64H55c0 .1.03.18.08.25.05.06.1.12.17.16.07.04.15.07.23.09.08.02.16.02.24.02.13 0 .24-.01.34-.04.1-.03.17-.07.22-.13a.35.35 0 0 0 .08-.1.31.31 0 0 0 .02-.13Zm5.65-2.74v.68h1.07v.37h-1.07v1.52c0 .11.02.2.04.27a.42.42 0 0 0 .28.26l.2.03a1.48 1.48 0 0 0 .33-.03 3.27 3.27 0 0 0 .26-.06l.07.34a.72.72 0 0 1-.15.07 1.69 1.69 0 0 1-.4.07l-.22.01a.99.99 0 0 1-.35-.05.72.72 0 0 1-.28-.17.8.8 0 0 1-.2-.3 1.3 1.3 0 0 1-.06-.44v-1.52h-.74v-.37h.74v-.68h.48Zm3.3 3.53c-.2 0-.38-.03-.55-.1a1.23 1.23 0 0 1-.7-.71c-.06-.17-.1-.35-.1-.54v-.11a1.57 1.57 0 0 1 .41-1.07 1.27 1.27 0 0 1 .87-.38c.2 0 .38.04.53.11a1.1 1.1 0 0 1 .6.73c.05.16.08.35.08.54v.22h-2v.01c0 .14.03.26.08.36a.93.93 0 0 0 .45.48c.1.05.22.07.35.07a.98.98 0 0 0 .79-.38l.3.23a1.33 1.33 0 0 1-1.1.54Zm-.07-2.51a.7.7 0 0 0-.27.05.7.7 0 0 0-.23.16.92.92 0 0 0-.18.25c-.05.1-.08.21-.1.34h1.5v-.02a.88.88 0 0 0-.18-.54.67.67 0 0 0-.54-.24Zm3.88 1.72a.41.41 0 0 0-.03-.16.35.35 0 0 0-.12-.12.87.87 0 0 0-.21-.1c-.09-.04-.2-.07-.33-.1l-.44-.11a1.4 1.4 0 0 1-.34-.17.71.71 0 0 1-.22-.23.66.66 0 0 1 0-.63c.06-.1.13-.18.23-.25a1 1 0 0 1 .34-.18 1.5 1.5 0 0 1 .91 0c.14.05.26.1.36.19a.83.83 0 0 1 .3.62h-.48a.36.36 0 0 0-.05-.18.51.51 0 0 0-.13-.15.78.78 0 0 0-.47-.15 1 1 0 0 0-.26.03.6.6 0 0 0-.2.1.38.38 0 0 0-.1.13.34.34 0 0 0-.05.15c0 .06.01.1.03.15a.3.3 0 0 0 .11.11c.05.04.12.07.2.1l.33.08a2.65 2.65 0 0 1 .81.29c.1.07.17.15.21.24a.68.68 0 0 1-.01.65.78.78 0 0 1-.23.25 1 1 0 0 1-.36.17 1.7 1.7 0 0 1-.97-.01 1.2 1.2 0 0 1-.37-.2.78.78 0 0 1-.32-.64h.48c0 .1.03.18.08.25.04.06.1.12.17.16.07.04.14.07.22.09.09.02.17.02.25.02.13 0 .24-.01.34-.04a.54.54 0 0 0 .22-.13.35.35 0 0 0 .07-.1.31.31 0 0 0 .03-.13Zm2.46-2.74v.68h1.07v.37H71.6v1.52c0 .11.01.2.04.27a.42.42 0 0 0 .28.26.7.7 0 0 0 .2.03 1.48 1.48 0 0 0 .33-.03 3.29 3.29 0 0 0 .26-.06l.06.34a.72.72 0 0 1-.14.07 1.69 1.69 0 0 1-.4.07l-.23.01c-.12 0-.24-.01-.35-.05a.72.72 0 0 1-.28-.17.8.8 0 0 1-.19-.3 1.3 1.3 0 0 1-.06-.44v-1.52h-.74v-.37h.74v-.68h.48Zm-50.9 9.94h-.76v1.54h-.48v-3.77h1.1c.18 0 .35.03.5.07a1.06 1.06 0 0 1 .69.56 1.13 1.13 0 0 1-.1 1.11 1.44 1.44 0 0 1-.5.38l.79 1.62v.03h-.5l-.75-1.54Zm-.76-.4h.64a1 1 0 0 0 .3-.04c.1-.03.18-.08.25-.14a.66.66 0 0 0 .23-.53.77.77 0 0 0-.05-.31.65.65 0 0 0-.42-.37c-.1-.03-.2-.05-.32-.05h-.63v1.45Zm4.54 1.94-.03-.39c-.1.14-.21.25-.35.33a1 1 0 0 1-.48.11c-.15 0-.28-.02-.4-.06a.79.79 0 0 1-.31-.22c-.08-.1-.15-.22-.2-.37a1.9 1.9 0 0 1-.06-.54v-1.66h.48v1.67c0 .15 0 .28.03.38.03.1.06.18.11.24s.1.1.18.12a.92.92 0 0 0 .53 0 .75.75 0 0 0 .22-.1.6.6 0 0 0 .13-.13c.04-.06.08-.11.1-.17v-2.01h.48v2.8h-.43Zm1.34 0v-2.8h.43l.03.41a1.26 1.26 0 0 1 .3-.29 1.1 1.1 0 0 1 .98-.11c.12.04.22.1.3.2.09.08.15.2.2.33.05.13.07.3.07.48v1.78h-.48v-1.77c0-.12-.01-.23-.04-.32a.52.52 0 0 0-.12-.2.5.5 0 0 0-.2-.12.91.91 0 0 0-.52 0 .85.85 0 0 0-.21.1.95.95 0 0 0-.26.3v2.01h-.48Zm6.45-3.98h1.44v3.57h.91v.41h-2.35v-.41h.96v-3.15h-.96v-.42Zm2.98 2.55c0-.2.03-.39.09-.56.06-.17.14-.33.25-.45a1.23 1.23 0 0 1 .93-.41 1.24 1.24 0 0 1 .94.4 1.69 1.69 0 0 1 .35 1.02v.06a1.69 1.69 0 0 1-.35 1.01 1 1 0 0 1-.4.3c-.16.08-.33.11-.53.11s-.38-.03-.54-.1a1.14 1.14 0 0 1-.4-.3c-.1-.13-.2-.28-.25-.46a1.74 1.74 0 0 1-.09-.56v-.06Zm.48.06c0 .14.02.27.05.4a1 1 0 0 0 .15.33.7.7 0 0 0 .6.3c.13 0 .25-.02.34-.08.1-.05.19-.13.26-.22a1.33 1.33 0 0 0 .19-.73v-.06c0-.13-.01-.26-.05-.39a1.04 1.04 0 0 0-.15-.33.75.75 0 0 0-.25-.23.68.68 0 0 0-.35-.08.68.68 0 0 0-.34.08.73.73 0 0 0-.25.23 1 1 0 0 0-.15.33c-.03.13-.05.26-.05.4v.05Zm4.04 1.03a.77.77 0 0 0 .47-.15c.07-.05.12-.1.15-.18a.44.44 0 0 0 .07-.21h.45a.7.7 0 0 1-.1.36 1 1 0 0 1-.25.3 1.23 1.23 0 0 1-.8.28c-.2 0-.39-.05-.55-.12a1.35 1.35 0 0 1-.4-.3 1.3 1.3 0 0 1-.24-.45 1.76 1.76 0 0 1-.08-.54v-.1c0-.2.03-.37.08-.54.06-.17.14-.32.25-.45.1-.12.23-.23.4-.3.15-.08.34-.12.55-.12a1.24 1.24 0 0 1 .82.3.95.95 0 0 1 .32.72h-.45a.63.63 0 0 0-.42-.57.72.72 0 0 0-.27-.05.73.73 0 0 0-.38.09.73.73 0 0 0-.24.23c-.06.1-.1.2-.13.32s-.04.24-.04.36v.11c0 .13.01.25.04.37.02.12.07.22.13.32s.14.18.24.24c.1.06.23.08.38.08Zm3.84.34a.55.55 0 0 1-.05-.13 1.83 1.83 0 0 1-.02-.17 1.3 1.3 0 0 1-.6.32 1.18 1.18 0 0 1-.66-.04.9.9 0 0 1-.3-.17.76.76 0 0 1-.26-.59c0-.15.03-.29.09-.4a.83.83 0 0 1 .26-.3c.11-.07.25-.12.4-.16.16-.04.34-.06.54-.06h.52v-.22a.51.51 0 0 0-.39-.51.9.9 0 0 0-.27-.04c-.1 0-.19.01-.26.04a.62.62 0 0 0-.19.1.44.44 0 0 0-.12.13.36.36 0 0 0-.04.17h-.49c0-.1.03-.2.08-.3a.9.9 0 0 1 .22-.26c.1-.08.22-.15.35-.2a1.57 1.57 0 0 1 .91-.01c.14.04.26.1.36.18a.85.85 0 0 1 .32.7v1.31a1.85 1.85 0 0 0 .1.57v.04h-.5Zm-.85-.36a.92.92 0 0 0 .66-.27.7.7 0 0 0 .1-.16V141h-.44c-.16 0-.3.01-.43.04a.7.7 0 0 0-.3.13.48.48 0 0 0-.11.15.54.54 0 0 0 0 .39c.01.06.05.1.1.15.04.04.1.07.17.1.07.02.16.04.25.04Zm2.27-3.62h1.43v3.57h.92v.41h-2.35v-.41h.95v-3.15h-.95v-.42Zm4.35 4.03c-.2 0-.38-.03-.54-.1a1.23 1.23 0 0 1-.7-.71 1.4 1.4 0 0 1-.1-.54v-.11c0-.23.04-.43.1-.6.08-.19.18-.34.3-.47a1.19 1.19 0 0 1 .88-.38c.2 0 .38.04.53.11.15.07.28.17.38.29.1.12.17.27.22.44.05.16.07.35.07.54v.22h-2v.01c.01.14.04.26.08.36a.93.93 0 0 0 .45.48c.1.05.23.07.36.07a.98.98 0 0 0 .78-.38l.3.23c-.1.14-.24.27-.42.38-.19.1-.42.16-.69.16Zm-.06-2.51a.7.7 0 0 0-.28.05.7.7 0 0 0-.23.16.92.92 0 0 0-.18.25c-.04.1-.08.21-.1.34h1.51v-.02a.88.88 0 0 0-.18-.54.67.67 0 0 0-.54-.24Zm6.34-1.02v.68h1.06v.37h-1.06v1.52c0 .11 0 .2.04.27a.42.42 0 0 0 .28.26c.06.02.13.03.2.03a1.48 1.48 0 0 0 .32-.03 3.32 3.32 0 0 0 .26-.06l.07.34a.72.72 0 0 1-.15.07 1.7 1.7 0 0 1-.4.07l-.22.01a.99.99 0 0 1-.35-.05.72.72 0 0 1-.28-.17.8.8 0 0 1-.19-.3 1.3 1.3 0 0 1-.07-.44v-1.52h-.73v-.37h.73v-.68h.48Zm3.29 3.53c-.2 0-.38-.03-.55-.1a1.23 1.23 0 0 1-.7-.71c-.06-.17-.1-.35-.1-.54v-.11c0-.23.04-.43.12-.6a1.27 1.27 0 0 1 .7-.74c.15-.07.3-.1.47-.1.2 0 .37.03.52.1.16.07.28.17.38.29.1.12.18.27.23.44.05.16.07.35.07.54v.22h-2v.01c0 .14.04.26.08.36a.82.82 0 0 0 .8.55.98.98 0 0 0 .8-.38l.28.23a1.2 1.2 0 0 1-.42.38c-.18.1-.4.16-.68.16Zm-.06-2.51a.7.7 0 0 0-.28.05.7.7 0 0 0-.23.16.92.92 0 0 0-.18.25c-.05.1-.08.21-.1.34h1.51v-.02a.88.88 0 0 0-.19-.54.67.67 0 0 0-.53-.24Zm3.87 1.72a.41.41 0 0 0-.03-.16.35.35 0 0 0-.12-.12.87.87 0 0 0-.2-.1 2 2 0 0 0-.34-.1l-.44-.11a1.4 1.4 0 0 1-.34-.17.71.71 0 0 1-.22-.23.66.66 0 0 1 0-.63c.06-.1.13-.18.23-.25.1-.08.21-.14.35-.18a1.5 1.5 0 0 1 .91 0c.13.05.25.1.35.19a.83.83 0 0 1 .3.62h-.48a.36.36 0 0 0-.04-.18.51.51 0 0 0-.13-.15.78.78 0 0 0-.47-.15 1 1 0 0 0-.27.03.6.6 0 0 0-.19.1.38.38 0 0 0-.12.13.34.34 0 0 0-.03.15c0 .06 0 .1.03.15a.3.3 0 0 0 .1.11l.2.1.33.08a2.65 2.65 0 0 1 .81.29c.1.07.17.15.22.24a.68.68 0 0 1-.01.65.78.78 0 0 1-.24.25 1 1 0 0 1-.36.17 1.7 1.7 0 0 1-.97-.01 1.2 1.2 0 0 1-.37-.2.78.78 0 0 1-.32-.64h.48c0 .1.03.18.08.25.04.06.1.12.17.16.07.04.14.07.23.09.08.02.16.02.24.02.13 0 .24-.01.34-.04.1-.03.17-.07.22-.13a.35.35 0 0 0 .08-.1.31.31 0 0 0 .02-.13Zm2.46-2.74v.68h1.07v.37h-1.07v1.52c0 .11.02.2.04.27a.42.42 0 0 0 .28.26.7.7 0 0 0 .2.03 1.48 1.48 0 0 0 .33-.03 3.32 3.32 0 0 0 .26-.06l.07.34a.73.73 0 0 1-.15.07 1.7 1.7 0 0 1-.4.07l-.22.01a.99.99 0 0 1-.35-.05.72.72 0 0 1-.28-.17.8.8 0 0 1-.2-.3 1.3 1.3 0 0 1-.06-.44v-1.52H64v-.37h.74v-.68h.48Zm-45.26 9.97v1.51h-.47v-3.77h1.22c.17 0 .33.03.48.08.15.05.28.12.4.22.11.09.2.2.27.35a1.2 1.2 0 0 1 0 .96c-.07.14-.16.26-.27.35-.12.1-.25.17-.4.22-.15.05-.31.08-.48.08h-.75Zm0-.4h.75c.11 0 .21-.02.3-.05a.64.64 0 0 0 .4-.37c.05-.09.07-.2.07-.3a.77.77 0 0 0-.06-.31.68.68 0 0 0-.4-.38.91.91 0 0 0-.31-.06h-.75v1.47Zm2.54.48c0-.2.02-.39.08-.56.06-.17.15-.33.26-.45a1.23 1.23 0 0 1 .93-.41 1.24 1.24 0 0 1 .94.4 1.7 1.7 0 0 1 .34 1.02v.06c0 .2-.03.39-.1.56a1.17 1.17 0 0 1-.65.75c-.15.08-.33.11-.53.11s-.37-.03-.53-.1a1.14 1.14 0 0 1-.4-.3c-.11-.13-.2-.28-.26-.46a1.74 1.74 0 0 1-.08-.56v-.06Zm.47.06c0 .14.02.27.05.4.04.12.09.23.15.33a.7.7 0 0 0 .6.3c.13 0 .25-.02.35-.08.1-.05.18-.13.25-.22.07-.1.11-.2.15-.33.03-.13.05-.26.05-.4v-.06c0-.13-.02-.26-.06-.39a1.03 1.03 0 0 0-.14-.33.75.75 0 0 0-.25-.23.68.68 0 0 0-.35-.08.68.68 0 0 0-.35.08.73.73 0 0 0-.25.23 1 1 0 0 0-.15.33c-.03.13-.05.26-.05.4v.05Zm3.12 1.37-.6-2.8h.43l.32 1.78.06.4.07-.4.45-1.78h.3l.45 1.78.08.45.07-.44.31-1.8h.43l-.6 2.81h-.38l-.44-1.72-.07-.43-.07.43-.43 1.72h-.38Zm4.16.05c-.2 0-.38-.03-.55-.1a1.23 1.23 0 0 1-.7-.71c-.06-.17-.1-.35-.1-.54v-.11c0-.23.04-.43.12-.6a1.27 1.27 0 0 1 1.17-.84c.2 0 .37.03.52.1.16.07.28.17.38.29.1.12.18.27.23.44.05.16.07.35.07.54v.22h-2v.01c0 .14.04.26.08.36a.93.93 0 0 0 .45.48c.1.05.22.07.35.07a.98.98 0 0 0 .8-.38l.28.23a1.2 1.2 0 0 1-.42.38c-.18.1-.41.16-.68.16Zm-.07-2.51a.7.7 0 0 0-.27.05.7.7 0 0 0-.23.16.92.92 0 0 0-.18.25c-.05.1-.08.21-.1.34h1.51v-.02a.88.88 0 0 0-.19-.54.67.67 0 0 0-.54-.24Zm3.86-.4a2.03 2.03 0 0 1 .49.07l-.07.47a2.34 2.34 0 0 0-.53-.06 1 1 0 0 0-.31.05.75.75 0 0 0-.42.3 1 1 0 0 0-.12.23v1.8h-.48v-2.8h.45l.03.37v.07c.11-.15.25-.27.4-.36.17-.1.35-.14.55-.14Zm4.4 1.43c0-.2.03-.39.09-.56.06-.17.14-.33.25-.45a1.23 1.23 0 0 1 .93-.41 1.24 1.24 0 0 1 .94.4 1.69 1.69 0 0 1 .35 1.02v.06a1.69 1.69 0 0 1-.35 1.01 1 1 0 0 1-.4.3c-.16.08-.33.11-.53.11s-.38-.03-.54-.1a1.14 1.14 0 0 1-.4-.3c-.1-.13-.2-.28-.25-.46a1.74 1.74 0 0 1-.09-.56v-.06Zm.48.06c0 .14.02.27.05.4.03.12.08.23.15.33.06.1.15.17.25.22.1.06.21.08.35.08.13 0 .24-.02.34-.08.1-.05.19-.13.25-.22a1.33 1.33 0 0 0 .2-.73v-.06c0-.13-.02-.26-.05-.39a1.04 1.04 0 0 0-.15-.33.75.75 0 0 0-.25-.23.68.68 0 0 0-.35-.08.68.68 0 0 0-.34.08.73.73 0 0 0-.25.23 1 1 0 0 0-.15.33c-.03.13-.05.26-.05.4v.05Zm3.56 1.37v-2.43h-.77v-.37h.77v-.2c0-.18.03-.34.08-.47a.94.94 0 0 1 .57-.55 1.36 1.36 0 0 1 .65-.06c.07 0 .14.02.2.03.05 0 .09.02.13.03.05 0 .09.02.13.03l-.05.4a1.88 1.88 0 0 0-.55-.1 1 1 0 0 0-.3.05.52.52 0 0 0-.2.12.54.54 0 0 0-.13.21.98.98 0 0 0-.05.3v.2h1.08v.38h-1.08v2.43h-.48Zm3.19 0v-2.43h-.77v-.37h.77v-.2c0-.18.02-.34.08-.47a.94.94 0 0 1 .57-.55 1.36 1.36 0 0 1 .65-.06c.07 0 .14.02.2.03.05 0 .09.02.13.03l.13.03-.05.4a1.87 1.87 0 0 0-.55-.1 1 1 0 0 0-.3.05.52.52 0 0 0-.2.12.54.54 0 0 0-.14.21.97.97 0 0 0-.04.3v.2h1.08v.38h-1.08v2.43h-.48Z"/><path stroke="#2792FF" d="M18.73 61.06h151.95"/><path stroke="#2792FF" d="M18.73 155h151.95"/><g filter="url(#d)"><path fill="#fff" d="M12.47 215.83 10.71 36.82l-.88 179.01.88 179.68 1.76-179.68Z"/></g><g filter="url(#e)"><path fill="#fff" d="M178.94 140.75 177.76 23.4l-.58 117.36.58 117.8 1.18-117.8Z"/></g><g clip-path="url(#f)" style="mix-blend-mode:exclusion"><rect width="8.81" height="8.81" x="89.1" y="13.7" fill="#353535" rx="4.4"/><g clip-path="url(#g)"><rect width="5.28" height="5.28" x="90.86" y="15.46" fill="#000" rx="2.64"/><g filter="url(#h)" opacity=".6"><circle cx="91.96" cy="17.44" r=".66" fill="#fff"/></g></g><g filter="url(#i)" opacity=".3"><rect width="3.52" height="3.52" x="93.5" y="18.54" fill="#fff" rx="1.76"/></g><g filter="url(#j)" opacity=".3"><rect width="2.64" height="2.64" x="90.42" y="14.58" fill="#fff" rx="1.32"/></g></g></g><path fill="#121214" d="M188.63 107.5c0-1.7-1.38-3.08-3.09-3.08v30.82c1.7 0 3.09-1.38 3.09-3.08V107.5Z"/><path fill="#121214" d="M188.63 158.14c0-1.7-1.38-3.08-3.09-3.08v61.66a3.1 3.1 0 0 0 3.09-3.09v-55.49Z"/><g filter="url(#k)"><path fill="#fff" d="M11.6 20.77 11 2.53l-.29 18.24.3 18.31.58-18.3Z"/></g><g clip-path="url(#l)"><path fill="#2E2E33" d="M80.73.93h25.1c0 .97-.78 1.76-1.76 1.76H82.5c-.97 0-1.76-.79-1.76-1.76Z"/><g stroke="#fff" stroke-width=".13" opacity=".1"><path d="M94.35.02 93 4.22"/><path d="M96.65.03 98 4.22"/><path d="M83.34.02 82 4.22"/></g></g></g><path fill="#E94F60" d="M243.68 118.83a1 1 0 1 1 0 2h-42.24l4.79 4.8a1 1 0 0 1-1.42 1.41l-7.21-7.2 7.2-7.22a1 1 0 1 1 1.43 1.42l-4.8 4.8h42.25Z"/><defs><filter id="d" width="6.17" height="362.21" x="8.07" y="35.06" color-interpolation-filters="sRGB" filterUnits="userSpaceOnUse"><feFlood flood-opacity="0" result="BackgroundImageFix"/><feBlend in="SourceGraphic" in2="BackgroundImageFix" result="shape"/><feGaussianBlur result="effect1_foregroundBlur_1755_1709" stdDeviation=".88"/></filter><filter id="e" width="5.28" height="238.69" x="175.41" y="21.63" color-interpolation-filters="sRGB" filterUnits="userSpaceOnUse"><feFlood flood-opacity="0" result="BackgroundImageFix"/><feBlend in="SourceGraphic" in2="BackgroundImageFix" result="shape"/><feGaussianBlur result="effect1_foregroundBlur_1755_1709" stdDeviation=".88"/></filter><filter id="h" width="3.08" height="3.08" x="90.42" y="15.9" color-interpolation-filters="sRGB" filterUnits="userSpaceOnUse"><feFlood flood-opacity="0" result="BackgroundImageFix"/><feBlend in="SourceGraphic" in2="BackgroundImageFix" result="shape"/><feGaussianBlur result="effect1_foregroundBlur_1755_1709" stdDeviation=".44"/></filter><filter id="i" width="5.28" height="5.28" x="92.62" y="17.66" color-interpolation-filters="sRGB" filterUnits="userSpaceOnUse"><feFlood flood-opacity="0" result="BackgroundImageFix"/><feBlend in="SourceGraphic" in2="BackgroundImageFix" result="shape"/><feGaussianBlur result="effect1_foregroundBlur_1755_1709" stdDeviation=".44"/></filter><filter id="j" width="4.4" height="4.4" x="89.54" y="13.7" color-interpolation-filters="sRGB" filterUnits="userSpaceOnUse"><feFlood flood-opacity="0" result="BackgroundImageFix"/><feBlend in="SourceGraphic" in2="BackgroundImageFix" result="shape"/><feGaussianBlur result="effect1_foregroundBlur_1755_1709" stdDeviation=".44"/></filter><filter id="k" width="4.4" height="40.07" x="8.95" y=".77" color-interpolation-filters="sRGB" filterUnits="userSpaceOnUse"><feFlood flood-opacity="0" result="BackgroundImageFix"/><feBlend in="SourceGraphic" in2="BackgroundImageFix" result="shape"/><feGaussianBlur result="effect1_foregroundBlur_1755_1709" stdDeviation=".88"/></filter><clipPath id="a"><path fill="#fff" d="M.14.93h190v288H.14z"/></clipPath><clipPath id="c"><rect width="180.56" height="381.37" x="3.23" y="7.53" fill="#fff" rx="7"/></clipPath><clipPath id="f"><rect width="8.81" height="8.81" x="89.1" y="13.7" fill="#fff" rx="4.4"/></clipPath><clipPath id="g"><rect width="5.28" height="5.28" x="90.86" y="15.46" fill="#fff" rx="2.64"/></clipPath><clipPath id="l"><path fill="#fff" d="M80.73.93h25.1c0 .97-.78 1.76-1.76 1.76H82.5c-.97 0-1.76-.79-1.76-1.76Z"/></clipPath><linearGradient id="b" x1=".14" x2="186.87" y1="395.51" y2="395.51" gradientUnits="userSpaceOnUse"><stop stop-color="#37373D"/><stop offset="1" stop-color="#111113"/></linearGradient></defs></svg>