<svg xmlns="http://www.w3.org/2000/svg" width="190" height="289" fill="none"><g clip-path="url(#a)"><rect width="186.7" height="394.6" y=".9" fill="url(#b)" rx="10"/><g clip-path="url(#c)"><rect width="180.6" height="381.4" x="3.1" y="7.5" fill="#7D7C81" rx="7"/><path fill="#000" d="M3 7.5h188.1v397.7H3.1z"/><path fill="#fff" d="M165.6 106.7a4 4 0 0 1 4-4h7.2v33h-7.2a4 4 0 0 1-4-4v-25Z"/><path stroke="#000" d="m170.2 116.6 2.2 2.6-2.2 2.6"/><path fill="#fff" d="M127 116.7h1.1l.6.1.4.4.2.5-.1.4-.3.3-.4.2-.1.1h-1v-.4h.7l.3-.1.2-.2.1-.3v-.3l-.3-.2h-.9v2.7h-.5v-3.2Zm1.8 3.2-.8-1.4h.6l.8 1.4h-.6Zm2 0h-.5a1 1 0 0 1-.6-.6v-1.1l.3-.4a1 1 0 0 1 .7-.3l.5.1.3.2.2.4v.7H130v-.4h1.3v-.3l-.2-.2h-.3a.5.5 0 0 0-.4.2v.2l-.1.3v.4l.2.2c0 .1 0 .2.2.2h.2a.7.7 0 0 0 .6-.2l.3.2-.2.3-.3.1h-.4Zm2.3-.3h.3l.1-.2.1-.3h.5l-.1.5-.4.3a1 1 0 0 1-.4 0h-.5a1 1 0 0 1-.4-.3l-.2-.4v-1l.2-.3.4-.3h1l.3.3.1.5h-.5v-.2l-.2-.2h-.5l-.2.2v.2l-.1.3v.4l.1.2.2.2h.2Zm1.3-.8.1-.6.2-.3c.1-.2.2-.2.4-.3h.9l.4.3.2.3v1.1l-.2.3a1 1 0 0 1-.4.3h-.9a1 1 0 0 1-.6-.6v-.5Zm.6 0v.5l.3.2h.2a.5.5 0 0 0 .5-.2v-.2l.1-.3v-.4l-.1-.2a.5.5 0 0 0-.5-.3l-.2.1-.2.2-.1.2v.3Zm2.8.7.6-2h.6l-.9 2.4h-.3v-.4Zm-.4-2 .6 2v.4h-.3l-.9-2.3h.6Zm3 2.5-.6-.1a1 1 0 0 1-.6-.6v-1.1l.3-.4a1 1 0 0 1 .7-.3l.5.1.3.2.2.4v.7h-1.8v-.4h1.3v-.3l-.2-.2h-.3a.5.5 0 0 0-.4.2v.2l-.1.3v.4l.2.3.2.1h.2a.7.7 0 0 0 .6-.2l.3.2-.2.3-.3.1h-.4Zm1.8-2v2h-.5v-2.4h.5v.4Zm.7-.5v.5a1.4 1.4 0 0 0-.2 0h-.2a.4.4 0 0 0-.3.3v.3h-.2v-.4l.2-.4.2-.2a.6.6 0 0 1 .5 0Zm1.1 2.2.7-2.1h.5l-1 2.7v.2l-.2.2-.2.1-.3.1h-.2v-.4h.3l.1-.2.1-.2.2-.4Zm-.4-2.1.6 1.7.1.6h-.4l-.8-2.3h.5Zm3.3-.9h.5l1 2.5.9-2.5h.5l-1.3 3.2h-.4l-1.2-3.2Zm-.2 0h.5v3.2h-.5v-3.2Zm2.8 0h.5v3.2h-.6v-1l.1-2.2Zm1 2v-.5l.3-.3c0-.2.2-.2.3-.3h1l.3.3.2.3.1.5v.6l-.3.3a1 1 0 0 1-.3.3h-1a1 1 0 0 1-.5-.6l-.1-.5Zm.5 0v.4l.2.2.1.2h.3a.5.5 0 0 0 .4-.2l.1-.2v-.9a.5.5 0 0 0-.5-.3l-.3.1-.1.2-.1.2v.3Zm3.6.7v-2.8h.5v3.3h-.4v-.5Zm-1.5-.6v-.6l.2-.4.3-.2h.8l.2.2.2.4.1.5v.6l-.3.4a.8.8 0 0 1-.6.3.8.8 0 0 1-.7-.4l-.2-.3v-.5Zm.5 0v.3l.1.2.2.2h.5l.2-.2V118l-.2-.1h-.5l-.2.2v.2l-.1.3Zm3.1 1.2-.4-.1a1 1 0 0 1-.6-.6l-.1-.5v-.6l.3-.4a1 1 0 0 1 .8-.3l.4.1c.2 0 .3.1.3.2l.2.4.1.5v.2h-1.8v-.4h1.3v-.3l-.2-.2h-.3a.5.5 0 0 0-.4.2l-.1.2v.7l.1.3.2.1h.3a.7.7 0 0 0 .6-.2l.3.2-.2.3-.3.1h-.5Z"/><path fill="#fff" d="M123.5 180.7h-.8v-.3h.8l.4-.1.2-.2.1-.3v-.4l-.3-.2h-1.1v2.8h-.5v-3.2h1.8l.4.4.1.5v.6l-.5.3-.6.1Zm2-.7v2h-.4v-2.4h.4v.4Zm.8-.4v.4h-.5l-.2.1v.2l-.1.2-.1.1v-.4l.1-.3.3-.3a.6.6 0 0 1 .5 0Zm1.3 2.4h-.5a1 1 0 0 1-.5-.7l-.1-.4v-.6l.3-.4a1 1 0 0 1 .7-.4l.5.1.3.3.2.4v.6h-1.8v-.3h1.4v-.4l-.2-.2-.4-.1h-.2l-.2.2-.1.3v.8l.1.2.2.2h.7l.2-.2.3.2-.2.2-.3.2h-.4Zm2.8-.7v-.1l-.2-.2h-.4l-.3-.2a1 1 0 0 1-.3-.1l-.2-.2v-.5l.2-.2.3-.2h.9l.3.3v.4h-.3l-.1-.2-.2-.2h-.5l-.2.2a.3.3 0 0 0 0 .3h.1l.2.1.2.1.5.2.3.2.1.3a.6.6 0 0 1-.3.5l-.2.2h-1a.8.8 0 0 1-.3-.4l-.1-.4h.4l.1.3.2.1a.8.8 0 0 0 .6 0h.1v-.3Zm2.3 0v-.1l-.2-.2h-.3l-.4-.2a1 1 0 0 1-.3-.1l-.1-.2v-.5c0-.1 0-.2.2-.2l.2-.2h.9l.3.3.1.4h-.4v-.2l-.2-.2h-.6l-.1.2a.3.3 0 0 0 0 .3l.2.1.3.1.5.2.2.2.1.3a.6.6 0 0 1-.2.5l-.3.2h-.9a.8.8 0 0 1-.4-.4v-.4h.3l.1.3.3.1a.8.8 0 0 0 .5 0h.2v-.3Zm2.8.3.7-2h.4l-.9 2.4h-.3l.1-.4Zm-.5-2 .6 2v.4h-.2l-.9-2.4h.5Zm1.8 1.2v-.5l.3-.4.4-.3h.4a1 1 0 0 1 .8.3l.2.4v1l-.2.4a1 1 0 0 1-.8.3 1 1 0 0 1-1-.7v-.5Zm.4 0v.3l.2.3.2.2h.3a.6.6 0 0 0 .5-.2l.1-.3v-1a.6.6 0 0 0-.6-.2.6.6 0 0 0-.5.2l-.1.3v.4Zm2.7-2.2v3.4h-.4v-3.4h.4Zm2.2 2.8v-1.8h.4v2.4h-.4v-.6Zm0-.5h.2v.5l-.2.3-.3.2a1 1 0 0 1-.4.1 1 1 0 0 1-.3 0l-.3-.2-.2-.3v-1.9h.4v1.8l.1.2h.7l.3-.3v-.4Zm1.4-.8v1.9h-.4v-2.4h.4v.5Zm0 .6h-.3v-.5l.3-.3.3-.3h.7a.6.6 0 0 1 .4.4v2h-.4v-2l-.2-.2h-.6l-.2.2v.6Zm1.5-.2h-.3v-.3l.2-.3.3-.3h.8a.6.6 0 0 1 .4.4v2h-.4v-2l-.2-.2h-.5l-.2.2-.1.1v.3Zm3 1.5h-.4a1 1 0 0 1-.6-.7v-1c0-.2.2-.3.3-.4a1 1 0 0 1 .7-.4l.4.1.3.3.2.4v.6h-1.7v-.3h1.4l-.1-.4-.2-.2-.3-.1a.6.6 0 0 0-.5.2l-.1.3v.8l.1.2a.7.7 0 0 0 .6.3l.3-.1.3-.2.2.2-.2.2-.3.2h-.4Zm3-3.4v3.4h-.4v-3.4h.4Zm1.4 1-1 1.1-.6.6v-.4l.4-.5.7-.8h.5Zm-.4 2.4-.8-1.2.2-.3 1.1 1.5h-.5Zm1.8 0h-.5a1 1 0 0 1-.5-.7l-.1-.4v-.6l.3-.4a1 1 0 0 1 .7-.4l.5.1.3.3.2.4v.6H153v-.3h1.4v-.4l-.2-.2-.4-.1a.6.6 0 0 0-.4.2l-.2.3v.8l.2.2.2.2h.7l.2-.2.3.2-.2.2-.3.2h-.4Zm2-.3.7-2.1h.4l-1 2.7v.2l-.2.2a.7.7 0 0 1-.6.2v-.3h.3l.1-.2.2-.2.1-.5Zm-.5-2.1.7 1.8v.5l-.2.1-1-2.4h.5Zm3.4 1.7v-.1l-.2-.2h-.4l-.3-.2a1 1 0 0 1-.3-.1l-.2-.2v-.5l.2-.2.3-.2h.8l.4.3v.4h-.3l-.1-.2-.2-.2h-.5l-.2.2a.3.3 0 0 0 0 .3l.3.1.2.1.5.2.3.2v.3a.6.6 0 0 1-.2.5l-.3.2h-.9a.8.8 0 0 1-.3-.4l-.1-.4h.4a.4.4 0 0 0 .3.4.8.8 0 0 0 .5 0h.2v-.3Zm3-1.7v.3h-1.2v-.3h1.2Zm-.8-.6h.4v2.6h.3a.7.7 0 0 0 .1 0v.4h-.5l-.2-.2-.1-.4V179Zm1.2 1.8v-.5c0-.2.2-.3.3-.4l.3-.3h.9l.3.3.3.4v1l-.3.4a1 1 0 0 1-.8.3 1 1 0 0 1-1-.7v-.5Zm.4 0v.3l.1.3.3.2h.5l.3-.2v-.3l.1-.3v-.4l-.1-.3a.6.6 0 0 0-.6-.2.6.6 0 0 0-.5.2v.3l-.1.4Zm-38.8 5.5v-.1l-.2-.2h-.4l-.3-.2a1 1 0 0 1-.3-.1l-.2-.2v-.5l.2-.2.3-.2h.8l.3.3.1.4h-.4v-.2l-.2-.2h-.5l-.2.2a.3.3 0 0 0 0 .3l.2.1.3.1.5.2.3.2v.3a.6.6 0 0 1-.2.5l-.3.2h-.9a.8.8 0 0 1-.3-.4l-.1-.4h.4a.4.4 0 0 0 .3.4.8.8 0 0 0 .5 0h.2v-.3Zm1.9.7h-.5a1 1 0 0 1-.5-.7l-.1-.4v-.6l.3-.4a1 1 0 0 1 .7-.4l.5.1.3.3.2.4v.6h-1.8v-.3h1.4v-.4l-.2-.2-.4-.1a.6.6 0 0 0-.4.2l-.1.3v.8l.1.2.2.2h.7l.2-.2.3.2-.2.2-.3.2h-.4Zm1.8-3.4v3.4h-.4v-3.4h.4Zm1.7 3.4h-.5a1 1 0 0 1-.5-.7l-.1-.4v-.6l.3-.4a1 1 0 0 1 .7-.4l.5.1.3.3.2.4v.6h-1.8v-.3h1.4v-.4l-.2-.2-.4-.1a.6.6 0 0 0-.4.2l-.2.3v.8l.2.2.2.2h.7l.2-.2.3.2-.2.2-.3.2h-.4Zm2.3-.3a.6.6 0 0 0 .5-.2l.1-.3h.4c0 .2 0 .3-.2.4a1 1 0 0 1-.8.4 1 1 0 0 1-.4 0 1 1 0 0 1-.4-.3l-.2-.4v-1l.2-.4.4-.3h.9l.4.4v.4h-.3v-.3l-.3-.1-.3-.1h-.3l-.2.3v.2l-.1.3v.4l.1.3.2.2h.3Zm2.4-2.1v.3h-1.2v-.3h1.2Zm-.8-.6h.4v2.6h.3a.7.7 0 0 0 .2 0v.4h-.6l-.2-.2-.1-.4V184Zm4 2.5v-3h.4v3.5h-.4v-.5Zm-1.7-.7.1-.5.2-.4a.9.9 0 0 1 .7-.4l.4.1.3.3.2.3v1.2l-.2.3-.3.2a1 1 0 0 1-.8 0 .9.9 0 0 1-.3-.2l-.2-.4v-.5Zm.5 0v.3l.1.3.2.2h.6l.2-.2.1-.3v-.8l-.2-.2-.1-.2h-.6l-.2.3-.1.2v.4Zm2.6-1.2v2.4h-.4v-2.4h.4Zm-.4-.6v-.2h.4v.2h-.3l-.1-.1Zm1.7 3h-.4v-3.1l.3-.3h.5a1.1 1.1 0 0 1 .3 0v.3h-.5l-.2.2v2.9Zm.5-2.4v.3h-1.3v-.3h1.3Zm1 2.4h-.3v-3.1l.3-.3h.4a1.1 1.1 0 0 1 .3 0v.3h-.4l-.2.2v2.9Zm.6-2.4v.3h-1.3v-.3h1.3Zm1.4 2.4h-.5a1 1 0 0 1-.6-.7v-1l.3-.4a1 1 0 0 1 .7-.4l.4.1c.2 0 .3.2.4.3l.1.4v.6h-1.7v-.3h1.4v-.4l-.3-.2-.3-.1h-.2l-.3.2v.3l-.1.4v.4l.2.2.2.2h.6l.3-.2.3.2-.2.2-.3.2h-.4Zm1.8-2v2h-.4v-2.4h.4v.4Zm.7-.4v.4h-.4l-.2.1-.1.2v.2l-.2.1v-.4l.2-.3.2-.3a.6.6 0 0 1 .5 0Zm1.3 2.4h-.4a1 1 0 0 1-.6-.7v-1c0-.2.2-.3.3-.4a1 1 0 0 1 .7-.4l.4.1.3.3.2.4v.6h-1.7v-.3h1.4l-.1-.4-.2-.2-.3-.1h-.3l-.2.2-.1.3v.8l.1.2.3.2h.6l.3-.2.2.2-.2.2-.3.2h-.4Zm1.8-1.9v1.9h-.4v-2.4h.4v.5Zm0 .6h-.2v-.5l.2-.3a.9.9 0 0 1 .7-.4l.4.1.2.1.2.3v2h-.4v-2l-.2-.2h-.3a.6.6 0 0 0-.5.2.9.9 0 0 0-.2.6Zm3.1-1.1v.3h-1.3v-.3h1.3Zm-.8-.6h.4v2.6h.4v.4h-.6l-.2-.2V184Zm2.8 1v2h-.4v-2.4h.4v.5Zm0 .7h-.2v-.5l.2-.3.3-.3h.7a.6.6 0 0 1 .4.4v2h-.3v-2l-.3-.2h-.5l-.2.2-.1.3v.3Zm1.5-.2h-.3v-.3l.3-.3.3-.3h.7a.6.6 0 0 1 .4.4v2h-.3v-1.6l-.1-.3-.2-.2h-.5l-.2.2v.1l-.1.3Zm3 1.5h-.4a1 1 0 0 1-.5-.7l-.1-.4v-.6l.3-.4a1 1 0 0 1 .7-.4l.5.1.3.3.1.4.1.4v.2h-1.8v-.3h1.4v-.4l-.3-.2-.3-.1a.6.6 0 0 0-.4.2l-.2.3v.8l.2.2.2.2h.7l.2-.2.3.2-.2.2-.3.2h-.4Zm1.9-1.9v1.9h-.4v-2.4h.4v.5Zm-.1.6h-.2v-.5l.3-.3a.9.9 0 0 1 .7-.4l.3.1.2.1.2.3v2h-.4v-2l-.2-.2h-.5l-.2.2a.9.9 0 0 0-.2.6Zm3.6.7v-1.8h.4v2.4h-.4v-.6Zm.1-.5h.2v.5l-.2.3-.3.2a1 1 0 0 1-.5.1 1 1 0 0 1-.3 0l-.2-.2-.2-.3v-1.9h.4v1.8l.1.2h.7l.2-.3.1-.4Zm2.3.4v-.1l-.2-.2h-.3l-.4-.2-.2-.1-.2-.2v-.5l.2-.2c0-.1.1-.2.3-.2h.8l.3.3.1.4h-.4v-.2l-.2-.2h-.6l-.1.2a.3.3 0 0 0 0 .3l.2.1.3.1.5.2.3.2v.3a.6.6 0 0 1-.2.5l-.3.2h-.9a.8.8 0 0 1-.3-.4l-.1-.4h.4v.3l.3.1a.8.8 0 0 0 .5 0h.2v-.3Z"/><path fill="#D31D2C" d="M28.3 216.1v5.2h-.7V216h.7Zm2.1 2.3v.6h-2.3v-.6h2.3Zm.4-2.3v.6H28v-.6h2.7Zm2.8 4.5v-2.4l-.3-.2a1 1 0 0 0-.5-.1 1 1 0 0 0-.4 0l-.3.3-.1.3h-.7c0-.1 0-.3.2-.4l.3-.4.4-.2.7-.1.7.1.5.4.2.7v2.2l.1.4h-.7v-.5Zm.1-1.7v.5h-1.1l-.4.2-.2.2v.6l.2.3h.5a1 1 0 0 0 .8-.4l.2-.3.3.3s0 .2-.2.3a1.6 1.6 0 0 1-.7.6l-.5.1-.7-.1-.5-.4a1 1 0 0 1-.1-.6v-.5l.4-.4.6-.3h1.4Zm3.8 1.3v-.2c0-.1-.1-.2-.3-.2a2 2 0 0 0-.5-.2l-.6-.2-.4-.2a.9.9 0 0 1-.4-.7v-.5l.4-.3.4-.3h.6l.8.1.5.5.2.6h-.7v-.4l-.4-.2a.9.9 0 0 0-.4-.1 1 1 0 0 0-.4 0l-.3.3a.5.5 0 0 0 0 .5l.1.1.3.1.4.1.8.3.4.4.2.5a1 1 0 0 1-.4.8l-.5.2a2 2 0 0 1-.6.1c-.3 0-.6 0-.8-.2-.3 0-.4-.2-.6-.4l-.1-.6h.6c0 .2 0 .3.2.4l.3.2a1.3 1.3 0 0 0 .9 0s.2 0 .2-.2l.1-.3Zm3.2-2.8v.5h-2.1v-.5h2Zm-1.4-.9h.6v3.8l.1.3.2.1h.2a1.1 1.1 0 0 0 .3 0v.6h-.5a1 1 0 0 1-.5 0 .7.7 0 0 1-.3-.4l-.1-.6v-3.8Zm2.1-.7h.7v5.5h-.7v-5.5Zm3.3 3.5-.1.9-.3.6-.5.4-.6.1-.7-.1c-.2 0-.3-.2-.4-.4a.5.5 0 0 1-.3-.5l-.2-.8v-.3l.2-.8c0-.2.1-.4.3-.5l.4-.4.7-.1.6.1c.2 0 .3.2.5.4l.3.6v.8Zm-.7 0v-.5l-.2-.5a.8.8 0 0 0-.8-.4 1 1 0 0 0-.7.3l-.2.4-.2.3v.9l.2.5.4.3.5.2.5-.1.3-.3.1-.5.1-.5Zm1.3 0 .1-.8.4-.6.5-.4.7-.1.8.1.5.4.4.6v1.7l-.4.6a1.6 1.6 0 0 1-1.2.5l-.8-.1a1.6 1.6 0 0 1-.9-1v-.8Zm.7 0v.6l.2.5.4.3h.9l.4-.3.2-.5v-1.1l-.2-.5a1 1 0 0 0-.8-.4 1 1 0 0 0-.5.1 1 1 0 0 0-.4.3l-.2.5v.5Zm3.4 0c0-.3 0-.5.2-.8l.3-.6.6-.4.7-.1.7.1.5.4.4.6.1.8-.1.9c0 .2-.2.4-.4.6a1.6 1.6 0 0 1-1.2.5l-.7-.1a1.6 1.6 0 0 1-1-1v-.8Zm.7 0v.6l.3.5.3.3h.9l.4-.3.2-.5v-1.1l-.2-.5a1 1 0 0 0-.8-.4 1 1 0 0 0-.5.1 1 1 0 0 0-.3.3l-.2.5-.1.5Zm5.2-1.9v.5h-2v-.5h2Zm-1.3-.9h.6v4.1l.2.1h.2a1.1 1.1 0 0 0 .4 0v.6h-.5a1 1 0 0 1-.5 0 .7.7 0 0 1-.3-.4l-.1-.6v-3.8Zm4.2-.4h.7l1.7 4.2 1.6-4.2h.7l-2 5.2h-.6l-2-5.2Zm-.2 0h.6v5.1H58v-5Zm4.5 0h.6v5.2h-.7v-2l.1-3.2Zm1.5 3.3v-.1c0-.3 0-.5.2-.8l.3-.6.6-.4.7-.1.7.1.6.4.3.6.1.8v.9l-.4.6a1.6 1.6 0 0 1-1.3.5l-.7-.1a1.6 1.6 0 0 1-1-1v-.8Zm.7-.1v.6l.3.5.3.3h1l.3-.3.2-.5v-1.1l-.2-.5a1 1 0 0 0-.8-.4 1 1 0 0 0-.5.1 1 1 0 0 0-.3.3l-.2.5-.1.5Zm6 1.2v-4.7h.7v5.5h-.6v-.8Zm-2.5-1.1v-.9l.4-.6a1.4 1.4 0 0 1 1.1-.5h.6l.5.5.3.5.1.8v.3l-.1.8c0 .2-.2.4-.3.5l-.5.4a1.5 1.5 0 0 1-1.2 0l-.5-.4a2 2 0 0 1-.3-.6l-.1-.8Zm.6 0 .1.5.2.5.3.3h1l.3-.4.2-.5v-.9l-.1-.3-.2-.4-.3-.2a1 1 0 0 0-.4 0h-.5l-.3.3-.2.5v.5Zm5.2 2-.7-.2a1.6 1.6 0 0 1-1-1v-.9l.1-.8c0-.2.2-.5.4-.6a1.6 1.6 0 0 1 1.1-.5l.7.1.5.4.3.6.1.7v.3h-2.9v-.5H75c0-.2 0-.4-.2-.6l-.2-.3a.8.8 0 0 0-.6-.2.9.9 0 0 0-.7.4l-.2.4v1.3l.2.4.4.3h1l.5-.4.4.3-.4.3c0 .2-.2.2-.4.3l-.7.1Z"/><g clip-path="url(#d)"><path fill="#D31D2C" d="M36.7 205.5h-1.5v-3.8h1.5m0 6.8h-1.5V207h1.5m-9 3.7h16.4L36 196.5l-8.2 14.2Z"/></g><path fill="#fff" d="m167.7 160.6 2.3-2.3 2.3 2.3.7-.7-3-3-3 3 .7.7Z"/><path fill="#fff" d="m167.7 211.2 2.3 2.3 2.3-2.3.7.7-3 3-3-3 .7-.7Z"/><g filter="url(#e)"><path fill="#fff" d="m12.3 215.8-1.7-179-1 179 1 179.7 1.7-179.7Z"/></g><g filter="url(#f)"><path fill="#fff" d="m178.8 140.7-1.2-117.3-.6 117.3.6 117.8 1.2-117.8Z"/></g><g clip-path="url(#g)" style="mix-blend-mode:exclusion"><rect width="8.8" height="8.8" x="89" y="13.7" fill="#353535" rx="4.4"/><g clip-path="url(#h)"><rect width="5.3" height="5.3" x="90.7" y="15.4" fill="#000" rx="2.6"/><g filter="url(#i)" opacity=".6"><circle cx="91.8" cy="17.4" r=".7" fill="#fff"/></g></g><g filter="url(#j)" opacity=".3"><rect width="3.5" height="3.5" x="93.4" y="18.5" fill="#fff" rx="1.8"/></g><g filter="url(#k)" opacity=".3"><rect width="2.6" height="2.6" x="90.3" y="14.5" fill="#fff" rx="1.3"/></g></g></g><path fill="#121214" d="M188.5 107.5a3 3 0 0 0-3.1-3.1v30.8a3 3 0 0 0 3-3v-24.7Z"/><path fill="#121214" d="M188.5 158.1a3 3 0 0 0-3.1-3v61.6a3 3 0 0 0 3-3.1v-55.5Z"/><g filter="url(#l)"><path fill="#fff" d="m11.5 20.7-.6-18.2-.3 18.2.3 18.3.6-18.3Z"/></g><g clip-path="url(#m)"><path fill="#2E2E33" d="M80.6.9h25c0 1-.7 1.8-1.7 1.8H82.4c-1 0-1.8-.8-1.8-1.8Z"/></g></g><defs><clipPath id="a"><path fill="#fff" d="M0 .9h190v288H0z"/></clipPath><clipPath id="c"><rect width="180.6" height="381.4" x="3.1" y="7.5" fill="#fff" rx="7"/></clipPath><clipPath id="d"><path fill="#fff" d="M27 195h17.9v18H27z"/></clipPath><clipPath id="g"><rect width="8.8" height="8.8" x="89" y="13.7" fill="#fff" rx="4.4"/></clipPath><clipPath id="h"><rect width="5.3" height="5.3" x="90.7" y="15.4" fill="#fff" rx="2.6"/></clipPath><clipPath id="m"><path fill="#fff" d="M80.6.9h25c0 1-.7 1.8-1.7 1.8H82.4c-1 0-1.8-.8-1.8-1.8Z"/></clipPath><filter id="e" width="6.2" height="362.2" x="7.9" y="35" color-interpolation-filters="sRGB" filterUnits="userSpaceOnUse"><feFlood flood-opacity="0" result="BackgroundImageFix"/><feBlend in="SourceGraphic" in2="BackgroundImageFix" result="shape"/><feGaussianBlur result="effect1_foregroundBlur_1362_799" stdDeviation=".9"/></filter><filter id="f" width="5.3" height="238.7" x="175.3" y="21.6" color-interpolation-filters="sRGB" filterUnits="userSpaceOnUse"><feFlood flood-opacity="0" result="BackgroundImageFix"/><feBlend in="SourceGraphic" in2="BackgroundImageFix" result="shape"/><feGaussianBlur result="effect1_foregroundBlur_1362_799" stdDeviation=".9"/></filter><filter id="i" width="3.1" height="3.1" x="90.3" y="15.9" color-interpolation-filters="sRGB" filterUnits="userSpaceOnUse"><feFlood flood-opacity="0" result="BackgroundImageFix"/><feBlend in="SourceGraphic" in2="BackgroundImageFix" result="shape"/><feGaussianBlur result="effect1_foregroundBlur_1362_799" stdDeviation=".4"/></filter><filter id="j" width="5.3" height="5.3" x="92.5" y="17.6" color-interpolation-filters="sRGB" filterUnits="userSpaceOnUse"><feFlood flood-opacity="0" result="BackgroundImageFix"/><feBlend in="SourceGraphic" in2="BackgroundImageFix" result="shape"/><feGaussianBlur result="effect1_foregroundBlur_1362_799" stdDeviation=".4"/></filter><filter id="k" width="4.4" height="4.4" x="89.4" y="13.7" color-interpolation-filters="sRGB" filterUnits="userSpaceOnUse"><feFlood flood-opacity="0" result="BackgroundImageFix"/><feBlend in="SourceGraphic" in2="BackgroundImageFix" result="shape"/><feGaussianBlur result="effect1_foregroundBlur_1362_799" stdDeviation=".4"/></filter><filter id="l" width="4.4" height="40.1" x="8.8" y=".7" color-interpolation-filters="sRGB" filterUnits="userSpaceOnUse"><feFlood flood-opacity="0" result="BackgroundImageFix"/><feBlend in="SourceGraphic" in2="BackgroundImageFix" result="shape"/><feGaussianBlur result="effect1_foregroundBlur_1362_799" stdDeviation=".9"/></filter><linearGradient id="b" x1="0" x2="186.7" y1="395.5" y2="395.5" gradientUnits="userSpaceOnUse"><stop stop-color="#37373D"/><stop offset="1" stop-color="#111113"/></linearGradient></defs></svg>