<svg width="1633" height="507" viewBox="0 0 1633 507" fill="none" xmlns="http://www.w3.org/2000/svg">
<path d="M240.528 223.569L241.546 200.647H236.849L237.132 194.138H241.829L242.112 187.346H249.753L249.47 194.138H255.13L254.847 200.647H249.187L248.168 223.569H240.528ZM256.541 223.569L258.296 182.252H265.937L265.314 198.213C265.692 197.421 266.182 196.723 266.786 196.119C267.427 195.515 268.125 195.025 268.88 194.647C269.672 194.232 270.503 193.93 271.37 193.742C272.276 193.553 273.144 193.459 273.974 193.459C275.71 193.459 277.257 193.742 278.615 194.308C279.973 194.874 281.124 195.685 282.068 196.741C283.049 197.76 283.784 198.987 284.275 200.42C284.803 201.817 285.067 203.364 285.067 205.062C285.067 206.571 285.03 208.099 284.954 209.646C284.916 211.193 284.86 212.759 284.784 214.344C284.709 215.891 284.615 217.438 284.501 218.985C284.426 220.494 284.35 222.022 284.275 223.569H276.634C276.71 222.173 276.785 220.777 276.861 219.381C276.936 217.985 276.993 216.589 277.03 215.193C277.106 213.759 277.162 212.344 277.2 210.948C277.276 209.552 277.313 208.156 277.313 206.759C277.313 204.873 276.861 203.307 275.955 202.062C275.087 200.779 273.634 200.137 271.597 200.137C269.446 200.137 267.805 200.854 266.673 202.288C265.541 203.722 264.937 205.439 264.862 207.439L264.182 223.569H256.541ZM309.959 213.551L315.676 218.023C314.959 219.079 314.091 220.004 313.072 220.796C312.054 221.551 310.959 222.192 309.79 222.72C308.62 223.249 307.394 223.645 306.111 223.909C304.828 224.173 303.583 224.305 302.375 224.305C300.262 224.305 298.3 223.947 296.489 223.23C294.715 222.513 293.168 221.513 291.848 220.23C290.565 218.947 289.546 217.419 288.791 215.646C288.074 213.872 287.716 211.929 287.716 209.816C287.716 207.552 288.112 205.439 288.905 203.477C289.735 201.477 290.867 199.741 292.301 198.27C293.734 196.76 295.432 195.572 297.394 194.704C299.357 193.836 301.47 193.402 303.734 193.402C305.96 193.402 307.941 193.817 309.676 194.647C311.45 195.44 312.94 196.553 314.148 197.987C315.355 199.383 316.28 201.024 316.921 202.911C317.563 204.76 317.883 206.759 317.883 208.91C317.883 209.363 317.846 209.816 317.77 210.269C317.732 210.721 317.657 211.174 317.544 211.627H295.527C295.866 213.363 296.659 214.778 297.904 215.872C299.187 216.966 300.734 217.513 302.545 217.513C303.979 217.513 305.375 217.174 306.733 216.494C308.129 215.815 309.205 214.834 309.959 213.551ZM295.81 205.91H310.356C309.941 204.213 309.092 202.798 307.809 201.666C306.563 200.534 305.035 199.968 303.224 199.968C301.413 199.968 299.828 200.534 298.47 201.666C297.149 202.76 296.262 204.175 295.81 205.91ZM238.943 269.569L240.697 228.252H248.338L247.716 244.213C248.093 243.421 248.583 242.723 249.187 242.119C249.829 241.515 250.527 241.025 251.281 240.647C252.074 240.232 252.904 239.93 253.772 239.742C254.677 239.553 255.545 239.459 256.375 239.459C258.111 239.459 259.658 239.742 261.016 240.308C262.375 240.874 263.526 241.685 264.469 242.741C265.45 243.76 266.186 244.987 266.676 246.42C267.204 247.817 267.469 249.364 267.469 251.062C267.469 252.571 267.431 254.099 267.355 255.646C267.318 257.193 267.261 258.759 267.186 260.344C267.11 261.891 267.016 263.438 266.903 264.985C266.827 266.494 266.752 268.022 266.676 269.569H259.035C259.111 268.173 259.186 266.777 259.262 265.381C259.337 263.985 259.394 262.589 259.432 261.193C259.507 259.759 259.564 258.344 259.601 256.948C259.677 255.552 259.715 254.156 259.715 252.759C259.715 250.873 259.262 249.307 258.356 248.062C257.488 246.779 256.036 246.137 253.998 246.137C251.847 246.137 250.206 246.854 249.074 248.288C247.942 249.722 247.338 251.439 247.263 253.439L246.584 269.569H238.943ZM292.361 259.551L298.077 264.023C297.36 265.079 296.492 266.004 295.474 266.796C294.455 267.551 293.361 268.192 292.191 268.72C291.021 269.249 289.795 269.645 288.512 269.909C287.229 270.173 285.984 270.305 284.776 270.305C282.663 270.305 280.701 269.947 278.89 269.23C277.117 268.513 275.57 267.513 274.249 266.23C272.966 264.947 271.947 263.419 271.193 261.646C270.476 259.872 270.117 257.929 270.117 255.816C270.117 253.552 270.513 251.439 271.306 249.477C272.136 247.477 273.268 245.741 274.702 244.27C276.136 242.76 277.834 241.572 279.796 240.704C281.758 239.836 283.871 239.402 286.135 239.402C288.361 239.402 290.342 239.817 292.078 240.647C293.851 241.44 295.342 242.553 296.549 243.987C297.756 245.383 298.681 247.024 299.322 248.911C299.964 250.76 300.285 252.759 300.285 254.91C300.285 255.363 300.247 255.816 300.171 256.269C300.134 256.721 300.058 257.174 299.945 257.627H277.928C278.268 259.363 279.06 260.778 280.305 261.872C281.588 262.966 283.135 263.513 284.946 263.513C286.38 263.513 287.776 263.174 289.135 262.494C290.531 261.815 291.606 260.834 292.361 259.551ZM278.211 251.91H292.757C292.342 250.213 291.493 248.798 290.21 247.666C288.965 246.534 287.437 245.968 285.625 245.968C283.814 245.968 282.229 246.534 280.871 247.666C279.55 248.76 278.664 250.175 278.211 251.91ZM302.769 269.569L304.07 240.138H311.598L311.372 244.439C311.749 243.572 312.24 242.836 312.843 242.232C313.485 241.591 314.202 241.081 314.994 240.704C315.786 240.289 316.617 239.987 317.484 239.798C318.39 239.572 319.277 239.459 320.145 239.459C321.88 239.459 323.427 239.742 324.786 240.308C326.182 240.874 327.351 241.685 328.295 242.741C329.276 243.76 330.012 244.987 330.502 246.42C331.03 247.817 331.295 249.364 331.295 251.062C331.295 252.571 331.257 254.099 331.181 255.646C331.144 257.193 331.087 258.759 331.012 260.344C330.936 261.891 330.842 263.438 330.729 264.985C330.653 266.494 330.578 268.022 330.502 269.569H322.861C322.937 268.173 323.012 266.777 323.088 265.381C323.163 263.985 323.22 262.589 323.257 261.193C323.333 259.759 323.39 258.344 323.427 256.948C323.503 255.552 323.54 254.156 323.54 252.759C323.54 250.873 323.088 249.307 322.182 248.062C321.314 246.779 319.862 246.137 317.824 246.137C315.673 246.137 314.032 246.854 312.9 248.288C311.768 249.722 311.164 251.439 311.089 253.439L310.41 269.569H302.769ZM348.451 269.569H345.678C345.414 269.569 345.168 269.569 344.942 269.569C344.716 269.569 344.489 269.569 344.263 269.569C341.433 269.569 339.282 268.909 337.811 267.588C336.377 266.268 335.66 264.155 335.66 261.249V259.665C335.735 257.514 335.83 255.344 335.943 253.156C336.056 250.967 336.169 248.798 336.282 246.647H332.151L332.434 240.138H336.565L336.792 234.195L344.489 233.403L344.206 240.138H350.432L350.149 246.647H343.923L343.301 260.061C343.263 260.702 343.338 261.212 343.527 261.589C343.716 261.966 343.98 262.249 344.319 262.438C344.659 262.627 345.036 262.74 345.451 262.777C345.904 262.815 346.357 262.834 346.81 262.834C347.149 262.834 347.47 262.834 347.772 262.834C348.112 262.796 348.432 262.777 348.734 262.777L348.451 269.569ZM373.762 269.569L373.988 264.758C373.611 265.702 373.083 266.532 372.404 267.249C371.762 267.928 371.007 268.494 370.14 268.947C369.309 269.4 368.404 269.739 367.423 269.966C366.479 270.192 365.536 270.305 364.593 270.305C362.518 270.305 360.612 269.928 358.876 269.173C357.141 268.419 355.631 267.381 354.348 266.06C353.103 264.702 352.122 263.136 351.405 261.363C350.688 259.589 350.33 257.684 350.33 255.646C350.33 253.533 350.707 251.514 351.462 249.59C352.254 247.628 353.33 245.911 354.688 244.439C356.084 242.93 357.707 241.742 359.556 240.874C361.442 239.968 363.461 239.515 365.612 239.515C366.479 239.515 367.385 239.61 368.328 239.798C369.309 239.987 370.215 240.308 371.045 240.761C371.913 241.176 372.668 241.723 373.309 242.402C373.951 243.043 374.403 243.836 374.667 244.779L374.894 240.138H382.478L381.176 269.569H373.762ZM365.895 263.4C367.14 263.4 368.291 263.174 369.347 262.721C370.404 262.23 371.29 261.589 372.007 260.797C372.762 259.966 373.347 259.023 373.762 257.967C374.177 256.872 374.384 255.721 374.384 254.514C374.384 253.382 374.196 252.326 373.818 251.345C373.441 250.363 372.913 249.514 372.234 248.798C371.555 248.043 370.724 247.458 369.743 247.043C368.8 246.628 367.744 246.42 366.574 246.42C365.366 246.42 364.234 246.666 363.178 247.156C362.121 247.609 361.197 248.232 360.405 249.024C359.65 249.816 359.046 250.741 358.593 251.797C358.178 252.854 357.971 253.986 357.971 255.193C357.971 256.325 358.159 257.401 358.537 258.419C358.952 259.4 359.499 260.268 360.178 261.023C360.895 261.74 361.725 262.325 362.668 262.777C363.65 263.193 364.725 263.4 365.895 263.4ZM384.119 269.569L385.421 240.138H393.062L391.76 269.569H384.119ZM389.383 237.704C388.063 237.704 386.987 237.289 386.157 236.459C385.327 235.629 384.912 234.553 384.912 233.233C384.912 231.912 385.402 230.837 386.383 230.007C387.402 229.139 388.534 228.705 389.779 228.705C391.138 228.705 392.194 229.139 392.949 230.007C393.704 230.875 394.081 231.969 394.081 233.289C394.081 233.893 393.949 234.478 393.685 235.044C393.421 235.572 393.062 236.044 392.609 236.459C392.194 236.836 391.704 237.138 391.138 237.365C390.572 237.591 389.987 237.704 389.383 237.704ZM395.811 250.779C395.811 247.798 396.358 245.005 397.452 242.402C398.584 239.761 400.112 237.478 402.037 235.553C403.999 233.591 406.282 232.044 408.885 230.912C411.526 229.78 414.337 229.214 417.318 229.214C420.111 229.214 422.695 229.724 425.072 230.742C427.487 231.724 429.563 233.101 431.298 234.874C433.072 236.61 434.468 238.666 435.487 241.043C436.505 243.421 437.015 246.005 437.015 248.798C437.015 251.778 436.449 254.571 435.317 257.174C434.223 259.778 432.713 262.061 430.789 264.023C428.865 265.947 426.601 267.475 423.997 268.607C421.393 269.739 418.601 270.305 415.62 270.305C412.866 270.305 410.281 269.815 407.866 268.834C405.451 267.853 403.338 266.494 401.527 264.758C399.754 263.023 398.358 260.966 397.339 258.589C396.32 256.174 395.811 253.571 395.811 250.779ZM415.903 262.947C417.865 262.947 419.639 262.589 421.224 261.872C422.808 261.117 424.167 260.117 425.299 258.872C426.431 257.589 427.299 256.118 427.902 254.457C428.506 252.759 428.808 250.967 428.808 249.081C428.808 247.307 428.525 245.666 427.959 244.156C427.431 242.647 426.638 241.326 425.582 240.195C424.563 239.063 423.318 238.176 421.846 237.534C420.412 236.893 418.79 236.572 416.979 236.572C415.017 236.572 413.243 236.95 411.658 237.704C410.074 238.421 408.715 239.421 407.583 240.704C406.451 241.987 405.565 243.477 404.923 245.175C404.319 246.835 404.018 248.609 404.018 250.496C404.018 252.269 404.301 253.91 404.867 255.42C405.433 256.929 406.225 258.25 407.244 259.382C408.262 260.476 409.508 261.344 410.979 261.985C412.451 262.627 414.092 262.947 415.903 262.947ZM437.213 261.759L444.232 257.401C444.911 259.212 446.024 260.646 447.571 261.702C449.156 262.721 450.91 263.23 452.835 263.23C453.552 263.23 454.268 263.136 454.985 262.947C455.702 262.759 456.344 262.476 456.91 262.098C457.513 261.721 458.004 261.249 458.381 260.683C458.759 260.08 458.947 259.363 458.947 258.533C458.947 257.552 458.721 256.74 458.268 256.099C457.853 255.457 457.306 254.929 456.627 254.514C455.985 254.099 455.249 253.759 454.419 253.495C453.627 253.231 452.835 252.986 452.042 252.759C450.571 252.344 449.156 251.854 447.797 251.288C446.439 250.722 445.213 250.024 444.118 249.194C443.062 248.326 442.213 247.288 441.571 246.081C440.93 244.836 440.609 243.345 440.609 241.609C440.609 239.61 440.987 237.855 441.741 236.346C442.534 234.799 443.571 233.497 444.854 232.44C446.137 231.384 447.609 230.592 449.269 230.063C450.967 229.535 452.74 229.271 454.589 229.271C455.91 229.271 457.23 229.422 458.551 229.724C459.909 229.988 461.174 230.422 462.343 231.025C463.551 231.629 464.626 232.403 465.569 233.346C466.513 234.252 467.267 235.346 467.833 236.629L460.872 240.817C460.343 239.496 459.494 238.421 458.325 237.591C457.155 236.761 455.853 236.346 454.419 236.346C453.74 236.346 453.061 236.44 452.382 236.629C451.703 236.78 451.08 237.044 450.514 237.421C449.986 237.798 449.552 238.27 449.212 238.836C448.873 239.402 448.703 240.062 448.703 240.817C448.703 241.459 448.854 242.025 449.156 242.515C449.458 242.968 449.873 243.383 450.401 243.76C450.929 244.138 451.552 244.477 452.269 244.779C452.986 245.043 453.74 245.326 454.533 245.628C455.853 246.081 457.249 246.571 458.721 247.1C460.192 247.59 461.532 248.269 462.739 249.137C463.985 250.005 465.003 251.099 465.796 252.42C466.626 253.741 467.041 255.457 467.041 257.57C467.041 259.683 466.645 261.532 465.852 263.117C465.06 264.702 463.985 266.041 462.626 267.136C461.306 268.192 459.759 268.985 457.985 269.513C456.212 270.041 454.344 270.305 452.382 270.305C450.872 270.305 449.344 270.135 447.797 269.796C446.288 269.456 444.835 268.947 443.439 268.268C442.081 267.551 440.854 266.664 439.76 265.607C438.666 264.513 437.817 263.23 437.213 261.759ZM238.716 326.889L240.528 286.138H248.055L247.829 290.892C248.621 289.081 249.885 287.742 251.621 286.874C253.357 285.968 255.168 285.515 257.054 285.515C259.13 285.515 261.035 285.912 262.771 286.704C264.507 287.459 265.997 288.496 267.242 289.817C268.525 291.137 269.525 292.685 270.242 294.458C270.959 296.231 271.317 298.137 271.317 300.174C271.317 302.325 270.921 304.382 270.129 306.344C269.374 308.268 268.318 309.966 266.959 311.438C265.601 312.909 263.978 314.098 262.092 315.003C260.243 315.871 258.224 316.305 256.036 316.305C255.168 316.305 254.262 316.211 253.319 316.022C252.376 315.833 251.489 315.551 250.659 315.173C249.829 314.758 249.093 314.23 248.451 313.588C247.81 312.909 247.338 312.117 247.036 311.211L246.357 326.889H238.716ZM255.073 309.4C256.319 309.4 257.469 309.174 258.526 308.721C259.582 308.23 260.488 307.589 261.243 306.797C262.035 305.966 262.639 305.023 263.054 303.967C263.469 302.872 263.676 301.703 263.676 300.457C263.676 299.325 263.488 298.269 263.11 297.288C262.733 296.307 262.186 295.458 261.469 294.741C260.79 294.024 259.96 293.458 258.979 293.043C258.035 292.628 256.998 292.42 255.866 292.42C254.621 292.42 253.47 292.666 252.413 293.156C251.395 293.609 250.489 294.25 249.697 295.081C248.942 295.873 248.338 296.816 247.885 297.91C247.47 298.967 247.263 300.099 247.263 301.306C247.263 302.438 247.451 303.514 247.829 304.533C248.206 305.514 248.734 306.363 249.414 307.08C250.093 307.796 250.904 308.362 251.847 308.777C252.828 309.193 253.904 309.4 255.073 309.4ZM273.765 315.569L275.067 286.138H282.481L282.198 291.741C282.764 289.855 283.764 288.326 285.198 287.157C286.632 285.987 288.368 285.402 290.405 285.402C290.519 285.402 290.613 285.402 290.688 285.402C290.802 285.402 290.896 285.402 290.971 285.402C291.085 285.402 291.179 285.421 291.254 285.459C291.368 285.459 291.481 285.459 291.594 285.459L291.311 292.647C288.707 292.647 286.557 293.269 284.859 294.515C283.161 295.722 282.236 297.722 282.085 300.514L281.406 315.569H273.765ZM291.973 301.476C291.973 299.212 292.407 297.118 293.275 295.194C294.143 293.232 295.313 291.534 296.784 290.1C298.256 288.628 299.973 287.496 301.935 286.704C303.935 285.874 306.048 285.459 308.274 285.459C310.387 285.459 312.349 285.836 314.16 286.591C316.009 287.308 317.613 288.326 318.971 289.647C320.329 290.968 321.386 292.534 322.141 294.345C322.933 296.118 323.329 298.08 323.329 300.231C323.329 302.533 322.895 304.665 322.027 306.627C321.197 308.589 320.028 310.287 318.518 311.721C317.047 313.154 315.311 314.286 313.311 315.117C311.349 315.909 309.236 316.305 306.972 316.305C304.821 316.305 302.821 315.947 300.973 315.23C299.161 314.475 297.577 313.437 296.218 312.117C294.898 310.796 293.86 309.23 293.105 307.419C292.351 305.608 291.973 303.627 291.973 301.476ZM307.255 309.343C308.5 309.343 309.632 309.117 310.651 308.664C311.707 308.174 312.594 307.532 313.311 306.74C314.066 305.91 314.651 304.966 315.066 303.91C315.481 302.816 315.688 301.665 315.688 300.457C315.688 299.325 315.5 298.288 315.122 297.345C314.745 296.363 314.217 295.514 313.538 294.798C312.858 294.043 312.028 293.458 311.047 293.043C310.104 292.628 309.066 292.42 307.934 292.42C306.727 292.42 305.614 292.666 304.595 293.156C303.576 293.609 302.689 294.25 301.935 295.081C301.218 295.873 300.652 296.797 300.237 297.854C299.822 298.91 299.614 300.024 299.614 301.193C299.614 302.325 299.784 303.382 300.124 304.363C300.501 305.344 301.01 306.212 301.652 306.966C302.331 307.683 303.142 308.268 304.085 308.721C305.029 309.136 306.085 309.343 307.255 309.343ZM324.761 326.889L326.573 286.138H334.213L332.402 326.889H324.761ZM330.591 283.704C329.27 283.704 328.195 283.289 327.365 282.459C326.535 281.629 326.12 280.553 326.12 279.233C326.12 277.912 326.61 276.837 327.591 276.007C328.61 275.139 329.742 274.705 330.987 274.705C332.346 274.705 333.402 275.139 334.157 276.007C334.911 276.875 335.289 277.969 335.289 279.289C335.289 279.893 335.157 280.478 334.893 281.044C334.628 281.572 334.27 282.044 333.817 282.459C333.402 282.836 332.912 283.138 332.346 283.365C331.78 283.591 331.195 283.704 330.591 283.704ZM358.809 305.551L364.526 310.023C363.809 311.079 362.941 312.004 361.922 312.796C360.903 313.551 359.809 314.192 358.639 314.72C357.47 315.249 356.243 315.645 354.96 315.909C353.678 316.173 352.432 316.305 351.225 316.305C349.112 316.305 347.15 315.947 345.339 315.23C343.565 314.513 342.018 313.513 340.697 312.23C339.415 310.947 338.396 309.419 337.641 307.646C336.924 305.872 336.566 303.929 336.566 301.816C336.566 299.552 336.962 297.439 337.754 295.477C338.584 293.477 339.716 291.741 341.15 290.27C342.584 288.76 344.282 287.572 346.244 286.704C348.206 285.836 350.319 285.402 352.583 285.402C354.809 285.402 356.79 285.817 358.526 286.647C360.3 287.44 361.79 288.553 362.997 289.987C364.205 291.383 365.129 293.024 365.771 294.911C366.412 296.76 366.733 298.759 366.733 300.91C366.733 301.363 366.695 301.816 366.62 302.269C366.582 302.721 366.507 303.174 366.393 303.627H344.376C344.716 305.363 345.508 306.778 346.754 307.872C348.036 308.966 349.584 309.513 351.395 309.513C352.829 309.513 354.225 309.174 355.583 308.494C356.979 307.815 358.055 306.834 358.809 305.551ZM344.659 297.91H359.205C358.79 296.213 357.941 294.798 356.658 293.666C355.413 292.534 353.885 291.968 352.074 291.968C350.263 291.968 348.678 292.534 347.32 293.666C345.999 294.76 345.112 296.175 344.659 297.91ZM390.046 305.834L395.366 310.645C394.687 311.551 393.875 312.362 392.932 313.079C392.027 313.758 391.027 314.343 389.932 314.834C388.876 315.324 387.763 315.683 386.593 315.909C385.461 316.173 384.329 316.305 383.197 316.305C381.046 316.305 379.047 315.947 377.198 315.23C375.349 314.475 373.745 313.456 372.387 312.173C371.028 310.853 369.953 309.287 369.161 307.476C368.368 305.627 367.972 303.627 367.972 301.476C367.972 299.25 368.406 297.156 369.274 295.194C370.142 293.232 371.311 291.534 372.783 290.1C374.254 288.628 375.971 287.477 377.933 286.647C379.896 285.817 381.99 285.402 384.216 285.402C385.31 285.402 386.442 285.515 387.612 285.742C388.782 285.93 389.895 286.251 390.951 286.704C392.045 287.119 393.045 287.685 393.951 288.402C394.894 289.081 395.649 289.911 396.215 290.892L390.102 295.703C389.498 294.609 388.612 293.779 387.442 293.213C386.31 292.647 385.14 292.364 383.933 292.364C382.725 292.364 381.612 292.609 380.594 293.1C379.575 293.552 378.688 294.194 377.933 295.024C377.216 295.816 376.65 296.741 376.235 297.797C375.82 298.854 375.613 299.967 375.613 301.137C375.613 302.231 375.783 303.287 376.122 304.306C376.5 305.287 377.028 306.155 377.707 306.91C378.386 307.664 379.197 308.268 380.141 308.721C381.084 309.136 382.122 309.343 383.254 309.343C384.574 309.343 385.838 309.042 387.046 308.438C388.291 307.796 389.291 306.929 390.046 305.834ZM400.011 315.569L401.029 292.647H396.332L396.615 286.138H401.312L401.595 279.346H409.236L408.953 286.138H414.613L414.33 292.647H408.67L407.651 315.569H400.011Z" fill="#282828"/>
<path d="M413.984 298.507H432.154L431.621 316.677H413.451L413.984 298.507Z" fill="#282828"/>
<path d="M270.606 223.208C270.949 224.829 269.311 226.899 265.945 229.095C262.579 231.291 257.676 233.489 251.999 235.347C246.322 237.205 240.189 238.619 234.558 239.368C228.926 240.117 224.111 240.159 220.863 239.488C217.615 238.817 216.116 237.47 216.6 235.658C217.084 233.845 219.523 231.669 223.538 229.467C227.554 227.266 232.919 225.163 238.798 223.487C244.677 221.81 250.686 220.074 255.989 219.619" stroke="#FF76C2" stroke-width="5.01756"/>
<path d="M252.492 210.034L252.699 209.712L253.016 209.594L253.573 210.967L252.334 211.889L251.58 211.442L251.718 210.987L252.492 210.034Z" fill="#FFD0EA"/>
<path d="M267.568 204.916L268.291 204.265L269.761 203.462L270.878 203.346L271.009 204.087C271.009 204.087 270.945 205.957 271.074 206.111L270.929 206.696C270.929 206.696 270.897 207.107 270.858 207.37C270.811 207.69 270.696 208.188 270.696 208.188L270.5 208.965L270.042 209.717L268.407 208.762L267.563 208.07L267.504 206.623L267.568 204.916Z" fill="#FFD0EA"/>
<path d="M278.53 202.811L279.957 201.328L280.683 200.935C280.683 200.935 281.899 200.621 281.946 200.679C282.105 200.874 282.231 201.852 282.231 201.852C282.231 201.852 282.125 202.591 282.091 203.232C282.057 203.873 282.03 204.398 282.03 204.398L281.136 205.162C280.645 205.582 280.164 205.961 280.068 206.005C279.827 206.114 278.59 205.256 278.59 205.256L278.53 202.811Z" fill="#FFD0EA"/>
<path d="M255.211 220.552C254.703 220.517 254.426 220.568 254.173 220.743L254.102 219.166C253.958 219.395 253.749 219.624 253.638 219.674C253.379 219.792 252.614 219.393 252.498 219.08L254.134 217.741L255.475 217.728L257.116 217.255L257.608 217.508C258.269 217.256 258.508 217.246 259.801 217.417C260.598 217.523 261.318 217.579 261.4 217.542C261.482 217.505 262.043 217.521 262.455 217.479C263.577 217.364 265.265 216.856 265.265 216.856L267.288 216.288L267.7 216.213C267.7 216.213 267.573 217.222 267.657 217.852C267.717 218.306 267.943 218.992 267.943 218.992L268.371 221.186L267.442 222.112L265.9 221.831L265.248 221.17L263.706 221.227L262.739 221.284C262.739 221.284 261.719 221.253 261.359 221.279L260.706 221.328L260.234 220.607L259.027 220.114L257.318 220.188C256.324 220.478 255.698 220.586 255.211 220.552Z" fill="#FFD0EA"/>
<path d="M264.014 212.282C264.014 212.282 264.476 211.627 264.577 211.308C264.677 210.989 264.793 210.713 264.834 210.694C264.875 210.675 265.327 210.894 265.327 210.894L265.587 211.433L265.516 211.844L265.356 212.199L265.12 212.926L264.857 213.712L263.776 214.126L261.955 213.811L261.812 213.514L261.875 213.298L262.783 212.83L264.014 212.282Z" fill="#FFD0EA"/>
<path d="M277.358 210.055C276.576 209.712 276.421 208.877 276.421 208.877L279.219 207.833L279.658 208.329C279.658 208.329 279.64 209.568 278.844 210.002C278.047 210.435 278.465 210.364 278.126 210.392C277.755 210.422 277.358 210.055 277.358 210.055Z" fill="#FFD0EA"/>
<path d="M271.317 214.395L271.049 213.459L273.063 212.476L273.981 212.475L274.274 213.329L273.433 214.863L271.317 214.395Z" fill="#FFD0EA"/>
<path d="M277.931 214.373L278.135 213.598L279.919 213.137L282.445 214.178L282.157 214.742L279.531 215.543L278.541 215.306L277.931 214.373Z" fill="#FFD0EA"/>
<path d="M271.729 219.217C271.381 218.891 271.293 218.387 271.293 218.387L272.399 217.601L276.981 217.999L277.621 220.478L276.543 221.254L275.906 221.256C275.906 221.256 275.594 221.257 275.392 221.177C275.19 221.096 274.51 220.944 274.51 220.944L272.981 220.411C272.981 220.411 272.078 219.543 271.729 219.217Z" fill="#FFD0EA"/>
<path fill-rule="evenodd" clip-rule="evenodd" d="M279.3 201.728L277.874 203.211L277.933 205.656C277.933 205.656 279.17 206.515 279.411 206.405C279.507 206.362 279.988 205.982 280.48 205.562L281.373 204.798C281.373 204.798 281.4 204.273 281.434 203.632C281.468 202.991 281.574 202.252 281.574 202.252C281.574 202.252 281.449 201.275 281.289 201.079C281.242 201.022 280.026 201.335 280.026 201.335L279.3 201.728ZM266.911 205.317L267.634 204.665L269.104 203.862L270.221 203.747L270.352 204.488C270.352 204.488 270.288 206.357 270.417 206.512L270.272 207.096C270.272 207.096 270.24 207.507 270.201 207.771C270.154 208.09 270.039 208.588 270.039 208.588L269.843 209.366L269.385 210.117L267.75 209.162L266.906 208.471L266.847 207.023L266.911 205.317ZM251.835 210.434L252.042 210.112L252.359 209.994L252.916 211.367L251.677 212.289L250.923 211.843L251.061 211.387L251.835 210.434ZM255.662 217.885L255.523 217.226C250.025 217.698 243.796 218.89 237.785 220.604C231.779 222.316 226.237 224.48 222.028 226.787C219.925 227.941 218.157 229.128 216.823 230.319C215.53 231.472 214.448 232.8 214.052 234.281C213.603 235.961 214.096 237.708 215.605 239.064C216.906 240.233 218.712 240.883 220.54 241.26C224.258 242.029 229.437 241.94 235.176 241.177C240.977 240.405 247.263 238.955 253.077 237.052C258.874 235.155 263.986 232.878 267.578 230.535C269.368 229.368 270.829 228.152 271.812 226.911C272.755 225.72 273.52 224.167 273.149 222.413L268.037 222.852C268.033 222.832 268.032 222.822 268.031 222.822C268.031 222.822 268.031 222.824 268.03 222.828C268.024 222.877 267.985 223.192 267.494 223.812C266.902 224.559 265.861 225.477 264.285 226.505C261.146 228.553 256.451 230.673 250.894 232.492C245.353 234.306 239.375 235.682 233.913 236.408C228.388 237.143 223.938 237.139 221.159 236.565C220.487 236.426 219.98 236.267 219.615 236.113C219.373 236.011 219.219 235.922 219.128 235.86C219.228 235.521 219.614 234.864 220.64 233.948C221.65 233.047 223.11 232.045 225.022 230.997C228.844 228.901 234.032 226.86 239.784 225.219C245.532 223.581 251.43 222.46 256.538 222.022L256.258 220.701C256.385 220.667 256.519 220.629 256.661 220.588L258.371 220.515L259.577 221.007L260.049 221.728L260.702 221.679C261.062 221.653 262.082 221.684 262.082 221.684L263.05 221.628L264.591 221.57L265.243 222.231L266.785 222.512L267.715 221.587L267.287 219.392C267.287 219.392 267.06 218.706 267 218.252C266.916 217.622 267.043 216.613 267.043 216.613L266.631 216.688L264.608 217.256C264.608 217.256 262.92 217.764 261.798 217.879C261.599 217.9 261.365 217.906 261.168 217.912C260.956 217.918 260.785 217.923 260.743 217.943C260.661 217.98 259.942 217.923 259.144 217.818C257.851 217.646 257.612 217.656 256.951 217.909L256.459 217.655L255.662 217.885ZM263.92 211.708C263.819 212.027 263.357 212.682 263.357 212.682L262.126 213.231L261.218 213.699L261.155 213.915L261.298 214.211L263.119 214.526L264.2 214.112L264.463 213.326L264.699 212.599L264.859 212.244L264.93 211.833L264.671 211.294C264.671 211.294 264.218 211.076 264.177 211.094C264.136 211.113 264.02 211.389 263.92 211.708ZM276.701 210.455C275.919 210.112 275.764 209.278 275.764 209.278L278.562 208.233L279.002 208.73C279.002 208.73 278.983 209.968 278.187 210.402C277.765 210.631 277.683 210.72 277.65 210.756C277.642 210.764 277.637 210.77 277.631 210.774C277.618 210.782 277.602 210.783 277.551 210.786C277.53 210.787 277.504 210.789 277.469 210.792C277.098 210.822 276.701 210.455 276.701 210.455ZM270.392 213.859L270.66 214.795L272.776 215.263L273.617 213.73L273.324 212.875L272.406 212.877L270.392 213.859ZM277.274 214.774L277.478 213.998L279.262 213.537L281.788 214.578L281.5 215.142L278.874 215.944L277.884 215.706L277.274 214.774ZM270.636 218.787C270.636 218.787 270.724 219.291 271.072 219.617C271.421 219.943 272.324 220.811 272.324 220.811L273.853 221.344C273.853 221.344 274.533 221.496 274.735 221.577C274.937 221.658 275.249 221.656 275.249 221.656L275.886 221.654L276.964 220.878L276.324 218.4L271.742 218.001L270.636 218.787Z" fill="#282828"/>
<path d="M896.658 247.976C897.121 256.991 889.951 266.98 876.264 276.387C862.577 285.794 843.143 294.091 820.988 299.984C798.834 305.877 775.204 309.037 753.78 308.97C732.356 308.903 714.341 305.613 702.541 299.613C690.742 293.614 685.821 285.241 688.545 275.8C691.27 266.359 701.486 256.379 717.603 247.416C733.719 238.452 754.832 231.009 777.65 226.245C800.468 221.481 823.799 216.49 843.845 217.903" stroke="#FF76C2" stroke-width="18.9213"/>
<path d="M835.618 163.552L836.555 161.962L837.801 161.559L839.188 169.383L834.091 173.461L831.497 170.497L832.243 168.137L835.618 163.552Z" fill="#FFD0EA"/>
<path d="M894.544 146.911L897.573 143.917L903.473 140.653L907.706 140.845L907.82 144.945C907.82 144.945 906.638 155 907.042 155.93L906.203 158.983C906.203 158.983 905.877 161.181 905.599 162.576C905.262 164.269 904.58 166.876 904.58 166.876L903.456 170.935L901.365 174.662L895.737 168.307L892.932 163.952L893.442 156.088L894.544 146.911Z" fill="#FFD0EA"/>
<path d="M936.574 143.542L942.652 136.571L945.568 134.976C945.568 134.976 950.268 134.17 950.415 134.515C950.913 135.688 950.886 141.063 950.886 141.063C950.886 141.063 950.117 144.979 949.667 148.419C949.217 151.858 948.85 154.673 948.85 154.673L945.125 158.149C943.076 160.061 941.088 161.761 940.707 161.926C939.751 162.341 935.562 156.797 935.562 156.797L936.574 143.542Z" fill="#FFD0EA"/>
<path d="M840.466 222.38C838.585 221.82 837.523 221.892 836.492 222.652L837.023 214.08C836.368 215.212 835.471 216.295 835.03 216.487C834.003 216.933 831.346 214.218 831.07 212.442L837.863 206.4L842.88 207.312L849.251 205.954L850.961 207.682C853.559 206.801 854.458 206.922 859.201 208.792C862.129 209.947 864.79 210.777 865.114 210.636C865.438 210.495 867.529 210.992 869.089 211.065C873.34 211.262 879.905 209.752 879.905 209.752L887.752 208.157L889.331 208.055C889.331 208.055 888.345 213.413 888.34 216.882C888.336 219.376 888.836 223.249 888.836 223.249L889.326 235.422L885.383 239.745L879.766 237.099L877.663 233.05L871.872 232.236L868.23 231.833C868.23 231.833 864.431 230.919 863.074 230.801C861.718 230.682 860.608 230.585 860.608 230.585L859.208 226.346L854.949 222.802L848.524 221.951C844.663 222.791 842.269 222.918 840.466 222.38Z" fill="#FFD0EA"/>
<path d="M877.541 184.117C877.541 184.117 879.598 180.916 880.136 179.266C880.673 177.615 881.246 176.207 881.409 176.136C881.572 176.066 883.151 177.575 883.151 177.575L883.848 180.679L883.374 182.849L882.599 184.649L881.351 188.406L879.968 192.462L875.719 193.908L869.072 190.875L868.688 189.17L869.035 188.048L872.663 186.182L877.541 184.117Z" fill="#FFD0EA"/>
<path d="M928.532 181.831C925.784 179.408 925.625 174.783 925.625 174.783L936.61 171.185L938.002 174.188C938.002 174.188 937.308 180.869 934.112 182.629C930.915 184.39 932.513 184.313 931.234 184.214C929.831 184.105 928.532 181.831 928.532 181.831Z" fill="#FFD0EA"/>
<path d="M903.764 200.871L903.235 195.618L911.258 191.78L914.691 192.444L915.353 197.274L911.436 204.948L903.764 200.871Z" fill="#FFD0EA"/>
<path d="M928.491 205.588L929.648 201.548L936.545 200.357L945.461 207.832L944.1 210.665L933.88 213.08L930.302 211.072L928.491 205.588Z" fill="#FFD0EA"/>
<path d="M902.87 227.232C901.733 225.217 901.659 222.429 901.659 222.429L906.188 218.988L923.109 224.489L924.249 238.351L919.83 241.758L917.449 241.305C917.449 241.305 916.28 241.082 915.566 240.499C914.852 239.916 912.389 238.595 912.389 238.595L906.944 234.597C906.944 234.597 904.007 229.247 902.87 227.232Z" fill="#FFD0EA"/>
<path fill-rule="evenodd" clip-rule="evenodd" d="M939.997 138.251L933.919 145.222L932.906 158.477C932.906 158.477 937.095 164.021 938.051 163.606C938.433 163.44 940.421 161.74 942.47 159.828L946.195 156.352C946.195 156.352 946.562 153.538 947.012 150.098C947.462 146.658 948.231 142.743 948.231 142.743C948.231 142.743 948.257 137.367 947.759 136.195C947.613 135.85 942.912 136.655 942.912 136.655L939.997 138.251ZM891.889 148.59L894.918 145.596L900.818 142.333L905.05 142.524L905.164 146.624C905.164 146.624 903.982 156.68 904.386 157.609L903.548 160.663C903.548 160.663 903.221 162.86 902.943 164.256C902.606 165.948 901.924 168.555 901.924 168.555L900.801 172.614L898.709 176.341L893.082 169.987L890.277 165.631L890.786 157.767L891.889 148.59ZM832.962 165.232L833.9 163.641L835.145 163.238L836.532 171.062L831.436 175.141L828.842 172.176L829.588 169.817L832.962 165.232ZM835.248 208.087L835.208 208.079L835.2 208.086C816.544 207.664 796.037 209.672 775.956 213.865C752.439 218.775 730.38 226.498 713.244 236.028C696.656 245.254 683.513 256.829 679.695 270.058C677.639 277.184 678.453 284.33 682.181 290.672C685.752 296.749 691.587 301.416 698.493 304.927C712.184 311.889 731.899 315.242 753.99 315.311C776.301 315.381 800.759 312.1 823.66 306.008C846.491 299.934 867.017 291.269 881.863 281.065C896.03 271.328 907.081 258.68 906.346 244.371L887.45 245.342C887.641 249.064 884.351 256.395 871.145 265.471C858.618 274.082 840.274 282.009 818.796 287.722C797.389 293.417 774.587 296.454 754.049 296.39C733.292 296.325 716.977 293.099 707.069 288.061C702.176 285.573 699.651 283.054 698.493 281.084C697.491 279.38 697.207 277.618 697.875 275.303C699.506 269.65 706.795 261.266 722.441 252.564C737.538 244.168 757.704 237.005 779.823 232.387C801.92 227.773 824.281 226.052 843.331 227.395L843.565 224.075C844.27 223.96 845.035 223.812 845.868 223.63L852.294 224.482L856.553 228.026L857.952 232.264C857.952 232.264 859.062 232.362 860.419 232.48C861.776 232.599 865.575 233.513 865.575 233.513L869.217 233.915L875.008 234.729L877.11 238.778L882.728 241.425L886.671 237.102L886.18 224.929C886.18 224.929 885.681 221.055 885.685 218.561C885.69 215.092 886.676 209.735 886.676 209.735L885.096 209.837L877.25 211.431C877.25 211.431 870.684 212.942 866.434 212.744C865.681 212.709 864.804 212.575 864.061 212.462C863.267 212.34 862.626 212.242 862.459 212.315C862.135 212.456 859.474 211.627 856.545 210.472C851.803 208.602 850.904 208.48 848.306 209.362L846.596 207.634L842.96 208.408C840.429 208.253 837.857 208.146 835.248 208.087ZM877.48 180.945C876.943 182.595 874.886 185.796 874.886 185.796L870.007 187.862L866.38 189.728L866.032 190.849L866.417 192.555L873.064 195.588L877.313 194.142L878.695 190.085L879.943 186.329L880.719 184.528L881.193 182.359L880.495 179.254C880.495 179.254 878.916 177.745 878.754 177.816C878.591 177.886 878.017 179.294 877.48 180.945ZM925.876 183.511C923.128 181.087 922.97 176.463 922.97 176.463L933.954 172.864L935.346 175.868C935.346 175.868 934.653 182.549 931.456 184.309C929.763 185.241 929.415 185.658 929.272 185.829C929.235 185.874 929.211 185.902 929.181 185.918C929.132 185.945 929.065 185.938 928.886 185.921C928.807 185.913 928.707 185.903 928.578 185.893C927.176 185.784 925.876 183.511 925.876 183.511ZM900.579 197.298L901.108 202.551L908.781 206.628L912.697 198.954L912.035 194.123L908.602 193.459L900.579 197.298ZM925.835 207.267L926.993 203.228L933.89 202.036L942.806 209.511L941.445 212.345L931.225 214.759L927.647 212.752L925.835 207.267ZM899.003 224.109C899.003 224.109 899.077 226.897 900.215 228.912C901.352 230.927 904.288 236.277 904.288 236.277L909.733 240.274C909.733 240.274 912.197 241.595 912.91 242.178C913.624 242.762 914.794 242.984 914.794 242.984L917.174 243.437L921.593 240.031L920.454 226.168L903.533 220.668L899.003 224.109Z" fill="#282828"/>
<path d="M1095.89 239.088L1097.32 205.235H1103.58L1103.07 218.312C1103.38 217.663 1103.79 217.091 1104.28 216.596C1104.81 216.102 1105.38 215.7 1106 215.391C1106.65 215.051 1107.33 214.803 1108.04 214.649C1108.78 214.494 1109.49 214.417 1110.17 214.417C1111.59 214.417 1112.86 214.649 1113.97 215.113C1115.09 215.576 1116.03 216.241 1116.8 217.107C1117.6 217.941 1118.21 218.946 1118.61 220.121C1119.04 221.265 1119.26 222.532 1119.26 223.924C1119.26 225.16 1119.23 226.412 1119.17 227.68C1119.14 228.947 1119.09 230.23 1119.03 231.529C1118.96 232.796 1118.89 234.064 1118.79 235.331C1118.73 236.568 1118.67 237.82 1118.61 239.088H1112.35C1112.41 237.944 1112.47 236.8 1112.53 235.656C1112.6 234.512 1112.64 233.368 1112.67 232.224C1112.74 231.05 1112.78 229.89 1112.81 228.746C1112.87 227.603 1112.91 226.459 1112.91 225.315C1112.91 223.769 1112.53 222.486 1111.79 221.466C1111.08 220.415 1109.89 219.889 1108.22 219.889C1106.46 219.889 1105.11 220.476 1104.19 221.651C1103.26 222.826 1102.77 224.233 1102.7 225.871L1102.15 239.088H1095.89ZM1139.65 230.88L1144.34 234.543C1143.75 235.409 1143.04 236.166 1142.2 236.815C1141.37 237.434 1140.47 237.959 1139.51 238.392C1138.56 238.825 1137.55 239.15 1136.5 239.366C1135.45 239.582 1134.43 239.691 1133.44 239.691C1131.71 239.691 1130.1 239.397 1128.62 238.809C1127.16 238.222 1125.9 237.403 1124.81 236.352C1123.76 235.301 1122.93 234.048 1122.31 232.595C1121.72 231.142 1121.43 229.55 1121.43 227.819C1121.43 225.964 1121.75 224.233 1122.4 222.625C1123.08 220.987 1124.01 219.564 1125.19 218.359C1126.36 217.122 1127.75 216.148 1129.36 215.437C1130.97 214.726 1132.7 214.371 1134.55 214.371C1136.38 214.371 1138 214.711 1139.42 215.391C1140.87 216.04 1142.1 216.952 1143.09 218.127C1144.07 219.271 1144.83 220.616 1145.36 222.161C1145.88 223.676 1146.15 225.315 1146.15 227.077C1146.15 227.448 1146.12 227.819 1146.05 228.19C1146.02 228.561 1145.96 228.932 1145.87 229.303H1127.83C1128.11 230.725 1128.76 231.884 1129.78 232.781C1130.83 233.677 1132.09 234.126 1133.58 234.126C1134.75 234.126 1135.9 233.847 1137.01 233.291C1138.15 232.735 1139.04 231.931 1139.65 230.88ZM1128.06 224.619H1139.98C1139.64 223.228 1138.94 222.069 1137.89 221.141C1136.87 220.214 1135.62 219.75 1134.14 219.75C1132.65 219.75 1131.35 220.214 1130.24 221.141C1129.16 222.038 1128.43 223.197 1128.06 224.619ZM1148.18 239.088L1149.25 214.973H1155.42L1155.23 218.498C1155.54 217.787 1155.94 217.184 1156.44 216.689C1156.96 216.164 1157.55 215.746 1158.2 215.437C1158.85 215.097 1159.53 214.85 1160.24 214.695C1160.98 214.51 1161.71 214.417 1162.42 214.417C1163.84 214.417 1165.11 214.649 1166.22 215.113C1167.36 215.576 1168.32 216.241 1169.1 217.107C1169.9 217.941 1170.5 218.946 1170.9 220.121C1171.34 221.265 1171.55 222.532 1171.55 223.924C1171.55 225.16 1171.52 226.412 1171.46 227.68C1171.43 228.947 1171.38 230.23 1171.32 231.529C1171.26 232.796 1171.18 234.064 1171.09 235.331C1171.03 236.568 1170.97 237.82 1170.9 239.088H1164.64C1164.71 237.944 1164.77 236.8 1164.83 235.656C1164.89 234.512 1164.94 233.368 1164.97 232.224C1165.03 231.05 1165.08 229.89 1165.11 228.746C1165.17 227.603 1165.2 226.459 1165.2 225.315C1165.2 223.769 1164.83 222.486 1164.09 221.466C1163.38 220.415 1162.19 219.889 1160.52 219.889C1158.75 219.889 1157.41 220.476 1156.48 221.651C1155.55 222.826 1155.06 224.233 1155 225.871L1154.44 239.088H1148.18ZM1185.61 239.088H1183.34C1183.12 239.088 1182.92 239.088 1182.74 239.088C1182.55 239.088 1182.36 239.088 1182.18 239.088C1179.86 239.088 1178.1 238.547 1176.89 237.465C1175.72 236.383 1175.13 234.651 1175.13 232.271V230.972C1175.19 229.21 1175.27 227.432 1175.36 225.639C1175.45 223.846 1175.55 222.069 1175.64 220.306H1172.26L1172.49 214.973H1175.87L1176.06 210.104L1182.36 209.455L1182.13 214.973H1187.23L1187 220.306H1181.9L1181.39 231.297C1181.36 231.823 1181.42 232.24 1181.58 232.549C1181.73 232.858 1181.95 233.09 1182.23 233.245C1182.5 233.399 1182.81 233.492 1183.15 233.523C1183.52 233.554 1183.89 233.569 1184.27 233.569C1184.54 233.569 1184.81 233.569 1185.05 233.569C1185.33 233.538 1185.6 233.523 1185.84 233.523L1185.61 239.088ZM1206.35 239.088L1206.53 235.146C1206.23 235.919 1205.79 236.599 1205.24 237.186C1204.71 237.743 1204.09 238.207 1203.38 238.578C1202.7 238.949 1201.96 239.227 1201.15 239.412C1200.38 239.598 1199.61 239.691 1198.84 239.691C1197.14 239.691 1195.57 239.381 1194.15 238.763C1192.73 238.145 1191.49 237.295 1190.44 236.213C1189.42 235.1 1188.62 233.817 1188.03 232.364C1187.44 230.91 1187.15 229.349 1187.15 227.68C1187.15 225.949 1187.46 224.295 1188.08 222.718C1188.73 221.11 1189.61 219.704 1190.72 218.498C1191.86 217.261 1193.19 216.287 1194.71 215.576C1196.25 214.834 1197.91 214.463 1199.67 214.463C1200.38 214.463 1201.12 214.541 1201.9 214.695C1202.7 214.85 1203.44 215.113 1204.12 215.484C1204.83 215.824 1205.45 216.272 1205.98 216.828C1206.5 217.354 1206.87 218.003 1207.09 218.776L1207.28 214.973H1213.49L1212.42 239.088H1206.35ZM1199.9 234.033C1200.92 234.033 1201.87 233.847 1202.73 233.476C1203.6 233.075 1204.32 232.549 1204.91 231.9C1205.53 231.22 1206.01 230.447 1206.35 229.581C1206.69 228.685 1206.86 227.742 1206.86 226.752C1206.86 225.825 1206.7 224.959 1206.4 224.155C1206.09 223.352 1205.65 222.656 1205.1 222.069C1204.54 221.45 1203.86 220.971 1203.06 220.631C1202.28 220.291 1201.42 220.121 1200.46 220.121C1199.47 220.121 1198.54 220.322 1197.68 220.724C1196.81 221.095 1196.05 221.605 1195.4 222.254C1194.79 222.903 1194.29 223.661 1193.92 224.526C1193.58 225.392 1193.41 226.32 1193.41 227.309C1193.41 228.236 1193.57 229.117 1193.87 229.952C1194.21 230.756 1194.66 231.467 1195.22 232.085C1195.81 232.673 1196.49 233.152 1197.26 233.523C1198.06 233.863 1198.94 234.033 1199.9 234.033ZM1214.84 239.088L1215.9 214.973H1222.16L1221.1 239.088H1214.84ZM1219.15 212.979C1218.07 212.979 1217.18 212.639 1216.5 211.959C1215.82 211.279 1215.48 210.398 1215.48 209.316C1215.48 208.234 1215.89 207.353 1216.69 206.673C1217.52 205.961 1218.45 205.606 1219.47 205.606C1220.59 205.606 1221.45 205.961 1222.07 206.673C1222.69 207.384 1223 208.28 1223 209.362C1223 209.857 1222.89 210.336 1222.67 210.8C1222.46 211.233 1222.16 211.619 1221.79 211.959C1221.45 212.268 1221.05 212.516 1220.59 212.701C1220.12 212.887 1219.64 212.979 1219.15 212.979ZM1224.41 223.692C1224.41 221.249 1224.86 218.962 1225.76 216.828C1226.69 214.664 1227.94 212.794 1229.52 211.217C1231.12 209.61 1232.99 208.342 1235.13 207.415C1237.29 206.487 1239.59 206.023 1242.04 206.023C1244.32 206.023 1246.44 206.441 1248.39 207.275C1250.37 208.079 1252.07 209.208 1253.49 210.661C1254.94 212.083 1256.09 213.768 1256.92 215.715C1257.76 217.663 1258.17 219.781 1258.17 222.069C1258.17 224.511 1257.71 226.799 1256.78 228.932C1255.89 231.065 1254.65 232.935 1253.07 234.543C1251.5 236.12 1249.64 237.372 1247.51 238.299C1245.38 239.227 1243.09 239.691 1240.64 239.691C1238.39 239.691 1236.27 239.289 1234.29 238.485C1232.31 237.681 1230.58 236.568 1229.1 235.146C1227.64 233.724 1226.5 232.039 1225.67 230.091C1224.83 228.113 1224.41 225.979 1224.41 223.692ZM1240.88 233.662C1242.48 233.662 1243.94 233.368 1245.24 232.781C1246.53 232.163 1247.65 231.343 1248.57 230.323C1249.5 229.272 1250.21 228.066 1250.71 226.706C1251.2 225.315 1251.45 223.846 1251.45 222.3C1251.45 220.847 1251.22 219.503 1250.75 218.266C1250.32 217.029 1249.67 215.947 1248.81 215.02C1247.97 214.092 1246.95 213.366 1245.75 212.84C1244.57 212.315 1243.24 212.052 1241.76 212.052C1240.15 212.052 1238.7 212.361 1237.4 212.979C1236.1 213.567 1234.99 214.386 1234.06 215.437C1233.13 216.488 1232.41 217.709 1231.88 219.101C1231.39 220.461 1231.14 221.914 1231.14 223.46C1231.14 224.913 1231.37 226.258 1231.83 227.494C1232.3 228.731 1232.95 229.813 1233.78 230.74C1234.62 231.637 1235.64 232.348 1236.84 232.874C1238.05 233.399 1239.39 233.662 1240.88 233.662ZM1258.34 232.688L1264.09 229.117C1264.64 230.601 1265.56 231.776 1266.82 232.642C1268.12 233.476 1269.56 233.894 1271.14 233.894C1271.72 233.894 1272.31 233.817 1272.9 233.662C1273.49 233.507 1274.01 233.276 1274.47 232.966C1274.97 232.657 1275.37 232.271 1275.68 231.807C1275.99 231.312 1276.14 230.725 1276.14 230.045C1276.14 229.241 1275.96 228.576 1275.59 228.051C1275.25 227.525 1274.8 227.092 1274.24 226.752C1273.72 226.412 1273.11 226.134 1272.43 225.918C1271.79 225.701 1271.14 225.5 1270.49 225.315C1269.28 224.975 1268.12 224.573 1267.01 224.109C1265.9 223.645 1264.89 223.073 1263.99 222.393C1263.13 221.682 1262.43 220.832 1261.91 219.843C1261.38 218.822 1261.12 217.601 1261.12 216.179C1261.12 214.541 1261.43 213.103 1262.05 211.866C1262.7 210.599 1263.55 209.532 1264.6 208.667C1265.65 207.801 1266.85 207.152 1268.21 206.719C1269.61 206.286 1271.06 206.07 1272.57 206.07C1273.66 206.07 1274.74 206.193 1275.82 206.441C1276.93 206.657 1277.97 207.013 1278.93 207.507C1279.92 208.002 1280.8 208.636 1281.57 209.409C1282.34 210.151 1282.96 211.047 1283.42 212.098L1277.72 215.53C1277.29 214.448 1276.59 213.567 1275.63 212.887C1274.68 212.206 1273.61 211.866 1272.43 211.866C1271.88 211.866 1271.32 211.944 1270.76 212.098C1270.21 212.222 1269.7 212.438 1269.23 212.747C1268.8 213.057 1268.45 213.443 1268.17 213.907C1267.89 214.371 1267.75 214.912 1267.75 215.53C1267.75 216.055 1267.87 216.519 1268.12 216.921C1268.37 217.292 1268.71 217.632 1269.14 217.941C1269.57 218.25 1270.08 218.529 1270.67 218.776C1271.26 218.992 1271.88 219.224 1272.53 219.472C1273.61 219.843 1274.75 220.245 1275.96 220.677C1277.16 221.079 1278.26 221.636 1279.25 222.347C1280.27 223.058 1281.11 223.954 1281.76 225.036C1282.44 226.119 1282.78 227.525 1282.78 229.256C1282.78 230.988 1282.45 232.503 1281.8 233.801C1281.15 235.1 1280.27 236.197 1279.16 237.094C1278.08 237.959 1276.81 238.609 1275.36 239.041C1273.9 239.474 1272.37 239.691 1270.76 239.691C1269.53 239.691 1268.28 239.551 1267.01 239.273C1265.77 238.995 1264.58 238.578 1263.44 238.021C1262.32 237.434 1261.32 236.707 1260.42 235.842C1259.53 234.945 1258.83 233.894 1258.34 232.688Z" fill="#282828"/>
<path d="M1095.89 300.678L1097.32 266.825H1103.58L1103.07 279.902C1103.38 279.253 1103.79 278.681 1104.28 278.186C1104.81 277.692 1105.38 277.29 1106 276.981C1106.65 276.641 1107.33 276.393 1108.04 276.239C1108.78 276.084 1109.49 276.007 1110.17 276.007C1111.59 276.007 1112.86 276.239 1113.97 276.702C1115.09 277.166 1116.03 277.831 1116.8 278.697C1117.6 279.531 1118.21 280.536 1118.61 281.711C1119.04 282.855 1119.26 284.122 1119.26 285.513C1119.26 286.75 1119.23 288.002 1119.17 289.27C1119.14 290.537 1119.09 291.82 1119.03 293.119C1118.96 294.386 1118.89 295.654 1118.79 296.921C1118.73 298.158 1118.67 299.41 1118.61 300.678H1112.35C1112.41 299.534 1112.47 298.39 1112.53 297.246C1112.6 296.102 1112.64 294.958 1112.67 293.814C1112.74 292.64 1112.78 291.48 1112.81 290.336C1112.87 289.192 1112.91 288.049 1112.91 286.905C1112.91 285.359 1112.53 284.076 1111.79 283.056C1111.08 282.005 1109.89 281.479 1108.22 281.479C1106.46 281.479 1105.11 282.066 1104.19 283.241C1103.26 284.416 1102.77 285.823 1102.7 287.461L1102.15 300.678H1095.89ZM1139.65 292.47L1144.34 296.133C1143.75 296.999 1143.04 297.756 1142.2 298.405C1141.37 299.024 1140.47 299.549 1139.51 299.982C1138.56 300.415 1137.55 300.739 1136.5 300.956C1135.45 301.172 1134.43 301.281 1133.44 301.281C1131.71 301.281 1130.1 300.987 1128.62 300.399C1127.16 299.812 1125.9 298.993 1124.81 297.942C1123.76 296.89 1122.93 295.638 1122.31 294.185C1121.72 292.732 1121.43 291.14 1121.43 289.409C1121.43 287.554 1121.75 285.823 1122.4 284.215C1123.08 282.576 1124.01 281.154 1125.19 279.949C1126.36 278.712 1127.75 277.738 1129.36 277.027C1130.97 276.316 1132.7 275.96 1134.55 275.96C1136.38 275.96 1138 276.301 1139.42 276.981C1140.87 277.63 1142.1 278.542 1143.09 279.717C1144.07 280.861 1144.83 282.205 1145.36 283.751C1145.88 285.266 1146.15 286.905 1146.15 288.667C1146.15 289.038 1146.12 289.409 1146.05 289.78C1146.02 290.151 1145.96 290.522 1145.87 290.893H1127.83C1128.11 292.315 1128.76 293.474 1129.78 294.371C1130.83 295.267 1132.09 295.716 1133.58 295.716C1134.75 295.716 1135.9 295.437 1137.01 294.881C1138.15 294.324 1139.04 293.521 1139.65 292.47ZM1128.06 286.209H1139.98C1139.64 284.818 1138.94 283.659 1137.89 282.731C1136.87 281.804 1135.62 281.34 1134.14 281.34C1132.65 281.34 1131.35 281.804 1130.24 282.731C1129.16 283.628 1128.43 284.787 1128.06 286.209ZM1147.67 300.678L1149.11 266.825H1155.37L1153.93 300.678H1147.67ZM1157.06 300.678L1158.5 266.825H1164.76L1163.32 300.678H1157.06ZM1167.24 276.563H1173.5C1173.47 277.707 1173.41 278.851 1173.32 279.995C1173.26 281.139 1173.2 282.283 1173.13 283.427C1173.07 284.54 1173.01 285.668 1172.95 286.812C1172.92 287.956 1172.9 289.1 1172.9 290.244C1172.9 291.882 1173.26 293.211 1173.97 294.232C1174.71 295.252 1175.96 295.762 1177.72 295.762C1178.65 295.762 1179.41 295.607 1180 295.298C1180.62 294.958 1181.09 294.525 1181.43 294C1181.81 293.443 1182.05 292.81 1182.18 292.099C1182.33 291.357 1182.42 290.584 1182.46 289.78L1183.06 276.563H1189.32L1188.67 291.31C1188.61 292.98 1188.27 294.433 1187.65 295.669C1187.06 296.906 1186.26 297.942 1185.24 298.776C1184.25 299.611 1183.07 300.229 1181.71 300.631C1180.35 301.033 1178.88 301.234 1177.31 301.234C1175.82 301.234 1174.43 301.049 1173.13 300.678C1171.84 300.307 1170.69 299.735 1169.7 298.962C1168.74 298.189 1167.99 297.231 1167.43 296.087C1166.87 294.912 1166.6 293.521 1166.6 291.913C1166.6 290.645 1166.61 289.378 1166.64 288.11C1166.7 286.812 1166.77 285.529 1166.83 284.261C1166.89 282.963 1166.95 281.68 1167.01 280.412C1167.11 279.114 1167.18 277.831 1167.24 276.563ZM1198.44 300.678L1189.44 276.563H1196.86L1201.08 290.336C1201.27 290.955 1201.44 291.588 1201.59 292.238C1201.75 292.887 1201.85 293.536 1201.92 294.185C1202.07 293.536 1202.24 292.887 1202.43 292.238C1202.64 291.588 1202.87 290.955 1203.12 290.336L1208.55 276.563H1215.83L1204.74 300.678H1198.44ZM1233.42 300.678L1233.61 296.736C1233.3 297.509 1232.86 298.189 1232.31 298.776C1231.78 299.333 1231.16 299.797 1230.45 300.168C1229.77 300.539 1229.03 300.817 1228.23 301.002C1227.45 301.188 1226.68 301.281 1225.91 301.281C1224.21 301.281 1222.65 300.971 1221.22 300.353C1219.8 299.735 1218.57 298.885 1217.52 297.802C1216.49 296.69 1215.69 295.407 1215.1 293.953C1214.52 292.5 1214.22 290.939 1214.22 289.27C1214.22 287.538 1214.53 285.884 1215.15 284.308C1215.8 282.7 1216.68 281.293 1217.79 280.088C1218.94 278.851 1220.27 277.877 1221.78 277.166C1223.33 276.424 1224.98 276.053 1226.74 276.053C1227.45 276.053 1228.2 276.131 1228.97 276.285C1229.77 276.44 1230.52 276.702 1231.2 277.073C1231.91 277.414 1232.52 277.862 1233.05 278.418C1233.58 278.944 1233.95 279.593 1234.16 280.366L1234.35 276.563H1240.56L1239.5 300.678H1233.42ZM1226.98 295.623C1228 295.623 1228.94 295.437 1229.8 295.066C1230.67 294.665 1231.4 294.139 1231.98 293.49C1232.6 292.81 1233.08 292.037 1233.42 291.171C1233.76 290.274 1233.93 289.332 1233.93 288.342C1233.93 287.415 1233.78 286.549 1233.47 285.745C1233.16 284.942 1232.73 284.246 1232.17 283.659C1231.61 283.04 1230.93 282.561 1230.13 282.221C1229.36 281.881 1228.49 281.711 1227.53 281.711C1226.54 281.711 1225.61 281.912 1224.75 282.314C1223.88 282.685 1223.13 283.195 1222.48 283.844C1221.86 284.493 1221.36 285.251 1220.99 286.116C1220.65 286.982 1220.48 287.909 1220.48 288.899C1220.48 289.826 1220.64 290.707 1220.95 291.542C1221.29 292.346 1221.74 293.057 1222.29 293.675C1222.88 294.263 1223.56 294.742 1224.33 295.113C1225.14 295.453 1226.02 295.623 1226.98 295.623ZM1242.14 285.282C1242.14 282.839 1242.59 280.551 1243.48 278.418C1244.41 276.254 1245.66 274.384 1247.24 272.807C1248.85 271.199 1250.72 269.932 1252.85 269.004C1255.02 268.077 1257.32 267.613 1259.76 267.613C1262.05 267.613 1264.17 268.031 1266.11 268.865C1268.09 269.669 1269.79 270.798 1271.22 272.251C1272.67 273.673 1273.81 275.358 1274.65 277.305C1275.48 279.253 1275.9 281.371 1275.9 283.659C1275.9 286.101 1275.44 288.389 1274.51 290.522C1273.61 292.655 1272.38 294.525 1270.8 296.133C1269.22 297.71 1267.37 298.962 1265.23 299.889C1263.1 300.817 1260.81 301.281 1258.37 301.281C1256.11 301.281 1254 300.879 1252.02 300.075C1250.04 299.271 1248.31 298.158 1246.82 296.736C1245.37 295.314 1244.23 293.629 1243.39 291.681C1242.56 289.703 1242.14 287.569 1242.14 285.282ZM1258.6 295.252C1260.21 295.252 1261.66 294.958 1262.96 294.371C1264.26 293.753 1265.37 292.933 1266.3 291.913C1267.23 290.862 1267.94 289.656 1268.43 288.296C1268.93 286.905 1269.18 285.436 1269.18 283.89C1269.18 282.437 1268.94 281.093 1268.48 279.856C1268.05 278.619 1267.4 277.537 1266.53 276.61C1265.7 275.682 1264.68 274.956 1263.47 274.43C1262.3 273.905 1260.97 273.642 1259.48 273.642C1257.88 273.642 1256.42 273.951 1255.12 274.569C1253.83 275.157 1252.71 275.976 1251.79 277.027C1250.86 278.078 1250.13 279.299 1249.61 280.691C1249.11 282.051 1248.86 283.504 1248.86 285.05C1248.86 286.503 1249.1 287.848 1249.56 289.084C1250.02 290.321 1250.67 291.403 1251.51 292.33C1252.34 293.227 1253.36 293.938 1254.57 294.464C1255.77 294.989 1257.12 295.252 1258.6 295.252ZM1276.06 294.278L1281.81 290.707C1282.37 292.191 1283.28 293.366 1284.55 294.232C1285.85 295.066 1287.28 295.484 1288.86 295.484C1289.45 295.484 1290.04 295.407 1290.62 295.252C1291.21 295.097 1291.74 294.865 1292.2 294.556C1292.69 294.247 1293.1 293.861 1293.41 293.397C1293.71 292.902 1293.87 292.315 1293.87 291.635C1293.87 290.831 1293.68 290.166 1293.31 289.641C1292.97 289.115 1292.52 288.682 1291.97 288.342C1291.44 288.002 1290.84 287.724 1290.16 287.508C1289.51 287.291 1288.86 287.09 1288.21 286.905C1287.01 286.565 1285.85 286.163 1284.73 285.699C1283.62 285.235 1282.62 284.663 1281.72 283.983C1280.85 283.272 1280.16 282.422 1279.63 281.433C1279.11 280.412 1278.84 279.191 1278.84 277.769C1278.84 276.131 1279.15 274.693 1279.77 273.456C1280.42 272.189 1281.27 271.122 1282.32 270.257C1283.37 269.391 1284.58 268.742 1285.94 268.309C1287.33 267.876 1288.78 267.66 1290.3 267.66C1291.38 267.66 1292.46 267.783 1293.54 268.031C1294.66 268.247 1295.69 268.603 1296.65 269.097C1297.64 269.592 1298.52 270.226 1299.3 270.999C1300.07 271.74 1300.69 272.637 1301.15 273.688L1295.45 277.12C1295.01 276.038 1294.32 275.157 1293.36 274.477C1292.4 273.796 1291.33 273.456 1290.16 273.456C1289.6 273.456 1289.05 273.534 1288.49 273.688C1287.93 273.812 1287.42 274.028 1286.96 274.337C1286.53 274.647 1286.17 275.033 1285.89 275.497C1285.62 275.96 1285.48 276.502 1285.48 277.12C1285.48 277.645 1285.6 278.109 1285.85 278.511C1286.09 278.882 1286.43 279.222 1286.87 279.531C1287.3 279.84 1287.81 280.119 1288.4 280.366C1288.98 280.582 1289.6 280.814 1290.25 281.062C1291.33 281.433 1292.48 281.834 1293.68 282.267C1294.89 282.669 1295.99 283.226 1296.98 283.937C1298 284.648 1298.83 285.544 1299.48 286.626C1300.16 287.708 1300.5 289.115 1300.5 290.846C1300.5 292.578 1300.18 294.093 1299.53 295.391C1298.88 296.69 1298 297.787 1296.88 298.684C1295.8 299.549 1294.53 300.198 1293.08 300.631C1291.63 301.064 1290.1 301.281 1288.49 301.281C1287.25 301.281 1286 301.141 1284.73 300.863C1283.5 300.585 1282.31 300.168 1281.16 299.611C1280.05 299.024 1279.05 298.297 1278.15 297.431C1277.25 296.535 1276.56 295.484 1276.06 294.278Z" fill="#282828"/>
</svg>
