<svg width="204" height="66" fill="none" xmlns="http://www.w3.org/2000/svg"><path d="M15.336 15.52h6.672l-1.376 11.368c1.835-.905 3.697-1.357 5.587-1.357 2.67 0 4.476.636 5.421 1.909.946 1.244 1.28 2.983 1.001 5.217L30.89 47.333h-6.672l1.626-13.658c.223-1.753-.445-2.63-2.001-2.63-1.362 0-2.655.368-3.878 1.103l-1.793 15.185H11.5l3.836-31.812Zm28.389 23.457h-3.17c-.25 1.33-.055 2.262.584 2.8.64.509 1.793.763 3.461.763 2.808 0 5.185-.466 7.13-1.4l-.625 5.302c-2.474.99-5.142 1.485-8.006 1.485-3.447 0-5.907-.905-7.38-2.715-1.446-1.838-1.946-4.666-1.502-8.483.89-7.465 4.601-11.198 11.134-11.198 3.141 0 5.379.566 6.713 1.697 1.362 1.13 1.905 2.8 1.627 5.005-.529 4.496-3.85 6.744-9.966 6.744Zm-2.669-4.157h3.253c.861 0 1.528-.198 2.001-.594.473-.424.75-.933.834-1.527.083-.593-.07-1.088-.459-1.484-.389-.396-1.014-.594-1.876-.594-2.196 0-3.447 1.4-3.753 4.2Zm22.508 7.211-.667 5.472c-.584.113-1.223.17-1.918.17-1.89 0-3.377-.495-4.462-1.485-1.084-1.018-1.5-2.517-1.25-4.496l3.168-26.171h6.63l-3.043 25.238c-.056.424.027.749.25.975.222.198.653.297 1.292.297Zm10.858 0-.667 5.472a10.1 10.1 0 0 1-1.918.17c-1.89 0-3.378-.495-4.462-1.485-1.084-1.018-1.5-2.517-1.25-4.496l3.168-26.171h6.63L72.88 40.759c-.055.424.028.749.25.975.223.198.654.297 1.293.297Zm20.866 5.302h-4.003l-.667-1.527c-2.447 1.414-4.949 2.12-7.506 2.12-2.669 0-4.476-.621-5.421-1.865-.945-1.273-1.293-3.026-1.043-5.26l1.794-14.676h6.671l-1.668 13.658c-.194 1.753.487 2.63 2.044 2.63 1.39 0 2.668-.368 3.836-1.103l1.835-15.185h6.671l-2.543 21.208Zm14.92.339h-5.755l-5.17-21.547h6.963l2.085 13.149 5.254-13.15h6.964l-10.341 21.548Zm21.558-6.15 1.167-9.586c-.778-.594-1.723-.89-2.835-.89-1.446 0-2.488.466-3.128 1.399-.639.905-1.084 2.333-1.334 4.284-.222 1.98-.125 3.422.292 4.327.417.904 1.348 1.357 2.794 1.357.5 0 1-.07 1.501-.212.5-.142.875-.297 1.126-.467l.417-.212Zm8.548-15.397-2.544 21.208h-4.003l-.959-1.697c-1.89 1.527-4.225 2.29-7.005 2.29-2.725 0-4.643-.89-5.755-2.671-1.112-1.81-1.445-4.652-1-8.526.472-3.874 1.487-6.702 3.044-8.483 1.556-1.81 3.697-2.715 6.421-2.715 2.752 0 4.907.764 6.463 2.29l1.335-1.696h4.003Zm19.007 20.657c-1.751.763-3.822 1.145-6.213 1.145s-4.378-.396-5.963-1.188c-1.584-.82-2.724-1.95-3.419-3.393-.695-1.47-1.14-3.21-1.334-5.217-.195-2.036-.112-4.27.25-6.702.306-2.573.764-4.807 1.376-6.702.611-1.923 1.459-3.648 2.543-5.175a10.317 10.317 0 0 1 4.295-3.435c1.752-.792 3.823-1.188 6.213-1.188 2.391 0 4.379.41 5.963 1.23 1.585.792 2.725 1.923 3.42 3.393.695 1.442 1.139 3.182 1.334 5.218.222 2.007.153 4.227-.209 6.659-.333 2.573-.806 4.821-1.417 6.744-.612 1.895-1.474 3.606-2.586 5.133-1.084 1.526-2.502 2.686-4.253 3.478Zm1.126-23.33c-.667-1.583-2.029-2.375-4.086-2.375-2.058 0-3.628.806-4.712 2.418-1.057 1.584-1.807 4.228-2.252 7.932-.473 3.704-.361 6.362.333 7.974.695 1.584 2.072 2.376 4.129 2.376 2.057 0 3.613-.792 4.67-2.376 1.056-1.583 1.821-4.241 2.293-7.974.445-3.733.32-6.39-.375-7.974Zm21.378 4.539c1.891.283 3.406.594 4.545.933a9.214 9.214 0 0 1 3.086 1.485c.917.65 1.529 1.527 1.835 2.63.306 1.103.361 2.488.167 4.157-.862 7.154-5.38 10.73-13.552 10.73-4.337 0-7.52-.65-9.549-1.95l.875-6.956c2.586 1.64 5.504 2.46 8.757 2.46 4.086 0 6.269-1.216 6.547-3.648.139-1.188-.07-2.036-.626-2.545-.528-.51-1.571-.877-3.127-1.103-3.948-.537-6.658-1.513-8.131-2.927-1.474-1.414-2.03-3.662-1.668-6.744.361-2.997 1.598-5.344 3.711-7.041 2.112-1.697 5.156-2.545 9.132-2.545 4.003 0 6.894.523 8.673 1.57l-.792 6.574c-.862-.453-2.057-.848-3.586-1.188a20.93 20.93 0 0 0-4.545-.509c-3.614 0-5.532 1.047-5.755 3.14-.139 1.102.084 1.894.667 2.374.584.481 1.696.849 3.336 1.103Z" fill="#262626"/></svg>