<svg width="854" height="524" fill="none" xmlns="http://www.w3.org/2000/svg"><g clip-path="url(#a)"><path fill="#fff" d="M0 0h854v524H0z"/><path d="M6.407 102h10.849V57.696L38.422 102h4.608l21.217-44.304V102h10.8V32.88H64.632L40.727 81.84 16.825 32.88H6.406V102Zm96.622 1.44c4.128 0 7.632-.672 10.512-2.016 2.912-1.376 5.472-3.504 7.68-6.384V102h10.128V70.176c0-2.24-.096-4.304-.288-6.192-.192-1.92-.752-3.792-1.68-5.616-1.696-3.424-4.304-5.888-7.824-7.392-3.488-1.504-7.536-2.256-12.144-2.256-6.08 0-10.928 1.328-14.544 3.984-3.617 2.656-6.064 6.176-7.344 10.56l10.56 3.312c.864-2.656 2.384-4.528 4.56-5.616 2.176-1.088 4.432-1.632 6.768-1.632 3.52 0 6.112.72 7.776 2.16 1.664 1.408 2.608 3.6 2.832 6.576a822.01 822.01 0 0 0-12.672 1.968c-3.872.608-7.168 1.36-9.889 2.256-4.095 1.408-7.087 3.408-8.975 6-1.888 2.56-2.832 5.728-2.832 9.504 0 2.848.655 5.456 1.968 7.824 1.344 2.368 3.312 4.272 5.904 5.712 2.591 1.408 5.76 2.112 9.504 2.112Zm2.304-9.216c-2.72 0-4.8-.624-6.24-1.872-1.409-1.248-2.112-2.816-2.112-4.704 0-1.696.544-3.072 1.632-4.128 1.12-1.056 2.672-1.952 4.656-2.688 1.824-.608 4.016-1.136 6.576-1.584 2.56-.48 5.904-1.04 10.032-1.68a70.361 70.361 0 0 1-.24 4.08c-.128 1.472-.432 2.8-.912 3.984-.384 1.184-1.136 2.448-2.256 3.792-1.088 1.344-2.56 2.48-4.416 3.408-1.856.928-4.096 1.392-6.72 1.392ZM143.749 102h11.712V75.36c0-4.192.592-7.424 1.776-9.696 1.216-2.304 2.752-3.888 4.608-4.752 1.888-.896 3.808-1.344 5.76-1.344 2.752 0 4.944.608 6.576 1.824a10.485 10.485 0 0 1 3.6 4.56 19.62 19.62 0 0 1 1.536 5.712c.256 1.984.384 3.776.384 5.376V102h11.712V73.056c0-1.216-.112-2.832-.336-4.848-.192-2.016-.64-4.144-1.344-6.384-.704-2.24-1.792-4.352-3.264-6.336-1.472-2.016-3.472-3.648-6-4.896-2.496-1.28-5.648-1.92-9.456-1.92-3.744 0-7.04.656-9.888 1.968-2.816 1.28-5.168 3.04-7.056 5.28v-5.76h-10.32V102Zm60.19 0h11.616V75.648c0-3.008.544-5.68 1.632-8.016 1.12-2.336 2.864-4.144 5.232-5.424 1.6-.928 3.392-1.472 5.376-1.632 1.984-.192 3.76-.064 5.328.384v-10.8c-2.336-.352-4.736-.304-7.2.144-2.464.416-4.656 1.28-6.576 2.592a13.384 13.384 0 0 0-2.928 2.448 15.856 15.856 0 0 0-2.256 3.12V50.16h-10.224V102Zm60.302 1.44c5.184 0 9.712-1.152 13.584-3.456 3.872-2.336 6.88-5.552 9.024-9.648 2.176-4.128 3.264-8.88 3.264-14.256 0-5.344-1.072-10.064-3.216-14.16-2.144-4.128-5.152-7.36-9.024-9.696-3.872-2.336-8.416-3.504-13.632-3.504-5.088 0-9.568 1.152-13.44 3.456-3.872 2.304-6.896 5.504-9.072 9.6-2.176 4.096-3.264 8.864-3.264 14.304 0 5.344 1.056 10.08 3.168 14.208 2.144 4.096 5.152 7.312 9.024 9.648 3.872 2.336 8.4 3.504 13.584 3.504Zm0-10.848c-4.448 0-7.824-1.488-10.128-4.464-2.272-3.008-3.408-7.024-3.408-12.048 0-4.896 1.088-8.864 3.264-11.904 2.208-3.072 5.632-4.608 10.272-4.608 4.544 0 7.952 1.504 10.224 4.512 2.272 2.976 3.408 6.976 3.408 12 0 4.864-1.136 8.832-3.408 11.904-2.24 3.072-5.648 4.608-10.224 4.608Zm36.352 32.448h11.664V99.36c1.76 1.28 3.744 2.272 5.952 2.976 2.24.736 4.704 1.104 7.392 1.104 4.8 0 8.96-1.2 12.48-3.6 3.552-2.4 6.304-5.664 8.256-9.792s2.928-8.784 2.928-13.968c0-5.248-.992-9.936-2.976-14.064-1.952-4.128-4.736-7.376-8.352-9.744-3.616-2.368-7.872-3.552-12.768-3.552-2.944 0-5.616.448-8.016 1.344-2.4.896-4.512 2.176-6.336 3.84V50.16h-10.224v74.88Zm23.232-31.968c-4.64 0-7.968-1.568-9.984-4.704-2.016-3.168-3.024-7.264-3.024-12.288 0-5.056.992-9.152 2.976-12.288 2.016-3.136 5.232-4.704 9.648-4.704 3.104 0 5.648.768 7.632 2.304 2.016 1.504 3.504 3.552 4.464 6.144.992 2.56 1.488 5.408 1.488 8.544 0 3.168-.48 6.032-1.44 8.592-.928 2.56-2.368 4.608-4.32 6.144-1.952 1.504-4.432 2.256-7.44 2.256Zm59.588 10.368c4.992 0 9.552-1.28 13.68-3.84 4.16-2.592 7.232-6.24 9.216-10.944L394.885 85.2c-2.304 4.928-6.352 7.392-12.144 7.392-3.936 0-7.04-1.136-9.312-3.408-2.272-2.304-3.632-5.6-4.08-9.888h37.536c.448-6.24-.24-11.648-2.064-16.224-1.824-4.576-4.624-8.112-8.4-10.608-3.744-2.496-8.304-3.744-13.68-3.744-5.088 0-9.568 1.152-13.44 3.456-3.872 2.272-6.896 5.504-9.072 9.696-2.176 4.192-3.264 9.12-3.264 14.784 0 5.248 1.104 9.888 3.312 13.92 2.24 4.032 5.344 7.184 9.312 9.456 3.968 2.272 8.576 3.408 13.824 3.408Zm-.192-44.592c3.584 0 6.336.944 8.256 2.832 1.952 1.856 3.184 4.816 3.696 8.88h-25.536c1.376-7.808 5.904-11.712 13.584-11.712ZM436.814 102h30.192c6.816 0 11.984-1.888 15.504-5.664 3.52-3.776 5.28-8.736 5.28-14.88 0-3.488-.864-6.656-2.592-9.504-1.696-2.848-4.208-4.976-7.536-6.384 2.144-1.28 3.824-3.088 5.04-5.424 1.248-2.368 1.872-5.12 1.872-8.256 0-3.104-.736-6.112-2.208-9.024-1.44-2.912-3.664-5.296-6.672-7.152-2.976-1.888-6.8-2.832-11.472-2.832h-27.408V102Zm11.712-41.52v-16.8h15.552c2.752 0 4.896.8 6.432 2.4 1.536 1.6 2.304 3.6 2.304 6 0 2.752-.848 4.848-2.544 6.288-1.664 1.408-3.728 2.112-6.192 2.112h-15.552Zm0 30.624V71.28h17.376c3.232 0 5.744.944 7.536 2.832 1.792 1.888 2.688 4.224 2.688 7.008 0 3.072-1.008 5.504-3.024 7.296-1.984 1.792-4.496 2.688-7.536 2.688h-17.04Zm71.746 12.336c5.184 0 9.712-1.152 13.584-3.456 3.872-2.336 6.88-5.552 9.024-9.648 2.176-4.128 3.264-8.88 3.264-14.256 0-5.344-1.072-10.064-3.216-14.16-2.144-4.128-5.152-7.36-9.024-9.696-3.872-2.336-8.416-3.504-13.632-3.504-5.088 0-9.568 1.152-13.44 3.456-3.872 2.304-6.896 5.504-9.072 9.6-2.176 4.096-3.264 8.864-3.264 14.304 0 5.344 1.056 10.08 3.168 14.208 2.144 4.096 5.152 7.312 9.024 9.648 3.872 2.336 8.4 3.504 13.584 3.504Zm0-10.848c-4.448 0-7.824-1.488-10.128-4.464-2.272-3.008-3.408-7.024-3.408-12.048 0-4.896 1.088-8.864 3.264-11.904 2.208-3.072 5.632-4.608 10.272-4.608 4.544 0 7.952 1.504 10.224 4.512 2.272 2.976 3.408 6.976 3.408 12 0 4.864-1.136 8.832-3.408 11.904-2.24 3.072-5.648 4.608-10.224 4.608ZM557.68 102h11.568V31.44H557.68V102Zm46.73 1.44c3.072 0 5.84-.464 8.304-1.392 2.464-.928 4.624-2.224 6.48-3.888V102h10.224V32.88h-11.664v19.824c-1.728-1.28-3.664-2.256-5.808-2.928-2.144-.704-4.512-1.056-7.104-1.056-4.896 0-9.152 1.184-12.768 3.552-3.584 2.368-6.368 5.616-8.352 9.744s-2.976 8.816-2.976 14.064c0 5.184.976 9.84 2.928 13.968s4.704 7.392 8.256 9.792c3.552 2.4 7.712 3.6 12.48 3.6Zm1.776-10.368c-3.008 0-5.488-.752-7.44-2.256-1.952-1.536-3.408-3.584-4.368-6.144-.928-2.56-1.392-5.424-1.392-8.592 0-3.136.48-5.984 1.44-8.544.992-2.592 2.48-4.64 4.464-6.144 2.016-1.536 4.576-2.304 7.68-2.304 4.416 0 7.616 1.568 9.6 4.704 2.016 3.136 3.024 7.232 3.024 12.288 0 5.024-1.008 9.12-3.024 12.288-1.984 3.136-5.312 4.704-9.984 4.704ZM6.407 233h9.457v-47.328L38.23 233h4.56l22.32-47.328v47.28h9.504V163.88h-9.167l-24.912 51.984L15.48 163.88H6.407V233Zm96.297 1.44c8.256 0 14.48-2.992 18.672-8.976V233h8.88v-31.92c0-2.176-.096-4.208-.288-6.096a15.722 15.722 0 0 0-1.536-5.376c-1.6-3.424-4.128-5.92-7.584-7.488-3.424-1.6-7.456-2.4-12.096-2.4-5.984 0-10.784 1.312-14.4 3.936-3.616 2.624-6.048 6.16-7.296 10.608l9.36 2.88c.896-2.88 2.48-4.96 4.752-6.24 2.272-1.28 4.768-1.92 7.488-1.92 4.032 0 6.944.864 8.736 2.592 1.824 1.696 2.816 4.336 2.976 7.92a572.058 572.058 0 0 0-12.384 1.824c-4.032.608-7.552 1.344-10.56 2.208-4 1.28-7.04 3.184-9.12 5.712-2.08 2.528-3.12 5.744-3.12 9.648 0 2.816.656 5.408 1.968 7.776 1.344 2.336 3.312 4.224 5.904 5.664 2.624 1.408 5.84 2.112 9.648 2.112Zm1.776-8.208c-3.2 0-5.568-.736-7.104-2.208-1.504-1.472-2.256-3.216-2.256-5.232 0-2.048.672-3.664 2.016-4.848 1.376-1.184 3.088-2.128 5.136-2.832 2.176-.64 4.736-1.2 7.68-1.68 2.976-.48 6.416-1.008 10.32-1.584a70.361 70.361 0 0 1-.24 4.08c-.128 1.504-.4 2.848-.816 4.032-.384 1.696-1.2 3.328-2.448 4.896-1.216 1.568-2.864 2.864-4.944 3.888-2.048.992-4.496 1.488-7.344 1.488ZM142.672 233h10.176v-26.976c0-4.096.592-7.36 1.776-9.792 1.216-2.464 2.816-4.24 4.8-5.328s4.176-1.632 6.576-1.632c2.752 0 4.992.56 6.72 1.68a11.265 11.265 0 0 1 3.984 4.416c.928 1.824 1.552 3.808 1.872 5.952.352 2.112.528 4.176.528 6.192V233h10.176v-28.8c0-1.6-.144-3.456-.432-5.568-.288-2.112-.832-4.272-1.632-6.48a20.41 20.41 0 0 0-3.504-6.096c-1.504-1.888-3.472-3.408-5.904-4.56-2.432-1.152-5.44-1.728-9.024-1.728-3.744 0-7.072.672-9.984 2.016-2.88 1.344-5.264 3.2-7.152 5.568v-6.192h-8.976V233Zm59.111 0h10.128v-26.16c0-3.04.48-5.856 1.44-8.448.96-2.592 2.656-4.672 5.088-6.24a12.45 12.45 0 0 1 5.712-1.968c2.08-.192 3.952-.064 5.616.384v-9.408c-2.336-.448-4.816-.432-7.44.048-2.592.48-4.864 1.44-6.816 2.88-1.92 1.28-3.52 3.056-4.8 5.328v-8.256h-8.928V233Zm58.699 1.44c5.152 0 9.632-1.152 13.44-3.456 3.808-2.336 6.752-5.552 8.832-9.648 2.112-4.128 3.168-8.896 3.168-14.304 0-5.344-1.04-10.064-3.12-14.16-2.08-4.128-5.024-7.344-8.832-9.648-3.808-2.336-8.304-3.504-13.488-3.504-5.088 0-9.536 1.152-13.344 3.456-3.808 2.304-6.768 5.504-8.88 9.6-2.112 4.096-3.168 8.848-3.168 14.256 0 5.344 1.04 10.08 3.12 14.208s5.008 7.36 8.784 9.696c3.808 2.336 8.304 3.504 13.488 3.504Zm0-9.456c-4.832 0-8.496-1.616-10.992-4.848-2.496-3.264-3.744-7.632-3.744-13.104 0-5.28 1.2-9.568 3.6-12.864 2.4-3.328 6.112-4.992 11.136-4.992 4.896 0 8.576 1.616 11.04 4.848 2.496 3.232 3.744 7.568 3.744 13.008 0 5.312-1.232 9.632-3.696 12.96-2.432 3.328-6.128 4.992-11.088 4.992Zm35.94 31.056h10.08v-26.688c1.824 1.632 3.92 2.88 6.288 3.744 2.4.896 5.072 1.344 8.016 1.344 4.832 0 8.992-1.2 12.48-3.6 3.52-2.432 6.224-5.712 8.112-9.84 1.92-4.128 2.88-8.784 2.88-13.968 0-5.216-.96-9.872-2.88-13.968-1.92-4.128-4.656-7.376-8.208-9.744-3.52-2.4-7.712-3.6-12.576-3.6-3.2 0-6.08.544-8.64 1.632-2.56 1.056-4.768 2.544-6.624 4.464v-4.656h-8.928v74.88Zm22.992-30.672c-4.928 0-8.512-1.712-10.752-5.136-2.208-3.424-3.312-7.824-3.312-13.2 0-5.376 1.104-9.76 3.312-13.152 2.208-3.392 5.68-5.088 10.416-5.088 3.328 0 6.064.816 8.208 2.448 2.144 1.632 3.728 3.824 4.752 6.576 1.056 2.752 1.584 5.824 1.584 9.216 0 3.424-.512 6.528-1.536 9.312-1.024 2.752-2.592 4.944-4.704 6.576-2.08 1.632-4.736 2.448-7.968 2.448Zm58.454 9.072c5.024 0 9.584-1.264 13.68-3.792 4.096-2.56 7.152-6.16 9.168-10.8l-9.84-3.12c-2.624 5.504-7.12 8.256-13.488 8.256-4.352 0-7.776-1.312-10.272-3.936-2.496-2.624-3.952-6.336-4.368-11.136h38.64c.352-6.208-.384-11.568-2.208-16.08-1.824-4.512-4.592-7.984-8.304-10.416-3.712-2.464-8.208-3.696-13.488-3.696-5.056 0-9.488 1.136-13.296 3.408-3.808 2.272-6.784 5.488-8.928 9.648-2.112 4.16-3.168 9.072-3.168 14.736 0 5.344 1.072 10.048 3.216 14.112 2.176 4.032 5.2 7.184 9.072 9.456 3.904 2.24 8.432 3.36 13.584 3.36Zm-.096-45.84c7.84 0 12.288 4.496 13.344 13.488h-28.128c.64-4.384 2.192-7.728 4.656-10.032 2.464-2.304 5.84-3.456 10.128-3.456Zm78.66 45.84c4.768 0 9.152-.8 13.152-2.4 4.032-1.6 7.264-3.968 9.696-7.104 2.432-3.136 3.648-7.024 3.648-11.664 0-3.36-.624-6.144-1.872-8.352-1.248-2.24-2.832-4.032-4.752-5.376-1.888-1.344-3.856-2.384-5.904-3.12-2.016-.768-3.824-1.376-5.424-1.824l-12.768-3.6a45.067 45.067 0 0 1-4.944-1.68c-1.632-.704-3.008-1.648-4.128-2.832s-1.68-2.736-1.68-4.656c0-1.984.624-3.712 1.872-5.184 1.28-1.504 2.976-2.672 5.088-3.504 2.144-.832 4.496-1.216 7.056-1.152 3.968.032 7.472 1.168 10.512 3.408 3.072 2.208 4.976 5.264 5.712 9.168l10.752-1.824c-1.408-6.368-4.48-11.312-9.216-14.832-4.736-3.552-10.608-5.36-17.616-5.424-4.64-.032-8.832.72-12.576 2.256-3.744 1.536-6.72 3.776-8.928 6.72-2.176 2.944-3.264 6.56-3.264 10.848 0 3.712.784 6.72 2.352 9.024 1.568 2.304 3.52 4.096 5.856 5.376 2.368 1.28 4.704 2.256 7.008 2.928l17.712 5.232c2.56.768 4.64 1.856 6.24 3.264 1.632 1.376 2.448 3.312 2.448 5.808 0 2.304-.72 4.288-2.16 5.952-1.408 1.632-3.28 2.896-5.616 3.792-2.336.864-4.896 1.296-7.68 1.296-4.48 0-8.4-1.168-11.76-3.504-3.36-2.336-5.568-5.632-6.624-9.888l-10.464 1.584c.768 4.384 2.432 8.176 4.992 11.376 2.56 3.168 5.84 5.616 9.84 7.344 4 1.696 8.48 2.544 13.44 2.544Zm59.718 0c5.024 0 9.584-1.264 13.68-3.792 4.096-2.56 7.152-6.16 9.168-10.8l-9.84-3.12c-2.624 5.504-7.12 8.256-13.488 8.256-4.352 0-7.776-1.312-10.272-3.936-2.496-2.624-3.952-6.336-4.368-11.136h38.64c.352-6.208-.384-11.568-2.208-16.08-1.824-4.512-4.592-7.984-8.304-10.416-3.712-2.464-8.208-3.696-13.488-3.696-5.056 0-9.488 1.136-13.296 3.408-3.808 2.272-6.784 5.488-8.928 9.648-2.112 4.16-3.168 9.072-3.168 14.736 0 5.344 1.072 10.048 3.215 14.112 2.177 4.032 5.201 7.184 9.073 9.456 3.904 2.24 8.432 3.36 13.584 3.36Zm-.096-45.84c7.84 0 12.288 4.496 13.344 13.488H501.27c.64-4.384 2.192-7.728 4.656-10.032 2.464-2.304 5.84-3.456 10.128-3.456Zm32.931 44.4h10.08v-32.4c0-3.52.96-6.368 2.88-8.544 1.952-2.176 4.512-3.264 7.68-3.264 3.2 0 5.744 1.088 7.632 3.264 1.92 2.144 2.88 5.088 2.88 8.832L580.089 233h10.032l.048-32.4c0-3.904 1.04-6.848 3.12-8.832 2.112-1.984 4.592-2.976 7.44-2.976 3.136 0 5.664 1.056 7.584 3.168s2.88 5.024 2.88 8.736L611.145 233h10.032l.048-34.704c0-5.568-1.552-10.032-4.656-13.392-3.072-3.36-7.392-5.04-12.96-5.04-3.392 0-6.464.752-9.216 2.256-2.752 1.472-4.928 3.52-6.528 6.144-1.376-2.624-3.344-4.672-5.904-6.144-2.528-1.504-5.584-2.256-9.168-2.256-3.104 0-5.952.624-8.544 1.872-2.56 1.216-4.672 2.88-6.336 4.992v-5.568h-8.928V233Zm85.664-60.336h10.032v-9.744h-10.032v9.744Zm0 60.336h10.032v-51.84h-10.032V233Zm24.398 0h8.928v-4.752c1.888 1.952 4.112 3.472 6.672 4.56 2.592 1.088 5.52 1.632 8.784 1.632 4.832 0 8.992-1.2 12.48-3.6 3.52-2.432 6.224-5.712 8.112-9.84 1.92-4.128 2.88-8.784 2.88-13.968 0-5.216-.96-9.872-2.88-13.968-1.92-4.128-4.656-7.376-8.208-9.744-3.52-2.4-7.712-3.6-12.576-3.6-2.88 0-5.504.432-7.872 1.296-2.368.864-4.448 2.096-6.24 3.696V163.88h-10.08V233Zm22.992-7.632c-4.928 0-8.512-1.712-10.752-5.136-2.208-3.424-3.312-7.824-3.312-13.2 0-5.376 1.104-9.76 3.312-13.152 2.208-3.392 5.68-5.088 10.416-5.088 3.328 0 6.064.816 8.208 2.448 2.144 1.632 3.728 3.824 4.752 6.576 1.056 2.752 1.584 5.824 1.584 9.216 0 3.424-.512 6.528-1.536 9.312-1.024 2.752-2.592 4.944-4.704 6.576-2.08 1.632-4.736 2.448-7.968 2.448Zm57.974 9.072c5.152 0 9.632-1.152 13.44-3.456 3.808-2.336 6.752-5.552 8.832-9.648 2.112-4.128 3.168-8.896 3.168-14.304 0-5.344-1.04-10.064-3.12-14.16-2.08-4.128-5.024-7.344-8.832-9.648-3.808-2.336-8.304-3.504-13.488-3.504-5.088 0-9.536 1.152-13.344 3.456-3.808 2.304-6.768 5.504-8.88 9.6-2.112 4.096-3.168 8.848-3.168 14.256 0 5.344 1.04 10.08 3.12 14.208s5.008 7.36 8.784 9.696c3.808 2.336 8.304 3.504 13.488 3.504Zm0-9.456c-4.832 0-8.496-1.616-10.992-4.848-2.496-3.264-3.744-7.632-3.744-13.104 0-5.28 1.2-9.568 3.6-12.864 2.4-3.328 6.112-4.992 11.136-4.992 4.896 0 8.576 1.616 11.04 4.848 2.496 3.232 3.744 7.568 3.744 13.008 0 5.312-1.232 9.632-3.696 12.96-2.432 3.328-6.128 4.992-11.088 4.992ZM776.961 233h10.032v-70.56h-10.032V233ZM822 234.44c3.264 0 6.176-.544 8.736-1.632 2.592-1.088 4.832-2.608 6.72-4.56V233h8.928v-69.12h-10.08v20.832c-1.792-1.6-3.872-2.832-6.24-3.696-2.368-.864-4.992-1.296-7.872-1.296-4.864 0-9.072 1.2-12.624 3.6-3.52 2.368-6.24 5.616-8.16 9.744-1.92 4.096-2.88 8.752-2.88 13.968 0 5.184.944 9.84 2.832 13.968 1.92 4.128 4.64 7.408 8.16 9.84 3.52 2.4 7.68 3.6 12.48 3.6Zm1.392-9.072c-3.2 0-5.856-.816-7.968-2.448-2.112-1.632-3.68-3.824-4.704-6.576-1.024-2.784-1.536-5.888-1.536-9.312 0-3.392.512-6.464 1.536-9.216 1.056-2.752 2.656-4.944 4.8-6.576 2.144-1.632 4.88-2.448 8.208-2.448 4.736 0 8.208 1.696 10.416 5.088 2.208 3.392 3.312 7.776 3.312 13.152 0 5.376-1.104 9.776-3.312 13.2-2.208 3.424-5.792 5.136-10.752 5.136ZM6.407 364h6.768v-53.376L37.752 364h4.56l24.625-53.376v53.328h6.72V294.88h-6.577l-27.023 58.128-27.168-58.128h-6.48V364Zm95.551 1.44c9.056 0 15.632-3.344 19.728-10.032V364h6.288v-32.208c0-1.92-.096-3.808-.288-5.664-.192-1.856-.608-3.536-1.248-5.04-1.376-3.36-3.728-5.92-7.056-7.68-3.296-1.792-7.312-2.688-12.048-2.688-5.696 0-10.336 1.28-13.92 3.84-3.584 2.56-5.984 6.16-7.2 10.8l6.864 2.016c.992-3.456 2.704-5.984 5.136-7.584 2.464-1.6 5.472-2.4 9.024-2.4 4.928 0 8.448 1.152 10.56 3.456 2.112 2.272 3.2 5.744 3.264 10.416-2.304.32-4.848.656-7.632 1.008-2.752.352-5.52.752-8.304 1.2-2.784.448-5.344.96-7.68 1.536-3.872 1.024-7.04 2.736-9.504 5.136-2.464 2.368-3.696 5.68-3.696 9.936 0 2.752.656 5.296 1.968 7.632 1.312 2.336 3.28 4.208 5.904 5.616 2.656 1.408 5.936 2.112 9.84 2.112Zm.816-6.096c-2.784 0-5.024-.448-6.72-1.344-1.664-.928-2.88-2.096-3.648-3.504-.736-1.44-1.104-2.912-1.104-4.416 0-2.816.944-4.928 2.832-6.336a19.106 19.106 0 0 1 6.144-3.072c2.848-.768 6.16-1.392 9.936-1.872 3.776-.48 7.36-.928 10.752-1.344 0 1.184-.048 2.544-.144 4.08a23.611 23.611 0 0 1-.528 4.176c-.672 3.904-2.528 7.152-5.568 9.744-3.008 2.592-6.992 3.888-11.952 3.888ZM140.422 364h7.104v-27.648c0-5.856 1.312-10.448 3.936-13.776 2.624-3.328 6.432-4.992 11.424-4.992 3.616 0 6.528.88 8.736 2.64 2.208 1.728 3.808 4.096 4.8 7.104s1.488 6.416 1.488 10.224V364h7.104v-28.512a35.53 35.53 0 0 0-1.104-8.736c-.704-2.912-1.856-5.568-3.456-7.968-1.6-2.4-3.728-4.32-6.384-5.76-2.656-1.44-5.936-2.16-9.84-2.16-3.712 0-7.072.72-10.08 2.16-2.976 1.408-5.424 3.52-7.344 6.336v-7.2h-6.384V364Zm57.048 0h7.056v-25.872c0-3.104.352-6.192 1.056-9.264.736-3.104 2.4-5.68 4.992-7.728 1.888-1.536 3.936-2.416 6.144-2.64 2.24-.256 4.32-.16 6.24.288v-6.624c-2.272-.576-4.848-.592-7.728-.048-2.88.512-5.344 1.664-7.392 3.456-1.536 1.152-2.88 2.752-4.032 4.8v-8.208h-6.336V364Zm55.304 1.44c5.12 0 9.504-1.152 13.152-3.456 3.68-2.304 6.496-5.504 8.448-9.6 1.984-4.128 2.976-8.912 2.976-14.352 0-5.344-.976-10.064-2.928-14.16-1.92-4.128-4.72-7.344-8.4-9.648-3.648-2.336-8.064-3.504-13.248-3.504-5.056 0-9.424 1.152-13.104 3.456-3.648 2.272-6.464 5.456-8.448 9.552-1.984 4.096-2.976 8.864-2.976 14.304 0 5.344.96 10.08 2.88 14.208 1.952 4.128 4.752 7.36 8.4 9.696 3.68 2.336 8.096 3.504 13.248 3.504Zm0-6.768c-5.6 0-9.84-1.872-12.72-5.616-2.88-3.776-4.32-8.784-4.32-15.024 0-6.048 1.392-10.976 4.176-14.784 2.784-3.84 7.072-5.76 12.864-5.76 5.728 0 10 1.872 12.816 5.616 2.848 3.712 4.272 8.688 4.272 14.928 0 6.112-1.408 11.088-4.224 14.928-2.816 3.808-7.104 5.712-12.864 5.712Zm35.117 28.368h7.104v-29.232a20.186 20.186 0 0 0 6.864 5.616c2.72 1.344 5.84 2.016 9.36 2.016 4.864 0 9.008-1.2 12.432-3.6 3.424-2.432 6.032-5.712 7.824-9.84 1.824-4.128 2.736-8.784 2.736-13.968 0-5.152-.912-9.792-2.736-13.92-1.792-4.128-4.384-7.392-7.776-9.792-3.392-2.4-7.456-3.6-12.192-3.6-3.84 0-7.216.768-10.128 2.304-2.88 1.504-5.264 3.6-7.152 6.288v-7.152h-6.336v74.88Zm22.608-28.176c-3.68 0-6.72-.896-9.12-2.688-2.4-1.824-4.192-4.304-5.376-7.44-1.184-3.136-1.776-6.704-1.776-10.704 0-6.112 1.328-11.088 3.984-14.928 2.688-3.872 6.736-5.808 12.144-5.808 3.712 0 6.768.912 9.168 2.736 2.432 1.824 4.24 4.304 5.424 7.44 1.184 3.136 1.776 6.656 1.776 10.56 0 3.936-.608 7.472-1.824 10.608-1.184 3.136-2.976 5.632-5.376 7.488-2.4 1.824-5.408 2.736-9.024 2.736Zm56.188 6.576c5.024 0 9.52-1.232 13.488-3.696 4-2.464 7.024-5.968 9.072-10.512l-6.576-2.544c-3.296 6.656-8.72 9.984-16.272 9.984-5.184 0-9.248-1.616-12.192-4.848-2.912-3.232-4.512-7.824-4.8-13.776h40.848c.256-9.152-1.744-16.32-6-21.504-4.224-5.216-10.176-7.824-17.856-7.824-4.992 0-9.328 1.12-13.008 3.36-3.648 2.24-6.48 5.424-8.496 9.552-2.016 4.128-3.024 9.024-3.024 14.688 0 5.472 1.008 10.24 3.024 14.304 2.048 4.064 4.928 7.216 8.64 9.456 3.744 2.24 8.128 3.36 13.152 3.36Zm-.096-48.24c9.76 0 15.184 5.648 16.272 16.944h-33.312c.544-5.472 2.272-9.664 5.184-12.576 2.912-2.912 6.864-4.368 11.856-4.368Zm53.535 46.8h7.056v-26.256h22.08L461.982 364h8.112l-13.632-27.984c3.872-1.568 6.848-4.112 8.928-7.632 2.08-3.52 3.12-7.536 3.12-12.048 0-5.408-1.456-10.064-4.368-13.968-2.912-3.904-7.072-6.272-12.48-7.104a17.845 17.845 0 0 0-2.592-.288 29.668 29.668 0 0 0-2.256-.096h-26.688V364Zm7.056-32.976v-29.376h19.44c.576 0 1.248.032 2.016.096.8.032 1.552.128 2.256.288 3.552.768 6.16 2.544 7.824 5.328a16.791 16.791 0 0 1 2.544 8.976c0 3.2-.848 6.192-2.544 8.976-1.664 2.784-4.272 4.544-7.824 5.28-.704.16-1.456.272-2.256.336a24.66 24.66 0 0 1-2.016.096h-19.44Zm75.443 34.416c5.024 0 9.52-1.232 13.488-3.696 4-2.464 7.024-5.968 9.072-10.512l-6.576-2.544c-3.296 6.656-8.72 9.984-16.272 9.984-5.184 0-9.248-1.616-12.192-4.848-2.912-3.232-4.512-7.824-4.8-13.776h40.848c.256-9.152-1.744-16.32-6-21.504-4.224-5.216-10.176-7.824-17.856-7.824-4.992 0-9.328 1.12-13.008 3.36-3.648 2.24-6.48 5.424-8.496 9.552-2.016 4.128-3.024 9.024-3.024 14.688 0 5.472 1.008 10.24 3.024 14.304 2.048 4.064 4.928 7.216 8.64 9.456 3.744 2.24 8.128 3.36 13.152 3.36Zm-.096-48.24c9.76 0 15.184 5.648 16.272 16.944h-33.312c.544-5.472 2.272-9.664 5.184-12.576 2.912-2.912 6.864-4.368 11.856-4.368Zm54.428 48.24c3.488 0 6.592-.672 9.312-2.016a19.69 19.69 0 0 0 6.864-5.568v5.328c.032 6.08-1.168 10.672-3.6 13.776-2.432 3.104-6.464 4.656-12.096 4.656-2.72 0-5.392-.64-8.016-1.92-2.624-1.248-4.64-3.312-6.048-6.192l-6.384 3.552c2.208 4.032 5.168 6.944 8.88 8.736 3.744 1.792 7.6 2.688 11.568 2.688 6.336 0 11.392-1.376 15.168-4.128 3.776-2.752 6.128-7.024 7.056-12.816.224-1.312.368-2.656.432-4.032.096-1.344.144-2.752.144-4.224v-51.12h-6.288v7.152a19.752 19.752 0 0 0-7.2-6.288c-2.88-1.536-6.24-2.304-10.08-2.304-4.736 0-8.8 1.2-12.192 3.6-3.392 2.4-6 5.664-7.824 9.792-1.792 4.128-2.688 8.768-2.688 13.92 0 5.184.896 9.84 2.688 13.968 1.824 4.128 4.448 7.408 7.872 9.84 3.456 2.4 7.6 3.6 12.432 3.6Zm.72-6.576c-3.584 0-6.592-.912-9.024-2.736-2.4-1.856-4.208-4.352-5.424-7.488-1.184-3.136-1.776-6.672-1.776-10.608 0-3.904.592-7.424 1.776-10.56 1.184-3.136 2.976-5.616 5.376-7.44 2.432-1.824 5.504-2.736 9.216-2.736 5.408 0 9.44 1.936 12.096 5.808 2.688 3.84 4.032 8.816 4.032 14.928 0 4-.592 7.568-1.776 10.704-1.184 3.136-2.976 5.616-5.376 7.44-2.4 1.792-5.44 2.688-9.12 2.688Zm55.805 6.432c3.712 0 7.056-.704 10.032-2.112 3.008-1.44 5.472-3.568 7.392-6.384v7.2h6.336v-51.84h-7.056v27.648c0 5.856-1.312 10.448-3.936 13.776-2.624 3.328-6.432 4.992-11.424 4.992-3.616 0-6.528-.864-8.736-2.592-2.208-1.76-3.808-4.144-4.8-7.152s-1.488-6.416-1.488-10.224V312.16h-7.104v28.512c0 2.912.352 5.824 1.056 8.736.736 2.912 1.904 5.568 3.504 7.968 1.6 2.4 3.728 4.32 6.384 5.76 2.688 1.44 5.968 2.16 9.84 2.16ZM651.618 364h7.056v-70.56h-7.056V364Zm36.278 1.44c9.056 0 15.632-3.344 19.728-10.032V364h6.288v-32.208c0-1.92-.096-3.808-.288-5.664-.192-1.856-.608-3.536-1.248-5.04-1.376-3.36-3.728-5.92-7.056-7.68-3.296-1.792-7.312-2.688-12.048-2.688-5.696 0-10.336 1.28-13.92 3.84-3.584 2.56-5.984 6.16-7.2 10.8l6.864 2.016c.992-3.456 2.704-5.984 5.136-7.584 2.464-1.6 5.472-2.4 9.024-2.4 4.928 0 8.448 1.152 10.56 3.456 2.112 2.272 3.2 5.744 3.264 10.416-2.304.32-4.848.656-7.632 1.008-2.752.352-5.52.752-8.304 1.2-2.784.448-5.344.96-7.68 1.536-3.872 1.024-7.04 2.736-9.504 5.136-2.464 2.368-3.696 5.68-3.696 9.936 0 2.752.656 5.296 1.968 7.632 1.312 2.336 3.28 4.208 5.904 5.616 2.656 1.408 5.936 2.112 9.84 2.112Zm.816-6.096c-2.784 0-5.024-.448-6.72-1.344-1.664-.928-2.88-2.096-3.648-3.504-.736-1.44-1.104-2.912-1.104-4.416 0-2.816.944-4.928 2.832-6.336a19.104 19.104 0 0 1 6.144-3.072c2.848-.768 6.16-1.392 9.936-1.872 3.776-.48 7.36-.928 10.752-1.344 0 1.184-.048 2.544-.144 4.08a23.611 23.611 0 0 1-.528 4.176c-.672 3.904-2.528 7.152-5.568 9.744-3.008 2.592-6.992 3.888-11.952 3.888ZM726.408 364h7.056v-25.872c0-3.104.352-6.192 1.056-9.264.736-3.104 2.4-5.68 4.992-7.728 1.888-1.536 3.936-2.416 6.144-2.64 2.24-.256 4.32-.16 6.24.288v-6.624c-2.272-.576-4.848-.592-7.728-.048-2.88.512-5.344 1.664-7.392 3.456-1.536 1.152-2.88 2.752-4.032 4.8v-8.208h-6.336V364Zm-720 131h5.375v-56.4L37.56 495h4.513l25.727-56.4v56.304h5.424V425.88h-5.328l-28.031 61.152-28.32-61.152H6.407V495Zm95.226 1.44c4.48 0 8.464-.896 11.952-2.688 3.52-1.792 6.272-4.384 8.256-7.776V495h5.04v-32.304c0-1.856-.096-3.696-.288-5.52-.192-1.856-.56-3.472-1.104-4.848-1.28-3.328-3.552-5.92-6.816-7.776-3.232-1.888-7.232-2.832-12-2.832-5.6 0-10.193 1.264-13.777 3.792-3.584 2.528-5.968 6.144-7.151 10.848l5.663 1.584c1.984-7.264 7.008-10.896 15.073-10.896 5.44 0 9.28 1.296 11.52 3.888 2.272 2.592 3.392 6.512 3.36 11.76l-7.2.912c-2.784.32-5.648.704-8.592 1.152-2.912.448-5.632.944-8.16 1.488-3.776.896-6.992 2.512-9.648 4.848-2.656 2.336-3.984 5.696-3.984 10.08 0 2.72.655 5.248 1.968 7.584 1.312 2.304 3.296 4.16 5.952 5.568 2.656 1.408 5.968 2.112 9.936 2.112Zm.288-5.088c-3.105 0-5.569-.512-7.392-1.536-1.825-1.024-3.136-2.32-3.936-3.888-.768-1.568-1.152-3.136-1.152-4.704 0-2.112.496-3.856 1.488-5.232a11.27 11.27 0 0 1 3.791-3.264c1.536-.8 3.056-1.392 4.56-1.776 2.145-.544 4.529-1.008 7.153-1.392 2.624-.416 5.232-.752 7.824-1.008 2.624-.288 4.992-.544 7.104-.768 0 1.152-.048 2.496-.144 4.032a33.63 33.63 0 0 1-.432 4.224c-.672 4.64-2.672 8.352-6 11.136-3.296 2.784-7.584 4.176-12.864 4.176ZM139.345 495h5.568v-27.984c0-3.808.576-7.2 1.728-10.176 1.184-2.976 2.976-5.312 5.376-7.008 2.4-1.696 5.488-2.544 9.264-2.544 5.44 0 9.472 1.824 12.096 5.472 2.624 3.616 3.936 8.704 3.936 15.264V495h5.568v-28.368c0-4.512-.752-8.64-2.256-12.384-1.472-3.744-3.76-6.72-6.864-8.928-3.072-2.24-6.992-3.36-11.76-3.36-3.712 0-7.104.736-10.176 2.208-3.04 1.472-5.52 3.728-7.44 6.768v-7.776h-5.04V495Zm55.969 0h5.568v-25.68c0-2.112.096-4.272.288-6.48a23.58 23.58 0 0 1 1.536-6.384c.832-2.048 2.128-3.84 3.888-5.376 1.984-1.696 4.128-2.688 6.432-2.976 2.336-.288 4.528-.192 6.576.288v-5.232c-2.272-.64-4.928-.672-7.968-.096-3.008.576-5.552 1.808-7.632 3.696-1.376 1.184-2.592 2.704-3.648 4.56v-8.16h-5.04V495Zm53.701 1.44c5.12 0 9.472-1.152 13.056-3.456 3.584-2.304 6.32-5.52 8.208-9.648 1.92-4.128 2.88-8.912 2.88-14.352 0-5.344-.944-10.064-2.832-14.16-1.856-4.096-4.592-7.296-8.208-9.6-3.584-2.336-7.952-3.504-13.104-3.504-5.024 0-9.344 1.152-12.96 3.456-3.616 2.272-6.384 5.456-8.304 9.552-1.92 4.064-2.88 8.816-2.88 14.256 0 5.376.944 10.128 2.832 14.256s4.624 7.36 8.208 9.696c3.616 2.336 7.984 3.504 13.104 3.504Zm0-5.376c-5.984 0-10.528-2.016-13.632-6.048-3.072-4.032-4.608-9.376-4.608-16.032 0-4.288.656-8.08 1.968-11.376 1.312-3.296 3.312-5.872 6-7.728 2.72-1.856 6.144-2.784 10.272-2.784 6.08 0 10.64 1.984 13.68 5.952 3.04 3.968 4.56 9.28 4.56 15.936 0 6.56-1.52 11.888-4.56 15.984-3.008 4.064-7.568 6.096-13.68 6.096Zm34.705 26.976h5.52v-31.008c1.824 2.912 4.176 5.216 7.056 6.912 2.912 1.664 6.288 2.496 10.128 2.496 4.896 0 9.04-1.2 12.432-3.6 3.392-2.432 5.968-5.712 7.728-9.84 1.76-4.16 2.64-8.832 2.64-14.016 0-5.12-.88-9.728-2.64-13.824-1.728-4.128-4.256-7.392-7.584-9.792-3.328-2.432-7.344-3.648-12.048-3.648-4.192 0-7.808.896-10.848 2.688-3.04 1.792-5.488 4.256-7.344 7.392v-8.64h-5.04v74.88Zm22.368-26.88c-3.872 0-7.088-.96-9.648-2.88-2.56-1.952-4.48-4.592-5.76-7.92-1.28-3.36-1.92-7.152-1.92-11.376 0-4.288.64-8.08 1.92-11.376 1.28-3.296 3.2-5.888 5.76-7.776 2.56-1.888 5.744-2.832 9.552-2.832 3.936 0 7.184.976 9.744 2.928 2.56 1.92 4.464 4.544 5.712 7.872 1.248 3.296 1.872 7.024 1.872 11.184 0 4.192-.64 7.968-1.92 11.328-1.28 3.328-3.2 5.968-5.76 7.92-2.56 1.952-5.744 2.928-9.552 2.928Zm55.055 5.28c5.056 0 9.552-1.216 13.488-3.648 3.936-2.464 6.944-5.92 9.024-10.368l-4.992-2.208c-1.76 3.488-4.144 6.176-7.152 8.064-2.976 1.856-6.464 2.784-10.464 2.784-5.568 0-9.936-1.776-13.104-5.328-3.168-3.584-4.864-8.608-5.088-15.072h41.904c.128-9.088-1.904-16.176-6.096-21.264-4.192-5.12-10.064-7.68-17.616-7.68-4.96 0-9.248 1.12-12.864 3.36-3.616 2.208-6.4 5.36-8.352 9.456-1.952 4.096-2.928 8.976-2.928 14.64 0 5.568.976 10.4 2.928 14.496 1.984 4.064 4.784 7.216 8.4 9.456 3.648 2.208 7.952 3.312 12.912 3.312Zm0-49.488c5.248 0 9.36 1.6 12.336 4.8 3.008 3.2 4.784 7.84 5.328 13.92h-35.856c.512-5.984 2.32-10.592 5.424-13.824 3.136-3.264 7.392-4.896 12.768-4.896ZM415.555 495h39.12v-5.376h-33.6V425.88h-5.52V495Zm48.281-62.304h5.52v-7.056h-5.52v7.056Zm0 62.304h5.52v-51.84h-5.52V495Zm39.867 1.44c3.808 0 7.136-.832 9.984-2.496 2.88-1.664 5.248-3.92 7.104-6.768v6c.032 6.848-1.184 12.016-3.648 15.504-2.464 3.52-6.848 5.28-13.152 5.28-3.008 0-5.936-.688-8.784-2.064-2.848-1.376-5.072-3.664-6.672-6.864l-4.992 2.976c2.304 4.192 5.312 7.152 9.024 8.88 3.744 1.728 7.536 2.592 11.376 2.592 6.528 0 11.6-1.44 15.216-4.32 3.648-2.88 5.888-7.328 6.72-13.344.224-1.408.368-2.816.432-4.224.064-1.408.095-2.88.095-4.416V443.16h-5.039v8.64c-1.856-3.136-4.304-5.6-7.344-7.392-3.04-1.792-6.656-2.688-10.848-2.688-4.704 0-8.72 1.216-12.048 3.648-3.296 2.4-5.824 5.664-7.584 9.792-1.76 4.096-2.64 8.704-2.64 13.824 0 5.184.88 9.856 2.64 14.016 1.76 4.128 4.336 7.408 7.728 9.84 3.424 2.4 7.568 3.6 12.432 3.6Zm.336-5.28c-3.808 0-6.992-.976-9.552-2.928-2.56-1.952-4.48-4.592-5.76-7.92-1.28-3.36-1.92-7.136-1.92-11.328 0-4.16.624-7.888 1.872-11.184 1.248-3.328 3.152-5.952 5.712-7.872 2.56-1.952 5.808-2.928 9.744-2.928 3.808 0 6.992.944 9.552 2.832 2.56 1.888 4.48 4.48 5.76 7.776 1.28 3.296 1.92 7.088 1.92 11.376 0 4.224-.64 8.016-1.92 11.376-1.28 3.328-3.2 5.968-5.76 7.92-2.56 1.92-5.776 2.88-9.648 2.88Zm35.806 3.84h5.568v-27.984c0-3.808.576-7.2 1.728-10.176 1.184-2.976 2.976-5.312 5.376-7.008 2.4-1.696 5.488-2.544 9.264-2.544 5.44 0 9.472 1.824 12.096 5.472 2.624 3.616 3.936 8.704 3.936 15.264V495h5.568v-28.368c0-4.512-.752-8.64-2.256-12.384-1.472-3.744-3.76-6.72-6.864-8.928-3.072-2.24-6.992-3.36-11.76-3.36-3.712 0-7.104.736-10.176 2.208-3.04 1.472-5.52 3.728-7.44 6.768V425.88h-5.04V495Zm83.473 0v-4.992c-3.872.608-7.056.688-9.552.24-2.496-.48-4.32-1.824-5.472-4.032-.608-1.184-.944-2.48-1.008-3.888a247.907 247.907 0 0 1-.048-5.424V448.2h16.08v-5.04h-16.08v-14.4h-5.568v14.4h-11.616v5.04h11.616V477c0 2.4.048 4.544.144 6.432.096 1.856.576 3.68 1.44 5.472 1.056 2.208 2.64 3.856 4.752 4.944 2.112 1.088 4.496 1.696 7.152 1.824a32.215 32.215 0 0 0 8.16-.672Z" fill="#000"/></g><defs><clipPath id="a"><path fill="#fff" d="M0 0h854v524H0z"/></clipPath></defs></svg>